<?xml version="1.0" encoding="utf-8"?>
<!-- Generator: Adobe Illustrator 22.0.1, SVG Export Plug-In . SVG Version: 6.00 Build 0)  -->
<!DOCTYPE svg PUBLIC "-//W3C//DTD SVG 1.1//EN" "http://www.w3.org/Graphics/SVG/1.1/DTD/svg11.dtd">
<svg version="1.1" id="Layer_1" xmlns="http://www.w3.org/2000/svg" xmlns:xlink="http://www.w3.org/1999/xlink" x="0px" y="0px"
	 viewBox="0 0 1920 1080" style="enable-background:new 0 0 1920 1080;" xml:space="preserve">
<style type="text/css">
	.st0{fill:#BADA55;}
	.st1{fill:#D9EF7F;}
</style>
<g>
	<rect class="st0" width="1920" height="1080"/>
</g>
<g>
	<path class="st1" d="M1950.2,977.7c-9.9-5.6-19.9-10.9-29.9-16c2.3-1.2,3.7-3.9,2.1-6.8c-3.4-6.1-6.9-12.2-10.3-18.3
		c-2.2-3.8-3.9-9.5-8.2-11.4c-4.2-1.9-11.6-1.3-16.4-1.8c-8.8-1-17.5-1.9-26.3-2.9l-50.1-5.4c-19.9-7.3-40-14-60.1-20.5
		c-30.4-9.8-60.9-19.1-91.5-28c-1.1-31.5-2.4-63-4-94.4c-4.8-91.8-12.6-183.7-29.1-274.2c-13.9-76.4-31.8-156-72.2-223.4
		c-12.3-20.4-26.9-39.5-43.9-56.1c19.7-15.5,39.5-30.9,59.7-45.8c46.4-34.1,93.8-66.9,141.9-98.5c23.6-15.5,47.4-30.8,71.3-45.9
		c15.9-10,37-23.4,31.3-45.5c-2-7.8-7.3-13.8-15.1-15.9c-6.2-1.7-8.9,7.9-2.7,9.6c12.5,3.4,9.4,19.7,2.9,27.2
		c-8.2,9.4-20.5,15.3-30.9,21.9c-23.4,14.8-46.7,29.9-69.8,45.2c-45.8,30.3-91,61.6-135.2,94.2c-20.5,15.1-40.7,30.8-60.7,46.6
		c-6.4-5.7-13.1-11.2-20.2-16.2c-30.6-21.7-66.3-35.1-103.1-41.7c-77.6-14.1-157.3-1.7-234.1,11.8c-53,9.3-105.7,20.3-158.4,31.1
		c-12.4-10-25-19.8-37.8-29.3c-26.7-19.9-54-39.4-82.8-56.1c-28.4-16.5-59.2-30.1-92-34.5c-8.2-1.1-16.4-1.6-24.7-1.5
		c-6.4,0.1-6.4,10.1,0,10c65.5-0.9,123.1,39.5,174.1,75.9c17.1,12.3,34,25,50.5,38.1c-35.8,7.3-71.6,14.5-107.5,21.1
		c-90.9,16.6-182.6,27.9-274.8,33.3c-184,10.9-369.4-0.7-550.6-34.8c-22.2-4.2-44.3-8.7-66.3-13.5c-6.3-1.4-9,8.3-2.7,9.6
		c174.7,38.3,353.8,55.9,532.6,52.2c88.5-1.8,177-8.9,264.7-21.1c72.1-10,143.4-24.2,214.6-38.7c30.4,24.7,59.5,51,87,78.8
		c39.6,40,76,83.2,108,129.6c-58.4,31.1-117.2,61.4-176.4,90.8c-10-5.9-19.7-12.1-29.3-18.6c37.2-19.4,76.1-36.1,110.5-60
		c6.8-4.7,13.3-9.7,19.7-14.9c3.1-2.5,1-7.3-2.2-8.4c-60.2-19.7-124.6-26.8-187.6-20.3c-11.4,1.2-28.6,0.7-35.5,11.9
		c-6.6,10.7,0.4,23.5,7.3,32c9,11,20.9,20.4,31.7,29.5c11.2,9.5,22.8,18.6,34.6,27.3c0.8,0.6,1.7,1.2,2.5,1.8
		c-13.3,7.3-26.3,15.2-38.7,24.1c-4,2.9-7.9,5.8-11.8,8.9c-9.3-1.1-18.5-2.3-27.8-3.6c-16.3-2.3-33.5-4.3-48.3-12
		c-14.1-7.3-25.8-21-24.7-37.7c0.4-6.4-9.6-6.4-10,0c-1,14.8,6.6,28.7,17.6,38.2c13,11.1,29.8,15.8,46.4,18.7c12,2,24,3.8,36,5.3
		c-5.6,4.9-11,10.3-14.4,17c-3.5,6.9-4.2,14-3.2,20.9c-91.6,5.8-183.7,4.5-274.8-6.7c-94.2-11.6-185.1-36.9-276.7-60.8
		c-98.6-25.7-199.8-48.1-302.3-39.9c-6.4,0.5-6.4,10.5,0,10c93.3-7.4,185.6,10.7,275.6,33.4c90.9,22.9,180.7,49.7,273.6,63.3
		c94.3,13.8,189.3,16.7,284.2,11.8c-52.2,24.5-104.6,48.4-157.4,71.7c-31.7,14-63.5,27.7-95.5,41.2
		c-142.9,3.2-283.9,27.8-422.7,61.4c-149.8,36.3-297.7,80.5-445.5,124c-18.6,5.5-37.1,10.9-55.7,16.4c-5.5,1.6-4.3,9.6,1.3,9.8
		c115.3,5.3,230.6,10.6,345.9,15.8c6.4,0.3,6.4-9.7,0-10c-105.3-4.8-210.7-9.6-316-14.5c137.3-40.6,274.7-81.4,413.3-117.2
		c108.4-28,218.2-52.2,329.5-65.4C345.3,783.3,251.4,876,177.7,983c-21.9,31.8-41.8,64.8-59.9,98.9c-3,5.7,5.6,10.7,8.6,5
		c57.4-107.9,134.3-205,226-285.7c0.8,0.2,1.7,0.2,2.7-0.1c84-32,167.4-65.5,250.1-100.5c142.9-2.7,285.5,14,426.5,36
		c22.7,3.5,45.4,7.3,68.1,11.1c22.9,16.4,45.6,33.1,68.1,50.2c61.9,47.1,122.1,96.6,180.5,148.1c58.2,51.4,114.5,104.9,168.8,160.5
		c6.8,6.9,13.5,13.9,20.2,20.8c4.5,4.6,11.5-2.4,7.1-7.1c-53-55.1-107.9-108.4-164.7-159.6c-56.6-51-114.9-100-175-146.8
		c-27.2-21.2-54.7-41.9-82.5-62.3c53.1,9.3,106.1,19.5,158.9,30.5c0.6,6.2,3.4,12.1,8.3,16.4c1.6,1.4,4.1,2,6.1,0.8
		c5-3.2,9.1-7.1,12.3-11.5c55.3,11.9,110.3,24.7,165.1,38.5c9.9,2.5,19.8,5,29.7,7.6c0.1,0.1,0.1,0.2,0.2,0.3
		c10.9,18.5,23.7,36.4,41.2,49.2c20.4,14.9,44.9,17.7,69.3,20.4c12.6,1.4,25.2,2.7,37.8,4.1c0.4,14.2,0.9,28.4,1.3,42.6
		c1.3,45.8,1.9,91.8-1.9,137.5c-1.8,22.5-4.3,45.2-9.3,67.2c-4.5,19.6-11.7,39.4-25.7,54.3c-12.7,13.5-29.8,22.3-48.6,21.2
		c-6.4-0.4-6.4,9.6,0,10c37.4,2.1,65.1-27.9,77.3-60.4c7.4-19.6,10.4-40.6,13.1-61.3c3-23.3,4.6-46.7,5.4-70.1
		c1.6-46.4-0.1-92.8-1.7-139.1c0-0.2,0-0.5,0-0.7c14.1,1.5,28.3,3.1,42.4,4.6c35.2,3.8,70.4,7.6,105.5,11.4
		c29.9,10.9,59.3,22.8,88,36.5c16.3,7.8,32.3,16.1,48.1,25C1950.8,989.5,1955.8,980.8,1950.2,977.7z M1098.1,298.9
		c-31.5-33.6-65.3-64.9-100.8-94.2c14.7-3,29.4-6,44.1-9c82.5-16.8,166.6-35.6,251.1-37.9c72.2-2,147,11.3,202.6,60
		c-21,16.6-42,33.2-63.3,49.3c-43.9,33.2-91.5,60.6-139.6,87.3c-34.4,19.1-69,37.9-103.7,56.5C1161.4,371.3,1131,333.9,1098.1,298.9
		z M1185.4,424c2.5,3.8,5,7.6,7.5,11.4c16.2,25,31.2,50.9,44.6,77.4c-108.9,24-219,42.8-330.2,51.7c20.1-9.6,40.1-19.3,60.1-29.1
		c2.3,0.1,4.6,0.3,6.9,0.4c22.2,1.2,44.5,1.8,66.8,1.8c4.7,0,7.1-7.1,2.5-9.3c-10.1-5-20.1-10.3-29.9-15.8
		C1071.3,483.7,1128.6,454.2,1185.4,424z M985.8,526.3c5.7-2.8,11.4-5.6,17.1-8.5c5.7,3.3,11.3,6.5,17.1,9.6
		C1008.6,527.2,997.2,526.9,985.8,526.3z M909.4,436.8c-8.4-7.7-21.4-17.3-22.9-29.5c-0.7-5.8,3.5-9,8.7-10.3
		c6.8-1.7,14.2-2.1,21.2-2.8c28.5-2.8,57.3-2.9,85.8-0.3c29.9,2.8,59.4,8.7,88.1,17.5c-38.2,29.3-83,47.8-125.4,70.2
		C945.5,467.8,926.9,452.9,909.4,436.8z M964.1,493.2c9.4,6.5,18.9,12.7,28.6,18.6c-9.1,4.5-18.2,9-27.3,13.5
		c-11.1-0.7-22.2-1.6-33.3-2.6c-4.4-0.4-8.8-0.8-13.2-1.3C933.3,510.8,948.5,501.7,964.1,493.2z M889.4,548.7
		c4.3-7.3,11.4-12.8,17.8-18.2c0.1-0.1,0.2-0.1,0.3-0.2c13.3,1.5,26.6,2.7,40,3.7c-20.4,9.9-40.9,19.8-61.4,29.6
		C885.6,558.5,886.6,553.4,889.4,548.7z M381.7,776.4c21-17.1,42.6-33.2,64.9-48.5C428.8,748.3,405.7,763.4,381.7,776.4z
		 M417.6,766.3c21.2-14.6,40-32.1,53-55.1c0.4-0.7,0.5-1.3,0.6-2c33.1-3.6,66.4-6.2,99.7-7.5c2.3-0.1,4.6-0.2,6.9-0.3
		C524.7,723.6,471.3,745.3,417.6,766.3z M629.4,690.3c14-6,28.1-12,42.1-18.1c69.9-30.4,139.3-61.9,208.1-94.5
		c2.2,5.2,5.2,10.2,8.6,14.7c11.2,14.6,26.4,26.3,40.9,37.4c15.4,11.8,31.4,22.7,47.6,33.4c35.2,23.3,70,47,104.5,71.3
		C932,709.7,780.9,689.7,629.4,690.3z M1293.8,788.3c-0.9-1.2-1.5-2.5-2-3.9c1.7,0.4,3.4,0.7,5.1,1.1
		C1295.9,786.4,1294.9,787.4,1293.8,788.3z M1303.4,776.6c-3.9-0.8-7.7-1.6-11.6-2.5c-0.3-4.7-7.3-6.4-9.4-2
		c-59.2-12.4-118.7-23.6-178.3-33.8c-27.8-20-55.9-39.6-84.4-58.7c-31.8-21.3-64.7-41.4-94.4-65.6c-13.2-10.7-28.2-22.5-35.7-38.3
		c80.7-5.7,161.1-16.7,240.5-31.1c37.5-6.8,74.9-14.4,112.1-22.7c13.8,28.1,26,57,36.3,86.5c10.5,30.2,19.2,61.1,25.6,92.4
		C1309,724.5,1315.5,754,1303.4,776.6z M1313.3,778.7c6.7-14.3,7.5-31.6,6-47.4c-1.4-15.1-4.7-30.1-8.1-44.9
		c-3.6-16-7.8-31.9-12.4-47.7c-12.2-40.9-27.9-80.6-46.6-119c62.1-13.9,123.8-29.4,185.3-45.7c-16.2,98-5.2,200,32.2,292.2
		c7.7,19,16.4,37.6,26.3,55.6C1435.3,806.2,1374.4,791.9,1313.3,778.7z M1491.9,792.1c-22.4-46.7-37.6-96.7-45.6-147.8
		c-9.1-58.2-8.3-117.9,2.1-175.8c0.7-3.7-2.2-7.2-6.2-6.2c-64.5,17.2-129.4,33.6-194.7,48.2c-9.2-18.3-19.1-36.2-29.6-53.8
		c-7.6-12.7-15.6-25.2-23.8-37.5c31.2-16.7,62.3-33.6,93.3-50.8c50.4-27.9,100.6-56.1,146.8-90.8c23-17.3,45.6-35.2,68.2-53.1
		c52.3,50.4,78.4,121.9,95.9,190.8c22.1,87.2,34,176.7,41.2,266.3c4.9,60.5,7.8,121.2,10,181.9c-38.1-11-76.3-21.6-114.7-31.7
		c-8.7-2.3-17.4-4.6-26.1-6.8C1502.7,814.3,1497.2,803.1,1491.9,792.1z M1594.6,891.4c-25.8-3.7-46.6-14.1-63.5-34
		c-5.3-6.3-10.2-13-14.7-20c44.7,11.7,89.3,24,133.7,36.9c0.3,8.1,0.5,16.1,0.8,24.2C1632,896.4,1613.3,894.1,1594.6,891.4z
		 M1660.7,899.6c-0.3-7.5-0.5-14.9-0.8-22.4c10.8,3.2,21.5,6.4,32.3,9.6c25,7.5,50.1,15.3,74.9,23.5
		C1731.8,906.5,1696.2,903.4,1660.7,899.6z M1847.7,929c17.3,1.9,34.5,3.7,51.8,5.6c4.4,7.7,8.7,15.5,13.1,23.2
		C1891.3,947.4,1869.6,937.8,1847.7,929z"/>
</g>
<g>
	<path class="st1" d="M-557.8,156.5c9.9,5.6,19.9,10.9,29.9,16c-2.3,1.2-3.7,3.9-2.1,6.8c3.4,6.1,6.9,12.2,10.3,18.3
		c2.2,3.8,3.9,9.5,8.2,11.4c4.2,1.9,11.6,1.3,16.4,1.8c8.8,1,17.5,1.9,26.3,2.9l50.1,5.4c19.9,7.3,40,14,60.1,20.5
		c30.4,9.8,60.9,19.1,91.5,28c1.1,31.5,2.4,63,4,94.4c4.8,91.8,12.6,183.7,29.1,274.2c13.9,76.4,31.8,156,72.2,223.4
		c12.3,20.4,26.9,39.5,43.9,56.1c-19.7,15.5-39.5,30.9-59.7,45.8c-46.4,34.1-93.8,66.9-141.9,98.5c-23.6,15.5-47.4,30.8-71.3,45.9
		c-15.9,10-37,23.4-31.3,45.5c2,7.8,7.3,13.8,15.1,15.9c6.2,1.7,8.9-7.9,2.7-9.6c-12.5-3.4-9.4-19.7-2.9-27.2
		c8.2-9.4,20.5-15.3,30.9-21.9c23.4-14.8,46.7-29.9,69.8-45.2c45.8-30.3,91-61.6,135.2-94.2c20.5-15.1,40.7-30.8,60.7-46.6
		c6.4,5.7,13.1,11.2,20.2,16.2c30.6,21.7,66.3,35.1,103.1,41.7c77.6,14.1,157.3,1.7,234.1-11.8c53-9.3,105.7-20.3,158.4-31.1
		c12.4,10,25,19.8,37.8,29.3c26.7,19.9,54,39.4,82.8,56.1c28.4,16.5,59.2,30.1,92,34.5c8.2,1.1,16.4,1.6,24.7,1.5
		c6.4-0.1,6.4-10.1,0-10c-65.5,0.9-123.1-39.5-174.1-75.9c-17.1-12.3-34-25-50.5-38.1c35.8-7.3,71.6-14.5,107.5-21.1
		c90.9-16.6,182.6-27.9,274.8-33.3c184-10.9,369.4,0.7,550.6,34.8c22.2,4.2,44.3,8.7,66.3,13.5c6.3,1.4,9-8.3,2.7-9.6
		c-174.7-38.3-353.8-55.9-532.6-52.2c-88.5,1.8-177,8.9-264.7,21.1c-72.1,10-143.4,24.2-214.6,38.7c-30.4-24.7-59.5-51-87-78.8
		c-39.6-40-76-83.2-108-129.6c58.4-31.1,117.2-61.4,176.4-90.8c10,5.9,19.7,12.1,29.3,18.6c-37.2,19.4-76.1,36.1-110.5,60
		c-6.8,4.7-13.3,9.7-19.7,14.9c-3.1,2.5-1,7.3,2.2,8.4c60.2,19.7,124.6,26.8,187.6,20.3c11.4-1.2,28.6-0.7,35.5-11.9
		c6.6-10.7-0.4-23.5-7.3-32c-9-11-20.9-20.4-31.7-29.5c-11.2-9.5-22.8-18.6-34.6-27.3c-0.8-0.6-1.7-1.2-2.5-1.8
		c13.3-7.3,26.3-15.2,38.7-24.1c4-2.9,7.9-5.8,11.8-8.9c9.3,1.1,18.5,2.3,27.8,3.6c16.3,2.3,33.5,4.3,48.3,12
		c14.1,7.3,25.8,21,24.7,37.7c-0.4,6.4,9.6,6.4,10,0c1-14.8-6.6-28.7-17.6-38.2c-13-11.1-29.8-15.8-46.4-18.7c-12-2-24-3.8-36-5.3
		c5.6-4.9,11-10.3,14.4-17c3.5-6.9,4.2-14,3.2-20.9c91.6-5.8,183.7-4.5,274.8,6.7c94.2,11.6,185.1,36.9,276.7,60.8
		c98.6,25.7,199.8,48.1,302.3,39.9c6.4-0.5,6.4-10.5,0-10c-93.3,7.4-185.6-10.7-275.6-33.4c-90.9-22.9-180.7-49.7-273.6-63.3
		c-94.3-13.8-189.3-16.7-284.2-11.8c52.2-24.5,104.6-48.4,157.4-71.7c31.7-14,63.5-27.7,95.5-41.2c142.9-3.2,283.9-27.8,422.7-61.4
		c149.8-36.3,297.7-80.5,445.5-124c18.6-5.5,37.1-10.9,55.7-16.4c5.5-1.6,4.3-9.6-1.3-9.8c-115.3-5.3-230.6-10.6-345.9-15.8
		c-6.4-0.3-6.4,9.7,0,10c105.3,4.8,210.7,9.6,316,14.5c-137.3,40.6-274.7,81.4-413.3,117.2c-108.4,28-218.2,52.2-329.5,65.4
		c108.1-72.1,202-164.8,275.6-271.8c21.9-31.8,41.8-64.8,59.9-98.9c3-5.7-5.6-10.7-8.6-5c-57.4,107.9-134.3,205-226,285.7
		c-0.8-0.2-1.7-0.2-2.7,0.1c-84,32-167.4,65.5-250.1,100.5c-142.9,2.7-285.5-14-426.5-36c-22.7-3.5-45.4-7.3-68.1-11.1
		c-22.9-16.4-45.6-33.1-68.1-50.2C162.5,289.1,102.3,239.7,44,188.2C-14.2,136.7-70.5,83.2-124.8,27.7c-6.8-6.9-13.5-13.9-20.2-20.8
		c-4.5-4.6-11.5,2.4-7.1,7.1c53,55.1,107.9,108.4,164.7,159.6c56.6,51,114.9,100,175,146.8c27.2,21.2,54.7,41.9,82.5,62.3
		c-53.1-9.3-106.1-19.5-158.9-30.5c-0.6-6.2-3.4-12.1-8.3-16.4c-1.6-1.4-4.1-2-6.1-0.8c-5,3.2-9.1,7.1-12.3,11.5
		c-55.3-11.9-110.3-24.7-165.1-38.5c-9.9-2.5-19.8-5-29.7-7.6c-0.1-0.1-0.1-0.2-0.2-0.3c-10.9-18.5-23.7-36.4-41.2-49.2
		c-20.4-14.9-44.9-17.7-69.3-20.4c-12.6-1.4-25.2-2.7-37.8-4.1c-0.4-14.2-0.9-28.4-1.3-42.6c-1.3-45.8-1.9-91.8,1.9-137.5
		c1.8-22.5,4.3-45.2,9.3-67.2c4.5-19.6,11.7-39.4,25.7-54.3c12.7-13.5,29.8-22.3,48.6-21.2c6.4,0.4,6.4-9.6,0-10
		c-37.4-2.1-65.1,27.9-77.3,60.4c-7.4,19.6-10.4,40.6-13.1,61.3c-3,23.3-4.6,46.7-5.4,70.1c-1.6,46.4,0.1,92.8,1.7,139.1
		c0,0.2,0,0.5,0,0.7c-14.1-1.5-28.3-3.1-42.4-4.6c-35.2-3.8-70.4-7.6-105.5-11.4c-29.9-10.9-59.3-22.8-88-36.5
		c-16.3-7.8-32.3-16.1-48.1-25C-558.4,144.7-563.4,153.3-557.8,156.5z M294.3,835.3c31.5,33.6,65.3,64.9,100.8,94.2
		c-14.7,3-29.4,6-44.1,9c-82.5,16.8-166.6,35.6-251.1,37.9c-72.2,2-147-11.3-202.6-60c21-16.6,42-33.2,63.3-49.3
		c43.9-33.2,91.5-60.6,139.6-87.3c34.4-19.1,69-37.9,103.7-56.5C231,762.8,261.4,800.3,294.3,835.3z M207,710.2
		c-2.5-3.8-5-7.6-7.5-11.4c-16.2-25-31.2-50.9-44.6-77.4c108.9-24,219-42.8,330.2-51.7C465,579.3,445,589,425,598.8
		c-2.3-0.1-4.6-0.3-6.9-0.4c-22.2-1.2-44.5-1.8-66.8-1.8c-4.7,0-7.1,7.1-2.5,9.3c10.1,5,20.1,10.3,29.9,15.8
		C321.1,650.4,263.8,679.9,207,710.2z M406.6,607.8c-5.7,2.8-11.4,5.6-17.1,8.5c-5.7-3.3-11.3-6.5-17.1-9.6
		C383.8,607,395.2,607.3,406.6,607.8z M483,697.3c8.4,7.7,21.4,17.3,22.9,29.5c0.7,5.8-3.5,9-8.7,10.3c-6.8,1.7-14.2,2.1-21.2,2.8
		c-28.5,2.8-57.3,2.9-85.8,0.3c-29.9-2.8-59.4-8.7-88.1-17.5c38.2-29.3,83-47.8,125.4-70.2C446.9,666.3,465.5,681.3,483,697.3z
		 M428.3,641c-9.4-6.5-18.9-12.7-28.6-18.6c9.1-4.5,18.2-9,27.3-13.5c11.1,0.7,22.2,1.6,33.3,2.6c4.4,0.4,8.8,0.8,13.2,1.3
		C459.1,623.4,443.9,632.5,428.3,641z M503,585.5c-4.3,7.3-11.4,12.8-17.8,18.2c-0.1,0.1-0.2,0.1-0.3,0.2c-13.3-1.5-26.6-2.7-40-3.7
		c20.4-9.9,40.9-19.8,61.4-29.6C506.8,575.7,505.8,580.8,503,585.5z M1010.7,357.8c-21,17.1-42.6,33.2-64.9,48.5
		C963.5,385.9,986.6,370.8,1010.7,357.8z M974.8,367.9c-21.2,14.6-40,32.1-53,55.1c-0.4,0.7-0.5,1.3-0.6,2
		c-33.1,3.6-66.4,6.2-99.7,7.5c-2.3,0.1-4.6,0.2-6.9,0.3C867.7,410.5,921.1,388.9,974.8,367.9z M763,443.9c-14,6-28.1,12-42.1,18.1
		c-69.9,30.4-139.3,61.9-208.1,94.5c-2.2-5.2-5.2-10.2-8.6-14.7c-11.2-14.6-26.4-26.3-40.9-37.4c-15.4-11.8-31.4-22.7-47.6-33.4
		c-35.2-23.3-70-47-104.5-71.3C460.4,424.5,611.5,444.4,763,443.9z M98.6,345.9c0.9,1.2,1.5,2.5,2,3.9c-1.7-0.4-3.4-0.7-5.1-1.1
		C96.5,347.7,97.5,346.8,98.6,345.9z M89,357.6c3.9,0.8,7.7,1.6,11.6,2.5c0.3,4.7,7.3,6.4,9.4,2c59.2,12.4,118.7,23.6,178.3,33.8
		c27.8,20,55.9,39.6,84.4,58.7c31.8,21.3,64.7,41.4,94.4,65.6c13.2,10.7,28.2,22.5,35.7,38.3c-80.7,5.7-161.1,16.7-240.5,31.1
		c-37.5,6.8-74.9,14.4-112.1,22.7c-13.8-28.1-26-57-36.3-86.5c-10.5-30.2-19.2-61.1-25.6-92.4C83.4,409.7,76.9,380.2,89,357.6z
		 M79.1,355.5c-6.7,14.3-7.5,31.6-6,47.4c1.4,15.1,4.7,30.1,8.1,44.9c3.6,16,7.8,31.9,12.4,47.7c12.2,40.9,27.9,80.6,46.6,119
		c-62.1,13.9-123.8,29.4-185.3,45.7c16.2-98,5.2-200-32.2-292.2c-7.7-19-16.4-37.6-26.3-55.6C-42.9,327.9,18,342.3,79.1,355.5z
		 M-99.5,342.1c22.4,46.7,37.6,96.7,45.6,147.8c9.1,58.2,8.3,117.9-2.1,175.8c-0.7,3.7,2.2,7.2,6.2,6.2
		c64.5-17.2,129.4-33.6,194.7-48.2c9.2,18.3,19.1,36.2,29.6,53.8c7.6,12.7,15.6,25.2,23.8,37.5c-31.2,16.7-62.3,33.6-93.3,50.8
		C54.4,793.6,4.2,821.8-41.9,856.5c-23,17.3-45.6,35.2-68.2,53.1c-52.3-50.4-78.4-121.9-95.9-190.8c-22.1-87.2-34-176.7-41.2-266.3
		c-4.9-60.5-7.8-121.2-10-181.9c38.1,11,76.3,21.6,114.7,31.7c8.7,2.3,17.4,4.6,26.1,6.8C-110.3,319.9-104.8,331.1-99.5,342.1z
		 M-202.2,242.8c25.8,3.7,46.6,14.1,63.5,34c5.3,6.3,10.2,13,14.7,20c-44.7-11.7-89.3-24-133.7-36.9c-0.3-8.1-0.5-16.1-0.8-24.2
		C-239.6,237.8-220.9,240.1-202.2,242.8z M-268.4,234.6c0.3,7.5,0.5,14.9,0.8,22.4c-10.8-3.2-21.5-6.4-32.3-9.6
		c-25-7.5-50.1-15.3-74.9-23.5C-339.4,227.6-303.8,230.8-268.4,234.6z M-455.3,205.2c-17.3-1.9-34.5-3.7-51.8-5.6
		c-4.4-7.7-8.7-15.5-13.1-23.2C-498.9,186.8-477.2,196.3-455.3,205.2z"/>
</g>
<g>
	<path class="st1" d="M2229.2,834.7c-9.9-5.6-19.9-10.9-29.9-16c2.3-1.2,3.7-3.9,2.1-6.8c-3.4-6.1-6.9-12.2-10.3-18.3
		c-2.2-3.8-3.9-9.5-8.2-11.4c-4.2-1.9-11.6-1.3-16.4-1.8c-8.8-1-17.5-1.9-26.3-2.9l-50.1-5.4c-19.9-7.3-40-14-60.1-20.5
		c-30.4-9.8-60.9-19.1-91.5-28c-1.1-31.5-2.4-63-4-94.4c-4.8-91.8-12.6-183.7-29.1-274.2c-13.9-76.4-31.8-156-72.2-223.4
		c-12.3-20.4-26.9-39.5-43.9-56.1c19.7-15.5,39.5-30.9,59.7-45.8c46.4-34.1,93.8-66.9,141.9-98.5c23.6-15.5,47.4-30.8,71.3-45.9
		c15.9-10,37-23.4,31.3-45.5c-2-7.8-7.3-13.8-15.1-15.9c-6.2-1.7-8.9,7.9-2.7,9.6c12.5,3.4,9.4,19.7,2.9,27.2
		c-8.2,9.4-20.5,15.3-30.9,21.9c-23.4,14.8-46.7,29.9-69.8,45.2c-45.8,30.3-91,61.6-135.2,94.2c-20.5,15.1-40.7,30.8-60.7,46.6
		c-6.4-5.7-13.1-11.2-20.2-16.2c-30.6-21.7-66.3-35.1-103.1-41.7c-77.6-14.1-157.3-1.7-234.1,11.8c-53,9.3-105.7,20.3-158.4,31.1
		c-12.4-10-25-19.8-37.8-29.3c-26.7-19.9-54-39.4-82.8-56.1c-28.4-16.5-59.2-30.1-92-34.5c-8.2-1.1-16.4-1.6-24.7-1.5
		c-6.4,0.1-6.4,10.1,0,10c65.5-0.9,123.1,39.5,174.1,75.9c17.1,12.3,34,25,50.5,38.1c-35.8,7.3-71.6,14.5-107.5,21.1
		c-90.9,16.6-182.6,27.9-274.8,33.3c-184,10.9-369.4-0.7-550.6-34.8c-22.2-4.2-44.3-8.7-66.3-13.5c-6.3-1.4-9,8.3-2.7,9.6
		c174.7,38.3,353.8,55.9,532.6,52.2c88.5-1.8,177-8.9,264.7-21.1c72.1-10,143.4-24.2,214.6-38.7c30.4,24.7,59.5,51,87,78.8
		c39.6,40,76,83.2,108,129.6c-58.4,31.1-117.2,61.4-176.4,90.8c-10-5.9-19.7-12.1-29.3-18.6c37.2-19.4,76.1-36.1,110.5-60
		c6.8-4.7,13.3-9.7,19.7-14.9c3.1-2.5,1-7.3-2.2-8.4c-60.2-19.7-124.6-26.8-187.6-20.3c-11.4,1.2-28.6,0.7-35.5,11.9
		c-6.6,10.7,0.4,23.5,7.3,32c9,11,20.9,20.4,31.7,29.5c11.2,9.5,22.8,18.6,34.6,27.3c0.8,0.6,1.7,1.2,2.5,1.8
		c-13.3,7.3-26.3,15.2-38.7,24.1c-4,2.9-7.9,5.8-11.8,8.9c-9.3-1.1-18.5-2.3-27.8-3.6c-16.3-2.3-33.5-4.3-48.3-12
		c-14.1-7.3-25.8-21-24.7-37.7c0.4-6.4-9.6-6.4-10,0c-1,14.8,6.6,28.7,17.6,38.2c13,11.1,29.8,15.8,46.4,18.7c12,2,24,3.8,36,5.3
		c-5.6,4.9-11,10.3-14.4,17c-3.5,6.9-4.2,14-3.2,20.9c-91.6,5.8-183.7,4.5-274.8-6.7c-94.2-11.6-185.1-36.9-276.7-60.8
		c-98.6-25.7-199.8-48.1-302.3-39.9c-6.4,0.5-6.4,10.5,0,10c93.3-7.4,185.6,10.7,275.6,33.4c90.9,22.9,180.7,49.7,273.6,63.3
		c94.3,13.8,189.3,16.7,284.2,11.8c-52.2,24.5-104.6,48.4-157.4,71.7c-31.7,14-63.5,27.7-95.5,41.2
		c-142.9,3.2-283.9,27.8-422.7,61.4c-149.8,36.3-297.7,80.5-445.5,124c-18.6,5.5-37.1,10.9-55.7,16.4c-5.5,1.6-4.3,9.6,1.3,9.8
		c115.3,5.3,230.6,10.6,345.9,15.8c6.4,0.3,6.4-9.7,0-10c-105.3-4.8-210.7-9.6-316-14.5c137.3-40.6,274.7-81.4,413.3-117.2
		c108.4-28,218.2-52.2,329.5-65.4C624.3,640.3,530.4,733,456.7,840c-21.9,31.8-41.8,64.8-59.9,98.9c-3,5.7,5.6,10.7,8.6,5
		c57.4-107.9,134.3-205,226-285.7c0.8,0.2,1.7,0.2,2.7-0.1c84-32,167.4-65.5,250.1-100.5c142.9-2.7,285.5,14,426.5,36
		c22.7,3.5,45.4,7.3,68.1,11.1c22.9,16.4,45.6,33.1,68.1,50.2c61.9,47.1,122.1,96.6,180.5,148.1c58.2,51.4,114.5,104.9,168.8,160.5
		c6.8,6.9,13.5,13.9,20.2,20.8c4.5,4.6,11.5-2.4,7.1-7.1c-53-55.1-107.9-108.4-164.7-159.6c-56.6-51-114.9-100-175-146.8
		c-27.2-21.2-54.7-41.9-82.5-62.3c53.1,9.3,106.1,19.5,158.9,30.5c0.6,6.2,3.4,12.1,8.3,16.4c1.6,1.4,4.1,2,6.1,0.8
		c5-3.2,9.1-7.1,12.3-11.5c55.3,11.9,110.3,24.7,165.1,38.5c9.9,2.5,19.8,5,29.7,7.6c0.1,0.1,0.1,0.2,0.2,0.3
		c10.9,18.5,23.7,36.4,41.2,49.2c20.4,14.9,44.9,17.7,69.3,20.4c12.6,1.4,25.2,2.7,37.8,4.1c0.4,14.2,0.9,28.4,1.3,42.6
		c1.3,45.8,1.9,91.8-1.9,137.5c-1.8,22.5-4.3,45.2-9.3,67.2c-4.5,19.6-11.7,39.4-25.7,54.3c-12.7,13.5-29.8,22.3-48.6,21.2
		c-6.4-0.4-6.4,9.6,0,10c37.4,2.1,65.1-27.9,77.3-60.4c7.4-19.6,10.4-40.6,13.1-61.3c3-23.3,4.6-46.7,5.4-70.1
		c1.6-46.4-0.1-92.8-1.7-139.1c0-0.2,0-0.5,0-0.7c14.1,1.5,28.3,3.1,42.4,4.6c35.2,3.8,70.4,7.6,105.5,11.4
		c29.9,10.9,59.3,22.8,88,36.5c16.3,7.8,32.3,16.1,48.1,25C2229.8,846.5,2234.8,837.8,2229.2,834.7z M1377.1,155.9
		c-31.5-33.6-65.3-64.9-100.8-94.2c14.7-3,29.4-6,44.1-9c82.5-16.8,166.6-35.6,251.1-37.9c72.2-2,147,11.3,202.6,60
		c-21,16.6-42,33.2-63.3,49.3c-43.9,33.2-91.5,60.6-139.6,87.3c-34.4,19.1-69,37.9-103.7,56.5C1440.4,228.3,1410,190.9,1377.1,155.9
		z M1464.4,281c2.5,3.8,5,7.6,7.5,11.4c16.2,25,31.2,50.9,44.6,77.4c-108.9,24-219,42.8-330.2,51.7c20.1-9.6,40.1-19.3,60.1-29.1
		c2.3,0.1,4.6,0.3,6.9,0.4c22.2,1.2,44.5,1.8,66.8,1.8c4.7,0,7.1-7.1,2.5-9.3c-10.1-5-20.1-10.3-29.9-15.8
		C1350.3,340.7,1407.6,311.2,1464.4,281z M1264.8,383.3c5.7-2.8,11.4-5.6,17.1-8.5c5.7,3.3,11.3,6.5,17.1,9.6
		C1287.6,384.2,1276.2,383.9,1264.8,383.3z M1188.4,293.8c-8.4-7.7-21.4-17.3-22.9-29.5c-0.7-5.8,3.5-9,8.7-10.3
		c6.8-1.7,14.2-2.1,21.2-2.8c28.5-2.8,57.3-2.9,85.8-0.3c29.9,2.8,59.4,8.7,88.1,17.5c-38.2,29.3-83,47.8-125.4,70.2
		C1224.5,324.8,1205.9,309.9,1188.4,293.8z M1243.1,350.2c9.4,6.5,18.9,12.7,28.6,18.6c-9.1,4.5-18.2,9-27.3,13.5
		c-11.1-0.7-22.2-1.6-33.3-2.6c-4.4-0.4-8.8-0.8-13.2-1.3C1212.3,367.8,1227.5,358.7,1243.1,350.2z M1168.4,405.7
		c4.3-7.3,11.4-12.8,17.8-18.2c0.1-0.1,0.2-0.1,0.3-0.2c13.3,1.5,26.6,2.7,40,3.7c-20.4,9.9-40.9,19.8-61.4,29.6
		C1164.6,415.5,1165.6,410.4,1168.4,405.7z M660.7,633.4c21-17.1,42.6-33.2,64.9-48.5C707.8,605.3,684.7,620.4,660.7,633.4z
		 M696.6,623.3c21.2-14.6,40-32.1,53-55.1c0.4-0.7,0.5-1.3,0.6-2c33.1-3.6,66.4-6.2,99.7-7.5c2.3-0.1,4.6-0.2,6.9-0.3
		C803.7,580.6,750.3,602.3,696.6,623.3z M908.4,547.3c14-6,28.1-12,42.1-18.1c69.9-30.4,139.3-61.9,208.1-94.5
		c2.2,5.2,5.2,10.2,8.6,14.7c11.2,14.6,26.4,26.3,40.9,37.4c15.4,11.8,31.4,22.7,47.6,33.4c35.2,23.3,70,47,104.5,71.3
		C1211,566.7,1059.9,546.7,908.4,547.3z M1572.8,645.3c-0.9-1.2-1.5-2.5-2-3.9c1.7,0.4,3.4,0.7,5.1,1.1
		C1574.9,643.4,1573.9,644.4,1572.8,645.3z M1582.4,633.6c-3.9-0.8-7.7-1.6-11.6-2.5c-0.3-4.7-7.3-6.4-9.4-2
		c-59.2-12.4-118.7-23.6-178.3-33.8c-27.8-20-55.9-39.6-84.4-58.7c-31.8-21.3-64.7-41.4-94.4-65.6c-13.2-10.7-28.2-22.5-35.7-38.3
		c80.7-5.7,161.1-16.7,240.5-31.1c37.5-6.8,74.9-14.4,112.1-22.7c13.8,28.1,26,57,36.3,86.5c10.5,30.2,19.2,61.1,25.6,92.4
		C1588,581.5,1594.5,611,1582.4,633.6z M1592.3,635.7c6.7-14.3,7.5-31.6,6-47.4c-1.4-15.1-4.7-30.1-8.1-44.9
		c-3.6-16-7.8-31.9-12.4-47.7c-12.2-40.9-27.9-80.6-46.6-119c62.1-13.9,123.8-29.4,185.3-45.7c-16.2,98-5.2,200,32.2,292.2
		c7.7,19,16.4,37.6,26.3,55.6C1714.3,663.2,1653.4,648.9,1592.3,635.7z M1770.9,649.1c-22.4-46.7-37.6-96.7-45.6-147.8
		c-9.1-58.2-8.3-117.9,2.1-175.8c0.7-3.7-2.2-7.2-6.2-6.2c-64.5,17.2-129.4,33.6-194.7,48.2c-9.2-18.3-19.1-36.2-29.6-53.8
		c-7.6-12.7-15.6-25.2-23.8-37.5c31.2-16.7,62.3-33.6,93.3-50.8c50.4-27.9,100.6-56.1,146.8-90.8c23-17.3,45.6-35.2,68.2-53.1
		c52.3,50.4,78.4,121.9,95.9,190.8c22.1,87.2,34,176.7,41.2,266.3c4.9,60.5,7.8,121.2,10,181.9c-38.1-11-76.3-21.6-114.7-31.7
		c-8.7-2.3-17.4-4.6-26.1-6.8C1781.7,671.3,1776.2,660.1,1770.9,649.1z M1873.6,748.4c-25.8-3.7-46.6-14.1-63.5-34
		c-5.3-6.3-10.2-13-14.7-20c44.7,11.7,89.3,24,133.7,36.9c0.3,8.1,0.5,16.1,0.8,24.2C1911,753.4,1892.3,751.1,1873.6,748.4z
		 M1939.7,756.6c-0.3-7.5-0.5-14.9-0.8-22.4c10.8,3.2,21.5,6.4,32.3,9.6c25,7.5,50.1,15.3,74.9,23.5
		C2010.8,763.5,1975.2,760.4,1939.7,756.6z M2126.7,786c17.3,1.9,34.5,3.7,51.8,5.6c4.4,7.7,8.7,15.5,13.1,23.2
		C2170.3,804.4,2148.6,794.8,2126.7,786z"/>
</g>
<g>
	<path class="st1" d="M-278.8,13.5c9.9,5.6,19.9,10.9,29.9,16c-2.3,1.2-3.7,3.9-2.1,6.8c3.4,6.1,6.9,12.2,10.3,18.3
		c2.2,3.8,3.9,9.5,8.2,11.4c4.2,1.9,11.6,1.3,16.4,1.8c8.8,1,17.5,1.9,26.3,2.9l50.1,5.4c19.9,7.3,40,14,60.1,20.5
		c30.4,9.8,60.9,19.1,91.5,28c1.1,31.5,2.4,63,4,94.4c4.8,91.8,12.6,183.7,29.1,274.2c13.9,76.4,31.8,156,72.2,223.4
		c12.3,20.4,26.9,39.5,43.9,56.1c-19.7,15.5-39.5,30.9-59.7,45.8C54.9,852.7,7.5,885.4-40.6,917c-23.6,15.5-47.4,30.8-71.3,45.9
		c-15.9,10-37,23.4-31.3,45.5c2,7.8,7.3,13.8,15.1,15.9c6.2,1.7,8.9-7.9,2.7-9.6c-12.5-3.4-9.4-19.7-2.9-27.2
		c8.2-9.4,20.5-15.3,30.9-21.9c23.4-14.8,46.7-29.9,69.8-45.2c45.8-30.3,91-61.6,135.2-94.2c20.5-15.1,40.7-30.8,60.7-46.6
		c6.4,5.7,13.1,11.2,20.2,16.2c30.6,21.7,66.3,35.1,103.1,41.7c77.6,14.1,157.3,1.7,234.1-11.8c53-9.3,105.7-20.3,158.4-31.1
		c12.4,10,25,19.8,37.8,29.3c26.7,19.9,54,39.4,82.8,56.1c28.4,16.5,59.2,30.1,92,34.5c8.2,1.1,16.4,1.6,24.7,1.5
		c6.4-0.1,6.4-10.1,0-10c-65.5,0.9-123.1-39.5-174.1-75.9c-17.1-12.3-34-25-50.5-38.1c35.8-7.3,71.6-14.5,107.5-21.1
		c90.9-16.6,182.6-27.9,274.8-33.3c184-10.9,369.4,0.7,550.6,34.8c22.2,4.2,44.3,8.7,66.3,13.5c6.3,1.4,9-8.3,2.7-9.6
		c-174.7-38.3-353.8-55.9-532.6-52.2c-88.5,1.8-177,8.9-264.7,21.1c-72.1,10-143.4,24.2-214.6,38.7c-30.4-24.7-59.5-51-87-78.8
		c-39.6-40-76-83.2-108-129.6c58.4-31.1,117.2-61.4,176.4-90.8c10,5.9,19.7,12.1,29.3,18.6c-37.2,19.4-76.1,36.1-110.5,60
		c-6.8,4.7-13.3,9.7-19.7,14.9c-3.1,2.5-1,7.3,2.2,8.4c60.2,19.7,124.6,26.8,187.6,20.3c11.4-1.2,28.6-0.7,35.5-11.9
		c6.6-10.7-0.4-23.5-7.3-32c-9-11-20.9-20.4-31.7-29.5c-11.2-9.5-22.8-18.6-34.6-27.3c-0.8-0.6-1.7-1.2-2.5-1.8
		c13.3-7.3,26.3-15.2,38.7-24.1c4-2.9,7.9-5.8,11.8-8.9c9.3,1.1,18.5,2.3,27.8,3.6c16.3,2.3,33.5,4.3,48.3,12
		c14.1,7.3,25.8,21,24.7,37.7c-0.4,6.4,9.6,6.4,10,0c1-14.8-6.6-28.7-17.6-38.2c-13-11.1-29.8-15.8-46.4-18.7c-12-2-24-3.8-36-5.3
		c5.6-4.9,11-10.3,14.4-17c3.5-6.9,4.2-14,3.2-20.9c91.6-5.8,183.7-4.5,274.8,6.7c94.2,11.6,185.1,36.9,276.7,60.8
		c98.6,25.7,199.8,48.1,302.3,39.9c6.4-0.5,6.4-10.5,0-10c-93.3,7.4-185.6-10.7-275.6-33.4c-90.9-22.9-180.7-49.7-273.6-63.3
		c-94.3-13.8-189.3-16.7-284.2-11.8c52.2-24.5,104.6-48.4,157.4-71.7c31.7-14,63.5-27.7,95.5-41.2c142.9-3.2,283.9-27.8,422.7-61.4
		c149.8-36.3,297.7-80.5,445.5-124c18.6-5.5,37.1-10.9,55.7-16.4c5.5-1.6,4.3-9.6-1.3-9.8c-115.3-5.3-230.6-10.6-345.9-15.8
		c-6.4-0.3-6.4,9.7,0,10c105.3,4.8,210.7,9.6,316,14.5c-137.3,40.6-274.7,81.4-413.3,117.2c-108.4,28-218.2,52.2-329.5,65.4
		c108.1-72.1,202-164.8,275.6-271.8c21.9-31.8,41.8-64.8,59.9-98.9c3-5.7-5.6-10.7-8.6-5c-57.4,107.9-134.3,205-226,285.7
		c-0.8-0.2-1.7-0.2-2.7,0.1c-84,32-167.4,65.5-250.1,100.5c-142.9,2.7-285.5-14-426.5-36c-22.7-3.5-45.4-7.3-68.1-11.1
		c-22.9-16.4-45.6-33.1-68.1-50.2C441.5,146.1,381.3,96.7,323,45.2C264.8-6.3,208.5-59.8,154.2-115.3c-6.8-6.9-13.5-13.9-20.2-20.8
		c-4.5-4.6-11.5,2.4-7.1,7.1c53,55.1,107.9,108.4,164.7,159.6c56.6,51,114.9,100,175,146.8c27.2,21.2,54.7,41.9,82.5,62.3
		c-53.1-9.3-106.1-19.5-158.9-30.5c-0.6-6.2-3.4-12.1-8.3-16.4c-1.6-1.4-4.1-2-6.1-0.8c-5,3.2-9.1,7.1-12.3,11.5
		c-55.3-11.9-110.3-24.7-165.1-38.5c-9.9-2.5-19.8-5-29.7-7.6c-0.1-0.1-0.1-0.2-0.2-0.3c-10.9-18.5-23.7-36.4-41.2-49.2
		C106.9,93,82.4,90.2,58,87.6c-12.6-1.4-25.2-2.7-37.8-4.1c-0.4-14.2-0.9-28.4-1.3-42.6C17.7-5,17.1-50.9,20.9-96.6
		c1.8-22.5,4.3-45.2,9.3-67.2c4.5-19.6,11.7-39.4,25.7-54.3c12.7-13.5,29.8-22.3,48.6-21.2c6.4,0.4,6.4-9.6,0-10
		c-37.4-2.1-65.1,27.9-77.3,60.4c-7.4,19.6-10.4,40.6-13.1,61.3c-3,23.3-4.6,46.7-5.4,70.1C7-11.1,8.7,35.3,10.3,81.7
		c0,0.2,0,0.5,0,0.7c-14.1-1.5-28.3-3.1-42.4-4.6c-35.2-3.8-70.4-7.6-105.5-11.4c-29.9-10.9-59.3-22.8-88-36.5
		c-16.3-7.8-32.3-16.1-48.1-25C-279.4,1.7-284.4,10.3-278.8,13.5z M573.3,692.3c31.5,33.6,65.3,64.9,100.8,94.2
		c-14.7,3-29.4,6-44.1,9c-82.5,16.8-166.6,35.6-251.1,37.9c-72.2,2-147-11.3-202.6-60c21-16.6,42-33.2,63.3-49.3
		c43.9-33.2,91.5-60.6,139.6-87.3c34.4-19.1,69-37.9,103.7-56.5C510,619.8,540.4,657.3,573.3,692.3z M486,567.2
		c-2.5-3.8-5-7.6-7.5-11.4c-16.2-25-31.2-50.9-44.6-77.4c108.9-24,219-42.8,330.2-51.7C744,436.3,724,446,704,455.8
		c-2.3-0.1-4.6-0.3-6.9-0.4c-22.2-1.2-44.5-1.8-66.8-1.8c-4.7,0-7.1,7.1-2.5,9.3c10.1,5,20.1,10.3,29.9,15.8
		C600.1,507.4,542.8,536.9,486,567.2z M685.6,464.8c-5.7,2.8-11.4,5.6-17.1,8.5c-5.7-3.3-11.3-6.5-17.1-9.6
		C662.8,464,674.2,464.3,685.6,464.8z M762,554.3c8.4,7.7,21.4,17.3,22.9,29.5c0.7,5.8-3.5,9-8.7,10.3c-6.8,1.7-14.2,2.1-21.2,2.8
		c-28.5,2.8-57.3,2.9-85.8,0.3c-29.9-2.8-59.4-8.7-88.1-17.5c38.2-29.3,83-47.8,125.4-70.2C725.9,523.3,744.5,538.3,762,554.3z
		 M707.3,498c-9.4-6.5-18.9-12.7-28.6-18.6c9.1-4.5,18.2-9,27.3-13.5c11.1,0.7,22.2,1.6,33.3,2.6c4.4,0.4,8.8,0.8,13.2,1.3
		C738.1,480.4,722.9,489.5,707.3,498z M782,442.5c-4.3,7.3-11.4,12.8-17.8,18.2c-0.1,0.1-0.2,0.1-0.3,0.2c-13.3-1.5-26.6-2.7-40-3.7
		c20.4-9.9,40.9-19.8,61.4-29.6C785.8,432.7,784.8,437.8,782,442.5z M1289.7,214.8c-21,17.1-42.6,33.2-64.9,48.5
		C1242.5,242.9,1265.6,227.8,1289.7,214.8z M1253.8,224.9c-21.2,14.6-40,32.1-53,55.1c-0.4,0.7-0.5,1.3-0.6,2
		c-33.1,3.6-66.4,6.2-99.7,7.5c-2.3,0.1-4.6,0.2-6.9,0.3C1146.7,267.5,1200.1,245.9,1253.8,224.9z M1042,300.9
		c-14,6-28.1,12-42.1,18.1c-69.9,30.4-139.3,61.9-208.1,94.5c-2.2-5.2-5.2-10.2-8.6-14.7c-11.2-14.6-26.4-26.3-40.9-37.4
		c-15.4-11.8-31.4-22.7-47.6-33.4c-35.2-23.3-70-47-104.5-71.3C739.4,281.5,890.5,301.4,1042,300.9z M377.6,202.9
		c0.9,1.2,1.5,2.5,2,3.9c-1.7-0.4-3.4-0.7-5.1-1.1C375.5,204.7,376.5,203.8,377.6,202.9z M368,214.6c3.9,0.8,7.7,1.6,11.6,2.5
		c0.3,4.7,7.3,6.4,9.4,2c59.2,12.4,118.7,23.6,178.3,33.8c27.8,20,55.9,39.6,84.4,58.7c31.8,21.3,64.7,41.4,94.4,65.6
		c13.2,10.7,28.2,22.5,35.7,38.3c-80.7,5.7-161.1,16.7-240.5,31.1c-37.5,6.8-74.9,14.4-112.1,22.7c-13.8-28.1-26-57-36.3-86.5
		c-10.5-30.2-19.2-61.1-25.6-92.4C362.4,266.7,355.9,237.2,368,214.6z M358.1,212.5c-6.7,14.3-7.5,31.6-6,47.4
		c1.4,15.1,4.7,30.1,8.1,44.9c3.6,16,7.8,31.9,12.4,47.7c12.2,40.9,27.9,80.6,46.6,119c-62.1,13.9-123.8,29.4-185.3,45.7
		c16.2-98,5.2-200-32.2-292.2c-7.7-19-16.4-37.6-26.3-55.6C236.1,184.9,297,199.3,358.1,212.5z M179.5,199.1
		c22.4,46.7,37.6,96.7,45.6,147.8c9.1,58.2,8.3,117.9-2.1,175.8c-0.7,3.7,2.2,7.2,6.2,6.2c64.5-17.2,129.4-33.6,194.7-48.2
		c9.2,18.3,19.1,36.2,29.6,53.8c7.6,12.7,15.6,25.2,23.8,37.5c-31.2,16.7-62.3,33.6-93.3,50.8c-50.4,27.9-100.6,56.1-146.8,90.8
		c-23,17.3-45.6,35.2-68.2,53.1C116.6,716.2,90.4,644.7,73,575.8c-22.1-87.2-34-176.7-41.2-266.3c-4.9-60.5-7.8-121.2-10-181.9
		c38.1,11,76.3,21.6,114.7,31.7c8.7,2.3,17.4,4.6,26.1,6.8C168.7,176.9,174.2,188.1,179.5,199.1z M76.8,99.8
		c25.8,3.7,46.6,14.1,63.5,34c5.3,6.3,10.2,13,14.7,20c-44.7-11.7-89.3-24-133.7-36.9c-0.3-8.1-0.5-16.1-0.8-24.2
		C39.4,94.8,58.1,97.1,76.8,99.8z M10.6,91.6c0.3,7.5,0.5,14.9,0.8,22.4c-10.8-3.2-21.5-6.4-32.3-9.6c-25-7.5-50.1-15.3-74.9-23.5
		C-60.4,84.6-24.8,87.8,10.6,91.6z M-176.3,62.2c-17.3-1.9-34.5-3.7-51.8-5.6c-4.4-7.7-8.7-15.5-13.1-23.2
		C-219.9,43.8-198.2,53.3-176.3,62.2z"/>
</g>
<g>
	<path class="st1" d="M2188.2,1144.7c-9.9-5.6-19.9-10.9-29.9-16c2.3-1.2,3.7-3.9,2.1-6.8c-3.4-6.1-6.9-12.2-10.3-18.3
		c-2.2-3.8-3.9-9.5-8.2-11.4c-4.2-1.9-11.6-1.3-16.4-1.8c-8.8-1-17.5-1.9-26.3-2.9l-50.1-5.4c-19.9-7.3-40-14-60.1-20.5
		c-30.4-9.8-60.9-19.1-91.5-28c-1.1-31.5-2.4-63-4-94.4c-4.8-91.8-12.6-183.7-29.1-274.2c-13.9-76.4-31.8-156-72.2-223.4
		c-12.3-20.4-26.9-39.5-43.9-56.1c19.7-15.5,39.5-30.9,59.7-45.8c46.4-34.1,93.8-66.9,141.9-98.5c23.6-15.5,47.4-30.8,71.3-45.9
		c15.9-10,37-23.4,31.3-45.5c-2-7.8-7.3-13.8-15.1-15.9c-6.2-1.7-8.9,7.9-2.7,9.6c12.5,3.4,9.4,19.7,2.9,27.2
		c-8.2,9.4-20.5,15.3-30.9,21.9c-23.4,14.8-46.7,29.9-69.8,45.2c-45.8,30.3-91,61.6-135.2,94.2c-20.5,15.1-40.7,30.8-60.7,46.6
		c-6.4-5.7-13.1-11.2-20.2-16.2c-30.6-21.7-66.3-35.1-103.1-41.7c-77.6-14.1-157.3-1.7-234.1,11.8c-53,9.3-105.7,20.3-158.4,31.1
		c-12.4-10-25-19.8-37.8-29.3c-26.7-19.9-54-39.4-82.8-56.1c-28.4-16.5-59.2-30.1-92-34.5c-8.2-1.1-16.4-1.6-24.7-1.5
		c-6.4,0.1-6.4,10.1,0,10c65.5-0.9,123.1,39.5,174.1,75.9c17.1,12.3,34,25,50.5,38.1c-35.8,7.3-71.6,14.5-107.5,21.1
		c-90.9,16.6-182.6,27.9-274.8,33.3c-184,10.9-369.4-0.7-550.6-34.8c-22.2-4.2-44.3-8.7-66.3-13.5c-6.3-1.4-9,8.3-2.7,9.6
		c174.7,38.3,353.8,55.9,532.6,52.2c88.5-1.8,177-8.9,264.7-21.1c72.1-10,143.4-24.2,214.6-38.7c30.4,24.7,59.5,51,87,78.8
		c39.6,40,76,83.2,108,129.6c-58.4,31.1-117.2,61.4-176.4,90.8c-10-5.9-19.7-12.1-29.3-18.6c37.2-19.4,76.1-36.1,110.5-60
		c6.8-4.7,13.3-9.7,19.7-14.9c3.1-2.5,1-7.3-2.2-8.4c-60.2-19.7-124.6-26.8-187.6-20.3c-11.4,1.2-28.6,0.7-35.5,11.9
		c-6.6,10.7,0.4,23.5,7.3,32c9,11,20.9,20.4,31.7,29.5c11.2,9.5,22.8,18.6,34.6,27.3c0.8,0.6,1.7,1.2,2.5,1.8
		c-13.3,7.3-26.3,15.2-38.7,24.1c-4,2.9-7.9,5.8-11.8,8.9c-9.3-1.1-18.5-2.3-27.8-3.6c-16.3-2.3-33.5-4.3-48.3-12
		c-14.1-7.3-25.8-21-24.7-37.7c0.4-6.4-9.6-6.4-10,0c-1,14.8,6.6,28.7,17.6,38.2c13,11.1,29.8,15.8,46.4,18.7c12,2,24,3.8,36,5.3
		c-5.6,4.9-11,10.3-14.4,17c-3.5,6.9-4.2,14-3.2,20.9c-91.6,5.8-183.7,4.5-274.8-6.7c-94.2-11.6-185.1-36.9-276.7-60.8
		c-98.6-25.7-199.8-48.1-302.3-39.9c-6.4,0.5-6.4,10.5,0,10c93.3-7.4,185.6,10.7,275.6,33.4c90.9,22.9,180.7,49.7,273.6,63.3
		c94.3,13.8,189.3,16.7,284.2,11.8c-52.2,24.5-104.6,48.4-157.4,71.7c-31.7,14-63.5,27.7-95.5,41.2
		c-142.9,3.2-283.9,27.8-422.7,61.4c-149.8,36.3-297.7,80.5-445.5,124c-18.6,5.5-37.1,10.9-55.7,16.4c-5.5,1.6-4.3,9.6,1.3,9.8
		c115.3,5.3,230.6,10.6,345.9,15.8c6.4,0.3,6.4-9.7,0-10c-105.3-4.8-210.7-9.6-316-14.5c137.3-40.6,274.7-81.4,413.3-117.2
		c108.4-28,218.2-52.2,329.5-65.4c-108.1,72.1-202,164.8-275.6,271.8c-21.9,31.8-41.8,64.8-59.9,98.9c-3,5.7,5.6,10.7,8.6,5
		c57.4-107.9,134.3-205,226-285.7c0.8,0.2,1.7,0.2,2.7-0.1c84-32,167.4-65.5,250.1-100.5c142.9-2.7,285.5,14,426.5,36
		c22.7,3.5,45.4,7.3,68.1,11.1c22.9,16.4,45.6,33.1,68.1,50.2c61.9,47.1,122.1,96.6,180.5,148.1c58.2,51.4,114.5,104.9,168.8,160.5
		c6.8,6.9,13.5,13.9,20.2,20.8c4.5,4.6,11.5-2.4,7.1-7.1c-53-55.1-107.9-108.4-164.7-159.6c-56.6-51-114.9-100-175-146.8
		c-27.2-21.2-54.7-41.9-82.5-62.3c53.1,9.3,106.1,19.5,158.9,30.5c0.6,6.2,3.4,12.1,8.3,16.4c1.6,1.4,4.1,2,6.1,0.8
		c5-3.2,9.1-7.1,12.3-11.5c55.3,11.9,110.3,24.7,165.1,38.5c9.9,2.5,19.8,5,29.7,7.6c0.1,0.1,0.1,0.2,0.2,0.3
		c10.9,18.5,23.7,36.4,41.2,49.2c20.4,14.9,44.9,17.7,69.3,20.4c12.6,1.4,25.2,2.7,37.8,4.1c0.4,14.2,0.9,28.4,1.3,42.6
		c1.3,45.8,1.9,91.8-1.9,137.5c-1.8,22.5-4.3,45.2-9.3,67.2c-4.5,19.6-11.7,39.4-25.7,54.3c-12.7,13.5-29.8,22.3-48.6,21.2
		c-6.4-0.4-6.4,9.6,0,10c37.4,2.1,65.1-27.9,77.3-60.4c7.4-19.6,10.4-40.6,13.1-61.3c3-23.3,4.6-46.7,5.4-70.1
		c1.6-46.4-0.1-92.8-1.7-139.1c0-0.2,0-0.5,0-0.7c14.1,1.5,28.3,3.1,42.4,4.6c35.2,3.8,70.4,7.6,105.5,11.4
		c29.9,10.9,59.3,22.8,88,36.5c16.3,7.8,32.3,16.1,48.1,25C2188.8,1156.5,2193.8,1147.8,2188.2,1144.7z M1336.1,465.9
		c-31.5-33.6-65.3-64.9-100.8-94.2c14.7-3,29.4-6,44.1-9c82.5-16.8,166.6-35.6,251.1-37.9c72.2-2,147,11.3,202.6,60
		c-21,16.6-42,33.2-63.3,49.3c-43.9,33.2-91.5,60.6-139.6,87.3c-34.4,19.1-69,37.9-103.7,56.5C1399.4,538.3,1369,500.9,1336.1,465.9
		z M1423.4,591c2.5,3.8,5,7.6,7.5,11.4c16.2,25,31.2,50.9,44.6,77.4c-108.9,24-219,42.8-330.2,51.7c20.1-9.6,40.1-19.3,60.1-29.1
		c2.3,0.1,4.6,0.3,6.9,0.4c22.2,1.2,44.5,1.8,66.8,1.8c4.7,0,7.1-7.1,2.5-9.3c-10.1-5-20.1-10.3-29.9-15.8
		C1309.3,650.7,1366.6,621.2,1423.4,591z M1223.8,693.3c5.7-2.8,11.4-5.6,17.1-8.5c5.7,3.3,11.3,6.5,17.1,9.6
		C1246.6,694.2,1235.2,693.9,1223.8,693.3z M1147.4,603.8c-8.4-7.7-21.4-17.3-22.9-29.5c-0.7-5.8,3.5-9,8.7-10.3
		c6.8-1.7,14.2-2.1,21.2-2.8c28.5-2.8,57.3-2.9,85.8-0.3c29.9,2.8,59.4,8.7,88.1,17.5c-38.2,29.3-83,47.8-125.4,70.2
		C1183.5,634.8,1164.9,619.9,1147.4,603.8z M1202.1,660.2c9.4,6.5,18.9,12.7,28.6,18.6c-9.1,4.5-18.2,9-27.3,13.5
		c-11.1-0.7-22.2-1.6-33.3-2.6c-4.4-0.4-8.8-0.8-13.2-1.3C1171.3,677.8,1186.5,668.7,1202.1,660.2z M1127.4,715.7
		c4.3-7.3,11.4-12.8,17.8-18.2c0.1-0.1,0.2-0.1,0.3-0.2c13.3,1.5,26.6,2.7,40,3.7c-20.4,9.9-40.9,19.8-61.4,29.6
		C1123.6,725.5,1124.6,720.4,1127.4,715.7z M619.7,943.4c21-17.1,42.6-33.2,64.9-48.5C666.8,915.3,643.7,930.4,619.7,943.4z
		 M655.6,933.3c21.2-14.6,40-32.1,53-55.1c0.4-0.7,0.5-1.3,0.6-2c33.1-3.6,66.4-6.2,99.7-7.5c2.3-0.1,4.6-0.2,6.9-0.3
		C762.7,890.6,709.3,912.3,655.6,933.3z M867.4,857.3c14-6,28.1-12,42.1-18.1c69.9-30.4,139.3-61.9,208.1-94.5
		c2.2,5.2,5.2,10.2,8.6,14.7c11.2,14.6,26.4,26.3,40.9,37.4c15.4,11.8,31.4,22.7,47.6,33.4c35.2,23.3,70,47,104.5,71.3
		C1170,876.7,1018.9,856.7,867.4,857.3z M1531.8,955.3c-0.9-1.2-1.5-2.5-2-3.9c1.7,0.4,3.4,0.7,5.1,1.1
		C1533.9,953.4,1532.9,954.4,1531.8,955.3z M1541.4,943.6c-3.9-0.8-7.7-1.6-11.6-2.5c-0.3-4.7-7.3-6.4-9.4-2
		c-59.2-12.4-118.7-23.6-178.3-33.8c-27.8-20-55.9-39.6-84.4-58.7c-31.8-21.3-64.7-41.4-94.4-65.6c-13.2-10.7-28.2-22.5-35.7-38.3
		c80.7-5.7,161.1-16.7,240.5-31.1c37.5-6.8,74.9-14.4,112.1-22.7c13.8,28.1,26,57,36.3,86.5c10.5,30.2,19.2,61.1,25.6,92.4
		C1547,891.5,1553.5,921,1541.4,943.6z M1551.3,945.7c6.7-14.3,7.5-31.6,6-47.4c-1.4-15.1-4.7-30.1-8.1-44.9
		c-3.6-16-7.8-31.9-12.4-47.7c-12.2-40.9-27.9-80.6-46.6-119c62.1-13.9,123.8-29.4,185.3-45.7c-16.2,98-5.2,200,32.2,292.2
		c7.7,19,16.4,37.6,26.3,55.6C1673.3,973.2,1612.4,958.9,1551.3,945.7z M1729.9,959.1c-22.4-46.7-37.6-96.7-45.6-147.8
		c-9.1-58.2-8.3-117.9,2.1-175.8c0.7-3.7-2.2-7.2-6.2-6.2c-64.5,17.2-129.4,33.6-194.7,48.2c-9.2-18.3-19.1-36.2-29.6-53.8
		c-7.6-12.7-15.6-25.2-23.8-37.5c31.2-16.7,62.3-33.6,93.3-50.8c50.4-27.9,100.6-56.1,146.8-90.8c23-17.3,45.6-35.2,68.2-53.1
		c52.3,50.4,78.4,121.9,95.9,190.8c22.1,87.2,34,176.7,41.2,266.3c4.9,60.5,7.8,121.2,10,181.9c-38.1-11-76.3-21.6-114.7-31.7
		c-8.7-2.3-17.4-4.6-26.1-6.8C1740.7,981.3,1735.2,970.1,1729.9,959.1z M1832.6,1058.4c-25.8-3.7-46.6-14.1-63.5-34
		c-5.3-6.3-10.2-13-14.7-20c44.7,11.7,89.3,24,133.7,36.9c0.3,8.1,0.5,16.1,0.8,24.2C1870,1063.4,1851.3,1061.1,1832.6,1058.4z
		 M1898.7,1066.6c-0.3-7.5-0.5-14.9-0.8-22.4c10.8,3.2,21.5,6.4,32.3,9.6c25,7.5,50.1,15.3,74.9,23.5
		C1969.8,1073.5,1934.2,1070.4,1898.7,1066.6z M2085.7,1096c17.3,1.9,34.5,3.7,51.8,5.6c4.4,7.7,8.7,15.5,13.1,23.2
		C2129.3,1114.4,2107.6,1104.8,2085.7,1096z"/>
</g>
<g>
	<path class="st1" d="M-319.8,323.5c9.9,5.6,19.9,10.9,29.9,16c-2.3,1.2-3.7,3.9-2.1,6.8c3.4,6.1,6.9,12.2,10.3,18.3
		c2.2,3.8,3.9,9.5,8.2,11.4c4.2,1.9,11.6,1.3,16.4,1.8c8.8,1,17.5,1.9,26.3,2.9l50.1,5.4c19.9,7.3,40,14,60.1,20.5
		c30.4,9.8,60.9,19.1,91.5,28c1.1,31.5,2.4,63,4,94.4c4.8,91.8,12.6,183.7,29.1,274.2c13.9,76.4,31.8,156,72.2,223.4
		c12.3,20.4,26.9,39.5,43.9,56.1c-19.7,15.5-39.5,30.9-59.7,45.8c-46.4,34.1-93.8,66.9-141.9,98.5c-23.6,15.5-47.4,30.8-71.3,45.9
		c-15.9,10-37,23.4-31.3,45.5c2,7.8,7.3,13.8,15.1,15.9c6.2,1.7,8.9-7.9,2.7-9.6c-12.5-3.4-9.4-19.7-2.9-27.2
		c8.2-9.4,20.5-15.3,30.9-21.9c23.4-14.8,46.7-29.9,69.8-45.2c45.8-30.3,91-61.6,135.2-94.2c20.5-15.1,40.7-30.8,60.7-46.6
		c6.4,5.7,13.1,11.2,20.2,16.2c30.6,21.7,66.3,35.1,103.1,41.7c77.6,14.1,157.3,1.7,234.1-11.8c53-9.3,105.7-20.3,158.4-31.1
		c12.4,10,25,19.8,37.8,29.3c26.7,19.9,54,39.4,82.8,56.1c28.4,16.5,59.2,30.1,92,34.5c8.2,1.1,16.4,1.6,24.7,1.5
		c6.4-0.1,6.4-10.1,0-10c-65.5,0.9-123.1-39.5-174.1-75.9c-17.1-12.3-34-25-50.5-38.1c35.8-7.3,71.6-14.5,107.5-21.1
		c90.9-16.6,182.6-27.9,274.8-33.3c184-10.9,369.4,0.7,550.6,34.8c22.2,4.2,44.3,8.7,66.3,13.5c6.3,1.4,9-8.3,2.7-9.6
		c-174.7-38.3-353.8-55.9-532.6-52.2c-88.5,1.8-177,8.9-264.7,21.1c-72.1,10-143.4,24.2-214.6,38.7c-30.4-24.7-59.5-51-87-78.8
		c-39.6-40-76-83.2-108-129.6c58.4-31.1,117.2-61.4,176.4-90.8c10,5.9,19.7,12.1,29.3,18.6c-37.2,19.4-76.1,36.1-110.5,60
		c-6.8,4.7-13.3,9.7-19.7,14.9c-3.1,2.5-1,7.3,2.2,8.4c60.2,19.7,124.6,26.8,187.6,20.3c11.4-1.2,28.6-0.7,35.5-11.9
		c6.6-10.7-0.4-23.5-7.3-32c-9-11-20.9-20.4-31.7-29.5c-11.2-9.5-22.8-18.6-34.6-27.3c-0.8-0.6-1.7-1.2-2.5-1.8
		c13.3-7.3,26.3-15.2,38.7-24.1c4-2.9,7.9-5.8,11.8-8.9c9.3,1.1,18.5,2.3,27.8,3.6c16.3,2.3,33.5,4.3,48.3,12
		c14.1,7.3,25.8,21,24.7,37.7c-0.4,6.4,9.6,6.4,10,0c1-14.8-6.6-28.7-17.6-38.2c-13-11.1-29.8-15.8-46.4-18.7c-12-2-24-3.8-36-5.3
		c5.6-4.9,11-10.3,14.4-17c3.5-6.9,4.2-14,3.2-20.9c91.6-5.8,183.7-4.5,274.8,6.7c94.2,11.6,185.1,36.9,276.7,60.8
		c98.6,25.7,199.8,48.1,302.3,39.9c6.4-0.5,6.4-10.5,0-10c-93.3,7.4-185.6-10.7-275.6-33.4c-90.9-22.9-180.7-49.7-273.6-63.3
		c-94.3-13.8-189.3-16.7-284.2-11.8c52.2-24.5,104.6-48.4,157.4-71.7c31.7-14,63.5-27.7,95.5-41.2c142.9-3.2,283.9-27.8,422.7-61.4
		c149.8-36.3,297.7-80.5,445.5-124c18.6-5.5,37.1-10.9,55.7-16.4c5.5-1.6,4.3-9.6-1.3-9.8c-115.3-5.3-230.6-10.6-345.9-15.8
		c-6.4-0.3-6.4,9.7,0,10c105.3,4.8,210.7,9.6,316,14.5c-137.3,40.6-274.7,81.4-413.3,117.2c-108.4,28-218.2,52.2-329.5,65.4
		c108.1-72.1,202-164.8,275.6-271.8c21.9-31.8,41.8-64.8,59.9-98.9c3-5.7-5.6-10.7-8.6-5c-57.4,107.9-134.3,205-226,285.7
		c-0.8-0.2-1.7-0.2-2.7,0.1c-84,32-167.4,65.5-250.1,100.5c-142.9,2.7-285.5-14-426.5-36c-22.7-3.5-45.4-7.3-68.1-11.1
		c-22.9-16.4-45.6-33.1-68.1-50.2c-61.9-47.1-122.1-96.6-180.5-148.1c-58.2-51.4-114.5-104.9-168.8-160.5
		c-6.8-6.9-13.5-13.9-20.2-20.8c-4.5-4.6-11.5,2.4-7.1,7.1c53,55.1,107.9,108.4,164.7,159.6c56.6,51,114.9,100,175,146.8
		c27.2,21.2,54.7,41.9,82.5,62.3c-53.1-9.3-106.1-19.5-158.9-30.5c-0.6-6.2-3.4-12.1-8.3-16.4c-1.6-1.4-4.1-2-6.1-0.8
		c-5,3.2-9.1,7.1-12.3,11.5c-55.3-11.9-110.3-24.7-165.1-38.5c-9.9-2.5-19.8-5-29.7-7.6c-0.1-0.1-0.1-0.2-0.2-0.3
		c-10.9-18.5-23.7-36.4-41.2-49.2C65.9,403,41.4,400.2,17,397.6c-12.6-1.4-25.2-2.7-37.8-4.1c-0.4-14.2-0.9-28.4-1.3-42.6
		c-1.3-45.8-1.9-91.8,1.9-137.5c1.8-22.5,4.3-45.2,9.3-67.2c4.5-19.6,11.7-39.4,25.7-54.3c12.7-13.5,29.8-22.3,48.6-21.2
		c6.4,0.4,6.4-9.6,0-10c-37.4-2.1-65.1,27.9-77.3,60.4c-7.4,19.6-10.4,40.6-13.1,61.3c-3,23.3-4.6,46.7-5.4,70.1
		c-1.6,46.4,0.1,92.8,1.7,139.1c0,0.2,0,0.5,0,0.7c-14.1-1.5-28.3-3.1-42.4-4.6c-35.2-3.8-70.4-7.6-105.5-11.4
		c-29.9-10.9-59.3-22.8-88-36.5c-16.3-7.8-32.3-16.1-48.1-25C-320.4,311.7-325.4,320.3-319.8,323.5z M532.3,1002.3
		c31.5,33.6,65.3,64.9,100.8,94.2c-14.7,3-29.4,6-44.1,9c-82.5,16.8-166.6,35.6-251.1,37.9c-72.2,2-147-11.3-202.6-60
		c21-16.6,42-33.2,63.3-49.3c43.9-33.2,91.5-60.6,139.6-87.3c34.4-19.1,69-37.9,103.7-56.5C469,929.8,499.4,967.3,532.3,1002.3z
		 M445,877.2c-2.5-3.8-5-7.6-7.5-11.4c-16.2-25-31.2-50.9-44.6-77.4c108.9-24,219-42.8,330.2-51.7C703,746.3,683,756,663,765.8
		c-2.3-0.1-4.6-0.3-6.9-0.4c-22.2-1.2-44.5-1.8-66.8-1.8c-4.7,0-7.1,7.1-2.5,9.3c10.1,5,20.1,10.3,29.9,15.8
		C559.1,817.4,501.8,846.9,445,877.2z M644.6,774.8c-5.7,2.8-11.4,5.6-17.1,8.5c-5.7-3.3-11.3-6.5-17.1-9.6
		C621.8,774,633.2,774.3,644.6,774.8z M721,864.3c8.4,7.7,21.4,17.3,22.9,29.5c0.7,5.8-3.5,9-8.7,10.3c-6.8,1.7-14.2,2.1-21.2,2.8
		c-28.5,2.8-57.3,2.9-85.8,0.3c-29.9-2.8-59.4-8.7-88.1-17.5c38.2-29.3,83-47.8,125.4-70.2C684.9,833.3,703.5,848.3,721,864.3z
		 M666.3,808c-9.4-6.5-18.9-12.7-28.6-18.6c9.1-4.5,18.2-9,27.3-13.5c11.1,0.7,22.2,1.6,33.3,2.6c4.4,0.4,8.8,0.8,13.2,1.3
		C697.1,790.4,681.9,799.5,666.3,808z M741,752.5c-4.3,7.3-11.4,12.8-17.8,18.2c-0.1,0.1-0.2,0.1-0.3,0.2c-13.3-1.5-26.6-2.7-40-3.7
		c20.4-9.9,40.9-19.8,61.4-29.6C744.8,742.7,743.8,747.8,741,752.5z M1248.7,524.8c-21,17.1-42.6,33.2-64.9,48.5
		C1201.5,552.9,1224.6,537.8,1248.7,524.8z M1212.8,534.9c-21.2,14.6-40,32.1-53,55.1c-0.4,0.7-0.5,1.3-0.6,2
		c-33.1,3.6-66.4,6.2-99.7,7.5c-2.3,0.1-4.6,0.2-6.9,0.3C1105.7,577.5,1159.1,555.9,1212.8,534.9z M1001,610.9
		c-14,6-28.1,12-42.1,18.1c-69.9,30.4-139.3,61.9-208.1,94.5c-2.2-5.2-5.2-10.2-8.6-14.7c-11.2-14.6-26.4-26.3-40.9-37.4
		c-15.4-11.8-31.4-22.7-47.6-33.4c-35.2-23.3-70-47-104.5-71.3C698.4,591.5,849.5,611.4,1001,610.9z M336.6,512.9
		c0.9,1.2,1.5,2.5,2,3.9c-1.7-0.4-3.4-0.7-5.1-1.1C334.5,514.7,335.5,513.8,336.6,512.9z M327,524.6c3.9,0.8,7.7,1.6,11.6,2.5
		c0.3,4.7,7.3,6.4,9.4,2c59.2,12.4,118.7,23.6,178.3,33.8c27.8,20,55.9,39.6,84.4,58.7c31.8,21.3,64.7,41.4,94.4,65.6
		c13.2,10.7,28.2,22.5,35.7,38.3c-80.7,5.7-161.1,16.7-240.5,31.1c-37.5,6.8-74.9,14.4-112.1,22.7c-13.8-28.1-26-57-36.3-86.5
		c-10.5-30.2-19.2-61.1-25.6-92.4C321.4,576.7,314.9,547.2,327,524.6z M317.1,522.5c-6.7,14.3-7.5,31.6-6,47.4
		c1.4,15.1,4.7,30.1,8.1,44.9c3.6,16,7.8,31.9,12.4,47.7c12.2,40.9,27.9,80.6,46.6,119c-62.1,13.9-123.8,29.4-185.3,45.7
		c16.2-98,5.2-200-32.2-292.2c-7.7-19-16.4-37.6-26.3-55.6C195.1,494.9,256,509.3,317.1,522.5z M138.5,509.1
		c22.4,46.7,37.6,96.7,45.6,147.8c9.1,58.2,8.3,117.9-2.1,175.8c-0.7,3.7,2.2,7.2,6.2,6.2c64.5-17.2,129.4-33.6,194.7-48.2
		c9.2,18.3,19.1,36.2,29.6,53.8c7.6,12.7,15.6,25.2,23.8,37.5c-31.2,16.7-62.3,33.6-93.3,50.8c-50.4,27.9-100.6,56.1-146.8,90.8
		c-23,17.3-45.6,35.2-68.2,53.1C75.6,1026.2,49.4,954.7,32,885.8C9.8,798.6-2.1,709.1-9.3,619.5c-4.9-60.5-7.8-121.2-10-181.9
		c38.1,11,76.3,21.6,114.7,31.7c8.7,2.3,17.4,4.6,26.1,6.8C127.7,486.9,133.2,498.1,138.5,509.1z M35.8,409.8
		c25.8,3.7,46.6,14.1,63.5,34c5.3,6.3,10.2,13,14.7,20c-44.7-11.7-89.3-24-133.7-36.9c-0.3-8.1-0.5-16.1-0.8-24.2
		C-1.6,404.8,17.1,407.1,35.8,409.8z M-30.4,401.6c0.3,7.5,0.5,14.9,0.8,22.4c-10.8-3.2-21.5-6.4-32.3-9.6
		c-25-7.5-50.1-15.3-74.9-23.5C-101.4,394.6-65.8,397.8-30.4,401.6z M-217.3,372.2c-17.3-1.9-34.5-3.7-51.8-5.6
		c-4.4-7.7-8.7-15.5-13.1-23.2C-260.9,353.8-239.2,363.3-217.3,372.2z"/>
</g>
</svg>
