<svg xmlns="http://www.w3.org/2000/svg" viewBox="0 0 1658.5 1637.48"><defs><style>.cls-1{fill:#ea93a8;}.cls-2{opacity:0.24;}.cls-3,.cls-7{fill:#fff;}.cls-4{opacity:0.3;}.cls-5{opacity:0.29;}.cls-6{opacity:0.21;}.cls-7{opacity:0.27;}.cls-8{opacity:0.49;}</style></defs><title>grass2</title><g id="Draw_Layer" data-name="Draw Layer"><path class="cls-1" d="M932.59,849.1h0l-1,2.17.87-2.06.09-.11Z" transform="translate(-54.04 -306)"/><path class="cls-1" d="M1252.52,306h0c-.47.62-1,1.24-1.43,1.84l1.43-1.84Z" transform="translate(-54.04 -306)"/><path class="cls-1" d="M1712.52,525.82h0l0,.06,0-.06Z" transform="translate(-54.04 -306)"/></g><g id="Draw_Layer-3" data-name="Draw Layer" class="cls-2"><path class="cls-3" d="M923.18,698.31a4.63,4.63,0,0,1,1.4.8,17,17,0,0,1,2.87,2.69,11.27,11.27,0,0,1,1.29,1.73l.27.61c.08.32-.06.46-.38.38a4.32,4.32,0,0,1-1.4-.8,16.67,16.67,0,0,1-2.87-2.69,11.27,11.27,0,0,1-1.29-1.73l-.27-.61c-.07-.27,0-.41.22-.41l.16,0Z" transform="translate(-54.04 -306)"/><path class="cls-3" d="M531.6,1924.69h0l0-.24v.13l0,.11Zm19.29-128.2h0l.08-.2,0,.11,0,.09Z" transform="translate(-54.04 -306)"/></g><g id="Draw_Layer-4" data-name="Draw Layer" class="cls-4"><path class="cls-3" d="M395.09,1630.49h0l0,.37c0-.13,0-.25,0-.37ZM357.88,1768.1h0l0,.2,0-.2Z" transform="translate(-54.04 -306)"/></g><g id="Draw_Layer-8" data-name="Draw Layer"><path class="cls-7" d="M91.17,1376.81c20.5,45.45,44.61,88.78,63.29,135.17,4.3,10.62,8.27,21.34,12,32.14,12.87,37.38,21,74.4,25.93,113.58,8.61,67.87,6.38,137.17-8.21,204.06,0,.08-.14.11-.18,0-50-48.36-87.28-105.37-112.45-170.18-19.88-51.18-20.46-108.51-13.38-162.27A989.91,989.91,0,0,1,91,1376.81s0-.06.09-.06a.13.13,0,0,1,.12.06Z" transform="translate(-54.04 -306)"/><path class="cls-7" d="M188.79,1595.37h0a.11.11,0,0,0-.11-.14.09.09,0,0,0-.07,0c-23.42,27.17-46,55.22-66.89,84.36a252.27,252.27,0,0,0-47.24,130.06c-2.44,34.51-4.19,80,20.83,107.56a.13.13,0,0,0,.22-.07c.06-1.05.13-2.1.19-3.14a131.62,131.62,0,0,1,7.25-26c8.35-18.59,18.1-36.5,26.44-55.09a585,585,0,0,0,21.08-54.64c10-30.2,15.91-61.6,22-92.79,5.8-29.94,9.74-60.32,16.34-90.12Zm-93,318.3h0s0,.09,0,.13a.57.57,0,0,1,0-.13Z" transform="translate(-54.04 -306)"/><path class="cls-7" d="M241.6,1568.85h0a.09.09,0,0,0-.09,0,.12.12,0,0,0-.12.09c-4.82,29.47-11.13,58.61-14.81,88.26-3.21,25.86-5.36,52-3.72,78.09,2.41,37.43,12.45,76.11,9.11,113.68-.38,1.64-.74,3.3-1.09,5a38.78,38.78,0,0,1-6.17,9.16l.19-.25-2.59,3.14a.1.1,0,0,0,.07.18c15.47-1.13,24.26-6.42,33.74-18.53,12.11-15.43,20.79-35.71,24.73-54.85,5.18-24.92,7.91-49.94,5.54-75.36a275.21,275.21,0,0,0-8.31-45.41c-9.38-35.3-22.18-69.51-36.48-103.11Zm-10,283.51h0l-.21.48.21-.48Z" transform="translate(-54.04 -306)"/><path class="cls-7" d="M361.73,1672.47c-3.94,20.09-7.73,40.15-13,59.92-11.49,43.33-32.68,84.66-58.14,121.38a.13.13,0,0,1-.22-.07c-1.31-27.43.37-54.38,8-80.86,4.88-17.07,13.45-32.5,22.87-47.41,11.85-18.79,25.75-36.3,40.3-53.07a.07.07,0,0,1,.06,0c.07,0,.15.08.12.14Z" transform="translate(-54.04 -306)"/><path class="cls-7" d="M414.49,1738.94a120.37,120.37,0,0,1-9.41,70.86,242.48,242.48,0,0,1-29.76,49.83c-11.6,15-25.79,28.15-40.08,40.55-.11.11-.26,0-.18-.14,11.45-21.41,23.48-42.57,34.9-64,11.73-22.13,25.49-43.44,35.49-66.41a246.86,246.86,0,0,0,8.83-30.68.14.14,0,0,1,.13-.1s.08,0,.08.1Z" transform="translate(-54.04 -306)"/><path class="cls-7" d="M472.62,1744.29a339.69,339.69,0,0,1,11.74,39.1c3.07,13.43,4.42,27.4,5.51,41.11,0,.11-.22.14-.25,0a342.75,342.75,0,0,1-11.35-39.43c-2.88-13.38-4.45-27.13-5.87-40.74,0-.06.05-.1.11-.1a.11.11,0,0,1,.11.06Z" transform="translate(-54.04 -306)"/><path class="cls-7" d="M588.82,1743.47c2.58,13.35,4.52,26.8,4.77,40.45s-1.86,27.31-4.37,40.59c0,.11-.19.11-.22,0-2.52-13.38-4.38-27-4.45-40.59s1.86-27.14,4.05-40.45c0-.06,0-.08.11-.08s.11,0,.11.08Z" transform="translate(-54.04 -306)"/><path class="cls-7" d="M479.68,1725.14c1.9,31,1.64,62.07-5.14,92.46s-24.14,59.08-44.79,82.1a.11.11,0,0,1-.18-.08c-.44-30.74,1.42-62,9.37-91.84,7.84-29.47,24.4-57.11,40.52-82.68a.14.14,0,0,1,.12-.07.1.1,0,0,1,.1.11Z" transform="translate(-54.04 -306)"/><path class="cls-7" d="M1101,1312.28c-24.76,102.38-43.77,206.33-74.77,307.18-14.37,46.76-31.55,92-53.43,135.79-12.26,24.47-25.64,48.36-39.83,71.78-14.95,24.66-33.34,47.85-51,70.58-12.25,15.75-25.2,30.85-38.55,45.73-.07.08-.22,0-.22-.07q8.65-82.44,25.5-163.51c6.49-31.69,14.62-63,24.14-94,8-25.94,18.71-51.1,29.36-76,17.8-41.87,41.51-81.26,65-120.11,27.76-45.92,57.12-90.78,86.55-135.64q13.62-20.85,27.06-41.84a.14.14,0,0,1,.1-.05.12.12,0,0,1,.12.16Z" transform="translate(-54.04 -306)"/><path class="cls-7" d="M736,1441.91c2,25.68,4.64,51.32,7.12,76.92,2.37,24.66,4.56,49.31,6.71,74q2.4,27.3,4.56,54.63.87,11.33,1.71,22.62c.18,2.91.26,5.91.62,8.79,1.13,9.26,1.71,18.63,2.52,27.9q2.46,27.73,4.7,55.47c1.17,14.89,2.37,29.8,3.47,44.72,1.68,22.4,3.86,44.72,5.72,67,0,.14-.21.18-.21,0-3.25-22.13-6.61-44.31-9.38-66.52q-2.68-22.11-5.25-44.14c-3.28-28.15-6.46-56.27-9.37-84.43-1.06-10.1-1.61-20.28-2.34-30.42q-2-27.4-3.65-54.82-2.29-37-4.15-74c-1.28-25.9-2.63-51.83-3-77.76a.1.1,0,0,1,.1-.11.1.1,0,0,1,.11.11Z" transform="translate(-54.04 -306)"/><path class="cls-7" d="M539.48,1612.27c29.21,45,53.94,93.23,74.66,142.65,9.23,22,15.32,45,21,68.13,9.08,36.62,15,73.68,19,111.17,0,.11-.18.15-.22.08-30-52.93-56.28-108.08-75.61-165.81-17.07-51.1-26.29-104-39-156.14a.09.09,0,0,1,.09-.13.11.11,0,0,1,.09,0Z" transform="translate(-54.04 -306)"/><path class="cls-7" d="M908.88,1422.35c-4.89,80.64-8.57,161-22.1,240.76-5.88,34.68-15.1,68.75-25.43,102.34-16.41,53.54-37.2,105.7-60.65,156.54a.12.12,0,0,1-.22-.07,1179.14,1179.14,0,0,1,7.88-163.66c4.34-36.07,9.85-72,19-107.19,20.32-78.45,51.07-153.74,81.34-228.76a.12.12,0,0,1,.11-.08.11.11,0,0,1,.11.12Z" transform="translate(-54.04 -306)"/><path class="cls-7" d="M1085,1722.9c4.63,27.65,8.46,55.59,8.64,83.63.18,37.17-7,74.41-16.52,110.15,0,.11-.19.15-.22,0-5.87-36.29-9.27-73.42-5.55-110.15,2.85-28.08,8.68-55.8,13.43-83.63a.08.08,0,0,1,.09-.08.14.14,0,0,1,.13.08Z" transform="translate(-54.04 -306)"/><path class="cls-7" d="M1294.26,1687.38c-6,27.37-11,54.92-16.38,82.44a644.11,644.11,0,0,1-13.74,71.29c-6.82,26.81-13,53.69-20.57,80.35,0,.15-.22.11-.26,0a593.65,593.65,0,0,1-3.83-73.75c.07-8.94,1.61-18,2.7-26.88s2.15-17.91,4.3-26.59c4.85-19.81,11.49-38.15,19.55-56.87,7.44-17.36,18-34.1,28-50.07a.12.12,0,0,1,.1,0,.12.12,0,0,1,.12.16Z" transform="translate(-54.04 -306)"/><path class="cls-7" d="M1255.76,1745.65h0l-.06,0c-.08,0-.14.12-.08.21,6.86,9.66,13.86,19.22,21.26,28.48,13.39,16.74,29.22,31.19,42.6,47.86l-.34-.41c2.37,3.21,4.76,6.38,7.15,9.48l0,0c1,1.31,2,2.66,3.06,4,.07.11.26.07.22-.08-2.77-9.11-5.54-18.74-10.47-26.91a148.55,148.55,0,0,0-26.95-32.5,455.29,455.29,0,0,0-36.37-30.06Zm63.38,76.12h0l-.13-.18.13.18Z" transform="translate(-54.04 -306)"/><path class="cls-7" d="M1181,1666.12c1.54,29.68,1,59-3.1,88.41-5,36.07-20.71,71.56-37.56,103.51,0,.11-.22,0-.22-.08-2-37-.69-75.31,9.41-111.24,7.8-27.79,19.47-54.38,31.26-80.68a.1.1,0,0,1,.09,0,.12.12,0,0,1,.12.13Z" transform="translate(-54.04 -306)"/><path class="cls-7" d="M1320.29,1772.81h0a.1.1,0,0,0-.11-.1.14.14,0,0,0-.11.06c-.73,1-1.49,1.92-2.22,2.89l.07-.08c-9.38,12.08-21.16,22-30.57,34.07a219.37,219.37,0,0,0-22.76,37.09c0,.11,0,.26.15.19,26-17.73,51.39-41.18,55.55-74.12Zm-2.56,3h0l.12-.14a.53.53,0,0,0-.12.14Z" transform="translate(-54.04 -306)"/><path class="cls-7" d="M1381.69,1705.4c21.33,19.11,43.91,41,53.94,68.27,7.69,21,.91,47.27-9.48,66-8.21,14.77-24.77,23.31-40.31,28-.07,0-.18-.08-.11-.19a174.72,174.72,0,0,0,16-26,99.6,99.6,0,0,0,3.49-14c1.31-15.73.54-31.18-1.11-46.87-2.86-14.92-8.73-29-13.24-43.45-3.32-10.54-6.31-21.15-9.34-31.77a.1.1,0,0,1,.11-.13.09.09,0,0,1,.08,0Z" transform="translate(-54.04 -306)"/><path class="cls-7" d="M1512.29,1748.55c-19.48-24.55-37.31-50-54.31-76.38a.11.11,0,0,1,.11-.17.08.08,0,0,1,.07,0h0" transform="translate(-54.04 -306)"/></g><g id="Draw_Layer-9" data-name="Draw Layer"><path class="cls-3" d="M1410.47,1810.57c14.37,12.13,29,24,42.62,37,14.6,13.87,28,29.14,41.1,44.44.08.08,0,.27-.15.19-16.43-10.15-32.43-21.46-46.18-35-14.14-14-26.5-30-37.58-46.41-.06-.09,0-.18.12-.18a.08.08,0,0,1,.07,0Z" transform="translate(-54.04 -306)"/><path class="cls-3" d="M1517.43,1894.33a.13.13,0,0,1-.23-.11" transform="translate(-54.04 -306)"/><path class="cls-3" d="M835.09,1762.43h0l-.08,0a.13.13,0,0,0-.12.18c1.2,2.79,2.4,5.62,3.57,8.41a3.25,3.25,0,0,1-.2-.54c1.75,4.33,3.57,8.64,5.39,12.94-.16-.43-.35-.82-.51-1.24,3.53,8.52,7.13,17.08,11.39,25.26,8.73,16.71,20.11,32,27.85,49.17a38.24,38.24,0,0,1,2.55,10.17,34.6,34.6,0,0,1-3.55,12c0-.11.08-.19.12-.31-.62,1-1.28,2-1.9,3-.08.12,0,.24.12.2,32.23-12.94,14.64-53,.66-73.3-12-17.44-29.06-32.39-45.29-45.91Zm46.53,92.36h0c.27.59.52,1.19.76,1.78-.27-.59-.52-1.19-.76-1.78Z" transform="translate(-54.04 -306)"/><path class="cls-3" d="M669.34,1738.79h0a.1.1,0,0,0-.09-.06c-.06,0-.15.06-.15.13,1.59,12.56,2.6,25.15,4,37.7,2.18,20.14,5.25,40.16,8.34,60.15a142.84,142.84,0,0,1,.8,32.47,184.38,184.38,0,0,1-4.18,21.13.13.13,0,0,0,.23.12c8.75-12.87,16.23-28.44,16.54-44.36.43-21.66-2.9-41.69-9.18-62.42a400.2,400.2,0,0,0-16.27-44.86Zm12.07,98h0c.08.53.17,1.06.25,1.59-.11-.52-.18-1.06-.25-1.59Z" transform="translate(-54.04 -306)"/><path class="cls-3" d="M538.36,1730.25c9.3,15.46,17.94,31.27,26.35,47.23,2.28,4.34,4.53,8.68,6.78,13.06,1.28,2.44,2.32,5,3.44,7.47,4.69,10.31,9.34,20.61,13.56,31.11,0,.16-.19.24-.23.12-4.61-10.31-9.53-20.42-14.37-30.61-1.2-2.48-2.29-5-3.57-7.4-2.28-4.34-4.61-8.67-6.85-13-8.37-16-16.62-32-25.3-47.85a.12.12,0,0,1,.09-.19.1.1,0,0,1,.1.07Z" transform="translate(-54.04 -306)"/><path class="cls-3" d="M1120.92,1654.13a1014.52,1014.52,0,0,1-5.07,102.36c-1.59,15.88-3.57,31.73-5.77,47.5-3.41,24.52-8.14,48.81-11.63,73.3v0a101.44,101.44,0,0,0,0,23c2.9,14.49,7.2,28.77,11,43.06a.12.12,0,1,1-.24,0c-3.83-12.63-7.55-25.34-11.7-37.93a133.63,133.63,0,0,1-4.26-16.85c-1.08-5.77-.74-12-.74-17.9,0-7.21.12-14.45.51-21.62,1-21.15,1.9-42.38,4.22-63.42,4.88-44.24,12-88.53,23.44-131.57a.13.13,0,0,1,.12-.08.11.11,0,0,1,.11.12Z" transform="translate(-54.04 -306)"/><path class="cls-3" d="M237.5,1428.55c21.66,46,42.93,92.17,63.27,138.74,23,52.73,44.16,106.12,63.84,160.2q20.34,55.8,38.94,112.17a.13.13,0,0,1-.23.11c-26.35-55-51.63-110.49-75.35-166.67l.15.39c-33.86-80.24-62.8-162.41-90.85-244.82a.13.13,0,0,1,.13-.17.16.16,0,0,1,.1,0Z" transform="translate(-54.04 -306)"/><path class="cls-3" d="M265.11,1524.34c-12.79,35.8-21.85,73-33.09,109.29C221.44,1667.88,210.32,1702,199,1736c-16.62,49.75-33.39,99.14-54.16,147.34a.13.13,0,0,1-.23-.08c.73-52.84,4.38-106.12,16.58-157.68,8.25-34.87,24.29-67.76,41.45-99,19.18-34.91,39.45-69.7,62.26-102.32a.14.14,0,0,1,.11-.06.14.14,0,0,1,.13.18Z" transform="translate(-54.04 -306)"/><path class="cls-3" d="M345.51,1843.86h0a.11.11,0,0,0-.11-.1.13.13,0,0,0-.12.14c0,1.79-.15,3.62-.34,5.41,0,0,0,0,0-.06a49.85,49.85,0,0,1-2.78,9.51,58,58,0,0,1-3.31,5.8,40.36,40.36,0,0,1-4.88,5.08l.24-.17-.27.2-.08.07.06-.06a52.22,52.22,0,0,1-10.91,6.07c-6.59,2.48-13.21,4.84-19.8,7.36-.15,0-.11.27,0,.23,4.65-1.08,9.26-2.25,13.87-3.45,5.5-1.43,11.86-2.83,16.62-6.16,10.19-7.13,14-17.74,11.74-29.87Zm-3.37,15h0l0,.09,0-.09Zm-3.1,5.48h0l-.13.16a1.12,1.12,0,0,1,.13-.16Zm-16.14,11.45h0l-.13,0,.13,0Zm11.07-6.14h0l0,0-.05,0Zm11-20.27h0s0-.06,0-.09a.31.31,0,0,0,0,.09Z" transform="translate(-54.04 -306)"/><path class="cls-3" d="M1086.74,1847.36a7.21,7.21,0,1,1-7.21-7.21,7.3,7.3,0,0,1,7.21,7.21Z" transform="translate(-54.04 -306)"/><path class="cls-3" d="M971.14,1898.67a7.21,7.21,0,1,1-7.21-7.2,7.29,7.29,0,0,1,7.21,7.2Z" transform="translate(-54.04 -306)"/></g></svg>