<svg xmlns="http://www.w3.org/2000/svg" viewBox="0 0 1958.27 1896.78"><defs><style>.cls-1{fill:#ea93a8;}.cls-2{opacity:0.24;}.cls-3,.cls-7{fill:#fff;}.cls-4{opacity:0.3;}.cls-5{opacity:0.29;}.cls-6{opacity:0.21;}.cls-7{opacity:0.27;}.cls-8{opacity:0.49;}</style></defs><title>grass</title><g id="Draw_Layer" data-name="Draw Layer"><path class="cls-1" d="M1133.77,849.1l.09.11.87,2.06c-.31-.72-.63-1.44-1-2.17Z" transform="translate(-54.04 -306)"/><path class="cls-1" d="M813.84,306l1.43,1.84c-.48-.6-1-1.22-1.43-1.84Z" transform="translate(-54.04 -306)"/><path class="cls-1" d="M353.84,525.82a.14.14,0,0,1,0,.06l0-.06Z" transform="translate(-54.04 -306)"/></g><g id="Draw_Layer-3" data-name="Draw Layer" class="cls-2"><path class="cls-3" d="M1143.18,698.31a4.63,4.63,0,0,0-1.4.8,17,17,0,0,0-2.87,2.69,12,12,0,0,0-1.29,1.73l-.27.61c-.08.32.06.46.39.38a4.43,4.43,0,0,0,1.4-.8A17.43,17.43,0,0,0,1142,701a11.89,11.89,0,0,0,1.28-1.73l.27-.61c.07-.27,0-.41-.22-.41l-.16,0Z" transform="translate(-54.04 -306)"/><path class="cls-3" d="M1486.81,561.81c-7.07,1.2-13.93,4.9-20.07,8.58-14.46,8.68-27.31,18.91-40.21,29.73-23.68,19.87-44.67,42.85-63.82,67-12.06,15.24-22.84,33-26.61,52.25q-2,8.54,6.54,6.53l10.18-4.5a193.3,193.3,0,0,0,29.09-21.67q7.9-7,15.37-14.33c1.59-.8,3.14-1.66,4.62-2.45,5.95-3.17,11.48-7,17.09-10.73,7-4.7,13.33-9.78,19.94-15.16,10.47-8.52,20-18.49,29-28.57,8.28-9.31,16.82-20.09,22.14-31.44,3.72-8,6.74-15.58,6.31-24.47a24.69,24.69,0,0,0-1.57-8.51c-.8-1.9-4.35-2.4-6.56-2.4a8.46,8.46,0,0,0-1.43.1Z" transform="translate(-54.04 -306)"/><path class="cls-3" d="M1318.33,605.92c-6.28,0-12.93,2.53-18.29,5.59-16.45,9.37-30.7,23-43.1,37.07-4.92,5.59-11.16,12.42-14.53,19.27-1.88,3.81-3.77,7-3.66,11.23a26.6,26.6,0,0,0,2.6,10.7,169.28,169.28,0,0,0-27.71,13.4,194,194,0,0,0-48.34,40.43c-4.55,5.29-9.71,11-13,17.31-2.36,4.45-3.21,5.46-2.55,9.78.59,3.81,6.06,4.84,9.19,5.62,8.95,2.22,18.16,3.32,27.29,4.52,6.87.9,13.74,1.85,20.63,2.49,12.33,1.16,24.62,2,37,1.36a288.29,288.29,0,0,0,38.63-4.45,141.93,141.93,0,0,0,17.16-4.51q-.6,1.62-1.14,3.27c-1.81,5.41-3.53,10.77-5.06,16.26-4.42,15.79-7.82,31.91-8.7,48.33a117.23,117.23,0,0,0,3.82,37.39c2.56,9.18,8.22,17.32,16.56,22,4.59,2.6,10.48,3.4,15.64,3.54,7.74.21,14.09-2.85,21-6.29,12.63-6.28,23.6-16.14,34.4-25a199.77,199.77,0,0,0,19.08-18.07c10.6-11.29,21-21.87,29.92-34.53,9.39-13.24,18-27.35,19.39-43.83.89-10.27-.56-21.08-2.13-31.19-1.14-7.33-2.16-14.79-4.13-22a154.92,154.92,0,0,0-10.73-29,83.42,83.42,0,0,0-15.78-21.84c-7-6.92-17.21-9.42-26.91-9-.36-1.66-.78-3.31-1.29-5-2-6.56-5.63-12.68-8.9-18.7-4.09-7.54-7.87-14.76-13.75-21.12-8.89-9.63-22.69-13.73-35.41-14.78-2.34-.2-4.64-.35-7-.35Z" transform="translate(-54.04 -306)"/><path class="cls-3" d="M1406.53,671.87a121,121,0,0,0-26.5,9.21c-8.4,4-16.13,9.11-23.77,14.38-.64.37-1.28.74-1.93,1.1a123.71,123.71,0,0,0-18.62,13.9,190.4,190.4,0,0,0-29.09,31,50.89,50.89,0,0,0-8.62,15.13c.14,1.25.27,2.51.41,3.77a10.65,10.65,0,0,0,10.3-2.48c9.09-5.06,17.52-11.28,26.06-17.26,4-2.49,8.14-4.87,12.39-7,1.32-.55,2.65-1.09,4-1.61-.9,1.07-1.77,2.17-2.62,3.29-1.28,1.76-5.2,6.26-3.92,9,1.92,4.18,3.59,7.74,7.49,10.35a18,18,0,0,0,3.94,1.78,40.56,40.56,0,0,0,11.5,2.12,128.5,128.5,0,0,0,21.3-.91c14.69-1.8,29.5-3.84,44-7,10.47-2.3,20.57-5.05,30.18-10,9.34-4.85,18-12.61,25.34-20a144.51,144.51,0,0,0,20-24.72c2.47-4,4-8.42,3.17-13s-3-7.54-7-10c-4.26-2.51-10-3.43-14.9-4-4.64-.51-9.26-1-13.92-1.3-6-.41-12-.4-18.06-.4-1.22,0-2.46,0-3.68,0h-.72a222,222,0,0,0-46.7,4.76ZM1440,714.16l-3.21.42c-8.28,1-16.56,1.93-24.89,2.54a111.23,111.23,0,0,1-12.38.15,159.45,159.45,0,0,1,40.48-3.11Z" transform="translate(-54.04 -306)"/><path class="cls-3" d="M1328.05,727.38l2.44,1.82a.2.2,0,0,0-.07-.06c1.26,1,2.53,1.94,3.78,3,1.66,1.34,3.35,2.65,5,4,2.11,1.73,4.24,3.42,6.38,5.1,3.17,2.48,6.4,4.89,9.62,7.3q5.07,4,9.86,8.29c3.34,3,6.44,6.23,9.47,9.5s6,6.76,8.89,10.18q4.8,5.65,9.36,11.49h0q2.33,3,4.54,6.15c1.5,2.1,2.92,4.25,4.34,6.4,2.84,4.3,5.49,8.74,8.08,13.19a286.79,286.79,0,0,1,15.88,31.82l0-.07q2.31,5.64,4.42,11.33c.51,1.39,1,2.74,1.42,4.15,1.46,4.56,2.91,9.14,4.36,13.7.48,1.47.94,2.94,1.4,4.4.21.63.37,1.27.52,1.92l3.33,13c1,3.75,1.92,7.48,2.88,11.24.1.38.16.76.23,1.15q.48,2.63.95,5.23,2.09,11.61,4.18,23.21,1.46,13.41,2.87,26.82c.11,1,.22,2,.32,2.94,0,.28,0,.57,0,.84,0,.75.06,1.5.08,2.26l.64,17.22c.08,2.08.16,4.15.24,6.24,0,.6.06,1.21.06,1.81q-.09,7-.17,14-.07,6.79-.16,13.58c0,2.64-.2,5.3-.31,7.94l-.71,16.47c-.1,2.64-.16,5.3-.36,7.93q-1,13.74-2,27.48c0,.62-.12,1.23-.19,1.86l-.68,6.33-1.8,16.74c-.2,1.91-.43,3.82-.66,5.72l-2.1,16.72q-.83,6.46-1.64,13c-2.1,15.22-4.19,30.45-6.42,45.66q-3.85,26.37-7.66,52.76c-.92,6.39-1.68,12.82-2.5,19.22l-2,16c-.2,1.63-.42,3.26-.62,4.9-.07.55-.13,1.11-.19,1.68l-2.61,29.64q-.37,4.17-.73,8.34c-.08.87-.07,1.75-.1,2.62l-.27,7.83q-.27,8.21-.55,16.45c-.06,1.81-.11,3.62-.18,5.44,0,.63,0,1.27,0,1.91q0,14.67,0,29.33c0,7.41.25,14.83.41,22.26.07,3.39.13,6.79.21,10.19,0,1,.07,2.07.11,3.12q.17,4.41.32,8.82c.27,7.34.52,14.69.86,22,.42,9.15.86,18.3,1.25,27.45,0,1,.13,1.94.18,2.91.14,2.32.29,4.64.43,7,.34,5.61.68,11.21,1,16.83.11,2,.27,4,.43,5.94q.75,8.67,1.48,17.35c.19,2.26.38,4.51.58,6.77.06.75.11,1.51.2,2.27l1.56,12.91c.59,4.82,1.17,9.66,1.76,14.48.27,2.24.67,4.44,1,6.67q1.33,8,2.66,16.08c.34,2,.67,4,1,6,.12.73.25,1.46.41,2.18q3,13.7,6,27.37c.13.56.29,1.12.44,1.67.52,1.9,1,3.8,1.57,5.69,1.55,5.62,3.11,11.22,4.66,16.84.4,1.45.8,2.91,1.21,4.38.15.58.38,1.14.57,1.72q2.7,7.63,5.4,15.3c1.15,3.3,2.32,6.59,3.48,9.89.07.19.17.39.25.57.23.53.45,1.06.68,1.58l3.12,7.25,6.32,14.69c.5,1.16,1,2.32,1.5,3.48.38.88.84,1.74,1.26,2.6q6,12.27,12,24.52c.74,1.53,1.52,3,2.3,4.53l7.32,14,4.17,8c.35.67.68,1.36,1,2l3.1,6.25q3.26,6.54,6.52,13.09l1.43,2.86c.37.81.74,1.61,1.1,2.43.75,1.61,1.47,3.23,2.19,4.85,1.06,2.36,2.07,4.74,3.08,7.12v0l.06.16a.61.61,0,0,0,0,.12v0c1,2.38,1.94,4.76,2.88,7.16s1.86,5,2.77,7.49c2.1,5.86,3.95,11.79,5.67,17.75s3.17,12.2,4.48,18.36,2.33,12.56,3.21,18.88c0-.1,0-.21,0-.31.59,4.6,1.09,9.2,1.47,13.82s.53,9.32.64,14,0,9.4-.22,14.08c-.23,5.61-.84,11.18-1.54,16.75v0a1.1,1.1,0,0,1,0,.18l0,.16v0q-.37,2.71-.81,5.4c-.45,2.84-1,5.66-1.56,8.49-1.09,5.44-2.5,10.82-4,16.17a251.49,251.49,0,0,1-10.16,28.54c-2.89,6.72-6,13.33-9.25,19.87-3.75,7.57-7.88,14.94-12.13,22.25-8,13.67-16.8,26.81-26.07,39.61-9,11.32-17.87,22.7-26.82,34-.66.85-1.42,1.63-2.13,2.44l-7.62,8.6q-10.15,11.45-20.31,22.93l-6,6.73c-.63.71-1.26,1.41-1.91,2.1q-8,8.44-16,16.89c-6.43,6.81-12.88,13.6-19.29,20.44-1.7,1.79-3.36,3.64-5,5.49q-2.08,2.33-4.13,4.67c-3.87,4.39-7.62,8.86-11.31,13.38,0,0,0,.08.05,0,6-5.27,12-10.61,17.66-16.25,2.45-2.45,4.85-4.95,7.22-7.47q11.79-12.53,23.6-25l8.23-8.75c.92-1,1.82-1.93,2.69-2.91l19.13-21.69q8.43-9.55,16.87-19.13c.26-.3.5-.61.74-.92l2.81-3.59q5.27-6.75,10.56-13.48l9.66-12.32q1.39-1.8,2.8-3.59c1.43-1.82,2.75-3.72,4.08-5.61,6.5-9.1,12.62-18.44,18.45-28q9.55-15.61,17.64-32.07,6.81-13.79,12.27-28.19c2-5.17,3.65-10.43,5.25-15.7,1.89-6.21,3.4-12.51,4.73-18.86,1-4.79,1.82-9.65,2.43-14.49.36-2.86.69-5.71,1-8.57s.44-5.64.6-8.47c.31-5.62.26-11.26.13-16.89-.15-6.51-.69-13-1.39-19.47-.51-4.71-1.23-9.4-2-14.08-.86-5.35-2-10.65-3.16-15.92a281.37,281.37,0,0,0-9.94-33.31c-3.36-9.29-7.35-18.33-11.47-27.28-.44-1-1-1.91-1.42-2.87-1.34-2.65-2.66-5.3-4-8l-6.3-12.64c-1.28-2.54-2.63-5-3.94-7.55l-7.49-14.31c-.62-1.18-1.23-2.37-1.86-3.54-.45-.86-.84-1.73-1.27-2.6q-6.35-13-12.7-26c-.25-.51-.46-1-.69-1.56l-2.36-5.46q-3.49-8.05-7-16.14l-2-4.53a2.72,2.72,0,0,0,.11.25l-5-14c-1-2.9-2.06-5.8-3.07-8.7-.37-1-.74-2.07-1.11-3.09-.1-.3-.21-.59-.3-.89q-4-14.22-7.91-28.45c-.07-.26-.13-.53-.18-.79-.23-1-.45-2.09-.69-3.14l-2.27-10.33q-1.58-7.12-3.14-14.26c-.06-.26-.09-.53-.14-.79-.17-1-.34-2.09-.52-3.13-.56-3.44-1.14-6.87-1.71-10.31-.79-4.72-1.57-9.46-2.37-14.2q-1.62-13.26-3.23-26.51c-.09-.74-.2-1.49-.27-2.23-.11-1.33-.22-2.64-.34-4q-.73-8.83-1.5-17.69c-.18-2.05-.35-4.11-.53-6.18,0-.58-.1-1.18-.15-1.77q-.4-6.85-.83-13.72c-.28-4.73-.58-9.45-.86-14.17-.15-2.36-.24-4.73-.34-7.09q-.63-13.73-1.25-27.45c-.15-3.51-.25-7-.38-10.51l-.57-16.27c-.08-2.18-.12-4.37-.16-6.55q-.17-8.81-.35-17.62c0-2.32-.11-4.63-.12-6.95v-13.91q0-9.11,0-18.21c0-.85,0-1.71.07-2.56.11-3.32.24-6.64.35-10q.36-10.26.72-20.53c0-.77.07-1.53.14-2.3q.39-4.25.76-8.49,1-10.93,2-21.87c.19-2.18.39-4.35.59-6.53.08-1,.22-2,.35-2.94,1.55-11.93,3.07-23.86,4.63-35.78v0c2.32-15.6,4.59-31.2,6.92-46.79,1-7,2.13-14,3.13-21.09q2.17-15.32,4.36-30.62c1-6.72,1.78-13.47,2.66-20.2q.91-7,1.82-14.08c.31-2.38.57-4.76.84-7.16q.9-8.09,1.82-16.19c.18-1.63.38-3.28.56-4.92.09-.84.14-1.67.21-2.52q1-13.24,2.09-26.52c.08-.94.09-1.89.14-2.84.1-2.29.21-4.58.32-6.89q.4-8.61.82-17.24c.09-2,.17-3.93.2-5.89l.27-16.52c.06-3.36.11-6.74.17-10.12,0-.27,0-.56,0-.84,0-.75,0-1.51-.08-2.26q-.14-4.36-.28-8.74l-.48-14.72c0-.61,0-1.21-.08-1.8-.2-1.93-.39-3.85-.6-5.77l-1.69-16.53c-.2-2-.41-4-.61-6-.07-.73-.14-1.46-.26-2.19q-2.45-13.87-4.88-27.77c-.1-.57-.19-1.16-.34-1.73-.39-1.59-.8-3.19-1.2-4.79L1442,882.56l-1-4c-.23-.94-.57-1.85-.87-2.78l-5-15.93c-.44-1.4-.9-2.74-1.4-4.14-1.41-4-3-7.87-4.54-11.75-1.4-3.46-3-6.85-4.51-10.24-2.36-5.14-4.92-10.16-7.58-15.14-2.05-3.87-4.27-7.65-6.49-11.41-2.63-4.44-5.44-8.78-8.33-13.05a246.22,246.22,0,0,0-16-20.57q-4.38-5.16-8.92-10.16c-1.84-2-3.77-4-5.71-5.89s-3.81-3.56-5.76-5.29c-1.31-1.14-2.65-2.26-4-3.37-1.49-1.23-3-2.45-4.56-3.6l-2.2-1.62c-1.46-1-3-2.06-4.46-3.07-1-.69-2-1.35-3.08-2-3.1-2-6.23-4-9.41-5.82-1.28-.74-2.55-1.5-3.86-2.2-1-.57-2.09-1.12-3.15-1.67s-2.09-1-3.14-1.54h0a0,0,0,0,0,0,.07Zm27,21,.14.11-.14-.11Zm179.77,1176.35v-.11l0-.13a1,1,0,0,0,0,.24Zm-19.29-128.2,0-.09,0-.11a1.76,1.76,0,0,0,.09.2Z" transform="translate(-54.04 -306)"/></g><g id="Draw_Layer-4" data-name="Draw Layer" class="cls-4"><path class="cls-3" d="M1865,1319.42c-1.88-10.38-12.39-18.81-19.7-23.13-9.5-5.61-20.66-9.67-31.44-10.5a63.61,63.61,0,0,0-17.8-.69q-8,.81-15.92,2.34a55.92,55.92,0,0,0-10.08,3.34c-6.39,2.48-12.28,4.51-18.19,8.11-8.11,4.95-15.48,11.46-20,20.79a17.28,17.28,0,0,0-2.73,17.38c3.84,11.91,17.53,18.6,26.91,22.08a79.7,79.7,0,0,0,29.59,4.65l1.49-.21a92.41,92.41,0,0,0,9.65,2.28c9.64,1.81,18.65,1.26,28.34-.8,4.94-1.06,9.79-3.7,14.54-5.69a39.89,39.89,0,0,0,9.5-5.86c5.08-4,9.29-7.17,12.46-13.21,2.21-4.21,3.47-7.16,4-10.26s.22-6.09-.59-10.62Z" transform="translate(-54.04 -306)"/><path class="cls-3" d="M1773.4,1354.2c-1.55-12-9-22.69-15.62-31.18a43.88,43.88,0,0,0-5.82-5.52,92.29,92.29,0,0,0-10.59-8.33c-6.12-4.35-13.66-6.62-20.56-9.18a64.13,64.13,0,0,0-23.81-3.74c-8,.37-20.17,2.08-26,10.26-11.29,15.68,9.8,28.17,19.45,31.74l1.51.57a13.28,13.28,0,0,0-3.24,2.86c-4,4.88-5.69,10.67-6.34,17-.45,4.36.43,8.81.93,13,.88,7.11,4.92,13.28,8.68,18.58,6.77,9.54,15.31,19.07,26,22.24,7.25,2.12,14.15,4,21.82,3.15a29.8,29.8,0,0,0,13.48-3.43c3.37-1.7,6.15-4.22,9-6.87,3.61-3.32,6.41-9.59,8.21-14.25a48.82,48.82,0,0,0,3-9.62c.33-2,.65-3.93,1-5.91,0-.11,0-.23,0-.34,1.1-7-.28-14.38-1.17-21.13Zm-83.33-17-1.26-.61c.43.19.85.4,1.26.61Z" transform="translate(-54.04 -306)"/><path class="cls-3" d="M1795.34,1275.14c.9-6.66-.06-14.94-1.22-21.25a38.64,38.64,0,0,0-4.68-13.19,55.67,55.67,0,0,0-23.14-23.34,74.54,74.54,0,0,0-28.89-9.62,53.82,53.82,0,0,0-21.47.72,49.31,49.31,0,0,0-11.12,4,54.53,54.53,0,0,0-12.1,11q-2.27,4.44-4.22,9a42.68,42.68,0,0,0-1.77,5.06c-1.5,4.81-2.73,9.7-4,14.61a116.22,116.22,0,0,0-3.61,20.27c-.27,4.12.62,8.26,1.1,12.25a32.42,32.42,0,0,0,4.73,12.43c2.17,3.48,4.39,6.79,6.78,10a359.49,359.49,0,0,1-13.83,40.19q-.64,10.65,6.37,17.35c8.76,10.3,23.28,15,35.38,16.89a70.08,70.08,0,0,0,28-.94l10.87-4.28q8.73-4.21,11.39-14.56c3.34-7.51,6.69-15.06,9.4-22.89,2.64-7.66,4.94-15.34,7.16-23.16,2.09-7.3,3.7-14.81,5.47-22.19q1.63-7,2.77-14.09c.22-1.41.42-2.82.61-4.23Z" transform="translate(-54.04 -306)"/><path class="cls-3" d="M1770,1326.28c-1.62-7.41-5.63-14.21-9.19-20.42a171.83,171.83,0,0,0-14-21c-6.55-8.28-14.93-14.68-22.94-20.89a109.68,109.68,0,0,0-19.09-11.51c-8.19-4-16.09-7.47-24.79-9.83a160.94,160.94,0,0,0-38.71-6.06,105,105,0,0,0-15.94.64c-9.18,1.1-19.36,2.43-28,7.14a49.71,49.71,0,0,0-8.61,6.57c-2.53,2.18-3.59,6.41-4.92,9.53-2.53,5.94-.3,14.29,1,20.08,1.91,8.68,5.33,17,8.5,25.08,6.85,17.44,17.61,31.39,29,44.77,2.9,3.39,5.77,6.8,8.58,10.29a45,45,0,0,0,14.26,12c3.54,1.7,7.08,3.42,10.61,5.13a60.88,60.88,0,0,0,16.13,3.62c9.85,1.14,19.77,1.22,29.61-1.76,9.23-2.81,12.35-5.15,19.76-11.59a47.25,47.25,0,0,0,5.8-6.11c2,.5,4,.9,5.94,1.2a53.87,53.87,0,0,0,21.59-.75c6.44-1.76,15.62-5.52,17.17-14.53l.06-.39c1.1-7-.33-14.63-1.77-21.25Zm-121.21-8.37c-1.29-1.55-2.53-3.15-3.72-4.84a133.69,133.69,0,0,1-7-13.94h0a68.21,68.21,0,0,1,5.46,5.79,69.34,69.34,0,0,1,5.27,13Z" transform="translate(-54.04 -306)"/><path class="cls-3" d="M1745.67,1301.57c-18.35-6.37-38.31-7.46-57.66-5.36-7,.75-14.13,1.56-21,3.45a74.48,74.48,0,0,0-21.15,10.11c-2.82,1.84-5.68,3.73-8.39,5.81-13.62,10.39-28,21.47-39,35.85-4.38,5.79-7,13.2-9.67,20.15-2.34,6-3.42,12.27-1.59,18.62,2.23,7.78,9.47,13.57,15.33,17.13,13.62,8.28,29.86,9.56,45.14,5.85,8.72-2.11,18.64-6.8,24.9-14.74,3.21-4.06,5-9.59,6.42-14.71a12.3,12.3,0,0,0-.71-5.26c6.52-5.87,13.19-11.54,19.85-17.18,6.33-5,12.76-10.07,19.51-14.18l2.09-.1a72,72,0,0,0,18.5,1.79c9-.41,22.68-2.36,29.29-11.53a18.42,18.42,0,0,0,3.43-7.88c2.18-13.83-16-24.6-25.29-27.82Z" transform="translate(-54.04 -306)"/><path class="cls-3" d="M1671.71,1346.86c-1.44-4.59-2.88-9.18-4.22-13.79a33.64,33.64,0,0,0-1.35-3.81,12.83,12.83,0,0,0,1.52-1.42,7,7,0,0,0,2.43-3.28,21.82,21.82,0,0,0,1.94-4.76c1.11-3.55,0-8.23-.74-11.6a19.15,19.15,0,0,0-1.66-4c-2.89-6.26-9.75-8.74-15.48-9.64a26.48,26.48,0,0,0-10.63.36c-2.38.65-7.81,2.65-8.42,6.49a36.39,36.39,0,0,0-5.44-.26l-5.93.84a15.46,15.46,0,0,0-8.35,4.79,3.77,3.77,0,0,1-.26.48c-.54,1.23-1.1,2.44-1.65,3.66a9.41,9.41,0,0,0,2.86,7.77c1.65,2.47,4.44,4.46,6.62,6.09a37.86,37.86,0,0,0,5.13,3.25c1.9,1,3.86,1.93,5.88,2.75a46.94,46.94,0,0,1,4.47,5.25,86.72,86.72,0,0,1,5.34,11.84,10.68,10.68,0,0,0,4.47,4.94,22.24,22.24,0,0,0,12.77,3.23c3.32-.16,10.25-1.63,11-6.3a6.22,6.22,0,0,0-.28-2.89Z" transform="translate(-54.04 -306)"/><path class="cls-3" d="M1768,1329.83a56.35,56.35,0,0,0-21.31-7.66c-9.66-1.52-22.28-1.65-31.44,4.21-12.93,8.27-25.67,16.91-38.75,24.8-5.54,3.34-11.15,6.44-16.67,9.79-4.38,2.64-8.71,5.32-13.19,7.67a108.53,108.53,0,0,1-12.25,2.91c-3.09.57-6.61.87-10,1.56a26.43,26.43,0,0,0-5,.85c-3.56,1-8.65,3.06-9.5,8-.62,3.76-2.56,3.69-.42,8.36s5.05,7.2,9,9.67c6,3.8,12.38,5.49,19.21,6.8,7.19,1.39,14.85,1.33,22.23.88,13.33-.8,26.63-3,39.48-7.82a322.45,322.45,0,0,0,40.82-18.68c10.63-5.77,20.82-13,31.12-19.53q7-3.42,9.21-11.79c1.49-9.44-6.72-16.29-12.47-20.05Z" transform="translate(-54.04 -306)"/><path class="cls-3" d="M1742.4,1325.25a47.76,47.76,0,0,0-17.54-2.75c-5.82.26-14.94,1.53-19.17,7.56-2.86,4.06-5.71,8.14-8.58,12.18a77.38,77.38,0,0,1-11.88,13,138.72,138.72,0,0,1-22.3,14q-8.09,4-16.31,7.51a78.16,78.16,0,0,1-8.13,2.08c-3.4.24-6.8.29-10.2.26l-1.07-.42c-.18-.59-.34-1.21-.48-1.85-.18-2.41-.32-4.83-.5-7.25-.27-3.42,1.12-6.84,2.45-10,1.53-3.26,3.09-6.5,4.6-9.78,1.83-3.91,4.47-7.39,6.82-10.84,3.24-4.73-.61-8.91-3.92-11.06a23.33,23.33,0,0,0-8.86-3.19c-3.84-.6-9.41-.79-13,1.76a246.05,246.05,0,0,0-20.19,15.2,99.1,99.1,0,0,0-15.09,15.77c-3.1,4.12-5.27,9.71-7.12,14.66-1.71,4.6-1.25,9-.58,13.7.82,5.51,4.15,10.07,7.36,14,4,4.84,9.26,8.51,14.34,11.71a77.11,77.11,0,0,0,27.9,10.08c6,.87,12.12,1.1,18.2,1.41a68.93,68.93,0,0,0,9.85-.17,135.31,135.31,0,0,0,28-5.31c6.42-2,12.82-4.47,18.45-8.8,3.94-3,7.75-6.35,11.56-9.65,4.74-4.12,9.52-8.19,14.27-12.31,5-4.32,10.07-8.51,14.91-13.06,7.85-7.36,14.16-16.06,20.57-25a12.11,12.11,0,0,0,2.26-5.2c1.43-9.06-10.55-15.94-16.57-18.19Zm-110.93,54.29-1.16-.07,1.16.07Z" transform="translate(-54.04 -306)"/><path class="cls-3" d="M1754.76,1307.65c-3.73,6.25-7.36,12.56-10.77,19-3,5.54-5.6,11.21-8.29,16.88q-8,16.92-16,33.88c-5.42,11.47-10.74,23-16.12,34.48-1.79,3.85-3.49,7.75-5.21,11.64-3.53,8-7,16-10.1,24.11q-4.87,12.61-8.88,25.53c-2.7,8.66-4.92,17.45-6.81,26.32-.47,2.13-.9,4.27-1.33,6.41-.15.79-.32,1.59-.45,2.39-.2,1.22-.38,2.44-.57,3.68q-1,6.42-2,12.85c-.41,2.55-.82,5.12-1.21,7.67-.13.86-.2,1.73-.29,2.6l-.61,5.76q-.63,6.14-1.28,12.26c-.18,1.74-.3,3.48-.39,5.23q-.35,6.36-.71,12.73c-.07,1.18-.13,2.36-.2,3.54,0,.73,0,1.46,0,2.2,0,4.15,0,8.31,0,12.47v2.8c0,1.2.09,2.4.14,3.61.15,3.61.29,7.22.45,10.82,0,.87.12,1.76.18,2.63.17,2.24.32,4.48.49,6.73.08,1.15.17,2.3.25,3.45.09,1.36.3,2.72.44,4.07.33,3,.58,6,1,8.94q.8,5.39,1.58,10.77c.12.84.31,1.66.45,2.49l1.26,6.56c.17.93.31,1.88.53,2.79q.62,2.58,1.24,5.15c.39,1.66.79,3.32,1.2,5,.25,1,.58,2.06.89,3.1.81,2.8,1.59,5.6,2.48,8.38,1,3,1.83,5.93,2.87,8.86,1.17,3.29,2.32,6.59,3.47,9.87.37,1,.79,2.07,1.19,3.1l2.37,6.18c1,2.64,2.12,5.26,3.21,7.88s2.11,5.08,3.18,7.62c1,2.3,2,4.6,2.94,6.9h0c1.83,4.37,3.72,8.72,5.34,13.17,1,2.7,2,5.4,3,8.09.46,1.26.82,2.57,1.22,3.86.49,1.59.93,3.2,1.37,4.81a97.7,97.7,0,0,1,2.18,10.87,87.48,87.48,0,0,1-.19,22c0-.22.06-.44.08-.65a85.25,85.25,0,0,1-2.57,12.05,107.41,107.41,0,0,1-4.09,11.36,148.17,148.17,0,0,1-9.39,18c-1.74,2.88-3.6,5.68-5.55,8.42s-4.12,5.51-6.23,8.23l.06-.08c-3.73,4.82-7.57,9.7-12.34,13.54h0a36.86,36.86,0,0,1-5.9,3.92s0,.08,0,.07a19.05,19.05,0,0,0,2.41-.64c.9-.3,1.77-.64,2.65-1a34.83,34.83,0,0,0,4.46-2.2,36.72,36.72,0,0,0,4.24-3c1.78-1.43,3.47-2.93,5.11-4.51,5.87-5.68,10.62-12.44,14.89-19.35a140.81,140.81,0,0,0,11.35-22.59,99.2,99.2,0,0,0,3.84-11.85,84.62,84.62,0,0,0,2.17-12.76,92.25,92.25,0,0,0,.38-12.66,85.58,85.58,0,0,0-1.74-13.42,116.37,116.37,0,0,0-3.13-11.76c-.53-1.69-1.13-3.34-1.74-5-.73-1.95-1.44-3.91-2.15-5.87-.31-.85-.62-1.68-1-2.52l-4-9.78c-1.47-3.56-3-7.09-4.5-10.63-1.28-3.13-2.58-6.27-3.87-9.4-1.1-2.68-2.09-5.4-3.12-8.11-1-2.55-1.91-5.12-2.81-7.71s-2-5.46-2.83-8.22-1.93-5.8-2.78-8.74c-.53-1.84-1.07-3.69-1.6-5.55-.33-1.14-.71-2.27-1-3.43-.82-3.38-1.62-6.76-2.43-10.14-.19-.83-.33-1.67-.49-2.5-.4-2.19-.82-4.37-1.24-6.56-.86-4.56-1.47-9.16-2.14-13.76-.36-3.29-.71-6.58-1.07-9.86-.29-2.61-.45-5.22-.64-7.83s-.42-5.21-.53-7.81c-.17-4-.33-7.89-.5-11.85-.09-2.22-.07-4.44-.07-6.66,0-3.87,0-7.73,0-11.59,0-.49,0-1,.06-1.46l.27-5.21q.33-6.08.65-12.16c.18-3.25.6-6.48.93-9.71.46-4.48.89-9,1.38-13.45q.92-6,1.85-12.07c.72-4.69,1.34-9.43,2.26-14.09q1.75-9.12,4-18.12c1.56-6.33,3.39-12.57,5.37-18.77,3.8-12,8.21-23.68,13.07-35.24-.08.19-.16.37-.23.55,1.66-3.92,3.36-7.82,5.06-11.73,1.18-2.67,2.33-5.37,3.55-8,1-2.22,2-4.43,3.06-6.64q5.37-11.62,10.73-23.26,7.62-16.51,15.34-33l3-6.54c2.25-4.83,4.53-9.64,6.63-14.55,3.4-8,6.45-16.06,9.35-24.22a0,0,0,0,0,0,0s0,0,0,0Zm-83.49,322.84c0,.12,0,.24,0,.37l0-.37Zm37.21,137.61,0,.2,0-.2Z" transform="translate(-54.04 -306)"/></g><g id="Draw_Layer-5" data-name="Draw Layer" class="cls-5"><path class="cls-3" d="M316.46,1393a15.71,15.71,0,0,0-1.62,8.54c.18,4.86,2.94,8.3,6.43,10.9a18.19,18.19,0,0,0,6.65,3.21c1.78.4,6.08,1,7.49-1.66,2.43-4.46,6.13-7.51,9.9-10.76,4.73-4.07,9.4-8.18,14.23-12.08a115,115,0,0,1,13.95-9,61.16,61.16,0,0,1,13.09-4.67,5.79,5.79,0,0,0,3.54-4.77c.71-4.17-2.35-8.32-4.6-10.83a27.06,27.06,0,0,0-8.15-6.06l-4.34-1.54a11.53,11.53,0,0,0-7.37.27,66.08,66.08,0,0,0-15.48,6c-5.86,3.24-11.39,7.76-16.51,12.27a116.24,116.24,0,0,0-13.51,14.35c-.24.29-.46.58-.68.88a40.1,40.1,0,0,0-3,4.87Z" transform="translate(-54.04 -306)"/><path class="cls-3" d="M282.38,1338.24c-1.3,3.79-1,11.19,0,14.12a55.12,55.12,0,0,0,11.52,20.84c5.57,6.18,12.24,10.71,19.46,14.67a47.37,47.37,0,0,0,16.12,5.48,80.91,80.91,0,0,0,9.68.79q-1.61,3-3.06,6.12a223.18,223.18,0,0,0-10.32,24.84c-3,9.06-6.5,18.55-5.77,27.74.18,2.08.36,4.19.53,6.29,1.19,3.08,2.5,6.08,4,9a44.37,44.37,0,0,0,11.87,12.93c3.4,2.09,6.8,4.15,10.24,6.15,8.49,5,21.42,5.24,31.25-.3,2.19-1.6,4.34-3.27,6.47-5a40.64,40.64,0,0,0,5.1-5.31,51.7,51.7,0,0,0,7.13-11.39,123.65,123.65,0,0,0,8.84-24.52,131.9,131.9,0,0,0,3.93-20.16,28.16,28.16,0,0,0-3.86-17.53,37.15,37.15,0,0,0-6.44-7.64,74.2,74.2,0,0,1,7-7.88c2.14-2.23,2.74-4.22,3.88-7.16,2.78-1.19,6.77-3.7,8.39-5.87,3.37-4.42,5-9.59,6.38-14.79a43.7,43.7,0,0,0,.93-7.48c.54-5.7-.25-11.21-.82-16.68-.5-5-3.4-9.29-5.31-13.63-2.44-3.41-4.91-6.77-7.44-10.09q-4.81-4.71-9.91-9.06a107.09,107.09,0,0,0-14.61-8.55,64.73,64.73,0,0,0-16.07-4.92c-8.94-1.51-17.82-2-27.2-.24a84.63,84.63,0,0,0-24.65,8.46c-8.65,4.57-16.84,11.08-24.12,18a39.53,39.53,0,0,0-4.56,5.14c-3.92,5.28-6.32,11.22-8.53,17.64Zm84.24-22.11c.07.16.14.32.2.48-.06-.16-.13-.32-.2-.48Zm-15.75,37.26a83.34,83.34,0,0,1,7.88-7.84q2.33-1.65,4.69-3.08a47.75,47.75,0,0,0,.11,11.83,14,14,0,0,0,.86,4q-6.69-2.67-13.54-4.89Zm34-17.22h0l.65.4-.67-.4Z" transform="translate(-54.04 -306)"/><path class="cls-3" d="M319.13,1377.66q-1.17,3-2.31,6c.21,3.72.5,7.44.85,11.12q2.16,5.46,4.51,10.82a118.39,118.39,0,0,0,8.32,11.25,40.21,40.21,0,0,0,21.09,12.86l6.79.74a12.16,12.16,0,0,0,9.79-4.42,45.52,45.52,0,0,1,5.07-8.77A100.09,100.09,0,0,0,409,1429.7a84.53,84.53,0,0,0,28.44-.49,131.45,131.45,0,0,0,27.14-8.35,81.65,81.65,0,0,0,20.78-12.23,23.78,23.78,0,0,0,6.24-7.11,27.19,27.19,0,0,0,3.73-13.52c.08-14.7-7.24-27.61-15.85-37.47a101.77,101.77,0,0,0-30.09-23.11,167,167,0,0,0-25.05-10.09c-8.53-2.76-17-3.88-26.24-4.61-4.33-.34-11.81,1.32-15.7,2.63a41.59,41.59,0,0,0-9.56,4.54c-6.24,4-12.08,9.27-14.94,16.27-1.9,4.68-3.19,7.72-3.57,12.33a40.65,40.65,0,0,0,.57,9.56,138.79,138.79,0,0,0-13.89,3.58,45,45,0,0,0-17.54,9.64,9.87,9.87,0,0,0-2.71,2.45,9.5,9.5,0,0,0-1.67,3.94Zm106.19-15.33,0,0v0l0,0v0Zm1.21,1.56,0,0a.68.68,0,0,1,0,.14l0-.06v-.12Z" transform="translate(-54.04 -306)"/><path class="cls-3" d="M293.13,1372.58c-2.74,4-3.79,8-3.17,12.11a22,22,0,0,0,1.94,12.53,35.87,35.87,0,0,0,6.06,12.85,57.32,57.32,0,0,0,10.12,12.8c13.68,13.76,32.54,26,53.64,25.62a47.2,47.2,0,0,0,25.53-7.58,165.82,165.82,0,0,0,15.09-11.8,16.68,16.68,0,0,0,1.44-3c7.91,2.12,16.64,2.76,24.07-.95a18.59,18.59,0,0,0,11.37-15.32q-.47-5.52-.93-11a58.93,58.93,0,0,0-13.86-23.79c-12.37-15.27-29.44-25.28-48.17-31-6.85-2.09-14.2-2.42-21.49-3.09-5.78-.54-14,2-19.4,3.19a69.91,69.91,0,0,0-21.25,8.67c-5.1,3.13-9.82,7.25-14.45,11.21a25,25,0,0,0-3.85,4.13,28.76,28.76,0,0,0-2.69,4.45Z" transform="translate(-54.04 -306)"/><path class="cls-3" d="M325.06,1391.8c-3.19,7.57-5.93,15.35-8.54,23.08-2.47,7.38-3.95,14.86-3.53,22.24a57.61,57.61,0,0,0,1.62,11.62c1.07,4.07,3.07,7.8,4.9,11.46,5.56,11.2,16.48,18.78,26.66,24.81,13,7.69,29.89,10,45.75,8.44a77.46,77.46,0,0,0,21.5-5.14,41.87,41.87,0,0,0,16.75-12.5c4.89-6,7.65-13.76,10.07-20.8s1.8-15.15.82-21.85A59.43,59.43,0,0,0,431,1408c-6.77-9.83-15.3-17.71-24.54-24.79-.15-7.49-5.79-15.9-9.38-19.91a54.13,54.13,0,0,0-16.32-12.11c-6.16-2.88-15.83-6.31-23.43-2.56-7.16,3.54-12.82,8.93-17.49,15.23-6.26,8.43-10.76,18.48-14.75,27.93Zm54.68,29.58a68.25,68.25,0,0,1-1.85,7.32,60.06,60.06,0,0,1-6.27,11.3l.12-.35c2.48-6.17,5.1-12.24,8-18.27Z" transform="translate(-54.04 -306)"/><path class="cls-3" d="M290.46,1378.23c-3.28,5.94-2.89,11.79-1.91,17.65a21.33,21.33,0,0,0,1.47,4.43,53.17,53.17,0,0,0,4.3,8.84,58.89,58.89,0,0,0,12.33,14,65.47,65.47,0,0,0,12.77,8.22c5.78,3,12.13,4.17,18.79,4.64,4,.29,8.65-.85,12.69-1.84a77.3,77.3,0,0,0,7.57-2.18c3.72-1.33,7.37-2.82,11-4.39,3.83-1.63,2.47-6.19,1.2-8.45-2.46-4.43-8.17-8.69-13.64-8.33-9.55.65-19.37,1.42-28.77.91l-1.24-.25q-.8-.37-1.56-.78l-.15-.11-.5-.55q-.48-.81-.93-1.65c-.25-.84-.48-1.69-.67-2.56a19.37,19.37,0,0,1,.34-2.66c2.86-5.19,7.28-9.6,11.81-13.4a51.6,51.6,0,0,1,15.88-7.34,105.68,105.68,0,0,1,24.35-1.11,120.21,120.21,0,0,1,19.44,5.17,14.42,14.42,0,0,0,9-.34c4.24-2.12,4.85-6.11,4-10a22.36,22.36,0,0,0-5.27-9.07c-4.2-4.66-9.36-7.3-15.27-9.28-4.41-1.5-8.86-2.91-13.37-4.19-5.36-1.5-11.15-1.88-16.76-2.47a99.81,99.81,0,0,0-31.39,1.64,55.49,55.49,0,0,0-14,5c-4.52,2.32-8.75,6.1-12.61,9.51a43.87,43.87,0,0,0-6.08,6.62,39.68,39.68,0,0,0-2.86,4.42Zm39.28,33.69,1.12.13-1.12-.13Z" transform="translate(-54.04 -306)"/><path class="cls-3" d="M262.23,1354.4a69.83,69.83,0,0,0-5.73,17.88,42.08,42.08,0,0,0-.16,11.42,95.44,95.44,0,0,0,2.34,16.23c1.32,5.4,3.67,10.39,5.84,15.32,2.47,5.6,5.32,9.07,9.16,14.19,13.39,17.92,34.93,29.26,57,33.73,13.16,2.69,27.72,2.2,40.49-6.75a56.24,56.24,0,0,0,10.52-8.88c3.19-3.7,5.32-7.79,7.74-12,4.14-7.27-.79-14.61-4.89-19.15a37.43,37.43,0,0,0-11.37-8.44c-4.24-2-11.09-4.46-16.34-1.79a39,39,0,0,1-7.68,3c-6,1.15-12,2.22-17.95,3.49l6.44-1.36a133.07,133.07,0,0,1-14.72,2.35c-.05-.31-.11-.63-.16-.95a55.7,55.7,0,0,1,2-12.61,45.22,45.22,0,0,1,10-13.08,87.56,87.56,0,0,1,24.93-12.08,88.72,88.72,0,0,1,12.63-.84l1,.51,1.19.78a51.8,51.8,0,0,0,18.46,8.91c6.06,1.32,15.66,2.28,20.79-4.63q4-6.67,1.76-13.38c-2.11-9.26-9.92-18.18-17.21-23s-14.79-9.8-22.82-13.64c-12.56-6-26.08-8.82-40.53-9.23-15.49-.44-32.18,3.63-47.22,10.58-7.21,3.34-14.13,8.81-19.87,14.67a20.19,20.19,0,0,0-1.81,2.13,47.93,47.93,0,0,0-3.87,6.62Zm61.71,64.09.69.62-.68-.58v0Zm1,2.64.61.83c-.21-.27-.41-.55-.61-.83Z" transform="translate(-54.04 -306)"/><path class="cls-3" d="M306.51,1312.06a67.37,67.37,0,0,0-4.73,13.63c-1.71,7.65-3,15.13-2.93,22.76.08,6.67.95,13.31,1.68,19.83.5,4.61,1.18,9.14,2.05,13.64,3,15.56,11.21,28.73,20.64,40,4.39,5.26,10,9.56,15.37,13.68A90.87,90.87,0,0,0,360.91,1448a182.75,182.75,0,0,0,28.21,7.91,23.38,23.38,0,0,0,14.66-.56c6.9-3.44,7.9-9.95,6.46-16.29a36.29,36.29,0,0,0-8.58-14.71c-.88-1-1.81-1.93-2.78-2.85,1.12-.27,2.23-.55,3.35-.85,5-1.37,9.62-5.75,13.49-9.42a31.93,31.93,0,0,0,4-6.17c.46-1.19.91-2.35,1.37-3.51a53.13,53.13,0,0,0,3-8.76c1.5-5.24,1.45-10.87,1.43-16.06a49,49,0,0,0-5-21.9c-2.41-5-5.77-9.5-8.94-14-6.33-8.87-12.88-17.18-20.75-24.52A189.31,189.31,0,0,0,376,1303.62a75.81,75.81,0,0,0-14.95-8.75c-6.62-3-13.07-3.94-20.51-4.49A35.85,35.85,0,0,0,328.2,1292c-5.95,1.81-11.24,6.15-15.78,10.82a22.9,22.9,0,0,0-2,2.33,40,40,0,0,0-3.94,6.87Zm53.39,15.1c.64-.31,1.27-.58,1.92-.82l.51.4c2.81,2.78,5.49,5.66,8.09,8.68a111.88,111.88,0,0,1,6.43,11.31c.35,1.06.66,2.12.91,3.23a61.36,61.36,0,0,1-3,16.73,42.3,42.3,0,0,1-8.23,12.13,61.76,61.76,0,0,1-12.6,4.81c-1.63-5.85-3-11.8-4.15-17.76a120.71,120.71,0,0,1,.83-15,76.66,76.66,0,0,1,2.52-13.72,42.05,42.05,0,0,1,6.77-10Z" transform="translate(-54.04 -306)"/><path class="cls-3" d="M282.77,1298.36a89.55,89.55,0,0,0-7,20.51,42,42,0,0,0-.57,11.6,81.37,81.37,0,0,0,3.05,19,116.41,116.41,0,0,0,11.89,26.06,287.91,287.91,0,0,0,20.25,28.93,197.26,197.26,0,0,0,20.69,23.23c6.2,5.85,12.44,11.56,19.49,16.34a109,109,0,0,0,32.7,15.24c7.68,2.23,20.45,2.67,28.14-3.24a12.57,12.57,0,0,0,7.92-7.51,78.12,78.12,0,0,0,4.39-12.43,34,34,0,0,0-3.08-16.26,36,36,0,0,0,9.35-10.11c6.89-11.32,4.94-25,3.93-36.42-2-23-10.8-43.82-23.29-61.29-8.54-11.91-18-22.93-30.27-30.86a97.39,97.39,0,0,0-22.08-10.78c-7.61-2.68-15.67-3.62-24-3.76-6.11-.12-12.86,2-19,3.61-7,1.85-13.92,6.3-19.63,11.33a52.59,52.59,0,0,0-7.63,8.21,58.83,58.83,0,0,0-5.26,8.65ZM348,1318.83a48,48,0,0,1,11.88-5.28c.73-.07,1.45-.12,2.18-.15.5.56,1,1.14,1.48,1.72a125.84,125.84,0,0,1,8.63,14.77,88.81,88.81,0,0,1,4.12,16.83,68.6,68.6,0,0,1-2.08,18,34.13,34.13,0,0,1-5.52,7.09,94,94,0,0,1-10.53,5.26,17.27,17.27,0,0,0-1.87,1c-4.75-5.1-9.34-10.35-13.71-15.75-1.68-2.53-3.26-5.13-4.71-7.85a51.48,51.48,0,0,1-1.46-6,68.55,68.55,0,0,1,3-17.38,46.45,46.45,0,0,1,8.61-12.31Zm10-6.21c1.05.07,2.07.19,3.08.34l-3.08-.34Z" transform="translate(-54.04 -306)"/><path class="cls-3" d="M351.4,1395.08c-3.9,9.55-7.55,19.23-10.66,29.07-1.82,5.79-3.57,11.62-5.33,17.44l-3.62,12q-2.91,9.54-5.78,19.07c-.79,2.59-1.51,5.21-2.25,7.83-3.1,11.17-6.28,22.3-9.33,33.49-.24.89-.4,1.82-.59,2.72-.57,2.56-1.12,5.13-1.69,7.69l-4.67,21.39q-1.56,7.15-3.13,14.33c-.23,1-.4,2.05-.58,3.07q-1,5.68-2,11.39-1.86,11-3.38,22c-1,7.28-1.83,14.57-2.42,21.89s-.92,15-1.1,22.45c-.06,1.9-.15,3.81-.1,5.7,0,.86,0,1.72.05,2.59.07,3.21.15,6.43.22,9.65.13,5.78.26,11.55.38,17.34,0,1.26.22,2.55.34,3.82l.95,10.37c.28,3.18.58,6.38.87,9.57.11,1.27.24,2.52.45,3.78q1.51,9,3.05,18c.26,1.48.66,2.93,1,4.4.83,3.49,1.64,7,2.47,10.46.35,1.48.65,3,1.07,4.44.84,3,1.67,6,2.51,8.93.76,2.67,1.51,5.35,2.27,8,.1.37.22.73.35,1.11.47,1.4.94,2.8,1.4,4.2,1.06,3.21,2.13,6.43,3.2,9.63.48,1.46,1,2.89,1.58,4.31q1.83,4.85,3.68,9.68c.61,1.59,1.25,3.15,1.93,4.71l4.11,9.47c.69,1.58,1.45,3.1,2.22,4.65,1.26,2.56,2.54,5.13,3.82,7.69a126.28,126.28,0,0,0,6.31,11.16,94.11,94.11,0,0,0,10.08,13.59,47.22,47.22,0,0,0,6.38,5.94,34.15,34.15,0,0,0,3.38,2.31,41.12,41.12,0,0,0,4.49,2.28,66.86,66.86,0,0,0,7.64,2.87,55,55,0,0,0,8.79,1.89,71.14,71.14,0,0,0,9.34.64,44.22,44.22,0,0,0,9-1.06,47.27,47.27,0,0,0,8.46-2.84,48.64,48.64,0,0,0,7.88-4.24,82,82,0,0,0,6.79-5.26l3.13-2.62c1.31-1.1,2.55-2.29,3.81-3.45,0,0,0-.08-.05-.06-1.56.77-3.1,1.58-4.66,2.36s-3,1.46-4.45,2.21c-2.8,1.44-5.57,2.89-8.45,4.14s-5.54,2.09-8.35,3a58.71,58.71,0,0,1-8.46,2.09,55.34,55.34,0,0,1-13.24-.18,56.82,56.82,0,0,1-7.29-1.51,64.4,64.4,0,0,1-7-2.48l.1,0c-1.37-.59-2.71-1.23-4-2a29,29,0,0,1-3.76-2.42,57.85,57.85,0,0,1-9.26-9.57c-2.22-2.92-4.26-6-6.21-9.06-1.1-1.74-2.12-3.51-3.13-5.3-.76-1.32-1.52-2.64-2.2-4-1.63-3.26-3.27-6.53-4.88-9.79-.36-.73-.77-1.44-1.09-2.18-.56-1.28-1.11-2.57-1.67-3.84-1.28-2.92-2.54-5.85-3.83-8.77-1.85-4.78-3.66-9.57-5.49-14.36-.18-.46-.31-1-.47-1.42l-1.53-4.55-3.09-9.29c-.48-1.4-.86-2.83-1.26-4.27-1-3.44-1.95-6.89-2.93-10.32-.43-1.54-.92-3.06-1.28-4.61l-2.07-8.74c-.65-2.77-1.32-5.54-2-8.31-.32-1.34-.51-2.72-.74-4.07q-1.33-7.86-2.69-15.71c-.52-5.29-1-10.59-1.48-15.89-.25-2.84-.51-5.66-.79-8.5-.09-.94-.11-1.88-.13-2.84q-.24-10-.49-20c0-2.51-.11-5-.18-7.51,0-1.13,0-2.27,0-3.4.07-3.89.17-7.79.33-11.67q.35-9,1.15-17.94c.56-6.2,1.3-12.38,2.13-18.56,0,.22-.06.42-.08.63,1-7.35,2.13-14.68,3.37-22,.58-3.51,1.2-7,1.83-10.52q.19-1.2.45-2.4,1.59-7.51,3.17-15,2.28-10.68,4.53-21.33c.52-2.46,1-4.93,1.57-7.38.17-.8.31-1.6.51-2.38,1.21-4.64,2.5-9.25,3.75-13.87l5.46-20.23c2.46-9.11,5.2-18.13,7.85-27.19q1.65-5.65,3.32-11.29c1.75-5.91,3.51-11.8,5.21-17.73,2.79-9.79,5-19.72,7.29-29.63,0,0,0,0,0,0s0,0,0,0Zm6.68,444.55.23.18-.23-.18Z" transform="translate(-54.04 -306)"/></g><g id="Draw_Layer-8" data-name="Draw Layer"><path class="cls-7" d="M1975.19,1376.81c-20.5,45.45-44.61,88.78-63.28,135.17-4.31,10.62-8.28,21.34-12,32.14-12.88,37.38-21,74.4-25.94,113.58-8.6,67.87-6.38,137.17,8.21,204.06,0,.08.15.11.18,0,50-48.36,87.28-105.37,112.45-170.18,19.88-51.18,20.46-108.51,13.39-162.27a992.26,992.26,0,0,0-32.79-152.54s-.05-.06-.1-.06a.13.13,0,0,0-.12.06Z" transform="translate(-54.04 -306)"/><path class="cls-7" d="M1877.57,1595.37c6.6,29.8,10.54,60.18,16.34,90.12,6.06,31.19,12,62.59,22,92.79,6.13,18.42,13.13,36.91,21.08,54.64,8.34,18.59,18.1,36.5,26.44,55.09a131.62,131.62,0,0,1,7.25,26c.06,1,.13,2.09.19,3.14a.13.13,0,0,0,.22.07c25-27.53,23.27-73,20.83-107.56a252.26,252.26,0,0,0-47.23-130.06c-20.94-29.14-43.48-57.19-66.89-84.36a.13.13,0,0,0-.08,0,.11.11,0,0,0-.11.14Zm93,318.3v0Z" transform="translate(-54.04 -306)"/><path class="cls-7" d="M1824.76,1568.85c-14.3,33.6-27.1,67.81-36.48,103.11a275.21,275.21,0,0,0-8.31,45.41c-2.37,25.42.36,50.44,5.54,75.36,3.94,19.14,12.62,39.42,24.73,54.85,9.49,12.11,18.27,17.4,33.74,18.53a.1.1,0,0,0,.07-.18l-2.59-3.14.19.25a38.44,38.44,0,0,1-6.16-9.16c-.36-1.66-.72-3.32-1.1-5-3.34-37.57,6.7-76.25,9.12-113.68,1.64-26-.51-52.23-3.72-78.09-3.69-29.65-10-58.79-14.81-88.26a.14.14,0,0,0-.13-.09.11.11,0,0,0-.09,0Zm10,283.51.21.48-.21-.48Z" transform="translate(-54.04 -306)"/><path class="cls-7" d="M1704.63,1672.47c3.94,20.09,7.73,40.15,13,59.92,11.49,43.33,32.68,84.66,58.14,121.38a.13.13,0,0,0,.22-.07c1.31-27.43-.36-54.38-8-80.86-4.89-17.07-13.46-32.5-22.87-47.41-11.86-18.79-25.75-36.3-40.31-53.07a.05.05,0,0,0,0,0c-.08,0-.16.08-.13.14Z" transform="translate(-54.04 -306)"/><path class="cls-7" d="M1651.87,1738.94a120.45,120.45,0,0,0,9.41,70.86,242.93,242.93,0,0,0,29.76,49.83c11.6,15,25.79,28.15,40.08,40.55a.12.12,0,0,0,.19-.14c-11.46-21.41-23.49-42.57-34.91-64-11.72-22.13-25.49-43.44-35.48-66.41a243.47,243.47,0,0,1-8.83-30.68.15.15,0,0,0-.14-.1s-.08,0-.08.1Z" transform="translate(-54.04 -306)"/><path class="cls-7" d="M1593.74,1744.29a343.71,343.71,0,0,0-11.74,39.1c-3.07,13.43-4.42,27.4-5.51,41.11,0,.11.22.14.26,0a342.71,342.71,0,0,0,11.34-39.43c2.88-13.38,4.45-27.13,5.87-40.74,0-.06,0-.1-.11-.1a.11.11,0,0,0-.11.06Z" transform="translate(-54.04 -306)"/><path class="cls-7" d="M1477.55,1743.47c-2.59,13.35-4.53,26.8-4.78,40.45s1.86,27.31,4.38,40.59c0,.11.18.11.21,0,2.52-13.38,4.38-27,4.45-40.59s-1.86-27.14-4-40.45c0-.06-.06-.08-.11-.08s-.11,0-.11.08Z" transform="translate(-54.04 -306)"/><path class="cls-7" d="M1586.68,1725.14c-1.9,31-1.64,62.07,5.14,92.46s24.15,59.08,44.79,82.1a.11.11,0,0,0,.18-.08c.44-30.74-1.42-62-9.37-91.84-7.84-29.47-24.4-57.11-40.52-82.68a.14.14,0,0,0-.12-.07.1.1,0,0,0-.1.11Z" transform="translate(-54.04 -306)"/><path class="cls-7" d="M1239.47,1062.64c-14.73,41.65-28,83.89-41.94,125.83-14.3,43.26-28.38,86.51-41.76,130.1q-10.45,34-20.32,68.24c-6.75,23.49-11.6,47.71-16.63,71.6-7,33.37-11.71,67.18-15.39,101.1-7,64-4.71,128.68.69,192.76,5.32,63.47,14.62,126.35,26.52,188.9,0,.11.21.11.21,0,27.1-122.15,44-245.9,61-369.69,11.16-81.23,19.66-162.75,26.84-244.41,3.83-43.26,6.93-86.55,10-129.85s5-86.7,10.38-129.63a.05.05,0,0,1,0,0c.25-1.64.47-3.28.69-4.92a.11.11,0,0,0-.1-.15.12.12,0,0,0-.12.08Zm-.45,4.95a.41.41,0,0,0,0-.1.34.34,0,0,1,0,.1Z" transform="translate(-54.04 -306)"/><path class="cls-7" d="M965.41,1312.28c24.77,102.38,43.77,206.33,74.77,307.18,14.37,46.76,31.55,92,53.43,135.79,12.26,24.47,25.64,48.36,39.83,71.78,15,24.66,33.34,47.85,51,70.58,12.25,15.75,25.2,30.85,38.55,45.73.07.08.22,0,.22-.07-5.76-55-14.37-109.38-25.5-163.51-6.49-31.69-14.62-63-24.14-94-8-25.94-18.71-51.1-29.36-76-17.8-41.87-41.51-81.26-65-120.11-27.75-45.92-57.11-90.78-86.55-135.64q-13.62-20.85-27.06-41.84a.14.14,0,0,0-.1-.05.12.12,0,0,0-.12.16Z" transform="translate(-54.04 -306)"/><path class="cls-7" d="M1330.39,1441.91c-2,25.68-4.63,51.32-7.11,76.92-2.38,24.66-4.56,49.31-6.71,74q-2.41,27.3-4.56,54.63-.88,11.33-1.72,22.62c-.18,2.91-.25,5.91-.62,8.79-1.13,9.26-1.71,18.63-2.52,27.9q-2.46,27.73-4.7,55.47c-1.17,14.89-2.37,29.8-3.47,44.72-1.67,22.4-3.86,44.72-5.72,67,0,.14.22.18.22,0,3.24-22.13,6.6-44.31,9.37-66.52q2.69-22.11,5.25-44.14,4.94-42.23,9.38-84.43c1-10.1,1.6-20.28,2.33-30.42q2-27.4,3.65-54.82,2.3-37,4.16-74c1.27-25.9,2.62-51.83,3-77.76a.11.11,0,0,0-.11-.11.1.1,0,0,0-.11.11Z" transform="translate(-54.04 -306)"/><path class="cls-7" d="M1358.08,1057.88c-2.49,26.75-6.13,53.38-9.7,79.95.06-.45.11-.91.17-1.36-12.65,94.07-25,188.07-32.78,282.68a1360.37,1360.37,0,0,0-2.34,187.33c2.88,51.35,5.77,102.49,11.78,153.59,6.53,55.11,15.32,110.11,25.94,164.53a.11.11,0,0,0,.22,0,1583.35,1583.35,0,0,0,47.7-204c7.48-45.37,14.19-91.07,16.23-137.06,2.7-61.28.59-122.22-4.81-183.32-2.12-23.67-5.8-47.3-9-70.86-4-30-8.58-60-13.21-89.91-9.41-60.62-20.57-121-30-181.53a.11.11,0,0,0-.12-.09.14.14,0,0,0-.13.09Zm-9.53,78.59.12-.86-.12.86Z" transform="translate(-54.04 -306)"/><path class="cls-7" d="M1526.88,1612.27c-29.21,45-53.94,93.23-74.66,142.65-9.23,22-15.32,45-21,68.13-9.08,36.62-15,73.68-19,111.17,0,.11.18.15.22.08,30-52.93,56.28-108.08,75.61-165.81,17.07-51.1,26.3-104,39-156.14a.1.1,0,0,0-.09-.13.11.11,0,0,0-.1,0Z" transform="translate(-54.04 -306)"/><path class="cls-7" d="M1157.48,1422.35c4.89,80.64,8.58,161,22.11,240.76,5.87,34.68,15.1,68.75,25.42,102.34,16.41,53.54,37.2,105.7,60.65,156.54a.12.12,0,0,0,.22-.07,1179.14,1179.14,0,0,0-7.88-163.66c-4.34-36.07-9.84-72-19-107.19-20.32-78.45-51.06-153.74-81.34-228.76a.11.11,0,0,0-.11-.08.11.11,0,0,0-.11.12Z" transform="translate(-54.04 -306)"/><path class="cls-7" d="M981.41,1722.9c-4.64,27.65-8.46,55.59-8.65,83.63-.18,37.17,7,74.41,16.53,110.15,0,.11.18.15.21,0,5.88-36.29,9.27-73.42,5.55-110.15-2.85-28.08-8.68-55.8-13.42-83.63a.09.09,0,0,0-.1-.08.13.13,0,0,0-.12.08Z" transform="translate(-54.04 -306)"/><path class="cls-7" d="M772.1,1687.38c6,27.37,11,54.92,16.38,82.44a644.15,644.15,0,0,0,13.75,71.29c6.82,26.81,13,53.69,20.57,80.35,0,.15.22.11.25,0a593.65,593.65,0,0,0,3.83-73.75c-.07-8.94-1.6-18-2.7-26.88s-2.15-17.91-4.3-26.59c-4.85-19.81-11.49-38.15-19.55-56.87-7.44-17.36-18-34.1-28-50.07a.11.11,0,0,0-.1,0,.12.12,0,0,0-.12.16Z" transform="translate(-54.04 -306)"/><path class="cls-7" d="M810.6,1745.65a457.08,457.08,0,0,0-36.37,30.06,148.83,148.83,0,0,0-27,32.5c-4.92,8.17-7.7,17.8-10.47,26.91a.12.12,0,0,0,.22.08c1-1.32,2-2.67,3.06-4l0,0c2.39-3.1,4.79-6.27,7.15-9.48l-.34.41c13.38-16.67,29.21-31.12,42.6-47.86,7.4-9.26,14.41-18.82,21.26-28.48.06-.09,0-.21-.08-.21l-.06,0Zm-63.38,76.12.13-.18-.13.18Z" transform="translate(-54.04 -306)"/><path class="cls-7" d="M885.39,1666.12c-1.53,29.68-1,59,3.1,88.41,5,36.07,20.71,71.56,37.57,103.51,0,.11.21,0,.21-.08,2-37,.7-75.31-9.41-111.24-7.8-27.79-19.47-54.38-31.25-80.68a.11.11,0,0,0-.1,0,.12.12,0,0,0-.12.13Z" transform="translate(-54.04 -306)"/><path class="cls-7" d="M746.08,1772.81c4.15,32.94,29.5,56.39,55.54,74.12.11.07.19-.08.15-.19A218.73,218.73,0,0,0,779,1809.65c-9.41-12.07-21.19-22-30.56-34.07l.07.08c-.73-1-1.5-1.91-2.23-2.89a.14.14,0,0,0-.11-.06.09.09,0,0,0-.1.1Zm2.55,3a.49.49,0,0,0-.11-.14,1.71,1.71,0,0,1,.11.14Z" transform="translate(-54.04 -306)"/><path class="cls-7" d="M684.68,1705.4c-21.34,19.11-43.92,41-53.95,68.27-7.69,21-.91,47.27,9.49,66,8.2,14.77,24.76,23.31,40.3,28,.07,0,.18-.08.11-.19a173.82,173.82,0,0,1-16-26,99.64,99.64,0,0,1-3.5-14c-1.31-15.73-.54-31.18,1.11-46.87,2.86-14.92,8.73-29,13.24-43.45,3.32-10.54,6.31-21.15,9.34-31.77,0-.08,0-.13-.11-.13s0,0-.07,0Z" transform="translate(-54.04 -306)"/><path class="cls-7" d="M459.64,1695.09c-9.77,22.8-19.25,45.63-28,68.87-9.56,25.53-16.27,52.41-23.93,78.56a.1.1,0,0,0,.18.07,304.89,304.89,0,0,0,34-66.89c9.38-25.79,14-53.47,18-80.5a.16.16,0,0,0-.14-.15.1.1,0,0,0-.08,0Z" transform="translate(-54.04 -306)"/><path class="cls-7" d="M369,1670.49c-7.11.69-14.55,1-21.26,3.46-7.26,2.7-12.08,11.38-14.48,18.2-10,28.31-3.21,56.32,11.89,81.38,15.5,25.71,36.36,49,57.44,70.13a.11.11,0,0,0,.18-.14c-7.36-14.63-14.15-29.47-21.11-44.28-8.63-18.28-18-36.14-26.39-54.5a160.43,160.43,0,0,1-8.3-28.4,109.89,109.89,0,0,1-.4-22.36c-.07.58-.18,1.2-.26,1.79a39.25,39.25,0,0,1,3.44-13,19.92,19.92,0,0,1,4.84-4.59c-.22.15-.43.33-.65.51,5-2.7,10.06-5.36,15.1-8,.1-.07.07-.23,0-.23Z" transform="translate(-54.04 -306)"/><path class="cls-7" d="M526.86,1604.44c-17.59,39.64-31.92,80.31-44.14,121.89-10.06,34.25-17.8,68.93-25.71,103.73-7.77,34.25-11.89,69.7-22,103.33a.14.14,0,0,0,.22.14c21.44-26.07,39-55.69,55.62-85,17.83-31.37,31.07-65.36,36.76-101,7.52-47.31,5.18-95.67-.51-143a.13.13,0,0,0-.12-.13.11.11,0,0,0-.09.06Z" transform="translate(-54.04 -306)"/><path class="cls-7" d="M608.2,1672c-38.63,33.3-75.47,68.31-109.75,106.06-30.38,33.45-56.68,70.36-87.17,103.62-.07.11,0,.26.14.19,36.88-25.83,71.13-56.1,103.22-87.61,14.37-14.08,26.92-30,39.43-45.74,19.48-24.55,37.31-50,54.31-76.38a.11.11,0,0,0-.11-.17.09.09,0,0,0-.07,0Z" transform="translate(-54.04 -306)"/><path class="cls-7" d="M369.58,1675.32c-9.12,26.59-19.44,52.78-26.48,80-7.27,28.1-9,58.29-19.4,85.43-1.12,2.34-2.24,4.72-3.36,7.1a.13.13,0,0,0,.19.15c14-13.13,24-29.47,31.22-47.16,4.81-11.78,9.59-23.63,12.36-36a279.37,279.37,0,0,0,5.69-89.46.11.11,0,0,0-.12-.11.1.1,0,0,0-.1.07Zm-46,165.64,0,.09,0-.09Z" transform="translate(-54.04 -306)"/><path class="cls-7" d="M258,1763.29c-20.82,9.84-40.66,22.94-59.41,36.22-.11.07-.07.21,0,.21,23.63-2,46.76-5,69-13.71,24.11-9.52,45.22-27,63.9-44.61.11-.07,0-.18-.11-.18-25.57,4.12-49.93,11-73.39,22.07Z" transform="translate(-54.04 -306)"/><path class="cls-7" d="M322.55,1658c-7.15.62-14.15,4.82-20.31,8.17-9.27,5-17.55,12.22-25.79,18.75-8.75,7-16.7,15-25,22.47-15.18,13.64-29.51,28.15-44.54,41.94-16.41,15.06-32.46,30.57-48.83,45.7-15.07,13.94-29.95,28-45.38,41.55-.11.1,0,.25.15.18,31-16.82,61.93-35.09,90-56.57q13.58-10.4,26.85-21.23c5.29-4.34,9.92-9.59,14.66-14.52,7.22-7.47,14.3-15.17,21.23-22.9,15.91-17.69,29.6-37.06,47.54-52.84a57.33,57.33,0,0,1,10.23-6.4c5.11-1.79,10.22-3.41,15.39-5,.11,0,.11-.25,0-.25-5.4.22-10.8.51-16.2,1Z" transform="translate(-54.04 -306)"/><path class="cls-7" d="M128.84,1685.53a170,170,0,0,0,6.71,51.72c8.14,27.32,34.8,39.36,60.29,45.81a.13.13,0,0,0,.11-.21c-8.47-8.8-16.85-17.86-24.53-27.36-10.21-13.8-16.7-29.78-25.4-44.53-5.21-8.79-10.9-17.26-17-25.5a.16.16,0,0,0-.11,0,.11.11,0,0,0-.11.12Z" transform="translate(-54.04 -306)"/><path class="cls-7" d="M164.16,1524c-18.16,45.85-34.83,92.57-47.45,140.24-14.95,56.5-6.93,118.9,19.3,170.77,3.68,7.33,9.81,16.08,17,20.28,8.79,5.07,17.76,6.78,27.72,7.91,15.83,1.79,31.66-4.48,46.43-9.33.11,0,.11-.22,0-.22-12.08-2-23.95-3.63-35.68-7.29a101.26,101.26,0,0,1-15.17-8.61,31.42,31.42,0,0,1-3.63-3.76s0-.08,0-.13c.26.34.53.67.8,1q-.56-1-1.11-2a135.93,135.93,0,0,1-4.11-17.55c-4.58-39.21-5-78.71-7.33-118.12-1.64-27.21,1.64-54.89,2.52-82.17,1-30.31.65-60.66.94-91a.11.11,0,0,0-.1-.12.13.13,0,0,0-.12.08Zm7,307.87,1.31,1.69c0,.06.05.12.07.19-.48-.61-.94-1.23-1.38-1.88Z" transform="translate(-54.04 -306)"/></g><g id="Draw_Layer-9" data-name="Draw Layer"><path class="cls-3" d="M655.89,1810.57c-14.37,12.13-29,24-42.62,37-14.6,13.87-28,29.14-41.1,44.44-.08.08,0,.27.15.19,16.43-10.15,32.43-21.46,46.18-35,14.15-14,26.5-30,37.59-46.41.06-.09-.05-.18-.13-.18a.08.08,0,0,0-.07,0Z" transform="translate(-54.04 -306)"/><path class="cls-3" d="M504,1778.53c6.55,18.6,12.94,37.27,20,55.71,7.75,20.27,16.23,40.26,25,60.09a.13.13,0,0,0,.23-.11c-6.35-20.57-13-41.15-20.88-61.18q-11-27.72-24.06-54.62a.11.11,0,0,0-.1-.06.13.13,0,0,0-.13.17Z" transform="translate(-54.04 -306)"/><path class="cls-3" d="M451.54,1828.13a7.21,7.21,0,1,0,7.21-7.21,7.3,7.3,0,0,0-7.21,7.21Z" transform="translate(-54.04 -306)"/><path class="cls-3" d="M1231.28,1762.43C1215,1776,1198,1790.9,1186,1808.34c-14,20.34-31.58,60.36.65,73.3.08,0,.2-.08.12-.2-.62-1-1.28-2-1.9-3,0,.12.08.2.12.31a34.6,34.6,0,0,1-3.55-12,38.24,38.24,0,0,1,2.55-10.17c7.75-17.13,19.12-32.46,27.85-49.17,4.26-8.18,7.86-16.74,11.39-25.26-.16.42-.35.81-.51,1.24,1.83-4.3,3.65-8.61,5.39-12.94a4.37,4.37,0,0,1-.19.54c1.16-2.79,2.36-5.62,3.56-8.41a.13.13,0,0,0-.12-.18.11.11,0,0,0-.07,0Zm-46.53,92.36c-.25.59-.5,1.19-.77,1.78.24-.59.5-1.19.77-1.78Z" transform="translate(-54.04 -306)"/><path class="cls-3" d="M1397,1738.79a398.28,398.28,0,0,0-16.28,44.86c-6.27,20.73-9.61,40.76-9.18,62.42.31,15.92,7.79,31.49,16.54,44.36a.14.14,0,0,0,.24-.12,184.42,184.42,0,0,1-4.19-21.13,143.42,143.42,0,0,1,.8-32.47c3.09-20,6.16-40,8.35-60.15,1.35-12.55,2.36-25.14,4-37.7a.15.15,0,0,0-.15-.13.08.08,0,0,0-.08.06Zm-12.08,98c-.07.53-.14,1.07-.24,1.59l.24-1.59Z" transform="translate(-54.04 -306)"/><path class="cls-3" d="M1528,1730.25c-9.3,15.46-17.94,31.27-26.34,47.23-2.29,4.34-4.54,8.68-6.78,13.06-1.28,2.44-2.33,5-3.45,7.47-4.69,10.31-9.34,20.61-13.56,31.11,0,.16.19.24.23.12,4.61-10.31,9.53-20.42,14.37-30.61,1.2-2.48,2.29-5,3.57-7.4,2.28-4.34,4.61-8.67,6.86-13,8.36-16,16.62-32,25.29-47.85a.12.12,0,0,0-.09-.19.13.13,0,0,0-.1.07Z" transform="translate(-54.04 -306)"/><path class="cls-3" d="M945.44,1654.13a1014.52,1014.52,0,0,0,5.07,102.36c1.59,15.88,3.57,31.73,5.78,47.5,3.41,24.52,8.13,48.81,11.62,73.3v0a101.44,101.44,0,0,1,0,23c-2.91,14.49-7.21,28.77-11,43.06,0,.16.19.2.23,0,3.84-12.63,7.55-25.34,11.7-37.93a131.94,131.94,0,0,0,4.26-16.85c1.09-5.77.74-12,.74-17.9,0-7.21-.12-14.45-.51-21.62-1-21.15-1.89-42.38-4.22-63.42-4.88-44.24-12-88.53-23.44-131.57a.13.13,0,0,0-.12-.08.11.11,0,0,0-.11.12Z" transform="translate(-54.04 -306)"/><path class="cls-3" d="M1828.86,1428.55c-21.65,46-42.92,92.17-63.26,138.74-23,52.73-44.17,106.12-63.85,160.2q-20.34,55.8-38.94,112.17a.13.13,0,0,0,.23.11c26.35-55,51.63-110.49,75.35-166.67l-.15.39c33.86-80.24,62.81-162.41,90.86-244.82a.14.14,0,0,0-.13-.17.16.16,0,0,0-.11,0Z" transform="translate(-54.04 -306)"/><path class="cls-3" d="M1801.26,1524.34c12.78,35.8,21.85,73,33.08,109.29,10.58,34.25,21.7,68.34,33.05,102.32,16.62,49.75,33.4,99.14,54.16,147.34a.13.13,0,0,0,.23-.08c-.73-52.84-4.37-106.12-16.58-157.68-8.25-34.87-24.29-67.76-41.45-99-19.18-34.91-39.44-69.7-62.26-102.32a.13.13,0,0,0-.23.12Z" transform="translate(-54.04 -306)"/><path class="cls-3" d="M1720.85,1843.86c-2.21,12.13,1.55,22.74,11.74,29.87,4.76,3.33,11.12,4.73,16.62,6.16,4.61,1.2,9.22,2.37,13.87,3.45.15,0,.19-.19,0-.23-6.59-2.52-13.21-4.88-19.79-7.36a52,52,0,0,1-10.92-6.07l.06.06-.07-.07-.28-.2.24.17a39.58,39.58,0,0,1-4.87-5.08,56.13,56.13,0,0,1-3.32-5.8,51.34,51.34,0,0,1-2.78-9.51.07.07,0,0,1,0,.06c-.19-1.79-.3-3.62-.34-5.41a.13.13,0,0,0-.12-.14s-.09,0-.11.1Zm3.37,15a.36.36,0,0,1,0,.09.36.36,0,0,0,0-.09Zm3.1,5.48a.7.7,0,0,1,.13.16l-.13-.16Zm16.14,11.45.13,0-.13,0Zm-11.06-6.14h0l-.05,0,0,0Zm-11-20.27a.31.31,0,0,0,0-.09.28.28,0,0,1,0,.09Z" transform="translate(-54.04 -306)"/><path class="cls-3" d="M979.63,1847.36a7.21,7.21,0,1,0,7.2-7.21,7.29,7.29,0,0,0-7.2,7.21Z" transform="translate(-54.04 -306)"/><path class="cls-3" d="M1095.22,1898.67a7.21,7.21,0,1,0,7.21-7.2,7.3,7.3,0,0,0-7.21,7.2Z" transform="translate(-54.04 -306)"/><path class="cls-3" d="M216.09,1566.15c-14.38,43.54-25.22,87.83-30.84,133.39-6.12,49.55-1.55,100.85,5.27,150,0,.15.19.12.23,0,16.31-48.47,29.33-98.87,32.74-150,3-44.44-.78-89.42-7.17-133.39,0-.08,0-.11-.09-.11a.15.15,0,0,0-.14.11Z" transform="translate(-54.04 -306)"/><path class="cls-3" d="M61,1754.38c-2.25,12.71-4.23,25.45-5.54,38.28-1.47,14.45-1.55,29.09-1.36,43.66,0,.12.2.16.23,0,2.48-13.68,4.54-27.39,5.78-41.22,1.24-13.49,1.24-27.16,1.12-40.72a.12.12,0,0,0-.13-.11.1.1,0,0,0-.1.07Z" transform="translate(-54.04 -306)"/></g></svg>