<?xml version="1.0" encoding="utf-8"?>
<!-- Generator: Adobe Illustrator 22.0.1, SVG Export Plug-In . SVG Version: 6.00 Build 0)  -->
<!DOCTYPE svg PUBLIC "-//W3C//DTD SVG 1.1//EN" "http://www.w3.org/Graphics/SVG/1.1/DTD/svg11.dtd">
<svg version="1.1" id="Layer_1" xmlns="http://www.w3.org/2000/svg" xmlns:xlink="http://www.w3.org/1999/xlink" x="0px" y="0px"
	 viewBox="0 0 600 600" style="enable-background:new 0 0 600 600;" xml:space="preserve">
<style type="text/css">
	.st0{opacity:0.74;fill:#FFFFFF;}
	.st1{fill:#FFFFFF;}
</style>
<g>
	<path class="st0" d="M295.9,238.4c-10.2,0.2-20.4,1.1-30.5,2.3c-9.6,1.4-19,3-28.1,6.2c-1.4,0.7-2.8,1.4-4.1,2.2
		c-4.7,2.7-9.4,5.3-14.2,7.7c-5,2.6-10.1,5-15,7.7c-8.7,4.9-17.1,10.3-25.2,16.2c-9.5,7.7-18.6,16-27.9,23.9
		c-10.8,9.1-22.3,17.5-33.9,25.5c-3.5,2.4-7.1,4.8-10.7,7c8.2-0.1,16.4-0.2,24.6-1c0.5-0.1,1-0.1,1.5-0.2c5.2-0.7,7.4-1.2,9.9-1.2
		c2.2,0,4.5,0.3,9.1,1.1c4.2,0.7,10.7,4.6,14.1,7.9c4.8-1.6,9.6-3,14.5-4.4c11.2-3.2,22.6-6.2,33.9-9.2c12.2-3.2,24.5-6.2,36.8-8.8
		c7.9-6.1,15.8-12.2,23.7-18.4c-0.5,0.4-1.1,0.8-1.6,1.2c5.6-4.3,11.1-8.7,16.6-13.1c4.1-3.3,8.3-6.5,12.3-9.9
		c5-4.2,10-8.5,14.9-12.8c0.7-0.3,1.3-0.7,2-1c1.8-1,3.6-2,5.4-3c2.1-1.2,4.2-2.4,6.3-3.6c0.6-0.4,1.2-0.7,1.8-1.1
		c3.9-2.3,7-5.4,9.4-9.4c0.6-0.8,1.1-1.6,1.6-2.4c0.8-1.3,1.4-2.7,1.9-4.1c0.9-0.8,1.8-1.6,2.7-2.5c0.8-0.7,1.5-1.4,2.3-2.1
		c-5.9-0.2-11.9-0.4-17.8-0.6c-9.3-0.3-18.6-0.5-27.9-0.5C301.3,238.3,298.6,238.3,295.9,238.4L295.9,238.4L295.9,238.4z"/>
	<path class="st0" d="M373.4,254.3c-6.3,3.3-12.5,6.7-18.8,10c-5.1,2.7-10,5.7-15,8.5c-19.9,11.4-39.8,22.7-59.5,34.4
		c-7,4.2-14.2,8.3-21.2,12.5c7.6-1.5,15.2-2.7,22.9-3.8c5.2-0.7,10.4-1.3,15.7-1.8c1.9-2.7,5.1-4.6,8.6-4.7c2.1-1.8,4.4-3.4,6.7-4.9
		c1.5-1.1,3.5-1.5,5.5-1.5c1.1,0,2.2,0.1,3.1,0.4c2.8,0.8,5.2,2.6,6.7,5.1c0.3,0.4,0.5,0.9,0.7,1.3c2.3-1.4,4.5-2.9,6.8-4.3
		c3.7-2.3,7.6-4.4,11.3-6.6c9.5-5.6,19-11.1,28.5-16.7c6.4-3.8,12.8-7.5,19.3-11.3c2.5-1.5,5-2.9,7.4-4.5c-3.7-2.7-7.4-5.4-11.2-7.9
		c-3.9-2.6-8.1-4.7-12.2-7C376.9,252.4,375.1,253.3,373.4,254.3L373.4,254.3L373.4,254.3z"/>
	<path class="st0" d="M393.8,272.6c-6,3.5-12,7-18,10.5c-15.6,9.2-30.8,18.9-46,28.7c8.1-0.5,16.2-0.9,24.3-1.1
		c4.6-0.2,9.2-0.2,13.8-0.2c6.9,0,13.9,0.2,20.8,0.5c12.5,0.6,25,1.5,37.3,3.5c5.8,1,11.6,2.2,17.4,3.5c4.6,1,9.3,2.1,13.9,3.3
		c2.3-1.7,5.2-2.6,8.1-2.6c0.1,0,0.3,0,0.4,0c0,0,0.1,0,0.1,0c0.7-0.4,1.4-0.8,2-1.3c-1.3-0.9-2.6-1.7-3.9-2.7
		c-6-4.3-12.1-8.8-17.8-13.5c-6-5-11.4-10.7-17.4-15.8c-3.5-2.5-7.1-4.9-10.7-7.4c-5.3-3.7-10.4-7.6-15.6-11.4
		C399.6,268.7,396.7,270.7,393.8,272.6L393.8,272.6L393.8,272.6z"/>
	<path class="st0" d="M356.1,332.9c-11.2,0.2-22.4,0.9-33.5,1.6c-10.8,0.7-21.6,1.4-32.3,2.6c-1.2,0.8-2.5,1.6-3.7,2.3
		c-5.4,3.4-10.7,6.8-16.1,10.1c-1.2,0.7-2.4,1.5-3.6,2.2c2-1.6,3.9-3.2,6-4.8c4.1-3.1,8.2-6.2,12.4-9.2c-9.6,1.4-19.2,3.1-28.6,5.1
		c-11.6,2.4-23.1,5.3-34.6,8.2c-11.3,2.9-22.6,6-33.9,9.2c-0.3,0.1-0.5,0.2-0.8,0.2c1.2,0.2,2.4,0.4,3.6,0.5
		c6.7,1,13.5,2.3,20.2,3.4c2.5,0.3,5.1,0.7,7.6,1.1c4.8,0.7,8.4,2.2,13.2,4.5c3.3,2,6.2,4.4,8.5,7.2c6.7,0.5,13.5,0.5,20.3,0.5
		c21.2-0.1,42.5,0,63.5-2.4c2.2-0.4,4.3-0.8,6.5-1.2c5.7-1.2,11.3-2.9,16.9-4.7c5.7-1.8,11.4-3.5,17.1-5.1c5.6-1.6,11.2-3,16.7-4.6
		c5.4-1.5,10.8-3.3,16.1-5c5.4-1.8,10.7-3.6,16-5.5c5.1-1.8,10.1-3.7,15.2-5.4c2.3-1.6,4.7-3.1,7-4.7c-6-1.3-12.1-2.5-18.2-3.6
		c-9.8-1.2-19.6-1.9-29.4-2.4c-6.6-0.3-13.1-0.5-19.7-0.5C364.3,332.8,360.2,332.8,356.1,332.9L356.1,332.9L356.1,332.9z"/>
	<path class="st1" d="M306,286.3c-3,0.1-6.1,0.4-9.1,0.8c-3.6,0.4-7.1,1.1-10.7,1.9c-2.1,0.5-4.1,1.1-6.1,1.9
		c-0.1,0-0.2-0.1-0.3-0.1c-1.1-0.3-2.2-0.4-3.3-0.4c0,0,0,0,0,0c0,0,0,0,0,0c-0.7,0-1.4,0.1-2.1,0.2c-0.9,0.1-1.8,0.2-2.6,0.4
		c-0.5,0.1-1,0.3-1.5,0.4c0,0-0.1,0-0.1,0c-0.3-0.1-0.6-0.1-1-0.2c-1.2-0.2-2.4-0.3-3.6-0.5c-1.5,0.1-3,0.3-4.5,0.7
		c-1.2,0.3-2.4,0.6-3.6,0.9c-1.3,0.4-2.6,0.7-3.9,1.1c-2.3,0.6-4.5,1.3-6.7,2c-4.8,1.4-9.7,2.9-14.5,4.2c-3.7,1-6.6,3.8-7.8,7.3
		c-0.4,0.4-0.7,0.9-1,1.4c-3.2,5.4-0.4,13.3,6,14.7c1.8,0.4,3.7,0.8,5.6,0.7c1.6-0.1,3.3-0.4,4.9-0.6c0.5,0.5,1.1,1,1.7,1.2
		c1,0.4,2,0.9,3.1,1.3c1.1,0.3,2.3,0.4,3.4,0.5c0.5,0.1,0.9,0.1,1.4,0.1c2.3,1.2,5,1.7,7.6,1c2.4-0.6,4.8-1,7.2-1.3
		c1.8-0.2,3.6-0.5,5.4-0.7c0.8-0.1,1.7-0.2,2.5-0.4c0.6-0.1,1.2-0.2,1.8-0.3c1.9-0.5,3.5-1.5,4.9-2.9c0.1-0.1,0.1-0.1,0.2-0.2
		c0.6-0.6,1.2-1.4,1.6-2.1c0.9-1.5,1.4-3.2,1.5-5c0.2-0.1,0.4-0.2,0.5-0.3c2.1-1.3,3.7-3,4.8-5.1c3.4-1,6.8-1.7,10.3-2.3
		c1.7-0.2,3.4-0.3,5.1-0.5c3.3,0.3,6.7,0.6,10,0.9c2.2,0.2,4.4,0.3,6.6,0.5c0.7,0.1,1.4,0.1,2.1,0.2c2.9,0.2,5.6,0.3,8.5-0.1
		c0.9-0.1,1.7-0.2,2.5-0.3c1.6-0.5,3-1.3,4.2-2.5c1.7-1.7,2.9-4.3,2.8-6.8c-0.1-3.6-1.6-6.9-4.8-8.8c-2.3-1.4-4.9-1.5-7.5-1.6
		c-1.5-0.1-3.1-0.3-4.6-0.4c-2.6-0.2-5.2-0.4-7.9-0.5c-1.9-0.1-3.7-0.1-5.6-0.1C308.4,286.2,307.2,286.2,306,286.3L306,286.3
		L306,286.3z"/>
	<path class="st1" d="M282.9,302c-3.8,0.1-7.6,0.7-11.3,1.3c-3.3,0.6-6.5,1.5-9.6,2.6c-2.6,0.9-5.2,2.1-7.1,4.1c0,0,0,0,0,0
		c0.2,0,0.3-0.1,0.5-0.1c1.7-0.2,3.2-0.1,4.9,0.1c1.8,0.3,3.6,0.6,5.4,1c-0.3,0.5-0.6,1-0.7,1.6c-0.8,3,1,6.2,4,7
		c5.2,1.4,10.2,3.1,15.4,4.3c3.1,0.7,6.3,1.2,9.4,1.6c0.1,0.7,0.1,1.4,0,2.2c-0.2,1.2-0.5,2.3-0.8,3.5c0,0,0,0,0,0
		c1.2-1.3,2.4-2.5,3.2-4.1c0.2-0.4,0.4-0.8,0.5-1.2c1.3,0.1,2.6,0.2,3.9,0.3c2.9,0.1,6-0.3,8.5-1.8c1.7-1,2.9-2.3,3.9-4
		c1.1-1.9,1.2-3.3,1.4-5.5c0-1.9-0.5-3.6-1.4-5.2c-0.9-1.6-2.2-2.8-3.7-3.7c-2.7-1.6-6.2-1.8-9.3-2.3c-2.6-0.5-5.1-0.9-7.7-1.2
		c-2.8-0.4-5.6-0.6-8.4-0.6C283.7,302,283.3,302,282.9,302L282.9,302L282.9,302z"/>
	<path class="st1" d="M331.5,286.6c-3.2,0.4-6.1,1.3-9,2.6c-0.8,0.4-1.6,0.8-2.3,1.2c-1.3,0.5-3.3,1.1-4.1,1.7
		c-1,0.7-1.9,1.4-2.9,2.2c-1.1,0.8-2.1,1.7-3.1,2.6c-1.1,1.1-2.1,2.3-3.1,3.6c-0.2,0.1-0.4,0.2-0.5,0.3c-3.4,1.6-6.6,3.6-10,5.1
		c0.3-0.1,0.5-0.2,0.8-0.3c-1.1,0.5-1.7,0.9-2.9,1.8c-1.6,1.3-2.4,4.1-2.4,6.1c0,1.1,0.2,2.2,0.3,3.3c0.1,1.8,0.1,3.6-0.1,5.4
		c-0.6,3.4-1.7,6.7-1.8,10.2c0,1,0,2.1,0.2,3.1c-0.4,0.3-0.8,0.6-1.1,1c-0.8,0.4-1.6,0.8-2.5,1.2c-3.1,1.3-6.2,2.5-9.3,3.9
		c0,0,0,0,0,0c2.7-0.1,5.5-0.1,8.2-0.2c-0.9,3.8,2.6,7.9,6.8,6.6c1.1-0.3,1.9-1,2.7-1.7c0.8-0.5,1.7-1,2.5-1.5
		c0.5-0.2,1-0.3,1.6-0.4c1.3-0.2,2.5-0.8,3.7-1.4c1.5-0.7,2.9-1.8,4-3c3.9-0.8,7.6-1.9,11.2-3.5c2-0.9,3.6-2.4,5.2-3.7
		c0.7-0.5,1.2-1.3,1.7-1.9c1.4-1.8,2.8-3.6,4.1-5.5c1.4-2,2.6-4.1,3.9-6.2c1.7-2.8,3-5.7,4.2-8.8c0.2-0.6,0.4-1.2,0.6-1.8
		c0.4-0.4,0.7-0.8,1-1.2c2.1-2.7,4.4-5.3,5.5-8.6c1.1-3.3-0.2-7.2-2.8-9.4c-1.6-1.3-3.2-2.1-5.2-2.5c-1-0.2-2.1-0.3-3.1-0.3
		C332.9,286.5,332.2,286.5,331.5,286.6L331.5,286.6L331.5,286.6z M287.5,337.4c-0.1,0-0.1,0.1-0.2,0.1
		C287.4,337.4,287.4,337.4,287.5,337.4L287.5,337.4L287.5,337.4z"/>
	<path class="st1" d="M263,308c-5.1,0.1-10.1,0.3-15.2,0.5c-2.7,0.1-5.3,0.3-8,0.6c-4.7,0.5-10.2,1-12.9,5.5
		c-1.7,2.8-1.2,6.5,1.1,8.8c0.9,0.9,2,1.5,3.2,1.9c2.3,0.9,5.2,0.5,7.7,0.2c2.5-0.3,5.1-0.7,7.6-1.1c2.5-0.4,5-0.8,7.4-1.3
		c2.7-0.3,5.3-0.5,8-0.8c4.9-0.4,9.7-0.8,14.6-1.1c5.5-0.4,11.1-0.6,16.6,0.1c4.9,0.8,9.6,2.6,14.2,4.5c0,0,0,0-0.1,0
		c1.1,0.5,2.2,0.9,3.1,1.6c0,0,0,0,0,0c0.1,0.1,0.1,0.1,0.2,0.2c0,0,0,0,0,0c-0.5-0.9-1.2-1.7-1.9-2.5c-0.9-1-1.8-2.1-2.8-3
		c-1-0.9-1.9-1.8-3-2.6c-2-1.5-4-2.7-6.3-3.6c1.5-0.1,3,0,4.5,0.2c0,0,0,0,0,0c0.5,0.1,0.9,0.2,1.4,0.4c0.4,0.1,0.8,0.3,1.1,0.5
		c0,0,0,0,0,0c-1.3-2-3.3-3.1-5.5-4c-2.8-1.1-5.6-2.1-8.6-2.7c-3.4-0.7-6.7-1.2-10.1-1.6c-3.5-0.4-7.1-0.5-10.6-0.5
		C266.9,307.9,264.9,307.9,263,308L263,308L263,308z M307.3,325.7C307.2,325.7,307.2,325.7,307.3,325.7
		C307.2,325.7,307.2,325.7,307.3,325.7L307.3,325.7L307.3,325.7z M302.5,316.3C302.5,316.3,302.5,316.3,302.5,316.3
		C302.5,316.2,302.5,316.2,302.5,316.3C302.5,316.2,302.5,316.3,302.5,316.3L302.5,316.3L302.5,316.3z"/>
	<path class="st1" d="M263.8,312.1c-5.6,0.9-11.2,2.3-16.6,4.2c-4,1.4-8,3-11.9,4.8c0,0,0,0,0,0c6.8,0.4,13.5,0.7,20.3,1
		c3,0.1,6.1,0.2,9.1,0.4c2.9,0.1,5.9,0.3,8.8,0.4c5.8,0.1,11.5,0.6,17.3,1c5.3,0.3,10.6,0.7,15.9,0.9c1.1,0,2.1,0.1,3.1,0.2
		c1.2,0.2,2.3,0.4,3.5,0.7c0,0,0,0,0,0c-1.8-2-3.5-4-5.6-5.6c-2.3-1.7-4.7-3.2-7.3-4.3c-5.7-2.6-11.9-4-18.2-4.6
		c-1.8-0.2-3.5-0.2-5.3-0.2C272.6,310.9,268.2,311.3,263.8,312.1L263.8,312.1L263.8,312.1z M309.8,325c0.1,0,0.1,0,0.2,0
		C309.9,325,309.8,325,309.8,325L309.8,325L309.8,325z M310,325C310,325,310,325,310,325C310,325,310,325,310,325L310,325L310,325z"
		/>
	<path class="st1" d="M245.6,314.4c-5,1.9-10,4.1-14.6,6.8c0,0,0,0,0,0c5.9,1.4,11.8,2.5,17.8,3.1c-0.1,0-0.2,0-0.2,0
		c5,0.7,10.1,1,15.2,1.3c5.4,0.3,10.8,0.1,16.1-0.1c2.5-0.1,5-0.3,7.6-0.3c2.7,0.1,5.4,0.1,8.1,0.2c4.8,0.2,9.4-0.5,14.2-1.2
		c-0.1,0-0.3,0-0.4,0.1c1.1-0.1,2.2-0.3,3.4-0.2c0,0,0,0,0,0c-3.6-3.8-7.7-7-12.4-9.2c-6.1-2.9-12.6-4.2-19.3-4.9
		c-2.7-0.3-5.5-0.5-8.3-0.5C263.4,309.5,254.1,311.2,245.6,314.4L245.6,314.4L245.6,314.4z M247.4,324.2c0.1,0,0.3,0,0.4,0.1
		C247.6,324.2,247.5,324.2,247.4,324.2L247.4,324.2L247.4,324.2z"/>
	<path class="st1" d="M358.3,286.8c-3,0.3-5.9,0.7-8.8,1.4c-1.7,0.4-3.4,1-5.1,1.5c-1.9,0.6-3.7,1.3-5.5,2.1
		c-1.1,0.2-2.2,0.4-3.2,0.5c-0.8,0.1-1.6,0.2-2.4,0.3c-1.1-0.1-2.1-0.1-3.3,0.2c-1.7,0.5-2.8,1.3-4.1,2.5c-1.8,1.6-2.7,4.2-2.7,6.5
		c0,1.2,0.2,2.5,0.7,3.7c-0.1,0.5-0.1,1-0.2,1.4c0,1,0.1,2,0.3,2.9c-1.4,2.4-2.4,5.1-3.2,7.6c-0.4,1.4-0.8,2.8-1,4.2
		c-0.6,2.9-0.9,5.8-1,8.8c-0.1,1.2-0.1,2.5-0.2,3.7c-0.1,1.4,0.1,2.7,0.6,3.9c0.6,1.4,1.9,3,3.5,3.3c1.2,0.2,2.5,0.3,3.6-0.4
		c1.2-0.7,2-1.7,2.7-3c0.8-1.5,1.3-3.3,1.6-5c0.3-1.5,0.7-3.3,0.4-4.8c0,0,0,0,0,0c0,0,0,0,0,0c0,0,0,0,0,0c0,0,0,0,0,0.1
		c0,0.2-0.1,0.3-0.2,0.4c0,0,0,0,0,0c0,0,0,0,0,0c0,0,0,0,0,0c0,0,0,0,0,0c-0.4,0.8-0.8,1.5-1.3,2.2c0-0.1,0.1-0.1,0.1-0.2
		c-0.7,0.9-1.5,1.7-2.4,2.4c0.6-1.9,1.3-3.8,2.1-5.7c1.3-2.8,2.7-5.4,4.5-7.9c0,0,0,0,0,0c1.4,0.2,2.8,0.5,4.3,0.4
		c1.8-0.1,3.2-0.3,4.8-0.9c1.8-0.6,3.6-1.4,5.2-2.5c0.9-0.5,1.6-1.1,2.3-1.7c3.8-0.7,7.7-1.3,11.5-2.5c5.4-1.7,9.7-6.6,9.6-12.5
		c0-1.2-0.1-2.4-0.5-3.6c0,0,0,0,0,0c-0.6-2.2-1.7-4.1-3.4-5.8c-2.1-2.1-5.4-3.9-8.5-3.9C358.8,286.7,358.5,286.7,358.3,286.8
		L358.3,286.8L358.3,286.8z M324.6,334.7c-0.1,0-0.3,0-0.5,0.1C324.3,334.7,324.4,334.7,324.6,334.7L324.6,334.7L324.6,334.7z
		 M330.7,328.8C330.7,328.8,330.7,328.8,330.7,328.8C330.8,328.8,330.8,328.8,330.7,328.8C330.8,328.8,330.7,328.8,330.7,328.8
		L330.7,328.8L330.7,328.8z"/>
	<path class="st1" d="M380.5,297.3c-0.6,0.5-0.8,1.6-1.1,2.3c0,0,0,0,0,0c-0.3,0.3-0.6,0.6-0.9,0.8c-4.2,3.1-8.9,5.5-13.5,7.8
		c-4.2,2.1-8.1,4.8-12,7.5c-4.6,3.2-8.9,6.8-13.1,10.5c-3.3,2.9-6.5,5.9-9.9,8.7c-1.9,1.4-4,2.4-6.1,3.4c-2.5,1.1-5,2.3-7.5,3.4
		c0,0,0,0,0,0c-0.2,0.1-0.5,0.2-0.7,0.3c0,0,0,0,0,0c0,0-0.1,0-0.1,0c0,0,0,0,0,0c0,0,0-0.1,0.1-0.1c0,0,0,0,0,0
		c-0.1,0.1-0.1,0.1-0.1,0.2c0,0,0,0,0,0c0.8,0.2,1.7,0,2.4,0c1.2-0.1,2.4-0.1,3.7-0.2c1.9-0.1,3.8,0,5.7,0.1
		c4.4,0.3,8.8,0.4,13.2,0.3c3.2-0.1,6.4-0.5,9.6-1.1c2.4-0.5,4.8-1.3,7.1-2c3.4-1.1,6.8-2.5,9.7-4.5c2.8-1.9,5.3-4.2,7.6-6.8
		c2-2.3,3.9-4.7,5.3-7.4c1.5-2.9,2.8-5.9,3.9-8.9c0.4-1.2,0.7-2.5,0.9-3.7c0.3-1.3,0.5-2.7,0.7-4c0.1-1.5,0-2.9-0.3-4.4
		c-0.2-1-1-2.5-2.1-2.7c-0.3-0.1-0.6-0.1-0.8-0.1C381.6,296.5,381.2,296.8,380.5,297.3L380.5,297.3L380.5,297.3z M316.4,341.7
		C316.4,341.7,316.4,341.7,316.4,341.7C316.4,341.7,316.4,341.7,316.4,341.7L316.4,341.7L316.4,341.7z"/>
	<path class="st1" d="M356.2,292.5c-2.1,1.3-4.3,2.6-5.9,4.4c-0.3,0.4-0.6,0.8-0.9,1.1c-0.3,0.2-0.7,0.4-1,0.6
		c-4,0.5-8.1,1-11.9,2.5c-5.5,2.1-10.7,5-14.8,9.4c-2.3,2.4-3.9,5.1-5.1,8.1c-0.6,1.6-0.9,3-1.1,4.6c-0.2,1.4-0.2,2.5,0.2,4
		c0.4,1.4,1.1,2.6,2.1,3.6c0,0-0.1-0.1-0.1-0.1c0.4,0.4,0.8,0.7,1.3,1c2.2,1.7,5.7,0.5,7.8-0.8c1.6-1,3-2.3,4.4-3.5
		c0.9-0.6,1.8-1.1,2.7-1.6c0.8-0.3,1.6-0.5,2.5-0.7c1.2-0.1,2.4-0.1,3.6,0c1.8,0.3,3.5,0.8,5.2,1.3c0.6,0.5,1.2,0.9,1.8,1.3
		c3,1.7,4.6,1.8,8,2.2c1.7,0.2,3.4,0,5-0.6c0.9-0.3,1.8-0.6,2.7-1c1,0.1,2,0.1,3.1,0c1.9-0.2,3.7-0.4,5.6-0.8c1.8-0.4,4.7-1.8,6-2.4
		c0.7-0.3,1.3-0.6,1.9-1c0.8-0.4,1.7-0.9,2.5-1.5c1.2-0.9,2.3-1.8,3.5-2.7c1-1.2,2-2.5,2.9-3.8c0.6-1.4,1.2-2.7,1.7-4.1
		c0.8-3.1,0.8-6.1,0-9.2c-0.3-1.7-1-3.4-2-4.8c-1-1.6-2.1-3-3.5-4.2c-0.4-0.6-0.8-1-1.2-1.3c-1.2-1-2.3-2-3.7-2.7
		c-2.8-1.4-4.1-1.6-7.3-1.9c-0.6-0.1-1.2-0.1-1.7-0.1C365.5,287.9,360.4,289.9,356.2,292.5L356.2,292.5L356.2,292.5z M368.9,302.8
		c0,0,0.1,0.1,0.1,0.1C369,302.9,369,302.9,368.9,302.8L368.9,302.8L368.9,302.8z M315.4,324c0-0.3,0.1-0.6,0.1-0.8
		c0-0.2,0-0.3,0.1-0.5C315.5,323.1,315.5,323.6,315.4,324L315.4,324L315.4,324z M315.6,322.7c0-0.2,0.1-0.5,0.1-0.7
		C315.6,322.2,315.6,322.4,315.6,322.7L315.6,322.7L315.6,322.7z"/>
	<path class="st1" d="M296.9,414.3c-1,0.9-1.6,2.3-2.1,3.5c-1.1,2.6-1.8,5.2-2.3,7.9c-1.3,6.4-2.2,12.8-3,19.3
		c-1.4,11.5-2.1,23.2-2.1,34.8c-0.1,12.2,0.3,24.6,2.1,36.7c0.8,5.6,1.9,11.3,4.1,16.6c1.1,2.6,2.3,5.2,4.8,6.6
		c2.1,1.1,4.4,1.1,6.5-0.1c2-1.1,2.9-3.2,3.5-5.2c0.7-2,0.9-4.2,1.3-6.2c0.3-1.7,0.6-3.5,0.8-5.3c1.5-11.7,2.4-23.5,3.4-35.3
		c0.9-11.5,1.8-23,1.9-34.5c0.1-8.5,0.1-17.1-1.7-25.4c-0.8-3.6-2.3-7.1-4.6-10c-0.4-0.5-1.1-1.1-1.7-1.3c-0.9-0.3-1.2-0.3-2.2-0.1
		c-0.6,0.1-1.2,0.7-1.6,1.1c-0.8,0.7-1.4,1.7-1.9,2.6c-0.3,0.5-0.6,1.1-0.9,1.7c0.1-0.8,0.3-1.6,0.4-2.4c0.2-1.2,0.1-2.4-0.1-3.6
		c-0.1-0.6-0.4-1.1-0.7-1.5c-0.3-0.6-0.9-0.7-1.4-0.9c-0.1,0-0.3-0.1-0.4-0.1C298.1,413.2,297.4,413.8,296.9,414.3L296.9,414.3
		L296.9,414.3z M299.3,417.4C299.3,417.4,299.3,417.4,299.3,417.4C299.3,417.4,299.3,417.4,299.3,417.4
		C299.3,417.4,299.3,417.4,299.3,417.4L299.3,417.4L299.3,417.4z M299.3,417.4c0.6,1.7,1,3.4,1.3,5.2c-0.6,1.3-1.1,2.7-1.7,4.1
		c0,0,0,0,0,0c1.2-2.1,2.4-4.1,3.9-6.1c0.5-0.6,1-1.1,1.6-1.7c-0.1,0-0.1,0.1-0.2,0.1c0.3-0.3,0.7-0.5,1.1-0.7
		c0.2,0,0.3-0.1,0.5-0.1c0.1,0,0.3,0,0.4,0.1c0.1,0.1,0.2,0.1,0.2,0.2c0.1,0.1,0.1,0.2,0.2,0.3c0.4,0.7,0.7,1.4,1.1,2.1
		c1,2.4,1.5,4.9,1.9,7.5c0.2,2.7,0.3,5.3,0.3,7.9c0,2.5-0.3,5.1-0.5,7.6c-0.5,5.5-1.1,11-1.8,16.5c-1.2,8.3-2.4,16.6-3.5,24.9
		c-0.7-7.3-1.4-14.6-2.1-21.9c-0.7-6.5-1.3-13-1.8-19.4c-0.3-3.8-0.6-7.7-0.9-11.5c-0.4-4.5-0.7-9.1-0.3-13.6
		C299.1,418.3,299.2,417.8,299.3,417.4L299.3,417.4L299.3,417.4z M306.9,532.5C306.9,532.6,306.9,532.6,306.9,532.5
		C306.9,532.6,306.9,532.6,306.9,532.5L306.9,532.5L306.9,532.5z"/>
	<path class="st1" d="M190.7,406.4c-1.2,0.7-2.3,1.5-3.5,2.2c-0.5,0.1-1.1,0.2-1.6,0.4c-2.1,0.6-3.9,1.8-5.7,3
		c-2.1,1.4-3.9,3.1-5.5,4.9c-0.9,1.1-1.8,2.2-2.6,3.3c-6.1,5.3-11.7,11-16.8,17.3c-3.6,4.4-6.9,9.1-9.9,14c-1.5,2.5-3,4.9-4.4,7.4
		c-2.7,5.1-5.3,10.2-7.6,15.4c-1.3,2.9-2.6,5.8-3.8,8.7c-0.5,1.2-1,2.4-1.5,3.5c-0.7,1.8-1.7,3.8-1.5,5.8c0.1,1.4,0.5,2.7,1.6,3.8
		c1.4,1.4,3.3,1.8,5.2,1.4c1.8-0.4,3-1.6,4.3-2.8c0.6-0.6,1.3-1.2,1.9-1.8c1.1-1.1,2.3-2.1,3.5-3.2c1.9-1.7,3.7-3.4,5.6-5.2
		c4.3-4,8.6-8,12.7-12.2c2-2.1,4.1-4.2,6-6.4c2.1-2.5,4.3-5,6.3-7.6c1.1-1.5,2.1-3,3.2-4.5c0.7-1,1.5-1.9,2.1-3
		c0.8-1.4,1.7-2.8,2.5-4.2c0.7-1.2,1.5-2.3,2.1-3.5c1.9-3.6,3.7-7.3,5.4-11c1.7-3.7,3.2-7.5,4.6-11.4c0.3-0.8,0.5-1.6,0.8-2.4
		c0.5-1.5,0.8-2.9,1-4.4c0.1-1-0.3-1.9-0.7-2.8c-0.3-0.4-0.5-0.7-0.8-1.1c-0.3-0.3-0.7-0.6-1-0.8c-0.9-0.4-1.8-0.8-2.8-0.8
		c-0.3,0-0.5,0-0.8,0C189.4,407.7,190,407.1,190.7,406.4C190.7,406.4,190.7,406.4,190.7,406.4C190.7,406.4,190.7,406.4,190.7,406.4
		L190.7,406.4L190.7,406.4z M188.5,412.9c0.3,0.1,0.5,0.1,0.8,0.2c0.1,0.1,0.2,0.1,0.3,0.2c0,0,0,0,0.1,0.1c0,0,0,0.1,0.1,0.1
		c0,0,0,0.1,0,0.1c-0.2,0.8-0.4,1.6-0.7,2.4c-1,2.3-2.1,4.6-3.3,6.9c-1.6,3-3.3,5.9-5.1,8.9c-1.5,2.5-3.1,4.8-4.7,7.2
		c-0.8,1.3-1.8,2.5-2.7,3.7c-0.8,1-1.5,2.1-2.3,3.1c-1.7,2-3.4,4-5.1,6.1c-1.4,1.7-3,3.4-4.6,5c-3.2,3.4-6.4,6.7-9.8,9.8
		c-2.4,2.2-4.7,4.4-7.1,6.7c0.4-0.9,0.8-1.7,1.2-2.6c1.4-2.8,2.7-5.7,4.2-8.4c1.9-3.4,3.7-6.9,5.7-10.3c4.6-7.8,9.8-15.3,15.3-22.5
		c4.2-5.4,8.6-10.8,13.2-15.9c0.8-0.2,1.6-0.4,2.5-0.6C187.1,412.9,187.8,412.9,188.5,412.9L188.5,412.9L188.5,412.9z M189.5,413.3
		C189.5,413.3,189.5,413.3,189.5,413.3C189.5,413.3,189.5,413.3,189.5,413.3C189.5,413.3,189.5,413.3,189.5,413.3L189.5,413.3
		L189.5,413.3z M189.5,413.3C189.6,413.3,189.6,413.3,189.5,413.3C189.6,413.3,189.6,413.3,189.5,413.3
		C189.6,413.3,189.6,413.3,189.5,413.3C189.5,413.3,189.5,413.3,189.5,413.3L189.5,413.3L189.5,413.3z M189.6,413.3
		C189.6,413.3,189.6,413.3,189.6,413.3C189.7,413.3,189.7,413.3,189.6,413.3C189.6,413.3,189.6,413.3,189.6,413.3
		C189.6,413.3,189.6,413.3,189.6,413.3L189.6,413.3L189.6,413.3z M189.7,413.3C189.7,413.3,189.7,413.3,189.7,413.3L189.7,413.3
		C189.7,413.3,189.7,413.3,189.7,413.3C189.7,413.3,189.7,413.3,189.7,413.3L189.7,413.3L189.7,413.3z M189.7,413.4
		C189.7,413.4,189.7,413.4,189.7,413.4C189.7,413.4,189.7,413.4,189.7,413.4L189.7,413.4L189.7,413.4L189.7,413.4z"/>
	<path class="st1" d="M435.9,406.4c-2.3,0.5-4,1.7-5.5,3.5c-2.3,2.7-2.6,6.5-3.1,9.9c0,0,0,0,0,0c0.3-1,0.7-1.9,1.1-2.8c0,0,0,0,0,0
		c0.5-1.1,1.1-2.2,1.7-3.2c0.4-0.5,0.9-1,1.4-1.4c0.6-0.5,1.3-0.9,2-1.2c0.3-0.1,0.7-0.2,1-0.3c0.5,0,0.9-0.1,1.4,0
		c0.2,0,0.4,0.1,0.5,0.1c0,0,0,0,0,0c0.3,7.7,1,15.3,2.1,22.8c0.6,4.2,1.5,8.3,2.5,12.3c0.7,2.7,1.3,5.3,2.2,7.9
		c1.2,3.5,2.4,7,3.6,10.5c1,3,2.4,5.8,3.6,8.7c2.3,5.4,4.9,10.7,7.8,15.8c2.8,4.9,5.8,9.7,8.9,14.5c2.1,3.2,4.6,6.9,8.7,7.6
		c2.7,0.5,5.1,0.4,7.6-1c1.3-0.8,3.4-2.6,4.1-4c0.6-1.2,1.1-2.4,1.5-3.6c0.2-0.6,0.3-1.3,0.4-1.9c0.2-1.2,0.4-2.5,0.5-3.8
		c0.3-3.5-0.2-7-0.7-10.4c-0.5-3.7-1.2-7.4-1.9-11.1c-0.6-2.8-1.4-5.6-2.1-8.3c-0.8-3.1-1.9-6.1-2.9-9.1c-1-2.9-2.2-5.7-3.3-8.6
		c-1.2-3.1-2.6-6.1-4-9.2c-2.2-4.6-4.5-9.2-7.3-13.5c-3-4.6-6.5-9-10.8-12.5c-2.2-1.8-4.6-3.3-7.2-4.5c-2.4-1.1-5-1.9-7.7-2.6
		c-1.1-0.3-2.2-0.5-3.3-0.6c-0.5-0.1-1.1-0.2-1.7-0.2C436.6,406.3,436.3,406.3,435.9,406.4L435.9,406.4L435.9,406.4z M433.4,411.2
		c-0.1,0-0.1,0-0.2,0.1C433.3,411.3,433.4,411.2,433.4,411.2L433.4,411.2L433.4,411.2z M437.3,411.3c2.5,1.2,4.8,2.8,7.1,4.4
		c1.8,1.5,3.4,3.1,4.9,4.9c1.9,2.7,3.5,5.5,4.8,8.5c1.8,4.4,3.3,9,4.4,13.7c0.7,2.9,1.4,5.9,2.2,8.8c0.5,2,0.9,4,1.3,6
		c0.5,2.1,1,4.3,1.4,6.4c0.3,1.7,0.7,3.5,1,5.2c-0.6-1-1.2-2-1.8-3c-1.1-1.9-2.3-3.9-3.5-5.8c-1.1-1.9-2.1-4-3.1-6
		c-1-1.8-1.9-3.7-2.9-5.5c-1.5-2.7-2.7-5.6-4.1-8.4c-1.4-3-2.7-6-4-9C442.2,425,439.7,418.2,437.3,411.3L437.3,411.3L437.3,411.3z
		 M430.1,413.9c0,0-0.1,0.1-0.1,0.1C430.1,414,430.1,413.9,430.1,413.9L430.1,413.9L430.1,413.9z"/>
	<path class="st1" d="M295.2,25.4c-5.6,1.4-8.3,6.9-10.2,11.8c-0.5,1.3-1,2.6-1.4,4c-0.8,3-1.6,5.9-2.2,8.9
		c-1.4,6.2-2.3,12.6-3.2,18.9c-0.8,5.8-1.5,11.5-1.9,17.3c-0.8,11.4-0.8,22.9-0.4,34.4c0.4,12.1,1.4,24.2,3.4,36.2
		c0.9,5.5,1.9,11.1,3.3,16.5c0.7,2.7,1.4,5.4,2.3,8.1c0.4,1.2,0.9,2.4,1.4,3.6c0.9,2.1,1.9,4.5,3.8,5.8c2.6,1.7,5.8,0.7,7.5-1.8
		c1.7-2.4,2.5-5.3,3.1-8.1c0.5-2.4,0.8-4.9,1.1-7.4c2.1-6.2,3.9-12.6,5.5-19c2.8-11.6,4.4-23.6,5.3-35.5c0.9-11.7,1.3-23.5,1.1-35.2
		c-0.1-11.8-0.5-23.5-1.4-35.2c-0.3-3.4-0.6-6.9-1.2-10.3c-0.2-1.1-0.5-2.3-0.7-3.4c-0.5-2.3-1.7-4.8-3.4-6.3
		c-1.6-1.5-3.1-2.6-5.2-3.1c-1.1-0.3-2.2-0.5-3.2-0.5C297.4,25,296.3,25.2,295.2,25.4L295.2,25.4L295.2,25.4z M295.4,69.4
		c0,0.4,0,0.7,0,1.1c0.3,6.2,0.6,12.4,0.7,18.6c0.2,5.8,0.1,11.7,0.1,17.5c0,5.5-0.1,11.1-0.2,16.7c-0.1,5.5-0.3,11-0.5,16.6
		c-0.2,5.6-0.2,11.2-0.2,16.8c0.1,8.8,0.2,17.6,0.1,26.5c-0.4,0.6-0.8,1.3-1.2,1.9c-0.2,0.2-0.4,0.4-0.5,0.6c-1-2.9-1.5-5.9-1.9-8.9
		c-2.8-22.6-3-45.5-1.6-68.2c0.2-4.1,0.5-8.1,0.8-12.2c0.3-3.3,0.7-6.5,1.1-9.8C293,80.7,294.1,75,295.4,69.4L295.4,69.4L295.4,69.4
		z M301,162.3C301,162.3,301,162.3,301,162.3C301,162.3,301,162.3,301,162.3L301,162.3L301,162.3z M293.6,185.2c0,0,0,0.1,0,0.1
		C293.6,185.3,293.6,185.3,293.6,185.2L293.6,185.2L293.6,185.2z"/>
	<path class="st1" d="M85.3,66.7c-3.3,1.1-5.5,3.8-5.6,7.4c0,1.7,0.5,3.2,1.4,4.5c0,0,0,0,0-0.1c1.5,2.6,3.1,5.3,4.5,7.9
		c1.5,2.7,2.9,5.5,4.4,8.2c2.6,4.8,5.2,9.7,7.8,14.5c3.1,5.7,6.2,11.5,9.4,17.1c3,5.4,6.4,10.6,9.7,15.9c1.2,1.9,2.5,3.8,3.8,5.6
		c1.8,2.6,3.6,5.3,5.6,7.9c2.1,2.8,4.3,5.5,6.4,8.2c1.8,2.3,3.8,4.4,5.7,6.6c3.7,4.3,7.9,8.2,12.2,11.9c2.3,2,4.7,3.9,7.2,5.7
		c2.7,2.1,5.7,3.9,8.8,5.1c1.3,0.5,2.8,0.9,4.2,1.1c0.3,0.6,0.6,1.2,1,1.8c0.2,0.3,0.6,0.8,1,0.8c0.8,0,1.2-0.7,1.4-1.3
		c0.2-0.5,0.3-1,0.3-1.6c2-0.9,2.8-3.6,3.2-5.5c0.5-2.9-0.3-5.7-1-8.4c-0.4-1.6-0.8-3.1-1.2-4.6c0,0,0,0,0,0
		c0.1,0.4,0.1,0.8,0.2,1.3c0,0,0,0,0,0c0.4,3.2,0.9,6.4,0.6,9.6c-0.1,0.5-0.3,1-0.4,1.5c-0.4,0.8-0.7,1.6-1.3,2.3
		c-0.1,0.1-0.2,0.2-0.3,0.3c-0.2-1.4-0.4-2.8-0.6-4.3c-0.8-4.3-1.9-8.6-3.1-12.8c-0.9-3.3-2.2-6.5-3.4-9.8c-0.9-2.6-1.8-5.3-3-7.9
		c-1.4-3.3-2.9-6.5-4.4-9.8c-1.1-2.4-2.1-4.8-3.3-7.1c-3.1-5.8-6.3-11.6-9.5-17.4c-1.5-2.7-3.2-5.3-4.9-7.9c-2.6-4-5.4-7.8-8.3-11.6
		c-5.5-7.1-11.5-13.7-18.2-19.6c-5-4.3-10.4-7.9-16-11.4c-1.3-0.8-2.6-1.5-3.9-2.2c-0.7-0.4-1.4-0.7-2.2-1c-1.8-0.8-3.6-1.4-5.4-1.4
		C87.1,66.2,86.2,66.4,85.3,66.7L85.3,66.7L85.3,66.7z M139.9,159.8c-1.7-2.3-3.3-4.7-5-7.1c-1.4-2-2.7-4.1-4-6.2
		c-1.6-2.5-3.3-5-4.8-7.6c-1.7-3-3.4-6.1-5.2-9.1c-1.1-2-2.3-3.9-3.4-6c-2.8-5.5-5.7-11-8.6-16.5c-2.4-4.6-4.8-9.3-7.1-14
		c3.5,3.1,6.7,6.5,9.9,10c4.3,4.7,8.3,9.6,12.2,14.6c5.1,6.7,9.9,13.6,14.9,20.5c1.7,2.4,3.5,4.8,5.2,7.2c1.2,1.7,2.4,3.5,3.6,5.3
		c3.1,4.5,6.3,8.9,9.1,13.6c1.9,3,3.8,6,5.7,9c3.1,4.9,5.9,10.2,8.2,15.5c0.2,0.4,0.4,0.9,0.5,1.3c-0.2-0.1-0.3-0.1-0.5-0.2
		c-1.8-0.8-3.5-1.7-5.1-2.8c-0.6-0.4-1.2-0.9-1.7-1.3c0,0,0,0,0.1,0.1c-1.7-1.4-3.4-2.8-5-4.3c-1.6-1.5-3.2-3.1-4.7-4.7
		c-1.3-1.4-2.7-2.7-3.9-4.2c-1.7-2-3.4-3.9-5.1-5.9C143.5,164.6,141.7,162.2,139.9,159.8L139.9,159.8L139.9,159.8z M175.7,187.6
		c0,0.1-0.1,0.1-0.1,0.2C175.6,187.8,175.6,187.7,175.7,187.6L175.7,187.6L175.7,187.6z M170.6,188.8c0,0,0,0.1,0.1,0.1
		C170.6,188.9,170.6,188.9,170.6,188.8L170.6,188.8L170.6,188.8z M170.7,189.1c0,0.1,0.1,0.1,0.1,0.2
		C170.7,189.2,170.7,189.1,170.7,189.1L170.7,189.1L170.7,189.1z M172.5,194.3c0,0.1,0,0.2,0.1,0.3c0,0.2,0,0.4,0.1,0.6
		c0,0.1,0,0.3-0.1,0.4c-0.4-0.4-0.8-0.8-1.1-1.2c0.1,0,0.2,0,0.4,0C172,194.3,172.2,194.3,172.5,194.3L172.5,194.3L172.5,194.3z
		 M175.5,176.6C175.5,176.6,175.5,176.6,175.5,176.6C175.5,176.6,175.5,176.6,175.5,176.6L175.5,176.6L175.5,176.6z"/>
	<path class="st1" d="M501.1,83.6C501.1,83.6,501.1,83.5,501.1,83.6c-3.7,2-5.9,5.6-8.2,9c-0.4,0.5-0.7,1.1-1.1,1.6
		c-1.8,1.3-3.7,2.6-5.5,3.9c-5,3.6-9.8,7.6-14.3,11.9c-5.2,4.9-9.6,10.6-13.9,16.2c-3.8,5.1-7.2,10.5-10.4,16
		c-3.4,5.8-6.5,11.9-9.2,18.1c-5.4,12.2-9.4,24.9-13,37.8c0,0,0,0,0,0c7.8-11,15.4-22.2,23.6-32.9c3.7-4.7,7.5-9.4,11.3-14
		c0,0.1-0.1,0.2-0.1,0.3c-2.2,4.3-4.5,8.5-6.7,12.8c-2,3.7-3.9,7.5-6,11.1c-2.4,4.2-4.8,8.4-7.3,12.6c-2.3,3.9-4.8,7.7-7.4,11.4
		c-1.9,2.3-3.7,4.6-6,6.6c-0.2,0.1-0.3,0.2-0.5,0.3c-0.2,0.1-0.4,0.1-0.6,0.2c-0.1,0-0.2,0-0.4,0c-0.1,0-0.2,0-0.3-0.1
		c-0.1-0.1-0.2-0.1-0.3-0.2c-0.1-0.1-0.3-0.2-0.4-0.4c0.1,0.1,0.1,0.2,0.2,0.2c-0.4-0.4-0.7-0.9-0.9-1.5c0,0.1,0.1,0.1,0.1,0.2
		c-0.2-0.6-0.4-1.2-0.5-1.8c-0.1-0.8-0.1-1.6,0-2.5c0.2-0.9,0.4-1.7,0.7-2.5c0,0,0,0,0,0c-0.8,1.3-1.3,2.5-1.6,4
		c-0.3,1.3-0.4,2.9-0.1,4.1c0.3,1.1,0.7,2.1,1.6,2.8c1.3,1,2.8,1.1,4.4,0.9c1.1-0.2,2.1-0.8,3.1-1.3c0.6-0.3,1.1-0.6,1.7-0.9
		c1.4-0.9,2.7-1.8,4.1-2.7c4.9-3.6,9.2-8,13.5-12.3c8.3-8.3,16-17.3,23.5-26.4c7.9-9.5,15.2-19.5,22.3-29.7
		c6.6-9.6,13-19.3,19.9-28.6c1.3-1.8,2.8-3.5,3.9-5.4c1.9-3.2,2.4-7.1,1.4-10.7c-1.3-4.7-5-8.4-9.7-9.7c-1.2-0.3-2.4-0.5-3.6-0.5
		C505.7,81.7,503.3,82.3,501.1,83.6L501.1,83.6L501.1,83.6z M423.2,200.4C423.2,200.4,423.2,200.4,423.2,200.4
		C423.2,200.4,423.2,200.4,423.2,200.4L423.2,200.4L423.2,200.4z M423.2,203C423.2,203,423.2,203,423.2,203
		C423.2,203,423.2,203,423.2,203L423.2,203L423.2,203z"/>
	<path class="st1" d="M296.7,268.9c-3.4,0.2-6.8,0.6-10.2,1c-4,0.4-8,0.7-11.9,1.4c-3.2,0.5-6.5,1.1-9.7,1.6
		c-2.4,0.4-4.8,0.7-7.1,1.3c-3.7,0.8-7.4,1.7-11.1,2.6c-5.9,1.4-11.7,3.2-17.5,5c-5.7,1.8-11.3,4-16.8,6.2
		c-6.5,2.5-12.8,5.5-19.1,8.4c-4.9,2.2-9.7,4.8-14.4,7.3c-5,2.6-9.9,5.3-14.8,8c-3.2,1.7-6.3,3.4-9.5,5.1c-2.6,1.4-5.3,2.6-7.9,3.9
		c-1,0.5-2,1-3,1.5c-3.7,1.5-7.4,3.1-11,4.7c-7.7,3-15.4,5.7-23.4,7.7c-7.9,2-16,3.1-24,4.3c0,0,0,0,0,0c8.3,1.4,16.6,2.8,25,3.1
		c8.9,0.3,17.6-0.6,26.4-1.8c3.3-0.4,6.6-1.2,9.9-1.8c2.4-0.4,4.7-0.9,7-1.5c2.9-0.7,5.8-1.4,8.6-2.3c3.4-1.1,6.8-2.2,10.2-3.3
		c5.3-1.7,10.6-3.7,15.9-5.6c22-7.9,44-15.8,66.7-21.3c3.7-0.9,7.4-2,11.2-2.8c4-0.8,8.1-1.6,12.1-2.5c6.1-1.3,12.3-2.2,18.5-3.2
		c7.7-0.9,15.5-1.4,23.3-1.4c7.8-0.1,15.7,0.5,23.4,1.5c3.7,0.5,7.3,1.2,10.9,1.9c3.5,0.7,7,1.3,10.4,2.2c3.1,0.8,6.3,1.6,9.4,2.4
		c5.4,1.4,10.7,2.7,16,4.2c5.5,1.6,11.2,3.1,16.6,5c3.8,1.3,7.6,2.6,11.4,3.9c2.2,0.7,4.4,1.4,6.5,2.2c5.9,2.3,11.8,4.6,17.6,6.9
		c5.3,2.4,10.6,4.7,16,7.1c2.4,1.1,4.8,2.4,7.2,3.5c2.8,1.4,5.7,2.8,8.6,4.1c2.7,1.3,5.2,2.8,7.9,4.1c2.2,1.1,4.4,2.2,6.6,3.4
		c5.7,3.2,11.4,6.3,17.1,9.5c3.4,1.9,6.7,3.9,10.1,5.8c3.9,2.3,7.9,4.5,11.7,7c0,0,0,0,0,0c-3.9-4.3-8.3-8.2-12.6-12
		c-4.1-3.7-8.3-7.4-12.6-10.9c-5.1-4.1-10.2-8.2-15.5-12.1c-4.9-3.7-9.9-7.2-15-10.6c-4.9-3.3-9.9-6.5-15-9.6
		c-2.4-1.4-4.7-3-7.1-4.3c-2.6-1.4-5.3-2.8-7.9-4.2c-5-2.6-9.9-5.2-15-7.6c-5.9-2.8-11.9-5.6-18-8c-3.7-1.5-7.5-2.9-11.2-4.4
		c-2.2-0.9-4.4-1.8-6.7-2.6c-6.4-2.1-12.8-4.2-19.2-6.2c-6.5-2-13.2-3.5-19.9-4.7c-9.4-1.7-19-2.9-28.6-3.4
		c-3.4-0.2-6.7-0.3-10.1-0.3C307.6,268.4,302.1,268.6,296.7,268.9L296.7,268.9L296.7,268.9z"/>
	<path class="st1" d="M155.8,319.9c-0.8,0.4-1,0.9-1.1,1.8c-0.2,1,0.3,2.2,0.5,3.2c0.5,2,1.3,4,2.1,5.9c1.3,3.1,2.9,6.1,5,8.8
		c2.5,3.2,5.4,5.9,8.6,8.4c6.4,5.1,13.6,9,21,12.3c3.5,1.6,7.1,2.9,10.6,4.4c2.4,1,4.9,1.8,7.4,2.7c2.5,0.9,5,1.8,7.5,2.5
		c3.2,0.9,6.5,1.9,9.7,2.8c3.2,0.9,6.4,1.5,9.6,2.3c12.1,2.9,24.5,4.4,36.9,5.6c5.3,0.5,10.7,0.8,16.1,1.1c6,0.3,12.1,0.7,18.1,0.7
		c6.1,0,12.1-0.2,18.1-0.7c2.9-0.2,5.8-0.7,8.7-1c4-0.5,7.9-1.3,11.8-2c2.6-0.5,5.2-1.2,7.8-2c2.8-0.8,5.6-1.7,8.3-2.6
		c6.4-2.3,12.7-4.7,18.9-7.4c7.4-3.2,14.6-6.7,21.9-10.2c6.3-3,12.6-5.9,18.9-8.7c2.4-0.9,4.7-1.8,7.1-2.6
		c5.7-2.2,11.7-3.7,17.8-4.6c5.6-0.7,11.3-0.8,16.9-0.2c2.8,0.4,5.5,1.1,8.2,2.1c2.7,1.2,5.1,2.7,7.5,4.4c0,0,0,0,0,0
		c-1.8-2.5-3.6-4.9-5.9-6.9c-2.8-2.4-6.1-4.2-9.5-5.6c-7.7-3.2-16-4.7-24.4-5c-6.2-0.3-12.3,0.5-18.5,1.4c-2.9,0.4-5.7,0.9-8.6,1.6
		c-11.4,2.5-22.6,6.1-33.8,9.5c-9.2,2.8-18.5,5.5-27.8,7.9c-4.5,1.1-9,2.3-13.6,3.1c-4.5,0.8-8.9,1.5-13.4,2.2
		c-5.4,0.6-10.9,1.2-16.3,1.8c-6,0.7-12.1,1.1-18.1,1.6c-5.4,0.5-10.7,0.9-16.1,1.2c-3.1,0.1-6.2,0.4-9.3,0.4c-3.5,0-7,0-10.5,0
		c-4.2,0-8.5-0.4-12.7-0.6c-3.8-0.2-7.6-0.7-11.5-1.1c-3.3-0.5-6.5-1-9.8-1.5c-3.4-0.5-6.8-1.4-10.2-2c-3.1-0.6-6.1-1.4-9.2-2.2
		c-6.4-1.6-12.6-3.4-18.7-5.9c-5.2-2.2-10.3-4.8-14.8-8.2c-2.1-1.7-4-3.6-5.8-5.7c-2.3-3-4.4-6.2-5.9-9.7c-0.2-0.4-0.3-0.9-0.4-1.4
		c0-0.2,0-0.4,0-0.6c0.1-0.3,0.2-0.5,0.3-0.8C155.5,320.2,155.7,320.1,155.8,319.9C155.8,319.9,155.8,319.9,155.8,319.9
		C155.8,319.9,155.8,319.9,155.8,319.9L155.8,319.9L155.8,319.9z M155.4,323.1C155.4,323.1,155.4,323.1,155.4,323.1
		C155.4,323.1,155.4,323.1,155.4,323.1L155.4,323.1L155.4,323.1z M161.3,332.8c0,0.1,0.1,0.1,0.1,0.2
		C161.4,333,161.4,332.9,161.3,332.8L161.3,332.8L161.3,332.8z"/>
	<path class="st1" d="M260.8,237.9c-6.2,0.1-12.4,0.6-18.4,2.1c-5.7,1.4-11.3,3.5-16.6,5.8c-5.2,2.2-10.2,4.7-15.2,7.4
		c-5,2.7-9.8,5.7-14.5,8.8c-9.2,6-18.3,12.2-27.3,18.5c-18.8,13.1-36.2,28.5-56.9,38.7c-1.6,0.8-3.3,1.5-5,2.2
		c-3.8,1.4-7.6,2.6-11.6,3.3c-0.2,0-0.4,0-0.6,0.1c-1.2,0-2.5,0.4-3.4,0.9c-1.4,0.8-2.5,2.2-3,3.8c-0.5,1.7-0.2,3.5,0.6,4.9
		c0.9,1.6,2.2,2.3,3.8,3c2,0.9,4.4,0.9,6.6,0.9c1.2,0,2.4,0,3.5-0.1c2.2-0.1,4.3-0.4,6.5-0.7c2.8-0.4,5.5-1,8.2-1.6
		c1.4,0.2,2.8,0.5,4.1,0.7c1.6,0.3,3.2,0.5,4.8,0.5c2.2,0,4.3-0.7,6.4-1.5c3.2-1.4,6.1-3.4,9-5.3c6-4,12.1-7.8,18.7-10.7
		c0.9-0.3,1.8-0.6,2.8-0.8c0.8-0.1,1.5-0.1,2.3,0c0.2,0,0.5,0.1,0.7,0.2c0.3,0.1,0.6,0.3,0.9,0.5c0.2,0.2,0.4,0.4,0.6,0.6
		c0.1,0.1,0.1,0.2,0.2,0.3c0,0,0-0.1-0.1-0.1c0,0,0,0,0,0c0,0,0,0,0,0c0-0.1-0.1-0.2-0.1-0.2c0.3,0.6,0.5,1.1,0.5,1.8
		c0-0.1,0-0.2,0-0.4c0.1,0.7,0,1.3-0.1,2c0-0.1,0-0.2,0-0.3c-0.2,0.7-0.4,1.4-0.6,2.2c-0.8,1.8-1.8,3.4-2.8,5.1c0,0,0,0,0,0
		c2-2,4.1-3.9,5.3-6.4c0.9-1.7,1.2-3.9,0.4-5.6c-0.7-1.6-2-2.8-3.5-3.5c-0.6-0.3-1.1-0.5-1.7-0.6c0.6-0.4,1.2-0.9,1.8-1.3
		c9.8-7,19.2-14.5,28.3-22.5c8.4-7.4,16.6-15.1,25-22.5c3.4-3.1,7-6,10.7-8.8c5.9-4.4,11.9-8.7,18.6-11.8c3.1-1.2,6.3-2.3,9.5-3
		c3.5-0.8,7.1-1.5,10.7-2.1c8.6-1.1,17.3-1.5,26-1.6c0,0,0,0,0,0c-5.8-0.7-11.7-1.4-17.5-1.9c-5.3-0.5-10.6-0.9-15.9-0.9
		C262,237.9,261.4,237.9,260.8,237.9L260.8,237.9L260.8,237.9z M232.5,258.3c-0.2,0.1-0.3,0.3-0.5,0.4
		C232.1,258.6,232.3,258.4,232.5,258.3L232.5,258.3L232.5,258.3z"/>
	<path class="st1" d="M311.3,235.9c4.7,1.4,9.3,3.1,13.9,4.8c4.6,1.7,9.1,3.4,13.6,5.3c11.8,5.1,22.7,11.9,33,19.6
		c11.2,8.9,21.1,19.2,32.1,28.2c5.5,4.4,11.1,8.7,16.8,12.8c4.6,3.3,9.4,6.5,14.3,9.3c5.3,3,10.7,5.9,16.2,8.5
		c5.5,2.6,11.2,4.9,16.9,6.9c11.4,3.9,23,7.4,34.1,12c0,0,0,0,0,0c-5.6-6.3-11.9-12-18.6-17.3c-6.4-5-13-9.8-19.5-14.6
		c-2.5-2-4.9-3.9-7.4-5.8c-8.8-7.3-17.7-14.3-26.5-21.6c-10.1-8.4-20.6-16.5-31.5-23.8c-1.6-1.1-3.1-2.1-4.7-3.1
		c-2.5-1.7-5.3-3.1-8-4.5c-3.4-1.8-6.9-3.3-10.4-4.8c-5.5-2.3-11.2-4.3-17-5.9c-6.3-1.7-12.8-2.7-19.3-3.5
		c-4.5-0.5-9.1-0.9-13.6-1.3C320.9,236.6,316.1,236.2,311.3,235.9C311.3,235.9,311.3,235.9,311.3,235.9L311.3,235.9L311.3,235.9z"/>
	<path class="st1" d="M182.3,347.1c-1.2,1.2-2.4,2.4-1.1,4c0.8,0.9,1.6,1.8,2.5,2.7c2.1,2,4.6,3.5,7.1,4.9c0,0,0,0,0,0
		c-1.3-1.9-2.7-3.6-4.3-5.2c-1.4-1.5-3.1-2.5-4.7-3.7c-0.1-0.1-0.1-0.1-0.2-0.2c0-0.1,0-0.1-0.1-0.2c0-0.1,0-0.2,0-0.3
		c0.1-0.5,0.3-0.9,0.5-1.4c0,0,0,0,0,0C182.1,347.6,182.2,347.4,182.3,347.1C182.3,347.1,182.3,347.1,182.3,347.1
		C182.3,347.1,182.3,347.1,182.3,347.1L182.3,347.1L182.3,347.1z"/>
	<path class="st1" d="M135.1,298.3c-1.3,0.2-2.4,0.6-3.5,1.2c-1.4,0.6-2.8,1.5-4.1,2.3c-2.2,1.3-4.2,2.9-6.2,4.5
		c-2,1.6-4,3.4-5.8,5.3c-0.9,1-1.9,2-2.7,3.1c-0.4,0.5-0.8,1-1.2,1.5c-1,1.1-1.3,2.3-1,3.7c0.4,2.1,3,2.9,4.7,1.9
		c2.8-1.6,5.3-3.8,7.9-5.8c2-1.6,4-3.3,6-4.9c4.3-3.7,8.4-7.5,12.1-11.8c0,0,0,0,0,0c-0.8,0.6-1.7,1.2-2.6,1.8
		c0.1-0.2,0.2-0.5,0.3-0.8c0.2-0.7-0.2-1.5-0.9-1.7c-0.7-0.2-1.2-0.2-1.8-0.2C135.8,298.2,135.5,298.2,135.1,298.3L135.1,298.3
		L135.1,298.3z M136.9,302c-2.1,1.3-4.2,2.4-6.4,3.6c1.1-0.9,2.1-1.9,3.2-2.7c0.1,0,0.1-0.1,0.2-0.1
		C134.9,302.6,135.9,302.3,136.9,302L136.9,302L136.9,302z"/>
	<path class="st1" d="M382.4,273c0.6,0.6,1.1,1.2,1.6,1.8c0,0,0,0,0,0c0.4,0.5,0.7,1,0.9,1.6c0.6,1.6,0.9,3.1,1.2,4.8
		c0.3,3,0.4,6.1,0.1,9.1c-0.6,3.9-1.8,7.7-3.3,11.3c-1.6,3.7-3.6,7.2-6.1,10.5c-2.1,2.6-4.5,5-7.1,7.2c-2.2,1.6-4.6,2.9-7.1,4
		c-11.9,4.8-24.6,6.6-37.2,8.5c-2.8,0.3-5.6,0.6-8.4,0.9c-2.4,0.3-4.9,0.4-7.3,0.5c-4.1,0.2-8.2,0.5-12.3,0.5
		c-7.9,0-15.8-0.3-23.6-1.3c-5.7-0.9-11.3-2.2-16.7-4.3c-6.7-3-12.8-7.2-19-11c-4.5-2.8-9-5.4-13.2-8.4c-1-0.9-2-1.8-2.9-2.8
		c-0.3-0.4-0.5-0.8-0.7-1.2c0.2-1,0.2-2-0.1-2.8c-0.7-1.8-1.8-3.2-3.8-3.8c-2.3-0.6-5,0.4-6.1,2.5c-0.3,0.5-0.5,1.1-0.7,1.6
		c-0.7-1.5-1.8-2.5-3.5-2.9c-1.9-0.4-4,0.7-5.4,2c-1.3,1.2-2.2,2.6-2.3,4.4c-0.1,1.8,0.4,3.5,1.2,5.1c0.9,1.6,2.5,2.8,4.2,3.5
		c1.9,0.7,3.6,0.7,5.5,0.4c0.5-0.1,1-0.2,1.4-0.4c0.3,0.7,0.7,1.4,1.1,2.1c1,2.6,2,5.1,3,7.7c0,0,0,0,0,0c-0.3-1.5-0.7-3.1-1-4.6
		c1.9,2.6,4,5.1,6.1,7.5c3.6,4.1,7.5,8.2,11.6,11.9c5,4.6,10.3,8.9,16.3,12c4.2,2.1,8.6,3.8,13.1,5c5.1,1.4,10.4,2.1,15.6,2.7
		c8.6,0.9,17.3,0.7,25.9-0.3c4.3-0.5,8.5-1.4,12.8-2.1c2.6-0.5,5.2-1.2,7.8-1.9c2.5-0.7,5-1.3,7.5-2.1c2.8-0.9,5.6-1.7,8.3-2.7
		c3.1-1.2,6.3-2.4,9.4-3.6c7.5-2.9,14.8-6.7,21.3-11.4c6.6-4.8,11.5-11.3,14.8-18.7c3.2-7.2,4.9-15.3,4.9-23.2
		c0-3.6-0.8-7.2-1.9-10.6c-0.9-3-2.2-6-4.7-7.9C383.2,273.6,382.8,273.3,382.4,273C382.4,273,382.4,273,382.4,273
		C382.4,273,382.3,273,382.4,273L382.4,273L382.4,273z M384.8,276.3C384.8,276.3,384.8,276.3,384.8,276.3
		C384.8,276.3,384.8,276.3,384.8,276.3L384.8,276.3L384.8,276.3z M384.8,276.4C384.9,276.4,384.9,276.4,384.8,276.4
		C384.9,276.4,384.9,276.4,384.8,276.4L384.8,276.4L384.8,276.4z M206.8,303.3c0.1,0,0.1,0,0.2,0c0.1,0.1,0.1,0.1,0.2,0.2
		c0.6,0.9,1.1,1.7,1.5,2.7c0.1,0.1,0.1,0.3,0.2,0.4c0,0,0,0.1,0,0.1c-0.1,0.1-0.3,0.3-0.4,0.4c-0.2,0.1-0.4,0.3-0.7,0.4
		c-0.2,0.1-0.4,0.1-0.6,0.2c-0.1,0-0.2,0-0.3,0c-0.2,0-0.4-0.1-0.6-0.2c-0.1,0-0.2-0.1-0.2-0.1c-0.2-0.2-0.4-0.4-0.5-0.6
		c-0.1-0.1-0.2-0.3-0.2-0.4c-0.1-0.3-0.2-0.6-0.3-0.9c0-0.1,0-0.2,0-0.3c0,0,0,0,0,0c0.1-0.2,0.2-0.4,0.4-0.6
		c0.3-0.3,0.6-0.6,0.9-0.9c0.1-0.1,0.2-0.1,0.4-0.2C206.6,303.4,206.7,303.3,206.8,303.3C206.8,303.3,206.8,303.3,206.8,303.3
		L206.8,303.3L206.8,303.3z M205.2,304.6c-0.1,0.1-0.1,0.3-0.2,0.4C205,304.9,205.1,304.7,205.2,304.6L205.2,304.6L205.2,304.6z
		 M204.9,305.3C204.9,305.3,204.9,305.3,204.9,305.3c0,0.1,0,0.3-0.1,0.4C204.9,305.6,204.9,305.4,204.9,305.3L204.9,305.3
		L204.9,305.3z M206.3,307.6c0.1,0,0.2,0,0.3,0c0,0,0,0-0.1,0c0,0,0,0,0.1,0c0,0,0,0,0,0c0,0,0,0,0,0c0.1,0,0.2,0.1,0.3,0.1
		c-0.1,0-0.2-0.1-0.3-0.1C206.5,307.6,206.4,307.6,206.3,307.6L206.3,307.6L206.3,307.6z M275.4,332.6c0.1,0,0.3,0,0.4,0.1
		C275.7,332.7,275.6,332.7,275.4,332.6L275.4,332.6L275.4,332.6z M206.5,307.7C206.5,307.7,206.5,307.7,206.5,307.7
		C206.5,307.7,206.5,307.7,206.5,307.7C206.5,307.7,206.5,307.7,206.5,307.7C206.5,307.7,206.5,307.7,206.5,307.7L206.5,307.7
		L206.5,307.7z"/>
	<path class="st1" d="M65,284.7c10,5.4,20,10.9,30.4,15.3c5.8,2.5,11.7,4.8,17.8,6.7c5.8,1.9,11.8,2.9,17.8,3.6
		c3.2,0.4,6.4,0.4,9.6,0.5c3.5,0.1,6.9,0.2,10.4,0.3c6.4,0.2,12.8,0.3,19.1,1c1,0.2,2,0.4,3.1,0.5c0.8,0.1,1.5-0.1,2.3-0.2
		c2.1-0.3,3.9-2.5,4.5-4.5c0.3-1.1,0.3-2.4,0-3.6c0,0,0,0,0,0c0.8-0.2,1.7-0.3,2.5-0.5c1.1-0.3,2.1-0.8,3.1-1.2
		c-0.1,0.6-0.2,1.3-0.2,1.9c0,1,0.4,1.8,1,2.7c0.6,0.9,1.3,1.4,2.2,1.9c1.3,0.9,3.1,1,4.6,1.1c1.1,0,2.3-0.2,3.3-0.6
		c0.6,0.4,1.2,0.8,1.8,1.2c0.8,0.5,1.7,0.8,2.7,1c1.2,0.3,2.5,0,3.7-0.3c2.7-0.7,4-2.9,4.8-5.4c0.9-2.8,0.1-5.6-1.1-8.1
		c-1.1-2.3-3.4-4.2-5.8-5c-0.4-0.8-0.8-1.4-1.5-2.2c-0.6-0.8-1.6-1.7-2.5-2.2c-1.6-0.8-3.2-1.4-5.1-1.5c-2.5-0.1-4.8,0.4-7,1.4
		c-2.2,1-4.1,2.5-5.7,4.3c-0.8,0.9-1.5,1.9-2.2,2.8c-0.5,0-0.9,0.1-1.4,0.2c-1.4,0.2-2.7,0.8-3.9,1.5c-0.7,0.4-1.3,0.9-1.9,1.5
		c-1.3-0.2-2.6-0.3-3.9-0.5c-2.4-0.2-4.9-0.3-7.3-0.3c-5-0.1-10.1,0.1-15.1,0.2c-4.9,0.2-9.7,0.5-14.6,0.3c-5-0.1-10-0.6-15-1.2
		c-8.5-1.3-17-2.8-25.3-4.9C81.8,290.3,73.3,287.7,65,284.7C65,284.7,65,284.7,65,284.7C65,284.7,65,284.7,65,284.7L65,284.7
		L65,284.7z M179,295.3c-0.1,0.1-0.2,0.2-0.3,0.4C178.8,295.5,178.9,295.4,179,295.3L179,295.3L179,295.3z M179.6,295.4
		c-0.1,0.1-0.3,0.1-0.4,0.2c0,0,0,0,0,0C179.3,295.6,179.4,295.5,179.6,295.4L179.6,295.4L179.6,295.4z M178.6,295.7L178.6,295.7
		C178.5,295.7,178.5,295.7,178.6,295.7C178.5,295.7,178.5,295.7,178.6,295.7L178.6,295.7L178.6,295.7z M191.7,301.7
		c-0.1,0.1-0.1,0.1-0.2,0.2C191.5,301.8,191.6,301.8,191.7,301.7L191.7,301.7L191.7,301.7z M191.9,301.7L191.9,301.7
		c-0.1,0.2-0.1,0.3-0.2,0.5C191.8,302,191.8,301.9,191.9,301.7L191.9,301.7L191.9,301.7z M191.1,301.9c0,0-0.1,0-0.1,0
		C191,301.9,191,301.9,191.1,301.9L191.1,301.9L191.1,301.9z M203.3,303.5C203.3,303.5,203.3,303.6,203.3,303.5
		C203.3,303.6,203.3,303.5,203.3,303.5C203.3,303.5,203.3,303.5,203.3,303.5L203.3,303.5L203.3,303.5z M202.6,304.8
		c0.3-0.4,0.5-0.8,0.7-1.2c0.1,0.1,0.1,0.2,0.2,0.4c0.1,0.2,0.1,0.3,0.1,0.5c0,0.7,0,1.4,0,2c0,0.2-0.1,0.3-0.1,0.5
		c-0.1,0.1-0.1,0.2-0.2,0.2c-0.2,0.2-0.4,0.4-0.6,0.5c-0.3,0.2-0.6,0.4-0.9,0.5c0.2-0.1,0.3-0.1,0.5-0.2c-0.4,0.2-0.8,0.3-1.2,0.4
		c-0.2,0-0.4,0-0.6,0c-0.4-0.1-0.8-0.2-1.2-0.3C200.7,307.3,201.6,306,202.6,304.8L202.6,304.8L202.6,304.8z M180.7,304
		c-0.1,0-0.2,0.1-0.3,0.1C180.5,304.1,180.6,304,180.7,304L180.7,304L180.7,304z M203.4,307.1c-0.1,0.2-0.1,0.3-0.2,0.5
		C203.3,307.4,203.4,307.2,203.4,307.1C203.4,307.1,203.4,307.1,203.4,307.1L203.4,307.1L203.4,307.1z M201.5,308.4
		c-0.1,0-0.1,0-0.2,0C201.3,308.5,201.4,308.4,201.5,308.4L201.5,308.4L201.5,308.4z M200.2,308.4c0.1,0,0.1,0,0.2,0
		C200.4,308.5,200.3,308.5,200.2,308.4L200.2,308.4L200.2,308.4z"/>
	<path class="st1" d="M121.9,253.2c3,5,6.6,9.7,11,13.5c4.5,3.9,9.3,7.5,14.4,10.6c5.3,3.2,10.9,5.9,16.7,8.1
		c5.5,2.1,11.2,3.6,17,4.8c4.2,0.8,8.4,1.5,12.6,2c-1.5,0.3-3.1,0.6-4.6,1c0,0,0,0,0,0c2.5-0.2,5.1-0.4,7.6-0.6
		c0.5,0.1,0.9,0.1,1.4,0.2c2.8,0.3,5.6,0.6,8.3,0.9c1.5,0.1,3,0.2,4.5,0.3c1.1,0.1,2.1,0,3.2,0c1.5-0.1,3.1-0.3,4.5-1.2
		c0.7-0.5,1.5-1.4,1.3-2.4c-0.1-0.9-0.3-2-1.3-2.5c-0.7-0.3-1.3-0.8-2.1-0.8c-0.3,0-0.6,0-0.9,0.1c-5.7-1.7-11.3-3.8-17.1-5.3
		c-5.5-1.5-11.1-2.9-16.7-4.2c-5.6-1.3-11.3-2.4-16.9-4c-5.6-1.7-11.3-3.3-16.7-5.4c-1.5-0.6-2.9-1.2-4.4-1.7
		c-2.7-1.2-5.5-2.3-8.1-3.7c-2.9-1.5-5.9-3-8.5-5C125.4,256.4,123.6,254.9,121.9,253.2C121.9,253.2,121.9,253.2,121.9,253.2
		C121.9,253.2,121.9,253.2,121.9,253.2L121.9,253.2L121.9,253.2z"/>
	<path class="st1" d="M290.4,233c-0.2,0.7-0.4,1.4-0.5,2c-0.2,0.8-0.3,1.7-0.4,2.5c-0.3,2-0.6,3.9-1,5.9c-0.8,4.6-1.6,9.4-3.3,13.8
		c-0.8,1.6-1.7,3.1-2.8,4.5c-2.2,2.6-4.7,4.8-7.3,7c0.1-0.1,0.2-0.2,0.3-0.2c-1.1,0.9-2.2,1.7-3.4,2.5c-1.7,1.1-3.4,2.2-5.1,3.2
		c-3.2,1.8-6.5,3.3-9.8,4.8c-3.2,1.2-6.5,2.4-9.8,3.3c-1.7,0.5-3.4,1-5.2,1.4c-1.7,0.4-3.5,0.7-5.1,1.4c-0.8,0.4-0.9,1.6-0.3,2.1
		c0.2,0.2,0.4,0.3,0.6,0.3c0,0,0,0,0,0c2.8,0.5,5.7,0,8.4-0.3c0.5,0,0.9-0.1,1.4-0.1c3,0.1,6,0.4,9,0.7c0,0,0,0,0,0c0,0,0,0,0,0
		c0,0,0,0,0.1,0c0,0,0,0,0,0c2.3,0.3,4.6,0.7,6.9,1c0,0,0,0,0,0c-3.8-0.9-7.6-1.7-11.4-2.3c0.9-0.2,1.9-0.3,2.8-0.5
		c2.9-0.6,5.8-1.2,8.8-2c3-0.7,5.8-1.8,8.7-2.9c3-1.1,5.9-2.6,8.8-4.1c1.2-0.6,2.4-1.3,3.6-2c0.9-0.5,1.9-1.1,2.7-1.7
		c0.3,0.6,0.6,1.2,1,1.7c0.3,0.5,0.7,0.9,1.1,1.2c0.6,0.5,1.5,1.1,2.3,1.2c1.8,0.4,3.4,0.3,5.2,0.2c0.9-0.1,1.9-0.2,2.8-0.3
		c2-0.2,3.9-0.2,5.9,0c4.2,0.9,8.4,2.1,12.5,3.2c4.2,1.1,8.4,2,12.7,2.9c4.2,0.9,8.4,1.6,12.6,2.2c1.3,0.2,2.5,0.4,3.8,0.5
		c1.4,0.1,3,0,4.3-0.7c1.4-0.7,2.2-1.6,3.1-2.9c0.5-0.8,0.9-1.9,1.1-2.9c0.2-0.6,0.3-1.1,0.4-1.7c0.2-0.8,0.5-1.6,0.8-2.4
		c1.5-3.1,3.5-5.8,5.6-8.5c3.8-4.9,7.6-9.9,10.6-15.4c0.7-1.3,1.3-2.7,1.8-4.1c0.5-1.4,1.1-2.8,1.5-4.3c0.9-3,1.6-6.1,1.7-9.3
		c0,0,0,0,0,0c-0.2,0.7-0.4,1.3-0.7,2c-1.7,3.8-4,7.2-6.5,10.6c-1.8,2.3-3.8,4.4-5.8,6.5c-2.3,2.3-4.6,4.5-6.9,6.8
		c-2.7,2.7-5.4,5.3-7.5,8.5c-2.1,3.1-2.2,6.9-3.2,10.4c-2.8,0.1-5.6-0.2-8.3-0.6c-7.5-1.1-14.8-3-22-5.3c-3.7-1.2-7.3-2.5-11.1-3.3
		c-2.1-0.4-4.2-0.6-6.3-0.5c-1.6,0.1-3.3,0.4-4.9,0.7c0.2-1.3,0.5-2.5,0.9-3.7c3.3-4.1,5.1-9.2,6.7-14.1c0.8-2.5,1.4-5.2,2-7.8
		c0.3-1.3,0.6-2.7,0.8-4c0.4-2,0.8-4.1,0.8-6.1c-0.1-4.2-3.4-7.7-7.7-7.7C294.4,226.3,290.8,229.2,290.4,233L290.4,233L290.4,233z
		 M377.1,236.1C377.1,236.1,377.1,236.1,377.1,236.1C377.1,236.1,377.1,236.1,377.1,236.1L377.1,236.1L377.1,236.1z M306,277.4
		c0.1,0,0.2,0,0.3,0C306.1,277.4,306.1,277.4,306,277.4L306,277.4L306,277.4z M347.2,278.8C347.2,278.9,347.2,278.9,347.2,278.8
		c-0.2,0.1-0.5,0.1-0.7,0.1C346.8,278.9,347,278.9,347.2,278.8L347.2,278.8L347.2,278.8z M256.3,287.8
		C256.3,287.8,256.3,287.8,256.3,287.8C256.3,287.8,256.2,287.8,256.3,287.8C256.3,287.8,256.3,287.8,256.3,287.8L256.3,287.8
		L256.3,287.8z"/>
	<path class="st1" d="M528.2,253.1c0.1,0.1,0.2,0.3,0.3,0.4c0,0.1,0.1,0.3,0.1,0.4c0,0.1-0.1,0.3-0.1,0.4c-0.1,0.1-0.2,0.3-0.3,0.4
		c-0.6,0.5-1.3,0.8-2,1.1c-2.7,1.1-5.6,1.7-8.4,2.3c-3,0.6-6.1,1.3-9.2,1.9c-6.4,1.3-12.8,2.4-19.2,3.5c-2.7,0.4-5.4,0.7-8.1,1.1
		c-3.2,0.4-6.4,0.8-9.7,1.2c-6.3,0.8-12.7,1.4-19,2.3c-5.6,0.8-11.2,1.7-16.8,2.7c-11.6,2-23.1,4.3-34.6,6.3
		c-2.9,0.5-5.8,0.9-8.6,1.4c-3,0.4-5.9,0.5-9,0.2c-1.7-0.1-3.4-0.4-5.1-0.6c0,0,0,0,0,0c3,2.3,5.9,4.7,9.4,6.2
		c4.2,1.8,8.6,2.7,13.1,3.6c6.2,1.2,12.7,1.6,19,1.8c12,0.4,24.3-0.5,36.2-2.4c12.4-1.9,24.4-5.5,36-9.9c5.7-2.2,11.1-4.9,16.5-7.7
		c4.8-2.5,9.7-5.3,14.1-8.5C524.4,259.9,531.4,255.3,528.2,253.1C528.2,253.1,528.2,253.1,528.2,253.1
		C528.2,253.1,528.2,253.1,528.2,253.1L528.2,253.1L528.2,253.1z"/>
	<path class="st1" d="M461.3,290.5c-3.1,0.8-6.1,2-8.8,3.7c-3.3,2.1-5.4,5.5-7.1,8.9c0,0,0,0,0,0c2.4-1.5,4.9-3.1,7.5-4.3
		c2.5-0.9,5-1.6,7.6-2.1c2.2-0.5,4.3-1.1,6.6-1.5c0.4,0,0.8-0.1,1.2-0.1c0.3,0.1,0.6,0.1,0.8,0.2c0.9,0.4,1.8,1,2.7,1.6
		c0.1,0.1,0.2,0.2,0.3,0.2c0.3,0.5,0.6,1,0.9,1.5c0.6,1.8,1.1,3.6,1.4,5.4c0,0,0,0,0,0c0.3-1.4,0.5-2.9,0.6-4.3
		c0.1-1.2,0-2.3-0.1-3.4c-0.2-1.1-0.9-2.1-1.6-3c-0.8-1-1.7-1.8-2.7-2.5c-1.2-0.9-2.7-0.9-4.1-1c-0.2,0-0.5,0-0.7,0
		C464.3,289.9,462.7,290.2,461.3,290.5L461.3,290.5L461.3,290.5z M469.3,295.5c0.1,0,0.2,0.1,0.3,0.1
		C469.5,295.6,469.4,295.5,469.3,295.5L469.3,295.5L469.3,295.5z"/>
	<path class="st1" d="M395.8,344.2c-2.8,0.5-5.2,1.6-7.7,3.1c-1.4,0.9-2.8,1.7-4.1,2.6c0,0,0,0,0,0c0.4-0.2,0.8-0.4,1.3-0.6
		c0,0,0,0,0,0c2.5-1,5-2.1,7.7-2.6c1.3-0.1,2.5-0.1,3.7,0.1c1.8,0.4,3.5,1,5.2,1.7c2.6,1.2,5,2.5,7.4,3.9c-1.8,0.2-3.5,0.4-5.3,0.7
		c-3.2,0.4-6.4,0.9-9.6,1.6c-3.3,0.8-6.6,1.6-9.9,2.5c-2.2,0.6-4.4,1.3-6.6,2c-2,0.7-3.9,1.4-5.8,2.2c-1.5,0.6-2.9,1.6-3.5,3.1
		c-0.1,0.3,0,0.8,0.3,1c0.9,0.8,2.2,0.9,3.5,0.9c1,0,2,0,3,0c0,0,0,0,0,0c-1.3-0.4-2.5-0.8-3.8-1.3c-0.1,0-0.1-0.1-0.2-0.1
		c0.3-0.1,0.6-0.2,0.9-0.2c5-0.6,10.1-0.4,15.2-0.4c2.8,0,5.6,0.1,8.3,0.2c5.5,0.1,11,0.7,16.5,1.3c1.7,0.3,3.5,0.5,5.2,0.9
		c2.5,0.6,5,1.1,7.5,1.8c3.6,1,7.2,2.2,10.7,3.5c0.2,0.2,0.5,0.4,0.7,0.6c1.1,0.9,2.2,1.7,3.2,2.6c1.8,1.4,3.7,3.1,5.7,4
		c2.1,1,4.5,1.5,6.8,0.6c0.5-0.2,1.1-0.4,1.6-0.7c1-0.6,1.8-1.4,2.4-2.4c0.6-0.8,1-1.8,1.2-2.8c0.1-0.6,0.2-1.3,0.3-1.9
		c-0.1-0.9-0.2-1.8-0.4-2.8c-0.1-0.2-0.1-0.3-0.2-0.5c-0.3-0.8-0.6-1.5-1-2.3c-0.5-1-1.3-1.8-2-2.6c-0.4-0.5-1-1-1.5-1.4
		c-1.4-1.2-2.9-2.4-4.5-3.3c-1.3-0.7-2.6-1.3-4-1.9c-3.1-1.3-6.3-2.5-9.6-3.2c-3.4-0.8-6.9-1.5-10.3-1.8c-1-0.5-2-1.1-2.9-1.6
		c-4.9-2.6-10.1-4.7-15.5-6.1c-2.3-0.6-4.8-1-7.3-1C397.5,343.9,396.6,344,395.8,344.2L395.8,344.2L395.8,344.2z M372.6,364.9
		c-0.1,0-0.2,0-0.3,0C372.4,364.9,372.5,364.9,372.6,364.9L372.6,364.9L372.6,364.9z M371.4,365.2c0,0,0.1,0,0.1,0
		C371.5,365.2,371.4,365.2,371.4,365.2L371.4,365.2L371.4,365.2z"/>
	<path class="st1" d="M190,361.4c-4.4,0.8-8.8,1.9-13.1,3.1c-4.4,1.2-8.8,2.4-13,4.2c0,0,0,0,0,0c3-0.3,6-0.2,9-0.1
		c1.5,0,3,0.1,4.5,0.1c4.7,0,9.4-0.3,14-1c4.3-0.6,8.6-1.8,12.8-2.9c4.6-1.3,9.2-2.8,13.6-4.6c0,0,0,0,0,0c-3.1-0.2-6.2-0.3-9.3-0.3
		C202.4,359.8,196.2,360.3,190,361.4L190,361.4L190,361.4z"/>
	<path class="st1" d="M181.1,377.5c0,3.1,2.6,5.7,5.7,5.7c3.1,0,5.7-2.6,5.7-5.7s-2.6-5.7-5.7-5.7
		C183.7,371.7,181.1,374.3,181.1,377.5L181.1,377.5L181.1,377.5z"/>
</g>
</svg>
