<?xml version="1.0" encoding="utf-8"?>
<!-- Generator: Adobe Illustrator 22.0.1, SVG Export Plug-In . SVG Version: 6.00 Build 0)  -->
<!DOCTYPE svg PUBLIC "-//W3C//DTD SVG 1.1//EN" "http://www.w3.org/Graphics/SVG/1.1/DTD/svg11.dtd">
<svg version="1.1" id="Layer_1" xmlns="http://www.w3.org/2000/svg" xmlns:xlink="http://www.w3.org/1999/xlink" x="0px" y="0px"
	 viewBox="0 0 1280 760.3" style="enable-background:new 0 0 1280 760.3;" xml:space="preserve">
<style type="text/css">
	.st0{fill:#2A2B2B;}
	.st1{fill:#D36818;}
	.st2{fill:#F68F37;}
	.st3{fill:#FFFFFF;}
	.st4{fill:#26406D;}
	.st5{fill:none;stroke:#4C5457;stroke-miterlimit:10;}
	.st6{fill:#FDFEFF;}
	.st7{fill:#C1C1C1;}
	.st8{fill:#3D3D3D;}
	.st9{opacity:0.48;enable-background:new    ;}
	.st10{opacity:0.23;enable-background:new    ;}
	.st11{fill:url(#SVGID_1_);}
	.st12{opacity:0.35;enable-background:new    ;}
	.st13{fill:#E61D30;}
	.st14{fill:#9E1226;}
	.st15{fill:url(#SVGID_2_);}
	.st16{fill:url(#SVGID_3_);}
	.st17{fill:url(#SVGID_4_);}
	.st18{fill:none;}
	.st19{fill:#CDDC29;}
	.st20{fill:url(#SVGID_5_);}
	.st21{fill:#F7941E;}
	.st22{fill:#CC1E0D;}
</style>
<g>
	<path class="st0" d="M325.3,302.2c0,0.1-0.8,1.3-0.4,1.7s1.2,0.6,1.6-0.8c0.4-1.4,2.9-7,1.7-11.9c-0.1-0.7,0.4-1.7,0.4-1.7
		s2.1-1.6,1.5-2.3c-0.6-0.6-1.5-0.3-1.9,0.3c-1.2-1.8-1.9-2.5-3-2.3c-1.1,0.1-0.7,1.5-0.4,1.9c-2.2-0.4-3.3,0.3-3.1,1
		c0.1,0.6,1.1,1.6,2.4,1.3c-0.6,0.7-1.1,2.3,2,0.8C327.1,290.9,329.2,293.1,325.3,302.2z"/>
	
		<rect x="232.7" y="244.6" transform="matrix(0.9974 -7.164187e-02 7.164187e-02 0.9974 -18.3467 22.5357)" class="st1" width="144.6" height="44.8"/>
	<path class="st2" d="M316.8,369.8c0,0-1.1-0.2-1.5,0.8c-0.4,1-0.9,4.5-0.9,4.5s-0.9,0.4-0.4,1.3c0.6,0.8,2.3,2.3,2.9,4.2
		c0.4,0.9,2.7,2.8,7.7,1.8c2.2-0.4,3.3-1.4,3.1-2c-0.1-0.7,0-1.2-0.4-1.4c-0.3-0.8-0.7-2.2-2-3.2c-1.4-1.1-3.5-3.1-3.7-4.2
		C321.4,371.2,320.1,369.9,316.8,369.8z"/>
	<path class="st2" d="M285.3,369.4c0,0-1.1-0.2-1.5,0.8c-0.4,1-0.9,4.5-0.9,4.5s-0.9,0.4-0.4,1.3c0.6,0.8,2.3,2.3,2.9,4.2
		c0.4,0.9,2.7,2.8,7.7,1.8c2.2-0.4,3.3-1.4,3.1-2c-0.1-0.7,0-1.2-0.4-1.4c-0.3-0.8-0.7-2.2-2-3.2c-1.4-1.1-3.5-3.1-3.7-4.2
		C289.8,370.8,288.6,369.5,285.3,369.4z"/>
	<path class="st0" d="M290.1,347.7c-0.2,0.3-0.1,9.5,0.4,13.3c-1.9,3-4.2,4.3-5.2,9.1c0.4,0.6,1.7,0.7,2.6,0.4
		c0.9-0.4,4.2-5.1,4.9-5.8c0.7-0.8,2.9-2.7,2.9-3.9c-0.3-1.6,0.3-11.2,0-11.3C295.4,349.5,290.1,347.7,290.1,347.7z"/>
	<path class="st0" d="M310.5,349.8c0.1,0.2,4.9,10.3,7.5,11.5c-0.4,2-1.1,6.1-1.3,9.4c0.6,1.2,2.1,1.1,3,0.5
		c0.6-0.9,2.5-7.2,2.5-7.8c0-1.2,0.2-3.7-0.6-5.1c-1.1-1.5-6.2-10.2-6.2-10.2L310.5,349.8z"/>
	
		<ellipse transform="matrix(0.9963 -8.637068e-02 8.637068e-02 0.9963 -26.7587 27.3541)" class="st2" cx="302.7" cy="322.9" rx="31.3" ry="29.4"/>
	<path class="st1" d="M274.9,325.3c-1.4-15.8,10-29.8,25.6-31.7c-0.3,0-0.7,0-1,0c-17.1,1.5-29.9,15.8-28.5,32
		c1.4,16.2,16.4,28.1,33.5,26.6c0.7,0,1.3-0.1,1.9-0.2C290.4,353.4,276.3,341.4,274.9,325.3z"/>
	<g>
		<path class="st3" d="M328.4,321.4c0.4,3.3-2,6.4-5.4,6.7c-3.3,0.4-6.4-2-6.7-5.4c-0.4-3.3,2-6.4,5.4-6.7
			C325,315.7,328,318.1,328.4,321.4"/>
		<polygon class="st3" points="283,321.1 285.9,320.8 286.8,328.9 292,328.3 292.3,331 284.1,331.8 		"/>
		<path class="st3" d="M292.6,326.1l-0.7-6l3-0.3l0.7,5.9c0.2,1.5,1,2.2,2.2,2.1c1.2-0.1,1.9-0.9,1.7-2.4l-0.7-6l3-0.3l0.7,5.9
			c0.4,3.5-1.4,5.2-4.5,5.6C295,330.9,293,329.5,292.6,326.1"/>
		<polygon class="st3" points="303.3,318.8 306.4,318.5 309.4,322.3 311.5,317.9 314.7,317.6 315.9,328.3 312.9,328.6 312.2,322.5 
			310,327 309.9,327 306.7,323.1 307.4,329.3 304.5,329.6 		"/>
		<polygon class="st3" points="304.8,331.7 307.4,331.4 307.5,332.1 305.7,332.3 305.8,332.8 307.3,332.6 307.4,333.3 305.9,333.5 
			305.9,334 307.6,333.8 307.7,334.6 305.1,334.9 		"/>
		<polygon class="st3" points="308.1,331.3 308.9,331.2 310.4,332.7 310.2,331 311.1,331 311.5,334.2 310.7,334.3 309.1,332.6 
			309.3,334.4 308.4,334.5 		"/>
		<polygon class="st3" points="311.9,330.9 314.5,330.6 314.5,331.3 312.8,331.5 312.9,332 314.4,331.8 314.5,332.5 313,332.7 
			313,333.2 314.8,333 314.9,333.8 312.2,334.1 		"/>
		<path class="st3" d="M315.1,330.5l1.5-0.2c0.5,0,0.8,0,1.1,0.2c0.2,0.1,0.3,0.4,0.4,0.7l0,0c0,0.5-0.2,0.8-0.6,1.1l0.9,1l-1,0.1
			l-0.7-0.9l0,0l-0.4,0l0.1,1l-0.9,0.1L315.1,330.5z M316.7,331.9c0.3,0,0.5-0.2,0.4-0.4l0,0c0-0.2-0.2-0.4-0.5-0.3l-0.6,0l0.1,0.8
			L316.7,331.9z"/>
		<path class="st3" d="M318.5,331.7L318.5,331.7c-0.1-0.9,0.6-1.8,1.5-1.9c0.6,0,1,0,1.4,0.3l-0.5,0.7c-0.2-0.2-0.5-0.2-0.8-0.2
			c-0.5,0-0.8,0.5-0.7,1l0,0c0,0.5,0.5,0.8,1,0.8c0.2,0,0.4-0.1,0.5-0.2l0-0.4l-0.7,0.1l-0.1-0.7l1.5-0.2l0.1,1.5
			c-0.3,0.3-0.7,0.6-1.4,0.7C319.4,333.3,318.6,332.7,318.5,331.7"/>
		<polygon class="st3" points="323.1,331.7 321.6,329.8 322.6,329.6 323.4,330.8 324,329.5 325,329.4 324,331.5 324.1,332.7 
			323.2,332.9 		"/>
	</g>
	<g>
		<path class="st4" d="M292.1,316.3c0,0-1.7,0.3-1.8,0.3c0,0-1.4,0.5-1.5,0.3c-0.1-0.1-1.8-2.2-1.8-2.2l-0.6-6.4l2.4-2.4l2.1-1.4
			l1.6,0.4l1.8,1.1l1,3.3l-0.1,2.6l-0.5,3.3l-0.7,1L292.1,316.3z"/>
		<path class="st3" d="M288.1,311.2c0-3.1,1.6-5.6,3.5-5.5c1.8,0,3.3,2.6,3.2,5.7c0,0.5,0,0.9-0.1,1.4c-0.1,1.4-0.7,2.6-1.5,3.2l0,0
			c0.6,0,1.1,0,1.7,0c0.9-1.4,1.5-3.3,1.5-5.4c0.1-4.5-2.3-8.1-5.3-8.2c-3,0-5.6,3.5-5.7,7.9c0,2.7,0.8,5.2,2.2,6.7
			c0.7-0.3,1.6-0.5,2.4-0.7C288.8,315.5,288,313.5,288.1,311.2z"/>
		<g>
			<path class="st0" d="M287.5,317.2L287.5,317.2c-1.5-1.6-2.3-4.1-2.3-6.7c0.1-4.5,2.7-8.1,5.8-8.1c3.1,0,5.6,3.8,5.5,8.3
				c0,2-0.6,4-1.5,5.4l0,0h-0.1c-0.5,0-1.1,0-1.6,0h-0.3l0.3-0.3c0.8-0.7,1.3-1.9,1.4-3.2c0.1-0.5,0.1-0.9,0.1-1.4
				c0-1.5-0.3-2.9-0.9-3.9c-0.6-1-1.4-1.6-2.2-1.6c-0.8,0-1.7,0.5-2.3,1.5c-0.7,1-1,2.4-1,3.9l0,0c0,2.2,0.7,4.2,1.9,5.1l0.2,0.2
				l-0.3,0c-0.8,0.2-1.6,0.4-2.4,0.7L287.5,317.2z M290.6,302.7c-2.8,0.2-5.1,3.6-5.2,7.8c0,2.5,0.7,5,2.1,6.5
				c0.7-0.2,1.4-0.4,2.1-0.6c-1.1-1-1.8-3-1.8-5.1c0-1.5,0.4-3,1.1-4c0.7-1.1,1.6-1.7,2.5-1.6c0.9,0,1.8,0.7,2.4,1.7
				c0.6,1.1,0.9,2.5,0.9,4c0,0.5,0,0.9-0.1,1.4c-0.1,1.3-0.6,2.4-1.3,3.1c0.4,0,0.9,0,1.3,0c0.9-1.5,1.5-3.3,1.5-5.2
				c0.1-4.4-2.2-8-5.2-8C290.9,302.7,290.8,302.7,290.6,302.7z"/>
		</g>
		<path class="st5" d="M293.6,316L293.6,316C293.7,316,293.7,316,293.6,316C293.7,316,293.7,316,293.6,316z"/>
		<g>
			<path class="st0" d="M286.7,318.3c-0.1,0-0.3,0-0.4-0.2c-0.1-0.2,0-0.4,0.2-0.5c1.7-0.9,3.7-1.5,5.8-1.7c1.5-0.2,3-0.2,4.5,0
				c0.2,0,0.3,0.2,0.3,0.4c0,0.2-0.2,0.3-0.4,0.3c-1.4-0.2-2.9-0.2-4.4,0c-2,0.2-3.8,0.8-5.5,1.6
				C286.8,318.2,286.8,318.2,286.7,318.3z"/>
		</g>
		<path class="st0" d="M291.6,308.1c-0.2-0.1-0.8,0-1.4,0.1c-1.2,0.5-2,2.1-2.1,4c0,1.8,0.7,3.4,1.8,4c0.2,0,0.5-0.1,0.7-0.1
			c0.6,0,1.1-0.1,1.7-0.1c0,0,0,0,0.1,0c0.7-0.7,1.2-1.9,1.5-3.2c0-0.1,0-0.3,0-0.4C293.9,310.2,292.9,308.5,291.6,308.1z"/>
	</g>
	<g>
		<path class="st4" d="M314,314.4c0,0-1.7,0.1-1.7,0.1s-1.4,0.3-1.5,0.1c-0.1-0.1-1.5-2.3-1.5-2.3l0.1-6.2l2.6-2l2.2-1.1l1.5,0.5
			l1.6,1.2l0.6,3.3l-0.4,2.4l-0.8,3.1l-0.7,0.8L314,314.4z"/>
		<path class="st3" d="M310.7,309.1c0.4-3,2.2-5.2,3.9-4.9c1.8,0.2,2.9,2.8,2.5,5.8c0,0.5-0.1,0.9-0.3,1.3c-0.2,1.3-0.9,2.4-1.7,3
			l0,0c0.6,0,1.1,0.1,1.6,0.2c1-1.3,1.8-3,2.1-5c0.6-4.2-1.4-8-4.3-8.3c-2.9-0.4-5.7,2.8-6.3,7c-0.3,2.6,0.2,5,1.4,6.6
			c0.7-0.2,1.5-0.3,2.4-0.4C311,313.3,310.4,311.3,310.7,309.1z"/>
		<g>
			<path class="st0" d="M309.6,314.8L309.6,314.8c-1.3-1.7-1.8-4.2-1.5-6.7c0.6-4.3,3.4-7.4,6.4-7.1c3,0.4,4.9,4.2,4.4,8.5
				c-0.2,1.9-1,3.7-2.1,5.1l0,0h0c-0.5-0.1-1-0.1-1.6-0.2l-0.3,0l0.3-0.2c0.8-0.6,1.5-1.6,1.7-2.9c0.1-0.4,0.2-0.8,0.3-1.3
				c0.2-1.4,0-2.8-0.4-3.8c-0.5-1-1.2-1.7-2-1.8s-1.6,0.3-2.3,1.2c-0.7,0.9-1.2,2.2-1.4,3.6l0,0c-0.3,2.1,0.2,4.1,1.3,5.1l0.2,0.2
				l-0.3,0C311.2,314.6,310.5,314.7,309.6,314.8L309.6,314.8z M314.1,301.2c-2.7,0-5.2,3-5.8,6.9c-0.3,2.4,0.2,4.8,1.4,6.4
				c0.7-0.1,1.4-0.3,2.1-0.4c-1-1.1-1.4-3-1.2-5.1c0.2-1.5,0.7-2.8,1.5-3.7c0.7-1,1.7-1.4,2.6-1.3c0.9,0.1,1.7,0.8,2.2,1.9
				c0.5,1.1,0.7,2.5,0.5,4c0,0.5-0.1,0.9-0.3,1.3c-0.2,1.2-0.8,2.2-1.6,2.9c0.4,0,0.8,0.1,1.2,0.2c1-1.3,1.7-3,2-4.9
				c0.6-4.2-1.3-7.9-4.1-8.2C314.3,301.2,314.2,301.2,314.1,301.2z"/>
		</g>
		<path class="st5" d="M315.5,314.3L315.5,314.3C315.6,314.3,315.6,314.2,315.5,314.3C315.6,314.2,315.5,314.2,315.5,314.3z"/>
		<g>
			<path class="st0" d="M308.7,315.7c-0.1,0-0.3-0.1-0.3-0.2c0-0.2,0-0.4,0.2-0.5c1.8-0.7,3.7-1,5.7-1c1.5,0,3,0.1,4.3,0.5
				c0.2,0,0.3,0.2,0.3,0.4c0,0.2-0.2,0.3-0.4,0.3c-1.3-0.3-2.7-0.5-4.1-0.5c-1.9,0-3.7,0.3-5.4,1
				C308.8,315.7,308.7,315.7,308.7,315.7z"/>
		</g>
		<path class="st0" d="M314.3,306.6c-0.3,0-0.8-0.1-1.4,0c-1.2,0.4-2.2,1.8-2.4,3.6c-0.2,1.7,0.3,3.3,1.3,4.1c0.2,0,0.5,0,0.7,0
			c0.6,0,1.1,0,1.6,0c0,0,0,0,0.1,0c0.7-0.7,1.4-1.7,1.7-3c0-0.1,0-0.2,0-0.4C316.3,308.9,315.6,307.1,314.3,306.6z"/>
	</g>
	<g>
		<g>
			<path class="st0" d="M293,344.5c-0.1,0-0.3,0-0.4-0.2c-0.1-0.2-0.1-0.5,0.1-0.7c0.1,0,2-1.5,2.1-4.4c0-0.3,0.2-0.5,0.5-0.5
				c0.3,0,0.5,0.2,0.5,0.5c0,3.4-2.3,5.1-2.4,5.2C293.2,344.5,293.1,344.5,293,344.5z"/>
		</g>
		<g>
			<path class="st0" d="M321.7,339.9c0,0-0.1,0-0.2,0c-0.1,0-2.5-0.8-3.5-3.7c-0.1-0.2,0-0.5,0.3-0.6s0.5,0,0.6,0.3
				c0.8,2.4,2.8,3,2.9,3c0.2,0.1,0.4,0.3,0.3,0.6C322.1,339.8,321.9,339.9,321.7,339.9z"/>
		</g>
		<path class="st0" d="M294.7,341.7c0.3,0,6.7,1.5,12.5,0.3c5.8-1.2,9.5-2.3,12.2-4.2c0.3,0.3,0.3,0.3,0.3,0.3s-4.4,9.6-12.6,10.3
			c-2.5,0-4.9,1-12.6-6C294.8,341.7,294.7,341.7,294.7,341.7z"/>
		<path class="st6" d="M298.9,343.4c-0.1,0-0.2,2.2,2.7,1.8c3.1-0.1,9.9-1,12.6-2c1.9-0.8,1.8-1.5,1.7-2.4
			C312.6,341.8,303.9,343.7,298.9,343.4z"/>
	</g>
	<circle class="st3" cx="289.7" cy="311.9" r="0.8"/>
	<circle class="st3" cx="290" cy="313.7" r="0.3"/>
	<circle class="st3" cx="311.8" cy="309.8" r="0.8"/>
	<path class="st0" d="M277.8,305.8c0,0.1,0.8,1.3,0.4,1.7s-1.2,0.6-1.6-0.8s-2.9-7-1.7-11.9c0.1-0.7-0.4-1.7-0.4-1.7
		s-2.1-1.6-1.5-2.3c0.6-0.6,1.5-0.3,1.9,0.3c1.2-1.8,1.9-2.5,3-2.3c1.1,0.1,0.7,1.5,0.4,1.9c2.2-0.4,3.3,0.3,3.1,1
		c-0.1,0.6-1.1,1.6-2.4,1.3c0.6,0.7,1.1,2.3-2,0.8C276,294.3,273.9,296.5,277.8,305.8z"/>
	<ellipse class="st0" cx="323.4" cy="287.5" rx="1.7" ry="1.6"/>
</g>
<g>
	<path class="st0" d="M180.5,262l13.1,5.9c0,0,0.2,3.1-1.8,3.5c-4.6-1.6-13.2-5.7-13.2-5.7L180.5,262z"/>
	<path class="st7" d="M177.9,265.3l-26-13.4c0,0-3.5-2.8,0.8-1.4c24.9,10,27.2,10.6,27.2,10.6l0.7-3.3l-15.9-5.6
		c0,0-2.6-1.6,0.7-0.9c3.4,0.7,17.5,5,17.5,5s-1.4,9.9-6.4,14.5c-7.3-4-15.3-9.9-15.3-9.9s-2.3-2.6,1-0.7c3.2,1.8,13.3,7.7,13.4,7.8
		C176.4,267.1,177.9,265.3,177.9,265.3z"/>
	<path class="st2" d="M99.8,365.7c0,0,1.7-0.4,2.4,1.3c0.7,1.6,1.5,7,1.5,7s1.4,0.7,0.6,2c-0.8,1.3-3.6,3.6-4.4,6.5
		c-0.6,1.4-4.1,4.3-11.8,2.8c-3.4-0.7-5.1-2.1-4.8-3.1c0.1-1.1,0-1.8,0.6-2.2c0.5-1.2,1-3.3,3.1-4.9c2.1-1.7,5.4-4.8,5.6-6.5
		C92.8,367.8,94.7,365.8,99.8,365.7z"/>
	<path class="st0" d="M83.7,380.2c-0.5,0.3-0.4,1-0.6,2.2c-0.3,0.9,1.4,2.4,4.8,3.1c7.7,1.4,11.3-1.4,11.8-2.8
		c0.8-2.9,3.6-5.2,4.4-6.5c0.8-1.4-0.6-2-0.6-2l-3.8,5c0,0-1.1,2.2-2.4,2.5C96.2,381.8,87.1,383.8,83.7,380.2z"/>
	<path class="st2" d="M138.4,366.4c0,0-1.7,0.1-1.9,1.9c-0.2,1.7,0.5,7.2,0.5,7.2s-1.2,1,0,2.1s4.4,2.5,6,5.1
		c0.9,1.2,5.1,3,12.2-0.5c3.1-1.6,4.3-3.4,3.8-4.2c-0.4-1-0.5-1.8-1.1-2c-0.8-1-1.9-2.9-4.3-3.9c-2.4-1.1-6.5-3.1-7.2-4.7
		C145.7,366.5,143.3,365.1,138.4,366.4z"/>
	<path class="st0" d="M136.5,332.2c-0.2,0.5,3.9,14.1,6.1,19.6c-1.5,5.3-4.4,8-4,15.7c0.8,0.7,2.9,0.3,4.1-0.6
		c1.1-1,4.1-9.2,4.9-10.7c0.7-1.6,3.2-5.2,2.6-7c-1.1-2.4-4.3-16.8-4.7-16.8S136.5,332.2,136.5,332.2z"/>
	<path class="st0" d="M109.4,334.8c-0.2,0.3-7.5,15.8-11.5,17.8c0.6,3.1,1.7,9.5,2,14.5c-0.9,1.8-3.2,1.7-4.6,0.7
		c-0.9-1.4-3.8-11.1-3.8-12.1c0-1.8-0.3-5.8,0.9-7.8c1.6-2.2,9.6-15.7,9.6-15.7L109.4,334.8z"/>
	<path class="st0" d="M76.3,299c0-0.2-11.2,3.4-12.6,8.5c-0.3,0.4,0.1,0.3,0.1,0.8c0,1.4,0.5,2.1,1.3,3.6c1.4,2.2,1.5,3,0.5,3.5
		c-0.9,0.5-3.1,0.8-4.4-2.3c-0.9,1.7-2.3,2.2-2.9,1.4c-0.5-0.9-1.2-2.5,0.4-5.7c-1.5-0.4-2.9-0.8-2.7-1.8c0.3-1,2.2-1.1,3.5-0.5
		c1.4,0,3.4-0.6,3.8-1.4c0.5-0.8,6.3-6.7,9.3-7.1C75.7,297.7,76.3,299,76.3,299z"/>
	
		<ellipse transform="matrix(8.637039e-02 -0.9963 0.9963 8.637039e-02 -181.3814 389.0838)" class="st2" cx="121.4" cy="293.4" rx="45.2" ry="48.2"/>
	<path class="st1" d="M164.3,297.1c2.1-24.4-15.5-45.9-39.5-48.8c0.5,0,1,0,1.5,0.1c26.4,2.3,46.1,24.4,43.9,49.3
		c-2.1,24.9-25.3,43.3-51.7,41c-1-0.1-2-0.2-2.9-0.3C140.4,340.4,162.2,322,164.3,297.1z"/>
	<path class="st0" d="M169.5,282.1c-0.1,0-2.2,0.8-2.1,1.8c0.2,1,0.9,1.8,2.7,0.5c1.8-1.4,10.1-5.8,13.3-12.8c0.5-1,2.1-1.7,2.1-1.7
		s4.1-0.1,4.1-1.4c-0.1-1.2-1.6-1.8-2.7-1.4c0.3-3.3,0.1-4.8-1.4-5.7c-1.4-0.9-2.3,1.2-2.2,1.9c-2.3-2.6-4.3-2.7-4.8-1.7
		c-0.4,0.8-0.2,2.9,1.7,3.8c-1.4,0.2-3.5,1.9,1.7,2.9C182.3,269.8,182.9,274.6,169.5,282.1z"/>
	<path class="st0" d="M157.8,376c0.6,0.2,0.7,0.9,1.1,2c0.5,0.8-0.7,2.7-3.8,4.2c-7,3.5-11.3,1.7-12.2,0.5c-1.6-2.6-4.8-4.1-6-5.1
		c-1.2-1.1,0-2.1,0-2.1l5,3.8c0,0,1.7,1.8,3,1.8C146.2,380.9,155.5,380.4,157.8,376z"/>
	<path class="st4" d="M129.5,286.6c0,0,1.8,1.3,1.9,1.4c0.1,0,1.4,1.3,1.6,1.2c0.2-0.1,3.3-1.7,3.3-1.7l4-7.2l-1.7-4.1l-1.8-2.7
		l-2.1-0.4l-2.7,0.3l-3,3.4l-1.2,3.1l-1.2,4.1l0.3,1.5L129.5,286.6z"/>
	<path class="st3" d="M136.9,282.7c1.6-3.7,1-7.4-1.2-8.3c-2.2-0.9-5.2,1.3-6.8,5c-0.2,0.6-0.4,1.1-0.6,1.7c-0.6,1.7-0.6,3.4,0,4.6
		c0,0,0,0.1,0,0.1c-0.7-0.3-1.3-0.6-2-0.8c-0.3-2.1,0-4.7,1-7.2c2.2-5.3,7-8.3,10.6-6.8c3.6,1.5,4.8,7,2.5,12.3
		c-1.4,3.2-3.7,5.6-6.1,6.6c-0.7-0.7-1.6-1.4-2.5-2.1C133.8,287.4,135.8,285.5,136.9,282.7z"/>
	<path class="st0" d="M134.4,290c-0.7-0.7-1.6-1.4-2.5-2.1l-0.3-0.2l0.3-0.1c1.9-0.4,3.8-2.4,4.9-5l0,0c0.7-1.7,1-3.6,0.8-5.1
		c-0.2-1.5-0.9-2.6-1.9-3c-1-0.4-2.3-0.2-3.5,0.7c-1.3,0.9-2.4,2.4-3.1,4.1c-0.2,0.6-0.4,1.1-0.6,1.7c-0.6,1.6-0.6,3.3,0,4.5
		l0.2,0.5l-0.3-0.2c-0.7-0.3-1.3-0.6-2-0.8l-0.1,0v-0.1c-0.3-2.3,0-4.8,1-7.2c2.3-5.4,7.1-8.4,10.8-6.9c3.7,1.6,4.8,7.2,2.6,12.5
		c-1.3,3.1-3.6,5.7-6.2,6.7L134.4,290L134.4,290z M138,271.1c-3.5-1.5-8.2,1.5-10.4,6.7c-1,2.3-1.4,4.8-1,7c0.5,0.2,1,0.4,1.5,0.7
		c-0.5-1.2-0.4-2.8,0.1-4.4c0.1-0.6,0.3-1.1,0.6-1.7c0.7-1.8,1.9-3.3,3.2-4.3c1.4-1,2.7-1.3,3.8-0.8c1.1,0.5,1.9,1.6,2.1,3.3
		c0.2,1.6-0.1,3.5-0.8,5.3c-1.1,2.6-2.9,4.5-4.8,5.1c0.8,0.6,1.5,1.2,2.2,1.8c2.4-1,4.6-3.5,5.9-6.5c2.1-5,1.2-10.1-2-11.9
		C138.3,271.2,138.1,271.1,138,271.1z"/>
	<path class="st0" d="M134.8,291.7c0.2,0.1,0.4,0.1,0.5,0c0.2-0.2,0.2-0.5,0-0.7c-1.6-2-3.6-3.6-5.9-5c-1.7-1-3.5-1.8-5.3-2.4
		c-0.3-0.1-0.5,0.1-0.6,0.3c-0.1,0.3,0,0.5,0.3,0.6c1.7,0.5,3.5,1.3,5.1,2.3c2.2,1.3,4.1,2.9,5.6,4.8
		C134.7,291.6,134.7,291.6,134.8,291.7z"/>
	<path class="st0" d="M133.5,276.8c-0.3,1.2-0.8,2.7-0.8,2.7c0.1-0.1,1.4-1,2.4-1.8c1.1,1.2,1.3,3.6,0.3,5.8
		c-0.9,2.2-2.6,3.7-4.2,3.8c-0.3-0.2-0.5-0.3-0.8-0.5c-0.6-0.4-1.3-0.7-1.9-1c0,0,0-0.1,0-0.1c-0.4-1.2-0.4-2.9,0-4.6
		c0-0.2,0.1-0.3,0.2-0.5C129.6,278.1,131.7,276.5,133.5,276.8z"/>
	<path class="st4" d="M99.9,284.5c0,0-2.1,0.8-2.2,0.8c-0.1,0-1.7,0.9-1.8,0.7c-0.2-0.1-2.7-2.5-2.7-2.5l-2.1-8l2.6-3.5l2.4-2.2
		l2.1,0.1l2.5,1l2,4l0.4,3.3l0.1,4.3l-0.6,1.4L99.9,284.5z"/>
	<path class="st3" d="M93.6,279c-0.6-4,0.9-7.4,3.2-7.8s4.8,2.6,5.4,6.5c0.1,0.6,0.1,1.2,0.1,1.8c0.2,1.8-0.3,3.4-1.1,4.4
		c0,0,0,0,0,0.1c0.7-0.1,1.4-0.3,2.1-0.3c0.9-2,1.2-4.5,0.8-7.2c-0.8-5.7-4.7-9.8-8.5-9.2s-6.3,5.6-5.5,11.3
		c0.5,3.5,2.1,6.4,4.2,7.9c0.9-0.5,1.9-1,2.9-1.4C95.5,284.3,94,281.9,93.6,279z"/>
	<path class="st0" d="M94.2,286.7L94.2,286.7c-2.3-1.7-3.9-4.7-4.4-8.1c-0.9-5.8,1.7-10.9,5.6-11.5c4-0.6,7.9,3.6,8.7,9.3
		c0.4,2.6,0.1,5.1-0.8,7.2l0,0.1h-0.1c-0.7,0.1-1.4,0.2-2.1,0.3l-0.4,0.1l0.3-0.4c0.9-1,1.3-2.6,1.1-4.3c0-0.6,0-1.2-0.1-1.8
		c-0.3-1.9-1-3.6-2-4.8c-1-1.2-2.1-1.7-3.2-1.6c-1.1,0.2-2,1-2.6,2.4c-0.6,1.4-0.8,3.3-0.5,5.1l0,0c0.4,2.8,1.8,5.2,3.5,6.1l0.3,0.2
		l-0.3,0.1C96.2,285.6,95.2,286.1,94.2,286.7L94.2,286.7z M95,267.5c-3.5,0.9-5.7,5.7-4.8,11c0.5,3.3,2,6.2,4.1,7.8
		c0.8-0.4,1.7-0.9,2.6-1.2c-1.7-1-3-3.4-3.4-6.2c-0.3-1.9-0.1-3.8,0.5-5.3c0.6-1.5,1.7-2.4,2.8-2.7c1.2-0.2,2.4,0.4,3.5,1.7
		c1,1.3,1.7,3,2.1,4.9c0.1,0.6,0.1,1.2,0.1,1.8c0.1,1.6-0.2,3.2-1,4.3c0.6-0.1,1.1-0.2,1.7-0.2c0.9-2,1.1-4.5,0.7-7
		c-0.8-5.6-4.6-9.6-8.4-9.1C95.4,267.4,95.2,267.5,95,267.5z"/>
	<path class="st0" d="M93.4,288.2c-0.2,0-0.4,0-0.5-0.2c-0.2-0.2-0.1-0.5,0.1-0.7c2.1-1.5,4.4-2.6,6.9-3.4c1.9-0.6,3.8-0.9,5.8-1
		c0.3,0,0.5,0.2,0.5,0.5s-0.2,0.5-0.5,0.5c-1.8,0.1-3.7,0.4-5.5,0.9c-2.4,0.7-4.7,1.8-6.6,3.2C93.6,288.1,93.5,288.2,93.4,288.2z"/>
	<path class="st0" d="M97.8,274c0,1.3,0.1,2.8,0.1,2.8c-0.1-0.2-1.1-1.4-1.9-2.4c-1.4,0.9-2.1,3.1-1.7,5.5c0.3,2.4,1.7,4.2,3.1,4.8
		c0.3-0.1,0.6-0.2,0.9-0.3c0.7-0.2,1.4-0.4,2.1-0.5c0,0,0,0,0.1-0.1c0.7-1.1,1.1-2.7,1.1-4.4c0-0.2,0-0.3,0-0.5
		C101.2,276.3,99.5,274.2,97.8,274z"/>
	<path class="st8" d="M72.4,284.7c0,0,15.6,8.2,35.9,8.2c8.5,0.2,50.5-7.7,59.5-10.6c3.8-0.7,4.3,3.2,4.3,4.1
		c0,1.1,3.4,32-17.3,43.8c-20.1,11.1-30.6,13.4-34.9,13.2c-4.3-0.2-34.2-9.1-43.7-29.3C71.1,301.7,70.7,289,72.4,284.7z"/>
	<path class="st0" d="M22.7,278.4l3.5,2.5c0,0,3.8-6.5,9.6-7.7c5.7-1.2,10.3,0.9,12.9,2.3c2.6,1.4,16.1,8.6,25.6,5.1
		c1.2-3.7,2.4-5.2,2.4-5.2s-5.1,5-25.4-3.2C40.9,268.4,32.5,264.3,22.7,278.4z"/>
	<path class="st0" d="M32.2,294l2.5-5.2c0,0,5,7,13.8,2.9c8.5-4.3,10.5-11.6,26.9-12.9c-1.9,4.3-1.2,4.6-1.2,4.6
		s-12.7,1.9-21.9,11.7C49.5,297.6,41,300.9,32.2,294z"/>
	<path class="st0" d="M109.3,300.3c8.2,0.3,17.8-1.4,21.7-2.7c-11.9,2.7-33.2-0.3-33.2-0.3c2,1.6,5,2.4,8.6,2.8
		c0.5,4.1,3.7,27,12.1,34.4C112.2,322.2,108.8,315,109.3,300.3z"/>
	<g>
		<path class="st0" d="M66.5,316.2l-13.1-5.9c0,0-0.2-3.1,1.8-3.5c4.6,1.6,13.2,5.7,13.2,5.7L66.5,316.2z"/>
		<path class="st7" d="M69.1,313l26,13.4c0,0,3.5,2.8-0.8,1.4c-24.9-10-27.2-10.6-27.2-10.6l-0.7,3.3l15.9,5.6c0,0,2.6,1.6-0.7,0.9
			c-3.4-0.7-17.5-5-17.5-5s1.4-9.9,6.4-14.5c7.3,4,15.3,9.9,15.3,9.9s2.3,2.6-1,0.7c-3.2-1.8-13.3-7.7-13.4-7.8
			C70.6,311.1,69.1,313,69.1,313z"/>
	</g>
	<path class="st0" d="M171.7,286.4c0-0.9-0.4-4.8-4.3-4.1c-5.3,1.7-22.1,5.2-36.7,7.7c12.1-0.5,26.1-0.8,26.9,0
		c1.5,1.4,8.8,13.1,7.6,15.4c-1.1,2.1-4.1,18.1-43.4,37.9c5.3-0.6,15.4-3.6,32.5-13.1C175.1,318.4,171.7,287.5,171.7,286.4z"/>
	<path class="st8" d="M70.3,287.5c0,0,0.1,0.8,1.6,0c5.5-3,21.1-11.5,40.2-12.6c22.9-1.3,48,6.8,54.4,9.2c2.8,0.9,6.4,0.7,7.5,0.4
		c1.1-0.9-0.7-3.8-1.3-4.7c-0.9-1.1-9.9-14.8-18.7-20.4c-9-5.6-17.4-13.7-31.5-14.4c-13.9-0.2-31.3,9.9-39,19.1
		C75.9,273.5,71.1,286.8,70.3,287.5z"/>
	<path class="st0" d="M95.4,270.1c-1.5,1,19.6-7.2,40.2-1.1C133.7,267.6,112,259.2,95.4,270.1z"/>
	<path class="st0" d="M166.4,284.1c2.8,0.9,6.4,0.7,7.5,0.4c1.1-0.9-0.7-3.8-1.3-4.7c-0.9-1.1-9.9-14.8-18.7-20.4
		c-3.6-2.2-7-4.8-10.8-7.2c5.5,5.8,9.6,13.3,10.8,15.6c1.7,3.4,0.5,9.1-13.6,6.7c-20.2-3.1-33.5-0.7-41.6,2.4c4.1-1,8.6-1.7,13.2-2
		C134.9,273.6,160,281.8,166.4,284.1z"/>
	<path class="st9" d="M112.1,274.7c-19.1,1.2-34.7,9.6-40.2,12.6c0,0-0.1,0-0.2,0.1c0.3,0.2,0.6,0.4,0.6,0.4s21.6-6.7,37.5-6.7
		c10.3,0,38.3,1.6,56.7,2.8C160,281.5,135,273.4,112.1,274.7z"/>
	<path class="st10" d="M154.4,285.6c-17.6,2-40,4.4-48,4.7c-8.3,0.3-19.4-1.2-26.9-2.5c6.5,2.4,16.9,5.2,29,5.2
		C114.6,293.2,138.4,289,154.4,285.6z"/>
	<circle class="st3" cx="97.7" cy="283.1" r="0.7"/>
	<circle class="st3" cx="129.7" cy="284.1" r="1"/>
	<path class="st3" d="M65.8,323.2c0,0-0.7,0.2-0.3,0.7c13.1,2.8,13.8,2.9,13.8,2.9L65.8,323.2z"/>
</g>
<g>
	
		<linearGradient id="SVGID_1_" gradientUnits="userSpaceOnUse" x1="864.975" y1="2206.2141" x2="926.2363" y2="2206.2141" gradientTransform="matrix(0.7071 -0.7071 -0.7071 -0.7071 1060.5265 2871.8726)">
		<stop  offset="8.430325e-03" style="stop-color:#000000;stop-opacity:0.3"/>
		<stop  offset="0.8192" style="stop-color:#000000;stop-opacity:0"/>
	</linearGradient>
	<polygon class="st11" points="169.7,671.1 169.7,686 97.9,686 97.9,671.1 	"/>
	<g>
		<path class="st2" d="M134.8,669.7c0,0-1.4-0.3-2,1.1c-0.6,1.3-1.2,5.9-1.2,5.9s-1.2,0.6-0.5,1.7c0.7,1.1,3.1,3.1,3.8,5.5
			c0.5,1.2,3.5,3.6,10,2.4c2.9-0.6,4.3-1.8,4.1-2.6c-0.1-1-0.1-1.6-0.5-1.9c-0.4-1-0.9-2.8-2.6-4.2c-1.8-1.4-4.6-4.1-4.8-5.5
			C140.7,671.5,139.1,669.8,134.8,669.7z"/>
		<path class="st0" d="M148.5,681.9c0.4,0.3,0.4,0.9,0.5,1.9c0.2,0.8-1.2,2-4.1,2.6c-6.6,1.2-9.6-1.2-10-2.4
			c-0.7-2.5-3.1-4.4-3.8-5.5c-0.7-1.1,0.5-1.7,0.5-1.7l3.2,4.2c0,0,1,1.9,2,2.1C137.8,683.3,145.6,685,148.5,681.9z"/>
		<path class="st2" d="M93.5,669.1c0,0-1.4-0.3-2,1.1c-0.6,1.3-1.2,5.9-1.2,5.9s-1.2,0.6-0.5,1.7c0.7,1.1,3.1,3.1,3.8,5.5
			c0.5,1.2,3.5,3.6,10,2.4c2.9-0.6,4.3-1.8,4.1-2.6c-0.1-1-0.1-1.6-0.5-1.9c-0.4-1-0.9-2.8-2.6-4.2c-1.8-1.4-4.6-4.1-4.8-5.5
			C99.5,670.9,97.9,669.2,93.5,669.1z"/>
		<path class="st0" d="M107.2,681.4c0.4,0.3,0.4,0.9,0.5,1.9c0.2,0.8-1.2,2-4.1,2.6c-6.6,1.2-9.6-1.2-10-2.4
			c-0.7-2.5-3.1-4.4-3.8-5.5c-0.7-1.1,0.5-1.7,0.5-1.7l3.2,4.2c0,0,1,1.9,2,2.1C96.6,682.8,104.3,684.5,107.2,681.4z"/>
		<path class="st0" d="M99.9,641.9c-0.3,0.4-0.1,12.4,0.5,17.4c-2.4,3.9-5.5,5.5-6.9,11.9c0.5,0.8,2.3,0.9,3.4,0.5
			c1.2-0.6,5.5-6.6,6.5-7.6c0.9-1.1,3.8-3.5,3.7-5.1c-0.4-2.2,0.4-14.7,0-14.8C106.7,644.1,99.9,641.9,99.9,641.9z"/>
		<path class="st0" d="M126.6,644.6c0.2,0.3,6.4,13.4,9.8,15.1c-0.5,2.6-1.4,8.1-1.7,12.3c0.8,1.6,2.7,1.4,3.9,0.6
			c0.7-1.2,3.3-9.4,3.3-10.2c-0.1-1.5,0.3-4.9-0.7-6.6c-1.4-1.9-8.2-13.3-8.2-13.3L126.6,644.6z"/>
		<path class="st0" d="M155.4,600.7c-0.2,0.1,5.9,8,10.3,7.7c0.4,0.1,0.3-0.2,0.6-0.3c1.1-0.4,1.7-1.4,2.5-2.1c1.3-1.8,2-2,2.6-1.4
			c0.7,0.6,1.5,2.3-0.6,4.1c1.7,0.3,2.4,1.2,2,1.9c-0.6,0.7-1.7,1.7-4.7,1.3c0.1,1.3,0.2,2.5-0.7,2.6c-0.8,0.1-1.5-1.4-1.4-2.6
			c-0.4-1.1-1.4-2.5-2.2-2.7s-7.1-3.1-8.3-5.4C154.6,601.5,155.4,600.7,155.4,600.7z"/>
		
			<ellipse transform="matrix(0.9963 -8.637217e-02 8.637217e-02 0.9963 -52.2076 12.3325)" class="st2" cx="116.4" cy="609.5" rx="41" ry="38.4"/>
		<path class="st1" d="M80,612.6c-1.8-20.7,13.1-39,33.5-41.4c-0.4,0-0.9,0.1-1.3,0.1c-22.4,2-39.1,20.7-37.3,41.8
			c1.8,21.2,21.5,36.7,43.9,34.8c0.8-0.1,1.7-0.2,2.5-0.3C100.3,649.4,81.8,633.7,80,612.6z"/>
		<g>
			<path class="st4" d="M104.2,602.5c0,0-2.3,0.4-2.3,0.5c-0.1,0.1-1.8,0.6-2,0.4c-0.2-0.2-2.3-2.9-2.3-2.9l-0.7-8.3l3.2-3.1
				l2.8-1.8l2.1,0.5l2.3,1.4l1.3,4.3l-0.2,3.4l-0.6,4.3l-0.9,1.3L104.2,602.5z"/>
			<path class="st3" d="M98.9,595.9c0.1-4,2.1-7.3,4.6-7.2c2.4,0.1,4.3,3.4,4.2,7.4c0,0.6-0.1,1.2-0.2,1.8c-0.2,1.8-0.9,3.4-1.9,4.2
				c-0.1,0.1-0.1,0.1-0.1,0.1c0.7,0,1.4,0,2.2,0.1c1.2-1.9,2-4.3,2-7c0.1-5.8-3-10.6-7-10.7c-4-0.1-7.3,4.6-7.4,10.3
				c-0.1,3.6,1.1,6.7,2.9,8.7c1-0.4,2.1-0.7,3.2-0.9C99.9,601.5,98.9,598.9,98.9,595.9z"/>
			<g>
				<path class="st0" d="M98.2,603.7l-0.1-0.1c-1.9-2-3-5.3-2.9-8.8c0.1-5.9,3.5-10.6,7.6-10.6c4.1,0.1,7.2,5,7.1,10.8
					c-0.1,2.6-0.8,5.2-2.1,7.1l-0.1,0.1h-0.1c-0.7-0.1-1.4-0.1-2.2-0.1h-0.4l0.4-0.4c1-0.9,1.7-2.4,1.9-4.1c0.1-0.6,0.2-1.2,0.2-1.8
					c0.1-1.9-0.4-3.7-1.1-5.1c-0.8-1.3-1.8-2.1-2.9-2.1c-1.1,0-2.2,0.7-3,2c-0.8,1.3-1.3,3.2-1.3,5.1l0,0c-0.1,2.9,0.9,5.5,2.4,6.7
					l0.3,0.2l-0.4,0.1c-1.1,0.2-2.1,0.5-3.2,0.9L98.2,603.7z M102.3,584.7c-3.7,0.3-6.6,4.8-6.7,10.2c-0.1,3.3,1,6.5,2.8,8.5
					c0.9-0.3,1.8-0.6,2.7-0.8c-1.4-1.3-2.4-3.9-2.3-6.7c0.1-2,0.6-3.8,1.4-5.2c0.9-1.4,2.1-2.2,3.3-2.2s2.4,0.8,3.2,2.3
					s1.2,3.3,1.2,5.3c0,0.6-0.1,1.2-0.2,1.8c-0.2,1.7-0.8,3.2-1.7,4.1c0.6,0,1.1,0,1.7,0.1c1.2-1.9,1.9-4.3,2-6.9
					c0.1-5.7-2.9-10.4-6.8-10.5C102.6,584.6,102.4,584.6,102.3,584.7z"/>
			</g>
			<path class="st5" d="M106.2,602.1L106.2,602.1c0.1-0.1,0.1-0.1,0.1-0.1C106.3,602,106.3,602.1,106.2,602.1z"/>
			<g>
				<path class="st0" d="M97.2,605c-0.2,0-0.4-0.1-0.5-0.3c-0.1-0.3,0-0.5,0.2-0.7c2.3-1.1,4.8-1.9,7.5-2.2c2-0.3,4-0.3,5.9,0
					c0.3,0.1,0.5,0.3,0.4,0.6c-0.1,0.3-0.3,0.5-0.6,0.4c-1.9-0.3-3.8-0.3-5.7,0c-2.6,0.3-5,1-7.2,2.1C97.3,605,97.3,605,97.2,605z"
					/>
			</g>
			<path class="st0" d="M104.6,591.8c-0.2,1.3-0.4,2.8-0.4,2.8c-0.1-0.2-0.9-1.6-1.5-2.7c-1.5,0.7-2.6,2.8-2.7,5.3
				c-0.1,2.4,0.9,4.4,2.3,5.3c0.3-0.1,0.6-0.1,0.9-0.2c0.7-0.1,1.4-0.2,2.2-0.2c0.1-0.1,0.1-0.1,0.1-0.1c0.9-1,1.6-2.5,1.9-4.2
				c0-0.2,0-0.4,0.1-0.5C107.6,594.6,106.4,592.3,104.6,591.8z"/>
		</g>
		<g>
			<path class="st4" d="M134,600c0,0-2.2,0.2-2.3,0.2c-0.1,0-1.8,0.4-1.9,0.2c-0.1-0.2-1.9-3.1-1.9-3.1l0.2-8.1l3.4-2.6l2.8-1.4
				l2,0.7l2.1,1.6l0.8,4.3l-0.5,3.2l-1,4l-0.9,1.1L134,600z"/>
			<path class="st3" d="M129.6,593.1c0.5-3.9,2.8-6.7,5.1-6.4s3.8,3.7,3.3,7.6c-0.1,0.6-0.2,1.2-0.4,1.7c-0.3,1.7-1.2,3.1-2.3,3.8
				c-0.1,0-0.1,0.1-0.1,0.1c0.7,0.1,1.4,0.2,2.1,0.3c1.3-1.7,2.3-3.9,2.7-6.5c0.7-5.5-1.8-10.4-5.5-10.9c-3.8-0.5-7.4,3.6-8.2,9.1
				c-0.5,3.4,0.3,6.6,1.9,8.6c1-0.3,2.1-0.4,3.2-0.5C129.9,598.6,129.2,596,129.6,593.1z"/>
			<g>
				<path class="st0" d="M128.1,600.5l-0.1-0.1c-1.6-2.2-2.3-5.4-1.9-8.7c0.7-5.6,4.5-9.8,8.4-9.3c3.9,0.5,6.4,5.5,5.7,11.1
					c-0.3,2.5-1.3,4.9-2.7,6.6l-0.1,0.1h-0.1c-0.7-0.1-1.3-0.2-2.1-0.3l-0.4-0.1l0.4-0.3c1.1-0.7,1.9-2.1,2.2-3.8
					c0.2-0.6,0.3-1.1,0.4-1.7c0.3-1.9,0.1-3.6-0.6-5c-0.6-1.4-1.5-2.2-2.6-2.3c-1.1-0.2-2.2,0.4-3.1,1.6c-0.9,1.2-1.6,2.8-1.9,4.7
					l0,0c-0.4,2.7,0.3,5.3,1.7,6.6l0.3,0.3l-0.4,0.1c-1,0.1-2.1,0.3-3.1,0.5L128.1,600.5z M134,582.8c-3.5-0.1-6.8,3.8-7.5,9.1
					c-0.4,3.2,0.3,6.3,1.8,8.4c0.9-0.2,1.8-0.4,2.7-0.5c-1.3-1.4-1.9-4-1.5-6.7c0.3-1.9,0.9-3.6,1.9-4.9c1-1.2,2.2-1.9,3.4-1.7
					c1.2,0.2,2.2,1,2.8,2.5c0.6,1.4,0.8,3.3,0.6,5.2c-0.1,0.6-0.2,1.2-0.4,1.7c-0.3,1.6-1.1,2.9-2.1,3.8c0.6,0.1,1.1,0.1,1.6,0.2
					c1.3-1.7,2.3-3.9,2.6-6.4c0.7-5.4-1.7-10.2-5.4-10.8C134.3,582.8,134.2,582.8,134,582.8z"/>
			</g>
			<path class="st5" d="M135.9,599.9C135.9,599.9,135.9,599.9,135.9,599.9c0.1,0,0.1-0.1,0.1-0.1C136,599.8,135.9,599.8,135.9,599.9
				z"/>
			<g>
				<path class="st0" d="M127,601.7c-0.2,0-0.4-0.1-0.4-0.3c-0.1-0.3,0.1-0.5,0.3-0.6c2.3-0.8,4.8-1.3,7.4-1.3
					c1.9,0,3.8,0.2,5.6,0.6c0.3,0.1,0.4,0.3,0.4,0.6c-0.1,0.3-0.3,0.4-0.6,0.4c-1.8-0.4-3.6-0.6-5.4-0.6c-2.5,0.1-4.9,0.5-7.1,1.2
					C127.1,601.7,127,601.7,127,601.7z"/>
			</g>
			<path class="st0" d="M135.5,589.8c-0.3,1.2-0.6,2.7-0.6,2.7c-0.1-0.2-0.7-1.6-1.1-2.7c-1.5,0.5-2.8,2.4-3.1,4.8
				c-0.3,2.3,0.4,4.4,1.7,5.3c0.3,0,0.6-0.1,0.9-0.1c0.7,0,1.4,0,2.1,0.1c0.1,0,0.1-0.1,0.1-0.1c1-0.8,1.8-2.2,2.3-3.8
				c0.1-0.2,0.1-0.3,0.1-0.5C138.1,592.8,137.1,590.4,135.5,589.8z"/>
		</g>
		<g>
			<g>
				<path class="st0" d="M107.6,640c-0.2,0-0.3-0.1-0.4-0.2c-0.2-0.2-0.1-0.5,0.1-0.6c0.1-0.1,1.9-1.4,2-4.2c0-0.3,0.2-0.5,0.5-0.5
					s0.5,0.2,0.5,0.5c-0.1,3.3-2.3,4.9-2.3,5C107.8,640,107.6,640,107.6,640z"/>
			</g>
			<g>
				<path class="st0" d="M135.3,635.5c-0.1,0-0.1,0-0.2,0c-0.1-0.1-2.4-0.8-3.4-3.5c-0.1-0.3,0.1-0.5,0.3-0.6
					c0.3-0.1,0.5,0.1,0.6,0.3c0.8,2.3,2.7,2.9,2.8,2.9c0.3,0.1,0.4,0.3,0.3,0.6C135.6,635.4,135.5,635.5,135.3,635.5z"/>
			</g>
			<path class="st0" d="M109.2,637.3c0.3,0.1,6.5,1.4,12.1,0.3c5.6-1.1,9.2-2.2,11.7-4c0.3,0.3,0.3,0.3,0.3,0.3s-4.2,9.2-12.1,9.9
				c-2.4,0-4.7,1-12.2-5.8C109.4,637.4,109.2,637.3,109.2,637.3z"/>
			<path class="st6" d="M113.3,638.9c-0.1,0-0.3,2.1,2.6,1.8c3-0.2,9.6-1,12.1-1.9c1.8-0.7,1.7-1.5,1.7-2.3
				C126.5,637.4,118.1,639.3,113.3,638.9z"/>
		</g>
		<path class="st0" d="M75.3,610.2c0.1-0.1,0.6-2,1.4-1.9c0.8,0.1,1.6,0.6,0.6,2.3c-1,1.6-4.2,8.9-9.9,12.1
			c-0.8,0.5-1.3,1.9-1.3,1.9s0.2,3.5-0.9,3.6c-1-0.1-1.7-1.2-1.4-2.2c-2.7,0.5-4.1,0.4-4.9-0.8c-0.8-1.1,0.9-2.1,1.5-2
			c-2.3-1.8-2.5-3.5-1.7-3.9c0.7-0.4,2.4-0.4,3.3,1.2c0.1-1.2,1.3-3.1,2.6,1.2C65.8,621.8,69.8,622,75.3,610.2z"/>
		<g>
			<path class="st3" d="M152.3,612.5c0.5,4.4-2.7,8.5-7.2,9c-4.4,0.5-8.5-2.7-9-7.2c-0.5-4.4,2.7-8.5,7.2-9
				C147.8,604.8,151.8,608,152.3,612.5"/>
			<polygon class="st3" points="91.6,612.1 95.6,611.6 96.8,622.5 103.8,621.7 104.1,625.1 93.2,626.4 			"/>
			<path class="st3" d="M105.1,618.8l-0.9-8.1l4-0.5l0.9,8c0.2,2.1,1.4,2.9,3,2.7c1.6-0.2,2.5-1.2,2.3-3.3l-0.9-8.1l4-0.5l0.9,8
				c0.5,4.6-1.9,6.9-5.9,7.4C108.4,625,105.6,623.2,105.1,618.8"/>
			<polygon class="st3" points="118.8,609 123,608.5 127,613.7 129.8,607.8 134,607.3 135.6,621.6 131.6,622.1 130.7,613.9 
				127.7,619.9 127.6,619.9 123.3,614.7 124.3,622.9 120.4,623.3 			"/>
			<polygon class="st3" points="120.7,626.1 124.2,625.7 124.3,626.7 122,627 122.1,627.7 124.2,627.4 124.3,628.4 122.2,628.6 
				122.3,629.3 124.6,629 124.7,630.1 121.3,630.4 			"/>
			<polygon class="st3" points="125.1,625.6 126.3,625.5 128.3,627.6 128,625.3 129.2,625.2 129.7,629.5 128.6,629.6 126.5,627.4 
				126.8,629.8 125.6,630 			"/>
			<polygon class="st3" points="130.2,625 133.7,624.7 133.8,625.7 131.5,625.9 131.6,626.6 133.7,626.4 133.8,627.3 131.7,627.5 
				131.8,628.2 134.1,627.9 134.2,629 130.7,629.4 			"/>
			<path class="st3" d="M134.5,624.6l2-0.2c0.7-0.1,1.1,0.1,1.4,0.3c0.3,0.2,0.5,0.5,0.5,1l0,0c0.1,0.7-0.2,1.1-0.7,1.4l1.2,1.4
				l-1.4,0.2l-1-1.2l0,0l-0.5,0.1l0.2,1.3l-1.2,0.2L134.5,624.6z M136.7,626.4c0.4-0.1,0.6-0.3,0.6-0.6l0,0
				c-0.1-0.4-0.3-0.5-0.7-0.4l-0.8,0.1l0.1,1L136.7,626.4z"/>
			<path class="st3" d="M139.1,626.3L139.1,626.3c-0.2-1.3,0.7-2.4,2.1-2.5c0.8-0.1,1.3,0.1,1.8,0.4l-0.6,0.9
				c-0.4-0.2-0.7-0.4-1.1-0.3c-0.6,0.1-1,0.6-1,1.3l0,0c0.1,0.7,0.6,1.1,1.3,1.1c0.3-0.1,0.5-0.1,0.7-0.3l-0.1-0.5l-0.8,0.1
				l-0.1-0.9l2-0.2l0.2,1.9c-0.4,0.4-1,0.8-1.8,0.9C140.3,628.4,139.3,627.6,139.1,626.3"/>
			<polygon class="st3" points="145.2,626.1 143.2,623.6 144.6,623.4 145.7,624.9 146.4,623.2 147.7,623.1 146.4,626 146.6,627.6 
				145.4,627.7 			"/>
		</g>
		<path class="st12" d="M97.7,589.4c0,0-6.1,1.1-8.2-0.5c-2.1-1.7-8.5-0.3-9.7,3c0,0-0.1,0-0.2-0.1c-0.8,1.3-1.4,2.8-2.1,4.2
			c2.6-0.8,5.6-1.3,7.4-0.7c4.1,1.4,51.4-2.8,70.4,1.6c-1.6-4.4-3.9-8.4-6.9-11.9C132.3,586.6,97.7,589.4,97.7,589.4z"/>
		<path class="st13" d="M79.3,593c0,0-3.7-0.6-4.6-3.3c-1-2.6-1.8-30.2,23.7-35.2c3.6,1.1,5.4,0.3,6.4-0.8c1.1-1.1,5.1-0.9,6.5,0.3
			c1.6,1.1,4.4-0.2,4.9-0.9c0.5-0.6,3.9-0.5,4.7,0.5c0.7,0.9,3.4,1.9,4.1,1.2s18.6,2.5,20.8,20.9c2.9,3.6,4.6,5.4,7.1,5.6
			c2.6,0.2,3.1,3.4,1.3,4.2c-7.5,0.9-57.3,5-57.3,5s-6,1.1-8.1-0.5C86.8,588.3,80.4,589.7,79.3,593z"/>
		<path class="st14" d="M125.2,554.8c-0.1,0-0.2,0.1-0.2,0.1c-0.7,0.6-3.4-0.3-4.1-1.2c0,0,2.7,5.3,3.2,10c0.7,0.8,2.6,1.4,3.1,0
			C127.8,562.1,125.8,555.6,125.2,554.8z"/>
		<path class="st14" d="M116.1,553.3c-0.7,0.8-3.3,1.8-4.8,0.8c0,0,4.4,6.4,4.8,9.4c0.4,1.9,4.4,1,3.9-0.5
			C119.6,561.4,117.6,554.3,116.1,553.3z"/>
		<path class="st14" d="M105.1,553.6c-0.1,0.1-0.2,0.1-0.2,0.2c-1,1.1-2.7,1.9-6.4,0.8c0,0,6.5,7.7,6.8,9.2c0.3,1.5,4.1,1.4,4-0.4
			C109.1,561.5,107.9,554.8,105.1,553.6z"/>
	</g>
</g>
<g>
	
		<linearGradient id="SVGID_2_" gradientUnits="userSpaceOnUse" x1="1092.3027" y1="2177.5959" x2="1165.2488" y2="2177.5959" gradientTransform="matrix(0.7071 -0.7071 -0.7071 -0.7071 1060.5265 2871.8726)">
		<stop  offset="8.430325e-03" style="stop-color:#000000;stop-opacity:0.3"/>
		<stop  offset="0.8192" style="stop-color:#000000;stop-opacity:0"/>
	</linearGradient>
	<polygon class="st15" points="365.4,528.8 365.4,539 272.4,539 272.4,528.8 	"/>
	<path class="st2" d="M280.6,520.8c0,0,1.5-0.4,2.2,1.1c0.6,1.4,1.3,6.4,1.3,6.4s1.3,0.6,0.5,1.8c-0.8,1.2-3.3,3.3-4,5.9
		c-0.5,1.3-3.8,3.9-10.8,2.5c-3.1-0.6-4.6-1.9-4.4-2.7c0.1-1,0-1.7,0.5-2c0.4-1.1,0.9-3,2.8-4.5c1.9-1.6,4.9-4.3,5.1-5.9
		C274.2,522.7,275.9,520.9,280.6,520.8z"/>
	<path class="st0" d="M265.9,533.9c-0.5,0.3-0.4,0.9-0.5,2c-0.2,0.9,1.3,2.2,4.4,2.7c7,1.3,10.3-1.3,10.8-2.5c0.7-2.6,3.3-4.7,4-5.9
		c0.8-1.2-0.5-1.8-0.5-1.8l-3.4,4.5c0,0-1,2-2.2,2.3C277.3,535.4,269,537.2,265.9,533.9z"/>
	<path class="st2" d="M324.7,520.2c0,0,1.5-0.4,2.2,1.1c0.6,1.4,1.3,6.4,1.3,6.4s1.3,0.6,0.5,1.8c-0.8,1.2-3.3,3.3-4,5.9
		c-0.5,1.3-3.8,3.9-10.8,2.5c-3.1-0.6-4.6-1.9-4.4-2.7c0.1-1,0-1.7,0.5-2c0.4-1.1,0.9-3,2.8-4.5c1.9-1.6,4.9-4.3,5.1-5.9
		C318.4,522.1,320,520.3,324.7,520.2z"/>
	<path class="st0" d="M317.9,489.8c0.3,0.4,0.1,13.3-0.5,18.6c2.6,4.2,5.8,6,7.4,12.8c-0.5,0.8-2.4,1-3.7,0.5
		c-1.3-0.6-5.9-7-6.9-8.1c-1-1.2-4.1-3.7-4-5.4c0.4-2.3-0.4-15.7,0-15.8C310.6,492.2,317.9,489.8,317.9,489.8z"/>
	<path class="st0" d="M289.3,492.7c-0.2,0.3-6.9,14.4-10.5,16.1c0.5,2.8,1.5,8.6,1.8,13.2c-0.8,1.6-2.9,1.5-4.2,0.6
		c-0.8-1.3-3.5-10.1-3.4-11c0-1.6-0.3-5.2,0.8-7c1.5-2,8.7-14.3,8.7-14.3L289.3,492.7z"/>
	<path class="st0" d="M258.5,445.8c0.2,0-6.3,8.6-11.1,8.2c-0.6-0.2-0.3-0.2-0.7-0.4c-1.1-0.7-4.4-1.4-2.7-2.2
		c-1.4-1.9-2.1-2.2-2.8-1.5c-0.7,0.6-1.6,2.4,0.7,4.4c-1.8,0.2-2.6,1.3-2.1,2c0.6,0.7,1.8,1.8,5.1,1.4c-0.1,1.4-0.2,2.7,0.7,2.8
		c0.9,0,1.6-1.5,1.5-2.8c0.4-1.2,1.6-2.7,2.3-2.9c0.9-0.2,7.7-3.3,8.9-5.8C259.4,446.6,258.5,445.8,258.5,445.8z"/>
	
		<ellipse transform="matrix(8.637068e-02 -0.9963 0.9963 8.637068e-02 -179.1071 714.9578)" class="st2" cx="300.3" cy="455.1" rx="41.1" ry="43.8"/>
	<path class="st1" d="M339.2,458.5c1.9-22.2-14.1-41.7-35.9-44.4c0.5,0,0.9,0,1.4,0.1c24,2.1,41.9,22.1,39.9,44.8
		c-2,22.6-23,39.3-47,37.2c-0.9-0.1-1.8-0.2-2.7-0.3C317.5,497.8,337.2,481.1,339.2,458.5z"/>
	<path class="st5" d="M305.1,444.8L305.1,444.8c0,0-0.1,0-0.1-0.1C305,444.8,305.1,444.8,305.1,444.8z"/>
	<g>
		<path class="st4" d="M307.2,445.3c0,0,2.4,0.5,2.5,0.5s1.9,0.6,2.1,0.5c0.2-0.2,2.5-3.1,2.5-3.1l0.8-8.9l-3.4-3.3l-3-1.9l-2.3,0.5
			l-2.5,1.5l-1.4,4.7l0.2,3.6l0.7,4.6l0.9,1.4L307.2,445.3z"/>
		<path class="st3" d="M312.9,438.1c-0.1-4.3-2.3-7.8-4.9-7.8c-2.6,0-4.6,3.6-4.5,8c0,0.7,0.1,1.3,0.2,1.9c0.2,2,0.9,3.6,2,4.5
			c0,0,0,0,0.1,0.1c-0.8,0-1.6,0-2.3,0c-1.3-2-2.1-4.6-2.2-7.5c-0.1-6.2,3.2-11.3,7.5-11.4c4.3-0.1,7.8,4.9,8,11.1
			c0.1,3.8-1.1,7.2-3.1,9.3c-1.1-0.4-2.2-0.7-3.4-0.9C311.9,444.2,313,441.4,312.9,438.1z"/>
		<path class="st0" d="M313.5,446.5c-1.1-0.4-2.2-0.7-3.4-0.9l-0.4-0.1l0.3-0.2c1.6-1.3,2.7-4,2.6-7.1l0,0c0-2.1-0.5-4-1.4-5.4
			c-0.9-1.4-2-2.2-3.2-2.2c-1.2,0-2.3,0.8-3.1,2.3c-0.9,1.5-1.3,3.4-1.3,5.5c0,0.6,0.1,1.3,0.2,1.9c0.2,1.8,0.9,3.5,2,4.4l0.4,0.4
			h-0.4c-0.8,0-1.6,0-2.3,0h-0.1l0-0.1c-1.4-2.1-2.1-4.8-2.2-7.6c-0.1-6.3,3.3-11.5,7.6-11.6s8,5,8.1,11.3c0.1,3.7-1.1,7.2-3.1,9.4
			l-0.1,0.1H313.5z M308.8,426.2c-4.2,0.1-7.4,5.1-7.3,11.2c0,2.7,0.8,5.3,2.1,7.4c0.6,0,1.2,0,1.8,0c-1-1-1.7-2.6-1.8-4.4
			c-0.1-0.6-0.2-1.3-0.2-2c0-2.1,0.4-4.2,1.3-5.7c0.9-1.6,2.1-2.4,3.4-2.5c1.3,0,2.6,0.8,3.5,2.3c0.9,1.5,1.5,3.5,1.5,5.6
			c0.1,3-0.9,5.8-2.5,7.2c1,0.2,2,0.5,3,0.9c1.9-2.1,3.1-5.5,3-9.1c-0.1-5.8-3.3-10.6-7.2-10.9C309.2,426.2,309,426.2,308.8,426.2z"
			/>
		<path class="st0" d="M314.8,448c0.2,0,0.4-0.1,0.5-0.3c0.1-0.3,0-0.6-0.2-0.7c-2.5-1.2-5.2-2-8-2.3c-2.2-0.3-4.3-0.3-6.3,0
			c-0.3,0-0.5,0.3-0.5,0.6c0,0.3,0.3,0.5,0.6,0.5c2-0.3,4-0.3,6.1,0c2.8,0.4,5.4,1.1,7.7,2.3C314.6,448,314.7,448,314.8,448z"/>
		<path class="st0" d="M308.1,433.8c0.2,1.4,0.4,3.1,0.4,3.1c0.1-0.2,0.9-1.6,1.6-2.9c1.6,0.7,2.8,3,2.9,5.6c0,2.6-1,4.8-2.5,5.7
			c-0.4,0-0.7-0.1-1-0.2c-0.8-0.1-1.6-0.2-2.3-0.2c0,0-0.1-0.1-0.1-0.1c-1-1.1-1.7-2.7-2-4.5c0-0.2,0-0.4,0-0.5
			C304.8,436.8,306.2,434.3,308.1,433.8z"/>
	</g>
	<path class="st4" d="M285.1,443.8c0,0,2.3,0.2,2.4,0.2s1.9,0.4,2,0.2c0.1-0.2,2-3.3,2-3.3l-0.2-8.6l-3.6-2.8l-3.1-1.5l-2.1,0.7
		l-2.2,1.7l-0.9,4.6l0.5,3.4l1.1,4.3l1,1.2L285.1,443.8z"/>
	<path class="st3" d="M289.7,436.4c-0.5-4.1-3-7.2-5.5-6.9c-2.5,0.3-4,4-3.5,8.1c0.1,0.6,0.2,1.3,0.4,1.8c0.4,1.8,1.3,3.3,2.4,4.1
		c0,0,0.1,0,0.1,0.1c-0.7,0.1-1.5,0.2-2.2,0.3c-1.4-1.8-2.5-4.2-2.9-7c-0.8-5.9,1.9-11.2,6-11.7s8,3.8,8.8,9.8c0.5,3.6-0.4,7-2,9.2
		c-1.1-0.3-2.2-0.4-3.4-0.5C289.4,442.3,290.1,439.5,289.7,436.4z"/>
	<path class="st0" d="M291.2,444.3c-1.1-0.3-2.2-0.4-3.3-0.5l-0.4,0l0.3-0.3c1.4-1.4,2.2-4.2,1.8-7.1l0,0c-0.3-2-1-3.8-2-5.1
		c-1-1.3-2.2-1.9-3.3-1.7c-1.1,0.2-2.1,1.1-2.7,2.5c-0.7,1.5-0.9,3.4-0.6,5.4c0.1,0.6,0.2,1.2,0.4,1.8c0.4,1.7,1.2,3.3,2.3,4
		l0.4,0.4l-0.4,0c-0.7,0.1-1.5,0.2-2.2,0.3h-0.1l-0.1-0.1c-1.5-1.8-2.5-4.3-2.9-7c-0.8-6,1.9-11.4,6.1-11.9c4.2-0.5,8.1,3.9,9,9.9
		c0.5,3.5-0.3,7-2,9.3l-0.1,0.1L291.2,444.3z M284.5,425.4c-4,0.5-6.6,5.7-5.8,11.5c0.4,2.6,1.3,5,2.8,6.8c0.5-0.1,1.1-0.2,1.7-0.2
		c-1.1-0.9-1.9-2.3-2.2-4c-0.2-0.6-0.3-1.2-0.4-1.8c-0.3-2,0-4,0.6-5.6c0.7-1.6,1.8-2.5,3-2.7c1.3-0.2,2.5,0.5,3.6,1.8
		c1.1,1.3,1.8,3.2,2,5.2c0.4,2.9-0.2,5.6-1.6,7.1c1,0.1,2,0.3,2.9,0.5c1.6-2.2,2.3-5.6,1.9-9c-0.7-5.6-4.3-9.8-8-9.7
		C284.9,425.3,284.7,425.4,284.5,425.4z"/>
	<path class="st5" d="M283,443.6C283,443.6,283,443.6,283,443.6c0,0-0.1,0-0.1-0.1C282.9,443.6,283,443.6,283,443.6z"/>
	<path class="st0" d="M292.5,445.6c0.2,0,0.4-0.1,0.5-0.3c0.1-0.3,0-0.5-0.3-0.7c-2.5-0.9-5.1-1.4-7.9-1.4c-2.1,0-4.1,0.2-6,0.7
		c-0.3,0.1-0.4,0.4-0.4,0.6c0.1,0.3,0.4,0.4,0.6,0.4c1.8-0.5,3.8-0.7,5.8-0.7c2.7,0,5.2,0.5,7.6,1.3
		C292.4,445.6,292.5,445.6,292.5,445.6z"/>
	<path class="st0" d="M284.7,432.9c0.3,1.3,0.7,2.9,0.7,2.9c0.1-0.2,0.7-1.7,1.2-2.9c1.6,0.5,3,2.5,3.3,5.1c0.3,2.5-0.4,4.7-1.8,5.7
		c-0.3,0-0.7,0-1,0c-0.8,0-1.5,0-2.3,0.1c0,0-0.1,0-0.1-0.1c-1-0.9-1.9-2.3-2.4-4.1c0-0.2-0.1-0.4-0.1-0.5
		C281.9,436.1,283,433.6,284.7,432.9z"/>
	<path class="st0" d="M287.2,484.6c0.2,0,4.8-1.1,9-0.3c4.2,0.8,6.8,1.5,8.8,2.9c0.2-0.2,0.2-0.2,0.2-0.2s-3.2-6.8-9.1-7.2
		c-1.8,0-3.5-0.7-9,4.4C287.3,484.5,287.2,484.6,287.2,484.6z"/>
	<g>
		<path class="st3" d="M331.3,460.4c-0.3,4.7-4.4,8.3-9.1,8c-4.7-0.3-8.3-4.4-8-9.1c0.3-4.7,4.4-8.3,9.1-8
			C328.1,451.7,331.6,455.7,331.3,460.4"/>
		<polygon class="st3" points="268.7,448.8 272.9,449.1 272.1,460.5 279.5,461 279.2,464.6 267.7,463.9 		"/>
		<path class="st3" d="M280.8,458.1l0.5-8.5l4.2,0.3l-0.5,8.4c-0.2,2.2,0.9,3.3,2.6,3.4c1.7,0.1,2.9-0.8,3-2.9l0.5-8.5l4.3,0.3
			l-0.5,8.4c-0.3,4.9-3.3,6.8-7.5,6.5C283,465.2,280.5,462.8,280.8,458.1"/>
		<polygon class="st3" points="297.3,450.7 301.7,450.9 304.9,457.1 308.9,451.4 313.3,451.7 312.4,466.8 308.2,466.5 308.8,457.9 
			304.5,463.5 304.4,463.5 301,457.4 300.4,466 296.3,465.8 		"/>
		<polygon class="st3" points="296.2,468.7 299.8,468.9 299.8,470 297.4,469.9 297.3,470.5 299.5,470.7 299.4,471.7 297.2,471.5 
			297.2,472.3 299.6,472.4 299.6,473.5 295.9,473.2 		"/>
		<polygon class="st3" points="300.8,469 302,469.1 303.7,471.6 303.9,469.2 305.1,469.3 304.8,473.8 303.7,473.7 301.9,471.1 
			301.8,473.6 300.5,473.5 		"/>
		<polygon class="st3" points="306.2,469.4 309.8,469.6 309.7,470.7 307.4,470.5 307.3,471.2 309.5,471.4 309.4,472.3 307.2,472.2 
			307.2,472.9 309.6,473.1 309.5,474.1 305.9,473.9 		"/>
		<path class="st3" d="M310.7,469.7l2.2,0.2c0.7,0,1.2,0.3,1.4,0.6c0.2,0.3,0.4,0.6,0.3,1.1l0,0c0,0.7-0.4,1.1-1,1.3l1,1.6l-1.4,0.1
			l-0.8-1.3l0,0l-0.5-0.2l-0.1,1.3l-1.3-0.1L310.7,469.7z M312.6,472c0.4,0,0.7-0.2,0.7-0.5l0,0c0-0.4-0.2-0.5-0.6-0.6l-0.8,0
			l-0.1,1.1L312.6,472z"/>
		<path class="st3" d="M314.9,471.9v0.4c0-1.3,1.3-2.3,2.7-2.2c0.8,0,1.4,0.4,1.8,0.8l-0.8,0.8c-0.3-0.3-1-0.5-1.4-0.5
			c-0.7,0-1.6,0.5-1.6,1.2l0,0c0,0.7,0.8,1.3,1.5,1.3c0.3,0,0.7,0,0.9-0.2l0.1-0.5l-0.9-0.1l0.1-0.9l2.1,0.2l-0.1,2
			c-0.5,0.4-1.1,0.6-2,0.6c-1.4-0.1-2.4-1.4-2.4-2.7"/>
		<polygon class="st3" points="321.5,473.2 319.9,470.3 321.3,470.4 322.2,472.1 323.2,470.5 324.6,470.6 322.7,473.3 322.6,475 
			321.3,474.9 		"/>
	</g>
	<path class="st0" d="M342.9,463.1c-0.1-0.1-1.5-1.5-1.1-2.3c0.5-0.7,1.4-1.2,2.4,0.6c1,1.8,6.2,8.6,6.1,15.6c0.1,1,1.1,2.2,1.1,2.2
		s3.4,1.6,2.9,2.7c-0.6,1-2,0.9-2.7,0.2c-1,2.8-1.8,4-3.3,4.2c-1.5,0.2-1.4-1.9-1.1-2.4c-2.9,1.3-4.5,0.6-4.5-0.4
		c0-0.9,0.9-2.5,2.9-2.5c-1.1-0.7-2.2-2.9,2.5-1.8C348.9,478.1,351.1,474.4,342.9,463.1z"/>
	<path class="st0" d="M310,533.3c-0.5,0.3-0.4,0.9-0.5,2c-0.2,0.9,1.3,2.2,4.4,2.7c7,1.3,10.3-1.3,10.8-2.5c0.7-2.6,3.3-4.7,4-5.9
		c0.8-1.2-0.5-1.8-0.5-1.8l-3.4,4.5c0,0-1,2-2.2,2.3C321.4,534.8,313.2,536.6,310,533.3z"/>
	<circle class="st3" cx="307.2" cy="438.6" r="0.8"/>
	<circle class="st3" cx="284.4" cy="437.6" r="0.8"/>
	<circle class="st3" cx="284.4" cy="439.8" r="0.6"/>
	<g>
		<path class="st0" d="M264.5,405.1c0-11.5-9.2-20.9-20.7-20.9c-11.5,0-20.8,9.3-20.8,20.9c0,10.8,8.6,19.7,18.8,20.8v74.8
			c0,1.2,0.7,2.1,1.8,2.1s1.8-0.9,1.8-2.1v-74.8C256.5,424.7,264.5,415.9,264.5,405.1z"/>
		<circle class="st3" cx="244.3" cy="405.1" r="17.9"/>
	</g>
	<path class="st13" d="M235.2,414.2c0.5,0.5,1.3,0.8,2,0.8c0.7,0,1.4-0.3,2-0.8l5.1-5.1l5.1,5.1c0.5,0.5,1.3,0.8,2,0.8
		c0.7,0,1.4-0.3,2-0.8c1.1-1.1,1.1-2.8,0-3.9l-5.1-5.1l5.1-5.1c1.1-1.1,1.1-2.8,0-3.9c-1.1-1.1-2.8-1.1-3.9,0l-5.1,5.1l-5.1-5.1
		c-1.1-1.1-2.8-1.1-3.9,0c-1.1,1.1-1.1,2.8,0,3.9l5.1,5.1l-5.1,5.1C234.2,411.4,234.2,413.1,235.2,414.2z"/>
	<path class="st0" d="M315.5,427.8c0.2-0.2,0.3-0.4,0.3-0.7c-0.1-0.4-0.4-0.7-0.9-0.6c-0.2,0-3.8,0.5-7.1-2.7
		c-0.3-0.3-0.7-0.3-1.1,0c-0.3,0.3-0.3,0.7,0,1.1c3.8,3.8,8.2,3.1,8.4,3.1C315.3,427.9,315.4,427.8,315.5,427.8z"/>
	<path class="st0" d="M279,426.5c-0.2-0.2-0.3-0.4-0.3-0.7c0.1-0.4,0.4-0.7,0.9-0.6c0.2,0,3.8,0.5,7.1-2.7c0.3-0.3,0.7-0.3,1.1,0
		c0.3,0.3,0.3,0.7,0,1.1c-3.8,3.8-8.2,3.1-8.4,3.1C279.3,426.7,279.1,426.6,279,426.5z"/>
	
		<ellipse transform="matrix(0.9677 -0.2521 0.2521 0.9677 -108.0737 76.1931)" class="st0" cx="243.3" cy="459.9" rx="2.7" ry="1.3"/>
	
		<linearGradient id="SVGID_3_" gradientUnits="userSpaceOnUse" x1="235.5236" y1="472.0979" x2="262.1571" y2="472.0979" gradientTransform="matrix(1 0 0 -1 0 882)">
		<stop  offset="8.430325e-03" style="stop-color:#000000;stop-opacity:0.3"/>
		<stop  offset="1" style="stop-color:#000000;stop-opacity:0"/>
	</linearGradient>
	<path class="st16" d="M262.2,405.5l-8.7-8.7c0.7,1.1,0.5,2.5-0.4,3.4l-5.1,5.1l5.1,5.1c1.1,1.1,1.1,2.8,0,3.9
		c-0.5,0.5-1.3,0.8-2,0.8c-0.7,0-1.4-0.3-2-0.8l-5.1-5.1l-5.1,5.1c-0.5,0.5-1.3,0.8-2,0.8c-0.6,0-1.2-0.2-1.6-0.6l8.5,8.5
		c0.1,0,0.1,0,0.2,0C254,423,262,415.2,262.2,405.5z"/>
</g>
<g>
	
		<linearGradient id="SVGID_4_" gradientUnits="userSpaceOnUse" x1="1278.7238" y1="2422.304" x2="1376.9446" y2="2422.304" gradientTransform="matrix(0.7071 -0.7071 -0.7071 -0.7071 1060.5265 2871.8726)">
		<stop  offset="8.430325e-03" style="stop-color:#000000;stop-opacity:0.3"/>
		<stop  offset="0.8192" style="stop-color:#000000;stop-opacity:0"/>
	</linearGradient>
	<polygon class="st17" points="349.2,213.3 349.2,227 224,227 224,213.3 	"/>
	<path class="st2" d="M276.5,203.5c0,0-2-0.4-2.9,1.5c-0.8,1.9-1.8,8.5-1.8,8.5s-1.7,0.8-0.7,2.4c1,1.6,4.4,4.4,5.4,7.9
		c0.6,1.7,5,5.2,14.3,3.4c4.1-0.8,6.1-2.6,5.9-3.6c-0.1-1.4-0.1-2.2-0.6-2.6c-0.6-1.5-1.2-4-3.7-5.9c-2.5-2.1-6.5-5.8-6.8-7.8
		C284.9,206,282.7,203.6,276.5,203.5z"/>
	<path class="st0" d="M295.9,220.9c0.6,0.4,0.5,1.3,0.6,2.6c0.3,1.1-1.7,2.9-5.9,3.6c-9.3,1.7-13.7-1.7-14.3-3.4
		c-1-3.5-4.3-6.3-5.4-7.9c-1-1.7,0.7-2.4,0.7-2.4l4.5,6c0,0,1.4,2.7,2.9,3.1C280.8,222.9,291.8,225.3,295.9,220.9z"/>
	<path class="st2" d="M217.7,202.7c0,0-2-0.4-2.9,1.5c-0.8,1.9-1.8,8.5-1.8,8.5s-1.7,0.8-0.7,2.4c1,1.6,4.4,4.4,5.4,7.9
		c0.6,1.7,5,5.2,14.3,3.4c4.1-0.8,6.1-2.6,5.9-3.6c-0.1-1.4-0.1-2.2-0.6-2.6c-0.6-1.5-1.2-4-3.7-5.9c-2.5-2.1-6.5-5.8-6.8-7.8
		C226.2,205.2,224,202.8,217.7,202.7z"/>
	<path class="st0" d="M226.8,162.3c-0.4,0.5-0.1,17.7,0.6,24.8c-3.5,5.6-7.8,7.9-9.8,17c0.6,1.1,3.2,1.3,4.9,0.6
		c1.7-0.8,7.9-9.4,9.2-10.9c1.3-1.6,5.4-5,5.4-7.2c-0.5-3.1,0.5-20.9,0-21.1C236.6,165.4,226.8,162.3,226.8,162.3z"/>
	<path class="st0" d="M264.9,166.1c0.3,0.4,9.1,19.2,13.9,21.4c-0.7,3.8-2,11.4-2.4,17.5c1.1,2.2,3.9,2,5.5,0.8
		c1.1-1.7,4.7-13.4,4.6-14.6c-0.1-2.2,0.4-7-1-9.4c-2-2.7-11.6-19-11.6-19L264.9,166.1z"/>
	<path class="st0" d="M305.8,103.7c-0.3,0.1,8.4,11.4,14.7,10.9c3.1-1.2,2.4-1.1,4.5-3.4c1.9-2.6,2,0.3,3.6-0.4
		c1,0.8,2.5,2.9-0.7,4.3c2.4,0.3,3.5,1.7,2.8,2.7c-0.8,1-2.4,2.4-6.7,1.9c0.1,1.9,0.3,3.6-1,3.7c-1.2,0.1-2.2-2-2-3.7
		c-0.5-1.6-2.1-3.6-3.1-3.8c-1.1-0.3-10.2-4.4-11.8-7.7C304.6,104.8,305.8,103.7,305.8,103.7z"/>
	
		<ellipse transform="matrix(0.9963 -8.636936e-02 8.636936e-02 0.9963 -9.0924 22.0545)" class="st2" cx="250.3" cy="116.1" rx="58.3" ry="54.7"/>
	<path class="st1" d="M198.5,120.6c-2.6-29.5,18.7-55.5,47.7-59c-0.6,0.1-1.2,0.1-1.9,0.1c-31.9,2.8-55.7,29.4-53,59.6
		c2.6,30.1,30.6,52.3,62.5,49.5c1.2-0.1,2.4-0.3,3.6-0.4C227.4,172.9,201.1,150.6,198.5,120.6z"/>
	<g>
		<path class="st3" d="M298.1,113.4c0.7,6.2-3.8,11.8-10,12.5c-6.3,0.7-11.8-3.8-12.5-10c-0.7-6.2,3.8-11.8,10-12.5
			C291.8,102.6,297.4,107.1,298.1,113.4"/>
		<polygon class="st3" points="213.4,112.8 219,112.2 220.7,127.3 230.3,126.2 230.9,131.1 215.6,132.8 		"/>
		<path class="st3" d="M231.4,122.2l-1.3-11.2l5.6-0.6l1.3,11.1c0.3,2.9,1.9,4.1,4.1,3.8c2.2-0.3,3.5-1.7,3.2-4.5l-1.3-11.2l5.6-0.6
			l1.3,11.1c0.7,6.4-2.6,9.7-8.3,10.3C236,130.9,232.1,128.4,231.4,122.2"/>
		<polygon class="st3" points="251.3,108.6 257.1,107.9 262.8,115.1 266.6,106.8 272.5,106.1 274.8,126.1 269.3,126.8 268,115.3 
			263.7,123.7 263.6,123.7 257.6,116.5 258.9,127.9 253.5,128.5 		"/>
		<polygon class="st3" points="254.1,132.4 258.9,131.9 259.1,133.3 255.9,133.7 256,134.5 258.9,134.2 259,135.6 256.1,135.9 
			256.2,136.8 259.4,136.5 259.6,137.9 254.7,138.4 		"/>
		<polygon class="st3" points="260.2,131.7 261.7,131.5 264.5,134.4 264.2,131.3 265.8,131.1 266.5,137.1 265.1,137.3 262.1,134.2 
			262.5,137.5 260.8,137.7 		"/>
		<polygon class="st3" points="267.3,130.9 272.1,130.4 272.3,131.8 269.1,132.2 269.2,133.1 272.1,132.8 272.2,134 269.3,134.4 
			269.5,135.3 272.6,135 272.8,136.4 267.9,136.9 		"/>
		<path class="st3" d="M273.3,130.3l2.9-0.3c0.9-0.1,1.6,0.1,2,0.4c0.4,0.3,0.6,0.8,0.7,1.3l0,0c0.1,0.9-0.3,1.6-1,2l1.7,1.9
			l-1.9,0.2l-1.4-1.7l0,0l-0.7,0.1l0.2,1.9l-1.7,0.2L273.3,130.3z M276.3,132.8c0.6-0.1,0.8-0.4,0.8-0.8l0,0c-0.1-0.4-0.4-0.7-1-0.6
			l-1.1,0.1l0.2,1.5L276.3,132.8z"/>
		<path class="st3" d="M279.7,132.6L279.7,132.6c-0.2-1.8,1-3.3,2.9-3.5c1.1-0.1,1.9,0.1,2.6,0.6l-0.8,1.3c-0.4-0.3-0.9-0.4-1.5-0.4
			c-0.9,0.1-1.5,0.9-1.3,1.9l0,0c0.1,1,0.9,1.6,1.8,1.5c0.4-0.1,0.7-0.2,1-0.4l-0.1-0.7l-1.2,0.1l-0.1-1.2l2.7-0.3l0.3,2.7
			c-0.6,0.6-1.4,1.1-2.5,1.2C281.4,135.6,279.9,134.4,279.7,132.6"/>
		<polygon class="st3" points="288.2,132.4 285.5,128.9 287.3,128.7 288.9,130.7 289.8,128.4 291.7,128.2 289.8,132.2 290.1,134.5 
			288.4,134.6 		"/>
	</g>
	<g>
		<path class="st4" d="M230.5,103.8c0,0-3.2,0.6-3.3,0.6c-0.1,0-2.6,0.8-2.8,0.6c-0.2-0.2-3.3-4.1-3.3-4.1l-1-11.9l4.6-4.4l4-2.6
			l3,0.7l3.3,2l1.9,6.2l-0.2,4.8l-0.9,6.1l-1.2,1.8L230.5,103.8z"/>
		<path class="st3" d="M223,94.3c0.1-5.7,3-10.4,6.4-10.3c3.4,0.1,6.2,4.8,6.1,10.5c0,0.9-0.1,1.7-0.3,2.6c-0.2,2.6-1.3,4.8-2.7,6.1
			c-0.1,0.1-0.1,0.1-0.1,0.1c1.1,0,2.1,0,3.1,0.1c1.7-2.6,2.8-6.1,2.9-10c0.2-8.2-4.3-15.1-10-15.2c-5.7-0.1-10.4,6.5-10.5,14.7
			c-0.1,5,1.5,9.6,4.1,12.3c1.5-0.5,2.9-1,4.5-1.3C224.4,102.4,222.9,98.7,223,94.3z"/>
		<g>
			<path class="st0" d="M222,105.6l-0.1-0.1c-2.7-2.9-4.3-7.6-4.1-12.5c0.2-8.4,5-15.1,10.8-15c5.8,0.1,10.3,7,10.1,15.4
				c-0.1,3.8-1.1,7.4-2.9,10.1l-0.1,0.1h-0.1c-1-0.1-2-0.1-3.1-0.1h-0.6l0.5-0.5c1.5-1.3,2.4-3.4,2.6-5.9c0.1-0.8,0.3-1.7,0.3-2.6
				c0.1-2.7-0.5-5.4-1.7-7.3c-1.1-1.9-2.6-3-4.1-3c-1.6-0.1-3.1,1-4.3,2.9c-1.2,1.9-1.9,4.5-2,7.2l0,0c-0.1,4.1,1.3,7.8,3.5,9.4
				l0.4,0.3l-0.5,0.1c-1.5,0.3-3.1,0.8-4.5,1.3H222z M227.8,78.4c-5.2,0.4-9.4,6.8-9.6,14.5c-0.1,4.7,1.4,9.3,4,12.1
				c1.3-0.4,2.6-0.8,4-1.1c-2.1-1.9-3.4-5.6-3.3-9.5c0.1-2.8,0.8-5.5,2-7.5c1.3-2,2.9-3.1,4.7-3.1c1.8,0.1,3.4,1.2,4.5,3.3
				c1.1,2,1.8,4.7,1.7,7.5c0,0.9-0.1,1.7-0.3,2.6c-0.2,2.4-1.1,4.5-2.4,5.9c0.8,0,1.6,0,2.4,0.1c1.7-2.7,2.7-6.1,2.7-9.8
				c0.2-8.1-4.2-14.8-9.7-14.9C228.2,78.4,228,78.4,227.8,78.4z"/>
		</g>
		<path class="st5" d="M233.4,103.3L233.4,103.3c0.1-0.1,0.1-0.1,0.1-0.1C233.5,103.2,233.4,103.2,233.4,103.3z"/>
		<g>
			<path class="st0" d="M220.6,107.4c-0.3,0-0.6-0.1-0.7-0.4c-0.2-0.3,0-0.8,0.3-1c3.3-1.6,6.8-2.7,10.7-3.1c2.9-0.3,5.7-0.3,8.4,0
				c0.4,0.1,0.6,0.4,0.6,0.8c-0.1,0.4-0.4,0.6-0.8,0.6c-2.6-0.3-5.4-0.3-8,0c-3.7,0.4-7.1,1.5-10.2,3
				C220.7,107.4,220.6,107.4,220.6,107.4z"/>
		</g>
		<path class="st0" d="M229.4,88.5c-0.3,1.9-0.5,4.1-0.5,4.1c-0.1-0.3-1.3-2.2-2.1-3.8c-2.2,1-3.8,4-3.8,7.5
			c-0.1,3.4,1.3,6.4,3.3,7.5c0.4-0.1,0.9-0.1,1.3-0.2c1-0.1,2.1-0.2,3.1-0.3c0.1-0.1,0.1-0.1,0.1-0.1c1.3-1.4,2.2-3.5,2.7-6.1
			c0-0.3,0.1-0.5,0.1-0.7C233.8,92.5,231.9,89.2,229.4,88.5z"/>
	</g>
	<g>
		<path class="st4" d="M271.3,100.3c0,0-3.1,0.3-3.3,0.3c-0.1,0-2.6,0.5-2.7,0.3c-0.2-0.3-2.7-4.3-2.7-4.3l0.3-11.5l4.8-3.7l4-2
			l2.8,1l3,2.3l1.1,6.1l-0.7,4.5l-1.5,5.8l-1.3,1.6L271.3,100.3z"/>
		<path class="st3" d="M265.1,90.4c0.7-5.5,4-9.6,7.3-9.2c3.3,0.4,5.4,5.2,4.7,10.7c-0.1,0.8-0.3,1.7-0.5,2.4
			c-0.4,2.4-1.7,4.5-3.2,5.5c-0.1,0.1-0.1,0.1-0.1,0.1c1,0.1,2,0.2,3,0.4c1.9-2.3,3.3-5.6,3.8-9.3c1-7.9-2.5-14.9-7.9-15.6
			c-5.4-0.7-10.6,5.1-11.7,13c-0.6,4.9,0.4,9.3,2.6,12.3c1.4-0.3,2.9-0.6,4.5-0.7C265.6,98.2,264.5,94.5,265.1,90.4z"/>
		<g>
			<path class="st0" d="M262.9,101l-0.1-0.1c-2.3-3.1-3.3-7.7-2.7-12.4c1-8,6.4-13.9,11.9-13.1c5.5,0.7,9.1,7.8,8.1,15.8
				c-0.4,3.6-1.9,7-3.8,9.4l-0.1,0.1h-0.1c-1-0.2-1.9-0.3-2.9-0.4l-0.6-0.1l0.6-0.4c1.5-1,2.7-3.1,3.1-5.4c0.3-0.8,0.4-1.6,0.5-2.4
				c0.3-2.6,0.1-5.2-0.8-7.1c-0.8-2-2.2-3.1-3.6-3.3c-1.5-0.2-3.1,0.6-4.4,2.3c-1.3,1.7-2.3,4.1-2.6,6.7l0,0
				c-0.5,3.9,0.4,7.6,2.4,9.4l0.4,0.3l-0.5,0.1c-1.5,0.1-3,0.4-4.4,0.7L262.9,101z M271.3,75.7c-5-0.1-9.7,5.4-10.7,12.8
				c-0.6,4.5,0.3,9,2.5,11.9c1.3-0.3,2.6-0.5,3.9-0.6c-1.8-2-2.6-5.6-2.2-9.4c0.4-2.7,1.3-5.2,2.7-6.9c1.4-1.8,3.1-2.7,4.8-2.4
				c1.7,0.2,3.1,1.5,4,3.6c0.9,2,1.2,4.7,0.8,7.4c-0.1,0.8-0.3,1.7-0.5,2.5c-0.4,2.2-1.5,4.2-2.9,5.4c0.8,0.1,1.5,0.2,2.3,0.3
				c1.9-2.4,3.2-5.6,3.7-9.1c1-7.7-2.4-14.6-7.7-15.3C271.8,75.8,271.6,75.8,271.3,75.7z"/>
		</g>
		<path class="st5" d="M274.1,100L274.1,100c0.1,0,0.1-0.1,0.1-0.1C274.2,99.9,274.1,100,274.1,100z"/>
		<g>
			<path class="st0" d="M261.3,102.6c-0.3,0-0.5-0.2-0.6-0.4c-0.1-0.3,0.1-0.7,0.4-0.8c3.3-1.2,6.8-1.9,10.5-1.9
				c2.7,0,5.5,0.3,8,0.9c0.4,0.1,0.6,0.4,0.5,0.8s-0.4,0.6-0.8,0.5c-2.5-0.6-5-0.9-7.7-0.8c-3.6,0.1-7,0.6-10.1,1.8
				C261.5,102.6,261.5,102.6,261.3,102.6z"/>
		</g>
		<path class="st0" d="M271.8,85.7c-0.4,1.7-0.9,3.8-0.9,3.8c-0.1-0.3-1-2.2-1.6-3.9c-2.2,0.7-4,3.4-4.5,6.8
			c-0.4,3.3,0.6,6.2,2.4,7.5c0.4,0,0.9-0.1,1.3-0.1c1,0,2,0,3,0.1c0.1,0,0.1-0.1,0.1-0.1c1.4-1.2,2.6-3.1,3.2-5.5
			c0.1-0.3,0.1-0.4,0.1-0.7C275.5,90,274.1,86.7,271.8,85.7z"/>
	</g>
	<g>
		<path class="st0" d="M243.4,152.5c0.3,0.1,7.6,3,14.4,1.9c6.8-1.1,11.1-2.3,14.4-4.9c0.4,0.4,0.4,0.4,0.4,0.4s-5.7,13.9-15.3,14
			c-2.9-0.3-5.7,1-14-10.5C243.5,152.5,243.4,152.5,243.4,152.5z"/>
	</g>
	<g>
		<path class="st18" d="M269.5,152C269.5,152,269.5,152,269.5,152"/>
		<path class="st3" d="M269.5,152c-2.9,1.5-6.6,2.4-11.7,3.2c-4.4,0.7-9-0.3-11.7-1.1c0,0-0.3,2.4,1.1,2.7c1.3,0.3,8.4,1.7,11.2,1.3
			c2.9-0.3,9-2.1,9.9-2.9C269.1,154.4,269.7,152.9,269.5,152z"/>
	</g>
	<path class="st0" d="M197.8,134.2c0.1-0.1,1.6-2.4,0.8-3.2c-0.8-0.8-2.2-1.2-3,1.4c-0.8,2.6-5.9,12.8-4,21.9
		c0.2,1.3-0.8,3.2-0.8,3.2s-4,2.9-3.1,4.3c1,1.1,2.9,0.7,3.6-0.5c2,3.4,3.3,4.8,5.3,4.6c2-0.1,1.4-2.8,0.8-3.4
		c4.1,0.9,6.1-0.4,5.8-1.7c-0.2-1.1-1.9-3-4.4-2.5c1.2-1.2,2.2-4.3-3.7-1.7C193.9,155.2,190,151,197.8,134.2z"/>
	<path class="st0" d="M237.3,220.2c0.6,0.4,0.5,1.3,0.6,2.6c0.3,1.1-1.7,2.9-5.9,3.6c-9.3,1.7-13.7-1.7-14.3-3.4
		c-1-3.5-4.3-6.3-5.4-7.9c-1-1.7,0.7-2.4,0.7-2.4l4.5,6c0,0,1.4,2.7,2.9,3.1C222.1,222.1,233.1,224.5,237.3,220.2z"/>
	<circle class="st3" cx="226" cy="95.7" r="1.5"/>
	<circle class="st3" cx="226.6" cy="98.9" r="0.6"/>
	<circle class="st3" cx="267.2" cy="91.7" r="1.5"/>
	<g>
		<path class="st0" d="M354,60.8c0-15.5-12.4-28.1-28-28.1c-15.5,0-28,12.6-28,28.1c0,14.6,10.2,26.6,25.3,28v100.7
			c0,1.6,1,2.9,2.5,2.9s2.5-1.3,2.5-2.9V88.8C343.5,87.3,354,75.4,354,60.8z"/>
		<circle class="st3" cx="326.6" cy="60.8" r="24.1"/>
	</g>
	<path class="st0" d="M218.6,75.9c-0.3-0.2-0.4-0.6-0.4-1c0.1-0.6,0.6-0.9,1.1-0.8c0.2,0.1,5.2,0.8,9.6-3.6c0.4-0.4,1-0.4,1.4,0
		c0.4,0.4,0.4,1,0,1.4c-5.2,5.1-11,4.2-11.3,4.1C219,76.1,218.8,76,218.6,75.9z"/>
	<path class="st0" d="M269.8,67.7c-0.1-0.3,0.1-0.7,0.4-0.9c0.4-0.3,1.1-0.2,1.4,0.3c0.1,0.2,3.1,4.1,9.3,4.2c0.6,0,1,0.4,1,1
		c0,0.6-0.4,1-1,1c-7.3-0.1-10.8-4.9-10.9-5C269.8,68,269.8,67.9,269.8,67.7z"/>
	
		<ellipse transform="matrix(0.9974 -7.251113e-02 7.251113e-02 0.9974 -7.9746 24.0314)" class="st0" cx="327" cy="121.8" rx="3.7" ry="1.7"/>
	<path class="st19" d="M338.7,47.9c-1.7-1.1-4-0.5-5.1,1.3l-10.4,17.2l-5.4-6.6c-1.3-1.6-3.6-1.8-5.2-0.5c-1.6,1.3-1.8,3.6-0.5,5.2
		l8.7,10.6c0.1,0.1,0.1,0.1,0.2,0.2l0,0c0.1,0.1,0.1,0.1,0.1,0.1l0,0c0.1,0.1,0.1,0.1,0.1,0.1l0.1,0.1l0.1,0.1l0.1,0.1l0,0
		c0.2,0.1,0.3,0.3,0.5,0.3l0,0c0.1,0,0.1,0.1,0.2,0.1h0.1c0.1,0,0.1,0.1,0.1,0.1h0.1c0.1,0,0.1,0.1,0.2,0.1c0.1,0,0.1,0,0.1,0.1
		c0.1,0,0.1,0,0.1,0c0.1,0,0.1,0,0.1,0h0.1c0.1,0,0.1,0,0.1,0s0.1,0,0.1,0s0.1,0,0.1,0c0.1,0,0.1,0,0.1,0h0.1c0.1,0,0.2,0,0.3,0
		s0.1,0,0.1,0s0.1,0,0.2,0c0.1,0,0.1,0,0.1,0s0.1,0,0.2-0.1c0.1,0,0.1,0,0.2-0.1c0.1,0,0.1,0,0.1-0.1c0.1,0,0.1,0,0.1-0.1
		c0.1,0,0.1-0.1,0.1-0.1c0.1,0,0.1,0,0.1-0.1c0.1-0.1,0.2-0.1,0.3-0.1c0,0,0,0,0.1,0c0.1-0.1,0.1-0.1,0.3-0.1c0,0,0.1,0,0.1-0.1
		c0.1-0.1,0.2-0.1,0.3-0.2l0,0l0,0c0.1,0,0.1-0.1,0.1-0.1l0.1-0.1l0.1-0.1l0.1-0.1l0.1-0.1c0.1-0.1,0.2-0.3,0.3-0.4l0,0
		c0.1-0.1,0.1-0.2,0.2-0.3l13.1-21.6C341.1,51.2,340.5,48.9,338.7,47.9z"/>
	
		<linearGradient id="SVGID_5_" gradientUnits="userSpaceOnUse" x1="321.2176" y1="815.1485" x2="350.6855" y2="815.1485" gradientTransform="matrix(1 0 0 -1 0 882)">
		<stop  offset="8.430325e-03" style="stop-color:#000000;stop-opacity:0.3"/>
		<stop  offset="1" style="stop-color:#000000;stop-opacity:0"/>
	</linearGradient>
	<path class="st20" d="M350.7,60.8c0-0.4,0-0.8,0-1.1l-10.8-10.8c0.8,1.1,1,2.7,0.1,4L327,74.5c-0.1,0.1-0.1,0.2-0.2,0.3l0,0
		c-0.1,0.1-0.2,0.3-0.3,0.4l-0.1,0.1l-0.1,0.1l-0.1,0.1l-0.1,0.1c-0.1,0-0.1,0.1-0.1,0.1l0,0l0,0c-0.1,0-0.1,0.1-0.3,0.2
		c0,0-0.1,0-0.1,0.1c-0.1,0.1-0.1,0.1-0.3,0.1c0,0,0,0-0.1,0c-0.1,0.1-0.2,0.1-0.3,0.1c-0.1,0-0.1,0-0.1,0.1c-0.1,0-0.1,0.1-0.1,0.1
		c-0.1,0-0.1,0-0.1,0.1c-0.1,0-0.1,0.1-0.1,0.1c-0.1,0-0.1,0.1-0.2,0.1c-0.1,0-0.1,0-0.2,0.1c-0.1,0-0.1,0-0.1,0c-0.1,0-0.1,0-0.2,0
		c-0.1,0-0.1,0-0.1,0s-0.2,0-0.3,0h-0.1c-0.1,0-0.1,0-0.1,0c-0.1,0-0.1,0-0.1,0c-0.1,0-0.1,0-0.1,0s-0.1,0-0.1,0c-0.1,0-0.1,0-0.1,0
		c-0.1,0-0.1,0-0.1,0s-0.1,0-0.1,0c-0.1,0-0.1,0-0.1-0.1c-0.1,0-0.1-0.1-0.2-0.1h-0.1c-0.1,0-0.1-0.1-0.1-0.1h-0.1
		c-0.1,0-0.1-0.1-0.2-0.1l0,0c-0.2-0.1-0.3-0.2-0.5-0.3l0,0l-0.1-0.1l-0.1-0.1c0,0-0.1,0-0.1-0.1c0,0,0,0-0.1,0l9.2,9.2
		C341.9,82.8,350.7,72.8,350.7,60.8z"/>
</g>
<g>
	<path class="st2" d="M162.3,524.5c0,0-1.1,1.3-0.1,2.6c1,1.4,5.3,4.7,5.3,4.7s-0.1,1.5,1.4,1.5c1.5-0.1,4.8-1.3,7.7-0.6
		c1.5,0.2,5.6-1.5,8.2-8.7c1.1-3.2,0.7-5.3-0.2-5.6c-1-0.5-1.6-0.9-2.1-0.6c-1.3-0.2-3.3-0.7-5.7,0.2c-2.5,0.9-6.7,2.3-8.2,1.6
		C167.5,519.5,164.9,520.2,162.3,524.5z"/>
	<path class="st0" d="M137.5,501.8c0.2,0.5,12.4,7.2,17.7,9.5c2.5,4.7,2.4,8.6,8,13.7c1,0,2.2-1.7,2.4-3.2c0.1-1.5-3.4-9.3-3.9-10.8
		c-0.6-1.6-1.3-5.8-2.9-6.7c-2.4-0.9-14.5-8.8-14.8-8.5C143.7,496.3,137.5,501.8,137.5,501.8z"/>
	<path class="st0" d="M182.4,517.8c0.5-0.3,1.1,0.2,2.1,0.6c0.9,0.2,1.3,2.4,0.2,5.6c-2.5,7.2-6.7,8.9-8.2,8.7
		c-2.9-0.7-6.2,0.5-7.7,0.6c-1.5,0.1-1.4-1.5-1.4-1.5l6.1-0.8c0,0,2.4,0.1,3.3-0.8C177.7,529.2,183.8,522.5,182.4,517.8z"/>
	<path class="st2" d="M69.2,517.5c0,0,1.5,0.8,1,2.4c-0.5,1.6-3.3,6.2-3.3,6.2s0.6,1.4-0.8,1.9c-1.4,0.5-5,0.5-7.4,2.2
		c-1.3,0.7-5.8,0.6-10.7-5.3c-2.2-2.6-2.5-4.8-1.7-5.3c0.8-0.8,1.2-1.4,1.8-1.3c1.1-0.6,2.8-1.8,5.4-1.8c2.6,0,7.1-0.2,8.2-1.4
		C62.7,514.7,65.3,514.4,69.2,517.5z"/>
	<path class="st0" d="M48.1,518.3c-0.6-0.1-1,0.5-1.8,1.3c-0.8,0.5-0.4,2.7,1.7,5.3c4.9,5.9,9.4,6,10.7,5.3c2.4-1.7,6-1.7,7.4-2.2
		c1.5-0.5,0.8-1.9,0.8-1.9l-5.9,1.4c0,0-2.3,1-3.4,0.4C56.5,527.3,48.4,523.1,48.1,518.3z"/>
	<path class="st0" d="M95.8,500.2c-0.4,0.1-15.6,7.2-19.8,6.1c-1.5,2.7-4.6,8.2-7.6,12.1c-1.8,0.8-3.5-0.7-3.9-2.3
		c0.2-1.6,4-10.8,4.7-11.5c1.2-1.3,3.4-4.5,5.5-5.3c2.6-0.6,17.1-5.8,17.1-5.8L95.8,500.2z"/>
	<path class="st0" d="M74.7,452.3c0,0.2-11.2-2.4-13-7.2c-0.3-0.4,0.1-0.4,0-0.8c-0.1-1.4,0.3-2.1,0.9-3.7c1.2-2.3,1.2-3.1,0.2-3.4
		c-0.9-0.4-3.1-0.5-4.1,2.6c-1-1.6-2.4-2-2.9-1.2c-0.4,0.9-1,2.5,0.9,5.5c-1.4,0.5-2.7,1-2.4,2c0.4,0.9,2.2,0.9,3.4,0.2
		c1.4-0.2,3.4,0.3,3.9,1c0.6,0.7,6.7,6,9.6,6.1C74.3,453.6,74.7,452.3,74.7,452.3z"/>
	
		<ellipse transform="matrix(8.637068e-02 -0.9963 0.9963 8.637068e-02 -354.4402 540.7799)" class="st2" cx="117.6" cy="463.6" rx="44.3" ry="47.2"/>
	<path class="st1" d="M159.5,467.2c2.1-23.9-15.1-44.9-38.6-47.8c0.5,0,1,0.1,1.5,0.1c25.8,2.3,45.1,23.8,43,48.2
		c-2.1,24.4-24.7,42.3-50.6,40.1c-1-0.1-1.9-0.2-2.9-0.4C136.1,509.6,157.4,491.6,159.5,467.2z"/>
	<path class="st4" d="M128.4,443c0,0,2.6,0.4,2.7,0.4s2.1,0.5,2.3,0.4c0.2-0.1,2.6-2.4,2.6-2.4l0.8-7l-3.7-2.6l-3.2-1.5l-2.4,0.4
		l-2.7,1.2l-1.5,3.6l0.2,2.8l0.7,3.6l1,1.1L128.4,443z"/>
	<path class="st3" d="M134.5,437.4c-0.1-3.4-2.4-6.1-5.3-6.1c-2.8,0.1-5,2.8-4.9,6.2c0,0.5,0.1,1,0.2,1.5c0.2,1.5,1,2.8,2.2,3.5
		c0,0,0.1,0,0.1,0.1c-0.9,0-1.7,0-2.5,0c-1.4-1.5-2.3-3.6-2.3-5.9c-0.1-4.9,3.5-8.9,8.1-8.9c4.6-0.1,8.4,3.8,8.5,8.7
		c0.1,3-1.2,5.6-3.3,7.3c-1.2-0.3-2.4-0.5-3.7-0.7C133.4,442.1,134.6,439.9,134.5,437.4z"/>
	<path class="st0" d="M135.2,444c-1.2-0.3-2.4-0.5-3.6-0.7l-0.4-0.1l0.3-0.2c1.8-1,2.9-3.2,2.8-5.6l0,0c0-1.6-0.6-3.1-1.6-4.3
		c-1-1.1-2.2-1.7-3.5-1.7c-1.3,0-2.5,0.6-3.4,1.8c-0.9,1.2-1.4,2.7-1.3,4.3c0,0.5,0.1,1,0.2,1.5c0.2,1.4,1,2.7,2.1,3.5l0.4,0.3h-0.5
		c-0.8,0-1.7,0-2.5,0h-0.1l-0.1-0.1c-1.4-1.6-2.3-3.7-2.4-6c-0.1-4.9,3.5-9,8.2-9.1c4.7-0.1,8.6,3.9,8.7,8.8
		c0.1,2.9-1.2,5.6-3.4,7.4H135.2L135.2,444z M130.1,428c-4.5,0.1-8,4-7.9,8.8c0.1,2.2,0.9,4.2,2.2,5.8c0.6,0,1.3,0,1.9,0
		c-1.1-0.8-1.8-2.1-2-3.4c-0.1-0.5-0.2-1-0.2-1.5c0-1.7,0.5-3.3,1.4-4.4c1-1.2,2.3-1.9,3.7-1.9c1.4,0,2.8,0.6,3.8,1.8
		c1,1.2,1.6,2.7,1.6,4.4c0.1,2.4-1,4.5-2.7,5.6c1.1,0.2,2.2,0.4,3.2,0.7c2.1-1.7,3.3-4.3,3.2-7.1c-0.1-4.6-3.5-8.3-7.8-8.5
		C130.4,428,130.2,428,130.1,428z"/>
	<path class="st5" d="M126.1,442.6L126.1,442.6C126.1,442.6,126,442.6,126.1,442.6C126,442.6,126.1,442.6,126.1,442.6z"/>
	<path class="st0" d="M136.5,445.1c0.2,0,0.5-0.1,0.5-0.2c0.1-0.2,0-0.5-0.3-0.5c-2.6-1-5.5-1.6-8.6-1.9c-2.3-0.2-4.6-0.2-6.8,0
		c-0.3,0-0.5,0.2-0.5,0.5s0.3,0.4,0.6,0.4c2.1-0.2,4.3-0.2,6.5,0c3,0.3,5.8,0.9,8.3,1.8C136.3,445.1,136.4,445.1,136.5,445.1z"/>
	<path class="st0" d="M128,434c0.2,1.1,0.4,2.4,0.4,2.4c0.1-0.2,1-1.3,1.7-2.3c1.7,0.6,3,2.3,3.1,4.4c0.1,2-1.1,3.7-2.7,4.4
		c-0.4,0-0.7-0.1-1.1-0.1c-0.8-0.1-1.7-0.1-2.5-0.1c0,0-0.1,0-0.1-0.1c-1-0.8-1.8-2.1-2.2-3.5c0-0.1,0-0.3,0-0.4
		C124.4,436.3,126,434.4,128,434z"/>
	<path class="st4" d="M104.5,440.9c0,0,2.5,0.2,2.6,0.1c0.1,0,2.1,0.3,2.2,0.2c0.1-0.1,2.2-2.5,2.2-2.5l-0.2-6.5l-3.9-2.1l-3.3-1.2
		l-2.3,0.6l-2.4,1.3l-0.9,3.5l0.6,2.6l1.2,3.3l1.1,0.9L104.5,440.9z"/>
	<path class="st3" d="M109.5,435.3c-0.6-3.1-3.2-5.5-5.9-5.2s-4.3,3-3.8,6.1c0.1,0.5,0.2,0.9,0.4,1.4c0.4,1.4,1.4,2.5,2.6,3.1
		c0,0,0.1,0,0.1,0.1c-0.8,0-1.6,0.1-2.4,0.2c-1.5-1.3-2.7-3.2-3.1-5.3c-0.8-4.5,2-8.5,6.4-8.9c4.4-0.4,8.6,2.9,9.4,7.4
		c0.5,2.8-0.4,5.3-2.1,7c-1.2-0.2-2.4-0.3-3.6-0.4C109.1,439.8,110,437.7,109.5,435.3z"/>
	<path class="st0" d="M111.1,441.4c-1.2-0.2-2.4-0.3-3.6-0.4l-0.4,0l0.3-0.2c1.6-1,2.3-3.2,1.9-5.4l0,0c-0.3-1.5-1-2.9-2.1-3.8
		c-1.1-1-2.3-1.4-3.6-1.3c-1.2,0.1-2.3,0.8-3,1.9c-0.7,1.1-0.9,2.6-0.6,4.1c0.1,0.5,0.2,0.9,0.4,1.4c0.4,1.3,1.3,2.4,2.5,3.1
		l0.5,0.3l-0.5,0c-0.8,0-1.6,0.1-2.4,0.2h-0.1l-0.1-0.1c-1.6-1.4-2.7-3.3-3.1-5.3c-0.8-4.6,2.1-8.6,6.5-9c4.5-0.4,8.8,3,9.6,7.5
		c0.5,2.7-0.3,5.3-2.2,7.1l-0.1,0.1L111.1,441.4z M103.9,427c-4.3,0.4-7.1,4.3-6.3,8.7c0.4,2,1.4,3.8,3,5.2c0.6-0.1,1.2-0.1,1.8-0.2
		c-1.2-0.6-2.1-1.8-2.4-3.1c-0.2-0.5-0.3-0.9-0.4-1.4c-0.3-1.5,0-3,0.7-4.2c0.7-1.2,1.9-1.9,3.3-2.1c1.4-0.1,2.7,0.4,3.9,1.4
		c1.1,1,1.9,2.4,2.2,4c0.4,2.2-0.3,4.3-1.7,5.4c1.1,0.1,2.1,0.2,3.1,0.4c1.7-1.7,2.5-4.3,2-6.8c-0.8-4.2-4.6-7.4-8.7-7.3
		C104.3,426.9,104.1,426.9,103.9,427z"/>
	<path class="st5" d="M102.3,440.8L102.3,440.8c-0.1,0-0.1,0-0.1-0.1C102.2,440.8,102.2,440.8,102.3,440.8z"/>
	<path class="st0" d="M112.5,442.3c0.2,0,0.4-0.1,0.5-0.3c0.1-0.2,0-0.4-0.3-0.5c-2.7-0.7-5.5-1.1-8.5-1.1c-2.2,0-4.4,0.2-6.5,0.5
		c-0.3,0.1-0.5,0.3-0.4,0.5c0.1,0.2,0.4,0.3,0.6,0.3c2-0.4,4.1-0.5,6.3-0.5c2.9,0,5.6,0.4,8.2,1
		C112.4,442.3,112.5,442.3,112.5,442.3z"/>
	<path class="st0" d="M102.8,432.6c0.4,1,0.7,2.2,0.7,2.2c0.1-0.2,0.8-1.3,1.3-2.2c1.7,0.4,3.3,1.9,3.6,3.9c0.4,1.9-0.5,3.5-1.9,4.3
		c-0.4,0-0.7,0-1.1,0c-0.8,0-1.6,0-2.4,0.1c0,0-0.1,0-0.1-0.1c-1.1-0.7-2.1-1.8-2.6-3.1c0-0.1-0.1-0.3-0.1-0.4
		C99.8,435.1,100.9,433.2,102.8,432.6z"/>
	<path class="st3" d="M151.7,460.9c-0.3,5.1-4.7,8.9-9.8,8.6c-5.1-0.3-8.9-4.7-8.6-9.8c0.3-5.1,4.7-8.9,9.8-8.6
		C148.2,451.5,152.1,455.8,151.7,460.9"/>
	<polygon class="st3" points="84.3,448.4 88.8,448.7 88,461 95.9,461.5 95.6,465.4 83.2,464.6 	"/>
	<path class="st3" d="M97.3,458.4l0.6-9.1l4.6,0.3l-0.6,9c-0.2,2.4,1,3.5,2.8,3.7c1.8,0.1,3.1-0.9,3.2-3.2l0.6-9.2l4.6,0.3l-0.6,9
		c-0.4,5.3-3.5,7.3-8.1,7.1C99.7,466,97,463.5,97.3,458.4"/>
	<polygon class="st3" points="115.1,450.4 119.8,450.7 123.3,457.3 127.6,451.2 132.4,451.5 131.3,467.8 126.8,467.5 127.4,458.2 
		122.9,464.2 122.8,464.2 119,457.6 118.4,466.9 114,466.6 	"/>
	<polygon class="st3" points="113.9,469.8 117.8,470.1 117.7,471.2 115.2,471 115.1,471.8 117.5,471.9 117.4,473 115,472.8 
		115,473.6 117.6,473.8 117.5,474.9 113.6,474.7 	"/>
	<polygon class="st3" points="118.9,470.1 120.1,470.2 122,472.9 122.2,470.3 123.5,470.4 123.2,475.3 122,475.2 120.1,472.4 
		119.9,475.1 118.5,475 	"/>
	<polygon class="st3" points="124.6,470.5 128.6,470.8 128.5,471.9 125.9,471.8 125.9,472.5 128.2,472.7 128.1,473.7 125.8,473.6 
		125.7,474.3 128.4,474.5 128.3,475.7 124.3,475.4 	"/>
	<path class="st3" d="M129.5,470.9l2.3,0.2c0.7,0.1,1.3,0.3,1.5,0.6c0.3,0.3,0.4,0.7,0.4,1.2l0,0c-0.1,0.7-0.5,1.2-1.1,1.4l1.1,1.8
		l-1.6-0.1l-0.9-1.5l0,0l-0.6,0l-0.1,1.5l-1.4-0.1L129.5,470.9z M131.6,473.3c0.5,0,0.7-0.2,0.8-0.5l0,0c0-0.4-0.2-0.6-0.7-0.6
		l-0.9-0.1l-0.1,1.2L131.6,473.3z"/>
	<path class="st3" d="M134.2,473.6L134.2,473.6c0.1-1.5,1.3-2.5,2.8-2.4c0.9,0.1,1.4,0.4,1.9,0.8l-0.9,0.9c-0.3-0.3-0.7-0.5-1.2-0.5
		c-0.7,0-1.3,0.5-1.4,1.3l0,0c-0.1,0.8,0.5,1.4,1.2,1.4c0.3,0,0.6,0,0.8-0.2l0-0.6l-1-0.1l0.1-1l2.3,0.2l-0.1,2.2
		c-0.5,0.4-1.3,0.7-2.2,0.6C135.2,476.2,134.1,475.1,134.2,473.6"/>
	<polygon class="st3" points="141.1,474.7 139.4,471.5 141,471.6 141.8,473.4 143,471.7 144.5,471.8 142.4,474.8 142.3,476.6 
		140.9,476.5 	"/>
	<path class="st0" d="M165.1,457.9c-0.1,0-2.3,0.2-2.4,1.1c-0.1,0.9,0.3,2,2.4,1.2c2.1-0.8,11.1-2.5,16.1-8.2c0.7-0.7,2.5-1,2.5-1
		s3.8,1.1,4.3-0.1c0.2-1.2-1-2.2-2.1-2.1c1.2-3,1.4-4.5,0.4-5.7c-1.1-1.2-2.5,0.5-2.6,1.2c-1.4-3.1-3.3-3.7-4-2.9
		c-0.6,0.7-1,2.7,0.5,4.1c-1.4-0.2-3.8,0.7,0.7,3.2C180.6,450,179.8,454.6,165.1,457.9z"/>
	<path class="st0" d="M96.2,484.2c0-0.2,10-4.4,16.6-4.5c9.1-0.1,16.5,4.3,19.8,7c-1.2,4-5.6,15.5-17,15.1
		C104,501.5,96.2,497.4,96.2,484.2z"/>
	<path class="st3" d="M123.8,499.1c-2.2,1.4-5,2.3-8.3,2.2c-5.6-0.2-10.3-1.3-13.7-3.8c0,0-0.3-1.3,0.7-1.4c1.1-0.1,4.9,2.4,9.3,2.2
		c4.4-0.2,10.4-1.3,11.2-1.1C123.8,497.3,124.4,498.4,123.8,499.1z"/>
	<path class="st3" d="M130.2,485.6c-3.9-2.5-10.1-5.4-17.5-5.3c-5,0-11.9,2.4-15,3.7c0,0-0.3,1.4,1.1,1.4c1.4,0,26.9,2.2,28.5,2
		C129,487.3,130.1,486.1,130.2,485.6z"/>
	<path class="st3" d="M121,498.7c0.3-0.2,0.6-2.5,2.7-2.6c2.1,0,2.4,0.8,2,1.3c-0.5,0.5-1.7,2-3.3,1.9
		C121,499.2,121,498.7,121,498.7z"/>
	<path class="st3" d="M105.4,497.7c-0.3-0.2-0.6-2.5-2.7-2.6c-2.1,0-2.4,0.8-2,1.3c0.5,0.5,1.7,2,3.3,1.9
		C105.4,498.2,105.4,497.7,105.4,497.7z"/>
	<path class="st3" d="M103.2,496.2c-0.2-0.2-0.5-1.9-2.1-2c-1.6,0-1.9,0.6-1.5,1s1.3,1.5,2.4,1.4
		C103.2,496.7,103.2,496.2,103.2,496.2z"/>
	<path class="st3" d="M103.2,495.2c-0.2-0.2-0.5-1.9-2.1-2c-1.6,0-1.9,0.6-1.5,1c0.4,0.4,1.3,1.5,2.4,1.5
		C103.2,495.6,103.2,495.2,103.2,495.2z"/>
	<path class="st3" d="M124.7,495.2c0.2-0.2,0.5-1.9,2.1-2c1.6,0,1.9,0.6,1.5,1c-0.3,0.4-1.3,1.5-2.4,1.5
		C124.7,495.6,124.7,495.2,124.7,495.2z"/>
	<path class="st3" d="M123.7,496.7c0.3-0.2,0.5-2.1,2.3-2.2s2,0.6,1.7,1.1c-0.4,0.4-1.4,1.7-2.7,1.6
		C123.7,497.2,123.7,496.7,123.7,496.7z"/>
</g>
<g>
	<path class="st21" d="M140.9,112.6c0,19.6-15.9,35.6-35.6,35.6c-19.6,0-35.6-15.9-35.6-35.6c0-19.6,15.9-35.6,35.6-35.6
		C125,77.1,140.9,93,140.9,112.6"/>
	<path class="st3" d="M140.2,112.3c0,4.7-3.8,8.4-8.4,8.4c-4.7,0-8.4-3.8-8.4-8.4c0-4.7,3.8-8.4,8.4-8.4
		C136.5,103.9,140.2,107.6,140.2,112.3"/>
	<polygon class="st3" points="77.7,104.9 81.8,104.9 81.8,116.2 89.1,116.2 89.1,119.8 77.7,119.8 	"/>
	<path class="st3" d="M90.2,113.3v-8.4h4.2v8.3c0,2.2,1.1,3.2,2.8,3.2c1.7,0,2.8-1,2.8-3.1v-8.4h4.2v8.3c0,4.8-2.8,7-7,7
		C92.9,120.1,90.2,118,90.2,113.3"/>
	<polygon class="st3" points="106,104.9 110.4,104.9 114,110.7 117.5,104.9 121.9,104.9 121.9,119.8 117.8,119.8 117.8,111.2 
		114,117.1 113.9,117.1 110.1,111.3 110.1,119.8 106,119.8 	"/>
	<polygon class="st3" points="106.1,122.8 109.7,122.8 109.7,123.8 107.3,123.8 107.3,124.5 109.5,124.5 109.5,125.5 107.3,125.5 
		107.3,126.2 109.7,126.2 109.7,127.3 106.1,127.3 	"/>
	<polygon class="st3" points="110.7,122.8 111.8,122.8 113.7,125.1 113.7,122.8 114.9,122.8 114.9,127.3 113.8,127.3 111.9,124.8 
		111.9,127.3 110.7,127.3 	"/>
	<polygon class="st3" points="116,122.8 119.6,122.8 119.6,123.8 117.2,123.8 117.2,124.5 119.4,124.5 119.4,125.5 117.2,125.5 
		117.2,126.2 119.6,126.2 119.6,127.3 116,127.3 	"/>
	<path class="st3" d="M122.5,124.9c0.4,0,0.7-0.2,0.7-0.5v0c0-0.4-0.3-0.5-0.7-0.5h-0.8v1.1H122.5z M120.5,122.8h2.1
		c0.7,0,1.2,0.2,1.5,0.5c0.3,0.3,0.4,0.6,0.4,1v0c0,0.7-0.4,1.1-0.9,1.4l1.1,1.6h-1.4l-0.9-1.4h0h-0.5v1.4h-1.2V122.8z"/>
	<path class="st3" d="M125,125L125,125c0-1.3,1-2.4,2.4-2.4c0.8,0,1.4,0.2,1.8,0.7l-0.7,0.9c-0.3-0.3-0.6-0.4-1.1-0.4
		c-0.6,0-1.2,0.5-1.2,1.2v0c0,0.7,0.5,1.2,1.2,1.2c0.3,0,0.5-0.1,0.7-0.2v-0.5h-0.9v-0.9h2.1v2c-0.5,0.4-1.1,0.7-2,0.7
		C126,127.3,125,126.4,125,125"/>
	<polygon class="st3" points="131.3,125.6 129.6,122.8 131,122.8 131.9,124.4 132.9,122.8 134.3,122.8 132.6,125.6 132.6,127.3 
		131.3,127.3 	"/>
</g>
<g>
	<g>
		<path class="st0" d="M313,634.8c0.2,0.2,16.7,7.9,17.3,8.1c0.6,0.3,0.9,0.9,1.1,1.3c-0.5,0.6-1.6-0.2-3.8,3
			c-2.2,3.2-6.2,8.8-6.6,9.5c-0.1,0.9,4.3,0.9,4.3,0.9l3.7-4.2c0,0,7-5.3,7.5-5.7c0.7-0.6,3.2-2.6,1.6-4.9
			c-2.3-2.4-10.2-12-12.8-12.4C318.3,632.3,313,634.8,313,634.8z"/>
		<path class="st2" d="M321.3,654.9c0,0,1.6,2.6,4.7,1.4c1.1-0.7,1.3-1.1,1.6-1.1c0.2,0.1,2.4,4.6,7.3,5.2c2.4,0.1,10-3.4,11.4,5.4
			c0.9,1.4,2.4,2.1-0.1,4.4c-2.9,0.8-11.2,2.1-23,0.1c-4.9-0.8-5.9-1.2-5.9-1.2s-3.1-1-0.9-4.2C316.1,662.6,317.3,657.3,321.3,654.9
			z"/>
		<path class="st0" d="M346.3,665.9c0.9,1.4,2.4,2.1-0.1,4.4c-2.9,0.8-11.2,2.1-23,0.1c-4.9-0.8-5.9-1.2-5.9-1.2s-3.1-1-0.9-4.2
			c0,0,3.5,3.2,12.2,3.4C337.1,668.6,345.2,668.6,346.3,665.9z"/>
	</g>
	<g>
		<path class="st22" d="M289.3,692.5c-33.8,0-61.3-27.5-61.3-61.3c0-33.8,27.5-61.3,61.3-61.3s61.3,27.5,61.3,61.3
			C350.6,665,323.1,692.5,289.3,692.5z M289.3,584c-26,0-47.2,21.2-47.2,47.2s21.2,47.2,47.2,47.2s47.2-21.2,47.2-47.2
			S315.3,584,289.3,584z"/>
	</g>
	<path class="st0" d="M283.2,633.3c-0.5,0.2-9.4,13.4-9.7,13.4s-4.2,3.9-0.6,5.1c2.1,1.9,5.2,3.1,6.6,3.4c1.1,0.1,4.4,4.4,4.4,5.3
		c0.4,0.9,3.5-1.7,3.5-1.7s-2.7-7.5-7.6-9.8c2.5-3.4,13.5-11.6,15.6-12.2C285,633.8,283.2,633.3,283.2,633.3z"/>
	<path class="st2" d="M282.4,658.6c0,0,0.5,1.4,2.4,0.8c1.9-0.6,2.5-1.4,2.4-2.7c-0.1-0.4,5.4,0.2,5.9,6.5c0.4,0.4,1.9,1,1.4,3.2
		c-0.6,2.3-6.7,8.7-6.7,8.7s-2.8,4.4-12.4,5.1c-1.6-0.2-6.9-0.9-8.2-2c-0.6-0.9-0.9-3.9,1.2-4.7c0.4-0.7,0.4-7.6,8.9-7.9
		c1.4-0.7,2.7-2.7,3-4.4C280.6,659.4,281.3,657.7,282.4,658.6z"/>
	<path class="st2" d="M282.4,658.6c0,0,0.5,1.4,2.4,0.8c1.9-0.6,2.5-1.4,2.4-2.7c-0.1-0.4,5.4,0.2,5.9,6.5c0.4,0.4,1.9,1,1.4,3.2
		c-0.6,2.3-6.7,8.7-6.7,8.7s-2.8,4.4-12.4,5.1c-1.6-0.2-6.9-0.9-8.2-2c-0.6-0.9-0.9-3.9,1.2-4.7c0.4-0.7,0.4-7.6,8.9-7.9
		c1.4-0.7,2.7-2.7,3-4.4C280.6,659.4,281.3,657.7,282.4,658.6z"/>
	<path class="st0" d="M268.1,673.7c0,0,1.7,4.1,10.6,2.2c4.9-1,6-1.2,9-4.4c3-3.1,5.1-5.6,5.3-8.4c0.4,0.4,1.9,1,1.4,3.2
		c-0.6,2.3-6.7,8.7-6.7,8.7s-2.8,4.4-12.4,5.1c-1.6-0.2-6.9-0.9-8.2-2c-0.6-0.8-0.9-3.8,1.1-4.7"/>
	<path class="st0" d="M338.7,612.3c-0.1-0.1,9.4-4.4,13.3-2c0.4,0.1,0.1,0.3,0.4,0.6c0.8,0.9,0.9,1.7,1.3,3.1
		c0.3,2.3,0.8,2.8,1.7,2.6c0.9-0.2,2.5-1.3,1.5-4.1c1.6,0.6,2.8,0.1,2.7-0.8c-0.2-0.9-0.7-2.3-3.7-3.5c0.8-1.2,1.4-2.2,0.7-2.7
		c-0.8-0.5-2.1,0.6-2.6,1.7c-0.9,0.9-2.6,1.6-3.3,1.4c-0.8-0.2-8.1-0.7-10.3,0.9C338.3,611.2,338.7,612.3,338.7,612.3z"/>
	
		<ellipse transform="matrix(0.9963 -8.637387e-02 8.637387e-02 0.9963 -50.8789 28.199)" class="st2" cx="300.4" cy="602.1" rx="42.6" ry="40"/>
	<path class="st1" d="M262.5,605.3c-1.9-21.6,13.7-40.6,34.9-43.2c-0.5,0-0.9,0-1.4,0.1c-23.3,2-40.7,21.5-38.8,43.6
		c1.9,22,22.4,38.2,45.7,36.2c0.9-0.1,1.7-0.2,2.6-0.3C283.7,643.6,264.4,627.3,262.5,605.3z"/>
	<path class="st0" d="M258.4,612.2c0.1,0.1,1.6,1.4,2.2,0.9c0.7-0.5,1.1-1.4-0.7-2.3c-1.8-0.9-8.6-5.6-15.4-5.3c-1,0-2.2-1-2.2-1
		s-1.7-3.2-2.8-2.7c-0.9,0.6-0.8,2-0.1,2.7c-2.7,1.1-3.8,1.9-3.9,3.3c-0.1,1.5,1.9,1.3,2.4,1c-1.1,2.9-0.4,4.5,0.6,4.4
		c0.8,0,2.4-1,2.3-2.9c0.7,1,2.9,2,1.6-2.5C243.6,607,247.1,604.7,258.4,612.2z"/>
	<g>
		<path class="st3" d="M330.9,601.9c0.5,4.3-2.6,8.1-6.9,8.6c-4.3,0.5-8.1-2.6-8.6-6.9c-0.5-4.3,2.6-8.1,6.9-8.6
			C326.5,594.6,330.4,597.7,330.9,601.9"/>
		<polygon class="st3" points="272.6,601.6 276.4,601.1 277.6,611.6 284.3,610.8 284.6,614.2 274.1,615.3 		"/>
		<path class="st3" d="M285.5,608l-0.9-7.7l3.9-0.4l0.9,7.6c0.2,2,1.3,2.8,2.9,2.6c1.5-0.2,2.4-1.2,2.2-3.1l-0.9-7.7l3.9-0.4
			l0.9,7.6c0.5,4.4-1.8,6.7-5.7,7.1C288.7,614,286,612.3,285.5,608"/>
		<polygon class="st3" points="298.7,598.6 302.7,598.2 306.6,603.1 309.2,597.5 313.3,597 314.8,610.8 311,611.2 310.1,603.3 
			307.2,609.1 307.2,609.1 303,604.1 303.9,612 300.2,612.4 		"/>
		<polygon class="st3" points="300.6,615.1 303.9,614.7 304,615.7 301.8,615.9 301.9,616.5 303.9,616.3 304,617.2 302,617.4 
			302.1,618.1 304.3,617.9 304.4,618.8 301,619.2 		"/>
		<polygon class="st3" points="304.8,614.6 305.8,614.5 307.8,616.5 307.5,614.3 308.7,614.2 309.1,618.3 308.1,618.4 306.1,616.3 
			306.4,618.6 305.2,618.7 		"/>
		<polygon class="st3" points="309.7,614 313,613.7 313.1,614.6 310.9,614.9 311,615.5 313,615.3 313.1,616.2 311.1,616.4 
			311.2,617.1 313.4,616.8 313.5,617.8 310.1,618.2 		"/>
		<path class="st3" d="M313.8,613.6l2-0.2c0.6-0.1,1.1,0,1.4,0.3c0.3,0.2,0.4,0.5,0.5,0.9l0,0c0.1,0.6-0.2,1.1-0.7,1.4l1.1,1.3
			l-1.3,0.1l-1-1.2l0,0l-0.5,0.1l0.1,1.3l-1.1,0.1L313.8,613.6z M315.9,615.4c0.4,0,0.6-0.3,0.6-0.6l0,0c0-0.3-0.3-0.5-0.7-0.4
			l-0.8,0.1l0.1,1L315.9,615.4z"/>
		<path class="st3" d="M318.2,615.2L318.2,615.2c-0.1-1.2,0.7-2.3,2-2.4c0.7-0.1,1.3,0.1,1.7,0.4l-0.6,0.9c-0.3-0.2-0.6-0.3-1-0.3
			c-0.6,0.1-1,0.6-0.9,1.3l0,0c0.1,0.7,0.6,1.1,1.3,1c0.3,0,0.5-0.1,0.6-0.2l-0.1-0.5l-0.8,0.1l-0.1-0.8l1.9-0.2l0.2,1.9
			c-0.4,0.4-1,0.8-1.7,0.8C319.4,617.2,318.3,616.4,318.2,615.2"/>
		<polygon class="st3" points="324,615.1 322.2,612.6 323.5,612.5 324.5,613.9 325.2,612.3 326.5,612.2 325.2,614.9 325.4,616.5 
			324.2,616.6 		"/>
	</g>
	<path class="st0" d="M307.6,623.8c2.6-0.5,4.3,2.4,4.6,4.1c0.3,1.7-1.5,3.4-4.1,3.9c-2.6,0.5-4.9-0.5-5.2-2.2
		C302.7,627.9,305,624.3,307.6,623.8z"/>
	<g>
		<path class="st22" d="M327.5,676.9c-1.8,0-3.6-0.7-5-2.1L246,598.4c-2.8-2.8-1.3-5.7,1.5-8.5c2.8-2.8,5.7-4.3,8.5-1.5l76.5,76.5
			c2.8,2.8,1.9,6.4-0.9,9.1C330.3,675.4,329.3,676.9,327.5,676.9z"/>
	</g>
	<path class="st1" d="M262.8,582.5c0.6-0.1,2.3-7.9,7-13.4s7.7-5,6.8-7s-4.7-3.6-5.5-4.8c-0.9-1.2-2.7-4-1.2-4.9
		c2.1-0.1,3.8,1.9,4.4,2.4c0.5,0.5,8.2,9.3,8.1,9.5c-0.1,0.3-4.1,5.9-4.1,5.9l-7,6.5l-6.2,5.6C264.9,582.5,262.4,582.5,262.8,582.5z
		"/>
	<path class="st2" d="M319.1,565.9c0,0-17.5-13.6-33.4-14.9c-4.4,0.1-5.5,2-5.9,3.1c-0.6,1.2-4.8,0.4-7.2-1.8
		c-2.4-2.1-4.5,0.2-3,2.1c1.5,1.9,11.9,7.8,7.1,10.3c-4.7,2.5-6.8,7.7-11.1,21.5c15-12.2,22.8-14.7,22.8-14.7L319.1,565.9z"/>
	<path class="st0" d="M290.9,587.1c0.2,0.3,1,1.2,1.2-0.3c0.2-1.5-2-4.2-4.9-3.9c-2.2,0.3-3.7,2.8-3.6,6.6c0.3,3.5,1.7,5.3,2.9,5.4
		c2.4,0.3,3.6-1.7,3-4.4C289,587.7,288.3,582.7,290.9,587.1z"/>
	<path class="st0" d="M315.1,585c0.1,0.3,0.9,1.3,1.2-0.2c0.3-1.5-1.5-4.4-4.4-4.4c-2.2,0-4,2.3-4.3,6.1c-0.1,3.5,1,5.5,2.3,5.7
		c2.4,0.6,3.8-1.3,3.5-4C313.2,585.4,313,580.4,315.1,585z"/>
	<path class="st0" d="M279.5,581c0.9-2.2,2-2.8,2.5-3.5c1-0.5,1.3-0.7,2.2-0.8c1.2,0.1,1.1,0.1-0.2,1.1
		C283.3,579.1,279.2,584.3,279.5,581z"/>
	<path class="st0" d="M316.8,576.3c-1.4-1.9-2.6-2.2-3.3-2.7c-1.1-0.3-1.4-0.4-2.4-0.2c-1.1,0.4-1,0.3,0.5,1.1
		C312.6,575.5,317.9,579.5,316.8,576.3z"/>
	<path class="st0" d="M304.4,634.4c0,0,1.9,0.8,3.6,0.4c1.9-0.4,3.2-1.3,4-1.6c0.8-0.2,0.3,0.1,0.1,0.3s-2.5,2.2-3.6,2.3
		c-1,0.1-3.1-0.2-3.7-0.8C304.2,634.6,304,634.3,304.4,634.4"/>
</g>
</svg>
