<?xml version="1.0" encoding="utf-8"?>
<!-- Generator: Adobe Illustrator 22.0.1, SVG Export Plug-In . SVG Version: 6.00 Build 0)  -->
<!DOCTYPE svg PUBLIC "-//W3C//DTD SVG 1.1//EN" "http://www.w3.org/Graphics/SVG/1.1/DTD/svg11.dtd">
<svg version="1.1" id="Layer_1" xmlns="http://www.w3.org/2000/svg" xmlns:xlink="http://www.w3.org/1999/xlink" x="0px" y="0px"
	 viewBox="0 0 1280 880.3" style="enable-background:new 0 0 1280 880.3;" xml:space="preserve">
<style type="text/css">
	.st0{fill:#2A2B2B;}
	.st1{fill:#D36818;}
	.st2{fill:#F68F37;}
	.st3{fill:#FFFFFF;}
	.st4{fill:#26406D;}
	.st5{fill:none;stroke:#4C5457;stroke-miterlimit:10;}
	.st6{fill:#FDFEFF;}
	.st7{fill:#C1C1C1;}
	.st8{fill:#3D3D3D;}
	.st9{opacity:0.48;enable-background:new    ;}
	.st10{opacity:0.23;enable-background:new    ;}
	.st11{fill:url(#SVGID_1_);}
	.st12{opacity:0.35;enable-background:new    ;}
	.st13{fill:#E61D30;}
	.st14{fill:#9E1226;}
	.st15{fill:url(#SVGID_2_);}
	.st16{fill:url(#SVGID_3_);}
	.st17{fill:url(#SVGID_4_);}
	.st18{fill:none;}
	.st19{fill:#CDDC29;}
	.st20{fill:url(#SVGID_5_);}
	.st21{fill:#F7941E;}
	.st22{fill:#CC1E0D;}
</style>
<g>
	<path class="st0" d="M392.2,381.4c-0.1,0.1-1,1.6-0.5,2.1c0.5,0.5,1.4,0.7,1.9-1c0.5-1.7,3.5-8.5,2.1-14.5
		c-0.2-0.9,0.5-2.1,0.5-2.1s2.5-2,1.9-2.9c-0.7-0.7-1.9-0.4-2.3,0.4c-1.4-2.2-2.3-3.1-3.6-2.9c-1.3,0.1-0.9,1.9-0.5,2.3
		c-2.7-0.5-4,0.4-3.8,1.3c0.2,0.7,1.3,1.9,2.9,1.5c-0.7,0.8-1.3,2.9,2.5,1C394.3,367.5,397,370.2,392.2,381.4z"/>
	
		<rect x="279.1" y="311" transform="matrix(0.9974 -7.164187e-02 7.164187e-02 0.9974 -23.2994 27.1869)" class="st1" width="176.5" height="54.7"/>
	<path class="st2" d="M381.8,463.9c0,0-1.3-0.3-1.9,1c-0.5,1.3-1.1,5.5-1.1,5.5s-1.1,0.5-0.5,1.6c0.7,1,2.9,2.9,3.5,5.1
		c0.5,1.1,3.3,3.4,9.4,2.2c2.7-0.5,4.1-1.7,3.8-2.4c-0.1-0.9-0.1-1.5-0.5-1.7c-0.3-1-0.8-2.6-2.5-3.9c-1.7-1.4-4.3-3.8-4.5-5.1
		C387.3,465.6,385.9,464,381.8,463.9z"/>
	<path class="st2" d="M343.3,463.4c0,0-1.3-0.3-1.9,1c-0.5,1.3-1.1,5.5-1.1,5.5s-1.1,0.5-0.5,1.6c0.7,1,2.9,2.9,3.5,5.1
		c0.5,1.1,3.3,3.4,9.4,2.2c2.7-0.5,4.1-1.7,3.8-2.4c-0.1-0.9-0.1-1.5-0.5-1.7c-0.3-1-0.8-2.6-2.5-3.9c-1.7-1.4-4.3-3.8-4.5-5.1
		C348.8,465.1,347.4,463.5,343.3,463.4z"/>
	<path class="st0" d="M349.2,436.9c-0.3,0.3-0.1,11.6,0.5,16.2c-2.3,3.7-5.1,5.2-6.4,11.2c0.5,0.7,2.1,0.9,3.2,0.5
		c1.1-0.5,5.1-6.2,6-7.1c0.9-1,3.5-3.3,3.5-4.7c-0.3-2,0.3-13.7,0-13.8C355.6,439,349.2,436.9,349.2,436.9z"/>
	<path class="st0" d="M374.1,439.4c0.2,0.3,6,12.6,9.2,14.1c-0.5,2.5-1.3,7.5-1.6,11.5c0.7,1.4,2.6,1.3,3.6,0.6c0.7-1.1,3-8.8,3-9.6
		c-0.1-1.4,0.3-4.6-0.7-6.2c-1.3-1.8-7.6-12.5-7.6-12.5L374.1,439.4z"/>
	
		<ellipse transform="matrix(0.9963 -8.637068e-02 8.637068e-02 0.9963 -33.7579 33.0104)" class="st2" cx="364.6" cy="406.6" rx="38.2" ry="35.9"/>
	<path class="st1" d="M330.6,409.5c-1.7-19.3,12.2-36.4,31.3-38.7c-0.4,0-0.8,0.1-1.2,0.1c-20.9,1.8-36.5,19.3-34.8,39.1
		c1.7,19.7,20,34.3,40.9,32.5c0.8-0.1,1.5-0.2,2.3-0.3C349.6,443.8,332.3,429.3,330.6,409.5z"/>
	<g>
		<path class="st3" d="M395.9,404.8c0.5,4.1-2.5,7.8-6.6,8.2c-4.1,0.5-7.8-2.5-8.2-6.6c-0.5-4.1,2.5-7.8,6.6-8.2
			C391.8,397.8,395.5,400.7,395.9,404.8"/>
		<polygon class="st3" points="340.5,404.4 344.1,404 345.2,414 351.5,413.2 351.9,416.4 341.9,417.5 		"/>
		<path class="st3" d="M352.2,410.6l-0.8-7.4l3.7-0.4l0.8,7.3c0.2,1.9,1.3,2.7,2.7,2.5s2.3-1.1,2.1-3l-0.9-7.4l3.7-0.4l0.8,7.3
			c0.5,4.2-1.7,6.3-5.4,6.8C355.2,416.3,352.7,414.7,352.2,410.6"/>
		<polygon class="st3" points="365.3,401.6 369.1,401.2 372.8,405.9 375.3,400.5 379.2,400.1 380.7,413.2 377.1,413.6 376.2,406.1 
			373.5,411.6 373.3,411.6 369.4,406.9 370.3,414.4 366.7,414.8 		"/>
		<polygon class="st3" points="367.1,417.3 370.2,417 370.4,417.9 368.2,418.1 368.3,418.7 370.2,418.5 370.3,419.4 368.4,419.6 
			368.5,420.2 370.6,419.9 370.7,420.9 367.5,421.2 		"/>
		<polygon class="st3" points="371.1,416.8 372.1,416.7 374,418.6 373.7,416.6 374.8,416.4 375.3,420.4 374.3,420.5 372.4,418.5 
			372.6,420.7 371.5,420.8 		"/>
		<polygon class="st3" points="375.7,416.3 378.9,416 379,416.9 376.9,417.1 377,417.8 378.9,417.5 379,418.4 377.1,418.6 
			377.2,419.2 379.3,419 379.4,419.9 376.2,420.3 		"/>
		<path class="st3" d="M379.7,415.9l1.9-0.2c0.6-0.1,1,0.1,1.3,0.3c0.2,0.2,0.4,0.5,0.5,0.9l0,0c0.1,0.6-0.2,1-0.7,1.3l1.1,1.3
			l-1.3,0.1l-0.9-1.1l0,0l-0.5,0.1l0.1,1.2l-1.1,0.1L379.7,415.9z M381.7,417.6c0.3-0.1,0.6-0.2,0.5-0.5l0,0
			c-0.1-0.3-0.3-0.5-0.6-0.4l-0.7,0.1l0.1,1L381.7,417.6z"/>
		<path class="st3" d="M383.9,417.4L383.9,417.4c-0.1-1.1,0.7-2.2,1.9-2.3c0.7-0.1,1.2,0.1,1.7,0.4l-0.6,0.9c-0.3-0.2-0.6-0.3-1-0.3
			c-0.6,0.1-1,0.6-0.9,1.2l0,0c0.1,0.6,0.6,1,1.2,1c0.3-0.1,0.5-0.1,0.6-0.2l-0.1-0.5l-0.8,0.1l-0.1-0.8l1.8-0.2l0.2,1.8
			c-0.4,0.4-0.9,0.7-1.7,0.8C385,419.4,384,418.6,383.9,417.4"/>
		<polygon class="st3" points="389.5,417.3 387.7,415 388.9,414.8 389.9,416.2 390.6,414.7 391.8,414.6 390.6,417.1 390.7,418.6 
			389.6,418.8 		"/>
	</g>
	<g>
		<path class="st4" d="M351.7,398.5c0,0-2.1,0.4-2.2,0.4c-0.1,0-1.7,0.6-1.8,0.4c-0.1-0.2-2.2-2.7-2.2-2.7l-0.7-7.8l3-2.9l2.6-1.7
			l2,0.5l2.2,1.3l1.3,4.1l-0.1,3.1l-0.6,4l-0.8,1.2L351.7,398.5z"/>
		<path class="st3" d="M346.7,392.4c0.1-3.8,2-6.8,4.2-6.7c2.2,0.1,4.1,3.1,3.9,6.9c0,0.6-0.1,1.1-0.2,1.7c-0.1,1.7-0.8,3.1-1.8,3.9
			l-0.1,0.1c0.7,0,1.4,0,2.1,0.1c1.1-1.7,1.8-4,1.9-6.6c0.1-5.4-2.8-9.9-6.5-10c-3.7-0.1-6.8,4.2-6.9,9.7c-0.1,3.3,1,6.3,2.7,8.1
			c0.9-0.3,1.9-0.6,3-0.9C347.6,397.6,346.6,395.2,346.7,392.4z"/>
		<g>
			<path class="st0" d="M346.1,399.7L346.1,399.7c-1.8-1.9-2.9-5-2.8-8.2c0.1-5.5,3.3-9.9,7.1-9.8c3.8,0.1,6.8,4.6,6.7,10.1
				c-0.1,2.5-0.7,4.9-1.9,6.6l-0.1,0.1H355c-0.6-0.1-1.3-0.1-2-0.1h-0.4l0.3-0.3c1-0.8,1.6-2.3,1.7-3.9c0.1-0.6,0.2-1.1,0.2-1.7
				c0.1-1.8-0.3-3.5-1.1-4.8c-0.7-1.3-1.7-1.9-2.7-2c-1,0-2.1,0.6-2.8,1.9c-0.8,1.3-1.3,2.9-1.3,4.7l0,0c-0.1,2.7,0.9,5.1,2.3,6.2
				l0.3,0.2l-0.3,0.1c-1,0.2-2,0.5-2.9,0.8L346.1,399.7z M349.8,381.9c-3.4,0.3-6.2,4.4-6.3,9.5c-0.1,3.1,0.9,6.1,2.6,7.9
				c0.9-0.3,1.7-0.5,2.6-0.7c-1.4-1.2-2.2-3.6-2.2-6.2c0.1-1.8,0.5-3.6,1.3-4.9c0.9-1.3,1.9-2.1,3.1-2c1.1,0,2.2,0.8,3,2.1
				c0.7,1.3,1.1,3.1,1.1,4.9c0,0.6-0.1,1.1-0.2,1.7c-0.1,1.5-0.7,3-1.6,3.8c0.5,0,1.1,0,1.6,0.1c1.1-1.8,1.8-4,1.8-6.4
				c0.1-5.3-2.7-9.7-6.3-9.8C350.2,381.9,350,381.9,349.8,381.9z"/>
		</g>
		<path class="st5" d="M353.5,398.2L353.5,398.2c0.1,0,0.1-0.1,0.1-0.1C353.5,398.1,353.5,398.1,353.5,398.2z"/>
		<g>
			<path class="st0" d="M345.1,400.9c-0.2,0-0.3-0.1-0.5-0.2c-0.1-0.2,0-0.5,0.2-0.6c2.1-1.1,4.5-1.8,7-2.1c1.9-0.2,3.7-0.2,5.5,0
				c0.2,0.1,0.4,0.3,0.4,0.5c-0.1,0.2-0.3,0.4-0.5,0.4c-1.7-0.2-3.5-0.2-5.3,0c-2.4,0.3-4.7,1-6.7,2
				C345.2,400.9,345.1,400.9,345.1,400.9z"/>
		</g>
		<path class="st0" d="M351,388.5c-0.2-0.1-1-0.1-1.7,0.1c-1.4,0.6-2.5,2.6-2.5,4.9c-0.1,2.2,0.9,4.2,2.2,4.9
			c0.3-0.1,0.6-0.1,0.9-0.1c0.7-0.1,1.4-0.1,2.1-0.2c0.1,0,0.1-0.1,0.1-0.1c0.9-0.9,1.5-2.3,1.8-3.9c0-0.2,0-0.3,0-0.5
			C353.8,391.2,352.6,389,351,388.5z"/>
	</g>
	<g>
		<path class="st4" d="M378.4,396.2c0,0-2.1,0.2-2.1,0.2s-1.7,0.3-1.8,0.2s-1.8-2.9-1.8-2.9l0.2-7.5l3.1-2.5l2.6-1.3l1.8,0.6
			l1.9,1.5l0.7,4l-0.5,3l-1,3.8l-0.9,1L378.4,396.2z"/>
		<path class="st3" d="M374.3,389.8c0.5-3.6,2.6-6.3,4.7-6c2.2,0.3,3.5,3.4,3,7c-0.1,0.6-0.2,1.1-0.3,1.6c-0.3,1.6-1.1,2.9-2.1,3.6
			l-0.1,0.1c0.7,0.1,1.3,0.1,1.9,0.2c1.3-1.5,2.2-3.7,2.5-6.1c0.7-5.1-1.7-9.7-5.2-10.2c-3.5-0.5-7,3.4-7.7,8.5
			c-0.4,3.1,0.3,6.1,1.7,8c0.9-0.2,1.9-0.4,2.9-0.5C374.7,394.9,374,392.4,374.3,389.8z"/>
		<g>
			<path class="st0" d="M372.9,396.7L372.9,396.7c-1.5-2.1-2.2-5.1-1.8-8.2c0.7-5.3,4.2-9.1,7.8-8.6c3.6,0.5,6,5.1,5.3,10.4
				c-0.3,2.3-1.2,4.6-2.5,6.2l-0.1,0.1h-0.1c-0.6-0.1-1.3-0.2-1.9-0.2l-0.3-0.1l0.3-0.3c1-0.7,1.8-2,2.1-3.5c0.2-0.5,0.3-1,0.3-1.6
				c0.2-1.7,0.1-3.4-0.5-4.7c-0.6-1.3-1.4-2.1-2.4-2.2c-1-0.1-2,0.4-2.9,1.5c-0.9,1.1-1.5,2.7-1.7,4.4l0,0c-0.3,2.6,0.3,5,1.5,6.2
				l0.2,0.2l-0.3,0.1c-1,0.1-1.9,0.2-2.9,0.5L372.9,396.7z M378.4,380.1c-3.3-0.1-6.3,3.6-7,8.4c-0.4,3,0.2,5.9,1.7,7.8
				c0.8-0.2,1.7-0.3,2.5-0.5c-1.2-1.3-1.7-3.7-1.4-6.2c0.2-1.8,0.9-3.4,1.8-4.5c0.9-1.2,2.1-1.7,3.1-1.6c1.1,0.2,2.1,1,2.6,2.3
				c0.6,1.4,0.8,3.1,0.6,4.9c-0.1,0.6-0.2,1.1-0.3,1.6c-0.3,1.5-1,2.7-1.9,3.5c0.5,0.1,1,0.1,1.5,0.2c1.3-1.5,2.1-3.7,2.4-5.9
				c0.7-5.1-1.6-9.6-5-10.1C378.7,380.1,378.5,380.1,378.4,380.1z"/>
		</g>
		<path class="st5" d="M380.2,396.1L380.2,396.1c0.1,0,0.1-0.1,0.1-0.1C380.3,396,380.2,396,380.2,396.1z"/>
		<g>
			<path class="st0" d="M371.9,397.8c-0.2,0-0.3-0.1-0.4-0.3c-0.1-0.2,0.1-0.5,0.3-0.6c2.2-0.8,4.5-1.2,6.9-1.3
				c1.8,0,3.6,0.2,5.3,0.6c0.2,0.1,0.4,0.3,0.3,0.5c-0.1,0.2-0.3,0.4-0.5,0.3c-1.6-0.4-3.3-0.6-5-0.6c-2.3,0-4.6,0.4-6.6,1.2
				C372,397.8,371.9,397.8,371.9,397.8z"/>
		</g>
		<path class="st0" d="M378.7,386.7c-0.3-0.1-1-0.2-1.7-0.1c-1.4,0.5-2.6,2.2-2.9,4.4c-0.3,2.1,0.4,4.1,1.5,5c0.3,0,0.6,0,0.9,0
			c0.7,0,1.3,0,1.9,0.1c0.1,0,0.1-0.1,0.1-0.1c0.9-0.8,1.7-2.1,2.1-3.6c0.1-0.2,0.1-0.3,0.1-0.5
			C381.2,389.5,380.3,387.3,378.7,386.7z"/>
	</g>
	<g>
		<g>
			<path class="st0" d="M352.7,433c-0.2,0-0.4-0.1-0.5-0.2c-0.2-0.3-0.1-0.6,0.1-0.8c0.1-0.1,2.4-1.8,2.5-5.4c0-0.3,0.3-0.6,0.6-0.6
				c0.3,0,0.6,0.3,0.6,0.6c-0.1,4.2-2.9,6.2-3,6.3C352.9,433,352.8,433,352.7,433z"/>
		</g>
		<g>
			<path class="st0" d="M387.8,427.4c-0.1,0-0.2,0-0.2,0c-0.1-0.1-3-1-4.3-4.5c-0.1-0.3,0.1-0.6,0.3-0.7c0.3-0.1,0.6,0.1,0.7,0.3
				c1,2.9,3.4,3.7,3.5,3.7c0.3,0.1,0.5,0.4,0.4,0.7C388.3,427.2,388,427.3,387.8,427.4z"/>
		</g>
		<path class="st0" d="M354.7,429.6c0.3,0.1,8.2,1.8,15.3,0.3c7.1-1.4,11.6-2.8,14.9-5.1c0.4,0.3,0.4,0.3,0.4,0.3
			s-5.3,11.7-15.3,12.5c-3,0-5.9,1.3-15.4-7.3C354.9,429.6,354.7,429.6,354.7,429.6z"/>
		<path class="st6" d="M360,431.6c-0.1,0-0.3,2.6,3.3,2.2c3.8-0.2,12.1-1.3,15.3-2.4c2.3-1,2.2-1.9,2.1-2.9
			C376.6,429.7,366,432.1,360,431.6z"/>
	</g>
	<circle class="st3" cx="348.7" cy="393.2" r="1"/>
	<circle class="st3" cx="349" cy="395.3" r="0.4"/>
	<circle class="st3" cx="375.7" cy="390.6" r="1"/>
	<path class="st0" d="M334.1,385.7c0.1,0.1,1,1.6,0.5,2.1c-0.5,0.5-1.4,0.7-1.9-1s-3.5-8.5-2.1-14.5c0.2-0.9-0.5-2.1-0.5-2.1
		s-2.5-2-1.9-2.9c0.7-0.7,1.9-0.4,2.3,0.4c1.4-2.2,2.3-3.1,3.6-2.9c1.3,0.1,0.9,1.9,0.5,2.3c2.7-0.5,4,0.4,3.8,1.3
		c-0.2,0.7-1.3,1.9-2.9,1.5c0.7,0.8,1.3,2.9-2.5,1C332,371.7,329.4,374.4,334.1,385.7z"/>
	<ellipse class="st0" cx="389.8" cy="363.4" rx="2.1" ry="1.9"/>
</g>
<g>
	<path class="st0" d="M215.4,332.3l16,7.2c0,0,0.2,3.8-2.2,4.3c-5.6-1.9-16.1-7-16.1-7L215.4,332.3z"/>
	<path class="st7" d="M212.2,336.2l-31.7-16.3c0,0-4.3-3.5,1-1.7c30.4,12.2,33.2,12.9,33.2,12.9l0.9-4l-19.4-6.9
		c0,0-3.2-1.9,0.8-1.1c4.1,0.9,21.4,6.1,21.4,6.1s-1.7,12.1-7.8,17.7c-8.9-4.8-18.6-12-18.6-12s-2.8-3.1,1.2-0.9
		c3.9,2.2,16.2,9.4,16.4,9.5C210.4,338.5,212.2,336.2,212.2,336.2z"/>
	<path class="st2" d="M116.8,458.9c0,0,2.1-0.5,2.9,1.5c0.8,2,1.8,8.6,1.8,8.6s1.8,0.8,0.7,2.4c-1,1.6-4.4,4.4-5.4,8
		c-0.7,1.8-5.1,5.2-14.4,3.5c-4.2-0.8-6.2-2.6-5.9-3.7c0.2-1.4,0.1-2.2,0.7-2.7c0.6-1.5,1.2-4,3.7-6c2.5-2.1,6.6-5.9,6.8-7.9
		C108.3,461.4,110.6,459,116.8,458.9z"/>
	<path class="st0" d="M97.1,476.5c-0.6,0.4-0.5,1.3-0.7,2.7c-0.3,1.1,1.8,2.9,5.9,3.7c9.4,1.8,13.8-1.7,14.4-3.5
		c1-3.6,4.4-6.4,5.4-8c1-1.7-0.7-2.4-0.7-2.4l-4.6,6.1c0,0-1.4,2.7-2.9,3.1C112.4,478.5,101.3,480.9,97.1,476.5z"/>
	<path class="st2" d="M163.9,459.7c0,0-2.1,0.1-2.3,2.3c-0.3,2.1,0.6,8.7,0.6,8.7s-1.4,1.3,0,2.6c1.4,1.3,5.4,3,7.3,6.2
		c1.1,1.5,6.3,3.6,14.9-0.6c3.8-1.9,5.3-4.2,4.7-5.2c-0.5-1.3-0.6-2.2-1.4-2.4c-1-1.3-2.3-3.5-5.2-4.8c-3-1.3-7.9-3.8-8.7-5.7
		C172.9,459.9,170,458.1,163.9,459.7z"/>
	<path class="st0" d="M161.6,418c-0.3,0.6,4.7,17.3,7.5,23.9c-1.9,6.4-5.4,9.8-4.8,19.2c1,0.9,3.5,0.4,5-0.7c1.4-1.2,5.1-11.3,6-13
		c0.9-1.9,3.9-6.3,3.2-8.5c-1.3-2.9-5.2-20.5-5.8-20.5C172.1,418.4,161.6,418,161.6,418z"/>
	<path class="st0" d="M128.6,421.2c-0.3,0.4-9.2,19.3-14.1,21.7c0.7,3.8,2.1,11.6,2.4,17.7c-1.1,2.2-3.9,2.1-5.6,0.9
		c-1.1-1.8-4.7-13.5-4.6-14.8c0.1-2.2-0.4-7,1.1-9.5c2-2.7,11.7-19.2,11.7-19.2L128.6,421.2z"/>
	<path class="st0" d="M88.1,377.5c0.1-0.3-13.7,4.2-15.4,10.3c-0.3,0.5,0.2,0.4,0.2,1c0,1.7,0.6,2.6,1.6,4.4
		c1.8,2.7,1.8,3.7,0.6,4.3c-1.1,0.6-3.8,1-5.3-2.8c-1.1,2.1-2.8,2.7-3.5,1.8c-0.6-1.1-1.5-3,0.5-7c-1.9-0.5-3.5-1-3.2-2.2
		c0.4-1.2,2.7-1.3,4.3-0.6c1.7,0.1,4.2-0.7,4.7-1.7c0.6-1,7.7-8.2,11.3-8.6C87.4,375.9,88.1,377.5,88.1,377.5z"/>
	
		<ellipse transform="matrix(8.637039e-02 -0.9963 0.9963 8.637039e-02 -238.362 481.3545)" class="st2" cx="143.3" cy="370.6" rx="55.2" ry="58.9"/>
	<path class="st1" d="M195.6,375.1c2.6-29.8-18.9-56.1-48.2-59.6c0.6,0.1,1.3,0.1,1.9,0.1c32.2,2.8,56.2,29.8,53.6,60.2
		c-2.6,30.4-30.9,52.8-63.1,50c-1.2-0.1-2.4-0.3-3.6-0.4C166.4,428,193,405.5,195.6,375.1z"/>
	<path class="st0" d="M201.9,356.8c-0.2,0.1-2.7,1-2.5,2.2c0.2,1.2,1.1,2.2,3.3,0.6c2.2-1.7,12.4-7,16.2-15.6
		c0.6-1.2,2.6-2.1,2.6-2.1s5-0.1,5-1.7c-0.2-1.5-2-2.2-3.2-1.8c0.4-4,0.1-5.9-1.7-6.9c-1.7-1.1-2.8,1.5-2.7,2.3
		c-2.8-3.1-5.2-3.2-5.8-2c-0.5,1-0.2,3.6,2.1,4.6c-1.7,0.3-4.3,2.3,2.1,3.6C217.6,341.8,218.2,347.6,201.9,356.8z"/>
	<path class="st0" d="M187.7,471.4c0.7,0.2,0.9,1.1,1.4,2.4c0.6,1-0.9,3.2-4.7,5.2c-8.6,4.3-13.7,2.1-14.9,0.6
		c-1.9-3.1-5.9-5-7.3-6.2c-1.4-1.3,0-2.6,0-2.6l6.1,4.6c0,0,2.1,2.2,3.7,2.2C173.5,477.5,184.8,476.8,187.7,471.4z"/>
	<path class="st4" d="M153.1,362.3c0,0,2.2,1.6,2.3,1.7c0.1,0.1,1.7,1.5,1.9,1.4c0.3-0.1,4-2.1,4-2.1l4.9-8.8l-2-5l-2.2-3.4
		l-2.6-0.5l-3.3,0.4l-3.6,4.1l-1.5,3.7l-1.4,5.1l0.3,1.8L153.1,362.3z"/>
	<path class="st3" d="M162.2,357.5c1.9-4.5,1.2-9.1-1.4-10.2c-2.7-1.1-6.4,1.6-8.3,6.1c-0.3,0.7-0.5,1.4-0.7,2.1
		c-0.7,2.1-0.7,4.2,0,5.6c0,0.1,0.1,0.1,0.1,0.1c-0.8-0.4-1.6-0.7-2.4-1c-0.4-2.6-0.1-5.7,1.2-8.7c2.7-6.4,8.5-10.2,12.9-8.3
		c4.4,1.9,5.8,8.6,3.1,15c-1.7,3.9-4.5,6.9-7.5,8.1c-0.9-0.9-2-1.8-3-2.6C158.3,363.2,160.8,360.9,162.2,357.5z"/>
	<path class="st0" d="M159,366.4c-0.9-0.9-2-1.8-3-2.5l-0.4-0.3l0.4-0.1c2.3-0.5,4.6-2.9,6-6.1l0,0c0.9-2.1,1.3-4.4,1-6.2
		c-0.3-1.9-1.1-3.1-2.3-3.7c-1.2-0.5-2.8-0.2-4.3,0.9c-1.5,1.1-2.9,2.9-3.8,5.1c-0.3,0.7-0.5,1.3-0.7,2.1c-0.7,2-0.7,4,0,5.5
		l0.2,0.6l-0.4-0.2c-0.8-0.4-1.6-0.7-2.4-1l-0.1-0.1v-0.1c-0.4-2.8,0-5.9,1.2-8.8c2.8-6.6,8.7-10.3,13.2-8.4
		c4.5,1.9,5.9,8.8,3.2,15.3c-1.6,3.8-4.4,6.9-7.5,8.2l-0.1,0.1L159,366.4z M163.4,343.4c-4.3-1.8-10,1.9-12.7,8.2
		c-1.2,2.8-1.7,5.9-1.2,8.5c0.6,0.2,1.2,0.5,1.9,0.8c-0.6-1.5-0.5-3.5,0.1-5.4c0.2-0.7,0.4-1.4,0.7-2.1c0.9-2.2,2.3-4,3.9-5.2
		c1.7-1.2,3.3-1.5,4.6-1c1.4,0.6,2.3,2,2.6,4c0.3,2-0.1,4.3-1,6.4c-1.3,3.1-3.6,5.5-5.9,6.2c1,0.7,1.8,1.4,2.7,2.2
		c3-1.3,5.6-4.3,7.2-7.9c2.6-6.1,1.4-12.4-2.4-14.5C163.8,343.5,163.6,343.4,163.4,343.4z"/>
	<path class="st0" d="M159.6,368.5c0.2,0.1,0.5,0.1,0.6-0.1c0.3-0.2,0.3-0.6,0.1-0.9c-2-2.4-4.4-4.4-7.2-6.1
		c-2.1-1.2-4.3-2.2-6.5-2.9c-0.3-0.1-0.6,0.1-0.7,0.4c-0.1,0.3,0.1,0.6,0.4,0.7c2.1,0.6,4.3,1.6,6.2,2.8c2.7,1.6,5,3.6,6.9,5.9
		C159.4,368.4,159.5,368.5,159.6,368.5z"/>
	<path class="st0" d="M158,350.3c-0.4,1.5-1,3.3-1,3.3c0.2-0.2,1.8-1.3,3-2.2c1.3,1.5,1.5,4.4,0.4,7.1c-1.1,2.7-3.2,4.5-5.2,4.7
		c-0.3-0.2-0.6-0.4-1-0.6c-0.7-0.5-1.5-0.9-2.3-1.3c0-0.1-0.1-0.1-0.1-0.2c-0.5-1.5-0.5-3.5,0-5.6c0.1-0.2,0.2-0.4,0.2-0.6
		C153.2,351.9,155.8,350,158,350.3z"/>
	<path class="st4" d="M116.9,359.8c0,0-2.6,1-2.7,1c-0.1,0-2,1.1-2.2,0.9c-0.2-0.2-3.3-3-3.3-3l-2.6-9.7l3.2-4.3l2.9-2.7l2.6,0.2
		l3.1,1.2l2.4,4.9l0.5,4l0.2,5.3l-0.7,1.7L116.9,359.8z"/>
	<path class="st3" d="M109.3,353c-0.7-4.8,1.1-9.1,3.9-9.5c2.9-0.4,5.8,3.1,6.6,7.9c0.1,0.7,0.2,1.5,0.2,2.2
		c0.2,2.2-0.4,4.2-1.4,5.4c0,0.1-0.1,0.1-0.1,0.1c0.9-0.2,1.8-0.3,2.6-0.4c1.1-2.4,1.4-5.5,1-8.7c-1-6.9-5.7-11.9-10.4-11.2
		s-7.7,6.9-6.7,13.8c0.6,4.3,2.6,7.8,5.2,9.7c1.1-0.6,2.3-1.2,3.6-1.7C111.6,359.5,109.8,356.5,109.3,353z"/>
	<path class="st0" d="M110,362.4l-0.1-0.1c-2.7-2-4.6-5.7-5.3-9.9c-1.1-7,2-13.3,6.9-14c4.8-0.7,9.6,4.4,10.7,11.4
		c0.5,3.1,0.1,6.3-1,8.8l-0.1,0.1H121c-0.9,0.1-1.7,0.2-2.6,0.4l-0.5,0.1l0.4-0.5c1.1-1.3,1.5-3.2,1.4-5.3c0-0.7-0.1-1.4-0.2-2.2
		c-0.3-2.3-1.2-4.4-2.4-5.9c-1.2-1.4-2.6-2.1-3.9-1.9c-1.3,0.2-2.4,1.3-3.2,3c-0.7,1.8-1,4-0.6,6.3l0,0c0.5,3.4,2.2,6.3,4.3,7.4
		l0.4,0.2l-0.4,0.2c-1.2,0.5-2.4,1.1-3.6,1.7L110,362.4z M111,339c-4.3,1.1-6.9,7-5.9,13.4c0.6,4,2.4,7.5,5,9.5c1-0.5,2-1.1,3.1-1.5
		c-2-1.3-3.6-4.2-4.1-7.5c-0.4-2.3-0.1-4.7,0.6-6.5c0.7-1.9,2-3,3.5-3.2c1.5-0.2,3,0.5,4.3,2.1c1.3,1.5,2.1,3.7,2.5,6
		c0.1,0.7,0.2,1.5,0.2,2.2c0.2,2-0.3,3.9-1.2,5.2c0.7-0.1,1.3-0.2,2-0.3c1.1-2.4,1.4-5.5,0.9-8.5c-1-6.8-5.6-11.8-10.2-11.1
		C111.4,338.9,111.2,339,111,339z"/>
	<path class="st0" d="M109.1,364.2c-0.2,0.1-0.5,0-0.6-0.2c-0.2-0.3-0.2-0.6,0.1-0.8c2.5-1.8,5.3-3.2,8.5-4.2c2.3-0.7,4.7-1.1,7-1.2
		c0.3,0,0.6,0.3,0.6,0.6s-0.2,0.6-0.6,0.6c-2.2,0.1-4.5,0.5-6.7,1.1c-3,0.9-5.8,2.2-8.1,3.9C109.2,364.1,109.2,364.2,109.1,364.2z"
		/>
	<path class="st0" d="M114.3,346.9c0.1,1.5,0.2,3.5,0.2,3.5c-0.1-0.2-1.4-1.7-2.3-2.9c-1.7,1.1-2.6,3.8-2.1,6.8
		c0.4,2.9,2,5.1,3.8,5.8c0.4-0.1,0.7-0.3,1.1-0.4c0.9-0.3,1.7-0.5,2.6-0.6c0.1-0.1,0.1-0.1,0.1-0.1c0.9-1.3,1.4-3.2,1.4-5.4
		c0-0.2-0.1-0.4-0.1-0.6C118.5,349.7,116.5,347.2,114.3,346.9z"/>
	<path class="st8" d="M83.4,360c0,0,19.1,10,43.9,10c10.4,0.3,61.7-9.4,72.6-13c4.7-0.9,5.2,3.9,5.2,5c0,1.4,4.2,39-21.1,53.5
		c-24.6,13.6-37.3,16.3-42.6,16.1c-5.3-0.3-41.8-11.1-53.3-35.7C81.9,380.8,81.3,365.3,83.4,360z"/>
	<path class="st0" d="M22.7,352.3l4.3,3c0,0,4.7-8,11.7-9.4c6.9-1.4,12.6,1.1,15.7,2.8c3.1,1.7,19.7,10.5,31.3,6.3
		c1.4-4.5,2.9-6.4,2.9-6.4s-6.3,6.1-31-3.9C44.9,340,34.6,335.1,22.7,352.3z"/>
	<path class="st0" d="M34.3,371.3l3-6.4c0,0,6.1,8.5,16.9,3.5c10.3-5.2,12.8-14.1,32.9-15.7c-2.3,5.2-1.4,5.6-1.4,5.6
		s-15.6,2.3-26.7,14.3C55.4,375.8,45.1,379.8,34.3,371.3z"/>
	<path class="st0" d="M128.5,379.1c10.1,0.4,21.8-1.7,26.5-3.3c-14.5,3.3-40.6-0.4-40.6-0.4c2.4,1.9,6.1,3,10.5,3.5
		c0.6,5.1,4.5,33,14.8,42C132,405.7,127.9,397,128.5,379.1z"/>
	<g>
		<path class="st0" d="M76.2,398.4l-16-7.2c0,0-0.2-3.8,2.2-4.3c5.6,1.9,16.1,7,16.1,7L76.2,398.4z"/>
		<path class="st7" d="M79.4,394.5l31.7,16.3c0,0,4.3,3.5-1,1.7c-30.4-12.2-33.2-12.9-33.2-12.9l-0.9,4l19.4,6.9
			c0,0,3.2,1.9-0.8,1.1c-4.1-0.9-21.4-6.1-21.4-6.1s1.7-12.1,7.8-17.7c8.9,4.8,18.6,12,18.6,12s2.8,3.1-1.2,0.9
			c-3.9-2.2-16.2-9.4-16.4-9.5C81.2,392.3,79.4,394.5,79.4,394.5z"/>
	</g>
	<path class="st0" d="M204.7,362.1c0-1.1-0.5-5.8-5.2-5c-6.5,2.1-26.9,6.4-44.8,9.4c14.8-0.6,31.8-1,32.9-0.1
		c1.8,1.7,10.8,16,9.3,18.7c-1.4,2.6-5,22-53,46.3c6.4-0.7,18.8-4.4,39.7-16C208.8,401.2,204.7,363.5,204.7,362.1z"/>
	<path class="st8" d="M80.8,363.3c0,0,0.2,1,1.9,0c6.7-3.6,25.8-14,49.1-15.4c28-1.5,58.6,8.4,66.5,11.2c3.4,1.1,7.8,0.8,9.2,0.5
		c1.3-1.1-0.8-4.7-1.5-5.8c-1.1-1.3-12-18.1-22.8-24.9c-11-6.8-21.2-16.8-38.5-17.5c-17-0.3-38.2,12-47.6,23.3
		C87.6,346.3,81.9,362.5,80.8,363.3z"/>
	<path class="st0" d="M111.5,342.2c-1.8,1.2,24-8.8,49-1.4C158.3,339.1,131.8,328.8,111.5,342.2z"/>
	<path class="st0" d="M198.1,359.3c3.4,1.1,7.8,0.8,9.2,0.5c1.3-1.1-0.8-4.7-1.5-5.8c-1.1-1.3-12-18.1-22.8-24.9
		c-4.4-2.7-8.6-5.9-13.2-8.8c6.8,7,11.7,16.2,13.2,19c2.1,4.1,0.6,11.1-16.6,8.1c-24.7-3.8-40.8-0.8-50.8,2.9
		c5.1-1.2,10.5-2.1,16.1-2.4C159.7,346.5,190.3,356.4,198.1,359.3z"/>
	<path class="st9" d="M131.8,347.7c-23.3,1.4-42.4,11.8-49.1,15.4c-0.1,0.1-0.2,0.1-0.2,0.1c0.4,0.3,0.7,0.5,0.7,0.5
		s26.4-8.1,45.8-8.1c12.6,0,46.8,2,69.2,3.4C190.3,356.1,159.8,346.1,131.8,347.7z"/>
	<path class="st10" d="M183.5,361.1c-21.5,2.4-48.8,5.3-58.6,5.7c-10.2,0.4-23.6-1.5-32.8-3.1c7.9,2.9,20.6,6.4,35.4,6.4
		C135,370.3,163.9,365.3,183.5,361.1z"/>
	<circle class="st3" cx="114.3" cy="358" r="0.8"/>
	<circle class="st3" cx="153.3" cy="359.2" r="1.2"/>
	<path class="st3" d="M75.4,407c0,0-0.8,0.3-0.4,0.9c16,3.5,16.9,3.6,16.9,3.6L75.4,407z"/>
</g>
<g>
	
		<linearGradient id="SVGID_1_" gradientUnits="userSpaceOnUse" x1="760.81" y1="2074.1028" x2="835.605" y2="2074.1028" gradientTransform="matrix(0.7071 -0.7071 -0.7071 -0.7071 1060.5265 2871.8726)">
		<stop  offset="8.430325e-03" style="stop-color:#000000;stop-opacity:0.3"/>
		<stop  offset="0.8192" style="stop-color:#000000;stop-opacity:0"/>
	</linearGradient>
	<polygon class="st11" points="202.1,831.8 202.1,850 114.5,850 114.5,831.8 	"/>
	<g>
		<path class="st2" d="M159.6,830c0,0-1.8-0.4-2.5,1.3c-0.7,1.6-1.5,7.3-1.5,7.3s-1.5,0.7-0.6,2.1c0.9,1.3,3.7,3.7,4.6,6.8
			c0.6,1.5,4.3,4.4,12.3,2.9c3.5-0.7,5.3-2.2,5.1-3.2c-0.1-1.2-0.1-1.9-0.6-2.3c-0.5-1.3-1.1-3.4-3.2-5.1c-2.1-1.8-5.6-5-5.8-6.7
			C166.8,832.2,164.9,830.1,159.6,830z"/>
		<path class="st0" d="M176.2,845c0.5,0.4,0.4,1.1,0.6,2.3c0.3,0.9-1.5,2.5-5.1,3.2c-8,1.5-11.7-1.5-12.3-2.9
			c-0.8-3-3.7-5.4-4.6-6.8c-0.9-1.4,0.6-2.1,0.6-2.1l3.9,5.2c0,0,1.2,2.3,2.5,2.6C163.2,846.7,172.7,848.8,176.2,845z"/>
		<path class="st2" d="M109.2,829.3c0,0-1.8-0.4-2.5,1.3c-0.7,1.6-1.5,7.3-1.5,7.3s-1.5,0.7-0.6,2.1c0.9,1.3,3.7,3.7,4.6,6.8
			c0.6,1.5,4.3,4.4,12.3,2.9c3.5-0.7,5.3-2.2,5.1-3.2c-0.1-1.2-0.1-1.9-0.6-2.3c-0.5-1.3-1.1-3.4-3.2-5.1c-2.1-1.8-5.6-5-5.8-6.7
			C116.4,831.5,114.5,829.4,109.2,829.3z"/>
		<path class="st0" d="M125.9,844.3c0.5,0.4,0.4,1.1,0.6,2.3c0.3,0.9-1.5,2.5-5.1,3.2c-8,1.5-11.7-1.5-12.3-2.9
			c-0.8-3-3.7-5.4-4.6-6.8c-0.9-1.4,0.6-2.1,0.6-2.1l3.9,5.2c0,0,1.2,2.3,2.5,2.6C112.9,846,122.4,848.1,125.9,844.3z"/>
		<path class="st0" d="M116.9,796c-0.3,0.4-0.1,15.2,0.6,21.3c-3,4.8-6.7,6.8-8.4,14.6c0.6,0.9,2.8,1.1,4.2,0.6
			c1.5-0.7,6.7-8,7.9-9.3c1.1-1.4,4.7-4.2,4.5-6.2c-0.4-2.7,0.4-17.9,0-18.1C125.3,798.8,116.9,796,116.9,796z"/>
		<path class="st0" d="M149.6,799.4c0.3,0.3,7.8,16.4,11.9,18.4c-0.6,3.2-1.8,9.9-2.1,15c0.9,1.9,3.3,1.8,4.7,0.7
			c0.9-1.5,4-11.5,4-12.5c-0.1-1.8,0.3-6-0.9-8c-1.7-2.3-10-16.3-10-16.3L149.6,799.4z"/>
		<path class="st0" d="M184.8,745.8c-0.3,0.1,7.3,9.8,12.6,9.3c0.5,0.1,0.3-0.3,0.8-0.4c1.3-0.5,2-1.7,3.1-2.5
			c1.6-2.2,2.4-2.5,3.2-1.7c0.8,0.7,1.8,2.8-0.8,5.1c2,0.3,3,1.5,2.4,2.3c-0.7,0.8-2,2-5.7,1.6c0.1,1.6,0.3,3.1-0.8,3.2
			c-1,0.1-1.8-1.8-1.7-3.2c-0.4-1.4-1.8-3.1-2.7-3.3s-8.7-3.8-10.1-6.6C183.7,746.8,184.8,745.8,184.8,745.8z"/>
		
			<ellipse transform="matrix(0.9963 -8.637217e-02 8.637217e-02 0.9963 -64.8289 14.6703)" class="st2" cx="137.1" cy="756.5" rx="50" ry="46.9"/>
		<path class="st1" d="M92.6,760.3c-2.2-25.3,16-47.6,40.9-50.6c-0.5,0-1.1,0.1-1.6,0.1c-27.3,2.4-47.7,25.3-45.5,51.1
			c2.2,25.8,26.2,44.8,53.6,42.4c1-0.1,2-0.2,3-0.4C117.5,805.2,94.9,786,92.6,760.3z"/>
		<g>
			<path class="st4" d="M122.3,748c0,0-2.8,0.5-2.8,0.6s-2.2,0.7-2.4,0.5c-0.2-0.2-2.8-3.6-2.8-3.6l-0.9-10.2l3.9-3.8l3.4-2.2
				l2.6,0.6l2.8,1.8l1.6,5.3l-0.2,4.1l-0.8,5.2l-1.1,1.6L122.3,748z"/>
			<path class="st3" d="M115.7,739.9c0.1-4.9,2.6-8.9,5.6-8.8c3,0.1,5.3,4.1,5.2,9c0,0.8-0.1,1.5-0.2,2.2c-0.2,2.2-1.1,4.1-2.3,5.2
				c-0.1,0.1-0.1,0.1-0.1,0.1c0.9,0,1.8,0,2.7,0.1c1.5-2.3,2.4-5.2,2.5-8.6c0.1-7.1-3.7-12.9-8.5-13c-4.9-0.1-8.9,5.6-9,12.6
				c-0.1,4.4,1.3,8.2,3.5,10.6c1.3-0.4,2.5-0.8,3.9-1.1C116.9,746.8,115.7,743.5,115.7,739.9z"/>
			<g>
				<path class="st0" d="M114.9,749.5l-0.1-0.1c-2.3-2.5-3.7-6.5-3.6-10.7c0.1-7.2,4.3-12.9,9.3-12.9c5,0.1,8.8,6.1,8.7,13.2
					c-0.1,3.2-0.9,6.3-2.5,8.7l-0.1,0.1h-0.1c-0.9-0.1-1.8-0.1-2.7-0.1h-0.5l0.4-0.4c1.3-1.1,2.1-3,2.3-5.1c0.1-0.7,0.2-1.5,0.2-2.2
					c0.1-2.3-0.4-4.5-1.4-6.3c-0.9-1.6-2.2-2.6-3.6-2.6s-2.7,0.8-3.7,2.5c-1,1.6-1.6,3.9-1.6,6.2l0,0c-0.1,3.5,1.1,6.7,3,8.1
					l0.4,0.3l-0.4,0.1c-1.3,0.3-2.6,0.6-3.9,1.1L114.9,749.5z M119.9,726.2c-4.5,0.4-8.1,5.8-8.2,12.4c-0.1,4,1.2,7.9,3.4,10.4
					c1.1-0.4,2.2-0.7,3.3-0.9c-1.8-1.6-2.9-4.7-2.8-8.2c0.1-2.4,0.7-4.7,1.7-6.4c1.1-1.7,2.5-2.7,4-2.7s2.9,1,3.9,2.8
					c1,1.8,1.5,4,1.5,6.4c0,0.8-0.1,1.5-0.2,2.2c-0.2,2-0.9,3.9-2.1,5.1c0.7,0,1.4,0,2.1,0.1c1.5-2.3,2.3-5.2,2.4-8.4
					c0.1-6.9-3.6-12.7-8.3-12.8C120.3,726.2,120,726.2,119.9,726.2z"/>
			</g>
			<path class="st5" d="M124.7,747.5L124.7,747.5c0.1-0.1,0.1-0.1,0.1-0.1C124.7,747.4,124.7,747.5,124.7,747.5z"/>
			<g>
				<path class="st0" d="M113.7,751.1c-0.3,0-0.5-0.1-0.6-0.3c-0.1-0.3,0-0.6,0.3-0.8c2.8-1.4,5.9-2.3,9.2-2.7
					c2.5-0.3,4.9-0.3,7.2,0c0.3,0.1,0.6,0.3,0.5,0.7c-0.1,0.3-0.3,0.6-0.7,0.5c-2.3-0.3-4.6-0.3-6.9,0c-3.2,0.4-6.1,1.3-8.8,2.6
					C113.8,751.1,113.7,751.1,113.7,751.1z"/>
			</g>
			<path class="st0" d="M122.7,734.9c-0.3,1.6-0.4,3.5-0.4,3.5c-0.1-0.2-1.1-1.9-1.8-3.3c-1.8,0.9-3.2,3.4-3.3,6.4
				c-0.1,3,1.1,5.4,2.8,6.4c0.4-0.1,0.8-0.1,1.1-0.2c0.9-0.1,1.8-0.2,2.7-0.2c0.1-0.1,0.1-0.1,0.1-0.1c1.1-1.2,2-3,2.3-5.2
				c0-0.2,0-0.4,0.1-0.6C126.4,738.3,124.8,735.5,122.7,734.9z"/>
		</g>
		<g>
			<path class="st4" d="M158.6,744.9c0,0-2.7,0.2-2.8,0.2s-2.1,0.4-2.3,0.3c-0.1-0.2-2.3-3.7-2.3-3.7l0.3-9.9l4.1-3.2l3.5-1.8
				l2.4,0.9l2.5,2l1,5.2l-0.6,3.9l-1.3,4.9l-1.1,1.4L158.6,744.9z"/>
			<path class="st3" d="M153.3,736.5c0.6-4.7,3.4-8.2,6.3-7.8c2.8,0.4,4.6,4.5,4,9.2c-0.1,0.7-0.3,1.5-0.4,2.1
				c-0.4,2.1-1.5,3.8-2.8,4.7c-0.1,0-0.1,0.1-0.1,0.1c0.9,0.1,1.7,0.2,2.5,0.3c1.6-2,2.8-4.8,3.3-8c0.9-6.8-2.1-12.8-6.8-13.3
				c-4.6-0.6-9.1,4.4-10,11.1c-0.6,4.2,0.4,8,2.3,10.5c1.2-0.3,2.5-0.5,3.9-0.6C153.6,743.2,152.8,740,153.3,736.5z"/>
			<g>
				<path class="st0" d="M151.4,745.6l-0.1-0.1c-2-2.7-2.8-6.6-2.3-10.6c0.9-6.9,5.5-11.9,10.2-11.3s7.8,6.7,6.9,13.6
					c-0.4,3.1-1.6,5.9-3.3,8l-0.1,0.1h-0.1c-0.8-0.1-1.6-0.3-2.5-0.3l-0.5-0.1l0.4-0.4c1.3-0.9,2.3-2.6,2.7-4.6
					c0.2-0.7,0.3-1.4,0.4-2.1c0.3-2.3,0.1-4.4-0.7-6.1s-1.8-2.7-3.2-2.8c-1.3-0.2-2.7,0.5-3.8,2c-1.1,1.5-2,3.5-2.3,5.7l0,0
					c-0.4,3.3,0.3,6.5,2,8.1l0.3,0.3l-0.4,0.1c-1.3,0.1-2.6,0.3-3.8,0.6L151.4,745.6z M158.6,723.9c-4.3-0.1-8.3,4.7-9.2,11.1
					c-0.5,3.9,0.3,7.7,2.1,10.2c1.1-0.3,2.2-0.4,3.3-0.6c-1.6-1.7-2.3-4.9-1.8-8.1c0.3-2.3,1.1-4.4,2.3-5.9c1.2-1.5,2.7-2.3,4.1-2.1
					c1.5,0.2,2.7,1.3,3.5,3.1c0.8,1.8,1,4,0.7,6.3c-0.1,0.7-0.3,1.5-0.4,2.1c-0.4,1.9-1.3,3.6-2.5,4.6c0.7,0.1,1.3,0.1,2,0.3
					c1.6-2,2.8-4.8,3.2-7.8c0.9-6.6-2.1-12.5-6.6-13.1C159,723.9,158.8,723.9,158.6,723.9z"/>
			</g>
			<path class="st5" d="M160.9,744.7C161,744.7,161,744.7,160.9,744.7c0.1,0,0.1-0.1,0.1-0.1C161,744.7,161,744.7,160.9,744.7z"/>
			<g>
				<path class="st0" d="M150,747c-0.3,0-0.4-0.1-0.5-0.4c-0.1-0.3,0.1-0.6,0.3-0.8c2.8-1,5.9-1.6,9-1.6c2.3,0,4.7,0.3,6.9,0.8
					c0.3,0.1,0.5,0.4,0.4,0.7c-0.1,0.3-0.4,0.5-0.7,0.4c-2.1-0.5-4.4-0.8-6.6-0.8c-3,0.1-5.9,0.6-8.7,1.5
					C150.2,747,150.1,747,150,747z"/>
			</g>
			<path class="st0" d="M160.4,732.4c-0.4,1.5-0.8,3.3-0.8,3.3c-0.1-0.2-0.8-1.9-1.4-3.3c-1.8,0.6-3.4,2.9-3.8,5.8
				c-0.4,2.8,0.5,5.4,2.1,6.5c0.4,0,0.8-0.1,1.1-0.1c0.9,0,1.7,0,2.6,0.1c0.1,0,0.1-0.1,0.1-0.1c1.2-1,2.1-2.7,2.8-4.7
				c0.1-0.2,0.1-0.4,0.1-0.6C163.6,736.1,162.4,733.3,160.4,732.4z"/>
		</g>
		<g>
			<g>
				<path class="st0" d="M126.4,793.8c-0.2,0-0.4-0.1-0.5-0.3c-0.2-0.3-0.1-0.6,0.1-0.8c0.1-0.1,2.3-1.7,2.4-5.2
					c0-0.3,0.3-0.6,0.6-0.6s0.6,0.3,0.6,0.6c-0.1,4-2.8,6-2.8,6.1C126.5,793.8,126.4,793.8,126.4,793.8z"/>
			</g>
			<g>
				<path class="st0" d="M160.2,788.3c-0.1,0-0.1,0-0.2,0c-0.1-0.1-3-0.9-4.1-4.3c-0.1-0.3,0.1-0.6,0.3-0.7c0.3-0.1,0.6,0.1,0.7,0.3
					c0.9,2.8,3.3,3.6,3.4,3.6c0.3,0.1,0.4,0.4,0.4,0.7C160.6,788.2,160.4,788.3,160.2,788.3z"/>
			</g>
			<path class="st0" d="M128.3,790.5c0.3,0.1,7.9,1.7,14.7,0.3c6.8-1.4,11.2-2.7,14.3-4.9c0.4,0.3,0.4,0.3,0.4,0.3
				s-5.1,11.2-14.8,12.1c-3,0-5.7,1.2-14.8-7.1C128.5,790.5,128.3,790.5,128.3,790.5z"/>
			<path class="st6" d="M133.3,792.4c-0.1,0-0.3,2.5,3.2,2.1c3.7-0.2,11.7-1.2,14.8-2.3c2.2-0.9,2.1-1.8,2-2.8
				C149.4,790.6,139.2,792.9,133.3,792.4z"/>
		</g>
		<path class="st0" d="M87,757.4c0.1-0.1,0.7-2.4,1.7-2.3c1,0.1,2,0.8,0.8,2.8c-1.3,2-5.1,10.9-12.1,14.7c-0.9,0.6-1.6,2.3-1.6,2.3
			s0.3,4.2-1.1,4.4c-1.3-0.1-2-1.5-1.7-2.7c-3.3,0.6-5,0.5-5.9-0.9c-1-1.4,1.1-2.5,1.8-2.5c-2.8-2.2-3.1-4.2-2.1-4.8
			c0.8-0.5,3-0.4,4,1.5c0.1-1.5,1.6-3.8,3.2,1.5C75.3,771.6,80.2,771.8,87,757.4z"/>
		<g>
			<path class="st3" d="M180.9,760.2c0.6,5.4-3.3,10.4-8.8,11c-5.4,0.6-10.4-3.3-11-8.8c-0.6-5.4,3.3-10.4,8.8-11
				C175.4,750.7,180.3,754.7,180.9,760.2"/>
			<polygon class="st3" points="106.8,759.7 111.7,759.1 113.2,772.3 121.7,771.4 122.1,775.6 108.8,777.1 			"/>
			<path class="st3" d="M123.3,767.9l-1.1-9.9l4.9-0.6l1.1,9.7c0.3,2.5,1.7,3.6,3.7,3.3c2-0.2,3.1-1.5,2.8-4l-1.1-9.9l4.9-0.6
				l1.1,9.7c0.6,5.6-2.3,8.5-7.3,9C127.3,775.5,123.9,773.3,123.3,767.9"/>
			<polygon class="st3" points="140,755.9 145.1,755.4 150,761.7 153.4,754.4 158.6,753.8 160.5,771.3 155.7,771.9 154.6,761.9 
				150.9,769.2 150.8,769.2 145.6,762.9 146.7,772.9 142,773.4 			"/>
			<polygon class="st3" points="142.4,776.8 146.6,776.3 146.8,777.6 144,777.9 144.1,778.7 146.6,778.4 146.8,779.5 144.2,779.9 
				144.3,780.7 147.1,780.4 147.3,781.6 143,782.1 			"/>
			<polygon class="st3" points="147.8,776.2 149.2,776.1 151.6,778.6 151.3,775.8 152.8,775.7 153.3,780.9 152.1,781.1 149.5,778.4 
				149.8,781.3 148.3,781.5 			"/>
			<polygon class="st3" points="154,775.5 158.2,775.1 158.4,776.3 155.5,776.6 155.7,777.4 158.2,777.1 158.3,778.3 155.8,778.5 
				155.8,779.4 158.7,779 158.8,780.3 154.6,780.8 			"/>
			<path class="st3" d="M159.2,774.9l2.5-0.3c0.8-0.1,1.4,0.1,1.8,0.4c0.3,0.3,0.6,0.6,0.6,1.2l0,0c0.1,0.8-0.3,1.4-0.9,1.7l1.5,1.7
				l-1.7,0.2l-1.3-1.5l0,0l-0.6,0.1l0.2,1.6l-1.5,0.2L159.2,774.9z M161.9,777.2c0.5-0.1,0.8-0.3,0.7-0.7l0,0
				c-0.1-0.4-0.4-0.6-0.9-0.5l-0.9,0.1l0.1,1.3L161.9,777.2z"/>
			<path class="st3" d="M164.8,777L164.8,777c-0.2-1.6,0.9-2.9,2.5-3.1c0.9-0.1,1.6,0.1,2.2,0.5l-0.8,1.1c-0.4-0.3-0.8-0.4-1.3-0.4
				c-0.8,0.1-1.3,0.8-1.2,1.6l0,0c0.1,0.8,0.8,1.4,1.6,1.3c0.4-0.1,0.6-0.1,0.8-0.3l-0.1-0.6l-1,0.1l-0.1-1.1l2.4-0.3l0.3,2.3
				c-0.5,0.5-1.3,0.9-2.2,1.1C166.3,779.5,165,778.6,164.8,777"/>
			<polygon class="st3" points="172.3,776.8 169.9,773.7 171.6,773.5 172.8,775.4 173.7,773.3 175.4,773.1 173.7,776.6 174,778.6 
				172.5,778.8 			"/>
		</g>
		<path class="st12" d="M114.3,732c0,0-7.5,1.3-10-0.6c-2.6-2.1-10.4-0.4-11.9,3.7c0,0-0.1,0-0.3-0.1c-0.9,1.6-1.8,3.4-2.5,5.2
			c3.2-0.9,6.8-1.6,9-0.9c5.1,1.7,62.7-3.4,85.9,2c-1.9-5.4-4.8-10.3-8.5-14.5C156.5,728.6,114.3,732,114.3,732z"/>
		<path class="st13" d="M91.8,736.4c0,0-4.5-0.8-5.6-4c-1.2-3.2-2.2-36.9,29-43c4.4,1.3,6.6,0.4,7.8-0.9c1.4-1.3,6.2-1.1,8,0.4
			c2,1.3,5.4-0.2,5.9-1.1c0.6-0.8,4.8-0.6,5.7,0.6c0.8,1.1,4.2,2.3,5,1.5c0.8-0.8,22.7,3,25.4,25.5c3.6,4.4,5.6,6.6,8.7,6.8
			c3.2,0.2,3.8,4.2,1.6,5.1c-9.2,1.1-70,6.1-70,6.1s-7.3,1.3-9.9-0.6C101,730.7,93.2,732.4,91.8,736.4z"/>
		<path class="st14" d="M147.9,689.7c-0.1,0-0.2,0.1-0.3,0.1c-0.8,0.8-4.2-0.4-5-1.5c0,0,3.3,6.4,3.9,12.2c0.8,1,3.2,1.8,3.7,0
			C151,698.7,148.5,690.8,147.9,689.7z"/>
		<path class="st14" d="M136.8,687.9c-0.9,0.9-4,2.2-5.8,0.9c0,0,5.4,7.8,5.9,11.4c0.4,2.3,5.4,1.2,4.8-0.6
			C141.1,697.8,138.6,689.2,136.8,687.9z"/>
		<path class="st14" d="M123.3,688.2c-0.1,0.1-0.2,0.1-0.3,0.2c-1.2,1.3-3.3,2.3-7.8,0.9c0,0,8,9.3,8.3,11.2c0.3,1.8,5,1.7,4.9-0.5
			C128.2,697.9,126.7,689.7,123.3,688.2z"/>
	</g>
</g>
<g>
	
		<linearGradient id="SVGID_2_" gradientUnits="userSpaceOnUse" x1="1038.358" y1="2039.1624" x2="1127.4191" y2="2039.1624" gradientTransform="matrix(0.7071 -0.7071 -0.7071 -0.7071 1060.5265 2871.8726)">
		<stop  offset="8.430325e-03" style="stop-color:#000000;stop-opacity:0.3"/>
		<stop  offset="0.8192" style="stop-color:#000000;stop-opacity:0"/>
	</linearGradient>
	<polygon class="st15" points="441.1,658.1 441.1,670.5 327.6,670.5 327.6,658.1 	"/>
	<path class="st2" d="M337.5,648.3c0,0,1.9-0.4,2.6,1.4c0.8,1.8,1.6,7.8,1.6,7.8s1.6,0.8,0.7,2.2c-1,1.4-4,4-4.9,7.2
		c-0.6,1.6-4.6,4.7-13.1,3.1c-3.8-0.8-5.6-2.3-5.4-3.3c0.1-1.2,0-2.1,0.6-2.4c0.5-1.3,1.1-3.6,3.4-5.5c2.3-1.9,6-5.3,6.2-7.2
		C329.8,650.5,331.8,648.3,337.5,648.3z"/>
	<path class="st0" d="M319.6,664.3c-0.6,0.4-0.5,1.1-0.6,2.4c-0.3,1.1,1.6,2.6,5.4,3.3c8.6,1.6,12.5-1.5,13.1-3.1
		c0.9-3.2,4-5.8,4.9-7.2c1-1.5-0.7-2.2-0.7-2.2l-4.2,5.5c0,0-1.2,2.5-2.7,2.8C333.6,666.1,323.5,668.3,319.6,664.3z"/>
	<path class="st2" d="M391.4,647.5c0,0,1.9-0.4,2.6,1.4c0.8,1.8,1.6,7.8,1.6,7.8s1.6,0.8,0.7,2.2c-1,1.4-4,4-4.9,7.2
		c-0.6,1.6-4.6,4.7-13.1,3.1c-3.8-0.8-5.6-2.3-5.4-3.3c0.1-1.2,0-2.1,0.6-2.4c0.5-1.3,1.1-3.6,3.4-5.5c2.3-1.9,6-5.3,6.2-7.2
		C383.7,649.8,385.7,647.6,391.4,647.5z"/>
	<path class="st0" d="M383.1,610.4c0.4,0.5,0.1,16.3-0.6,22.8c3.2,5.2,7.1,7.3,9,15.6c-0.6,1-3,1.2-4.5,0.6
		c-1.5-0.7-7.2-8.6-8.4-9.9c-1.2-1.5-5-4.5-4.9-6.6c0.5-2.8-0.5-19.2,0-19.3C374.2,613.3,383.1,610.4,383.1,610.4z"/>
	<path class="st0" d="M348.2,614c-0.2,0.4-8.4,17.6-12.8,19.7c0.6,3.4,1.9,10.5,2.2,16.1c-1,2-3.6,1.9-5.1,0.8
		c-1-1.6-4.3-12.3-4.2-13.4c0-2-0.4-6.4,1-8.6c1.8-2.4,10.7-17.5,10.7-17.5L348.2,614z"/>
	<path class="st0" d="M310.6,556.6c0.2,0-7.7,10.5-13.5,10c-0.7-0.2-0.4-0.2-0.8-0.4c-1.3-0.8-5.4-1.8-3.3-2.7
		c-1.7-2.3-2.6-2.6-3.4-1.9c-0.9,0.8-2,3,0.8,5.4c-2.2,0.3-3.2,1.6-2.6,2.4c0.7,0.9,2.2,2.2,6.2,1.7c-0.1,1.8-0.2,3.3,0.9,3.4
		c1.1,0,2-1.9,1.9-3.4c0.5-1.5,1.9-3.3,2.9-3.5c1.1-0.2,9.4-4,10.8-7.1C311.7,557.7,310.6,556.6,310.6,556.6z"/>
	
		<ellipse transform="matrix(8.637068e-02 -0.9963 0.9963 8.637068e-02 -235.5853 879.2193)" class="st2" cx="361.6" cy="568.1" rx="50.2" ry="53.5"/>
	<path class="st1" d="M409.1,572.1c2.3-27.1-17.2-51-43.8-54.2c0.6,0,1.1,0,1.7,0.1c29.3,2.5,51.1,27,48.7,54.7
		c-2.4,27.6-28.1,48-57.3,45.4c-1.1-0.1-2.2-0.2-3.3-0.4C382.6,620.2,406.7,599.7,409.1,572.1z"/>
	<path class="st5" d="M367.5,555.5L367.5,555.5c0,0-0.1,0-0.1-0.1C367.4,555.4,367.5,555.4,367.5,555.5z"/>
	<g>
		<path class="st4" d="M370.1,556c0,0,2.9,0.6,3.1,0.6c0.1,0,2.3,0.8,2.5,0.6s3-3.8,3-3.8l1-10.9l-4.2-4.1l-3.6-2.3l-2.8,0.7
			l-3.1,1.9l-1.8,5.7l0.2,4.4l0.8,5.6l1.1,1.7L370.1,556z"/>
		<path class="st3" d="M377,547.3c-0.1-5.3-2.8-9.5-5.9-9.5c-3.2,0-5.6,4.4-5.5,9.7c0,0.8,0.1,1.6,0.2,2.3c0.2,2.4,1.1,4.4,2.5,5.5
			c0,0,0,0,0.1,0.1c-1,0-1.9,0-2.9,0c-1.6-2.4-2.6-5.6-2.6-9.2c-0.1-7.6,3.9-13.8,9.1-13.9c5.2-0.1,9.5,6,9.7,13.5
			c0.1,4.6-1.4,8.8-3.8,11.3c-1.3-0.5-2.7-0.9-4.2-1.1C375.7,554.7,377.1,551.3,377,547.3z"/>
		<path class="st0" d="M377.8,557.5c-1.3-0.5-2.7-0.9-4.1-1.1l-0.5-0.1l0.4-0.3c2-1.5,3.3-4.9,3.2-8.7l0,0c0-2.5-0.7-4.9-1.8-6.6
			c-1.1-1.7-2.5-2.6-3.9-2.6c-1.4,0-2.8,1-3.8,2.8c-1.1,1.8-1.6,4.2-1.5,6.7c0,0.8,0.1,1.6,0.2,2.3c0.2,2.2,1.1,4.3,2.4,5.4l0.5,0.5
			h-0.5c-1,0-1.9,0-2.8,0h-0.1l0-0.1c-1.7-2.5-2.6-5.8-2.7-9.3c-0.1-7.7,4-14.1,9.3-14.2c5.3-0.1,9.8,6.1,9.9,13.8
			c0.1,4.5-1.3,8.8-3.8,11.5l-0.1,0.1H377.8z M372,532.7c-5.1,0.1-9.1,6.3-8.9,13.7c0,3.3,1,6.5,2.5,9c0.7,0,1.4,0,2.2,0
			c-1.2-1.2-2.1-3.2-2.2-5.4c-0.1-0.8-0.2-1.6-0.2-2.4c0-2.6,0.5-5.1,1.6-6.9c1.1-1.9,2.6-3,4.2-3c1.6,0,3.2,1,4.3,2.8
			c1.1,1.8,1.8,4.3,1.9,6.8c0.1,3.7-1.1,7-3,8.8c1.2,0.3,2.4,0.6,3.6,1.1c2.3-2.6,3.7-6.7,3.6-11.1c-0.1-7.1-4-12.9-8.8-13.3
			C372.4,532.7,372.2,532.7,372,532.7z"/>
		<path class="st0" d="M379.3,559.3c0.2,0,0.5-0.1,0.6-0.3c0.1-0.3,0-0.7-0.3-0.9c-3-1.5-6.3-2.4-9.8-2.9c-2.6-0.3-5.2-0.3-7.7,0
			c-0.3,0-0.6,0.4-0.6,0.7c0,0.3,0.4,0.6,0.7,0.6c2.4-0.3,4.9-0.3,7.4,0c3.4,0.4,6.6,1.3,9.4,2.8
			C379.1,559.3,379.2,559.3,379.3,559.3z"/>
		<path class="st0" d="M371.1,542c0.2,1.7,0.4,3.7,0.4,3.7c0.1-0.2,1.1-2,2-3.5c2,0.9,3.4,3.6,3.5,6.9c0,3.2-1.2,5.8-3.1,6.9
			c-0.4,0-0.8-0.1-1.2-0.2c-1-0.1-1.9-0.2-2.9-0.2c0,0-0.1-0.1-0.1-0.1c-1.2-1.3-2.1-3.3-2.5-5.5c0-0.2,0-0.4,0-0.7
			C367.1,545.6,368.8,542.6,371.1,542z"/>
	</g>
	<path class="st4" d="M343,554.2c0,0,2.9,0.2,3,0.2s2.3,0.5,2.5,0.3c0.1-0.2,2.4-4,2.4-4l-0.2-10.5l-4.4-3.4l-3.7-1.9l-2.6,0.9
		l-2.7,2.1l-1.1,5.6l0.6,4.2l1.4,5.3l1.2,1.5L343,554.2z"/>
	<path class="st3" d="M348.7,545.2c-0.7-5-3.6-8.8-6.7-8.4c-3,0.4-4.9,4.8-4.3,9.9c0.1,0.8,0.2,1.5,0.5,2.2c0.4,2.2,1.6,4.1,3,5
		c0,0,0.1,0,0.1,0.1c-0.9,0.1-1.8,0.2-2.7,0.3c-1.8-2.2-3.1-5.1-3.5-8.5c-1-7.2,2.3-13.6,7.3-14.3s9.8,4.7,10.7,11.9
		c0.6,4.4-0.4,8.6-2.4,11.2c-1.3-0.3-2.7-0.5-4.1-0.7C348.3,552.3,349.2,548.9,348.7,545.2z"/>
	<path class="st0" d="M350.5,554.9c-1.3-0.3-2.7-0.5-4.1-0.7l-0.4,0l0.3-0.3c1.8-1.7,2.6-5.1,2.2-8.7l0,0c-0.3-2.4-1.2-4.6-2.4-6.2
		c-1.2-1.5-2.6-2.3-4-2.1c-1.4,0.2-2.6,1.3-3.3,3.1c-0.8,1.8-1.1,4.2-0.7,6.6c0.1,0.8,0.2,1.5,0.5,2.2c0.4,2.1,1.5,4,2.9,4.9
		l0.5,0.4l-0.5,0c-0.9,0.1-1.8,0.2-2.7,0.3h-0.1l-0.1-0.1c-1.9-2.2-3.1-5.3-3.5-8.6c-1-7.3,2.3-13.9,7.4-14.5
		c5.1-0.7,9.9,4.8,11,12.1c0.6,4.3-0.3,8.6-2.4,11.4l-0.1,0.1L350.5,554.9z M342.4,531.7c-4.8,0.6-8,6.9-7.1,14.1
		c0.4,3.2,1.6,6.1,3.4,8.3c0.7-0.1,1.4-0.2,2.1-0.3c-1.3-1.1-2.3-2.9-2.7-4.9c-0.2-0.7-0.4-1.5-0.5-2.2c-0.3-2.5,0-4.9,0.8-6.8
		c0.9-1.9,2.2-3.1,3.7-3.3c1.5-0.2,3.1,0.6,4.4,2.2c1.3,1.6,2.2,3.9,2.5,6.4c0.5,3.5-0.3,6.8-2,8.7c1.2,0.1,2.4,0.3,3.5,0.6
		c2-2.7,2.8-6.8,2.3-11c-0.9-6.8-5.2-11.9-9.8-11.8C342.8,531.7,342.6,531.7,342.4,531.7z"/>
	<path class="st5" d="M340.5,554C340.5,554,340.4,554,340.5,554c0,0-0.1,0-0.1-0.1C340.4,554,340.4,554,340.5,554z"/>
	<path class="st0" d="M352.1,556.4c0.2,0,0.5-0.1,0.6-0.4c0.1-0.3,0-0.7-0.4-0.8c-3-1.1-6.3-1.7-9.7-1.7c-2.5,0-5,0.2-7.4,0.8
		c-0.3,0.1-0.5,0.4-0.4,0.8c0.1,0.3,0.4,0.5,0.8,0.4c2.2-0.6,4.6-0.8,7.1-0.8c3.3,0,6.4,0.6,9.3,1.6
		C352,556.4,352.1,556.4,352.1,556.4z"/>
	<path class="st0" d="M342.6,540.9c0.4,1.6,0.8,3.5,0.8,3.5c0.1-0.2,0.9-2.1,1.5-3.6c2,0.7,3.7,3.1,4.1,6.2c0.4,3-0.5,5.7-2.2,6.9
		c-0.4,0-0.8,0-1.2,0c-1,0-1.9,0-2.8,0.1c0,0-0.1,0-0.1-0.1c-1.2-1.1-2.3-2.9-3-5c0-0.2-0.1-0.4-0.1-0.6
		C339.2,544.8,340.4,541.7,342.6,540.9z"/>
	<path class="st0" d="M345.7,604c0.2,0,5.8-1.3,11-0.4c5.1,1,8.3,1.9,10.7,3.5c0.3-0.2,0.3-0.2,0.3-0.2s-3.9-8.3-11.1-8.8
		c-2.2,0-4.3-0.9-11,5.4C345.8,603.9,345.7,604,345.7,604z"/>
	<g>
		<path class="st3" d="M399.5,574.5c-0.4,5.7-5.4,10.1-11.1,9.7c-5.7-0.4-10.1-5.4-9.7-11.1s5.4-10.1,11.1-9.7
			C395.5,563.9,399.9,568.8,399.5,574.5"/>
		<polygon class="st3" points="323.1,560.3 328.2,560.7 327.3,574.6 336.2,575.2 335.9,579.6 321.8,578.7 		"/>
		<path class="st3" d="M337.8,571.6l0.7-10.3l5.2,0.3l-0.7,10.2c-0.2,2.7,1.1,4,3.2,4.2c2.1,0.1,3.5-1,3.6-3.6l0.7-10.4l5.2,0.3
			l-0.7,10.2c-0.4,5.9-4,8.3-9.2,8C340.5,580.3,337.4,577.4,337.8,571.6"/>
		<polygon class="st3" points="358,562.6 363.4,562.9 367.3,570.4 372.2,563.5 377.6,563.9 376.4,582.3 371.2,582 372,571.4 
			366.8,578.3 366.7,578.3 362.4,570.8 361.8,581.4 356.8,581 		"/>
		<polygon class="st3" points="356.6,584.6 361.1,584.9 361,586.2 358,586 358,586.9 360.6,587 360.6,588.2 357.9,588.1 357.9,589 
			360.8,589.1 360.7,590.4 356.2,590.2 		"/>
		<polygon class="st3" points="362.3,585 363.7,585.1 365.8,588.1 366,585.2 367.5,585.3 367.1,590.9 365.8,590.8 363.6,587.6 
			363.4,590.6 361.9,590.5 		"/>
		<polygon class="st3" points="368.8,585.4 373.3,585.7 373.2,587 370.2,586.8 370.2,587.7 372.8,587.9 372.8,589.1 370.1,588.9 
			370,589.8 373,590 372.9,591.3 368.4,591 		"/>
		<path class="st3" d="M374.3,585.8l2.6,0.2c0.9,0,1.4,0.3,1.8,0.7c0.3,0.3,0.4,0.8,0.4,1.3l0,0c0,0.9-0.5,1.4-1.2,1.6l1.2,2
			l-1.8,0.1l-1-1.5l0,0l-0.7-0.3l-0.1,1.6l-1.5-0.1L374.3,585.8z M376.7,588.6c0.5,0,0.9-0.2,0.9-0.6l0,0c0-0.4-0.3-0.7-0.8-0.7
			l-1,0l-0.1,1.3L376.7,588.6z"/>
		<path class="st3" d="M379.4,588.5v0.4c0-1.6,1.6-2.8,3.3-2.7c1,0,1.7,0.4,2.2,1l-1,1c-0.4-0.4-1.2-0.6-1.8-0.6c-0.8,0-2,0.6-2,1.4
			l0,0c0,0.9,1,1.6,1.9,1.6c0.4,0,0.9,0,1.1-0.2l0.1-0.7l-1.1-0.1l0.1-1.1l2.6,0.2l-0.1,2.5c-0.6,0.4-1.4,0.8-2.4,0.7
			c-1.7-0.1-3-1.7-3-3.3"/>
		<polygon class="st3" points="387.5,590.2 385.5,586.5 387.3,586.7 388.3,588.7 389.6,586.8 391.3,586.9 389,590.2 388.8,592.3 
			387.3,592.2 		"/>
	</g>
	<path class="st0" d="M413.7,577.8c-0.1-0.1-1.9-1.9-1.3-2.8c0.6-0.9,1.8-1.4,3,0.8c1.2,2.2,7.6,10.5,7.5,19
		c0.1,1.2,1.3,2.7,1.3,2.7s4.1,2,3.5,3.3c-0.7,1.2-2.4,1.1-3.3,0.2c-1.2,3.4-2.2,4.9-4,5.1c-1.8,0.2-1.8-2.3-1.4-3
		c-3.5,1.5-5.5,0.7-5.5-0.5c0-1.1,1.1-3,3.5-3c-1.3-0.9-2.7-3.5,3.1-2.2C420.9,596.1,423.7,591.6,413.7,577.8z"/>
	<path class="st0" d="M373.5,663.5c-0.6,0.4-0.5,1.1-0.6,2.4c-0.3,1.1,1.6,2.6,5.4,3.3c8.6,1.6,12.5-1.5,13.1-3.1
		c0.9-3.2,4-5.8,4.9-7.2c1-1.5-0.7-2.2-0.7-2.2l-4.2,5.5c0,0-1.2,2.5-2.7,2.8C387.4,665.4,377.4,667.5,373.5,663.5z"/>
	<circle class="st3" cx="370.1" cy="547.9" r="1"/>
	<circle class="st3" cx="342.2" cy="546.7" r="1"/>
	<circle class="st3" cx="342.3" cy="549.3" r="0.7"/>
	<g>
		<path class="st0" d="M318,507c0-14.1-11.2-25.5-25.3-25.5s-25.4,11.4-25.4,25.5c0,13.2,10.5,24.1,23,25.3v91.3
			c0,1.4,0.8,2.6,2.2,2.6s2.2-1.1,2.2-2.6v-91.3C308.1,531,318,520.1,318,507z"/>
		<circle class="st3" cx="293.2" cy="507" r="21.9"/>
	</g>
	<path class="st13" d="M282.2,518c0.7,0.7,1.5,1,2.4,1c0.9,0,1.7-0.3,2.4-1l6.2-6.2l6.2,6.2c0.7,0.7,1.5,1,2.4,1
		c0.9,0,1.7-0.3,2.4-1c1.3-1.3,1.3-3.4,0-4.7l-6.2-6.2l6.2-6.2c1.3-1.3,1.3-3.4,0-4.7c-1.3-1.3-3.4-1.3-4.7,0l-6.2,6.2l-6.2-6.2
		c-1.3-1.3-3.4-1.3-4.7,0c-1.3,1.3-1.3,3.4,0,4.7l6.2,6.2l-6.2,6.2C280.9,514.7,280.9,516.8,282.2,518z"/>
	<path class="st0" d="M380.2,534.6c0.2-0.2,0.4-0.5,0.3-0.9c-0.1-0.5-0.5-0.8-1.1-0.8c-0.2,0-4.7,0.7-8.7-3.3
		c-0.3-0.3-0.9-0.3-1.3,0c-0.3,0.3-0.3,0.9,0,1.3c4.7,4.6,10,3.8,10.2,3.8C379.9,534.8,380.1,534.7,380.2,534.6z"/>
	<path class="st0" d="M335.7,533.2c-0.2-0.2-0.4-0.5-0.3-0.9c0.1-0.5,0.5-0.8,1.1-0.8c0.2,0,4.7,0.7,8.7-3.3c0.3-0.3,0.9-0.3,1.3,0
		c0.3,0.3,0.3,0.9,0,1.3c-4.7,4.6-10,3.8-10.2,3.8C336,533.3,335.8,533.3,335.7,533.2z"/>
	
		<ellipse transform="matrix(0.9677 -0.2521 0.2521 0.9677 -135.2312 92.1617)" class="st0" cx="292.1" cy="573.8" rx="3.3" ry="1.5"/>
	
		<linearGradient id="SVGID_3_" gradientUnits="userSpaceOnUse" x1="282.5428" y1="369.1661" x2="315.0601" y2="369.1661" gradientTransform="matrix(1 0 0 -1 0 882)">
		<stop  offset="8.430325e-03" style="stop-color:#000000;stop-opacity:0.3"/>
		<stop  offset="1" style="stop-color:#000000;stop-opacity:0"/>
	</linearGradient>
	<path class="st16" d="M315.1,507.4l-10.6-10.6c0.8,1.3,0.7,3-0.5,4.2l-6.2,6.2l6.2,6.2c1.3,1.3,1.3,3.4,0,4.7c-0.7,0.7-1.5,1-2.4,1
		c-0.9,0-1.7-0.3-2.4-1l-6.2-6.2l-6.2,6.2c-0.7,0.7-1.5,1-2.4,1c-0.7,0-1.4-0.2-2-0.7l10.4,10.4c0.1,0,0.1,0,0.2,0
		C305.1,528.8,314.8,519.3,315.1,507.4z"/>
</g>
<g>
	
		<linearGradient id="SVGID_4_" gradientUnits="userSpaceOnUse" x1="1320.8522" y1="2303.4312" x2="1440.7716" y2="2303.4312" gradientTransform="matrix(0.7071 -0.7071 -0.7071 -0.7071 1060.5265 2871.8726)">
		<stop  offset="8.430325e-03" style="stop-color:#000000;stop-opacity:0.3"/>
		<stop  offset="0.8192" style="stop-color:#000000;stop-opacity:0"/>
	</linearGradient>
	<polygon class="st17" points="484.6,258.4 484.6,275.1 331.7,275.1 331.7,258.4 	"/>
	<path class="st2" d="M395.8,246.4c0,0-2.5-0.5-3.5,1.9c-1,2.3-2.2,10.4-2.2,10.4s-2.1,1-0.9,3c1.2,1.9,5.4,5.4,6.5,9.7
		c0.8,2.1,6.1,6.3,17.5,4.1c5.1-1,7.5-3.1,7.2-4.4c-0.2-1.7-0.1-2.7-0.8-3.2c-0.7-1.8-1.5-4.8-4.5-7.2c-3-2.6-7.9-7.1-8.3-9.5
		C406,249.5,403.3,246.5,395.8,246.4z"/>
	<path class="st0" d="M419.5,267.7c0.8,0.5,0.6,1.6,0.8,3.2c0.4,1.4-2.1,3.5-7.2,4.4c-11.4,2.1-16.7-2-17.5-4.1
		c-1.2-4.3-5.3-7.7-6.5-9.7c-1.2-2,0.9-3,0.9-3l5.5,7.3c0,0,1.7,3.3,3.5,3.7C401.1,270.1,414.5,273.1,419.5,267.7z"/>
	<path class="st2" d="M324,245.4c0,0-2.5-0.5-3.5,1.9c-1,2.3-2.2,10.4-2.2,10.4s-2.1,1-0.9,3c1.2,1.9,5.4,5.4,6.5,9.7
		c0.8,2.1,6.1,6.3,17.5,4.1c5.1-1,7.5-3.1,7.2-4.4c-0.2-1.7-0.1-2.7-0.8-3.2c-0.7-1.8-1.5-4.8-4.5-7.2c-3-2.6-7.9-7.1-8.3-9.5
		C334.4,248.5,331.7,245.5,324,245.4z"/>
	<path class="st0" d="M335.1,196.1c-0.5,0.6-0.2,21.6,0.8,30.2c-4.3,6.9-9.5,9.7-11.9,20.8c0.8,1.3,3.9,1.6,6,0.8
		c2-1,9.6-11.5,11.2-13.2c1.6-1.9,6.6-6.1,6.5-8.8c-0.6-3.7,0.6-25.6,0-25.7S335.1,196.1,335.1,196.1z"/>
	<path class="st0" d="M381.6,200.8c0.3,0.5,11.1,23.4,17,26.2c-0.9,4.6-2.5,14-3,21.4c1.3,2.6,4.8,2.5,6.7,1
		c1.3-2.1,5.7-16.4,5.6-17.8c-0.1-2.6,0.5-8.5-1.2-11.5c-2.4-3.3-14.2-23.2-14.2-23.2L381.6,200.8z"/>
	<path class="st0" d="M431.6,124.6c-0.3,0.1,10.3,13.9,18,13.3c3.8-1.5,2.9-1.4,5.5-4.1c2.3-3.1,2.4,0.3,4.4-0.5
		c1.2,1,3,3.6-0.9,5.2c2.9,0.4,4.3,2.1,3.4,3.3c-1,1.2-2.9,2.9-8.2,2.3c0.2,2.3,0.3,4.4-1.2,4.5c-1.5,0.1-2.6-2.5-2.4-4.5
		c-0.6-1.9-2.6-4.4-3.8-4.6c-1.4-0.3-12.5-5.4-14.4-9.4C430,125.9,431.6,124.6,431.6,124.6z"/>
	
		<ellipse transform="matrix(0.9963 -8.636936e-02 8.636936e-02 0.9963 -10.7074 31.9453)" class="st2" cx="363.8" cy="139.7" rx="71.2" ry="66.8"/>
	<path class="st1" d="M300.5,145.2c-3.1-36,22.8-67.8,58.3-72c-0.8,0.1-1.5,0.1-2.3,0.2c-39,3.4-68,35.9-64.8,72.7
		c3.2,36.8,37.3,63.8,76.3,60.4c1.5-0.2,2.9-0.3,4.4-0.5C335.8,209.1,303.7,181.9,300.5,145.2z"/>
	<g>
		<path class="st3" d="M422.2,136.4c0.9,7.6-4.6,14.4-12.2,15.3c-7.6,0.9-14.4-4.6-15.3-12.2c-0.9-7.6,4.6-14.4,12.2-15.3
			C414.5,123.3,421.3,128.7,422.2,136.4"/>
		<polygon class="st3" points="318.7,135.7 325.5,135 327.6,153.4 339.4,152.1 340.1,158 321.5,160.1 		"/>
		<path class="st3" d="M340.7,147.1l-1.6-13.7l6.9-0.8l1.6,13.6c0.4,3.5,2.3,5,5.1,4.7c2.7-0.3,4.3-2.1,3.9-5.5l-1.6-13.7l6.9-0.8
			l1.6,13.6c0.9,7.9-3.2,11.8-10.1,12.6C346.3,157.8,341.6,154.7,340.7,147.1"/>
		<polygon class="st3" points="365,130.5 372.1,129.7 379,138.5 383.7,128.3 390.9,127.5 393.6,151.9 386.9,152.7 385.4,138.7 
			380.2,149 380.1,149 372.8,140.2 374.3,154.1 367.7,154.9 		"/>
		<polygon class="st3" points="368.4,159.7 374.2,159 374.5,160.7 370.6,161.1 370.7,162.2 374.2,161.8 374.4,163.5 370.9,163.9 
			371,165 374.9,164.6 375.2,166.3 369.2,167 		"/>
		<polygon class="st3" points="375.9,158.8 377.7,158.6 381.2,162.1 380.8,158.3 382.7,158 383.6,165.3 381.8,165.6 378.2,161.8 
			378.7,165.9 376.7,166.1 		"/>
		<polygon class="st3" points="384.5,157.8 390.5,157.2 390.6,158.9 386.7,159.3 386.9,160.4 390.4,160 390.5,161.6 387,162 
			387.2,163.2 391.1,162.8 391.3,164.5 385.3,165.1 		"/>
		<path class="st3" d="M391.9,157l3.5-0.4c1.1-0.2,1.9,0.1,2.5,0.5c0.5,0.4,0.8,0.9,0.9,1.6l0,0c0.2,1.1-0.4,1.9-1.2,2.4l2,2.3
			l-2.3,0.2l-1.7-2l0,0l-0.9,0.1l0.2,2.3l-2,0.2L391.9,157z M395.6,160.1c0.7-0.1,1-0.5,1-1l0,0c-0.1-0.5-0.5-0.9-1.2-0.8l-1.3,0.2
			l0.2,1.8L395.6,160.1z"/>
		<path class="st3" d="M399.6,159.8L399.6,159.8c-0.2-2.2,1.2-4.1,3.5-4.3c1.3-0.2,2.3,0.2,3.1,0.7l-1,1.6c-0.5-0.4-1.1-0.5-1.9-0.5
			c-1.1,0.2-1.8,1.1-1.6,2.3l0,0c0.2,1.2,1.1,1.9,2.2,1.8c0.5-0.1,0.9-0.2,1.2-0.5L405,160l-1.5,0.2l-0.2-1.5l3.4-0.4l0.4,3.3
			c-0.7,0.7-1.7,1.3-3,1.5C401.8,163.5,399.9,162.1,399.6,159.8"/>
		<polygon class="st3" points="410,159.6 406.7,155.3 409,155.1 410.9,157.6 412,154.7 414.3,154.4 412,159.3 412.4,162.2 
			410.3,162.3 		"/>
	</g>
	<g>
		<path class="st4" d="M339.6,124.7c0,0-3.9,0.8-4.1,0.8s-3.1,1-3.4,0.8c-0.2-0.2-4-5.1-4-5.1l-1.2-14.5l5.6-5.4l4.8-3.1l3.7,0.9
			l4.1,2.5l2.3,7.6l-0.2,5.8l-1.1,7.5l-1.5,2.2L339.6,124.7z"/>
		<path class="st3" d="M330.4,113.1c0.2-7,3.7-12.7,7.9-12.5c4.2,0.1,7.6,5.8,7.4,12.9c0,1.1-0.2,2.1-0.3,3.1
			c-0.2,3.2-1.6,5.8-3.3,7.4c-0.1,0.1-0.1,0.1-0.2,0.2c1.3,0,2.6,0,3.8,0.1c2.1-3.2,3.4-7.5,3.5-12.2c0.2-10.1-5.2-18.4-12.2-18.5
			c-6.9-0.2-12.7,7.9-12.9,18c-0.2,6.2,1.9,11.7,5,15c1.8-0.6,3.6-1.2,5.5-1.6C332.2,123,330.4,118.4,330.4,113.1z"/>
		<g>
			<path class="st0" d="M329.2,126.8l-0.2-0.2c-3.4-3.6-5.2-9.3-5.1-15.3c0.2-10.2,6.2-18.5,13.2-18.3c7.1,0.2,12.6,8.6,12.4,18.8
				c-0.1,4.6-1.3,9-3.6,12.4l-0.1,0.2h-0.2c-1.2-0.1-2.5-0.1-3.7-0.1h-0.7l0.6-0.6c1.8-1.6,3-4.2,3.2-7.2c0.2-1,0.3-2.1,0.3-3.1
				c0.1-3.4-0.6-6.5-2-8.9c-1.3-2.3-3.1-3.7-5.1-3.7c-1.9-0.1-3.8,1.2-5.2,3.5c-1.5,2.3-2.3,5.5-2.4,8.8l0,0
				c-0.1,5,1.6,9.5,4.3,11.5l0.5,0.4l-0.6,0.2c-1.9,0.4-3.7,0.9-5.5,1.6H329.2z M336.3,93.7c-6.3,0.5-11.5,8.3-11.7,17.7
				c-0.2,5.8,1.7,11.3,4.8,14.7c1.6-0.5,3.2-1,4.8-1.4c-2.6-2.3-4.1-6.8-4.1-11.6c0.1-3.4,0.9-6.7,2.5-9.1c1.6-2.5,3.6-3.8,5.8-3.7
				c2.2,0.1,4.1,1.5,5.5,4c1.4,2.5,2.2,5.8,2.1,9.2c0,1.1-0.2,2.1-0.3,3.2c-0.2,2.9-1.3,5.5-3,7.2c1,0,1.9,0,3,0.1
				c2.1-3.3,3.3-7.5,3.4-11.9c0.2-9.9-5.1-18.1-11.8-18.2C336.8,93.7,336.6,93.7,336.3,93.7z"/>
		</g>
		<path class="st5" d="M343.1,124L343.1,124c0.1-0.1,0.2-0.1,0.2-0.2C343.2,124,343.1,124,343.1,124z"/>
		<g>
			<path class="st0" d="M327.5,129.1c-0.3,0-0.7-0.2-0.9-0.5c-0.2-0.4,0-0.9,0.4-1.2c4-1.9,8.3-3.3,13-3.8c3.5-0.4,6.9-0.4,10.3,0
				c0.5,0.1,0.8,0.5,0.7,0.9c-0.1,0.5-0.5,0.8-0.9,0.7c-3.2-0.4-6.5-0.4-9.8,0c-4.5,0.5-8.7,1.8-12.5,3.7
				C327.7,129.1,327.6,129.1,327.5,129.1z"/>
		</g>
		<path class="st0" d="M338.3,106c-0.3,2.3-0.6,5-0.6,5c-0.2-0.3-1.6-2.7-2.6-4.7c-2.6,1.2-4.6,4.8-4.7,9.1
			c-0.1,4.2,1.6,7.8,4.1,9.2c0.5-0.1,1.1-0.2,1.6-0.2c1.2-0.2,2.6-0.2,3.8-0.3c0.1-0.1,0.1-0.1,0.2-0.2c1.6-1.7,2.7-4.3,3.3-7.4
			c0-0.3,0.1-0.6,0.1-0.9C343.6,110.9,341.4,106.9,338.3,106z"/>
	</g>
	<g>
		<path class="st4" d="M389.4,120.4c0,0-3.8,0.3-4,0.3c-0.2,0-3.1,0.6-3.3,0.4c-0.2-0.3-3.3-5.3-3.3-5.3l0.3-14l5.8-4.5l4.9-2.5
			l3.4,1.2l3.7,2.8l1.4,7.5l-0.9,5.5l-1.8,7.1l-1.6,1.9L389.4,120.4z"/>
		<path class="st3" d="M381.9,108.4c0.9-6.7,4.8-11.7,8.9-11.2c4.1,0.5,6.5,6.4,5.7,13.1c-0.2,1-0.3,2-0.6,3c-0.5,3-2.1,5.5-3.9,6.7
			c-0.1,0.1-0.1,0.1-0.2,0.2c1.2,0.1,2.4,0.2,3.7,0.5c2.3-2.8,4.1-6.8,4.7-11.3c1.2-9.6-3-18.2-9.7-19c-6.6-0.9-12.9,6.2-14.3,15.8
			c-0.8,5.9,0.5,11.4,3.2,15c1.7-0.4,3.6-0.7,5.5-0.9C382.4,117.9,381.2,113.4,381.9,108.4z"/>
		<g>
			<path class="st0" d="M379.2,121.3l-0.1-0.2c-2.8-3.7-4-9.4-3.3-15.1c1.2-9.7,7.8-17,14.5-16.1c6.7,0.9,11.1,9.5,9.9,19.3
				c-0.5,4.4-2.3,8.5-4.7,11.5l-0.1,0.2h-0.2c-1.2-0.2-2.3-0.4-3.6-0.5l-0.7-0.1l0.7-0.5c1.9-1.2,3.3-3.7,3.8-6.5
				c0.3-0.9,0.5-1.9,0.6-3c0.4-3.2,0.1-6.3-1-8.7c-1-2.4-2.6-3.8-4.4-4.1c-1.9-0.2-3.7,0.8-5.4,2.8c-1.6,2.1-2.8,5-3.2,8.2l0,0
				c-0.6,4.8,0.5,9.3,2.9,11.5l0.5,0.4l-0.6,0.1c-1.9,0.2-3.7,0.5-5.4,0.9L379.2,121.3z M389.4,90.4c-6.1-0.2-11.8,6.6-13,15.7
				c-0.7,5.5,0.4,11,3,14.6c1.6-0.4,3.1-0.6,4.8-0.8c-2.2-2.4-3.2-6.9-2.6-11.5c0.5-3.3,1.6-6.3,3.4-8.4c1.7-2.2,3.8-3.3,5.8-3
				c2,0.2,3.8,1.8,4.9,4.4c1.1,2.5,1.5,5.7,1,9c-0.2,1-0.3,2-0.6,3c-0.5,2.7-1.9,5.1-3.6,6.5c0.9,0.1,1.9,0.2,2.8,0.4
				c2.3-2.9,3.9-6.8,4.5-11.1c1.2-9.4-3-17.8-9.4-18.7C390.1,90.5,389.7,90.5,389.4,90.4z"/>
		</g>
		<path class="st5" d="M392.8,120.1L392.8,120.1c0.1,0,0.2-0.1,0.2-0.2C392.9,120,392.9,120.1,392.8,120.1z"/>
		<g>
			<path class="st0" d="M377.3,123.3c-0.3,0-0.6-0.2-0.8-0.5c-0.2-0.4,0.1-0.9,0.5-1c4-1.5,8.3-2.3,12.9-2.3c3.4,0,6.7,0.3,9.8,1.1
				c0.5,0.1,0.7,0.5,0.6,1c-0.1,0.5-0.5,0.7-1,0.6c-3-0.7-6.2-1.1-9.4-1c-4.4,0.1-8.5,0.8-12.3,2.2
				C377.5,123.3,377.4,123.3,377.3,123.3z"/>
		</g>
		<path class="st0" d="M390.1,102.6c-0.5,2.1-1.1,4.7-1.1,4.7c-0.1-0.3-1.2-2.7-1.9-4.8c-2.6,0.9-4.9,4.1-5.5,8.3
			c-0.5,4,0.7,7.6,3,9.2c0.5,0,1.1-0.1,1.6-0.1c1.2,0,2.5,0,3.7,0.2c0.1,0,0.1-0.1,0.2-0.2c1.7-1.5,3.1-3.8,3.9-6.7
			c0.1-0.3,0.1-0.5,0.2-0.9C394.6,107.8,392.9,103.8,390.1,102.6z"/>
	</g>
	<g>
		<path class="st0" d="M355.4,184.1c0.4,0.2,9.3,3.7,17.5,2.3s13.6-2.8,17.5-5.9c0.5,0.5,0.5,0.5,0.5,0.5s-7,17-18.6,17.1
			c-3.5-0.4-6.9,1.2-17.1-12.9C355.5,184.2,355.4,184.1,355.4,184.1z"/>
	</g>
	<g>
		<path class="st18" d="M387.2,183.6C387.2,183.6,387.3,183.6,387.2,183.6"/>
		<path class="st3" d="M387.2,183.6c-3.6,1.8-8,2.9-14.3,3.9c-5.4,0.9-11-0.3-14.3-1.3c0,0-0.3,3,1.3,3.3c1.6,0.3,10.3,2.1,13.7,1.6
			c3.5-0.4,11-2.6,12.1-3.6C386.8,186.5,387.5,184.6,387.2,183.6z"/>
	</g>
	<path class="st0" d="M299.7,161.8c0.1-0.2,1.9-3,0.9-3.9c-1-1-2.6-1.5-3.7,1.7c-1,3.2-7.2,15.6-4.9,26.7c0.2,1.6-1,3.9-1,3.9
		s-4.8,3.6-3.7,5.2c1.2,1.4,3.5,0.9,4.4-0.6c2.5,4.2,4.1,5.8,6.5,5.6c2.4-0.2,1.7-3.4,1-4.2c5,1.1,7.5-0.5,7.1-2.1
		c-0.2-1.3-2.3-3.7-5.4-3c1.5-1.5,2.6-5.3-4.5-2C295,187.5,290.1,182.3,299.7,161.8z"/>
	<path class="st0" d="M347.9,266.7c0.8,0.5,0.6,1.6,0.8,3.2c0.4,1.4-2.1,3.5-7.2,4.4c-11.4,2.1-16.7-2-17.5-4.1
		c-1.2-4.3-5.3-7.7-6.5-9.7c-1.2-2,0.9-3,0.9-3l5.5,7.3c0,0,1.7,3.3,3.5,3.7C329.3,269.2,342.8,272,347.9,266.7z"/>
	<circle class="st3" cx="334.1" cy="114.8" r="1.8"/>
	<circle class="st3" cx="334.8" cy="118.7" r="0.7"/>
	<circle class="st3" cx="384.4" cy="109.9" r="1.8"/>
	<g>
		<path class="st0" d="M490.4,72.2c0-18.9-15.2-34.3-34.1-34.3S422,53.3,422,72.2c0,17.8,12.5,32.4,30.9,34.1v123
			c0,1.9,1.2,3.5,3,3.5c1.9,0,3-1.6,3-3.5v-123C477.6,104.6,490.4,90,490.4,72.2z"/>
		<circle class="st3" cx="456.9" cy="72.2" r="29.5"/>
	</g>
	<path class="st0" d="M325.1,90.6c-0.3-0.2-0.5-0.7-0.5-1.2c0.1-0.7,0.7-1.1,1.4-1c0.2,0.1,6.3,0.9,11.7-4.4c0.5-0.5,1.2-0.5,1.7,0
		c0.5,0.5,0.5,1.2,0,1.7c-6.3,6.2-13.5,5.1-13.8,5.1C325.5,90.8,325.3,90.8,325.1,90.6z"/>
	<path class="st0" d="M387.6,80.6c-0.1-0.4,0.2-0.9,0.5-1.1c0.5-0.4,1.3-0.2,1.7,0.3c0.2,0.2,3.8,5.1,11.4,5.1
		c0.7,0,1.2,0.5,1.2,1.2c0,0.7-0.5,1.2-1.2,1.2c-8.9-0.1-13.2-5.9-13.3-6.2C387.6,81,387.6,80.9,387.6,80.6z"/>
	
		<ellipse transform="matrix(0.9974 -7.251113e-02 7.251113e-02 0.9974 -9.4351 33.5547)" class="st0" cx="457.4" cy="146.7" rx="4.5" ry="2"/>
	<path class="st19" d="M471.7,56.4c-2.1-1.3-4.9-0.6-6.2,1.6l-12.7,21l-6.5-8c-1.6-1.9-4.4-2.2-6.4-0.6c-1.9,1.6-2.2,4.4-0.6,6.4
		l10.6,12.9c0.1,0.1,0.2,0.2,0.2,0.2l0,0c0.1,0.1,0.1,0.1,0.2,0.2l0,0c0.1,0.1,0.1,0.1,0.2,0.2l0.1,0.1l0.1,0.1l0.1,0.1l0,0
		c0.2,0.2,0.4,0.3,0.6,0.4l0,0c0.1,0,0.2,0.1,0.2,0.1h0.1c0.1,0,0.2,0.1,0.2,0.1h0.1c0.1,0,0.2,0.1,0.2,0.1c0.1,0,0.2,0,0.2,0.1
		c0.1,0,0.1,0,0.2,0s0.1,0,0.2,0h0.1c0.1,0,0.1,0,0.2,0s0.1,0,0.2,0s0.1,0,0.2,0c0.1,0,0.2,0,0.2,0h0.1c0.1,0,0.2,0,0.3,0
		s0.1,0,0.2,0c0.1,0,0.2,0,0.2,0c0.1,0,0.1,0,0.2,0c0.1,0,0.2,0,0.2-0.1c0.1,0,0.2,0,0.2-0.1c0.1,0,0.2,0,0.2-0.1
		c0.1,0,0.1,0,0.2-0.1c0.1,0,0.2-0.1,0.2-0.1c0.1,0,0.1,0,0.2-0.1c0.1-0.1,0.2-0.1,0.3-0.2c0,0,0,0,0.1,0c0.1-0.1,0.2-0.1,0.3-0.2
		c0,0,0.1,0,0.1-0.1c0.1-0.1,0.2-0.2,0.3-0.2l0,0l0,0c0.1,0,0.1-0.1,0.2-0.1l0.1-0.1l0.1-0.1l0.1-0.1l0.1-0.1
		c0.2-0.2,0.2-0.3,0.4-0.5l0,0c0.1-0.1,0.2-0.2,0.2-0.3l16-26.4C474.6,60.4,473.9,57.6,471.7,56.4z"/>
	
		<linearGradient id="SVGID_5_" gradientUnits="userSpaceOnUse" x1="450.3745" y1="802.4203" x2="486.3524" y2="802.4203" gradientTransform="matrix(1 0 0 -1 0 882)">
		<stop  offset="8.430325e-03" style="stop-color:#000000;stop-opacity:0.3"/>
		<stop  offset="1" style="stop-color:#000000;stop-opacity:0"/>
	</linearGradient>
	<path class="st20" d="M486.4,72.2c0-0.5,0-0.9,0-1.4l-13.2-13.2c1,1.4,1.2,3.4,0.2,4.9l-16,26.4c-0.1,0.1-0.2,0.2-0.2,0.3l0,0
		c-0.1,0.2-0.2,0.3-0.4,0.5l-0.1,0.1l-0.1,0.1l-0.1,0.1l-0.1,0.1c-0.1,0-0.1,0.1-0.2,0.1l0,0l0,0c-0.1,0-0.2,0.2-0.3,0.2
		c0,0-0.1,0-0.1,0.1c-0.1,0.1-0.2,0.1-0.3,0.2c0,0,0,0-0.1,0c-0.1,0.1-0.2,0.1-0.3,0.2c-0.1,0-0.1,0-0.2,0.1c-0.1,0-0.2,0.1-0.2,0.1
		c-0.1,0-0.1,0-0.2,0.1c-0.1,0-0.2,0.1-0.2,0.1c-0.1,0-0.2,0.1-0.2,0.1c-0.1,0-0.2,0-0.2,0.1c-0.1,0-0.1,0-0.2,0s-0.2,0-0.2,0
		c-0.1,0-0.1,0-0.2,0s-0.2,0-0.3,0h-0.1c-0.1,0-0.2,0-0.2,0c-0.1,0-0.1,0-0.2,0s-0.1,0-0.2,0c-0.1,0-0.1,0-0.2,0s-0.1,0-0.1,0
		c-0.1,0-0.1,0-0.2,0c-0.1,0-0.1,0-0.2,0s-0.2,0-0.2-0.1c-0.1,0-0.2-0.1-0.2-0.1h-0.1c-0.1,0-0.2-0.1-0.2-0.1h-0.1
		c-0.1,0-0.2-0.1-0.2-0.1l0,0c-0.2-0.1-0.4-0.2-0.6-0.4l0,0l-0.1-0.1l-0.1-0.1c0,0-0.1,0-0.1-0.1c0,0,0,0-0.1,0l11.2,11.2
		C475.6,99,486.4,86.9,486.4,72.2z"/>
</g>
<g>
	<path class="st2" d="M193.1,652.7c0,0-1.4,1.5-0.1,3.2c1.3,1.7,6.4,5.7,6.4,5.7s-0.2,1.9,1.7,1.8c1.8-0.1,5.9-1.6,9.4-0.7
		c1.8,0.3,6.8-1.8,10-10.6c1.3-3.9,0.8-6.5-0.3-6.8c-1.3-0.6-1.9-1.1-2.6-0.7c-1.5-0.2-4-0.9-6.9,0.3c-3,1.1-8.2,2.8-10,2
		C199.5,646.7,196.3,647.4,193.1,652.7z"/>
	<path class="st0" d="M162.9,625.1c0.3,0.6,15.1,8.8,21.6,11.6c3.1,5.7,3,10.5,9.8,16.8c1.3,0,2.7-2.1,3-3.9
		c0.1-1.8-4.2-11.3-4.8-13.2c-0.7-1.9-1.6-7.1-3.6-8.1c-2.9-1.1-17.7-10.7-18.1-10.3C170.4,618.3,162.9,625.1,162.9,625.1z"/>
	<path class="st0" d="M217.7,644.6c0.7-0.3,1.3,0.2,2.6,0.7c1.1,0.3,1.6,2.9,0.3,6.8c-3.1,8.9-8.1,10.9-10,10.6
		c-3.5-0.9-7.6,0.6-9.4,0.7c-1.9,0.1-1.7-1.8-1.7-1.8l7.4-0.9c0,0,3,0.2,4.1-1C212,658.5,219.4,650.3,217.7,644.6z"/>
	<path class="st2" d="M79.5,644.2c0,0,1.8,0.9,1.2,3c-0.6,2-4,7.6-4,7.6s0.8,1.7-1,2.3c-1.8,0.6-6.1,0.6-9,2.6
		c-1.6,0.9-7,0.7-13-6.5c-2.6-3.2-3.1-5.8-2.1-6.5c1-0.9,1.5-1.7,2.2-1.6c1.4-0.8,3.4-2.2,6.6-2.2c3.2,0,8.6-0.3,10.1-1.7
		C71.5,640.8,74.8,640.4,79.5,644.2z"/>
	<path class="st0" d="M53.7,645.1c-0.7-0.1-1.2,0.6-2.2,1.6c-0.9,0.7-0.5,3.3,2.1,6.5c6,7.2,11.4,7.4,13,6.5c3-2,7.3-2,9-2.6
		c1.8-0.6,1-2.3,1-2.3l-7.2,1.7c0,0-2.8,1.2-4.1,0.5C64,656.2,54.1,651.1,53.7,645.1z"/>
	<path class="st0" d="M112,623.1c-0.5,0.1-19,8.8-24.2,7.5c-1.8,3.3-5.7,10-9.2,14.8c-2.2,1-4.3-0.9-4.7-2.8c0.3-2,4.9-13.1,5.7-14
		c1.4-1.6,4.1-5.5,6.7-6.5c3.2-0.8,20.9-7.1,20.9-7.1L112,623.1z"/>
	<path class="st0" d="M86.2,564.6c0,0.3-13.7-2.9-15.9-8.7c-0.4-0.5,0.1-0.4,0-1c-0.2-1.7,0.4-2.6,1.1-4.5c1.5-2.8,1.4-3.7,0.3-4.2
		c-1.1-0.5-3.8-0.6-5,3.2c-1.3-2-3-2.4-3.6-1.4c-0.5,1.1-1.2,3.1,1.1,6.8c-1.8,0.7-3.3,1.3-3,2.4c0.4,1.1,2.7,1.1,4.2,0.3
		c1.7-0.2,4.1,0.4,4.7,1.3c0.7,0.9,8.1,7.3,11.8,7.4C85.7,566.2,86.2,564.6,86.2,564.6z"/>
	
		<ellipse transform="matrix(8.637068e-02 -0.9963 0.9963 8.637068e-02 -449.6523 666.5627)" class="st2" cx="138.6" cy="578.4" rx="54.1" ry="57.6"/>
	<path class="st1" d="M189.8,582.8c2.5-29.2-18.5-54.9-47.2-58.3c0.6,0,1.2,0.1,1.8,0.1c31.6,2.8,55,29.1,52.4,58.9
		c-2.6,29.8-30.2,51.7-61.8,48.9c-1.2-0.1-2.4-0.2-3.5-0.4C161.2,634.6,187.2,612.6,189.8,582.8z"/>
	<path class="st4" d="M151.7,553.2c0,0,3.1,0.4,3.3,0.5c0.1,0,2.6,0.6,2.8,0.4s3.2-3,3.2-3l1-8.5l-4.5-3.2l-3.9-1.8l-3,0.5l-3.3,1.5
		l-1.9,4.4l0.2,3.4l0.9,4.4l1.2,1.3L151.7,553.2z"/>
	<path class="st3" d="M159.2,546.4c-0.1-4.1-3-7.5-6.4-7.4c-3.4,0.1-6.1,3.5-6,7.6c0,0.6,0.1,1.3,0.2,1.8c0.2,1.8,1.2,3.5,2.7,4.3
		c0,0,0.1,0,0.1,0.1c-1.1,0-2.1,0-3.1,0c-1.7-1.9-2.8-4.4-2.8-7.2c-0.2-5.9,4.2-10.8,9.8-10.9c5.6-0.1,10.3,4.7,10.4,10.6
		c0.1,3.7-1.5,6.9-4.1,8.9c-1.4-0.4-2.9-0.7-4.5-0.9C157.8,552.2,159.3,549.5,159.2,546.4z"/>
	<path class="st0" d="M160.1,554.4c-1.4-0.4-2.9-0.7-4.4-0.9l-0.5-0.1l0.4-0.2c2.2-1.2,3.5-3.9,3.5-6.8l0,0c0-2-0.7-3.8-1.9-5.2
		c-1.2-1.3-2.7-2.1-4.2-2c-1.6,0-3,0.8-4.1,2.2c-1.1,1.4-1.7,3.3-1.6,5.2c0,0.6,0.1,1.2,0.2,1.8c0.2,1.8,1.2,3.3,2.6,4.2l0.5,0.4
		h-0.6c-1,0-2.1,0-3.1,0h-0.1l-0.1-0.1c-1.8-2-2.8-4.6-2.9-7.3c-0.2-6,4.3-11,10.1-11.1c5.7-0.1,10.5,4.8,10.7,10.8
		c0.1,3.5-1.5,6.9-4.1,9l-0.1,0.1L160.1,554.4z M153.8,535c-5.5,0.1-9.8,4.9-9.6,10.7c0.1,2.6,1.1,5.1,2.7,7c0.8,0,1.6,0,2.4,0
		c-1.3-1-2.2-2.5-2.4-4.2c-0.2-0.6-0.2-1.2-0.2-1.9c0-2,0.6-4,1.7-5.4c1.2-1.5,2.8-2.3,4.5-2.4c1.7,0,3.4,0.7,4.6,2.2
		c1.2,1.4,1.9,3.3,2,5.4c0.1,2.9-1.2,5.5-3.3,6.8c1.3,0.2,2.6,0.5,3.9,0.8c2.6-2,4-5.3,3.9-8.7c-0.2-5.6-4.3-10.1-9.5-10.4
		C154.2,535,154,535,153.8,535z"/>
	<path class="st5" d="M148.9,552.8L148.9,552.8c0,0-0.1,0-0.1-0.1C148.9,552.7,148.9,552.8,148.9,552.8z"/>
	<path class="st0" d="M161.6,555.8c0.3,0,0.6-0.1,0.7-0.3c0.2-0.2,0-0.6-0.3-0.7c-3.2-1.2-6.8-1.9-10.5-2.3c-2.8-0.2-5.6-0.2-8.3,0
		c-0.4,0-0.6,0.3-0.6,0.6s0.4,0.5,0.8,0.4c2.6-0.2,5.3-0.2,8,0c3.6,0.3,7,1.1,10.1,2.2C161.4,555.8,161.5,555.8,161.6,555.8z"/>
	<path class="st0" d="M151.2,542.2c0.2,1.3,0.5,2.9,0.5,2.9c0.1-0.2,1.3-1.6,2.1-2.8c2.1,0.7,3.7,2.8,3.8,5.4
		c0.1,2.5-1.3,4.6-3.3,5.4c-0.4,0-0.9-0.1-1.3-0.2c-1-0.1-2.1-0.2-3.1-0.2c0,0-0.1,0-0.1-0.1c-1.3-1-2.2-2.5-2.7-4.3
		c0-0.2,0-0.4,0-0.5C146.9,545.1,148.8,542.8,151.2,542.2z"/>
	<path class="st4" d="M122.6,550.7c0,0,3.1,0.2,3.2,0.2c0.1,0,2.5,0.4,2.7,0.2c0.2-0.2,2.6-3,2.6-3l-0.3-8l-4.8-2.6l-4-1.4l-2.8,0.7
		l-3,1.6l-1.1,4.2l0.7,3.1l1.5,4l1.3,1.1L122.6,550.7z"/>
	<path class="st3" d="M128.7,543.9c-0.7-3.8-3.9-6.7-7.2-6.4c-3.3,0.3-5.3,3.7-4.6,7.5c0.1,0.6,0.3,1.1,0.5,1.7
		c0.5,1.7,1.7,3.1,3.2,3.8c0,0,0.1,0,0.1,0.1c-1,0-2,0.2-3,0.3c-1.9-1.6-3.3-3.9-3.8-6.5c-1-5.5,2.5-10.3,7.8-10.9
		c5.4-0.5,10.5,3.5,11.5,9c0.6,3.4-0.4,6.5-2.6,8.5c-1.4-0.2-2.9-0.4-4.4-0.5C128.2,549.3,129.3,546.7,128.7,543.9z"/>
	<path class="st0" d="M130.7,551.3c-1.4-0.2-2.9-0.4-4.4-0.5l-0.5,0l0.4-0.2c1.9-1.3,2.8-3.9,2.3-6.6l0,0c-0.4-1.8-1.3-3.5-2.6-4.7
		c-1.3-1.2-2.8-1.7-4.4-1.6c-1.5,0.2-2.8,1-3.6,2.3c-0.9,1.4-1.1,3.1-0.8,5c0.1,0.6,0.3,1.1,0.5,1.7c0.4,1.6,1.6,3,3.1,3.7l0.6,0.3
		l-0.6,0c-1,0-2,0.2-2.9,0.3h-0.1l-0.1-0.1c-2-1.7-3.3-4-3.8-6.5c-1-5.6,2.6-10.5,8-11c5.5-0.5,10.7,3.6,11.8,9.2
		c0.6,3.3-0.4,6.5-2.6,8.7l-0.1,0.1L130.7,551.3z M121.9,533.7c-5.2,0.5-8.6,5.3-7.6,10.7c0.4,2.4,1.7,4.6,3.6,6.3
		c0.7-0.1,1.5-0.2,2.2-0.2c-1.4-0.8-2.5-2.2-2.9-3.7c-0.2-0.6-0.4-1.1-0.5-1.7c-0.4-1.9,0-3.7,0.8-5.2c0.9-1.5,2.3-2.4,4-2.5
		c1.7-0.2,3.3,0.4,4.8,1.7c1.4,1.2,2.3,3,2.7,4.8c0.5,2.7-0.3,5.2-2.1,6.6c1.3,0.1,2.6,0.2,3.8,0.5c2.1-2.1,3.1-5.2,2.5-8.3
		c-0.9-5.2-5.6-9-10.6-9C122.3,533.6,122.1,533.6,121.9,533.7z"/>
	<path class="st5" d="M119.9,550.6L119.9,550.6c-0.1,0-0.1,0-0.2-0.1C119.7,550.5,119.8,550.5,119.9,550.6z"/>
	<path class="st0" d="M132.4,552.4c0.3,0,0.5-0.1,0.6-0.3c0.1-0.2,0-0.5-0.4-0.6c-3.3-0.8-6.8-1.3-10.4-1.3c-2.7,0-5.4,0.2-7.9,0.6
		c-0.4,0.1-0.6,0.3-0.5,0.6c0.1,0.2,0.4,0.4,0.8,0.4c2.4-0.4,5-0.6,7.6-0.6c3.5,0,6.9,0.4,10,1.3
		C132.2,552.4,132.3,552.4,132.4,552.4z"/>
	<path class="st0" d="M120.5,540.6c0.4,1.2,0.9,2.7,0.9,2.7c0.1-0.2,1-1.6,1.6-2.7c2.1,0.5,4,2.4,4.4,4.7c0.4,2.3-0.6,4.3-2.4,5.3
		c-0.4,0-0.9,0-1.3,0c-1,0-2,0-3,0.1c0,0-0.1,0-0.2-0.1c-1.4-0.8-2.5-2.2-3.2-3.8c0-0.2-0.1-0.3-0.1-0.5
		C116.8,543.6,118.2,541.3,120.5,540.6z"/>
	<path class="st3" d="M180.2,575.1c-0.4,6.2-5.7,10.9-11.9,10.5c-6.2-0.4-10.9-5.7-10.5-11.9s5.7-10.9,11.9-10.5
		C176,563.6,180.6,568.9,180.2,575.1"/>
	<polygon class="st3" points="97.9,559.8 103.5,560.1 102.4,575.2 112.1,575.8 111.8,580.6 96.6,579.6 	"/>
	<path class="st3" d="M113.8,572l0.7-11.1l5.6,0.4l-0.7,11c-0.2,2.9,1.2,4.3,3.4,4.5c2.2,0.2,3.7-1.1,3.9-3.9l0.7-11.2l5.6,0.4
		l-0.7,11c-0.4,6.4-4.2,9-9.9,8.6C116.7,581.3,113.4,578.2,113.8,572"/>
	<polygon class="st3" points="135.5,562.3 141.3,562.7 145.5,570.6 150.8,563.3 156.6,563.6 155.3,583.5 149.8,583.2 150.6,571.7 
		145,579.2 144.9,579.2 140.3,571.1 139.6,582.4 134.2,582.1 	"/>
	<polygon class="st3" points="134,586 138.8,586.3 138.7,587.7 135.6,587.5 135.5,588.4 138.4,588.6 138.3,589.9 135.4,589.7 
		135.4,590.6 138.6,590.9 138.5,592.2 133.6,591.9 	"/>
	<polygon class="st3" points="140.1,586.4 141.7,586.5 143.9,589.8 144.1,586.6 145.7,586.7 145.4,592.7 143.9,592.6 141.6,589.2 
		141.3,592.4 139.7,592.3 	"/>
	<polygon class="st3" points="147.2,586.9 152,587.2 151.9,588.5 148.7,588.3 148.7,589.3 151.5,589.5 151.4,590.7 148.6,590.6 
		148.5,591.5 151.7,591.7 151.6,593.1 146.8,592.8 	"/>
	<path class="st3" d="M153.1,587.2l2.8,0.2c0.9,0.1,1.5,0.4,1.9,0.8c0.3,0.4,0.5,0.8,0.4,1.4l0,0c-0.1,0.9-0.6,1.5-1.3,1.7l1.3,2.2
		l-1.9-0.1l-1.1-1.9l0,0l-0.7,0l-0.1,1.8l-1.7-0.1L153.1,587.2z M155.7,590.3c0.6,0,0.9-0.2,0.9-0.6l0,0c0-0.5-0.3-0.7-0.9-0.7
		l-1.1-0.1l-0.1,1.4L155.7,590.3z"/>
	<path class="st3" d="M158.9,590.6L158.9,590.6c0.1-1.8,1.6-3,3.4-2.9c1.1,0.1,1.8,0.4,2.4,1l-1.1,1.1c-0.4-0.4-0.8-0.6-1.4-0.7
		c-0.9,0-1.6,0.6-1.7,1.5l0,0c-0.1,0.9,0.6,1.7,1.5,1.8c0.4,0,0.7,0,1-0.2l0-0.7l-1.2-0.1l0.1-1.2l2.8,0.2l-0.2,2.7
		c-0.7,0.5-1.6,0.8-2.6,0.7C160.1,593.8,158.8,592.4,158.9,590.6"/>
	<polygon class="st3" points="167.2,591.9 165.2,588 167.1,588.2 168.2,590.4 169.5,588.3 171.4,588.4 168.9,592 168.8,594.3 
		167.1,594.1 	"/>
	<path class="st0" d="M196.6,571.4c-0.2,0-2.8,0.2-3,1.3c-0.2,1.1,0.4,2.4,2.9,1.5c2.5-0.9,13.5-3.1,19.6-10c0.9-0.9,3-1.3,3-1.3
		s4.7,1.3,5.2-0.2c0.3-1.5-1.2-2.6-2.6-2.6c1.5-3.7,1.8-5.5,0.4-6.9c-1.3-1.5-3.1,0.6-3.2,1.4c-1.8-3.7-4-4.6-4.9-3.5
		c-0.7,0.8-1.2,3.3,0.7,5c-1.7-0.2-4.7,0.9,0.9,3.9C215.5,561.8,214.6,567.5,196.6,571.4z"/>
	<path class="st0" d="M112.4,603.6c0-0.3,12.2-5.4,20.2-5.5c11.1-0.1,20.2,5.3,24.2,8.5c-1.4,4.9-6.8,18.9-20.8,18.5
		C122,624.6,112.4,619.7,112.4,603.6z"/>
	<path class="st3" d="M146.2,621.7c-2.7,1.7-6.1,2.8-10.1,2.7c-6.8-0.2-12.6-1.5-16.7-4.6c0,0-0.4-1.5,0.9-1.7
		c1.3-0.2,6,2.9,11.4,2.6c5.4-0.3,12.7-1.6,13.7-1.4C146.1,619.6,146.8,620.9,146.2,621.7z"/>
	<path class="st3" d="M154,605.3c-4.7-3.1-12.4-6.6-21.4-6.5c-6.1,0-14.5,3-18.3,4.5c0,0-0.3,1.7,1.4,1.7s32.9,2.6,34.8,2.5
		C152.5,607.3,153.9,605.9,154,605.3z"/>
	<path class="st3" d="M142.8,621.3c0.4-0.3,0.7-3.1,3.3-3.2c2.6,0,3,1,2.5,1.6c-0.6,0.6-2.1,2.4-4,2.3
		C142.8,621.9,142.8,621.3,142.8,621.3z"/>
	<path class="st3" d="M123.7,620c-0.4-0.3-0.7-3.1-3.3-3.2c-2.6,0-3,1-2.5,1.6c0.6,0.6,2.1,2.4,4,2.3
		C123.7,620.6,123.7,620,123.7,620z"/>
	<path class="st3" d="M121,618.2c-0.3-0.2-0.6-2.4-2.5-2.4c-2,0-2.3,0.7-1.8,1.2c0.4,0.5,1.6,1.8,3,1.8S121,618.2,121,618.2z"/>
	<path class="st3" d="M121,617c-0.3-0.2-0.6-2.4-2.5-2.4c-2,0-2.3,0.7-1.8,1.2s1.6,1.8,3,1.8S121,617,121,617z"/>
	<path class="st3" d="M147.3,617c0.3-0.2,0.6-2.4,2.5-2.4c2,0,2.3,0.7,1.8,1.2c-0.4,0.5-1.6,1.8-3,1.8
		C147.3,617.5,147.3,617,147.3,617z"/>
	<path class="st3" d="M146,618.8c0.3-0.2,0.6-2.6,2.8-2.6c2.1,0,2.5,0.8,2,1.3c-0.4,0.5-1.8,2-3.3,1.9
		C146,619.4,146,618.8,146,618.8z"/>
</g>
<g>
	<path class="st21" d="M1239.2,803.6c0,24-19.4,43.4-43.4,43.4c-24,0-43.4-19.4-43.4-43.4c0-24,19.4-43.4,43.4-43.4
		C1219.8,760.1,1239.2,779.6,1239.2,803.6"/>
	<path class="st3" d="M1238.3,803.2c0,5.7-4.6,10.3-10.3,10.3c-5.7,0-10.3-4.6-10.3-10.3c0-5.7,4.6-10.3,10.3-10.3
		C1233.7,792.9,1238.3,797.5,1238.3,803.2"/>
	<polygon class="st3" points="1162,794.1 1167,794.1 1167,808 1175.9,808 1175.9,812.4 1162,812.4 	"/>
	<path class="st3" d="M1177.2,804.4v-10.3h5.1v10.2c0,2.6,1.3,3.9,3.4,3.9c2,0,3.4-1.2,3.4-3.8v-10.3h5.1v10.1
		c0,5.9-3.4,8.5-8.6,8.5C1180.5,812.7,1177.2,810.1,1177.2,804.4"/>
	<polygon class="st3" points="1196.6,794.1 1201.9,794.1 1206.3,801.2 1210.6,794.1 1216,794.1 1216,812.4 1211,812.4 1211,801.9 
		1206.3,809.1 1206.2,809.1 1201.5,801.9 1201.5,812.4 1196.6,812.4 	"/>
	<polygon class="st3" points="1196.7,815.9 1201.1,815.9 1201.1,817.2 1198.2,817.2 1198.2,818.1 1200.8,818.1 1200.8,819.3 
		1198.2,819.3 1198.2,820.1 1201.1,820.1 1201.1,821.4 1196.7,821.4 	"/>
	<polygon class="st3" points="1202.3,815.9 1203.7,815.9 1205.9,818.9 1205.9,815.9 1207.4,815.9 1207.4,821.4 1206.1,821.4 
		1203.8,818.4 1203.8,821.4 1202.3,821.4 	"/>
	<polygon class="st3" points="1208.7,815.9 1213.2,815.9 1213.2,817.2 1210.3,817.2 1210.3,818.1 1212.9,818.1 1212.9,819.3 
		1210.3,819.3 1210.3,820.1 1213.2,820.1 1213.2,821.4 1208.7,821.4 	"/>
	<path class="st3" d="M1216.8,818.6c0.5,0,0.8-0.3,0.8-0.7v0c0-0.4-0.3-0.7-0.8-0.7h-1v1.3H1216.8z M1214.2,815.9h2.6
		c0.8,0,1.4,0.2,1.8,0.6c0.3,0.3,0.5,0.7,0.5,1.3v0c0,0.8-0.4,1.4-1.1,1.7l1.3,1.9h-1.8l-1.1-1.7h0h-0.7v1.7h-1.5V815.9z"/>
	<path class="st3" d="M1219.7,818.7L1219.7,818.7c0-1.6,1.3-2.9,3-2.9c1,0,1.6,0.3,2.2,0.8l-0.9,1.1c-0.4-0.3-0.8-0.5-1.3-0.5
		c-0.8,0-1.4,0.7-1.4,1.5v0c0,0.9,0.6,1.5,1.5,1.5c0.4,0,0.7-0.1,0.9-0.2v-0.7h-1.1v-1.1h2.5v2.5c-0.6,0.5-1.4,0.8-2.4,0.8
		C1221,821.6,1219.7,820.4,1219.7,818.7"/>
	<polygon class="st3" points="1227.5,819.4 1225.4,815.9 1227.1,815.9 1228.2,818 1229.4,815.9 1231.1,815.9 1229,819.4 1229,821.4 
		1227.5,821.4 	"/>
</g>
<g>
	<g>
		<path class="st0" d="M377.2,787.4c0.3,0.3,20.4,9.7,21.1,9.9c0.7,0.3,1.1,1,1.3,1.6c-0.6,0.8-1.9-0.3-4.6,3.7
			c-2.7,3.9-7.6,10.7-8,11.6c-0.1,1.1,5.2,1,5.2,1l4.5-5.2c0,0,8.6-6.5,9.2-6.9c0.9-0.7,3.9-3.2,1.9-5.9c-2.8-3-12.5-14.7-15.6-15.2
			C383.6,784.4,377.2,787.4,377.2,787.4z"/>
		<path class="st2" d="M387.3,812c0,0,2,3.1,5.8,1.7c1.3-0.9,1.6-1.3,1.9-1.3c0.3,0.1,3,5.7,8.9,6.4c3,0.1,12.2-4.1,13.9,6.6
			c1,1.7,2.9,2.6-0.2,5.4c-3.6,1-13.7,2.5-28,0.2c-6-1-7.2-1.5-7.2-1.5s-3.8-1.2-1.1-5.2C380.9,821.3,382.3,814.9,387.3,812z"/>
		<path class="st0" d="M417.8,825.4c1,1.7,2.9,2.6-0.2,5.4c-3.6,1-13.7,2.5-28,0.2c-6-1-7.2-1.5-7.2-1.5s-3.8-1.2-1.1-5.2
			c0,0,4.3,3.9,14.8,4.1C406.5,828.7,416.4,828.7,417.8,825.4z"/>
	</g>
	<g>
		<path class="st22" d="M348.2,857.8c-41.3,0-74.8-33.6-74.8-74.8s33.6-74.8,74.8-74.8S423,741.7,423,783S389.4,857.8,348.2,857.8z
			 M348.2,725.4c-31.7,0-57.6,25.8-57.6,57.6s25.8,57.6,57.6,57.6s57.6-25.8,57.6-57.6S379.9,725.4,348.2,725.4z"/>
	</g>
	<path class="st0" d="M340.8,785.6c-0.6,0.3-11.4,16.3-11.9,16.3s-5.2,4.8-0.7,6.3c2.6,2.4,6.4,3.8,8,4.1c1.3,0.1,5.3,5.3,5.4,6.5
		c0.4,1,4.3-2.1,4.3-2.1s-3.3-9.2-9.3-12c3.1-4.1,16.5-14.1,19-14.8C342.9,786.2,340.8,785.6,340.8,785.6z"/>
	<path class="st2" d="M339.7,816.5c0,0,0.6,1.7,2.9,1c2.3-0.8,3.1-1.7,3-3.3c-0.1-0.5,6.6,0.3,7.2,7.9c0.5,0.4,2.4,1.2,1.7,3.9
		c-0.8,2.8-8.2,10.7-8.2,10.7s-3.4,5.4-15.1,6.2c-1.9-0.3-8.5-1.1-10-2.4c-0.7-1-1.1-4.8,1.5-5.8c0.5-0.9,0.5-9.3,10.9-9.6
		c1.7-0.9,3.3-3.3,3.7-5.4C337.5,817.5,338.4,815.4,339.7,816.5z"/>
	<path class="st2" d="M339.7,816.5c0,0,0.6,1.7,2.9,1c2.3-0.8,3.1-1.7,3-3.3c-0.1-0.5,6.6,0.3,7.2,7.9c0.5,0.4,2.4,1.2,1.7,3.9
		c-0.8,2.8-8.2,10.7-8.2,10.7s-3.4,5.4-15.1,6.2c-1.9-0.3-8.5-1.1-10-2.4c-0.7-1-1.1-4.8,1.5-5.8c0.5-0.9,0.5-9.3,10.9-9.6
		c1.7-0.9,3.3-3.3,3.7-5.4C337.5,817.5,338.4,815.4,339.7,816.5z"/>
	<path class="st0" d="M322.3,835c0,0,2.1,5,12.9,2.7c5.9-1.2,7.3-1.5,11-5.3s6.3-6.8,6.5-10.3c0.5,0.4,2.4,1.2,1.7,3.9
		c-0.8,2.8-8.2,10.7-8.2,10.7s-3.4,5.4-15.1,6.2c-1.9-0.3-8.5-1.1-10-2.4c-0.7-1-1.1-4.6,1.3-5.7"/>
	<path class="st0" d="M408.5,760c-0.2-0.2,11.4-5.4,16.2-2.4c0.5,0.1,0.2,0.4,0.5,0.7c1,1.1,1.1,2.1,1.6,3.8c0.4,2.8,1,3.5,2.1,3.2
		c1.1-0.2,3-1.6,1.8-5c2,0.7,3.5,0.1,3.3-0.9c-0.2-1.1-0.8-2.9-4.5-4.3c0.9-1.5,1.7-2.7,0.8-3.3c-0.9-0.6-2.5,0.7-3.2,2.1
		c-1.1,1.1-3.2,2-4.1,1.7c-1-0.3-9.9-0.8-12.5,1.1C408,758.6,408.5,760,408.5,760z"/>
	
		<ellipse transform="matrix(0.9963 -8.637387e-02 8.637387e-02 0.9963 -63.2067 34.042)" class="st2" cx="361.8" cy="747.4" rx="52.1" ry="48.8"/>
	<path class="st1" d="M315.5,751.4c-2.3-26.3,16.7-49.6,42.6-52.7c-0.6,0-1.1,0.1-1.7,0.1c-28.5,2.5-49.7,26.3-47.4,53.2
		c2.3,26.9,27.3,46.7,55.8,44.2c1.1-0.1,2.1-0.2,3.2-0.4C341.3,798.1,317.8,778.3,315.5,751.4z"/>
	<path class="st0" d="M310.5,759.8c0.1,0.1,1.9,1.7,2.7,1.1c0.8-0.6,1.3-1.8-0.8-2.8c-2.2-1.1-10.5-6.9-18.8-6.5
		c-1.2,0-2.7-1.2-2.7-1.2s-2.1-3.9-3.4-3.3c-1.1,0.7-1,2.4-0.1,3.2c-3.3,1.3-4.7,2.3-4.8,4.1c-0.2,1.8,2.3,1.6,2.9,1.2
		c-1.3,3.5-0.5,5.4,0.7,5.4c1,0,2.9-1.2,2.8-3.6c0.9,1.2,3.5,2.5,2-3.1C292.4,753.5,296.7,750.6,310.5,759.8z"/>
	<g>
		<path class="st3" d="M399,747.3c0.6,5.2-3.2,9.9-8.4,10.5c-5.2,0.6-9.9-3.2-10.5-8.4c-0.6-5.2,3.2-9.9,8.4-10.5
			C393.6,738.3,398.4,742.1,399,747.3"/>
		<polygon class="st3" points="327.8,746.8 332.5,746.3 333.9,759 342,758.1 342.5,762.2 329.7,763.6 		"/>
		<path class="st3" d="M343.6,754.7l-1.1-9.4l4.7-0.5l1,9.3c0.3,2.4,1.6,3.4,3.5,3.2c1.9-0.2,3-1.5,2.7-3.8l-1.1-9.5l4.7-0.5l1,9.3
			c0.6,5.4-2.2,8.1-7,8.7C347.5,762,344.2,760,343.6,754.7"/>
		<polygon class="st3" points="359.6,743.3 364.5,742.7 369.3,748.8 372.6,741.8 377.5,741.3 379.4,758.1 374.7,758.6 373.6,748.9 
			370.1,756 370,756 365,750 366.1,759.6 361.5,760.1 		"/>
		<polygon class="st3" points="362,763.3 366,762.9 366.1,764.1 363.5,764.4 363.6,765.1 366,764.9 366.1,766 363.7,766.2 
			363.8,767 366.5,766.7 366.6,767.9 362.5,768.4 		"/>
		<polygon class="st3" points="367.1,762.7 368.4,762.6 370.8,765 370.5,762.4 371.9,762.2 372.4,767.3 371.2,767.4 368.7,764.9 
			369,767.6 367.7,767.8 		"/>
		<polygon class="st3" points="373.1,762.1 377.1,761.6 377.3,762.8 374.6,763.1 374.7,763.9 377.1,763.6 377.2,764.7 374.8,765 
			374.9,765.8 377.6,765.5 377.7,766.7 373.6,767.1 		"/>
		<path class="st3" d="M378.1,761.5l2.4-0.3c0.8-0.1,1.3,0.1,1.7,0.4c0.3,0.3,0.5,0.6,0.6,1.1l0,0c0.1,0.8-0.3,1.3-0.9,1.7l1.4,1.6
			l-1.6,0.2l-1.2-1.4l0,0l-0.6,0.1l0.2,1.5l-1.4,0.2L378.1,761.5z M380.7,763.7c0.5-0.1,0.7-0.3,0.7-0.7l0,0c0-0.4-0.4-0.6-0.8-0.5
			l-0.9,0.1l0.1,1.2L380.7,763.7z"/>
		<path class="st3" d="M383.5,763.5L383.5,763.5c-0.2-1.5,0.9-2.8,2.4-2.9c0.9-0.1,1.5,0.1,2.1,0.5l-0.7,1.1
			c-0.4-0.3-0.8-0.4-1.3-0.3c-0.7,0.1-1.2,0.8-1.1,1.5l0,0c0.1,0.8,0.7,1.3,1.5,1.2c0.3,0,0.6-0.1,0.8-0.3l-0.1-0.6l-1,0.1l-0.1-1
			l2.3-0.3l0.3,2.3c-0.5,0.5-1.2,0.9-2.1,1C384.9,766,383.6,765,383.5,763.5"/>
		<polygon class="st3" points="390.6,763.3 388.3,760.4 389.9,760.2 391.2,761.9 392,759.9 393.6,759.8 392,763.1 392.2,765 
			390.8,765.2 		"/>
	</g>
	<path class="st0" d="M370.5,774c3.1-0.6,5.3,2.9,5.6,5s-1.9,4.2-5,4.7c-3.1,0.6-5.9-0.6-6.3-2.7C364.5,779,367.4,774.6,370.5,774z"
		/>
	<g>
		<path class="st22" d="M394.9,838.9c-2.2,0-4.4-0.8-6.1-2.5l-93.4-93.4c-3.4-3.4-1.5-7,1.8-10.4c3.4-3.4,7-5.2,10.4-1.8l93.4,93.4
			c3.4,3.4,2.3,7.8-1.1,11.2C398.2,837,397.1,838.9,394.9,838.9z"/>
	</g>
	<path class="st1" d="M315.8,723.5c0.7-0.1,2.8-9.7,8.5-16.3c5.7-6.6,9.4-6.1,8.3-8.5s-5.7-4.4-6.8-5.9s-3.3-4.9-1.5-6
		c2.6-0.1,4.7,2.4,5.3,2.9c0.6,0.6,10,11.3,9.9,11.7s-5,7.2-5,7.2l-8.5,8l-7.6,6.9C318.5,723.5,315.4,723.6,315.8,723.5z"/>
	<path class="st2" d="M384.6,703.3c0,0-21.3-16.6-40.7-18.1c-5.3,0.1-6.8,2.4-7.2,3.7c-0.7,1.4-5.9,0.4-8.8-2.2s-5.5,0.3-3.7,2.6
		c1.9,2.3,14.5,9.5,8.6,12.5c-5.8,3-8.3,9.5-13.6,26.3c18.3-14.9,27.8-17.9,27.8-17.9L384.6,703.3z"/>
	<path class="st0" d="M350.2,729.1c0.2,0.3,1.3,1.4,1.5-0.4s-2.4-5.1-6-4.7c-2.7,0.4-4.6,3.4-4.4,8c0.3,4.2,2,6.5,3.6,6.5
		c3,0.3,4.4-2.1,3.7-5.3C347.9,729.9,347,723.8,350.2,729.1z"/>
	<path class="st0" d="M379.8,726.6c0.2,0.4,1.1,1.6,1.5-0.2c0.4-1.8-1.8-5.4-5.4-5.4c-2.7,0.1-4.9,2.9-5.3,7.4
		c-0.2,4.2,1.3,6.7,2.8,6.9c2.9,0.7,4.6-1.6,4.3-4.9C377.4,727.1,377.2,720.9,379.8,726.6z"/>
	<path class="st0" d="M336.2,721.7c1.1-2.7,2.4-3.5,3-4.2c1.2-0.7,1.6-0.9,2.7-1c1.4,0.1,1.3,0.1-0.3,1.4
		C340.8,719.4,335.9,725.7,336.2,721.7z"/>
	<path class="st0" d="M381.7,716.1c-1.7-2.3-3.2-2.7-4-3.3c-1.3-0.3-1.7-0.4-2.9-0.2c-1.3,0.5-1.2,0.4,0.6,1.3
		C376.7,715,383.1,719.8,381.7,716.1z"/>
	<path class="st0" d="M366.6,787c0,0,2.3,0.9,4.4,0.5c2.3-0.4,3.9-1.6,4.9-1.9c1-0.3,0.4,0.2,0.1,0.4c-0.3,0.2-3.1,2.7-4.4,2.8
		c-1.3,0.1-3.8-0.2-4.6-1C366.4,787.1,366.2,786.8,366.6,787"/>
</g>
</svg>
