<?xml version="1.0" encoding="utf-8"?>
<!-- Generator: Adobe Illustrator 22.0.1, SVG Export Plug-In . SVG Version: 6.00 Build 0)  -->
<!DOCTYPE svg PUBLIC "-//W3C//DTD SVG 1.1//EN" "http://www.w3.org/Graphics/SVG/1.1/DTD/svg11.dtd">
<svg version="1.1" id="Layer_1" xmlns="http://www.w3.org/2000/svg" xmlns:xlink="http://www.w3.org/1999/xlink" x="0px" y="0px"
	 viewBox="0 0 1280 880.3" style="enable-background:new 0 0 1280 880.3;" xml:space="preserve">
<style type="text/css">
	.st0{fill:#2A2B2B;}
	.st1{fill:#D36818;}
	.st2{fill:#F68F37;}
	.st3{fill:#FFFFFF;}
	.st4{fill:#26406D;}
	.st5{fill:none;stroke:#4C5457;stroke-miterlimit:10;}
	.st6{fill:#FDFEFF;}
	.st7{fill:#C1C1C1;}
	.st8{fill:#3D3D3D;}
	.st9{opacity:0.48;enable-background:new    ;}
	.st10{opacity:0.23;enable-background:new    ;}
	.st11{fill:url(#SVGID_1_);}
	.st12{opacity:0.35;enable-background:new    ;}
	.st13{fill:#E61D30;}
	.st14{fill:#9E1226;}
	.st15{fill:url(#SVGID_2_);}
	.st16{fill:url(#SVGID_3_);}
	.st17{fill:url(#SVGID_4_);}
	.st18{fill:none;}
	.st19{fill:#CDDC29;}
	.st20{fill:url(#SVGID_5_);}
	.st21{fill:#F7941E;}
	.st22{fill:#CC1E0D;}
</style>
<g>
	<path class="st0" d="M392.2,364.4c-0.1,0.1-1,1.6-0.5,2.1c0.5,0.5,1.4,0.7,1.9-1c0.5-1.7,3.5-8.5,2.1-14.5
		c-0.2-0.9,0.5-2.1,0.5-2.1s2.5-2,1.9-2.9c-0.7-0.7-1.9-0.4-2.3,0.4c-1.4-2.2-2.3-3.1-3.6-2.9c-1.3,0.1-0.9,1.9-0.5,2.3
		c-2.7-0.5-4,0.4-3.8,1.3c0.2,0.7,1.3,1.9,2.9,1.5c-0.7,0.8-1.3,2.9,2.5,1C394.3,350.5,397,353.2,392.2,364.4z"/>
	
		<rect x="279.1" y="294" transform="matrix(0.9974 -7.164187e-02 7.164187e-02 0.9974 -22.0815 27.1432)" class="st1" width="176.5" height="54.7"/>
	<path class="st2" d="M381.8,446.9c0,0-1.3-0.3-1.9,1c-0.5,1.3-1.1,5.5-1.1,5.5s-1.1,0.5-0.5,1.6c0.7,1,2.9,2.9,3.5,5.1
		c0.5,1.1,3.3,3.4,9.4,2.2c2.7-0.5,4.1-1.7,3.8-2.4c-0.1-0.9-0.1-1.5-0.5-1.7c-0.3-1-0.8-2.6-2.5-3.9c-1.7-1.4-4.3-3.8-4.5-5.1
		C387.3,448.6,385.9,447,381.8,446.9z"/>
	<path class="st2" d="M343.3,446.4c0,0-1.3-0.3-1.9,1c-0.5,1.3-1.1,5.5-1.1,5.5s-1.1,0.5-0.5,1.6c0.7,1,2.9,2.9,3.5,5.1
		c0.5,1.1,3.3,3.4,9.4,2.2c2.7-0.5,4.1-1.7,3.8-2.4c-0.1-0.9-0.1-1.5-0.5-1.7c-0.3-1-0.8-2.6-2.5-3.9c-1.7-1.4-4.3-3.8-4.5-5.1
		C348.8,448.1,347.4,446.5,343.3,446.4z"/>
	<path class="st0" d="M349.2,419.9c-0.3,0.3-0.1,11.6,0.5,16.2c-2.3,3.7-5.1,5.2-6.4,11.2c0.5,0.7,2.1,0.9,3.2,0.5
		c1.1-0.5,5.1-6.2,6-7.1c0.9-1,3.5-3.3,3.5-4.7c-0.3-2,0.3-13.7,0-13.8C355.6,422,349.2,419.9,349.2,419.9z"/>
	<path class="st0" d="M374.1,422.4c0.2,0.3,6,12.6,9.2,14.1c-0.5,2.5-1.3,7.5-1.6,11.5c0.7,1.4,2.6,1.3,3.6,0.6c0.7-1.1,3-8.8,3-9.6
		c-0.1-1.4,0.3-4.6-0.7-6.2c-1.3-1.8-7.6-12.5-7.6-12.5L374.1,422.4z"/>
	
		<ellipse transform="matrix(0.9963 -8.637068e-02 8.637068e-02 0.9963 -32.2896 32.9469)" class="st2" cx="364.6" cy="389.6" rx="38.2" ry="35.9"/>
	<path class="st1" d="M330.6,392.5c-1.7-19.3,12.2-36.4,31.3-38.7c-0.4,0-0.8,0.1-1.2,0.1c-20.9,1.8-36.5,19.3-34.8,39.1
		c1.7,19.7,20,34.3,40.9,32.5c0.8-0.1,1.5-0.2,2.3-0.3C349.6,426.8,332.3,412.3,330.6,392.5z"/>
	<g>
		<path class="st3" d="M395.9,387.8c0.5,4.1-2.5,7.8-6.6,8.2c-4.1,0.5-7.8-2.5-8.2-6.6c-0.5-4.1,2.5-7.8,6.6-8.2
			C391.8,380.8,395.5,383.7,395.9,387.8"/>
		<polygon class="st3" points="340.5,387.4 344.1,387 345.2,397 351.5,396.2 351.9,399.4 341.9,400.5 		"/>
		<path class="st3" d="M352.2,393.6l-0.8-7.4l3.7-0.4l0.8,7.3c0.2,1.9,1.3,2.7,2.7,2.5s2.3-1.1,2.1-3l-0.9-7.4l3.7-0.4l0.8,7.3
			c0.5,4.2-1.7,6.3-5.4,6.8C355.2,399.3,352.7,397.7,352.2,393.6"/>
		<polygon class="st3" points="365.3,384.6 369.1,384.2 372.8,388.9 375.3,383.5 379.2,383.1 380.7,396.2 377.1,396.6 376.2,389.1 
			373.5,394.6 373.3,394.6 369.4,389.9 370.3,397.4 366.7,397.8 		"/>
		<polygon class="st3" points="367.1,400.3 370.2,400 370.4,400.9 368.2,401.1 368.3,401.7 370.2,401.5 370.3,402.4 368.4,402.6 
			368.5,403.2 370.6,402.9 370.7,403.9 367.5,404.2 		"/>
		<polygon class="st3" points="371.1,399.8 372.1,399.7 374,401.6 373.7,399.6 374.8,399.4 375.3,403.4 374.3,403.5 372.4,401.5 
			372.6,403.7 371.5,403.8 		"/>
		<polygon class="st3" points="375.7,399.3 378.9,399 379,399.9 376.9,400.1 377,400.8 378.9,400.5 379,401.4 377.1,401.6 
			377.2,402.2 379.3,402 379.4,402.9 376.2,403.3 		"/>
		<path class="st3" d="M379.7,398.9l1.9-0.2c0.6-0.1,1,0.1,1.3,0.3c0.2,0.2,0.4,0.5,0.5,0.9l0,0c0.1,0.6-0.2,1-0.7,1.3l1.1,1.3
			l-1.3,0.1l-0.9-1.1l0,0l-0.5,0.1l0.1,1.2l-1.1,0.1L379.7,398.9z M381.7,400.6c0.3-0.1,0.6-0.2,0.5-0.5l0,0
			c-0.1-0.3-0.3-0.5-0.6-0.4l-0.7,0.1l0.1,1L381.7,400.6z"/>
		<path class="st3" d="M383.9,400.4L383.9,400.4c-0.1-1.1,0.7-2.2,1.9-2.3c0.7-0.1,1.2,0.1,1.7,0.4l-0.6,0.9c-0.3-0.2-0.6-0.3-1-0.3
			c-0.6,0.1-1,0.6-0.9,1.2l0,0c0.1,0.6,0.6,1,1.2,1c0.3-0.1,0.5-0.1,0.6-0.2l-0.1-0.5l-0.8,0.1l-0.1-0.8l1.8-0.2l0.2,1.8
			c-0.4,0.4-0.9,0.7-1.7,0.8C385,402.4,384,401.6,383.9,400.4"/>
		<polygon class="st3" points="389.5,400.3 387.7,398 388.9,397.8 389.9,399.2 390.6,397.7 391.8,397.6 390.6,400.1 390.7,401.6 
			389.6,401.8 		"/>
	</g>
	<g>
		<path class="st4" d="M351.7,381.5c0,0-2.1,0.4-2.2,0.4c-0.1,0-1.7,0.6-1.8,0.4c-0.1-0.2-2.2-2.7-2.2-2.7l-0.7-7.8l3-2.9l2.6-1.7
			l2,0.5l2.2,1.3l1.3,4.1l-0.1,3.1l-0.6,4l-0.8,1.2L351.7,381.5z"/>
		<path class="st3" d="M346.7,375.4c0.1-3.8,2-6.8,4.2-6.7c2.2,0.1,4.1,3.1,3.9,6.9c0,0.6-0.1,1.1-0.2,1.7c-0.1,1.7-0.8,3.1-1.8,3.9
			l-0.1,0.1c0.7,0,1.4,0,2.1,0.1c1.1-1.7,1.8-4,1.9-6.6c0.1-5.4-2.8-9.9-6.5-10c-3.7-0.1-6.8,4.2-6.9,9.7c-0.1,3.3,1,6.3,2.7,8.1
			c0.9-0.3,1.9-0.6,3-0.9C347.6,380.6,346.6,378.2,346.7,375.4z"/>
		<g>
			<path class="st0" d="M346.1,382.7L346.1,382.7c-1.8-1.9-2.9-5-2.8-8.2c0.1-5.5,3.3-9.9,7.1-9.8c3.8,0.1,6.8,4.6,6.7,10.1
				c-0.1,2.5-0.7,4.9-1.9,6.6l-0.1,0.1H355c-0.6-0.1-1.3-0.1-2-0.1h-0.4l0.3-0.3c1-0.8,1.6-2.3,1.7-3.9c0.1-0.6,0.2-1.1,0.2-1.7
				c0.1-1.8-0.3-3.5-1.1-4.8c-0.7-1.3-1.7-1.9-2.7-2c-1,0-2.1,0.6-2.8,1.9c-0.8,1.3-1.3,2.9-1.3,4.7l0,0c-0.1,2.7,0.9,5.1,2.3,6.2
				l0.3,0.2l-0.3,0.1c-1,0.2-2,0.5-2.9,0.8L346.1,382.7z M349.8,364.9c-3.4,0.3-6.2,4.4-6.3,9.5c-0.1,3.1,0.9,6.1,2.6,7.9
				c0.9-0.3,1.7-0.5,2.6-0.7c-1.4-1.2-2.2-3.6-2.2-6.2c0.1-1.8,0.5-3.6,1.3-4.9c0.9-1.3,1.9-2.1,3.1-2c1.1,0,2.2,0.8,3,2.1
				c0.7,1.3,1.1,3.1,1.1,4.9c0,0.6-0.1,1.1-0.2,1.7c-0.1,1.5-0.7,3-1.6,3.8c0.5,0,1.1,0,1.6,0.1c1.1-1.8,1.8-4,1.8-6.4
				c0.1-5.3-2.7-9.7-6.3-9.8C350.2,364.9,350,364.9,349.8,364.9z"/>
		</g>
		<path class="st5" d="M353.5,381.2L353.5,381.2c0.1,0,0.1-0.1,0.1-0.1C353.5,381.1,353.5,381.1,353.5,381.2z"/>
		<g>
			<path class="st0" d="M345.1,383.9c-0.2,0-0.3-0.1-0.5-0.2c-0.1-0.2,0-0.5,0.2-0.6c2.1-1.1,4.5-1.8,7-2.1c1.9-0.2,3.7-0.2,5.5,0
				c0.2,0.1,0.4,0.3,0.4,0.5c-0.1,0.2-0.3,0.4-0.5,0.4c-1.7-0.2-3.5-0.2-5.3,0c-2.4,0.3-4.7,1-6.7,2
				C345.2,383.9,345.1,383.9,345.1,383.9z"/>
		</g>
		<path class="st0" d="M351,371.5c-0.2-0.1-1-0.1-1.7,0.1c-1.4,0.6-2.5,2.6-2.5,4.9c-0.1,2.2,0.9,4.2,2.2,4.9
			c0.3-0.1,0.6-0.1,0.9-0.1c0.7-0.1,1.4-0.1,2.1-0.2c0.1,0,0.1-0.1,0.1-0.1c0.9-0.9,1.5-2.3,1.8-3.9c0-0.2,0-0.3,0-0.5
			C353.8,374.2,352.6,372,351,371.5z"/>
	</g>
	<g>
		<path class="st4" d="M378.4,379.2c0,0-2.1,0.2-2.1,0.2s-1.7,0.3-1.8,0.2s-1.8-2.9-1.8-2.9l0.2-7.5l3.1-2.5l2.6-1.3l1.8,0.6
			l1.9,1.5l0.7,4l-0.5,3l-1,3.8l-0.9,1L378.4,379.2z"/>
		<path class="st3" d="M374.3,372.8c0.5-3.6,2.6-6.3,4.7-6c2.2,0.3,3.5,3.4,3,7c-0.1,0.6-0.2,1.1-0.3,1.6c-0.3,1.6-1.1,2.9-2.1,3.6
			l-0.1,0.1c0.7,0.1,1.3,0.1,1.9,0.2c1.3-1.5,2.2-3.7,2.5-6.1c0.7-5.1-1.7-9.7-5.2-10.2c-3.5-0.5-7,3.4-7.7,8.5
			c-0.4,3.1,0.3,6.1,1.7,8c0.9-0.2,1.9-0.4,2.9-0.5C374.7,377.9,374,375.4,374.3,372.8z"/>
		<g>
			<path class="st0" d="M372.9,379.7L372.9,379.7c-1.5-2.1-2.2-5.1-1.8-8.2c0.7-5.3,4.2-9.1,7.8-8.6c3.6,0.5,6,5.1,5.3,10.4
				c-0.3,2.3-1.2,4.6-2.5,6.2l-0.1,0.1h-0.1c-0.6-0.1-1.3-0.2-1.9-0.2l-0.3-0.1l0.3-0.3c1-0.7,1.8-2,2.1-3.5c0.2-0.5,0.3-1,0.3-1.6
				c0.2-1.7,0.1-3.4-0.5-4.7c-0.6-1.3-1.4-2.1-2.4-2.2c-1-0.1-2,0.4-2.9,1.5c-0.9,1.1-1.5,2.7-1.7,4.4l0,0c-0.3,2.6,0.3,5,1.5,6.2
				l0.2,0.2l-0.3,0.1c-1,0.1-1.9,0.2-2.9,0.5L372.9,379.7z M378.4,363.1c-3.3-0.1-6.3,3.6-7,8.4c-0.4,3,0.2,5.9,1.7,7.8
				c0.8-0.2,1.7-0.3,2.5-0.5c-1.2-1.3-1.7-3.7-1.4-6.2c0.2-1.8,0.9-3.4,1.8-4.5c0.9-1.2,2.1-1.7,3.1-1.6c1.1,0.2,2.1,1,2.6,2.3
				c0.6,1.4,0.8,3.1,0.6,4.9c-0.1,0.6-0.2,1.1-0.3,1.6c-0.3,1.5-1,2.7-1.9,3.5c0.5,0.1,1,0.1,1.5,0.2c1.3-1.5,2.1-3.7,2.4-5.9
				c0.7-5.1-1.6-9.6-5-10.1C378.7,363.1,378.5,363.1,378.4,363.1z"/>
		</g>
		<path class="st5" d="M380.2,379.1L380.2,379.1c0.1,0,0.1-0.1,0.1-0.1C380.3,379,380.2,379,380.2,379.1z"/>
		<g>
			<path class="st0" d="M371.9,380.8c-0.2,0-0.3-0.1-0.4-0.3c-0.1-0.2,0.1-0.5,0.3-0.6c2.2-0.8,4.5-1.2,6.9-1.3
				c1.8,0,3.6,0.2,5.3,0.6c0.2,0.1,0.4,0.3,0.3,0.5c-0.1,0.2-0.3,0.4-0.5,0.3c-1.6-0.4-3.3-0.6-5-0.6c-2.3,0-4.6,0.4-6.6,1.2
				C372,380.8,371.9,380.8,371.9,380.8z"/>
		</g>
		<path class="st0" d="M378.7,369.7c-0.3-0.1-1-0.2-1.7-0.1c-1.4,0.5-2.6,2.2-2.9,4.4c-0.3,2.1,0.4,4.1,1.5,5c0.3,0,0.6,0,0.9,0
			c0.7,0,1.3,0,1.9,0.1c0.1,0,0.1-0.1,0.1-0.1c0.9-0.8,1.7-2.1,2.1-3.6c0.1-0.2,0.1-0.3,0.1-0.5
			C381.2,372.5,380.3,370.3,378.7,369.7z"/>
	</g>
	<g>
		<g>
			<path class="st0" d="M352.7,416c-0.2,0-0.4-0.1-0.5-0.2c-0.2-0.3-0.1-0.6,0.1-0.8c0.1-0.1,2.4-1.8,2.5-5.4c0-0.3,0.3-0.6,0.6-0.6
				c0.3,0,0.6,0.3,0.6,0.6c-0.1,4.2-2.9,6.2-3,6.3C352.9,416,352.8,416,352.7,416z"/>
		</g>
		<g>
			<path class="st0" d="M387.8,410.4c-0.1,0-0.2,0-0.2,0c-0.1-0.1-3-1-4.3-4.5c-0.1-0.3,0.1-0.6,0.3-0.7c0.3-0.1,0.6,0.1,0.7,0.3
				c1,2.9,3.4,3.7,3.5,3.7c0.3,0.1,0.5,0.4,0.4,0.7C388.3,410.2,388,410.3,387.8,410.4z"/>
		</g>
		<path class="st0" d="M354.7,412.6c0.3,0.1,8.2,1.8,15.3,0.3c7.1-1.4,11.6-2.8,14.9-5.1c0.4,0.3,0.4,0.3,0.4,0.3
			s-5.3,11.7-15.3,12.5c-3,0-5.9,1.3-15.4-7.3C354.9,412.6,354.7,412.6,354.7,412.6z"/>
		<path class="st6" d="M360,414.6c-0.1,0-0.3,2.6,3.3,2.2c3.8-0.2,12.1-1.3,15.3-2.4c2.3-1,2.2-1.9,2.1-2.9
			C376.6,412.7,366,415.1,360,414.6z"/>
	</g>
	<circle class="st3" cx="348.7" cy="376.2" r="1"/>
	<circle class="st3" cx="349" cy="378.3" r="0.4"/>
	<circle class="st3" cx="375.7" cy="373.6" r="1"/>
	<path class="st0" d="M334.1,368.7c0.1,0.1,1,1.6,0.5,2.1c-0.5,0.5-1.4,0.7-1.9-1s-3.5-8.5-2.1-14.5c0.2-0.9-0.5-2.1-0.5-2.1
		s-2.5-2-1.9-2.9c0.7-0.7,1.9-0.4,2.3,0.4c1.4-2.2,2.3-3.1,3.6-2.9c1.3,0.1,0.9,1.9,0.5,2.3c2.7-0.5,4,0.4,3.8,1.3
		c-0.2,0.7-1.3,1.9-2.9,1.5c0.7,0.8,1.3,2.9-2.5,1C332,354.7,329.4,357.4,334.1,368.7z"/>
	<ellipse class="st0" cx="389.8" cy="346.4" rx="2.1" ry="1.9"/>
</g>
<g>
	<path class="st0" d="M215.4,315.3l16,7.2c0,0,0.2,3.8-2.2,4.3c-5.6-1.9-16.1-7-16.1-7L215.4,315.3z"/>
	<path class="st7" d="M212.2,319.2l-31.7-16.3c0,0-4.3-3.5,1-1.7c30.4,12.2,33.2,12.9,33.2,12.9l0.9-4l-19.4-6.9
		c0,0-3.2-1.9,0.8-1.1c4.1,0.9,21.4,6.1,21.4,6.1s-1.7,12.1-7.8,17.7c-8.9-4.8-18.6-12-18.6-12s-2.8-3.1,1.2-0.9
		c3.9,2.2,16.2,9.4,16.4,9.5C210.4,321.5,212.2,319.2,212.2,319.2z"/>
	<path class="st2" d="M116.8,441.9c0,0,2.1-0.5,2.9,1.5c0.8,2,1.8,8.6,1.8,8.6s1.8,0.8,0.7,2.4c-1,1.6-4.4,4.4-5.4,8
		c-0.7,1.8-5.1,5.2-14.4,3.5c-4.2-0.8-6.2-2.6-5.9-3.7c0.2-1.4,0.1-2.2,0.7-2.7c0.6-1.5,1.2-4,3.7-6c2.5-2.1,6.6-5.9,6.8-7.9
		C108.3,444.4,110.6,442,116.8,441.9z"/>
	<path class="st0" d="M97.1,459.5c-0.6,0.4-0.5,1.3-0.7,2.7c-0.3,1.1,1.8,2.9,5.9,3.7c9.4,1.8,13.8-1.7,14.4-3.5
		c1-3.6,4.4-6.4,5.4-8c1-1.7-0.7-2.4-0.7-2.4l-4.6,6.1c0,0-1.4,2.7-2.9,3.1C112.4,461.5,101.3,463.9,97.1,459.5z"/>
	<path class="st2" d="M163.9,442.7c0,0-2.1,0.1-2.3,2.3c-0.3,2.1,0.6,8.7,0.6,8.7s-1.4,1.3,0,2.6c1.4,1.3,5.4,3,7.3,6.2
		c1.1,1.5,6.3,3.6,14.9-0.6c3.8-1.9,5.3-4.2,4.7-5.2c-0.5-1.3-0.6-2.2-1.4-2.4c-1-1.3-2.3-3.5-5.2-4.8c-3-1.3-7.9-3.8-8.7-5.7
		C172.9,442.9,170,441.1,163.9,442.7z"/>
	<path class="st0" d="M161.6,401c-0.3,0.6,4.7,17.3,7.5,23.9c-1.9,6.4-5.4,9.8-4.8,19.2c1,0.9,3.5,0.4,5-0.7c1.4-1.2,5.1-11.3,6-13
		c0.9-1.9,3.9-6.3,3.2-8.5c-1.3-2.9-5.2-20.5-5.8-20.5C172.1,401.4,161.6,401,161.6,401z"/>
	<path class="st0" d="M128.6,404.2c-0.3,0.4-9.2,19.3-14.1,21.7c0.7,3.8,2.1,11.6,2.4,17.7c-1.1,2.2-3.9,2.1-5.6,0.9
		c-1.1-1.8-4.7-13.5-4.6-14.8c0.1-2.2-0.4-7,1.1-9.5c2-2.7,11.7-19.2,11.7-19.2L128.6,404.2z"/>
	<path class="st0" d="M88.1,360.5c0.1-0.3-13.7,4.2-15.4,10.3c-0.3,0.5,0.2,0.4,0.2,1c0,1.7,0.6,2.6,1.6,4.4
		c1.8,2.7,1.8,3.7,0.6,4.3c-1.1,0.6-3.8,1-5.3-2.8c-1.1,2.1-2.8,2.7-3.5,1.8c-0.6-1.1-1.5-3,0.5-7c-1.9-0.5-3.5-1-3.2-2.2
		c0.4-1.2,2.7-1.3,4.3-0.6c1.7,0.1,4.2-0.7,4.7-1.7c0.6-1,7.7-8.2,11.3-8.6C87.4,358.9,88.1,360.5,88.1,360.5z"/>
	
		<ellipse transform="matrix(8.637039e-02 -0.9963 0.9963 8.637039e-02 -221.4255 465.8228)" class="st2" cx="143.3" cy="353.6" rx="55.2" ry="58.9"/>
	<path class="st1" d="M195.6,358.1c2.6-29.8-18.9-56.1-48.2-59.6c0.6,0.1,1.3,0.1,1.9,0.1c32.2,2.8,56.2,29.8,53.6,60.2
		c-2.6,30.4-30.9,52.8-63.1,50c-1.2-0.1-2.4-0.3-3.6-0.4C166.4,411,193,388.5,195.6,358.1z"/>
	<path class="st0" d="M201.9,339.8c-0.2,0.1-2.7,1-2.5,2.2c0.2,1.2,1.1,2.2,3.3,0.6c2.2-1.7,12.4-7,16.2-15.6
		c0.6-1.2,2.6-2.1,2.6-2.1s5-0.1,5-1.7c-0.2-1.5-2-2.2-3.2-1.8c0.4-4,0.1-5.9-1.7-6.9c-1.7-1.1-2.8,1.5-2.7,2.3
		c-2.8-3.1-5.2-3.2-5.8-2c-0.5,1-0.2,3.6,2.1,4.6c-1.7,0.3-4.3,2.3,2.1,3.6C217.6,324.8,218.2,330.6,201.9,339.8z"/>
	<path class="st0" d="M187.7,454.4c0.7,0.2,0.9,1.1,1.4,2.4c0.6,1-0.9,3.2-4.7,5.2c-8.6,4.3-13.7,2.1-14.9,0.6
		c-1.9-3.1-5.9-5-7.3-6.2c-1.4-1.3,0-2.6,0-2.6l6.1,4.6c0,0,2.1,2.2,3.7,2.2C173.5,460.5,184.8,459.8,187.7,454.4z"/>
	<path class="st4" d="M153.1,345.3c0,0,2.2,1.6,2.3,1.7c0.1,0.1,1.7,1.5,1.9,1.4c0.3-0.1,4-2.1,4-2.1l4.9-8.8l-2-5l-2.2-3.4
		l-2.6-0.5l-3.3,0.4l-3.6,4.1l-1.5,3.7l-1.4,5.1l0.3,1.8L153.1,345.3z"/>
	<path class="st3" d="M162.2,340.5c1.9-4.5,1.2-9.1-1.4-10.2c-2.7-1.1-6.4,1.6-8.3,6.1c-0.3,0.7-0.5,1.4-0.7,2.1
		c-0.7,2.1-0.7,4.2,0,5.6c0,0.1,0.1,0.1,0.1,0.1c-0.8-0.4-1.6-0.7-2.4-1c-0.4-2.6-0.1-5.7,1.2-8.7c2.7-6.4,8.5-10.2,12.9-8.3
		c4.4,1.9,5.8,8.6,3.1,15c-1.7,3.9-4.5,6.9-7.5,8.1c-0.9-0.9-2-1.8-3-2.6C158.3,346.2,160.8,343.9,162.2,340.5z"/>
	<path class="st0" d="M159,349.4c-0.9-0.9-2-1.8-3-2.5l-0.4-0.3l0.4-0.1c2.3-0.5,4.6-2.9,6-6.1l0,0c0.9-2.1,1.3-4.4,1-6.2
		c-0.3-1.9-1.1-3.1-2.3-3.7c-1.2-0.5-2.8-0.2-4.3,0.9c-1.5,1.1-2.9,2.9-3.8,5.1c-0.3,0.7-0.5,1.3-0.7,2.1c-0.7,2-0.7,4,0,5.5
		l0.2,0.6l-0.4-0.2c-0.8-0.4-1.6-0.7-2.4-1l-0.1-0.1v-0.1c-0.4-2.8,0-5.9,1.2-8.8c2.8-6.6,8.7-10.3,13.2-8.4
		c4.5,1.9,5.9,8.8,3.2,15.3c-1.6,3.8-4.4,6.9-7.5,8.2l-0.1,0.1L159,349.4z M163.4,326.4c-4.3-1.8-10,1.9-12.7,8.2
		c-1.2,2.8-1.7,5.9-1.2,8.5c0.6,0.2,1.2,0.5,1.9,0.8c-0.6-1.5-0.5-3.5,0.1-5.4c0.2-0.7,0.4-1.4,0.7-2.1c0.9-2.2,2.3-4,3.9-5.2
		c1.7-1.2,3.3-1.5,4.6-1c1.4,0.6,2.3,2,2.6,4c0.3,2-0.1,4.3-1,6.4c-1.3,3.1-3.6,5.5-5.9,6.2c1,0.7,1.8,1.4,2.7,2.2
		c3-1.3,5.6-4.3,7.2-7.9c2.6-6.1,1.4-12.4-2.4-14.5C163.8,326.5,163.6,326.4,163.4,326.4z"/>
	<path class="st0" d="M159.6,351.5c0.2,0.1,0.5,0.1,0.6-0.1c0.3-0.2,0.3-0.6,0.1-0.9c-2-2.4-4.4-4.4-7.2-6.1
		c-2.1-1.2-4.3-2.2-6.5-2.9c-0.3-0.1-0.6,0.1-0.7,0.4c-0.1,0.3,0.1,0.6,0.4,0.7c2.1,0.6,4.3,1.6,6.2,2.8c2.7,1.6,5,3.6,6.9,5.9
		C159.4,351.4,159.5,351.5,159.6,351.5z"/>
	<path class="st0" d="M158,333.3c-0.4,1.5-1,3.3-1,3.3c0.2-0.2,1.8-1.3,3-2.2c1.3,1.5,1.5,4.4,0.4,7.1c-1.1,2.7-3.2,4.5-5.2,4.7
		c-0.3-0.2-0.6-0.4-1-0.6c-0.7-0.5-1.5-0.9-2.3-1.3c0-0.1-0.1-0.1-0.1-0.2c-0.5-1.5-0.5-3.5,0-5.6c0.1-0.2,0.2-0.4,0.2-0.6
		C153.2,334.9,155.8,333,158,333.3z"/>
	<path class="st4" d="M116.9,342.8c0,0-2.6,1-2.7,1c-0.1,0-2,1.1-2.2,0.9c-0.2-0.2-3.3-3-3.3-3l-2.6-9.7l3.2-4.3l2.9-2.7l2.6,0.2
		l3.1,1.2l2.4,4.9l0.5,4l0.2,5.3l-0.7,1.7L116.9,342.8z"/>
	<path class="st3" d="M109.3,336c-0.7-4.8,1.1-9.1,3.9-9.5c2.9-0.4,5.8,3.1,6.6,7.9c0.1,0.7,0.2,1.5,0.2,2.2
		c0.2,2.2-0.4,4.2-1.4,5.4c0,0.1-0.1,0.1-0.1,0.1c0.9-0.2,1.8-0.3,2.6-0.4c1.1-2.4,1.4-5.5,1-8.7c-1-6.9-5.7-11.9-10.4-11.2
		s-7.7,6.9-6.7,13.8c0.6,4.3,2.6,7.8,5.2,9.7c1.1-0.6,2.3-1.2,3.6-1.7C111.6,342.5,109.8,339.5,109.3,336z"/>
	<path class="st0" d="M110,345.4l-0.1-0.1c-2.7-2-4.6-5.7-5.3-9.9c-1.1-7,2-13.3,6.9-14c4.8-0.7,9.6,4.4,10.7,11.4
		c0.5,3.1,0.1,6.3-1,8.8l-0.1,0.1H121c-0.9,0.1-1.7,0.2-2.6,0.4l-0.5,0.1l0.4-0.5c1.1-1.3,1.5-3.2,1.4-5.3c0-0.7-0.1-1.4-0.2-2.2
		c-0.3-2.3-1.2-4.4-2.4-5.9c-1.2-1.4-2.6-2.1-3.9-1.9c-1.3,0.2-2.4,1.3-3.2,3c-0.7,1.8-1,4-0.6,6.3l0,0c0.5,3.4,2.2,6.3,4.3,7.4
		l0.4,0.2l-0.4,0.2c-1.2,0.5-2.4,1.1-3.6,1.7L110,345.4z M111,322c-4.3,1.1-6.9,7-5.9,13.4c0.6,4,2.4,7.5,5,9.5c1-0.5,2-1.1,3.1-1.5
		c-2-1.3-3.6-4.2-4.1-7.5c-0.4-2.3-0.1-4.7,0.6-6.5c0.7-1.9,2-3,3.5-3.2c1.5-0.2,3,0.5,4.3,2.1c1.3,1.5,2.1,3.7,2.5,6
		c0.1,0.7,0.2,1.5,0.2,2.2c0.2,2-0.3,3.9-1.2,5.2c0.7-0.1,1.3-0.2,2-0.3c1.1-2.4,1.4-5.5,0.9-8.5c-1-6.8-5.6-11.8-10.2-11.1
		C111.4,321.9,111.2,322,111,322z"/>
	<path class="st0" d="M109.1,347.2c-0.2,0.1-0.5,0-0.6-0.2c-0.2-0.3-0.2-0.6,0.1-0.8c2.5-1.8,5.3-3.2,8.5-4.2c2.3-0.7,4.7-1.1,7-1.2
		c0.3,0,0.6,0.3,0.6,0.6s-0.2,0.6-0.6,0.6c-2.2,0.1-4.5,0.5-6.7,1.1c-3,0.9-5.8,2.2-8.1,3.9C109.2,347.1,109.2,347.2,109.1,347.2z"
		/>
	<path class="st0" d="M114.3,329.9c0.1,1.5,0.2,3.5,0.2,3.5c-0.1-0.2-1.4-1.7-2.3-2.9c-1.7,1.1-2.6,3.8-2.1,6.8
		c0.4,2.9,2,5.1,3.8,5.8c0.4-0.1,0.7-0.3,1.1-0.4c0.9-0.3,1.7-0.5,2.6-0.6c0.1-0.1,0.1-0.1,0.1-0.1c0.9-1.3,1.4-3.2,1.4-5.4
		c0-0.2-0.1-0.4-0.1-0.6C118.5,332.7,116.5,330.2,114.3,329.9z"/>
	<path class="st8" d="M83.4,343c0,0,19.1,10,43.9,10c10.4,0.3,61.7-9.4,72.6-13c4.7-0.9,5.2,3.9,5.2,5c0,1.4,4.2,39-21.1,53.5
		c-24.6,13.6-37.3,16.3-42.6,16.1c-5.3-0.3-41.8-11.1-53.3-35.7C81.9,363.8,81.3,348.3,83.4,343z"/>
	<path class="st0" d="M22.7,335.3l4.3,3c0,0,4.7-8,11.7-9.4c6.9-1.4,12.6,1.1,15.7,2.8c3.1,1.7,19.7,10.5,31.3,6.3
		c1.4-4.5,2.9-6.4,2.9-6.4s-6.3,6.1-31-3.9C44.9,323,34.6,318.1,22.7,335.3z"/>
	<path class="st0" d="M34.3,354.3l3-6.4c0,0,6.1,8.5,16.9,3.5c10.3-5.2,12.8-14.1,32.9-15.7c-2.3,5.2-1.4,5.6-1.4,5.6
		s-15.6,2.3-26.7,14.3C55.4,358.8,45.1,362.8,34.3,354.3z"/>
	<path class="st0" d="M128.5,362.1c10.1,0.4,21.8-1.7,26.5-3.3c-14.5,3.3-40.6-0.4-40.6-0.4c2.4,1.9,6.1,3,10.5,3.5
		c0.6,5.1,4.5,33,14.8,42C132,388.7,127.9,380,128.5,362.1z"/>
	<g>
		<path class="st0" d="M76.2,381.4l-16-7.2c0,0-0.2-3.8,2.2-4.3c5.6,1.9,16.1,7,16.1,7L76.2,381.4z"/>
		<path class="st7" d="M79.4,377.5l31.7,16.3c0,0,4.3,3.5-1,1.7c-30.4-12.2-33.2-12.9-33.2-12.9l-0.9,4l19.4,6.9
			c0,0,3.2,1.9-0.8,1.1c-4.1-0.9-21.4-6.1-21.4-6.1s1.7-12.1,7.8-17.7c8.9,4.8,18.6,12,18.6,12s2.8,3.1-1.2,0.9
			c-3.9-2.2-16.2-9.4-16.4-9.5C81.2,375.3,79.4,377.5,79.4,377.5z"/>
	</g>
	<path class="st0" d="M204.7,345.1c0-1.1-0.5-5.8-5.2-5c-6.5,2.1-26.9,6.4-44.8,9.4c14.8-0.6,31.8-1,32.9-0.1
		c1.8,1.7,10.8,16,9.3,18.7c-1.4,2.6-5,22-53,46.3c6.4-0.7,18.8-4.4,39.7-16C208.8,384.2,204.7,346.5,204.7,345.1z"/>
	<path class="st8" d="M80.8,346.3c0,0,0.2,1,1.9,0c6.7-3.6,25.8-14,49.1-15.4c28-1.5,58.6,8.4,66.5,11.2c3.4,1.1,7.8,0.8,9.2,0.5
		c1.3-1.1-0.8-4.7-1.5-5.8c-1.1-1.3-12-18.1-22.8-24.9c-11-6.8-21.2-16.8-38.5-17.5c-17-0.3-38.2,12-47.6,23.3
		C87.6,329.3,81.9,345.5,80.8,346.3z"/>
	<path class="st0" d="M111.5,325.2c-1.8,1.2,24-8.8,49-1.4C158.3,322.1,131.8,311.8,111.5,325.2z"/>
	<path class="st0" d="M198.1,342.3c3.4,1.1,7.8,0.8,9.2,0.5c1.3-1.1-0.8-4.7-1.5-5.8c-1.1-1.3-12-18.1-22.8-24.9
		c-4.4-2.7-8.6-5.9-13.2-8.8c6.8,7,11.7,16.2,13.2,19c2.1,4.1,0.6,11.1-16.6,8.1c-24.7-3.8-40.8-0.8-50.8,2.9
		c5.1-1.2,10.5-2.1,16.1-2.4C159.7,329.5,190.3,339.4,198.1,342.3z"/>
	<path class="st9" d="M131.8,330.7c-23.3,1.4-42.4,11.8-49.1,15.4c-0.1,0.1-0.2,0.1-0.2,0.1c0.4,0.3,0.7,0.5,0.7,0.5
		s26.4-8.1,45.8-8.1c12.6,0,46.8,2,69.2,3.4C190.3,339.1,159.8,329.1,131.8,330.7z"/>
	<path class="st10" d="M183.5,344.1c-21.5,2.4-48.8,5.3-58.6,5.7c-10.2,0.4-23.6-1.5-32.8-3.1c7.9,2.9,20.6,6.4,35.4,6.4
		C135,353.3,163.9,348.3,183.5,344.1z"/>
	<circle class="st3" cx="114.3" cy="341" r="0.8"/>
	<circle class="st3" cx="153.3" cy="342.2" r="1.2"/>
	<path class="st3" d="M75.4,390c0,0-0.8,0.3-0.4,0.9c16,3.5,16.9,3.6,16.9,3.6L75.4,390z"/>
</g>
<g>
	
		<linearGradient id="SVGID_1_" gradientUnits="userSpaceOnUse" x1="772.8309" y1="2086.1235" x2="847.6259" y2="2086.1235" gradientTransform="matrix(0.7071 -0.7071 -0.7071 -0.7071 1060.5265 2871.8726)">
		<stop  offset="8.430325e-03" style="stop-color:#000000;stop-opacity:0.3"/>
		<stop  offset="0.8192" style="stop-color:#000000;stop-opacity:0"/>
	</linearGradient>
	<polygon class="st11" points="202.1,814.8 202.1,833 114.5,833 114.5,814.8 	"/>
	<g>
		<path class="st2" d="M159.6,813c0,0-1.8-0.4-2.5,1.3c-0.7,1.6-1.5,7.3-1.5,7.3s-1.5,0.7-0.6,2.1c0.9,1.3,3.7,3.7,4.6,6.8
			c0.6,1.5,4.3,4.4,12.3,2.9c3.5-0.7,5.3-2.2,5.1-3.2c-0.1-1.2-0.1-1.9-0.6-2.3c-0.5-1.3-1.1-3.4-3.2-5.1c-2.1-1.8-5.6-5-5.8-6.7
			C166.8,815.2,164.9,813.1,159.6,813z"/>
		<path class="st0" d="M176.2,828c0.5,0.4,0.4,1.1,0.6,2.3c0.3,0.9-1.5,2.5-5.1,3.2c-8,1.5-11.7-1.5-12.3-2.9
			c-0.8-3-3.7-5.4-4.6-6.8c-0.9-1.4,0.6-2.1,0.6-2.1l3.9,5.2c0,0,1.2,2.3,2.5,2.6C163.2,829.7,172.7,831.8,176.2,828z"/>
		<path class="st2" d="M109.2,812.3c0,0-1.8-0.4-2.5,1.3c-0.7,1.6-1.5,7.3-1.5,7.3s-1.5,0.7-0.6,2.1c0.9,1.3,3.7,3.7,4.6,6.8
			c0.6,1.5,4.3,4.4,12.3,2.9c3.5-0.7,5.3-2.2,5.1-3.2c-0.1-1.2-0.1-1.9-0.6-2.3c-0.5-1.3-1.1-3.4-3.2-5.1c-2.1-1.8-5.6-5-5.8-6.7
			C116.4,814.5,114.5,812.4,109.2,812.3z"/>
		<path class="st0" d="M125.9,827.3c0.5,0.4,0.4,1.1,0.6,2.3c0.3,0.9-1.5,2.5-5.1,3.2c-8,1.5-11.7-1.5-12.3-2.9
			c-0.8-3-3.7-5.4-4.6-6.8c-0.9-1.4,0.6-2.1,0.6-2.1l3.9,5.2c0,0,1.2,2.3,2.5,2.6C112.9,829,122.4,831.1,125.9,827.3z"/>
		<path class="st0" d="M116.9,779c-0.3,0.4-0.1,15.2,0.6,21.3c-3,4.8-6.7,6.8-8.4,14.6c0.6,0.9,2.8,1.1,4.2,0.6
			c1.5-0.7,6.7-8,7.9-9.3c1.1-1.4,4.7-4.2,4.5-6.2c-0.4-2.7,0.4-17.9,0-18.1C125.3,781.8,116.9,779,116.9,779z"/>
		<path class="st0" d="M149.6,782.4c0.3,0.3,7.8,16.4,11.9,18.4c-0.6,3.2-1.8,9.9-2.1,15c0.9,1.9,3.3,1.8,4.7,0.7
			c0.9-1.5,4-11.5,4-12.5c-0.1-1.8,0.3-6-0.9-8c-1.7-2.3-10-16.3-10-16.3L149.6,782.4z"/>
		<path class="st0" d="M184.8,728.8c-0.3,0.1,7.3,9.8,12.6,9.3c0.5,0.1,0.3-0.3,0.8-0.4c1.3-0.5,2-1.7,3.1-2.5
			c1.6-2.2,2.4-2.5,3.2-1.7c0.8,0.7,1.8,2.8-0.8,5.1c2,0.3,3,1.5,2.4,2.3c-0.7,0.8-2,2-5.7,1.6c0.1,1.6,0.3,3.1-0.8,3.2
			c-1,0.1-1.8-1.8-1.7-3.2c-0.4-1.4-1.8-3.1-2.7-3.3s-8.7-3.8-10.1-6.6C183.7,729.8,184.8,728.8,184.8,728.8z"/>
		
			<ellipse transform="matrix(0.9963 -8.637217e-02 8.637217e-02 0.9963 -63.3606 14.6068)" class="st2" cx="137.1" cy="739.5" rx="50" ry="46.9"/>
		<path class="st1" d="M92.6,743.3c-2.2-25.3,16-47.6,40.9-50.6c-0.5,0-1.1,0.1-1.6,0.1c-27.3,2.4-47.7,25.3-45.5,51.1
			c2.2,25.8,26.2,44.8,53.6,42.4c1-0.1,2-0.2,3-0.4C117.5,788.2,94.9,769,92.6,743.3z"/>
		<g>
			<path class="st4" d="M122.3,731c0,0-2.8,0.5-2.8,0.6s-2.2,0.7-2.4,0.5c-0.2-0.2-2.8-3.6-2.8-3.6l-0.9-10.2l3.9-3.8l3.4-2.2
				l2.6,0.6l2.8,1.8l1.6,5.3l-0.2,4.1l-0.8,5.2l-1.1,1.6L122.3,731z"/>
			<path class="st3" d="M115.7,722.9c0.1-4.9,2.6-8.9,5.6-8.8c3,0.1,5.3,4.1,5.2,9c0,0.8-0.1,1.5-0.2,2.2c-0.2,2.2-1.1,4.1-2.3,5.2
				c-0.1,0.1-0.1,0.1-0.1,0.1c0.9,0,1.8,0,2.7,0.1c1.5-2.3,2.4-5.2,2.5-8.6c0.1-7.1-3.7-12.9-8.5-13c-4.9-0.1-8.9,5.6-9,12.6
				c-0.1,4.4,1.3,8.2,3.5,10.6c1.3-0.4,2.5-0.8,3.9-1.1C116.9,729.8,115.7,726.5,115.7,722.9z"/>
			<g>
				<path class="st0" d="M114.9,732.5l-0.1-0.1c-2.3-2.5-3.7-6.5-3.6-10.7c0.1-7.2,4.3-12.9,9.3-12.9c5,0.1,8.8,6.1,8.7,13.2
					c-0.1,3.2-0.9,6.3-2.5,8.7l-0.1,0.1h-0.1c-0.9-0.1-1.8-0.1-2.7-0.1h-0.5l0.4-0.4c1.3-1.1,2.1-3,2.3-5.1c0.1-0.7,0.2-1.5,0.2-2.2
					c0.1-2.3-0.4-4.5-1.4-6.3c-0.9-1.6-2.2-2.6-3.6-2.6s-2.7,0.8-3.7,2.5c-1,1.6-1.6,3.9-1.6,6.2l0,0c-0.1,3.5,1.1,6.7,3,8.1
					l0.4,0.3l-0.4,0.1c-1.3,0.3-2.6,0.6-3.9,1.1L114.9,732.5z M119.9,709.2c-4.5,0.4-8.1,5.8-8.2,12.4c-0.1,4,1.2,7.9,3.4,10.4
					c1.1-0.4,2.2-0.7,3.3-0.9c-1.8-1.6-2.9-4.7-2.8-8.2c0.1-2.4,0.7-4.7,1.7-6.4c1.1-1.7,2.5-2.7,4-2.7s2.9,1,3.9,2.8
					c1,1.8,1.5,4,1.5,6.4c0,0.8-0.1,1.5-0.2,2.2c-0.2,2-0.9,3.9-2.1,5.1c0.7,0,1.4,0,2.1,0.1c1.5-2.3,2.3-5.2,2.4-8.4
					c0.1-6.9-3.6-12.7-8.3-12.8C120.3,709.2,120,709.2,119.9,709.2z"/>
			</g>
			<path class="st5" d="M124.7,730.5L124.7,730.5c0.1-0.1,0.1-0.1,0.1-0.1C124.7,730.4,124.7,730.5,124.7,730.5z"/>
			<g>
				<path class="st0" d="M113.7,734.1c-0.3,0-0.5-0.1-0.6-0.3c-0.1-0.3,0-0.6,0.3-0.8c2.8-1.4,5.9-2.3,9.2-2.7
					c2.5-0.3,4.9-0.3,7.2,0c0.3,0.1,0.6,0.3,0.5,0.7c-0.1,0.3-0.3,0.6-0.7,0.5c-2.3-0.3-4.6-0.3-6.9,0c-3.2,0.4-6.1,1.3-8.8,2.6
					C113.8,734.1,113.7,734.1,113.7,734.1z"/>
			</g>
			<path class="st0" d="M122.7,717.9c-0.3,1.6-0.4,3.5-0.4,3.5c-0.1-0.2-1.1-1.9-1.8-3.3c-1.8,0.9-3.2,3.4-3.3,6.4
				c-0.1,3,1.1,5.4,2.8,6.4c0.4-0.1,0.8-0.1,1.1-0.2c0.9-0.1,1.8-0.2,2.7-0.2c0.1-0.1,0.1-0.1,0.1-0.1c1.1-1.2,2-3,2.3-5.2
				c0-0.2,0-0.4,0.1-0.6C126.4,721.3,124.8,718.5,122.7,717.9z"/>
		</g>
		<g>
			<path class="st4" d="M158.6,727.9c0,0-2.7,0.2-2.8,0.2s-2.1,0.4-2.3,0.3c-0.1-0.2-2.3-3.7-2.3-3.7l0.3-9.9l4.1-3.2l3.5-1.8
				l2.4,0.9l2.5,2l1,5.2l-0.6,3.9l-1.3,4.9l-1.1,1.4L158.6,727.9z"/>
			<path class="st3" d="M153.3,719.5c0.6-4.7,3.4-8.2,6.3-7.8c2.8,0.4,4.6,4.5,4,9.2c-0.1,0.7-0.3,1.5-0.4,2.1
				c-0.4,2.1-1.5,3.8-2.8,4.7c-0.1,0-0.1,0.1-0.1,0.1c0.9,0.1,1.7,0.2,2.5,0.3c1.6-2,2.8-4.8,3.3-8c0.9-6.8-2.1-12.8-6.8-13.3
				c-4.6-0.6-9.1,4.4-10,11.1c-0.6,4.2,0.4,8,2.3,10.5c1.2-0.3,2.5-0.5,3.9-0.6C153.6,726.2,152.8,723,153.3,719.5z"/>
			<g>
				<path class="st0" d="M151.4,728.6l-0.1-0.1c-2-2.7-2.8-6.6-2.3-10.6c0.9-6.9,5.5-11.9,10.2-11.3s7.8,6.7,6.9,13.6
					c-0.4,3.1-1.6,5.9-3.3,8l-0.1,0.1h-0.1c-0.8-0.1-1.6-0.3-2.5-0.3l-0.5-0.1l0.4-0.4c1.3-0.9,2.3-2.6,2.7-4.6
					c0.2-0.7,0.3-1.4,0.4-2.1c0.3-2.3,0.1-4.4-0.7-6.1s-1.8-2.7-3.2-2.8c-1.3-0.2-2.7,0.5-3.8,2c-1.1,1.5-2,3.5-2.3,5.7l0,0
					c-0.4,3.3,0.3,6.5,2,8.1l0.3,0.3l-0.4,0.1c-1.3,0.1-2.6,0.3-3.8,0.6L151.4,728.6z M158.6,706.9c-4.3-0.1-8.3,4.7-9.2,11.1
					c-0.5,3.9,0.3,7.7,2.1,10.2c1.1-0.3,2.2-0.4,3.3-0.6c-1.6-1.7-2.3-4.9-1.8-8.1c0.3-2.3,1.1-4.4,2.3-5.9c1.2-1.5,2.7-2.3,4.1-2.1
					c1.5,0.2,2.7,1.3,3.5,3.1c0.8,1.8,1,4,0.7,6.3c-0.1,0.7-0.3,1.5-0.4,2.1c-0.4,1.9-1.3,3.6-2.5,4.6c0.7,0.1,1.3,0.1,2,0.3
					c1.6-2,2.8-4.8,3.2-7.8c0.9-6.6-2.1-12.5-6.6-13.1C159,706.9,158.8,706.9,158.6,706.9z"/>
			</g>
			<path class="st5" d="M160.9,727.7C161,727.7,161,727.7,160.9,727.7c0.1,0,0.1-0.1,0.1-0.1C161,727.7,161,727.7,160.9,727.7z"/>
			<g>
				<path class="st0" d="M150,730c-0.3,0-0.4-0.1-0.5-0.4c-0.1-0.3,0.1-0.6,0.3-0.8c2.8-1,5.9-1.6,9-1.6c2.3,0,4.7,0.3,6.9,0.8
					c0.3,0.1,0.5,0.4,0.4,0.7c-0.1,0.3-0.4,0.5-0.7,0.4c-2.1-0.5-4.4-0.8-6.6-0.8c-3,0.1-5.9,0.6-8.7,1.5
					C150.2,730,150.1,730,150,730z"/>
			</g>
			<path class="st0" d="M160.4,715.4c-0.4,1.5-0.8,3.3-0.8,3.3c-0.1-0.2-0.8-1.9-1.4-3.3c-1.8,0.6-3.4,2.9-3.8,5.8
				c-0.4,2.8,0.5,5.4,2.1,6.5c0.4,0,0.8-0.1,1.1-0.1c0.9,0,1.7,0,2.6,0.1c0.1,0,0.1-0.1,0.1-0.1c1.2-1,2.1-2.7,2.8-4.7
				c0.1-0.2,0.1-0.4,0.1-0.6C163.6,719.1,162.4,716.3,160.4,715.4z"/>
		</g>
		<g>
			<g>
				<path class="st0" d="M126.4,776.8c-0.2,0-0.4-0.1-0.5-0.3c-0.2-0.3-0.1-0.6,0.1-0.8c0.1-0.1,2.3-1.7,2.4-5.2
					c0-0.3,0.3-0.6,0.6-0.6s0.6,0.3,0.6,0.6c-0.1,4-2.8,6-2.8,6.1C126.5,776.8,126.4,776.8,126.4,776.8z"/>
			</g>
			<g>
				<path class="st0" d="M160.2,771.3c-0.1,0-0.1,0-0.2,0c-0.1-0.1-3-0.9-4.1-4.3c-0.1-0.3,0.1-0.6,0.3-0.7c0.3-0.1,0.6,0.1,0.7,0.3
					c0.9,2.8,3.3,3.6,3.4,3.6c0.3,0.1,0.4,0.4,0.4,0.7C160.6,771.2,160.4,771.3,160.2,771.3z"/>
			</g>
			<path class="st0" d="M128.3,773.5c0.3,0.1,7.9,1.7,14.7,0.3c6.8-1.4,11.2-2.7,14.3-4.9c0.4,0.3,0.4,0.3,0.4,0.3
				s-5.1,11.2-14.8,12.1c-3,0-5.7,1.2-14.8-7.1C128.5,773.5,128.3,773.5,128.3,773.5z"/>
			<path class="st6" d="M133.3,775.4c-0.1,0-0.3,2.5,3.2,2.1c3.7-0.2,11.7-1.2,14.8-2.3c2.2-0.9,2.1-1.8,2-2.8
				C149.4,773.6,139.2,775.9,133.3,775.4z"/>
		</g>
		<path class="st0" d="M87,740.4c0.1-0.1,0.7-2.4,1.7-2.3c1,0.1,2,0.8,0.8,2.8c-1.3,2-5.1,10.9-12.1,14.7c-0.9,0.6-1.6,2.3-1.6,2.3
			s0.3,4.2-1.1,4.4c-1.3-0.1-2-1.5-1.7-2.7c-3.3,0.6-5,0.5-5.9-0.9c-1-1.4,1.1-2.5,1.8-2.5c-2.8-2.2-3.1-4.2-2.1-4.8
			c0.8-0.5,3-0.4,4,1.5c0.1-1.5,1.6-3.8,3.2,1.5C75.3,754.6,80.2,754.8,87,740.4z"/>
		<g>
			<path class="st3" d="M180.9,743.2c0.6,5.4-3.3,10.4-8.8,11c-5.4,0.6-10.4-3.3-11-8.8c-0.6-5.4,3.3-10.4,8.8-11
				C175.4,733.7,180.3,737.7,180.9,743.2"/>
			<polygon class="st3" points="106.8,742.7 111.7,742.1 113.2,755.3 121.7,754.4 122.1,758.6 108.8,760.1 			"/>
			<path class="st3" d="M123.3,750.9l-1.1-9.9l4.9-0.6l1.1,9.7c0.3,2.5,1.7,3.6,3.7,3.3c2-0.2,3.1-1.5,2.8-4l-1.1-9.9l4.9-0.6
				l1.1,9.7c0.6,5.6-2.3,8.5-7.3,9C127.3,758.5,123.9,756.3,123.3,750.9"/>
			<polygon class="st3" points="140,738.9 145.1,738.4 150,744.7 153.4,737.4 158.6,736.8 160.5,754.3 155.7,754.9 154.6,744.9 
				150.9,752.2 150.8,752.2 145.6,745.9 146.7,755.9 142,756.4 			"/>
			<polygon class="st3" points="142.4,759.8 146.6,759.3 146.8,760.6 144,760.9 144.1,761.7 146.6,761.4 146.8,762.5 144.2,762.9 
				144.3,763.7 147.1,763.4 147.3,764.6 143,765.1 			"/>
			<polygon class="st3" points="147.8,759.2 149.2,759.1 151.6,761.6 151.3,758.8 152.8,758.7 153.3,763.9 152.1,764.1 149.5,761.4 
				149.8,764.3 148.3,764.5 			"/>
			<polygon class="st3" points="154,758.5 158.2,758.1 158.4,759.3 155.5,759.6 155.7,760.4 158.2,760.1 158.3,761.3 155.8,761.5 
				155.8,762.4 158.7,762 158.8,763.3 154.6,763.8 			"/>
			<path class="st3" d="M159.2,757.9l2.5-0.3c0.8-0.1,1.4,0.1,1.8,0.4c0.3,0.3,0.6,0.6,0.6,1.2l0,0c0.1,0.8-0.3,1.4-0.9,1.7l1.5,1.7
				l-1.7,0.2l-1.3-1.5l0,0l-0.6,0.1l0.2,1.6l-1.5,0.2L159.2,757.9z M161.9,760.2c0.5-0.1,0.8-0.3,0.7-0.7l0,0
				c-0.1-0.4-0.4-0.6-0.9-0.5l-0.9,0.1l0.1,1.3L161.9,760.2z"/>
			<path class="st3" d="M164.8,760L164.8,760c-0.2-1.6,0.9-2.9,2.5-3.1c0.9-0.1,1.6,0.1,2.2,0.5l-0.8,1.1c-0.4-0.3-0.8-0.4-1.3-0.4
				c-0.8,0.1-1.3,0.8-1.2,1.6l0,0c0.1,0.8,0.8,1.4,1.6,1.3c0.4-0.1,0.6-0.1,0.8-0.3l-0.1-0.6l-1,0.1l-0.1-1.1l2.4-0.3l0.3,2.3
				c-0.5,0.5-1.3,0.9-2.2,1.1C166.3,762.5,165,761.6,164.8,760"/>
			<polygon class="st3" points="172.3,759.8 169.9,756.7 171.6,756.5 172.8,758.4 173.7,756.3 175.4,756.1 173.7,759.6 174,761.6 
				172.5,761.8 			"/>
		</g>
		<path class="st12" d="M114.3,715c0,0-7.5,1.3-10-0.6c-2.6-2.1-10.4-0.4-11.9,3.7c0,0-0.1,0-0.3-0.1c-0.9,1.6-1.8,3.4-2.5,5.2
			c3.2-0.9,6.8-1.6,9-0.9c5.1,1.7,62.7-3.4,85.9,2c-1.9-5.4-4.8-10.3-8.5-14.5C156.5,711.6,114.3,715,114.3,715z"/>
		<path class="st13" d="M91.8,719.4c0,0-4.5-0.8-5.6-4c-1.2-3.2-2.2-36.9,29-43c4.4,1.3,6.6,0.4,7.8-0.9c1.4-1.3,6.2-1.1,8,0.4
			c2,1.3,5.4-0.2,5.9-1.1c0.6-0.8,4.8-0.6,5.7,0.6c0.8,1.1,4.2,2.3,5,1.5c0.8-0.8,22.7,3,25.4,25.5c3.6,4.4,5.6,6.6,8.7,6.8
			c3.2,0.2,3.8,4.2,1.6,5.1c-9.2,1.1-70,6.1-70,6.1s-7.3,1.3-9.9-0.6C101,713.7,93.2,715.4,91.8,719.4z"/>
		<path class="st14" d="M147.9,672.7c-0.1,0-0.2,0.1-0.3,0.1c-0.8,0.8-4.2-0.4-5-1.5c0,0,3.3,6.4,3.9,12.2c0.8,1,3.2,1.8,3.7,0
			C151,681.7,148.5,673.8,147.9,672.7z"/>
		<path class="st14" d="M136.8,670.9c-0.9,0.9-4,2.2-5.8,0.9c0,0,5.4,7.8,5.9,11.4c0.4,2.3,5.4,1.2,4.8-0.6
			C141.1,680.8,138.6,672.2,136.8,670.9z"/>
		<path class="st14" d="M123.3,671.2c-0.1,0.1-0.2,0.1-0.3,0.2c-1.2,1.3-3.3,2.3-7.8,0.9c0,0,8,9.3,8.3,11.2c0.3,1.8,5,1.7,4.9-0.5
			C128.2,680.9,126.7,672.7,123.3,671.2z"/>
	</g>
</g>
<g>
	
		<linearGradient id="SVGID_2_" gradientUnits="userSpaceOnUse" x1="1050.379" y1="2051.1833" x2="1139.4401" y2="2051.1833" gradientTransform="matrix(0.7071 -0.7071 -0.7071 -0.7071 1060.5265 2871.8726)">
		<stop  offset="8.430325e-03" style="stop-color:#000000;stop-opacity:0.3"/>
		<stop  offset="0.8192" style="stop-color:#000000;stop-opacity:0"/>
	</linearGradient>
	<polygon class="st15" points="441.1,641.1 441.1,653.5 327.6,653.5 327.6,641.1 	"/>
	<path class="st2" d="M337.5,631.3c0,0,1.9-0.4,2.6,1.4c0.8,1.8,1.6,7.8,1.6,7.8s1.6,0.8,0.7,2.2c-1,1.4-4,4-4.9,7.2
		c-0.6,1.6-4.6,4.7-13.1,3.1c-3.8-0.8-5.6-2.3-5.4-3.3c0.1-1.2,0-2.1,0.6-2.4c0.5-1.3,1.1-3.6,3.4-5.5c2.3-1.9,6-5.3,6.2-7.2
		C329.8,633.5,331.8,631.3,337.5,631.3z"/>
	<path class="st0" d="M319.6,647.3c-0.6,0.4-0.5,1.1-0.6,2.4c-0.3,1.1,1.6,2.6,5.4,3.3c8.6,1.6,12.5-1.5,13.1-3.1
		c0.9-3.2,4-5.8,4.9-7.2c1-1.5-0.7-2.2-0.7-2.2l-4.2,5.5c0,0-1.2,2.5-2.7,2.8C333.6,649.1,323.5,651.3,319.6,647.3z"/>
	<path class="st2" d="M391.4,630.5c0,0,1.9-0.4,2.6,1.4c0.8,1.8,1.6,7.8,1.6,7.8s1.6,0.8,0.7,2.2c-1,1.4-4,4-4.9,7.2
		c-0.6,1.6-4.6,4.7-13.1,3.1c-3.8-0.8-5.6-2.3-5.4-3.3c0.1-1.2,0-2.1,0.6-2.4c0.5-1.3,1.1-3.6,3.4-5.5c2.3-1.9,6-5.3,6.2-7.2
		C383.7,632.8,385.7,630.6,391.4,630.5z"/>
	<path class="st0" d="M383.1,593.4c0.4,0.5,0.1,16.3-0.6,22.8c3.2,5.2,7.1,7.3,9,15.6c-0.6,1-3,1.2-4.5,0.6
		c-1.5-0.7-7.2-8.6-8.4-9.9c-1.2-1.5-5-4.5-4.9-6.6c0.5-2.8-0.5-19.2,0-19.3C374.2,596.3,383.1,593.4,383.1,593.4z"/>
	<path class="st0" d="M348.2,597c-0.2,0.4-8.4,17.6-12.8,19.7c0.6,3.4,1.9,10.5,2.2,16.1c-1,2-3.6,1.9-5.1,0.8
		c-1-1.6-4.3-12.3-4.2-13.4c0-2-0.4-6.4,1-8.6c1.8-2.4,10.7-17.5,10.7-17.5L348.2,597z"/>
	<path class="st0" d="M310.6,539.6c0.2,0-7.7,10.5-13.5,10c-0.7-0.2-0.4-0.2-0.8-0.4c-1.3-0.8-5.4-1.8-3.3-2.7
		c-1.7-2.3-2.6-2.6-3.4-1.9c-0.9,0.8-2,3,0.8,5.4c-2.2,0.3-3.2,1.6-2.6,2.4c0.7,0.9,2.2,2.2,6.2,1.7c-0.1,1.8-0.2,3.3,0.9,3.4
		c1.1,0,2-1.9,1.9-3.4c0.5-1.5,1.9-3.3,2.9-3.5c1.1-0.2,9.4-4,10.8-7.1C311.7,540.7,310.6,539.6,310.6,539.6z"/>
	
		<ellipse transform="matrix(8.637068e-02 -0.9963 0.9963 8.637068e-02 -218.6488 863.6876)" class="st2" cx="361.6" cy="551.1" rx="50.2" ry="53.5"/>
	<path class="st1" d="M409.1,555.1c2.3-27.1-17.2-51-43.8-54.2c0.6,0,1.1,0,1.7,0.1c29.3,2.5,51.1,27,48.7,54.7
		c-2.4,27.6-28.1,48-57.3,45.4c-1.1-0.1-2.2-0.2-3.3-0.4C382.6,603.2,406.7,582.7,409.1,555.1z"/>
	<path class="st5" d="M367.5,538.5L367.5,538.5c0,0-0.1,0-0.1-0.1C367.4,538.4,367.5,538.4,367.5,538.5z"/>
	<g>
		<path class="st4" d="M370.1,539c0,0,2.9,0.6,3.1,0.6c0.1,0,2.3,0.8,2.5,0.6s3-3.8,3-3.8l1-10.9l-4.2-4.1l-3.6-2.3l-2.8,0.7
			l-3.1,1.9l-1.8,5.7l0.2,4.4l0.8,5.6l1.1,1.7L370.1,539z"/>
		<path class="st3" d="M377,530.3c-0.1-5.3-2.8-9.5-5.9-9.5c-3.2,0-5.6,4.4-5.5,9.7c0,0.8,0.1,1.6,0.2,2.3c0.2,2.4,1.1,4.4,2.5,5.5
			c0,0,0,0,0.1,0.1c-1,0-1.9,0-2.9,0c-1.6-2.4-2.6-5.6-2.6-9.2c-0.1-7.6,3.9-13.8,9.1-13.9c5.2-0.1,9.5,6,9.7,13.5
			c0.1,4.6-1.4,8.8-3.8,11.3c-1.3-0.5-2.7-0.9-4.2-1.1C375.7,537.7,377.1,534.3,377,530.3z"/>
		<path class="st0" d="M377.8,540.5c-1.3-0.5-2.7-0.9-4.1-1.1l-0.5-0.1l0.4-0.3c2-1.5,3.3-4.9,3.2-8.7l0,0c0-2.5-0.7-4.9-1.8-6.6
			c-1.1-1.7-2.5-2.6-3.9-2.6c-1.4,0-2.8,1-3.8,2.8c-1.1,1.8-1.6,4.2-1.5,6.7c0,0.8,0.1,1.6,0.2,2.3c0.2,2.2,1.1,4.3,2.4,5.4l0.5,0.5
			h-0.5c-1,0-1.9,0-2.8,0h-0.1l0-0.1c-1.7-2.5-2.6-5.8-2.7-9.3c-0.1-7.7,4-14.1,9.3-14.2c5.3-0.1,9.8,6.1,9.9,13.8
			c0.1,4.5-1.3,8.8-3.8,11.5l-0.1,0.1H377.8z M372,515.7c-5.1,0.1-9.1,6.3-8.9,13.7c0,3.3,1,6.5,2.5,9c0.7,0,1.4,0,2.2,0
			c-1.2-1.2-2.1-3.2-2.2-5.4c-0.1-0.8-0.2-1.6-0.2-2.4c0-2.6,0.5-5.1,1.6-6.9c1.1-1.9,2.6-3,4.2-3c1.6,0,3.2,1,4.3,2.8
			c1.1,1.8,1.8,4.3,1.9,6.8c0.1,3.7-1.1,7-3,8.8c1.2,0.3,2.4,0.6,3.6,1.1c2.3-2.6,3.7-6.7,3.6-11.1c-0.1-7.1-4-12.9-8.8-13.3
			C372.4,515.7,372.2,515.7,372,515.7z"/>
		<path class="st0" d="M379.3,542.3c0.2,0,0.5-0.1,0.6-0.3c0.1-0.3,0-0.7-0.3-0.9c-3-1.5-6.3-2.4-9.8-2.9c-2.6-0.3-5.2-0.3-7.7,0
			c-0.3,0-0.6,0.4-0.6,0.7c0,0.3,0.4,0.6,0.7,0.6c2.4-0.3,4.9-0.3,7.4,0c3.4,0.4,6.6,1.3,9.4,2.8
			C379.1,542.3,379.2,542.3,379.3,542.3z"/>
		<path class="st0" d="M371.1,525c0.2,1.7,0.4,3.7,0.4,3.7c0.1-0.2,1.1-2,2-3.5c2,0.9,3.4,3.6,3.5,6.9c0,3.2-1.2,5.8-3.1,6.9
			c-0.4,0-0.8-0.1-1.2-0.2c-1-0.1-1.9-0.2-2.9-0.2c0,0-0.1-0.1-0.1-0.1c-1.2-1.3-2.1-3.3-2.5-5.5c0-0.2,0-0.4,0-0.7
			C367.1,528.6,368.8,525.6,371.1,525z"/>
	</g>
	<path class="st4" d="M343,537.2c0,0,2.9,0.2,3,0.2s2.3,0.5,2.5,0.3c0.1-0.2,2.4-4,2.4-4l-0.2-10.5l-4.4-3.4l-3.7-1.9l-2.6,0.9
		l-2.7,2.1l-1.1,5.6l0.6,4.2l1.4,5.3l1.2,1.5L343,537.2z"/>
	<path class="st3" d="M348.7,528.2c-0.7-5-3.6-8.8-6.7-8.4c-3,0.4-4.9,4.8-4.3,9.9c0.1,0.8,0.2,1.5,0.5,2.2c0.4,2.2,1.6,4.1,3,5
		c0,0,0.1,0,0.1,0.1c-0.9,0.1-1.8,0.2-2.7,0.3c-1.8-2.2-3.1-5.1-3.5-8.5c-1-7.2,2.3-13.6,7.3-14.3s9.8,4.7,10.7,11.9
		c0.6,4.4-0.4,8.6-2.4,11.2c-1.3-0.3-2.7-0.5-4.1-0.7C348.3,535.3,349.2,531.9,348.7,528.2z"/>
	<path class="st0" d="M350.5,537.9c-1.3-0.3-2.7-0.5-4.1-0.7l-0.4,0l0.3-0.3c1.8-1.7,2.6-5.1,2.2-8.7l0,0c-0.3-2.4-1.2-4.6-2.4-6.2
		c-1.2-1.5-2.6-2.3-4-2.1c-1.4,0.2-2.6,1.3-3.3,3.1c-0.8,1.8-1.1,4.2-0.7,6.6c0.1,0.8,0.2,1.5,0.5,2.2c0.4,2.1,1.5,4,2.9,4.9
		l0.5,0.4l-0.5,0c-0.9,0.1-1.8,0.2-2.7,0.3h-0.1l-0.1-0.1c-1.9-2.2-3.1-5.3-3.5-8.6c-1-7.3,2.3-13.9,7.4-14.5
		c5.1-0.7,9.9,4.8,11,12.1c0.6,4.3-0.3,8.6-2.4,11.4l-0.1,0.1L350.5,537.9z M342.4,514.7c-4.8,0.6-8,6.9-7.1,14.1
		c0.4,3.2,1.6,6.1,3.4,8.3c0.7-0.1,1.4-0.2,2.1-0.3c-1.3-1.1-2.3-2.9-2.7-4.9c-0.2-0.7-0.4-1.5-0.5-2.2c-0.3-2.5,0-4.9,0.8-6.8
		c0.9-1.9,2.2-3.1,3.7-3.3c1.5-0.2,3.1,0.6,4.4,2.2c1.3,1.6,2.2,3.9,2.5,6.4c0.5,3.5-0.3,6.8-2,8.7c1.2,0.1,2.4,0.3,3.5,0.6
		c2-2.7,2.8-6.8,2.3-11c-0.9-6.8-5.2-11.9-9.8-11.8C342.8,514.7,342.6,514.7,342.4,514.7z"/>
	<path class="st5" d="M340.5,537C340.5,537,340.4,537,340.5,537c0,0-0.1,0-0.1-0.1C340.4,537,340.4,537,340.5,537z"/>
	<path class="st0" d="M352.1,539.4c0.2,0,0.5-0.1,0.6-0.4c0.1-0.3,0-0.7-0.4-0.8c-3-1.1-6.3-1.7-9.7-1.7c-2.5,0-5,0.2-7.4,0.8
		c-0.3,0.1-0.5,0.4-0.4,0.8c0.1,0.3,0.4,0.5,0.8,0.4c2.2-0.6,4.6-0.8,7.1-0.8c3.3,0,6.4,0.6,9.3,1.6
		C352,539.4,352.1,539.4,352.1,539.4z"/>
	<path class="st0" d="M342.6,523.9c0.4,1.6,0.8,3.5,0.8,3.5c0.1-0.2,0.9-2.1,1.5-3.6c2,0.7,3.7,3.1,4.1,6.2c0.4,3-0.5,5.7-2.2,6.9
		c-0.4,0-0.8,0-1.2,0c-1,0-1.9,0-2.8,0.1c0,0-0.1,0-0.1-0.1c-1.2-1.1-2.3-2.9-3-5c0-0.2-0.1-0.4-0.1-0.6
		C339.2,527.8,340.4,524.7,342.6,523.9z"/>
	<path class="st0" d="M345.7,587c0.2,0,5.8-1.3,11-0.4c5.1,1,8.3,1.9,10.7,3.5c0.3-0.2,0.3-0.2,0.3-0.2s-3.9-8.3-11.1-8.8
		c-2.2,0-4.3-0.9-11,5.4C345.8,586.9,345.7,587,345.7,587z"/>
	<g>
		<path class="st3" d="M399.5,557.5c-0.4,5.7-5.4,10.1-11.1,9.7c-5.7-0.4-10.1-5.4-9.7-11.1s5.4-10.1,11.1-9.7
			C395.5,546.9,399.9,551.8,399.5,557.5"/>
		<polygon class="st3" points="323.1,543.3 328.2,543.7 327.3,557.6 336.2,558.2 335.9,562.6 321.8,561.7 		"/>
		<path class="st3" d="M337.8,554.6l0.7-10.3l5.2,0.3l-0.7,10.2c-0.2,2.7,1.1,4,3.2,4.2c2.1,0.1,3.5-1,3.6-3.6l0.7-10.4l5.2,0.3
			l-0.7,10.2c-0.4,5.9-4,8.3-9.2,8C340.5,563.3,337.4,560.4,337.8,554.6"/>
		<polygon class="st3" points="358,545.6 363.4,545.9 367.3,553.4 372.2,546.5 377.6,546.9 376.4,565.3 371.2,565 372,554.4 
			366.8,561.3 366.7,561.3 362.4,553.8 361.8,564.4 356.8,564 		"/>
		<polygon class="st3" points="356.6,567.6 361.1,567.9 361,569.2 358,569 358,569.9 360.6,570 360.6,571.2 357.9,571.1 357.9,572 
			360.8,572.1 360.7,573.4 356.2,573.2 		"/>
		<polygon class="st3" points="362.3,568 363.7,568.1 365.8,571.1 366,568.2 367.5,568.3 367.1,573.9 365.8,573.8 363.6,570.6 
			363.4,573.6 361.9,573.5 		"/>
		<polygon class="st3" points="368.8,568.4 373.3,568.7 373.2,570 370.2,569.8 370.2,570.7 372.8,570.9 372.8,572.1 370.1,571.9 
			370,572.8 373,573 372.9,574.3 368.4,574 		"/>
		<path class="st3" d="M374.3,568.8l2.6,0.2c0.9,0,1.4,0.3,1.8,0.7c0.3,0.3,0.4,0.8,0.4,1.3l0,0c0,0.9-0.5,1.4-1.2,1.6l1.2,2
			l-1.8,0.1l-1-1.5l0,0l-0.7-0.3l-0.1,1.6l-1.5-0.1L374.3,568.8z M376.7,571.6c0.5,0,0.9-0.2,0.9-0.6l0,0c0-0.4-0.3-0.7-0.8-0.7
			l-1,0l-0.1,1.3L376.7,571.6z"/>
		<path class="st3" d="M379.4,571.5v0.4c0-1.6,1.6-2.8,3.3-2.7c1,0,1.7,0.4,2.2,1l-1,1c-0.4-0.4-1.2-0.6-1.8-0.6c-0.8,0-2,0.6-2,1.4
			l0,0c0,0.9,1,1.6,1.9,1.6c0.4,0,0.9,0,1.1-0.2l0.1-0.7l-1.1-0.1l0.1-1.1l2.6,0.2l-0.1,2.5c-0.6,0.4-1.4,0.8-2.4,0.7
			c-1.7-0.1-3-1.7-3-3.3"/>
		<polygon class="st3" points="387.5,573.2 385.5,569.5 387.3,569.7 388.3,571.7 389.6,569.8 391.3,569.9 389,573.2 388.8,575.3 
			387.3,575.2 		"/>
	</g>
	<path class="st0" d="M413.7,560.8c-0.1-0.1-1.9-1.9-1.3-2.8c0.6-0.9,1.8-1.4,3,0.8c1.2,2.2,7.6,10.5,7.5,19
		c0.1,1.2,1.3,2.7,1.3,2.7s4.1,2,3.5,3.3c-0.7,1.2-2.4,1.1-3.3,0.2c-1.2,3.4-2.2,4.9-4,5.1c-1.8,0.2-1.8-2.3-1.4-3
		c-3.5,1.5-5.5,0.7-5.5-0.5c0-1.1,1.1-3,3.5-3c-1.3-0.9-2.7-3.5,3.1-2.2C420.9,579.1,423.7,574.6,413.7,560.8z"/>
	<path class="st0" d="M373.5,646.5c-0.6,0.4-0.5,1.1-0.6,2.4c-0.3,1.1,1.6,2.6,5.4,3.3c8.6,1.6,12.5-1.5,13.1-3.1
		c0.9-3.2,4-5.8,4.9-7.2c1-1.5-0.7-2.2-0.7-2.2l-4.2,5.5c0,0-1.2,2.5-2.7,2.8C387.4,648.4,377.4,650.5,373.5,646.5z"/>
	<circle class="st3" cx="370.1" cy="530.9" r="1"/>
	<circle class="st3" cx="342.2" cy="529.7" r="1"/>
	<circle class="st3" cx="342.3" cy="532.3" r="0.7"/>
	<g>
		<path class="st0" d="M318,490c0-14.1-11.2-25.5-25.3-25.5s-25.4,11.4-25.4,25.5c0,13.2,10.5,24.1,23,25.3v91.3
			c0,1.4,0.8,2.6,2.2,2.6s2.2-1.1,2.2-2.6v-91.3C308.1,514,318,503.1,318,490z"/>
		<circle class="st3" cx="293.2" cy="490" r="21.9"/>
	</g>
	<path class="st13" d="M282.2,501c0.7,0.7,1.5,1,2.4,1c0.9,0,1.7-0.3,2.4-1l6.2-6.2l6.2,6.2c0.7,0.7,1.5,1,2.4,1
		c0.9,0,1.7-0.3,2.4-1c1.3-1.3,1.3-3.4,0-4.7l-6.2-6.2l6.2-6.2c1.3-1.3,1.3-3.4,0-4.7c-1.3-1.3-3.4-1.3-4.7,0l-6.2,6.2l-6.2-6.2
		c-1.3-1.3-3.4-1.3-4.7,0c-1.3,1.3-1.3,3.4,0,4.7l6.2,6.2l-6.2,6.2C280.9,497.7,280.9,499.8,282.2,501z"/>
	<path class="st0" d="M380.2,517.6c0.2-0.2,0.4-0.5,0.3-0.9c-0.1-0.5-0.5-0.8-1.1-0.8c-0.2,0-4.7,0.7-8.7-3.3
		c-0.3-0.3-0.9-0.3-1.3,0c-0.3,0.3-0.3,0.9,0,1.3c4.7,4.6,10,3.8,10.2,3.8C379.9,517.8,380.1,517.7,380.2,517.6z"/>
	<path class="st0" d="M335.7,516.2c-0.2-0.2-0.4-0.5-0.3-0.9c0.1-0.5,0.5-0.8,1.1-0.8c0.2,0,4.7,0.7,8.7-3.3c0.3-0.3,0.9-0.3,1.3,0
		c0.3,0.3,0.3,0.9,0,1.3c-4.7,4.6-10,3.8-10.2,3.8C336,516.3,335.8,516.3,335.7,516.2z"/>
	
		<ellipse transform="matrix(0.9677 -0.2521 0.2521 0.9677 -130.9455 91.6126)" class="st0" cx="292.1" cy="556.8" rx="3.3" ry="1.5"/>
	
		<linearGradient id="SVGID_3_" gradientUnits="userSpaceOnUse" x1="282.5428" y1="386.1661" x2="315.0601" y2="386.1661" gradientTransform="matrix(1 0 0 -1 0 882)">
		<stop  offset="8.430325e-03" style="stop-color:#000000;stop-opacity:0.3"/>
		<stop  offset="1" style="stop-color:#000000;stop-opacity:0"/>
	</linearGradient>
	<path class="st16" d="M315.1,490.4l-10.6-10.6c0.8,1.3,0.7,3-0.5,4.2l-6.2,6.2l6.2,6.2c1.3,1.3,1.3,3.4,0,4.7c-0.7,0.7-1.5,1-2.4,1
		c-0.9,0-1.7-0.3-2.4-1l-6.2-6.2l-6.2,6.2c-0.7,0.7-1.5,1-2.4,1c-0.7,0-1.4-0.2-2-0.7l10.4,10.4c0.1,0,0.1,0,0.2,0
		C305.1,511.8,314.8,502.3,315.1,490.4z"/>
</g>
<g>
	
		<linearGradient id="SVGID_4_" gradientUnits="userSpaceOnUse" x1="1332.8732" y1="2315.4521" x2="1452.7925" y2="2315.4521" gradientTransform="matrix(0.7071 -0.7071 -0.7071 -0.7071 1060.5265 2871.8726)">
		<stop  offset="8.430325e-03" style="stop-color:#000000;stop-opacity:0.3"/>
		<stop  offset="0.8192" style="stop-color:#000000;stop-opacity:0"/>
	</linearGradient>
	<polygon class="st17" points="484.6,241.4 484.6,258.1 331.7,258.1 331.7,241.4 	"/>
	<path class="st2" d="M395.8,229.4c0,0-2.5-0.5-3.5,1.9c-1,2.3-2.2,10.4-2.2,10.4s-2.1,1-0.9,3c1.2,1.9,5.4,5.4,6.5,9.7
		c0.8,2.1,6.1,6.3,17.5,4.1c5.1-1,7.5-3.1,7.2-4.4c-0.2-1.7-0.1-2.7-0.8-3.2c-0.7-1.8-1.5-4.8-4.5-7.2c-3-2.6-7.9-7.1-8.3-9.5
		C406,232.5,403.3,229.5,395.8,229.4z"/>
	<path class="st0" d="M419.5,250.7c0.8,0.5,0.6,1.6,0.8,3.2c0.4,1.4-2.1,3.5-7.2,4.4c-11.4,2.1-16.7-2-17.5-4.1
		c-1.2-4.3-5.3-7.7-6.5-9.7c-1.2-2,0.9-3,0.9-3l5.5,7.3c0,0,1.7,3.3,3.5,3.7C401.1,253.1,414.5,256.1,419.5,250.7z"/>
	<path class="st2" d="M324,228.4c0,0-2.5-0.5-3.5,1.9c-1,2.3-2.2,10.4-2.2,10.4s-2.1,1-0.9,3c1.2,1.9,5.4,5.4,6.5,9.7
		c0.8,2.1,6.1,6.3,17.5,4.1c5.1-1,7.5-3.1,7.2-4.4c-0.2-1.7-0.1-2.7-0.8-3.2c-0.7-1.8-1.5-4.8-4.5-7.2c-3-2.6-7.9-7.1-8.3-9.5
		C334.4,231.5,331.7,228.5,324,228.4z"/>
	<path class="st0" d="M335.1,179.1c-0.5,0.6-0.2,21.6,0.8,30.2c-4.3,6.9-9.5,9.7-11.9,20.8c0.8,1.3,3.9,1.6,6,0.8
		c2-1,9.6-11.5,11.2-13.2c1.6-1.9,6.6-6.1,6.5-8.8c-0.6-3.7,0.6-25.6,0-25.7S335.1,179.1,335.1,179.1z"/>
	<path class="st0" d="M381.6,183.8c0.3,0.5,11.1,23.4,17,26.2c-0.9,4.6-2.5,14-3,21.4c1.3,2.6,4.8,2.5,6.7,1
		c1.3-2.1,5.7-16.4,5.6-17.8c-0.1-2.6,0.5-8.5-1.2-11.5c-2.4-3.3-14.2-23.2-14.2-23.2L381.6,183.8z"/>
	<path class="st0" d="M431.6,107.6c-0.3,0.1,10.3,13.9,18,13.3c3.8-1.5,2.9-1.4,5.5-4.1c2.3-3.1,2.4,0.3,4.4-0.5
		c1.2,1,3,3.6-0.9,5.2c2.9,0.4,4.3,2.1,3.4,3.3c-1,1.2-2.9,2.9-8.2,2.3c0.2,2.3,0.3,4.4-1.2,4.5c-1.5,0.1-2.6-2.5-2.4-4.5
		c-0.6-1.9-2.6-4.4-3.8-4.6c-1.4-0.3-12.5-5.4-14.4-9.4C430,108.9,431.6,107.6,431.6,107.6z"/>
	
		<ellipse transform="matrix(0.9963 -8.636936e-02 8.636936e-02 0.9963 -9.2391 31.8818)" class="st2" cx="363.8" cy="122.7" rx="71.2" ry="66.8"/>
	<path class="st1" d="M300.5,128.2c-3.1-36,22.8-67.8,58.3-72c-0.8,0.1-1.5,0.1-2.3,0.2c-39,3.4-68,35.9-64.8,72.7
		c3.2,36.8,37.3,63.8,76.3,60.4c1.5-0.2,2.9-0.3,4.4-0.5C335.8,192.1,303.7,164.9,300.5,128.2z"/>
	<g>
		<path class="st3" d="M422.2,119.4c0.9,7.6-4.6,14.4-12.2,15.3c-7.6,0.9-14.4-4.6-15.3-12.2c-0.9-7.6,4.6-14.4,12.2-15.3
			C414.5,106.3,421.3,111.7,422.2,119.4"/>
		<polygon class="st3" points="318.7,118.7 325.5,118 327.6,136.4 339.4,135.1 340.1,141 321.5,143.1 		"/>
		<path class="st3" d="M340.7,130.1l-1.6-13.7l6.9-0.8l1.6,13.6c0.4,3.5,2.3,5,5.1,4.7c2.7-0.3,4.3-2.1,3.9-5.5l-1.6-13.7l6.9-0.8
			l1.6,13.6c0.9,7.9-3.2,11.8-10.1,12.6C346.3,140.8,341.6,137.7,340.7,130.1"/>
		<polygon class="st3" points="365,113.5 372.1,112.7 379,121.5 383.7,111.3 390.9,110.5 393.6,134.9 386.9,135.7 385.4,121.7 
			380.2,132 380.1,132 372.8,123.2 374.3,137.1 367.7,137.9 		"/>
		<polygon class="st3" points="368.4,142.7 374.2,142 374.5,143.7 370.6,144.1 370.7,145.2 374.2,144.8 374.4,146.5 370.9,146.9 
			371,148 374.9,147.6 375.2,149.3 369.2,150 		"/>
		<polygon class="st3" points="375.9,141.8 377.7,141.6 381.2,145.1 380.8,141.3 382.7,141 383.6,148.3 381.8,148.6 378.2,144.8 
			378.7,148.9 376.7,149.1 		"/>
		<polygon class="st3" points="384.5,140.8 390.5,140.2 390.6,141.9 386.7,142.3 386.9,143.4 390.4,143 390.5,144.6 387,145 
			387.2,146.2 391.1,145.8 391.3,147.5 385.3,148.1 		"/>
		<path class="st3" d="M391.9,140l3.5-0.4c1.1-0.2,1.9,0.1,2.5,0.5c0.5,0.4,0.8,0.9,0.9,1.6l0,0c0.2,1.1-0.4,1.9-1.2,2.4l2,2.3
			l-2.3,0.2l-1.7-2l0,0l-0.9,0.1l0.2,2.3l-2,0.2L391.9,140z M395.6,143.1c0.7-0.1,1-0.5,1-1l0,0c-0.1-0.5-0.5-0.9-1.2-0.8l-1.3,0.2
			l0.2,1.8L395.6,143.1z"/>
		<path class="st3" d="M399.6,142.8L399.6,142.8c-0.2-2.2,1.2-4.1,3.5-4.3c1.3-0.2,2.3,0.2,3.1,0.7l-1,1.6c-0.5-0.4-1.1-0.5-1.9-0.5
			c-1.1,0.2-1.8,1.1-1.6,2.3l0,0c0.2,1.2,1.1,1.9,2.2,1.8c0.5-0.1,0.9-0.2,1.2-0.5L405,143l-1.5,0.2l-0.2-1.5l3.4-0.4l0.4,3.3
			c-0.7,0.7-1.7,1.3-3,1.5C401.8,146.5,399.9,145.1,399.6,142.8"/>
		<polygon class="st3" points="410,142.6 406.7,138.3 409,138.1 410.9,140.6 412,137.7 414.3,137.4 412,142.3 412.4,145.2 
			410.3,145.3 		"/>
	</g>
	<g>
		<path class="st4" d="M339.6,107.7c0,0-3.9,0.8-4.1,0.8s-3.1,1-3.4,0.8c-0.2-0.2-4-5.1-4-5.1l-1.2-14.5l5.6-5.4l4.8-3.1l3.7,0.9
			l4.1,2.5l2.3,7.6l-0.2,5.8l-1.1,7.5l-1.5,2.2L339.6,107.7z"/>
		<path class="st3" d="M330.4,96.1c0.2-7,3.7-12.7,7.9-12.5c4.2,0.1,7.6,5.8,7.4,12.9c0,1.1-0.2,2.1-0.3,3.1
			c-0.2,3.2-1.6,5.8-3.3,7.4c-0.1,0.1-0.1,0.1-0.2,0.2c1.3,0,2.6,0,3.8,0.1c2.1-3.2,3.4-7.5,3.5-12.2c0.2-10.1-5.2-18.4-12.2-18.5
			c-6.9-0.2-12.7,7.9-12.9,18c-0.2,6.2,1.9,11.7,5,15c1.8-0.6,3.6-1.2,5.5-1.6C332.2,106,330.4,101.4,330.4,96.1z"/>
		<g>
			<path class="st0" d="M329.2,109.8l-0.2-0.2c-3.4-3.6-5.2-9.3-5.1-15.3c0.2-10.2,6.2-18.5,13.2-18.3c7.1,0.2,12.6,8.6,12.4,18.8
				c-0.1,4.6-1.3,9-3.6,12.4l-0.1,0.2h-0.2c-1.2-0.1-2.5-0.1-3.7-0.1h-0.7l0.6-0.6c1.8-1.6,3-4.2,3.2-7.2c0.2-1,0.3-2.1,0.3-3.1
				c0.1-3.4-0.6-6.5-2-8.9c-1.3-2.3-3.1-3.7-5.1-3.7c-1.9-0.1-3.8,1.2-5.2,3.5c-1.5,2.3-2.3,5.5-2.4,8.8l0,0
				c-0.1,5,1.6,9.5,4.3,11.5l0.5,0.4l-0.6,0.2c-1.9,0.4-3.7,0.9-5.5,1.6H329.2z M336.3,76.7c-6.3,0.5-11.5,8.3-11.7,17.7
				c-0.2,5.8,1.7,11.3,4.8,14.7c1.6-0.5,3.2-1,4.8-1.4c-2.6-2.3-4.1-6.8-4.1-11.6c0.1-3.4,0.9-6.7,2.5-9.1c1.6-2.5,3.6-3.8,5.8-3.7
				c2.2,0.1,4.1,1.5,5.5,4c1.4,2.5,2.2,5.8,2.1,9.2c0,1.1-0.2,2.1-0.3,3.2c-0.2,2.9-1.3,5.5-3,7.2c1,0,1.9,0,3,0.1
				c2.1-3.3,3.3-7.5,3.4-11.9c0.2-9.9-5.1-18.1-11.8-18.2C336.8,76.7,336.6,76.7,336.3,76.7z"/>
		</g>
		<path class="st5" d="M343.1,107L343.1,107c0.1-0.1,0.2-0.1,0.2-0.2C343.2,107,343.1,107,343.1,107z"/>
		<g>
			<path class="st0" d="M327.5,112.1c-0.3,0-0.7-0.2-0.9-0.5c-0.2-0.4,0-0.9,0.4-1.2c4-1.9,8.3-3.3,13-3.8c3.5-0.4,6.9-0.4,10.3,0
				c0.5,0.1,0.8,0.5,0.7,0.9c-0.1,0.5-0.5,0.8-0.9,0.7c-3.2-0.4-6.5-0.4-9.8,0c-4.5,0.5-8.7,1.8-12.5,3.7
				C327.7,112.1,327.6,112.1,327.5,112.1z"/>
		</g>
		<path class="st0" d="M338.3,89c-0.3,2.3-0.6,5-0.6,5c-0.2-0.3-1.6-2.7-2.6-4.7c-2.6,1.2-4.6,4.8-4.7,9.1c-0.1,4.2,1.6,7.8,4.1,9.2
			c0.5-0.1,1.1-0.2,1.6-0.2c1.2-0.2,2.6-0.2,3.8-0.3c0.1-0.1,0.1-0.1,0.2-0.2c1.6-1.7,2.7-4.3,3.3-7.4c0-0.3,0.1-0.6,0.1-0.9
			C343.6,93.9,341.4,89.9,338.3,89z"/>
	</g>
	<g>
		<path class="st4" d="M389.4,103.4c0,0-3.8,0.3-4,0.3c-0.2,0-3.1,0.6-3.3,0.4c-0.2-0.3-3.3-5.3-3.3-5.3l0.3-14l5.8-4.5l4.9-2.5
			l3.4,1.2l3.7,2.8l1.4,7.5l-0.9,5.5l-1.8,7.1l-1.6,1.9L389.4,103.4z"/>
		<path class="st3" d="M381.9,91.4c0.9-6.7,4.8-11.7,8.9-11.2c4.1,0.5,6.5,6.4,5.7,13.1c-0.2,1-0.3,2-0.6,3c-0.5,3-2.1,5.5-3.9,6.7
			c-0.1,0.1-0.1,0.1-0.2,0.2c1.2,0.1,2.4,0.2,3.7,0.5c2.3-2.8,4.1-6.8,4.7-11.3c1.2-9.6-3-18.2-9.7-19c-6.6-0.9-12.9,6.2-14.3,15.8
			c-0.8,5.9,0.5,11.4,3.2,15c1.7-0.4,3.6-0.7,5.5-0.9C382.4,100.9,381.2,96.4,381.9,91.4z"/>
		<g>
			<path class="st0" d="M379.2,104.3l-0.1-0.2c-2.8-3.7-4-9.4-3.3-15.1c1.2-9.7,7.8-17,14.5-16.1c6.7,0.9,11.1,9.5,9.9,19.3
				c-0.5,4.4-2.3,8.5-4.7,11.5l-0.1,0.2h-0.2c-1.2-0.2-2.3-0.4-3.6-0.5l-0.7-0.1l0.7-0.5c1.9-1.2,3.3-3.7,3.8-6.5
				c0.3-0.9,0.5-1.9,0.6-3c0.4-3.2,0.1-6.3-1-8.7c-1-2.4-2.6-3.8-4.4-4.1c-1.9-0.2-3.7,0.8-5.4,2.8c-1.6,2.1-2.8,5-3.2,8.2l0,0
				c-0.6,4.8,0.5,9.3,2.9,11.5l0.5,0.4l-0.6,0.1c-1.9,0.2-3.7,0.5-5.4,0.9L379.2,104.3z M389.4,73.4c-6.1-0.2-11.8,6.6-13,15.7
				c-0.7,5.5,0.4,11,3,14.6c1.6-0.4,3.1-0.6,4.8-0.8c-2.2-2.4-3.2-6.9-2.6-11.5c0.5-3.3,1.6-6.3,3.4-8.4c1.7-2.2,3.8-3.3,5.8-3
				c2,0.2,3.8,1.8,4.9,4.4c1.1,2.5,1.5,5.7,1,9c-0.2,1-0.3,2-0.6,3c-0.5,2.7-1.9,5.1-3.6,6.5c0.9,0.1,1.9,0.2,2.8,0.4
				c2.3-2.9,3.9-6.8,4.5-11.1c1.2-9.4-3-17.8-9.4-18.7C390.1,73.5,389.7,73.5,389.4,73.4z"/>
		</g>
		<path class="st5" d="M392.8,103.1L392.8,103.1c0.1,0,0.2-0.1,0.2-0.2C392.9,103,392.9,103.1,392.8,103.1z"/>
		<g>
			<path class="st0" d="M377.3,106.3c-0.3,0-0.6-0.2-0.8-0.5c-0.2-0.4,0.1-0.9,0.5-1c4-1.5,8.3-2.3,12.9-2.3c3.4,0,6.7,0.3,9.8,1.1
				c0.5,0.1,0.7,0.5,0.6,1c-0.1,0.5-0.5,0.7-1,0.6c-3-0.7-6.2-1.1-9.4-1c-4.4,0.1-8.5,0.8-12.3,2.2
				C377.5,106.3,377.4,106.3,377.3,106.3z"/>
		</g>
		<path class="st0" d="M390.1,85.6c-0.5,2.1-1.1,4.7-1.1,4.7c-0.1-0.3-1.2-2.7-1.9-4.8c-2.6,0.9-4.9,4.1-5.5,8.3
			c-0.5,4,0.7,7.6,3,9.2c0.5,0,1.1-0.1,1.6-0.1c1.2,0,2.5,0,3.7,0.2c0.1,0,0.1-0.1,0.2-0.2c1.7-1.5,3.1-3.8,3.9-6.7
			c0.1-0.3,0.1-0.5,0.2-0.9C394.6,90.8,392.9,86.8,390.1,85.6z"/>
	</g>
	<g>
		<path class="st0" d="M355.4,167.1c0.4,0.2,9.3,3.7,17.5,2.3s13.6-2.8,17.5-5.9c0.5,0.5,0.5,0.5,0.5,0.5s-7,17-18.6,17.1
			c-3.5-0.4-6.9,1.2-17.1-12.9C355.5,167.2,355.4,167.1,355.4,167.1z"/>
	</g>
	<g>
		<path class="st18" d="M387.2,166.6C387.2,166.6,387.3,166.6,387.2,166.6"/>
		<path class="st3" d="M387.2,166.6c-3.6,1.8-8,2.9-14.3,3.9c-5.4,0.9-11-0.3-14.3-1.3c0,0-0.3,3,1.3,3.3c1.6,0.3,10.3,2.1,13.7,1.6
			c3.5-0.4,11-2.6,12.1-3.6C386.8,169.5,387.5,167.6,387.2,166.6z"/>
	</g>
	<path class="st0" d="M299.7,144.8c0.1-0.2,1.9-3,0.9-3.9c-1-1-2.6-1.5-3.7,1.7c-1,3.2-7.2,15.6-4.9,26.7c0.2,1.6-1,3.9-1,3.9
		s-4.8,3.6-3.7,5.2c1.2,1.4,3.5,0.9,4.4-0.6c2.5,4.2,4.1,5.8,6.5,5.6c2.4-0.2,1.7-3.4,1-4.2c5,1.1,7.5-0.5,7.1-2.1
		c-0.2-1.3-2.3-3.7-5.4-3c1.5-1.5,2.6-5.3-4.5-2C295,170.5,290.1,165.3,299.7,144.8z"/>
	<path class="st0" d="M347.9,249.7c0.8,0.5,0.6,1.6,0.8,3.2c0.4,1.4-2.1,3.5-7.2,4.4c-11.4,2.1-16.7-2-17.5-4.1
		c-1.2-4.3-5.3-7.7-6.5-9.7c-1.2-2,0.9-3,0.9-3l5.5,7.3c0,0,1.7,3.3,3.5,3.7C329.3,252.2,342.8,255,347.9,249.7z"/>
	<circle class="st3" cx="334.1" cy="97.8" r="1.8"/>
	<circle class="st3" cx="334.8" cy="101.7" r="0.7"/>
	<circle class="st3" cx="384.4" cy="92.9" r="1.8"/>
	<g>
		<path class="st0" d="M490.4,55.2c0-18.9-15.2-34.3-34.1-34.3S422,36.3,422,55.2c0,17.8,12.5,32.4,30.9,34.1v123
			c0,1.9,1.2,3.5,3,3.5c1.9,0,3-1.6,3-3.5v-123C477.6,87.6,490.4,73,490.4,55.2z"/>
		<circle class="st3" cx="456.9" cy="55.2" r="29.5"/>
	</g>
	<path class="st0" d="M325.1,73.6c-0.3-0.2-0.5-0.7-0.5-1.2c0.1-0.7,0.7-1.1,1.4-1c0.2,0.1,6.3,0.9,11.7-4.4c0.5-0.5,1.2-0.5,1.7,0
		c0.5,0.5,0.5,1.2,0,1.7c-6.3,6.2-13.5,5.1-13.8,5.1C325.5,73.8,325.3,73.8,325.1,73.6z"/>
	<path class="st0" d="M387.6,63.6c-0.1-0.4,0.2-0.9,0.5-1.1c0.5-0.4,1.3-0.2,1.7,0.3c0.2,0.2,3.8,5.1,11.4,5.1
		c0.7,0,1.2,0.5,1.2,1.2c0,0.7-0.5,1.2-1.2,1.2c-8.9-0.1-13.2-5.9-13.3-6.2C387.6,64,387.6,63.9,387.6,63.6z"/>
	
		<ellipse transform="matrix(0.9974 -7.251113e-02 7.251113e-02 0.9974 -8.2024 33.5099)" class="st0" cx="457.4" cy="129.7" rx="4.5" ry="2"/>
	<path class="st19" d="M471.7,39.4c-2.1-1.3-4.9-0.6-6.2,1.6l-12.7,21l-6.5-8c-1.6-1.9-4.4-2.2-6.4-0.6c-1.9,1.6-2.2,4.4-0.6,6.4
		l10.6,12.9c0.1,0.1,0.2,0.2,0.2,0.2l0,0c0.1,0.1,0.1,0.1,0.2,0.2l0,0c0.1,0.1,0.1,0.1,0.2,0.2l0.1,0.1l0.1,0.1l0.1,0.1l0,0
		c0.2,0.2,0.4,0.3,0.6,0.4l0,0c0.1,0,0.2,0.1,0.2,0.1h0.1c0.1,0,0.2,0.1,0.2,0.1h0.1c0.1,0,0.2,0.1,0.2,0.1c0.1,0,0.2,0,0.2,0.1
		c0.1,0,0.1,0,0.2,0s0.1,0,0.2,0h0.1c0.1,0,0.1,0,0.2,0s0.1,0,0.2,0s0.1,0,0.2,0c0.1,0,0.2,0,0.2,0h0.1c0.1,0,0.2,0,0.3,0
		s0.1,0,0.2,0c0.1,0,0.2,0,0.2,0c0.1,0,0.1,0,0.2,0c0.1,0,0.2,0,0.2-0.1c0.1,0,0.2,0,0.2-0.1c0.1,0,0.2,0,0.2-0.1
		c0.1,0,0.1,0,0.2-0.1c0.1,0,0.2-0.1,0.2-0.1c0.1,0,0.1,0,0.2-0.1c0.1-0.1,0.2-0.1,0.3-0.2c0,0,0,0,0.1,0c0.1-0.1,0.2-0.1,0.3-0.2
		c0,0,0.1,0,0.1-0.1c0.1-0.1,0.2-0.2,0.3-0.2l0,0l0,0c0.1,0,0.1-0.1,0.2-0.1l0.1-0.1l0.1-0.1l0.1-0.1l0.1-0.1
		c0.2-0.2,0.2-0.3,0.4-0.5l0,0c0.1-0.1,0.2-0.2,0.2-0.3l16-26.4C474.6,43.4,473.9,40.6,471.7,39.4z"/>
	
		<linearGradient id="SVGID_5_" gradientUnits="userSpaceOnUse" x1="450.3745" y1="819.4203" x2="486.3524" y2="819.4203" gradientTransform="matrix(1 0 0 -1 0 882)">
		<stop  offset="8.430325e-03" style="stop-color:#000000;stop-opacity:0.3"/>
		<stop  offset="1" style="stop-color:#000000;stop-opacity:0"/>
	</linearGradient>
	<path class="st20" d="M486.4,55.2c0-0.5,0-0.9,0-1.4l-13.2-13.2c1,1.4,1.2,3.4,0.2,4.9l-16,26.4c-0.1,0.1-0.2,0.2-0.2,0.3l0,0
		c-0.1,0.2-0.2,0.3-0.4,0.5l-0.1,0.1l-0.1,0.1l-0.1,0.1l-0.1,0.1c-0.1,0-0.1,0.1-0.2,0.1l0,0l0,0c-0.1,0-0.2,0.2-0.3,0.2
		c0,0-0.1,0-0.1,0.1c-0.1,0.1-0.2,0.1-0.3,0.2c0,0,0,0-0.1,0c-0.1,0.1-0.2,0.1-0.3,0.2c-0.1,0-0.1,0-0.2,0.1c-0.1,0-0.2,0.1-0.2,0.1
		c-0.1,0-0.1,0-0.2,0.1c-0.1,0-0.2,0.1-0.2,0.1c-0.1,0-0.2,0.1-0.2,0.1c-0.1,0-0.2,0-0.2,0.1c-0.1,0-0.1,0-0.2,0s-0.2,0-0.2,0
		c-0.1,0-0.1,0-0.2,0s-0.2,0-0.3,0h-0.1c-0.1,0-0.2,0-0.2,0c-0.1,0-0.1,0-0.2,0s-0.1,0-0.2,0c-0.1,0-0.1,0-0.2,0s-0.1,0-0.1,0
		c-0.1,0-0.1,0-0.2,0c-0.1,0-0.1,0-0.2,0s-0.2,0-0.2-0.1c-0.1,0-0.2-0.1-0.2-0.1h-0.1c-0.1,0-0.2-0.1-0.2-0.1h-0.1
		c-0.1,0-0.2-0.1-0.2-0.1l0,0c-0.2-0.1-0.4-0.2-0.6-0.4l0,0l-0.1-0.1l-0.1-0.1c0,0-0.1,0-0.1-0.1c0,0,0,0-0.1,0l11.2,11.2
		C475.6,82,486.4,69.9,486.4,55.2z"/>
</g>
<g>
	<path class="st2" d="M193.1,635.7c0,0-1.4,1.5-0.1,3.2c1.3,1.7,6.4,5.7,6.4,5.7s-0.2,1.9,1.7,1.8c1.8-0.1,5.9-1.6,9.4-0.7
		c1.8,0.3,6.8-1.8,10-10.6c1.3-3.9,0.8-6.5-0.3-6.8c-1.3-0.6-1.9-1.1-2.6-0.7c-1.5-0.2-4-0.9-6.9,0.3c-3,1.1-8.2,2.8-10,2
		C199.5,629.7,196.3,630.4,193.1,635.7z"/>
	<path class="st0" d="M162.9,608.1c0.3,0.6,15.1,8.8,21.6,11.6c3.1,5.7,3,10.5,9.8,16.8c1.3,0,2.7-2.1,3-3.9
		c0.1-1.8-4.2-11.3-4.8-13.2c-0.7-1.9-1.6-7.1-3.6-8.1c-2.9-1.1-17.7-10.7-18.1-10.3C170.4,601.3,162.9,608.1,162.9,608.1z"/>
	<path class="st0" d="M217.7,627.6c0.7-0.3,1.3,0.2,2.6,0.7c1.1,0.3,1.6,2.9,0.3,6.8c-3.1,8.9-8.1,10.9-10,10.6
		c-3.5-0.9-7.6,0.6-9.4,0.7c-1.9,0.1-1.7-1.8-1.7-1.8l7.4-0.9c0,0,3,0.2,4.1-1C212,641.5,219.4,633.3,217.7,627.6z"/>
	<path class="st2" d="M79.5,627.2c0,0,1.8,0.9,1.2,3c-0.6,2-4,7.6-4,7.6s0.8,1.7-1,2.3c-1.8,0.6-6.1,0.6-9,2.6
		c-1.6,0.9-7,0.7-13-6.5c-2.6-3.2-3.1-5.8-2.1-6.5c1-0.9,1.5-1.7,2.2-1.6c1.4-0.8,3.4-2.2,6.6-2.2c3.2,0,8.6-0.3,10.1-1.7
		C71.5,623.8,74.8,623.4,79.5,627.2z"/>
	<path class="st0" d="M53.7,628.1c-0.7-0.1-1.2,0.6-2.2,1.6c-0.9,0.7-0.5,3.3,2.1,6.5c6,7.2,11.4,7.4,13,6.5c3-2,7.3-2,9-2.6
		c1.8-0.6,1-2.3,1-2.3l-7.2,1.7c0,0-2.8,1.2-4.1,0.5C64,639.2,54.1,634.1,53.7,628.1z"/>
	<path class="st0" d="M112,606.1c-0.5,0.1-19,8.8-24.2,7.5c-1.8,3.3-5.7,10-9.2,14.8c-2.2,1-4.3-0.9-4.7-2.8c0.3-2,4.9-13.1,5.7-14
		c1.4-1.6,4.1-5.5,6.7-6.5c3.2-0.8,20.9-7.1,20.9-7.1L112,606.1z"/>
	<path class="st0" d="M86.2,547.6c0,0.3-13.7-2.9-15.9-8.7c-0.4-0.5,0.1-0.4,0-1c-0.2-1.7,0.4-2.6,1.1-4.5c1.5-2.8,1.4-3.7,0.3-4.2
		c-1.1-0.5-3.8-0.6-5,3.2c-1.3-2-3-2.4-3.6-1.4c-0.5,1.1-1.2,3.1,1.1,6.8c-1.8,0.7-3.3,1.3-3,2.4c0.4,1.1,2.7,1.1,4.2,0.3
		c1.7-0.2,4.1,0.4,4.7,1.3c0.7,0.9,8.1,7.3,11.8,7.4C85.7,549.2,86.2,547.6,86.2,547.6z"/>
	
		<ellipse transform="matrix(8.637068e-02 -0.9963 0.9963 8.637068e-02 -432.7159 651.0309)" class="st2" cx="138.6" cy="561.4" rx="54.1" ry="57.6"/>
	<path class="st1" d="M189.8,565.8c2.5-29.2-18.5-54.9-47.2-58.3c0.6,0,1.2,0.1,1.8,0.1c31.6,2.8,55,29.1,52.4,58.9
		c-2.6,29.8-30.2,51.7-61.8,48.9c-1.2-0.1-2.4-0.2-3.5-0.4C161.2,617.6,187.2,595.6,189.8,565.8z"/>
	<path class="st4" d="M151.7,536.2c0,0,3.1,0.4,3.3,0.5c0.1,0,2.6,0.6,2.8,0.4s3.2-3,3.2-3l1-8.5l-4.5-3.2l-3.9-1.8l-3,0.5l-3.3,1.5
		l-1.9,4.4l0.2,3.4l0.9,4.4l1.2,1.3L151.7,536.2z"/>
	<path class="st3" d="M159.2,529.4c-0.1-4.1-3-7.5-6.4-7.4c-3.4,0.1-6.1,3.5-6,7.6c0,0.6,0.1,1.3,0.2,1.8c0.2,1.8,1.2,3.5,2.7,4.3
		c0,0,0.1,0,0.1,0.1c-1.1,0-2.1,0-3.1,0c-1.7-1.9-2.8-4.4-2.8-7.2c-0.2-5.9,4.2-10.8,9.8-10.9c5.6-0.1,10.3,4.7,10.4,10.6
		c0.1,3.7-1.5,6.9-4.1,8.9c-1.4-0.4-2.9-0.7-4.5-0.9C157.8,535.2,159.3,532.5,159.2,529.4z"/>
	<path class="st0" d="M160.1,537.4c-1.4-0.4-2.9-0.7-4.4-0.9l-0.5-0.1l0.4-0.2c2.2-1.2,3.5-3.9,3.5-6.8l0,0c0-2-0.7-3.8-1.9-5.2
		c-1.2-1.3-2.7-2.1-4.2-2c-1.6,0-3,0.8-4.1,2.2c-1.1,1.4-1.7,3.3-1.6,5.2c0,0.6,0.1,1.2,0.2,1.8c0.2,1.8,1.2,3.3,2.6,4.2l0.5,0.4
		h-0.6c-1,0-2.1,0-3.1,0h-0.1l-0.1-0.1c-1.8-2-2.8-4.6-2.9-7.3c-0.2-6,4.3-11,10.1-11.1c5.7-0.1,10.5,4.8,10.7,10.8
		c0.1,3.5-1.5,6.9-4.1,9l-0.1,0.1L160.1,537.4z M153.8,518c-5.5,0.1-9.8,4.9-9.6,10.7c0.1,2.6,1.1,5.1,2.7,7c0.8,0,1.6,0,2.4,0
		c-1.3-1-2.2-2.5-2.4-4.2c-0.2-0.6-0.2-1.2-0.2-1.9c0-2,0.6-4,1.7-5.4c1.2-1.5,2.8-2.3,4.5-2.4c1.7,0,3.4,0.7,4.6,2.2
		c1.2,1.4,1.9,3.3,2,5.4c0.1,2.9-1.2,5.5-3.3,6.8c1.3,0.2,2.6,0.5,3.9,0.8c2.6-2,4-5.3,3.9-8.7c-0.2-5.6-4.3-10.1-9.5-10.4
		C154.2,518,154,518,153.8,518z"/>
	<path class="st5" d="M148.9,535.8L148.9,535.8c0,0-0.1,0-0.1-0.1C148.9,535.7,148.9,535.8,148.9,535.8z"/>
	<path class="st0" d="M161.6,538.8c0.3,0,0.6-0.1,0.7-0.3c0.2-0.2,0-0.6-0.3-0.7c-3.2-1.2-6.8-1.9-10.5-2.3c-2.8-0.2-5.6-0.2-8.3,0
		c-0.4,0-0.6,0.3-0.6,0.6s0.4,0.5,0.8,0.4c2.6-0.2,5.3-0.2,8,0c3.6,0.3,7,1.1,10.1,2.2C161.4,538.8,161.5,538.8,161.6,538.8z"/>
	<path class="st0" d="M151.2,525.2c0.2,1.3,0.5,2.9,0.5,2.9c0.1-0.2,1.3-1.6,2.1-2.8c2.1,0.7,3.7,2.8,3.8,5.4
		c0.1,2.5-1.3,4.6-3.3,5.4c-0.4,0-0.9-0.1-1.3-0.2c-1-0.1-2.1-0.2-3.1-0.2c0,0-0.1,0-0.1-0.1c-1.3-1-2.2-2.5-2.7-4.3
		c0-0.2,0-0.4,0-0.5C146.9,528.1,148.8,525.8,151.2,525.2z"/>
	<path class="st4" d="M122.6,533.7c0,0,3.1,0.2,3.2,0.2c0.1,0,2.5,0.4,2.7,0.2c0.2-0.2,2.6-3,2.6-3l-0.3-8l-4.8-2.6l-4-1.4l-2.8,0.7
		l-3,1.6l-1.1,4.2l0.7,3.1l1.5,4l1.3,1.1L122.6,533.7z"/>
	<path class="st3" d="M128.7,526.9c-0.7-3.8-3.9-6.7-7.2-6.4c-3.3,0.3-5.3,3.7-4.6,7.5c0.1,0.6,0.3,1.1,0.5,1.7
		c0.5,1.7,1.7,3.1,3.2,3.8c0,0,0.1,0,0.1,0.1c-1,0-2,0.2-3,0.3c-1.9-1.6-3.3-3.9-3.8-6.5c-1-5.5,2.5-10.3,7.8-10.9
		c5.4-0.5,10.5,3.5,11.5,9c0.6,3.4-0.4,6.5-2.6,8.5c-1.4-0.2-2.9-0.4-4.4-0.5C128.2,532.3,129.3,529.7,128.7,526.9z"/>
	<path class="st0" d="M130.7,534.3c-1.4-0.2-2.9-0.4-4.4-0.5l-0.5,0l0.4-0.2c1.9-1.3,2.8-3.9,2.3-6.6l0,0c-0.4-1.8-1.3-3.5-2.6-4.7
		c-1.3-1.2-2.8-1.7-4.4-1.6c-1.5,0.2-2.8,1-3.6,2.3c-0.9,1.4-1.1,3.1-0.8,5c0.1,0.6,0.3,1.1,0.5,1.7c0.4,1.6,1.6,3,3.1,3.7l0.6,0.3
		l-0.6,0c-1,0-2,0.2-2.9,0.3h-0.1l-0.1-0.1c-2-1.7-3.3-4-3.8-6.5c-1-5.6,2.6-10.5,8-11c5.5-0.5,10.7,3.6,11.8,9.2
		c0.6,3.3-0.4,6.5-2.6,8.7l-0.1,0.1L130.7,534.3z M121.9,516.7c-5.2,0.5-8.6,5.3-7.6,10.7c0.4,2.4,1.7,4.6,3.6,6.3
		c0.7-0.1,1.5-0.2,2.2-0.2c-1.4-0.8-2.5-2.2-2.9-3.7c-0.2-0.6-0.4-1.1-0.5-1.7c-0.4-1.9,0-3.7,0.8-5.2c0.9-1.5,2.3-2.4,4-2.5
		c1.7-0.2,3.3,0.4,4.8,1.7c1.4,1.2,2.3,3,2.7,4.8c0.5,2.7-0.3,5.2-2.1,6.6c1.3,0.1,2.6,0.2,3.8,0.5c2.1-2.1,3.1-5.2,2.5-8.3
		c-0.9-5.2-5.6-9-10.6-9C122.3,516.6,122.1,516.6,121.9,516.7z"/>
	<path class="st5" d="M119.9,533.6L119.9,533.6c-0.1,0-0.1,0-0.2-0.1C119.7,533.5,119.8,533.5,119.9,533.6z"/>
	<path class="st0" d="M132.4,535.4c0.3,0,0.5-0.1,0.6-0.3c0.1-0.2,0-0.5-0.4-0.6c-3.3-0.8-6.8-1.3-10.4-1.3c-2.7,0-5.4,0.2-7.9,0.6
		c-0.4,0.1-0.6,0.3-0.5,0.6c0.1,0.2,0.4,0.4,0.8,0.4c2.4-0.4,5-0.6,7.6-0.6c3.5,0,6.9,0.4,10,1.3
		C132.2,535.4,132.3,535.4,132.4,535.4z"/>
	<path class="st0" d="M120.5,523.6c0.4,1.2,0.9,2.7,0.9,2.7c0.1-0.2,1-1.6,1.6-2.7c2.1,0.5,4,2.4,4.4,4.7c0.4,2.3-0.6,4.3-2.4,5.3
		c-0.4,0-0.9,0-1.3,0c-1,0-2,0-3,0.1c0,0-0.1,0-0.2-0.1c-1.4-0.8-2.5-2.2-3.2-3.8c0-0.2-0.1-0.3-0.1-0.5
		C116.8,526.6,118.2,524.3,120.5,523.6z"/>
	<path class="st3" d="M180.2,558.1c-0.4,6.2-5.7,10.9-11.9,10.5c-6.2-0.4-10.9-5.7-10.5-11.9s5.7-10.9,11.9-10.5
		C176,546.6,180.6,551.9,180.2,558.1"/>
	<polygon class="st3" points="97.9,542.8 103.5,543.1 102.4,558.2 112.1,558.8 111.8,563.6 96.6,562.6 	"/>
	<path class="st3" d="M113.8,555l0.7-11.1l5.6,0.4l-0.7,11c-0.2,2.9,1.2,4.3,3.4,4.5c2.2,0.2,3.7-1.1,3.9-3.9l0.7-11.2l5.6,0.4
		l-0.7,11c-0.4,6.4-4.2,9-9.9,8.6C116.7,564.3,113.4,561.2,113.8,555"/>
	<polygon class="st3" points="135.5,545.3 141.3,545.7 145.5,553.6 150.8,546.3 156.6,546.6 155.3,566.5 149.8,566.2 150.6,554.7 
		145,562.2 144.9,562.2 140.3,554.1 139.6,565.4 134.2,565.1 	"/>
	<polygon class="st3" points="134,569 138.8,569.3 138.7,570.7 135.6,570.5 135.5,571.4 138.4,571.6 138.3,572.9 135.4,572.7 
		135.4,573.6 138.6,573.9 138.5,575.2 133.6,574.9 	"/>
	<polygon class="st3" points="140.1,569.4 141.7,569.5 143.9,572.8 144.1,569.6 145.7,569.7 145.4,575.7 143.9,575.6 141.6,572.2 
		141.3,575.4 139.7,575.3 	"/>
	<polygon class="st3" points="147.2,569.9 152,570.2 151.9,571.5 148.7,571.3 148.7,572.3 151.5,572.5 151.4,573.7 148.6,573.6 
		148.5,574.5 151.7,574.7 151.6,576.1 146.8,575.8 	"/>
	<path class="st3" d="M153.1,570.2l2.8,0.2c0.9,0.1,1.5,0.4,1.9,0.8c0.3,0.4,0.5,0.8,0.4,1.4l0,0c-0.1,0.9-0.6,1.5-1.3,1.7l1.3,2.2
		l-1.9-0.1l-1.1-1.9l0,0l-0.7,0l-0.1,1.8l-1.7-0.1L153.1,570.2z M155.7,573.3c0.6,0,0.9-0.2,0.9-0.6l0,0c0-0.5-0.3-0.7-0.9-0.7
		l-1.1-0.1l-0.1,1.4L155.7,573.3z"/>
	<path class="st3" d="M158.9,573.6L158.9,573.6c0.1-1.8,1.6-3,3.4-2.9c1.1,0.1,1.8,0.4,2.4,1l-1.1,1.1c-0.4-0.4-0.8-0.6-1.4-0.7
		c-0.9,0-1.6,0.6-1.7,1.5l0,0c-0.1,0.9,0.6,1.7,1.5,1.8c0.4,0,0.7,0,1-0.2l0-0.7l-1.2-0.1l0.1-1.2l2.8,0.2l-0.2,2.7
		c-0.7,0.5-1.6,0.8-2.6,0.7C160.1,576.8,158.8,575.4,158.9,573.6"/>
	<polygon class="st3" points="167.2,574.9 165.2,571 167.1,571.2 168.2,573.4 169.5,571.3 171.4,571.4 168.9,575 168.8,577.3 
		167.1,577.1 	"/>
	<path class="st0" d="M196.6,554.4c-0.2,0-2.8,0.2-3,1.3c-0.2,1.1,0.4,2.4,2.9,1.5c2.5-0.9,13.5-3.1,19.6-10c0.9-0.9,3-1.3,3-1.3
		s4.7,1.3,5.2-0.2c0.3-1.5-1.2-2.6-2.6-2.6c1.5-3.7,1.8-5.5,0.4-6.9c-1.3-1.5-3.1,0.6-3.2,1.4c-1.8-3.7-4-4.6-4.9-3.5
		c-0.7,0.8-1.2,3.3,0.7,5c-1.7-0.2-4.7,0.9,0.9,3.9C215.5,544.8,214.6,550.5,196.6,554.4z"/>
	<path class="st0" d="M112.4,586.6c0-0.3,12.2-5.4,20.2-5.5c11.1-0.1,20.2,5.3,24.2,8.5c-1.4,4.9-6.8,18.9-20.8,18.5
		C122,607.6,112.4,602.7,112.4,586.6z"/>
	<path class="st3" d="M146.2,604.7c-2.7,1.7-6.1,2.8-10.1,2.7c-6.8-0.2-12.6-1.5-16.7-4.6c0,0-0.4-1.5,0.9-1.7
		c1.3-0.2,6,2.9,11.4,2.6c5.4-0.3,12.7-1.6,13.7-1.4C146.1,602.6,146.8,603.9,146.2,604.7z"/>
	<path class="st3" d="M154,588.3c-4.7-3.1-12.4-6.6-21.4-6.5c-6.1,0-14.5,3-18.3,4.5c0,0-0.3,1.7,1.4,1.7s32.9,2.6,34.8,2.5
		C152.5,590.3,153.9,588.9,154,588.3z"/>
	<path class="st3" d="M142.8,604.3c0.4-0.3,0.7-3.1,3.3-3.2c2.6,0,3,1,2.5,1.6c-0.6,0.6-2.1,2.4-4,2.3
		C142.8,604.9,142.8,604.3,142.8,604.3z"/>
	<path class="st3" d="M123.7,603c-0.4-0.3-0.7-3.1-3.3-3.2c-2.6,0-3,1-2.5,1.6c0.6,0.6,2.1,2.4,4,2.3
		C123.7,603.6,123.7,603,123.7,603z"/>
	<path class="st3" d="M121,601.2c-0.3-0.2-0.6-2.4-2.5-2.4c-2,0-2.3,0.7-1.8,1.2c0.4,0.5,1.6,1.8,3,1.8S121,601.2,121,601.2z"/>
	<path class="st3" d="M121,600c-0.3-0.2-0.6-2.4-2.5-2.4c-2,0-2.3,0.7-1.8,1.2s1.6,1.8,3,1.8S121,600,121,600z"/>
	<path class="st3" d="M147.3,600c0.3-0.2,0.6-2.4,2.5-2.4c2,0,2.3,0.7,1.8,1.2c-0.4,0.5-1.6,1.8-3,1.8
		C147.3,600.5,147.3,600,147.3,600z"/>
	<path class="st3" d="M146,601.8c0.3-0.2,0.6-2.6,2.8-2.6c2.1,0,2.5,0.8,2,1.3c-0.4,0.5-1.8,2-3.3,1.9
		C146,602.4,146,601.8,146,601.8z"/>
</g>
<g>
	<path class="st21" d="M191.3,130.4c0,24-19.4,43.4-43.4,43.4c-24,0-43.4-19.4-43.4-43.4c0-24,19.4-43.4,43.4-43.4
		C171.9,87,191.3,106.5,191.3,130.4"/>
	<path class="st3" d="M190.5,130.1c0,5.7-4.6,10.3-10.3,10.3c-5.7,0-10.3-4.6-10.3-10.3c0-5.7,4.6-10.3,10.3-10.3
		C185.9,119.8,190.5,124.4,190.5,130.1"/>
	<polygon class="st3" points="114.1,121 119.2,121 119.2,134.8 128,134.8 128,139.3 114.1,139.3 	"/>
	<path class="st3" d="M129.4,131.3V121h5.1v10.2c0,2.6,1.3,3.9,3.4,3.9c2,0,3.4-1.2,3.4-3.8V121h5.1v10.1c0,5.9-3.4,8.5-8.6,8.5
		C132.6,139.6,129.4,137,129.4,131.3"/>
	<polygon class="st3" points="148.7,121 154.1,121 158.4,128.1 162.8,121 168.1,121 168.1,139.3 163.1,139.3 163.1,128.8 
		158.4,135.9 158.3,135.9 153.7,128.8 153.7,139.3 148.7,139.3 	"/>
	<polygon class="st3" points="148.8,142.8 153.2,142.8 153.2,144.1 150.3,144.1 150.3,145 152.9,145 152.9,146.2 150.3,146.2 
		150.3,147 153.3,147 153.3,148.3 148.8,148.3 	"/>
	<polygon class="st3" points="154.4,142.8 155.8,142.8 158.1,145.7 158.1,142.8 159.6,142.8 159.6,148.3 158.2,148.3 155.9,145.3 
		155.9,148.3 154.4,148.3 	"/>
	<polygon class="st3" points="160.9,142.8 165.3,142.8 165.3,144.1 162.4,144.1 162.4,145 165,145 165,146.2 162.4,146.2 162.4,147 
		165.3,147 165.3,148.3 160.9,148.3 	"/>
	<path class="st3" d="M168.9,145.5c0.5,0,0.8-0.3,0.8-0.7v0c0-0.4-0.3-0.7-0.8-0.7h-1v1.3H168.9z M166.4,142.8h2.6
		c0.8,0,1.4,0.2,1.8,0.6c0.3,0.3,0.5,0.7,0.5,1.3v0c0,0.8-0.4,1.4-1.1,1.7l1.3,1.9h-1.8l-1.1-1.7h0h-0.7v1.7h-1.5V142.8z"/>
	<path class="st3" d="M171.9,145.6L171.9,145.6c0-1.6,1.3-2.9,3-2.9c1,0,1.6,0.3,2.2,0.8l-0.9,1.1c-0.4-0.3-0.8-0.5-1.3-0.5
		c-0.8,0-1.4,0.7-1.4,1.5v0c0,0.9,0.6,1.5,1.5,1.5c0.4,0,0.7-0.1,0.9-0.2v-0.7h-1.1v-1.1h2.5v2.5c-0.6,0.5-1.4,0.8-2.4,0.8
		C173.2,148.4,171.9,147.3,171.9,145.6"/>
	<polygon class="st3" points="179.6,146.3 177.5,142.8 179.2,142.8 180.4,144.8 181.5,142.8 183.2,142.8 181.1,146.2 181.1,148.3 
		179.6,148.3 	"/>
</g>
<g>
	<g>
		<path class="st0" d="M377.2,770.4c0.3,0.3,20.4,9.7,21.1,9.9c0.7,0.3,1.1,1,1.3,1.6c-0.6,0.8-1.9-0.3-4.6,3.7
			c-2.7,3.9-7.6,10.7-8,11.6c-0.1,1.1,5.2,1,5.2,1l4.5-5.2c0,0,8.6-6.5,9.2-6.9c0.9-0.7,3.9-3.2,1.9-5.9c-2.8-3-12.5-14.7-15.6-15.2
			C383.6,767.4,377.2,770.4,377.2,770.4z"/>
		<path class="st2" d="M387.3,795c0,0,2,3.1,5.8,1.7c1.3-0.9,1.6-1.3,1.9-1.3c0.3,0.1,3,5.7,8.9,6.4c3,0.1,12.2-4.1,13.9,6.6
			c1,1.7,2.9,2.6-0.2,5.4c-3.6,1-13.7,2.5-28,0.2c-6-1-7.2-1.5-7.2-1.5s-3.8-1.2-1.1-5.2C380.9,804.3,382.3,797.9,387.3,795z"/>
		<path class="st0" d="M417.8,808.4c1,1.7,2.9,2.6-0.2,5.4c-3.6,1-13.7,2.5-28,0.2c-6-1-7.2-1.5-7.2-1.5s-3.8-1.2-1.1-5.2
			c0,0,4.3,3.9,14.8,4.1C406.5,811.7,416.4,811.7,417.8,808.4z"/>
	</g>
	<g>
		<path class="st22" d="M348.2,840.8c-41.3,0-74.8-33.6-74.8-74.8s33.6-74.8,74.8-74.8S423,724.7,423,766S389.4,840.8,348.2,840.8z
			 M348.2,708.4c-31.7,0-57.6,25.8-57.6,57.6s25.8,57.6,57.6,57.6s57.6-25.8,57.6-57.6S379.9,708.4,348.2,708.4z"/>
	</g>
	<path class="st0" d="M340.8,768.6c-0.6,0.3-11.4,16.3-11.9,16.3s-5.2,4.8-0.7,6.3c2.6,2.4,6.4,3.8,8,4.1c1.3,0.1,5.3,5.3,5.4,6.5
		c0.4,1,4.3-2.1,4.3-2.1s-3.3-9.2-9.3-12c3.1-4.1,16.5-14.1,19-14.8C342.9,769.2,340.8,768.6,340.8,768.6z"/>
	<path class="st2" d="M339.7,799.5c0,0,0.6,1.7,2.9,1c2.3-0.8,3.1-1.7,3-3.3c-0.1-0.5,6.6,0.3,7.2,7.9c0.5,0.4,2.4,1.2,1.7,3.9
		c-0.8,2.8-8.2,10.7-8.2,10.7s-3.4,5.4-15.1,6.2c-1.9-0.3-8.5-1.1-10-2.4c-0.7-1-1.1-4.8,1.5-5.8c0.5-0.9,0.5-9.3,10.9-9.6
		c1.7-0.9,3.3-3.3,3.7-5.4C337.5,800.5,338.4,798.4,339.7,799.5z"/>
	<path class="st2" d="M339.7,799.5c0,0,0.6,1.7,2.9,1c2.3-0.8,3.1-1.7,3-3.3c-0.1-0.5,6.6,0.3,7.2,7.9c0.5,0.4,2.4,1.2,1.7,3.9
		c-0.8,2.8-8.2,10.7-8.2,10.7s-3.4,5.4-15.1,6.2c-1.9-0.3-8.5-1.1-10-2.4c-0.7-1-1.1-4.8,1.5-5.8c0.5-0.9,0.5-9.3,10.9-9.6
		c1.7-0.9,3.3-3.3,3.7-5.4C337.5,800.5,338.4,798.4,339.7,799.5z"/>
	<path class="st0" d="M322.3,818c0,0,2.1,5,12.9,2.7c5.9-1.2,7.3-1.5,11-5.3s6.3-6.8,6.5-10.3c0.5,0.4,2.4,1.2,1.7,3.9
		c-0.8,2.8-8.2,10.7-8.2,10.7s-3.4,5.4-15.1,6.2c-1.9-0.3-8.5-1.1-10-2.4c-0.7-1-1.1-4.6,1.3-5.7"/>
	<path class="st0" d="M408.5,743c-0.2-0.2,11.4-5.4,16.2-2.4c0.5,0.1,0.2,0.4,0.5,0.7c1,1.1,1.1,2.1,1.6,3.8c0.4,2.8,1,3.5,2.1,3.2
		c1.1-0.2,3-1.6,1.8-5c2,0.7,3.5,0.1,3.3-0.9c-0.2-1.1-0.8-2.9-4.5-4.3c0.9-1.5,1.7-2.7,0.8-3.3c-0.9-0.6-2.5,0.7-3.2,2.1
		c-1.1,1.1-3.2,2-4.1,1.7c-1-0.3-9.9-0.8-12.5,1.1C408,741.6,408.5,743,408.5,743z"/>
	
		<ellipse transform="matrix(0.9963 -8.637387e-02 8.637387e-02 0.9963 -61.7384 33.9785)" class="st2" cx="361.8" cy="730.4" rx="52.1" ry="48.8"/>
	<path class="st1" d="M315.5,734.4c-2.3-26.3,16.7-49.6,42.6-52.7c-0.6,0-1.1,0.1-1.7,0.1c-28.5,2.5-49.7,26.3-47.4,53.2
		c2.3,26.9,27.3,46.7,55.8,44.2c1.1-0.1,2.1-0.2,3.2-0.4C341.3,781.1,317.8,761.3,315.5,734.4z"/>
	<path class="st0" d="M310.5,742.8c0.1,0.1,1.9,1.7,2.7,1.1c0.8-0.6,1.3-1.8-0.8-2.8c-2.2-1.1-10.5-6.9-18.8-6.5
		c-1.2,0-2.7-1.2-2.7-1.2s-2.1-3.9-3.4-3.3c-1.1,0.7-1,2.4-0.1,3.2c-3.3,1.3-4.7,2.3-4.8,4.1c-0.2,1.8,2.3,1.6,2.9,1.2
		c-1.3,3.5-0.5,5.4,0.7,5.4c1,0,2.9-1.2,2.8-3.6c0.9,1.2,3.5,2.5,2-3.1C292.4,736.5,296.7,733.6,310.5,742.8z"/>
	<g>
		<path class="st3" d="M399,730.3c0.6,5.2-3.2,9.9-8.4,10.5c-5.2,0.6-9.9-3.2-10.5-8.4c-0.6-5.2,3.2-9.9,8.4-10.5
			C393.6,721.3,398.4,725.1,399,730.3"/>
		<polygon class="st3" points="327.8,729.8 332.5,729.3 333.9,742 342,741.1 342.5,745.2 329.7,746.6 		"/>
		<path class="st3" d="M343.6,737.7l-1.1-9.4l4.7-0.5l1,9.3c0.3,2.4,1.6,3.4,3.5,3.2c1.9-0.2,3-1.5,2.7-3.8l-1.1-9.5l4.7-0.5l1,9.3
			c0.6,5.4-2.2,8.1-7,8.7C347.5,745,344.2,743,343.6,737.7"/>
		<polygon class="st3" points="359.6,726.3 364.5,725.7 369.3,731.8 372.6,724.8 377.5,724.3 379.4,741.1 374.7,741.6 373.6,731.9 
			370.1,739 370,739 365,733 366.1,742.6 361.5,743.1 		"/>
		<polygon class="st3" points="362,746.3 366,745.9 366.1,747.1 363.5,747.4 363.6,748.1 366,747.9 366.1,749 363.7,749.2 
			363.8,750 366.5,749.7 366.6,750.9 362.5,751.4 		"/>
		<polygon class="st3" points="367.1,745.7 368.4,745.6 370.8,748 370.5,745.4 371.9,745.2 372.4,750.3 371.2,750.4 368.7,747.9 
			369,750.6 367.7,750.8 		"/>
		<polygon class="st3" points="373.1,745.1 377.1,744.6 377.3,745.8 374.6,746.1 374.7,746.9 377.1,746.6 377.2,747.7 374.8,748 
			374.9,748.8 377.6,748.5 377.7,749.7 373.6,750.1 		"/>
		<path class="st3" d="M378.1,744.5l2.4-0.3c0.8-0.1,1.3,0.1,1.7,0.4c0.3,0.3,0.5,0.6,0.6,1.1l0,0c0.1,0.8-0.3,1.3-0.9,1.7l1.4,1.6
			l-1.6,0.2l-1.2-1.4l0,0l-0.6,0.1l0.2,1.5l-1.4,0.2L378.1,744.5z M380.7,746.7c0.5-0.1,0.7-0.3,0.7-0.7l0,0c0-0.4-0.4-0.6-0.8-0.5
			l-0.9,0.1l0.1,1.2L380.7,746.7z"/>
		<path class="st3" d="M383.5,746.5L383.5,746.5c-0.2-1.5,0.9-2.8,2.4-2.9c0.9-0.1,1.5,0.1,2.1,0.5l-0.7,1.1
			c-0.4-0.3-0.8-0.4-1.3-0.3c-0.7,0.1-1.2,0.8-1.1,1.5l0,0c0.1,0.8,0.7,1.3,1.5,1.2c0.3,0,0.6-0.1,0.8-0.3l-0.1-0.6l-1,0.1l-0.1-1
			l2.3-0.3l0.3,2.3c-0.5,0.5-1.2,0.9-2.1,1C384.9,749,383.6,748,383.5,746.5"/>
		<polygon class="st3" points="390.6,746.3 388.3,743.4 389.9,743.2 391.2,744.9 392,742.9 393.6,742.8 392,746.1 392.2,748 
			390.8,748.2 		"/>
	</g>
	<path class="st0" d="M370.5,757c3.1-0.6,5.3,2.9,5.6,5s-1.9,4.2-5,4.7c-3.1,0.6-5.9-0.6-6.3-2.7C364.5,762,367.4,757.6,370.5,757z"
		/>
	<g>
		<path class="st22" d="M394.9,821.9c-2.2,0-4.4-0.8-6.1-2.5l-93.4-93.4c-3.4-3.4-1.5-7,1.8-10.4c3.4-3.4,7-5.2,10.4-1.8l93.4,93.4
			c3.4,3.4,2.3,7.8-1.1,11.2C398.2,820,397.1,821.9,394.9,821.9z"/>
	</g>
	<path class="st1" d="M315.8,706.5c0.7-0.1,2.8-9.7,8.5-16.3c5.7-6.6,9.4-6.1,8.3-8.5s-5.7-4.4-6.8-5.9s-3.3-4.9-1.5-6
		c2.6-0.1,4.7,2.4,5.3,2.9c0.6,0.6,10,11.3,9.9,11.7s-5,7.2-5,7.2l-8.5,8l-7.6,6.9C318.5,706.5,315.4,706.6,315.8,706.5z"/>
	<path class="st2" d="M384.6,686.3c0,0-21.3-16.6-40.7-18.1c-5.3,0.1-6.8,2.4-7.2,3.7c-0.7,1.4-5.9,0.4-8.8-2.2s-5.5,0.3-3.7,2.6
		c1.9,2.3,14.5,9.5,8.6,12.5c-5.8,3-8.3,9.5-13.6,26.3c18.3-14.9,27.8-17.9,27.8-17.9L384.6,686.3z"/>
	<path class="st0" d="M350.2,712.1c0.2,0.3,1.3,1.4,1.5-0.4s-2.4-5.1-6-4.7c-2.7,0.4-4.6,3.4-4.4,8c0.3,4.2,2,6.5,3.6,6.5
		c3,0.3,4.4-2.1,3.7-5.3C347.9,712.9,347,706.8,350.2,712.1z"/>
	<path class="st0" d="M379.8,709.6c0.2,0.4,1.1,1.6,1.5-0.2c0.4-1.8-1.8-5.4-5.4-5.4c-2.7,0.1-4.9,2.9-5.3,7.4
		c-0.2,4.2,1.3,6.7,2.8,6.9c2.9,0.7,4.6-1.6,4.3-4.9C377.4,710.1,377.2,703.9,379.8,709.6z"/>
	<path class="st0" d="M336.2,704.7c1.1-2.7,2.4-3.5,3-4.2c1.2-0.7,1.6-0.9,2.7-1c1.4,0.1,1.3,0.1-0.3,1.4
		C340.8,702.4,335.9,708.7,336.2,704.7z"/>
	<path class="st0" d="M381.7,699.1c-1.7-2.3-3.2-2.7-4-3.3c-1.3-0.3-1.7-0.4-2.9-0.2c-1.3,0.5-1.2,0.4,0.6,1.3
		C376.7,698,383.1,702.8,381.7,699.1z"/>
	<path class="st0" d="M366.6,770c0,0,2.3,0.9,4.4,0.5c2.3-0.4,3.9-1.6,4.9-1.9c1-0.3,0.4,0.2,0.1,0.4c-0.3,0.2-3.1,2.7-4.4,2.8
		c-1.3,0.1-3.8-0.2-4.6-1C366.4,770.1,366.2,769.8,366.6,770"/>
</g>
</svg>
