<svg id="Layer_1" data-name="Layer 1" xmlns="http://www.w3.org/2000/svg" viewBox="0 0 1920 1080"><defs><style>.cls-1{fill:#ff316c;}.cls-2{fill:#ea93a8;}.cls-3{fill:#1a1a1a;}</style></defs><title>winger3</title><rect class="cls-1" width="1920" height="1080"/><path class="cls-2" d="M1109,462.8c86.3,52.8,166.59,109.54,233.52,170.29q13.05,11.83,25.61,23.85c44.72,24.34,86.93,50,126,77.38,29.62,20.71,58.93,41.54,87.08,62.84,5.32-4.73,10.58-9.48,16-14.2,21-18.52,42.78-36.85,63.25-55.58h0s.06,0,0,0c-16.2,30.82-32.78,61.6-50.43,92.18,8.33,6.63,16.56,13.3,24.57,20,12,10.11,23.47,20.36,34.73,30.67a45.47,45.47,0,0,1,3-5,51.59,51.59,0,0,1,10-10.27c-1.41-2.12-2.76-4.25-4.23-6.36,0-.06.06-.11.17-.11a.2.2,0,0,1,.11,0c2.55,1.22,5,2.51,7.49,3.76,2.87-2.15,5.85-4.25,8.91-6.29a.47.47,0,0,1,.16,0c.12,0,.22.07.18.14a92.56,92.56,0,0,0-4,8.84l.11.06c1.37-1.89,2.7-3.8,4.1-5.69,10.24-13.79,21.27-27.48,34.34-40.5a.26.26,0,0,1,.17,0c.09,0,.17,0,.17.08-2.21,14.23-1.93,28.54-2.94,42.8-.49,7.31-1.33,14.61-2.44,21.89,8.1,4.88,16,9.85,23.57,15,6.56,4.49,13,9.08,19.06,13.72a121.22,121.22,0,0,1,13.55,12c-4-12.75-7.64-25.52-11.44-38.29,0-.08.08-.14.17-.14a.12.12,0,0,1,.12,0c18,20.2,35.45,40.57,51.39,61.29-5.8-9.49-11.81-18.94-17.54-28.42-16.13-26.65-37.06-52.28-56-78.34.29.34.56.66.82,1q-6.83-8.82-13.55-17.66c.17.25.4.53.57.78-4.75-5.71-9.51-11.41-15-16.95,0-.08.08-.15.22-.15l.12,0a497.25,497.25,0,0,1,47.46,27.15c20.42,13.1,40.11,26.4,58.5,40.4,2.91,2.22,5.58,4.52,8.31,6.8.15-.59.31-1.19.45-1.78,1-4.24,2.06-8.46,3.45-12.67,1.32-4,2.43-8,3.36-12,.21-1.12.41-2.24.62-3.36a72.13,72.13,0,0,0,.81-9.72c0-3.52-.08-7-.15-10.57,0-.1,0-.21,0-.32-.48.16-.95.35-1.43.5a84.69,84.69,0,0,1-11.89,3c-7.57,1.18-15.89,1.56-23.28-.21-6.82-1.64-13.54-5.18-13.8-9.54-.24-3.8,1.79-7.88,6.84-10.65a55.19,55.19,0,0,1,9.86-4.1l.08,0,1.7-.76c-4.64-2.14-8.55-4.74-10.15-8a8.36,8.36,0,0,1-1-2.67c-.08-.31-.15-.61-.24-.91a14.6,14.6,0,0,1,.73-3.72,11,11,0,0,1,2.84-3.62,19.26,19.26,0,0,1,4-2.8l.62-.33c8.52-4.42,21.61-4.55,31.84-1.88a44.54,44.54,0,0,1,13.29,5.73,32.08,32.08,0,0,1,5.17-1.48,26,26,0,0,1,2.56-.74,18.48,18.48,0,0,1,4.72-.69,27.32,27.32,0,0,1,6.06.63,15.3,15.3,0,0,1,3.85,1.32c.37.22.64.45,1,.67,1-5.52,2-11,3.06-16.56.54-2.82,1-5.63,1.58-8.45l-1.37-.68c-33.93-16.77-69.47-32.66-104.58-48.68-29.34-13.39-58.8-26.76-88.82-39.71-87.6-37.77-176.17-74.9-266.94-110.37-41.73-16.31-84.08-32.11-126.24-48.07-35.29-13.34-72.46-25.43-108.59-38.09l-128.13-44.95c-7.58-2.67-15.9-4.83-23.82-7.2l-3.7-1.11C1056.74,431.94,1083.39,447.1,1109,462.8Zm113.33,36.57,0,0,0,0Z"/><path class="cls-2" d="M333.42,473.56l126.76,36.55c2,.08,4,.15,6,.28,36.39,2.38,72.16,5.6,108.21,8.83q51.81,7.95,89.94,28.71l15.48,11q25.08.08,50.14,0,29.5-.07,59-.15c3.57,0,7.18,0,10.81,0,5.3,0,10.61.09,15.89,0q11.46-.41,22.94-.75l26.55-1c4.75-.6,9.47-1.27,14.2-2,39.1-6,43.59-4.09,70.1-3.72h0a378.46,378.46,0,0,1,55.13,4.05l49.53,11.45q34,11,57.94,27.6c4.69.42,9.4.86,14.08,1.3,21.6,2,43.76,4.06,64.43,8.21q34.38,6.75,67.46,15.27l48.44,20.52c5.84,2.84,10.84,5.91,16,9.1q43.31,23.88,59.89,56.28,4.17,17,8.32,33.91-.12,21.58-12.5,41.31a283.58,283.58,0,0,1,26.56,12.8,71.6,71.6,0,0,1,12.27,7.64c5.93,3.27,11.41,6.68,16.67,10.17a197.59,197.59,0,0,1,3.11-24.22c0-.07.09-.11.18-.11a.18.18,0,0,1,.16.08c9.73,16.33,21.5,32.26,31.74,48.5,8.82,14,17.12,28.09,25.59,42.15q20-19.18,40.42-38.23c15.16-14.12,30.68-28.1,46.34-42-28.15-21.3-57.46-42.13-87.08-62.84-39.11-27.35-81.32-53-126-77.38q-12.54-12-25.61-23.85C1275.63,572.34,1195.34,515.6,1109,462.8c-25.65-15.7-52.3-30.86-79.63-45.63Q993,406.27,956.66,395.34L800.85,348.61c-24.12-7.22-49.33-13.21-74.29-19.53Q638.5,306.7,550.39,284.35c-39.41-10-78.59-20-119.07-28.7Q285,224.2,138.81,192.74c-6.72-1.44-13.74-2.52-20.63-3.74L43.62,175.75,24.78,172.4l4.71,22.44c5.06,24.22,10,48.45,15.14,72.66q3.56,10.81,7.1,21.62Q56.86,304.71,62,320.29q4.91,3.57,9.3,7.42c31.34,27.39,62.52,54.86,94.45,82.05q9.43,8.06,19.13,16c2.65,2.17,5.34,4.34,8,6.51s5.67,4.6,8.53,6.9L265,454.79C288.4,460.53,310.74,467,333.42,473.56Zm683.09-57,0,.15v0C1016.48,416.66,1016.5,416.6,1016.51,416.54Zm0,.21h0l0,.06A.11.11,0,0,0,1016.46,416.75Z"/><path class="cls-2" d="M1289.87,704.67l1.69.12a14.26,14.26,0,0,0-2.38-1.87c-1-.25-2-.47-3.07-.67.79.82,1.73,1.61,2.61,2.4C1289.1,704.67,1289.49,704.65,1289.87,704.67Z"/><path class="cls-2" d="M947.86,742.84Q996.42,757.9,1045,773l139.2,43.24c12.23,3.79,24.16,7.55,35.91,11.54-.36-.72-.68-1.44-1-2.16,0-.08,0-.12.16-.12a.3.3,0,0,1,.18.06c1.64,1.18,3.18,2.4,4.77,3.6,4.89,1.69,9.74,3.42,14.56,5.24l2.31.87c.49-2.53,1-5.06,1.47-7.59.31-2.36.63-4.71.94-7.06.69-5.14,1.36-10.28,1.83-15.44.27-3.09.56-6.19.85-9.29.21-2.33.18-4.67.28-7s.31-4.92.27-7.37c0-2.89-.11-5.78-.16-8.67s-.09-6.06-.33-9.1c-.17-2.06-.37-4.12-.62-6.17l-.7-.38a139.1,139.1,0,0,1-15.88,7,137.07,137.07,0,0,1-41,8.43,125.6,125.6,0,0,1-22.07-1.1,66.83,66.83,0,0,1-15.64-3.93c-6.53-2.54-13.91-5.45-17.29-9.62-3.82-4.73-5.7-9.24-4.54-14.34,1.36-6,4.76-11.91,11.42-16.84a116.94,116.94,0,0,1,11.57-7.61c-1.19-.79-2.46-1.54-3.54-2.37-3.7-2.86-7.55-6-9.62-9.33-2.6-4.14-5.24-8-4-12.37a18.7,18.7,0,0,1,7.26-10.85,75.06,75.06,0,0,1,9.76-6.46c12.07-6.77,29.49-12,46.85-12.84a99.68,99.68,0,0,1,16.87.84c3,.37,5.88.78,8.7,1.4a104.38,104.38,0,0,1,28.08,10.35,134.23,134.23,0,0,1,16.61-5.12c6.73-1.47,13.41-3.32,20.55-4.12,5.48-.6,11-1.22,16.57-1.52a102.69,102.69,0,0,1,11.77,0,118.82,118.82,0,0,1,13.82,1.29c6.83,1.31,13.93,3,19.25,5.82a21.8,21.8,0,0,1,3.69,2.35,14.31,14.31,0,0,1,2.31,2.36c1.65,2.13,3.48,5.2,3.55,7.64a20.78,20.78,0,0,1-4.67,13.82c-3.63,4.4-7.54,8.84-13,12.65-.51.35-1.06.69-1.58,1a50.69,50.69,0,0,1,13.33,7.22,22.25,22.25,0,0,1,4.44,4.71c2.26,3.33,4.49,7.16,3.54,10.76-.57,2.2-.81,4.55-2.22,6.63a24.2,24.2,0,0,1-5.07,5.8c-.5.51-1,1-1.47,1.54a83.7,83.7,0,0,1-18.6,10.69,74.07,74.07,0,0,1-11.76,4.13c-.81.27-1.65.53-2.47.79-4.87,1.08-9.64,2.26-14.74,3a91.17,91.17,0,0,1-13.49.94c-6.44-.3-13.77-.7-19.81-2.14-1.52-.35-2.89-.84-4.35-1.26l.24,8.16c.07,2.2.24,4.41.19,6.61-.15,5-.11,10.05-.52,15.07s-.72,10.25-1.38,15.37c-.45,3.54-.92,7.09-1.37,10.64-.3,2.32-.55,4.64-1,6.95q-1.35,6.76-2.69,13.53l60.75,22.85c.62-.82,1.19-1.65,1.83-2.47a.19.19,0,0,1,.16-.05c.09,0,.18,0,.18.08,0,1.08,0,2.16,0,3.25q38.61,14.5,77.16,29.07c3-.49,6-.9,9.2-1.22.49,0,1-.06,1.58-.06a60.37,60.37,0,0,1,6.1.42A145.51,145.51,0,0,1,1427,880.4c0-.06.11-.09.19-.09s.18,0,.15.09a137.67,137.67,0,0,0,2.26,25.89c5.25,2,398.76,105.12,404,107.11-.56-1.18-389.39-103.52-389.89-104.71-4.3-10.32-6.4-21-8.38-31.49-2.66-13.88-2.66-28-2.49-41.92.12-8.08.33-16.17.91-24.25-5.26-3.49-10.74-6.9-16.67-10.17a71.6,71.6,0,0,0-12.27-7.64,283.58,283.58,0,0,0-26.56-12.8q12.39-19.74,12.5-41.31-4.15-17-8.32-33.91-16.61-32.41-59.89-56.28c-5.21-3.19-10.21-6.26-16-9.1l-48.44-20.52Q1225,610.78,1190.59,604c-20.67-4.15-42.83-6.18-64.43-8.21-4.68-.44-9.39-.88-14.08-1.3q-23.91-16.57-57.94-27.6l-49.53-11.45a378.46,378.46,0,0,0-55.13-4.05h0c-26.51-.37-31-2.31-70.1,3.72-4.73.72-9.45,1.39-14.2,2l-26.55,1q-11.48.34-22.94.75c-5.28.09-10.59,0-15.89,0-3.63,0-7.24-.05-10.81,0q-29.54.06-59,.15-25.05.06-50.14,0l-15.48-11q-38.13-20.76-89.94-28.71c-36-3.23-71.82-6.45-108.21-8.83-2-.13-4-.2-6-.28l43.62,12.58c26.19,7.55,53.15,14.57,78.42,23q72.06,24,144.09,48l110.4,36.78c11.2,3.73,21.74,8.29,32.5,12.38l38.34,14.63-80.34-17.4L684.74,609.21C658.31,603.48,630.81,599,603.9,594L568,587.36,610.35,603q87.28,37.8,174.35,75.72c28.5,12.39,54.7,26.68,81.19,40.3,3.77,1.94,7.44,3.93,11.18,5.89l49.49,12.51C933.58,739.21,941.12,740.74,947.86,742.84Z"/><path class="cls-3" d="M1265.14,822.47c.45-3.55.92-7.1,1.37-10.64.66-5.12,1-10.25,1.38-15.37s.37-10.05.52-15.07c0-2.2-.12-4.41-.19-6.61l-.24-8.16c1.46.42,2.83.91,4.35,1.26,6,1.44,13.37,1.84,19.81,2.14a91.17,91.17,0,0,0,13.49-.94c5.1-.7,9.87-1.88,14.74-3,.82-.26,1.66-.52,2.47-.79a74.07,74.07,0,0,0,11.76-4.13,83.7,83.7,0,0,0,18.6-10.69c.49-.51,1-1,1.47-1.54a24.2,24.2,0,0,0,5.07-5.8c1.41-2.08,1.65-4.43,2.22-6.63,1-3.6-1.28-7.43-3.54-10.76a22.25,22.25,0,0,0-4.44-4.71,50.69,50.69,0,0,0-13.33-7.22c.52-.35,1.07-.69,1.58-1,5.47-3.81,9.38-8.25,13-12.65a20.78,20.78,0,0,0,4.67-13.82c-.07-2.44-1.9-5.51-3.55-7.64a14.31,14.31,0,0,0-2.31-2.36,21.8,21.8,0,0,0-3.69-2.35c-5.32-2.79-12.42-4.51-19.25-5.82a118.82,118.82,0,0,0-13.82-1.29,102.69,102.69,0,0,0-11.77,0c-5.56.3-11.09.92-16.57,1.52-7.14.8-13.82,2.65-20.55,4.12a134.23,134.23,0,0,0-16.61,5.12,104.38,104.38,0,0,0-28.08-10.35c-2.82-.62-5.74-1-8.7-1.4a99.68,99.68,0,0,0-16.87-.84c-17.36.82-34.78,6.07-46.85,12.84a75.06,75.06,0,0,0-9.76,6.46,18.7,18.7,0,0,0-7.26,10.85c-1.23,4.41,1.41,8.23,4,12.37,2.07,3.35,5.92,6.47,9.62,9.33,1.08.83,2.35,1.58,3.54,2.37a116.94,116.94,0,0,0-11.57,7.61c-6.66,4.93-10.06,10.86-11.42,16.84-1.16,5.1.72,9.61,4.54,14.34,3.38,4.17,10.76,7.08,17.29,9.62a66.83,66.83,0,0,0,15.64,3.93,125.6,125.6,0,0,0,22.07,1.1,137.07,137.07,0,0,0,41-8.43,139.1,139.1,0,0,0,15.88-7l.7.38c.25,2,.45,4.11.62,6.17.24,3,.27,6.07.33,9.1s.12,5.78.16,8.67c0,2.45-.18,4.91-.27,7.37s-.07,4.66-.28,7c-.29,3.1-.58,6.2-.85,9.29-.47,5.16-1.14,10.3-1.83,15.44-.31,2.35-.63,4.7-.94,7.06-.5,2.53-1,5.06-1.47,7.59l20.43,7.68q1.35-6.76,2.69-13.53C1264.59,827.11,1264.84,824.79,1265.14,822.47Zm24-119.55a14.26,14.26,0,0,1,2.38,1.87l-1.69-.12c-.38,0-.77,0-1.15,0-.88-.79-1.82-1.58-2.61-2.4C1287.15,702.45,1288.18,702.67,1289.18,702.92Zm-131.92-6.26c.38,0,.76-.09,1.14-.11h0Z"/><path class="cls-3" d="M1222.37,499.37l-.06-.08,0,0Z"/></svg>