<svg id="Layer_1" data-name="Layer 1" xmlns="http://www.w3.org/2000/svg" viewBox="0 0 1920 1080"><defs><style>.cls-1{fill:#ff316c;}.cls-2{fill:#ea93a8;}.cls-3{fill:#1a1a1a;}</style></defs><title>winger5</title><rect class="cls-1" width="1920" height="1080"/><path class="cls-2" d="M1109,462.8c86.3,52.8,166.59,109.54,233.52,170.29q13.05,11.83,25.61,23.85c44.72,24.34,86.93,50,126,77.38,29.62,20.71,58.93,41.54,87.08,62.84,5.32-4.73,10.58-9.48,16-14.2,21-18.52,42.78-36.85,63.25-55.58h0s.06,0,0,0c-16.2,30.82-32.78,61.6-50.43,92.18,8.33,6.63,16.56,13.3,24.57,20,12,10.11,23.47,20.36,34.73,30.67a45.47,45.47,0,0,1,3-5,51.59,51.59,0,0,1,10-10.27c-1.41-2.12-2.76-4.25-4.23-6.36,0-.06.06-.11.17-.11a.2.2,0,0,1,.11,0c2.55,1.22,5,2.51,7.49,3.76,2.87-2.15,5.85-4.25,8.91-6.29a.47.47,0,0,1,.16,0c.12,0,.22.07.18.14a92.56,92.56,0,0,0-4,8.84l.11.06c1.37-1.89,2.7-3.8,4.1-5.69,10.24-13.79,21.27-27.48,34.34-40.5a.26.26,0,0,1,.17,0c.09,0,.17,0,.17.08-2.21,14.23-1.93,28.54-2.94,42.8-.49,7.31-1.33,14.61-2.44,21.89,8.1,4.88,16,9.85,23.57,15,6.56,4.49,13,9.08,19.06,13.72a121.22,121.22,0,0,1,13.55,12c-4-12.75-7.64-25.52-11.44-38.29,0-.08.08-.14.17-.14a.12.12,0,0,1,.12,0c18,20.2,35.45,40.57,51.39,61.29-5.8-9.49-11.81-18.94-17.54-28.42-16.13-26.65-37.06-52.28-56-78.34.29.34.56.66.82,1q-6.83-8.82-13.55-17.66c.17.25.4.53.57.78-4.75-5.71-9.51-11.41-15-16.95,0-.08.08-.15.22-.15l.12,0a497.25,497.25,0,0,1,47.46,27.15c20.42,13.1,40.11,26.4,58.5,40.4,2.91,2.22,5.58,4.52,8.31,6.8.15-.59.31-1.19.45-1.78,1-4.24,2.06-8.46,3.45-12.67,1.32-4,2.43-8,3.36-12,.21-1.12.41-2.24.62-3.36a72.13,72.13,0,0,0,.81-9.72c0-3.52-.08-7-.15-10.57,0-.1,0-.21,0-.32-.48.16-.95.35-1.43.5a84.69,84.69,0,0,1-11.89,3c-7.57,1.18-15.89,1.56-23.28-.21-6.82-1.64-13.54-5.18-13.8-9.54-.24-3.8,1.79-7.88,6.84-10.65a55.19,55.19,0,0,1,9.86-4.1l.08,0,1.7-.76c-4.64-2.14-8.55-4.74-10.15-8a8.36,8.36,0,0,1-1-2.67c-.08-.31-.15-.61-.24-.91a14.6,14.6,0,0,1,.73-3.72,11,11,0,0,1,2.84-3.62,19.26,19.26,0,0,1,4-2.8l.62-.33c8.52-4.42,21.61-4.55,31.84-1.88a44.54,44.54,0,0,1,13.29,5.73,32.08,32.08,0,0,1,5.17-1.48,26,26,0,0,1,2.56-.74,18.48,18.48,0,0,1,4.72-.69,27.32,27.32,0,0,1,6.06.63,15.3,15.3,0,0,1,3.85,1.32c.37.22.64.45,1,.67,1-5.52,2-11,3.06-16.56.54-2.82,1-5.63,1.58-8.45l-1.37-.68c-33.93-16.77-69.47-32.66-104.58-48.68-29.34-13.39-58.8-26.76-88.82-39.71-87.6-37.77-176.17-74.9-266.94-110.37-41.73-16.31-84.08-32.11-126.24-48.07-35.29-13.34-72.46-25.43-108.59-38.09l-128.13-44.95c-7.58-2.67-15.9-4.83-23.82-7.2l-3.7-1.11C1056.74,431.94,1083.39,447.1,1109,462.8Zm113.33,36.57,0,0,0,0Z"/><path class="cls-2" d="M333.42,473.56l126.76,36.55c2,.08,4,.15,6,.28,36.39,2.38,72.16,5.6,108.21,8.83q51.81,7.95,89.94,28.71l15.48,11q25.08.08,50.14,0,29.5-.07,59-.15c3.57,0,7.18,0,10.81,0,5.3,0,10.61.09,15.89,0q11.46-.41,22.94-.75l26.55-1c4.75-.6,9.47-1.27,14.2-2,39.1-6,43.59-4.09,70.1-3.72h0a378.46,378.46,0,0,1,55.13,4.05l49.53,11.45q34,11,57.94,27.6c4.69.42,9.4.86,14.08,1.3,21.6,2,43.76,4.06,64.43,8.21q34.38,6.75,67.46,15.27l48.44,20.52c5.84,2.84,10.84,5.91,16,9.1q43.31,23.88,59.89,56.28,4.17,17,8.32,33.91-.12,21.58-12.5,41.31a283.58,283.58,0,0,1,26.56,12.8,71.6,71.6,0,0,1,12.27,7.64c5.93,3.27,11.41,6.68,16.67,10.17a197.59,197.59,0,0,1,3.11-24.22c0-.07.09-.11.18-.11a.18.18,0,0,1,.16.08c9.73,16.33,21.5,32.26,31.74,48.5,8.82,14,17.12,28.09,25.59,42.15q20-19.18,40.42-38.23c15.16-14.12,30.68-28.1,46.34-42-28.15-21.3-57.46-42.13-87.08-62.84-39.11-27.35-81.32-53-126-77.38q-12.54-12-25.61-23.85C1275.63,572.34,1195.34,515.6,1109,462.8c-25.65-15.7-52.3-30.86-79.63-45.63Q993,406.27,956.66,395.34L800.85,348.61c-24.12-7.22-49.33-13.21-74.29-19.53Q638.5,306.7,550.39,284.35c-39.41-10-78.59-20-119.07-28.7Q285,224.2,138.81,192.74c-6.72-1.44-13.74-2.52-20.63-3.74L43.62,175.75,24.78,172.4l4.71,22.44c5.06,24.22,10,48.45,15.14,72.66q3.56,10.81,7.1,21.62Q56.86,304.71,62,320.29q4.91,3.57,9.3,7.42c31.34,27.39,62.52,54.86,94.45,82.05q9.43,8.06,19.13,16c2.65,2.17,5.34,4.34,8,6.51s5.67,4.6,8.53,6.9L265,454.79C288.4,460.53,310.74,467,333.42,473.56Zm683.09-57,0,.15v0C1016.48,416.66,1016.5,416.6,1016.51,416.54Zm0,.21h0l0,.06A.11.11,0,0,0,1016.46,416.75Z"/><path class="cls-2" d="M1289.87,704.67l1.69.12a14.26,14.26,0,0,0-2.38-1.87c-1-.25-2-.47-3.07-.67.79.82,1.73,1.61,2.61,2.4C1289.1,704.67,1289.49,704.65,1289.87,704.67Z"/><path class="cls-2" d="M947.86,742.84Q996.42,757.9,1045,773l139.2,43.24c12.23,3.79,24.16,7.55,35.91,11.54-.36-.72-.68-1.44-1-2.16,0-.08,0-.12.16-.12a.3.3,0,0,1,.18.06c1.64,1.18,3.18,2.4,4.77,3.6,4.89,1.69,9.74,3.42,14.56,5.24l2.31.87c.49-2.53,1-5.06,1.47-7.59.31-2.36.63-4.71.94-7.06.69-5.14,1.36-10.28,1.83-15.44.27-3.09.56-6.19.85-9.29.21-2.33.18-4.67.28-7s.31-4.92.27-7.37c0-2.89-.11-5.78-.16-8.67s-.09-6.06-.33-9.1c-.17-2.06-.37-4.12-.62-6.17l-.7-.38a139.1,139.1,0,0,1-15.88,7,137.07,137.07,0,0,1-41,8.43,125.6,125.6,0,0,1-22.07-1.1,66.83,66.83,0,0,1-15.64-3.93c-6.53-2.54-13.91-5.45-17.29-9.62-3.82-4.73-5.7-9.24-4.54-14.34,1.36-6,4.76-11.91,11.42-16.84a116.94,116.94,0,0,1,11.57-7.61c-1.19-.79-2.46-1.54-3.54-2.37-3.7-2.86-7.55-6-9.62-9.33-2.6-4.14-5.24-8-4-12.37a18.7,18.7,0,0,1,7.26-10.85,75.06,75.06,0,0,1,9.76-6.46c12.07-6.77,29.49-12,46.85-12.84a99.68,99.68,0,0,1,16.87.84c3,.37,5.88.78,8.7,1.4a104.38,104.38,0,0,1,28.08,10.35,134.23,134.23,0,0,1,16.61-5.12c6.73-1.47,13.41-3.32,20.55-4.12,5.48-.6,11-1.22,16.57-1.52a102.69,102.69,0,0,1,11.77,0,118.82,118.82,0,0,1,13.82,1.29c6.83,1.31,13.93,3,19.25,5.82a21.8,21.8,0,0,1,3.69,2.35,14.31,14.31,0,0,1,2.31,2.36c1.65,2.13,3.48,5.2,3.55,7.64a20.78,20.78,0,0,1-4.67,13.82c-3.63,4.4-7.54,8.84-13,12.65-.51.35-1.06.69-1.58,1a50.69,50.69,0,0,1,13.33,7.22,22.25,22.25,0,0,1,4.44,4.71c2.26,3.33,4.49,7.16,3.54,10.76-.57,2.2-.81,4.55-2.22,6.63a24.2,24.2,0,0,1-5.07,5.8c-.5.51-1,1-1.47,1.54a83.7,83.7,0,0,1-18.6,10.69,74.07,74.07,0,0,1-11.76,4.13c-.81.27-1.65.53-2.47.79-4.87,1.08-9.64,2.26-14.74,3a91.17,91.17,0,0,1-13.49.94c-6.44-.3-13.77-.7-19.81-2.14-1.52-.35-2.89-.84-4.35-1.26l.24,8.16c.07,2.2.24,4.41.19,6.61-.15,5-.11,10.05-.52,15.07s-.72,10.25-1.38,15.37c-.45,3.54-.92,7.09-1.37,10.64-.3,2.32-.55,4.64-1,6.95q-1.35,6.76-2.69,13.53l60.75,22.85c.62-.82,1.19-1.65,1.83-2.47a.19.19,0,0,1,.16-.05c.09,0,.18,0,.18.08,0,1.08,0,2.16,0,3.25q38.61,14.5,77.16,29.07c3-.49,6-.9,9.2-1.22.49,0,1-.06,1.58-.06a60.37,60.37,0,0,1,6.1.42A145.51,145.51,0,0,1,1427,880.4c0-.06.11-.09.19-.09s.18,0,.15.09a137.67,137.67,0,0,0,2.26,25.89c5.25,2,398.76,105.12,404,107.11-.56-1.18-389.39-103.52-389.89-104.71-4.3-10.32-6.4-21-8.38-31.49-2.66-13.88-2.66-28-2.49-41.92.12-8.08.33-16.17.91-24.25-5.26-3.49-10.74-6.9-16.67-10.17a71.6,71.6,0,0,0-12.27-7.64,283.58,283.58,0,0,0-26.56-12.8q12.39-19.74,12.5-41.31-4.15-17-8.32-33.91-16.61-32.41-59.89-56.28c-5.21-3.19-10.21-6.26-16-9.1l-48.44-20.52Q1225,610.78,1190.59,604c-20.67-4.15-42.83-6.18-64.43-8.21-4.68-.44-9.39-.88-14.08-1.3q-23.91-16.57-57.94-27.6l-49.53-11.45a378.46,378.46,0,0,0-55.13-4.05h0c-26.51-.37-31-2.31-70.1,3.72-4.73.72-9.45,1.39-14.2,2l-26.55,1q-11.48.34-22.94.75c-5.28.09-10.59,0-15.89,0-3.63,0-7.24-.05-10.81,0q-29.54.06-59,.15-25.05.06-50.14,0l-15.48-11q-38.13-20.76-89.94-28.71c-36-3.23-71.82-6.45-108.21-8.83-2-.13-4-.2-6-.28l43.62,12.58c26.19,7.55,53.15,14.57,78.42,23q72.06,24,144.09,48l110.4,36.78c11.2,3.73,21.74,8.29,32.5,12.38l38.34,14.63-80.34-17.4L684.74,609.21C658.31,603.48,630.81,599,603.9,594L568,587.36,610.35,603q87.28,37.8,174.35,75.72c28.5,12.39,54.7,26.68,81.19,40.3,3.77,1.94,7.44,3.93,11.18,5.89l49.49,12.51C933.58,739.21,941.12,740.74,947.86,742.84Z"/><path class="cls-3" d="M1265.14,822.47c.45-3.55.92-7.1,1.37-10.64.66-5.12,1-10.25,1.38-15.37s.37-10.05.52-15.07c0-2.2-.12-4.41-.19-6.61l-.24-8.16c1.46.42,2.83.91,4.35,1.26,6,1.44,13.37,1.84,19.81,2.14a91.17,91.17,0,0,0,13.49-.94c5.1-.7,9.87-1.88,14.74-3,.82-.26,1.66-.52,2.47-.79a74.07,74.07,0,0,0,11.76-4.13,83.7,83.7,0,0,0,18.6-10.69c.49-.51,1-1,1.47-1.54a24.2,24.2,0,0,0,5.07-5.8c1.41-2.08,1.65-4.43,2.22-6.63,1-3.6-1.28-7.43-3.54-10.76a22.25,22.25,0,0,0-4.44-4.71,50.69,50.69,0,0,0-13.33-7.22c.52-.35,1.07-.69,1.58-1,5.47-3.81,9.38-8.25,13-12.65a20.78,20.78,0,0,0,4.67-13.82c-.07-2.44-1.9-5.51-3.55-7.64a14.31,14.31,0,0,0-2.31-2.36,21.8,21.8,0,0,0-3.69-2.35c-5.32-2.79-12.42-4.51-19.25-5.82a118.82,118.82,0,0,0-13.82-1.29,102.69,102.69,0,0,0-11.77,0c-5.56.3-11.09.92-16.57,1.52-7.14.8-13.82,2.65-20.55,4.12a134.23,134.23,0,0,0-16.61,5.12,104.38,104.38,0,0,0-28.08-10.35c-2.82-.62-5.74-1-8.7-1.4a99.68,99.68,0,0,0-16.87-.84c-17.36.82-34.78,6.07-46.85,12.84a75.06,75.06,0,0,0-9.76,6.46,18.7,18.7,0,0,0-7.26,10.85c-1.23,4.41,1.41,8.23,4,12.37,2.07,3.35,5.92,6.47,9.62,9.33,1.08.83,2.35,1.58,3.54,2.37a116.94,116.94,0,0,0-11.57,7.61c-6.66,4.93-10.06,10.86-11.42,16.84-1.16,5.1.72,9.61,4.54,14.34,3.38,4.17,10.76,7.08,17.29,9.62a66.83,66.83,0,0,0,15.64,3.93,125.6,125.6,0,0,0,22.07,1.1,137.07,137.07,0,0,0,41-8.43,139.1,139.1,0,0,0,15.88-7l.7.38c.25,2,.45,4.11.62,6.17.24,3,.27,6.07.33,9.1s.12,5.78.16,8.67c0,2.45-.18,4.91-.27,7.37s-.07,4.66-.28,7c-.29,3.1-.58,6.2-.85,9.29-.47,5.16-1.14,10.3-1.83,15.44-.31,2.35-.63,4.7-.94,7.06-.5,2.53-1,5.06-1.47,7.59l20.43,7.68q1.35-6.76,2.69-13.53C1264.59,827.11,1264.84,824.79,1265.14,822.47Zm24-119.55a14.26,14.26,0,0,1,2.38,1.87l-1.69-.12c-.38,0-.77,0-1.15,0-.88-.79-1.82-1.58-2.61-2.4C1287.15,702.45,1288.18,702.67,1289.18,702.92Zm-131.92-6.26c.38,0,.76-.09,1.14-.11h0Z"/><path class="cls-3" d="M1222.37,499.37l-.06-.08,0,0Z"/><path class="cls-3" d="M608.6,95.26c-.34.19-2.57,1.51-2.52,2a12.16,12.16,0,0,1,0,1.91c-.28.52-.6,1-.93,1.52a38.33,38.33,0,0,1-3.54,3.44,158.47,158.47,0,0,1-17.64,10c-5.93,3-11.95,5.85-18,8.54-7.68,3.08-15.45,5.94-23.32,8.5a212.26,212.26,0,0,1-24.75,6.43c-6.55.49-13.14.77-19.68,1-4.88.19-9.76.44-14.61,1.06-12.15,1.54-24.77,2.65-36.69,5.95a119.89,119.89,0,0,0-13.5,4.72c-11.09,4.6-21.88,8.74-32.17,14.74-4.09,2.39-8,5-11.88,7.79a321.48,321.48,0,0,0-25.54,20.11,154.29,154.29,0,0,0-18.92,20.33c-8.51,10.83-16.73,21.15-22.69,33.56a197.5,197.5,0,0,0-9,21.53c-2.42,7.11-3.13,14.6-4.11,22a67.62,67.62,0,0,0-.48,11.73,91.65,91.65,0,0,0,2.8,19.57c3.09,11.55,9,22,15,32.26,2.74,4.67,5.36,9.63,8.76,13.84h0c.16-.46.33-.91.51-1.36,1.89-4.15,4.27-8.09,6.53-12A242,242,0,0,1,355,333.6a64.32,64.32,0,0,1,6.68-6.63,74.5,74.5,0,0,1,7.73-4.63,141.34,141.34,0,0,1,22.73-5.52c24.49-2.69,49.22-3.18,73.79-4.85,7.16-.48,14.24-1.39,21.36-2.23,14.8-1.74,29.66-3.31,44.19-6.67,13.62-3.14,26.06-9,38.9-14.61,9.2-4,17.33-10.11,25.21-16.34,8.1-6.1,15.93-12.32,22.57-20.11,8.08-9.48,16.24-19.39,22.22-30.4,4-7.34,7.06-15.59,10.21-23.14a77.54,77.54,0,0,0,3.31-9.74c1.94-7.34,2.62-15.56,3.55-22.87a60.49,60.49,0,0,0,.46-9.42,133.54,133.54,0,0,0-2.47-19.72,44.18,44.18,0,0,0-2.31-8.06c-3.69-9.59-8.26-19.1-16.44-25.74-6.28-5.1-12.92-8.92-21.18-9.26H615a13.11,13.11,0,0,0-6.35,1.61Z"/><path class="cls-3" d="M416.36,181.65a32.86,32.86,0,0,0-5.15,1.37c-5.37,1.9-11.71,4.13-16.64,7.54-11.6,8-18.57,14.86-26.44,26.69a41.89,41.89,0,0,0-3,5.55,188.51,188.51,0,0,0-8.33,20.31,46.39,46.39,0,0,0-1.6,6.45c-1.36,7.47-2.31,15-3,22.6-.93,10.53,1.3,21.25,2.75,31.55a59.5,59.5,0,0,0,3.56,13.52c3.81,9.65,7.47,19.46,13.34,28.06a188.53,188.53,0,0,0,18,22.76c6.52,7,14.57,12.64,22.16,18.24a98.26,98.26,0,0,0,16.67,9.61c9.14,4.28,18.44,8.26,28.25,10.7a156.18,156.18,0,0,0,18.57,2.92,52.94,52.94,0,0,0,8.54.26,158,158,0,0,0,24.83-3c6.72-1.34,13.37-3.1,20-4.62,3.87-.87,7.77-1.72,11.59-2.8,0,0,0,0,0,0-.33-.37-.65-.75-1-1.14-3.23-4.29-6.15-8.81-9.07-13.31s-6.05-8.87-8.93-13.4A159,159,0,0,1,512,354.25c-1-2.77-1.95-5.58-2.85-8.39-1.62-5.1-3.49-10.08-5.35-15.1-3.85-10.46-7.42-21-10.79-31.65-3.61-11.39-7.33-22.71-11.51-33.9-2.2-5.89-4.26-11.83-6-17.86-.69-2.43-1.41-4.85-2.07-7.28,1.8-1.83,3.69-3.58,5.64-5.24a59.69,59.69,0,0,1,7.93-4.89,30.52,30.52,0,0,1,3.51-1,24.06,24.06,0,0,1,2.94,0,25.47,25.47,0,0,1,3.78,1,18.53,18.53,0,0,1,3,1.72,6.4,6.4,0,0,1,.67.71,18.68,18.68,0,0,1,1.23,1.86s0,0,0,0c4.16-6.65.86-16-2.33-22.38-2-4-5.12-7.55-8.18-10.74-3.9-4.07-9-7.32-13.85-10.18-5.18-3.06-11.07-5.14-16.77-7.08-7.13-2.43-14.57-3.23-22-4.07a44.5,44.5,0,0,0-4.89-.26c-5.94,0-11.87,1.06-17.72,2.08Zm84.56,50.8.16.21-.16-.21Z"/><path class="cls-3" d="M557.33,198.12c-6.7.47-13.5,1.21-19.91,3.28-9.59,3.1-18.9,8.2-25.53,15.94-3.14,3.67-6,7.8-7,12.64-1.24,6.07.52,12,5.9,14.85h0l0,0a13.56,13.56,0,0,0,2.05.86l-.43-.18c.84.33,1.69.63,2.54.92-.07.82-.15,1.63-.26,2.45l.33-2.43,0,0-.39,3.2c-1.69,12.35-3.11,24.55-3.19,37.1,0,2.89.34,5.82.56,8.71.26,3.67.39,7.38.86,11,1.92,15,3.82,30,6.24,44.87,1.23,7.52,3.87,14.76,5.61,22.17q1.34,5.7,2.47,11.5a201.66,201.66,0,0,1-.32,30.4A193.51,193.51,0,0,1,516.81,450q-2.43,5.66-4.84,11.32l3.41-8.07c-13.81,31.17-27.57,62.34-43.78,92.36-6.25,11.58-12.47,23.19-18.56,34.87q-4.67,8.93-9.54,17.74c-3.37,6.13-6.75,12.51-10.94,18.13,0,0,0,0,0,0,13.58-3.14,27.07-6.62,40.7-9.56C486.17,604.07,499,601,511.83,598c5-1.19,10-2.87,14.91-4.44a375.18,375.18,0,0,0,36.45-14.23A191.63,191.63,0,0,0,588,566c3.74-2.36,7.37-4.9,10.9-7.56,8.17-6.15,16.5-12.34,24.08-19.26,11.49-10.49,20.46-22.86,29.91-35.23a185.65,185.65,0,0,0,15.8-24.53c2.2-4.09,4.21-8.29,6.09-12.53,4.71-10.64,9.48-21.31,13-32.4,5.25-16.31,7.17-32.89,9.35-49.9a130.91,130.91,0,0,0,.77-29.67c-1.28-12.19-2.88-24.41-5.15-36.46-2.37-12.56-7.54-22.88-12.72-35a105.75,105.75,0,0,0-6.35-12.46c-1.2-2-2.5-4-3.82-5.92a191.36,191.36,0,0,0-17.33-22.24c-8.3-9-18.41-16.74-28.46-23.47q-4.44-3-9-5.75a75.2,75.2,0,0,0-8.13-3.81l-3.19-1.44c-6.77-3-12-5.45-18.59-7.33a99.41,99.41,0,0,0-19-3c-1.27-.11-2.55-.15-3.82-.15-1.7,0-3.39.08-5.07.2Zm-41.7,43.8-.15,1.14v0l.15-1.11Z"/><path class="cls-3" d="M585.57,194.58c-4.72,2.88-8.09,7-11.36,11.33-7.44,9.94-10.74,22.64-11.17,34.9a66.49,66.49,0,0,0,2.88,20.62,100.64,100.64,0,0,0,5.88,14.22,39.25,39.25,0,0,0,3.79,6.28,110.21,110.21,0,0,0,10.08,12.52c3.79,3.87,8.52,7,12.8,10.18a30.93,30.93,0,0,0,5.64,3.16c5.54,2.47,10.79,5,16.71,6.13a109.88,109.88,0,0,0,16.7,2c5.25.15,11.32-1.05,16.15-1.77,7.41-1.11,14.59-4.44,21.18-7.78,5.8-2.93,11.21-7.28,16-11.53,4.58-4,8.27-9.36,11.56-14.47a79.57,79.57,0,0,0,10.07-25.1c.27-1.17.53-2.31.73-3.49l0,0c-.45,0-.89-.07-1.33-.12-5.24-.88-10.36-2.4-15.55-3.51-13.63-2.9-27.37-6-40.43-11-11.95-5.36-23.66-11.47-34.32-19.08-5-4.14-9.62-8.56-14.36-13-4.44-4.14-9.49-7.83-13.45-12.45a3.48,3.48,0,0,0-.5-.65h-.09a15.39,15.39,0,0,0-7.6,2.58Z"/><path class="cls-3" d="M712.27,75.06l.15-.12c-2.44,1.8-4.91,3.57-7.19,5.58a61.87,61.87,0,0,0-10.58,12.84c-1.15,1.76-2.09,3.63-3.07,5.5a84.49,84.49,0,0,0-9.83,37.51c-.12,6.52,1.14,13.16,2.13,19.55a28.64,28.64,0,0,0,1.5,4.91c1.42,3.93,3.13,7.78,4.88,11.58,3.43,7.44,9.54,16.16,17.86,18.42a28.22,28.22,0,0,0,14.76-.43c7.12-2,12.44-6,18-10.76,4.39-3.76,7.88-8.91,10.77-13.91,5.3-9.17,7.06-18.92,7.78-29.36.71-10.08-2.7-19.51-6.89-28.4C750,102.52,745.84,97.69,742,93.16a44.68,44.68,0,0,0-5.73-5.53c-4.84-4-9.26-7.32-14.92-9.76-.92-.4-6-3-8.27-3a1.33,1.33,0,0,0-.81.21Z"/><path class="cls-3" d="M554.37,589.62c-10.33,1.68-20.19,6.76-29.47,11-9.57,4.43-18.61,12.44-26.48,18.73a75.63,75.63,0,0,0-9.83,9.44c-6.53,7.49-13,15.54-18,24.19-3.28,5.62-6.46,14.62-8.35,19.28-.69,1.69-1.29,3.39-1.81,5.14-2.26,7.5-3.1,15.85-3.68,23.5-.45,5.95.75,12.61,1.77,18.24a31.69,31.69,0,0,0,7.82,15.29c5.15,5.74,13.81,8.77,20.87,10.86,6.1,1.81,13.43,2.29,19.34,3q4.68.58,9.39.71c12.22.33,24.55-1.68,36.45-4.27,13.11-2.86,25.57-8.74,37.73-14.08s22-13.6,32.38-22c5.59-4.5,10.4-10,15.11-15.4,7.06-8.12,13.6-16.74,20.09-25.3,2.62-3.46,4.85-7.2,7.37-10.74a42.21,42.21,0,0,1,5.22-5.39,63.24,63.24,0,0,1,12.4-7.73s0,0,0,0c-1.22-2-2.59-3.91-3.94-5.82-2.49-3.54-4.67-7.27-7.31-10.69-2.93-3.81-5.81-8-9.44-11.18A141.52,141.52,0,0,0,646.75,605c-6.35-4.23-13.09-6.65-20.23-9.64A96,96,0,0,0,614.16,591c-9.1-2.45-18.68-3.27-28-4.23a58.11,58.11,0,0,0-5.9-.28c-8.68,0-17.35,1.71-25.88,3.09Z"/><path class="cls-3" d="M593.36,645.11a4.66,4.66,0,0,0-.47,1c-.27.38-.56.76-.85,1.14.27-.36.55-.71.82-1.06h0c-11.72,15.45-19.91,33.41-25.07,52.08-2.25,8.16-3.24,16.46-4.31,24.87a66.17,66.17,0,0,0,.2,15.66c1.23,11.71,2.83,23.66,5.08,35.25A178.89,178.89,0,0,0,578.87,807c.45,1.11.89,2.22,1.31,3.34h0a138.94,138.94,0,0,0,30.66-16c7.13-5,14.48-10.71,20-17.6,4.75-5.94,9.42-11.77,12.72-18.64a155.89,155.89,0,0,0,6.6-15.94c2.09-6,2.35-13,3.08-19,1-8.23-.57-16.81-1.79-24.87s-4.45-15.37-7.77-22.8c-2.83-6.35-6.93-11.5-11.22-17-3.67-4.67-8.35-8.2-13.12-11.67-3.91-2.84-11-6.28-17.1-6.28-3.63,0-6.88,1.22-8.88,4.52Zm-.7,2.06v0l0,.11,0-.13Z"/><path class="cls-3" d="M490.74,681.92a44.29,44.29,0,0,0-15.62,16.9,39.38,39.38,0,0,0-4.19,12.09,73.6,73.6,0,0,0-1.1,9.72,48.52,48.52,0,0,0,1.5,10.75c1.71,7.94,6.19,14.93,11.43,20.94a45,45,0,0,0,17.44,11.8h0A55.5,55.5,0,0,1,505.1,760a54.19,54.19,0,0,0,9.68-11,60.28,60.28,0,0,0,8.14-17.58c2.7-9.08,2-18.16.47-27.32a53,53,0,0,0-5.94-16.42c-2.71-4.92-6.89-9.67-12.75-10.21-.36,0-.73,0-1.1,0-4.44,0-9.32,2.34-12.86,4.54Z"/><path class="cls-3" d="M330.59,384.33a30.25,30.25,0,0,0-7.63,2.86c-2.47,1.14-4.81,3.21-6.85,4.84a19.59,19.59,0,0,0-2.54,2.45,40.78,40.78,0,0,0-4.66,6.25,43.51,43.51,0,0,0-2.17,5c-.17.44-.33.88-.46,1.33a28.71,28.71,0,0,0-.95,6.08,19.49,19.49,0,0,0,.45,4.72,8.22,8.22,0,0,0,2,4c1.33,1.48,3.57,2.27,5.4,2.81a33,33,0,0,0,5,.79q1.21.15,2.43.18a39,39,0,0,0,9.43-1.11,52.78,52.78,0,0,0,9.76-3.64c3.16-1.38,5.69-3.52,8.38-5.68a32,32,0,0,0,3.91-4c1.83-2.1,3.52-4.33,5.2-6.54.68-.9,1.25-1.86,1.9-2.78a11.25,11.25,0,0,1,1.36-1.4,16.23,16.23,0,0,1,3.2-2h0c-.31-.52-.67-1-1-1.51-.64-.91-1.21-1.88-1.89-2.76a19.93,19.93,0,0,0-2.44-2.9,37.1,37.1,0,0,0-3.94-3,29.9,29.9,0,0,0-5.23-2.49,26.33,26.33,0,0,0-3.2-1.11,46.83,46.83,0,0,0-7.25-1.09c-.51-.05-1-.07-1.53-.07a41.85,41.85,0,0,0-6.69.8Z"/><path class="cls-3" d="M340.68,398.68a1.66,1.66,0,0,0-.13.27l-.22.3.22-.28h0a39.61,39.61,0,0,0-6.49,13.48,45,45,0,0,0-1.11,6.43,16.72,16.72,0,0,0,.05,4.06c.32,3,.73,6.12,1.31,9.12a46.35,46.35,0,0,0,2.62,8.52c.11.29.23.57.34.86h0a36.27,36.27,0,0,0,7.93-4.14,25,25,0,0,0,5.17-4.56,25.36,25.36,0,0,0,3.29-4.82,38.87,38.87,0,0,0,1.71-4.12,23.91,23.91,0,0,0,.8-4.93,24.32,24.32,0,0,0-.46-6.43,23.37,23.37,0,0,0-2-5.9,21.32,21.32,0,0,0-2.91-4.39,16.53,16.53,0,0,0-3.39-3,8.48,8.48,0,0,0-4.43-1.63,2.5,2.5,0,0,0-2.29,1.17Zm-.19.54h0v0Z"/><path class="cls-3" d="M314.12,408.21a11.55,11.55,0,0,0-4,4.37,10.2,10.2,0,0,0-1.08,3.13,19.7,19.7,0,0,0-.29,2.51,13.21,13.21,0,0,0,.39,2.79,12.3,12.3,0,0,0,3,5.41,11.57,11.57,0,0,0,4.51,3.06h0a16.17,16.17,0,0,1,1.26-1.07,13.65,13.65,0,0,0,2.5-2.85,14.56,14.56,0,0,0,2.23-11.61,13.61,13.61,0,0,0-1.53-4.25,4.57,4.57,0,0,0-3.3-2.64l-.29,0a6.89,6.89,0,0,0-3.33,1.18Z"/><path class="cls-3" d="M330.59,462.6a30.64,30.64,0,0,0-7.63,2.86c-2.47,1.15-4.81,3.22-6.85,4.85a20.19,20.19,0,0,0-2.54,2.44,41.36,41.36,0,0,0-4.66,6.26,42.76,42.76,0,0,0-2.17,5c-.17.43-.33.88-.46,1.33a28.71,28.71,0,0,0-.95,6.08,19.49,19.49,0,0,0,.45,4.72,8.22,8.22,0,0,0,2,4c1.33,1.48,3.57,2.26,5.4,2.8a31.82,31.82,0,0,0,5,.79c.81.1,1.62.17,2.43.19a40,40,0,0,0,9.43-1.11,52.78,52.78,0,0,0,9.76-3.64c3.16-1.38,5.69-3.52,8.38-5.68a32,32,0,0,0,3.91-4c1.83-2.1,3.52-4.33,5.2-6.55.68-.89,1.25-1.86,1.9-2.77a11.25,11.25,0,0,1,1.36-1.4,15.82,15.82,0,0,1,3.2-2h0c-.31-.52-.67-1-1-1.51-.64-.92-1.21-1.88-1.89-2.77a20.4,20.4,0,0,0-2.44-2.89,35.81,35.81,0,0,0-3.94-3,29.9,29.9,0,0,0-5.23-2.49,24.73,24.73,0,0,0-3.2-1.11,45.65,45.65,0,0,0-7.25-1.09c-.51-.05-1-.08-1.53-.08a43,43,0,0,0-6.69.8Z"/><path class="cls-3" d="M340.68,477a1.34,1.34,0,0,0-.13.27,3.15,3.15,0,0,1-.22.29l.22-.27h0a39.52,39.52,0,0,0-6.49,13.48,44.78,44.78,0,0,0-1.11,6.43,16.63,16.63,0,0,0,.05,4c.32,3,.73,6.12,1.31,9.12a46.21,46.21,0,0,0,2.62,8.53c.11.28.23.57.34.86h0a35.85,35.85,0,0,0,7.93-4.14,24.66,24.66,0,0,0,5.17-4.55,25.68,25.68,0,0,0,3.29-4.82,38.18,38.18,0,0,0,1.71-4.13,23.82,23.82,0,0,0,.8-4.92,24.32,24.32,0,0,0-.46-6.43,23.37,23.37,0,0,0-2-5.9,21.38,21.38,0,0,0-2.91-4.4,16.48,16.48,0,0,0-3.39-3,8.48,8.48,0,0,0-4.43-1.63,2.5,2.5,0,0,0-2.29,1.17Zm-.19.53h0v0Z"/><path class="cls-3" d="M314.12,486.48a11.65,11.65,0,0,0-4,4.38A10.11,10.11,0,0,0,309,494a19.7,19.7,0,0,0-.29,2.51,13.12,13.12,0,0,0,.39,2.78,12.34,12.34,0,0,0,3,5.42,11.54,11.54,0,0,0,4.51,3.05h0a14.24,14.24,0,0,1,1.26-1.07,13.9,13.9,0,0,0,2.5-2.85,14.6,14.6,0,0,0,2.23-11.62A13.64,13.64,0,0,0,321,488a4.56,4.56,0,0,0-3.3-2.65h-.29a7,7,0,0,0-3.33,1.17Z"/><path class="cls-3" d="M330.59,540.88a30.64,30.64,0,0,0-7.63,2.86c-2.47,1.15-4.81,3.22-6.85,4.85a19.51,19.51,0,0,0-2.54,2.44,40.86,40.86,0,0,0-4.66,6.26,42.67,42.67,0,0,0-2.17,5c-.17.44-.33.88-.46,1.33a28.91,28.91,0,0,0-.95,6.08,19.44,19.44,0,0,0,.45,4.72,8.22,8.22,0,0,0,2,4c1.33,1.49,3.57,2.27,5.4,2.81a33,33,0,0,0,5,.79q1.21.15,2.43.18a39.46,39.46,0,0,0,9.43-1.1,52.78,52.78,0,0,0,9.76-3.64c3.16-1.39,5.69-3.52,8.38-5.69a31.29,31.29,0,0,0,3.91-4c1.83-2.1,3.52-4.33,5.2-6.55.68-.89,1.25-1.86,1.9-2.78a11.16,11.16,0,0,1,1.36-1.39,15.82,15.82,0,0,1,3.2-2h0c-.31-.52-.67-1-1-1.5-.64-.92-1.21-1.88-1.89-2.77a19.85,19.85,0,0,0-2.44-2.89,35.81,35.81,0,0,0-3.94-3,29.94,29.94,0,0,0-5.23-2.5,26.28,26.28,0,0,0-3.2-1.1,45.67,45.67,0,0,0-7.25-1.1c-.51,0-1-.07-1.53-.07a41.85,41.85,0,0,0-6.69.8Z"/><path class="cls-3" d="M340.68,555.24a1.13,1.13,0,0,0-.13.27l-.22.29.22-.27h0A39.47,39.47,0,0,0,334.06,569a44.91,44.91,0,0,0-1.11,6.44,16.63,16.63,0,0,0,.05,4c.32,3,.73,6.12,1.31,9.12a46.11,46.11,0,0,0,2.62,8.52l.34.87h0a35.85,35.85,0,0,0,7.93-4.14,24.94,24.94,0,0,0,5.17-4.55,25.43,25.43,0,0,0,3.29-4.83,38.87,38.87,0,0,0,1.71-4.12,23.93,23.93,0,0,0,.8-4.92,24.42,24.42,0,0,0-.46-6.44,23.51,23.51,0,0,0-2-5.9,21.59,21.59,0,0,0-2.91-4.39,16.53,16.53,0,0,0-3.39-3,8.56,8.56,0,0,0-4.43-1.62,2.48,2.48,0,0,0-2.29,1.17Zm-.19.53h0v0Z"/><path class="cls-3" d="M314.12,564.76a11.55,11.55,0,0,0-4,4.37,10.2,10.2,0,0,0-1.08,3.13,19.65,19.65,0,0,0-.29,2.52,13.21,13.21,0,0,0,.39,2.78,12.39,12.39,0,0,0,3,5.42,11.65,11.65,0,0,0,4.51,3h0a16.29,16.29,0,0,1,1.26-1.08,13.85,13.85,0,0,0,2.5-2.84,15.71,15.71,0,0,0,2.11-4.55,15.49,15.49,0,0,0,.12-7.07,13.61,13.61,0,0,0-1.53-4.25,4.57,4.57,0,0,0-3.3-2.64h-.29a6.88,6.88,0,0,0-3.33,1.17Z"/><path class="cls-2" d="M477.52,157.8c-6.85.77-13.72,1.63-20.51,2.88-9.08,1.68-17.63,5.65-25.93,9.48-7.7,3.56-14.71,9.64-21,14.91a38.86,38.86,0,0,0-4.46,4.61,118.07,118.07,0,0,0-11.6,15.5,32.41,32.41,0,0,0-1.47,2.95c-2.23,4.91-4.4,9.86-6.2,15-2.23,6.27-2.72,13.71-3.35,20a39.52,39.52,0,0,0,.08,7.69c.59,6.19,1.09,12.69,3.27,18.6a104.48,104.48,0,0,0,6.54,14.78,72.18,72.18,0,0,0,9.25,12.43,37.71,37.71,0,0,0,4.88,4.49c3.63,2.86,6.78,5.57,10.94,7.41a72.68,72.68,0,0,0,17,5.55l7.77,1.39c3.34.6,6.71,1.26,10.09,1.54,0,0,0,0,0,0-.07-.41-.14-.82-.2-1.23-.21-2.39-.27-4.79-.26-7.2,0-4.83,0-9.63.4-14.43a42.66,42.66,0,0,1,1.21-4.43,95.76,95.76,0,0,1,6.46-11,101.22,101.22,0,0,1,8.72-8.61c5.86-3.87,12.08-7.08,18.3-10.39,5.92-3.15,11.65-6.7,17.43-10.1s11.42-7.11,17-10.85c3.24-2.17,6.39-4.46,9.48-6.85,8-6.16,16.22-12.06,22.64-19.93,3.83-4.69,7.53-9.42,10.25-14.84a74.69,74.69,0,0,0,6.09-16.16,61.59,61.59,0,0,0,.64-23h0c-6.3.31-12.55,1.2-18.85,1.58a157.71,157.71,0,0,1-23.91-.19c-9.66-.88-19.25-2.09-28.95-2.35-1.48,0-3-.06-4.43-.06a155.39,155.39,0,0,0-17.25.94Z"/><path class="cls-2" d="M597.56,327.82c-4.18,6.8-7,14.28-10,21.67a215.74,215.74,0,0,0-8.35,26.13c-2.28,9-4.17,18.18-6.08,27.3a238,238,0,0,0-4.3,29,161.55,161.55,0,0,0-.27,20.64c.16,3.62.26,7.23.5,10.84.44,6.43,1.13,12.81,1.16,19.26,0,5.94-.32,11.85-.59,17.78-.22,4.87-.44,9.77-1.06,14.6v0l-.12.85s0,0,0,0c4.8-3.3,9.63-6.53,14.44-9.79,3.14-2.13,6.31-4.21,9.41-6.39,7-4.93,14.37-10.22,20.24-16.56a187.66,187.66,0,0,0,17.56-22.07,86,86,0,0,0,4.65-7.7,104.75,104.75,0,0,0,9.6-23.37,117.63,117.63,0,0,0,2.92-20.55c.49-7-.73-14.11-1.74-21a66.14,66.14,0,0,0-2.86-11.76,109.33,109.33,0,0,0-7.8-17.9,86.4,86.4,0,0,0-9.56-13.07c-3.14-3.76-7-6.67-10.88-9.61a55.08,55.08,0,0,0-16.92-8.29Z"/></svg>