<svg id="Layer_1" data-name="Layer 1" xmlns="http://www.w3.org/2000/svg" viewBox="0 0 1258.9 563.12"><defs><style>.cls-1{fill:#ea93a8;}.cls-2{fill:#1a1a1a;}</style></defs><title>winger</title><path class="cls-1" d="M-763.9,238.21l.11.26-.11-.26Z" transform="translate(763.9 -11)"/><path class="cls-1" d="M97.49,11.52l.78,5.68c.35,5.06.61,10.12,1.21,15.16q.75,6.42,1.51,12.84c.69,5.85,1.36,11.7,2.06,17.55q1.17,6.38,2.35,12.75c.45.58.87,1.18,1.27,1.8,4.26,6.62,8.49,13.25,12.83,19.82,1.81,2.74,3.67,5.43,5.56,8.12.73,1,1.49,2.06,2.27,3.07,1.85,2.06,3.73,4.09,5.66,6.08l5.3,3c3.72,2.11,7.61,4.08,11.18,6.42l18.38,12.07,12.07,7.92q11.87,9.13,23.7,18.29c3.87,3,7.43,6.45,11,9.74,5.94,5.43,11.6,11.13,17.18,16.91,10.13,10.5,19.72,21.47,28.86,32.79a379.72,379.72,0,0,1,27,39.58q10.25,17.34,19,35.5c5.08,10.57,10.56,20.95,15.87,31.41,5.5,10.86,11.36,21.59,17.47,32.13,5.58,9.63,11.77,18.93,18,28.18,1.93,2.85,3.91,5.68,5.62,8.66h0c2.12-10.44,2.25-21.27,2.23-31.88a314.1,314.1,0,0,0-1.85-33c-.79-7.29-1.64-14.62-2.88-21.85-1-5.93-2-11.94-3.42-17.79-1.5-6.11-3.13-12.19-4.85-18.25a248.64,248.64,0,0,0-8.11-23.69,268.11,268.11,0,0,0-13-28.28c-3.92-7.29-8.09-14.38-12.69-21.27-5.89-8.81-12.44-17.17-19.09-25.44a205,205,0,0,0-17.13-18.69q-1.71-2.91-3.48-5.77a277.61,277.61,0,0,0-31.74-41.14,290,290,0,0,0-37.1-33.5A488.36,488.36,0,0,0,166,45.83c-7.74-4.68-15.59-9.09-23.65-13.21L119.8,21.09c-3.12-1.59-6.17-3.17-9.39-4.53L97.33,11l.16.52Z" transform="translate(763.9 -11)"/><path class="cls-1" d="M101,45.2c.69,5.85,1.36,11.7,2.06,17.55q1.17,6.38,2.35,12.76c.45.57.87,1.17,1.27,1.79,4.26,6.62,8.49,13.25,12.83,19.82,1.58,2.4,3.2,4.75,4.84,7.1L133,108c3.17,1.39,6.21,3,9.29,4.53l23.15,11.87c3.56,1.83,7.23,3.52,10.66,5.56l19.58,11.59,15,8.89c1.52.9,2.95,2,4.41,3l5.21,3.54-10.92-4.21L190,145.31c-3.59-1.39-7.33-2.46-11-3.67l-22.89-7.56.74.42c6.93,2.84,14,5.57,20.57,9.05.82.44,1.59,1,2.35,1.48a41.82,41.82,0,0,1,6.39,5,28.67,28.67,0,0,1,4.27,5.35,55.51,55.51,0,0,1,2.64,6,16.56,16.56,0,0,1,.58,1.81l22,9.87,7.24,3.25c.95.43,2,.8,2.89,1.31l13.2,7.29,18.91,10.44c2.55,1.41,5,2.78,7.41,4.39q14.87,10,29.74,19.91l14.56,11.17c4.13,3.17,8.39,6.22,12.32,9.63q9.72,8.42,19.65,16.58c4,3.28,7.69,6.81,11.44,10.3a182.08,182.08,0,0,1,17.08,18.4c13.84,18,24.24,38.12,33.38,58.75,1.29,3.45,2.65,6.88,4,10.3,1.19,2.9,2.13,5.88,3.16,8.84s2,6.1,3,9.15c.5,1.5,1,3,1.48,4.51.29.84.61,1.66.92,2.49q.64,1.68,1.41,3.3c.76,1,1.55,2,2.4,3a12,12,0,0,0,5.28,3,12.35,12.35,0,0,0,9.22-1.17,11.82,11.82,0,0,0,5.5-7c1.18-3.5.79-7.56.58-11.19-.14-2.55-.37-5.09-.65-7.62-.87-7.55-2-15-3.62-22.41-2.92-13.77-7.93-26.95-14-39.69-.21-.45-.43-.89-.64-1.33l.15.13a107,107,0,0,1,12.46,12.46,61.24,61.24,0,0,1,7,11.09,23.82,23.82,0,0,1,1.24,4.12,31.69,31.69,0,0,1-.21,4.35c-.1.35-.18.71-.27,1.06,0,0,0,0,0,0a15.57,15.57,0,0,0,3.79-5.12,28,28,0,0,0,1.71-9.1,49.7,49.7,0,0,0-.8-10.47,72.78,72.78,0,0,0-3.11-12.48c-1.29-3.81-3-7.51-4.62-11.2s-3.35-7.17-5.23-10.65a185,185,0,0,0-14.62-22.15c-12.26-16.47-26.29-31.59-40.72-46.27-3.48-3.54-7.21-6.86-10.86-10.23q-7.45-6.87-15.08-13.56c-4.61-4.05-9.44-7.89-14.21-11.76-4-3.23-8-6.46-12.07-9.59-11.9-9.13-23.94-18.1-36.27-26.67-5.67-3.94-11.43-7.75-17.16-11.61-4.8-3.22-9.85-6.14-14.76-9.2l-17.41-10.86c-1-.65-2.16-1.17-3.24-1.74L227,93.64,205.81,82.35c-3.28-1.75-6.7-3.19-10.09-4.72L171.78,66.82C166.42,64.4,161.1,62,155.6,59.89l-39.76-15.2c-.91-.35-1.86-.61-2.8-.9l-10.13-3.2-2.56-.81q.32,2.7.64,5.42ZM423.8,339.54a.06.06,0,0,0,0,0l0,.08,0,0Z" transform="translate(763.9 -11)"/><path class="cls-1" d="M150.8,121.91c-3,.34-6,.73-9,1.18,2.52,2.39,5.07,4.75,7.75,7,2.38,1.59,4.84,3,7.33,4.46,6.93,2.83,14,5.56,20.57,9,.82.44,1.58,1,2.35,1.48a41.82,41.82,0,0,1,6.39,5,28.67,28.67,0,0,1,4.27,5.35,57.57,57.57,0,0,1,2.64,6,21.33,21.33,0,0,1,1,3.41c.64,3.12,1,6.28,1.42,9.44.51,4.32.94,8.63,1.32,13,1.31,15.05,1.89,30.15,3,45.22,1.21,16,2.92,31.9,4.37,47.86.65,7.18,1.38,14.38,1.8,21.58,0,.55.06,1.1.1,1.66l9.59-1.56c3.32-.54,6.69-1,10-1.64,9-1.85,18.08-3.53,27-5.58l14.51-3.33c2.09-.48,4.2-.86,6.32-1.21l2.43-.08c1.54-.07,3.06-.24,4.59-.46l.88-.1a26.8,26.8,0,0,0,13.32-3.5,26.22,26.22,0,0,0,9.46-9.22,25.09,25.09,0,0,0,3.13-8.11l1.88-.77a26.63,26.63,0,0,0,9.64-9.39c1.95-2.48,2.85-5.44,4-8.36a27.65,27.65,0,0,0-7.44-27.41c-2-2.46-4.7-4.05-7.37-6a22.53,22.53,0,0,0-3-1.81,58,58,0,0,0-5.33-2.38,32.58,32.58,0,0,0-1.17-5.8,34.21,34.21,0,0,0-9.1-15.19,11.21,11.21,0,0,0-1.66-1.85,35.63,35.63,0,0,0-3.61-3.09,30.36,30.36,0,0,0,1.7-10q-.57-4.09-1.13-8.19a30.68,30.68,0,0,0-8.14-13.6,28.28,28.28,0,0,0-2.18-2.2l-6.59-5q-4.5-2.06-9.16-3.68a50.5,50.5,0,0,0-8.76-2l-1.91-.31a28.13,28.13,0,0,0-7.88-6.67l-6.73-2.77a29.56,29.56,0,0,0-7.49-1h0c-3.6-.09-4.21-.56-9.53.9-.64.18-1.28.34-1.93.48L211,133l-3.12.18c-.72,0-1.44,0-2.16,0H204.2l-8,0c-2.27,0-4.54,0-6.81,0-.71-.88-1.41-1.77-2.11-2.65A27.94,27.94,0,0,0,175,123.56c-4.9-.77-9.76-1.55-14.7-2.13a20.66,20.66,0,0,0-2.37-.13,65,65,0,0,0-7.17.61Z" transform="translate(763.9 -11)"/><path class="cls-1" d="M318.65,59.31l.11.13-.11-.13Z" transform="translate(763.9 -11)"/><path class="cls-2" d="M495,553.7l-.06-2.2-.06-.56c-.26-2.33-.56-4.67-.74-7-.17-2.17-.33-4.35-.5-6.53l0,0c-1.09-.85-2.19-1.75-3.34-2.59a11.6,11.6,0,0,0,3-1.86q-.78-10.12-1.55-20.26c-.28-3.66-.57-7.31-.84-11-.13-1.65-.11-3.32-.16-5q-.48-16.5-.95-33-.23-7.77-.44-15.54c-.05-1.56-.09-3.12-.14-4.69,0-1,0-2,0-3,0,.49,0,1-.05,1.47.07-2.94.18-5.88.27-8.82,0-.09,0-.17,0-.26-.08-1.81-.17-3.62-.25-5.44l-.33,0a14.1,14.1,0,0,0-.68-1.66l.92-.14-.75-16.24c-1.59-.27-3.17-.55-4.75-.8-1.25-.19-2.5-.35-3.75-.49-1.48-.16-3-.55-4.43-.8-5.29-.91-10.62-1.61-15.95-2.26-4.31-.54-8.61-1.06-12.93-1.57l-11.89-1.39,2.79-.47,34.55.84,2.8.2c3.14.22,6.27.42,9.42.55a10.66,10.66,0,0,0,3-.47h.85l-.63-13.56c-.11-2.23-.17-4.46-.22-6.69-.25-4.25-.49-8.49-.62-12.74l-.18-5.44-.52-.1a9.15,9.15,0,0,0-1.35-3.3,9.77,9.77,0,0,0-6.06-4l-7.33-1.74a18,18,0,0,0-2.3-.47l-4.42-.46-14.89-1.53,2.82-.17h11.75c4.65,0,9.32-.34,14-.57a9.27,9.27,0,0,0,4.4-1.42,9,9,0,0,0,3.36-3.84c-.05-1.45-.09-2.9-.14-4.34,0-1.14-.07-2.28-.11-3.41a7.85,7.85,0,0,0-.44-.73,6.75,6.75,0,0,0-.58-.77,11.9,11.9,0,0,0,.94-.79c-.18-4.91-.35-9.82-.34-14.73q0-8.54.05-17.07c0-2.73,0-5.45,0-8.18.25-10.34.44-20.68.82-31-.05,1.24-.09,2.49-.14,3.74.22-6.08.36-12.17.68-18.24.13-2.66.29-5.31.54-8,.21-2.29.57-4.55.92-6.82,1-1.42,2-2.86,3-4.33q-.18-6.69-.38-13.39a82.2,82.2,0,0,0-5,15.35c-1.89-.49-3.84-.83-5.78-1.14,0-.59.09-1.18.15-1.77.34-3.48.63-7,.76-10.45,0-1.26.17-2.52.21-3.78.08-2,.13-4.06.13-6.1,0-1.28,0-2.57,0-3.85a64.57,64.57,0,0,1,.11-7.23,15.92,15.92,0,0,1,.61-2.63l0,0h0a11.42,11.42,0,0,0-1.38,2.52,22.74,22.74,0,0,0-.86,3c-.18.81-.33,1.61-.47,2.41-.29,1.76-.57,3.52-.79,5.3-.14,1.1-.27,2.21-.39,3.32-.13-1-.26-2-.4-3l.05.31a26.87,26.87,0,0,1-.34-4.29c.05-.16.11-.32.16-.47s0,0,0,0h0a3.81,3.81,0,0,0-.52.61c.26-.52.51-1,.76-1.56.77-1.6,1.51-3.21,2.24-4.83s1.39-3.32,2.23-4.91h0a72.23,72.23,0,0,0-6.06,5.12q-2.77,2.5-5.42,5.13c1.06-3.8,2-7.64,2.93-11.49,0,0,0,0,0,0h0a150.94,150.94,0,0,0-10.73,14.07,20.83,20.83,0,0,0-2.47-2.5c0-.14.09-.29.14-.44,1.41-4.42,3-8.77,4.82-13.05l0,.06a24.52,24.52,0,0,1,2-3.77c.73-1.13,1.51-2.22,2.33-3.28l0,.05c.45-.56.93-1.09,1.42-1.63,0,0,0,0,0,0h0a27,27,0,0,0-2.71,2,34,34,0,0,0-2.6,2.35,39.09,39.09,0,0,0-4.22,5.62,62.35,62.35,0,0,0-5.17,9.84l-.94-.23c-.36-.73-.71-1.46-1-2.2v0l0,0-.05-.11a.16.16,0,0,1,0,.07,13.15,13.15,0,0,1-.72-2.54l0,0,0,0a21.3,21.3,0,0,0-.07,7.92c.19,1.4.33,2.84.61,4.23a38,38,0,0,0-.68,4.36c-.68-1-1.38-2-2.12-2.93a46.34,46.34,0,0,0-2.9-11.34l0,0s0,0,0,0a38.49,38.49,0,0,1-.34,4c-.17,1-.34,2-.52,2.92q-1.87-2-3.89-3.9c.13-.59.27-1.17.41-1.76.79-3.54,1.49-7.09,2.36-10.6a0,0,0,0,0,0,0h0q-2.75,5-5.18,10.12c-2-1.75-4-3.48-6-5.11h0s0,0,0,0c1,1.57,1.9,3.18,2.81,4.79-.18,1.69-.18,3.4-.21,5.1,0,.74.1,1.49.15,2.23,0,.09,0,.17,0,.26-.2.45-.4.9-.59,1.35-1-2-2.06-3.94-3.19-5.87-.84-1.44-1.72-2.88-2.63-4.3.45-1.21.94-2.42,1.45-3.61a35.41,35.41,0,0,1,3-5.44c.69-1,1.38-2,2.13-3a0,0,0,0,0,0,0h0a40,40,0,0,0-3.43,3.2,32.73,32.73,0,0,0-4.72,6.46c-.07-.09-.12-.18-.18-.27a61.5,61.5,0,0,0-5.49-7h0s0,0,0,0l.32.75v0a74.18,74.18,0,0,1,2.4,7.54c.08.27.14.54.22.81a1.87,1.87,0,0,0-.39.53c-.43,1-.88,1.92-1.29,2.89l-.33-.35q-6.85-7.23-14.11-14.09h0s0,0,0,0c3.57,5.71,7.14,11.41,10.95,17a110.09,110.09,0,0,0-5.48,10.91v0c-.2.44-.38.88-.57,1.32-1.45,1.24-2.86,2.52-4.2,3.84-.54.53-1,1.08-1.55,1.64l-1.11-1.69q.24-3.8.45-7.57A9.44,9.44,0,0,0,411,214c1.42-.05,2.66-.58,2.76-2.13a5.11,5.11,0,0,0-1.17-2.92c-.2-.33-.39-.65-.6-1a13.07,13.07,0,0,0-1.06-1.39,3.57,3.57,0,0,0,0-1.34,6.18,6.18,0,0,0-.64-2l-.11-.18a1.88,1.88,0,0,0-.12-.18c.19-1.82.39-3.63.63-5.45,0,0,0,0,0,0h0q-1.05,2-1.95,4a3.4,3.4,0,0,0-.3-.23,6.54,6.54,0,0,0-1.39-.72,5.64,5.64,0,0,0-3.87-.51,5.14,5.14,0,0,0-1.93,1,9.16,9.16,0,0,0-1.83-.21,9,9,0,0,0-3,.44,7.85,7.85,0,0,0-2.64,1.67,4.63,4.63,0,0,0-.72.87,4.14,4.14,0,0,0-.49,3.71,9.8,9.8,0,0,0,2.55,3.72c.68.6,1.39,1.15,2.12,1.69l1.1.6c-.09.29-.19.57-.27.86a20.37,20.37,0,0,0-.58,2.3c-.08.44-.17.87-.21,1.31s-.09.81-.1,1.21c0,.8,0,1.61.05,2.41,0,0,0,.09,0,.14-.17-.56-.33-1.13-.54-1.68a29.23,29.23,0,0,0-4.33-8,18.79,18.79,0,0,0-1.78-1.9c0-.34.08-.69.12-1,.12-1.32.24-2.63.34-3.95,0,.08.07.16.11.23s0,0,0,0c0-.34-.07-.68-.11-1s.06-.83.07-1.25a32.6,32.6,0,0,0,0-4.42c-.08-1-.25-2.06-.41-3.09a1.3,1.3,0,0,0-1.39-1,1.32,1.32,0,0,0-1.4,1,3.61,3.61,0,0,0-.11,1.3c0,.54-.06,1.09-.11,1.63-.6,3.6-1.49,7.15-2.18,10.73q-.68,3.44-1.2,6.89c0,.1,0,.2,0,.3-3.34-3.59-6.94-6.95-10.55-10.29a0,0,0,0,0,0,0s0,0,0,0a107.64,107.64,0,0,0,8.4,17.15c-.45,1.13-.88,2.27-1.34,3.39s-.91,2.32-1.35,3.49l-1.37-.13-2.81-.28c-.07-.08-.13-.17-.19-.25-1.06-1.28-2.16-2.53-3.27-3.77,0-1.78,0-3.55-.17-5.31-.31-4.27-.89-8.51-1.58-12.72,0-.13,0-.26-.05-.39.57-2.3,1.14-4.6,1.88-6.86,0,0,0,0,0,0h0c-.82,1-1.61,2-2.38,3-.19-1.32-.39-2.63-.59-4-.22-1.68-.5-3.37-.65-5.06a34.11,34.11,0,0,1-.27-6.62s0,0,0,0h0a37.2,37.2,0,0,0-2.69,7.4q-2.64-7.78-5.42-15.52c-.59-1.66-1.24-3.3-1.86-4.95-1.26-3.34-2.42-6.72-4-9.93h0a77.81,77.81,0,0,1-.74,12.09q-.3,3-.63,5.91c-.14,1.33-.27,2.66-.41,4-.05-.06-.08-.11-.13-.16a1.45,1.45,0,0,0-.53-.32,1.93,1.93,0,0,0-.82-.15,1.55,1.55,0,0,0-.64.16,2.86,2.86,0,0,0-.35.18,3.09,3.09,0,0,0-.7.36,5.23,5.23,0,0,0-1.81-1.38,4,4,0,0,0-4.32.45l-.09.08a2.89,2.89,0,0,0-.54.67,3,3,0,0,0-.39.88,6.7,6.7,0,0,0-.1.9,2.07,2.07,0,0,0,0,.22,2.8,2.8,0,0,0,.13.64,3.81,3.81,0,0,0,1.38,1.93l-.24.19h0a5.9,5.9,0,0,0-1.33,1,3.42,3.42,0,0,0-.94,2.57,2.88,2.88,0,0,0,1.88,2.31,4.88,4.88,0,0,0,3.16.05,7.84,7.84,0,0,0,1.62-.72l.19-.12s0,.05,0,.08c0,.85,0,1.7,0,2.55s-.06,1.57-.11,2.35l-.09.81c-.13,1-.28,1.94-.46,2.9s-.33,2-.46,3.06l-.06.43c-.38-.55-.74-1.1-1.13-1.64-2.5-3.38-5.18-6.59-8-9.76a72.61,72.61,0,0,0-6.45-6.56h0s0,0,0,0c.75,1.34,1.39,2.72,2,4.1a1.54,1.54,0,0,1-.08-.19c.61,1.42,1.22,2.85,1.84,4.27a2.56,2.56,0,0,0-.11-.24c2.58,6.29,5.42,12.49,7.61,18.92.78,2.29,1.6,4.58,2.38,6.87-2.16-5-4.53-9.93-7-14.81h0a0,0,0,0,0,0,0c.52,3.09,1,6.18,1.56,9.26a26,26,0,0,0-1.85-2.91c-.83-1.12-1.69-2.23-2.59-3.31-1-1.25-2.1-2.45-3.2-3.63.15-1.76.27-3.52.33-5.29.14-3.44.1-6.9.4-10.34l0,0,0,0a90.33,90.33,0,0,0-4.67,9.78c-.19.46-.37.92-.56,1.37h0c.15-.71.33-1.42.53-2.14,0,0,0,0,0,0h0c-.42.49-.82,1-1.21,1.52-.34-.3-.67-.61-1-.91h0l0,0c.2.51.39,1,.58,1.54a12.46,12.46,0,0,0-1.36,2.48,19.7,19.7,0,0,0-1.13,7.19c0,.57,0,1.15,0,1.72a61.54,61.54,0,0,0-1.05,7.86c-.05.73-.07,1.45-.11,2.17q-2.14-1.15-4.38-2.16h0a0,0,0,0,0,0,0c.81.95,1.59,1.91,2.37,2.88l0,0-2.1-.07a42.35,42.35,0,0,1-1.76-7,41.3,41.3,0,0,1-.35-8.75,15.67,15.67,0,0,1,.84-3.16,29.22,29.22,0,0,1,2.42-4l0,0c.15-.19.3-.39.46-.58,0,0,0,0,0,0h0a25.8,25.8,0,0,0-2.94,1.89,14.2,14.2,0,0,0-2.45,2,20.23,20.23,0,0,0-3.58,5.82c-.05.13-.09.27-.14.4a1.11,1.11,0,0,1-.07-.16h0a0,0,0,0,0,0,0v.46a28.9,28.9,0,0,0-1.91,12.84l-2.28,0-.78-2.15c.32-.73.65-1.46,1-2.2q2-4.71,3.89-9.49c1.82-4.65,3.37-9.42,4.93-14.16,2.7-8.19,5.2-16.44,7.64-24.7h0c-2.78,4.53-5.73,9-8.59,13.43s-5.71,9-8.47,13.59q-2.77,4.6-5.49,9.24c-1.15-3.4-2.28-6.81-3.48-10.19-1.39-3.92-3-7.77-4.31-11.71l0,0s0,0,0,0a114.45,114.45,0,0,0-.54,11.71,87.85,87.85,0,0,0,.33,10.13,63.22,63.22,0,0,0,1.14,7.61c.25,1,.54,2.05.87,3.05-.56,1-1.1,2-1.65,3-.36-1.69-.7-3.38-1-5.09a58.78,58.78,0,0,1-.48-7.85l0,0,0,0c-.44,1.15-.83,2.32-1.17,3.49a4.21,4.21,0,0,0-.83-.11l-.21,0a12.31,12.31,0,0,0-2.39.68,31.61,31.61,0,0,0-5,2.78c-1.45.89-2.88,1.83-4.26,2.83,0-.62-.07-1.25-.09-1.88l.24-.29s0,0,0,0h0l-.21.23c-.05-1.46-.07-2.93,0-4.4.06-2.48,0-5,0-7.43,0,0,0,0,0,0h0c-.57,1.29-1.09,2.6-1.55,3.94-.54,1.56-1.05,3.13-1.45,4.73a3.18,3.18,0,0,1-.16-.32c-.91-1.66-1.86-3.31-2.83-4.94.32-1,.65-2,1-2.92h0l.27-.61a0,0,0,0,0,0,0h0c-.76.66-1.48,1.34-2.18,2q-1-1.71-2.1-3.39c.06-.34.11-.68.16-1,.08-.52.18-1,.24-1.55.15-1.37.3-2.75.46-4.13.06-.56.1-1.12.14-1.68l.18-2.57c.09-1.24.13-2.48.19-3.72s.05-2.42.07-3.64c0-.53,0-1.06,0-1.59l0-2c.2.11.39.22.59.31a9.17,9.17,0,0,0,2.7.52,7.57,7.57,0,0,0,1.83-.23,14.47,14.47,0,0,0,2-.72l.34-.19a7.93,7.93,0,0,0,1.6-1,12.37,12.37,0,0,0,2.52-2.59l.2-.37a6.28,6.28,0,0,0,.69-1.4,7.18,7.18,0,0,0,.3-1.6,5.32,5.32,0,0,0-.48-2.6,5.16,5.16,0,0,0-.6-1.14,7,7,0,0,0-1.81-1.74l.21-.26a14.1,14.1,0,0,0,1.77-3.05,7.82,7.82,0,0,0,.63-3.34,5.11,5.11,0,0,0-.48-1.85,3.46,3.46,0,0,0-.31-.57,3.24,3.24,0,0,0-.5-.56,7.24,7.24,0,0,0-2.62-1.41,9,9,0,0,0-1.88-.31,7.77,7.77,0,0,0-1.6,0,22,22,0,0,0-2.25.37,17.13,17.13,0,0,0-2.79,1,13.44,13.44,0,0,0-2.26,1.24,11.46,11.46,0,0,0-3.81-2.5,8.09,8.09,0,0,0-1.19-.34,7.67,7.67,0,0,0-2.29-.2,10.75,10.75,0,0,0-6.37,3.1,12.24,12.24,0,0,0-1.32,1.56,5.65,5.65,0,0,0-1,2.62,6,6,0,0,0,.55,3,9,9,0,0,0,1.3,2.25,6.82,6.82,0,0,0,.49.58,19.67,19.67,0,0,0-1.58,1.84,8.51,8.51,0,0,0-1.55,4.06,6.16,6.16,0,0,0,.62,3.47,6.3,6.3,0,0,0,2.35,2.32,6.14,6.14,0,0,0,2.12.95,9.8,9.8,0,0,0,3,.27,12,12,0,0,0,5.57-2,16,16,0,0,0,2.16-1.7l.09.09c0,.5.06,1,.08,1.49,0,.74,0,1.47.05,2.2s0,1.4,0,2.1,0,1.18,0,1.78,0,1.12,0,1.69l-.12,2.24c-.06,1.25-.15,2.49-.25,3.73l-.12,1.71c-.13,1.11-.25,2.23-.37,3.34-.89-1.31-1.8-2.61-2.78-3.86h0s0,0,0,0c.83,2.88,1.47,5.81,2.11,8.73-.15.94-.32,1.87-.49,2.81-.1.56-.23,1.11-.34,1.67s-.2,1.07-.33,1.59c-.27,1.21-.55,2.42-.83,3.63-.17.7-.33,1.41-.49,2.12a23.39,23.39,0,0,0-1.26,2.5.14.14,0,0,0,0,.06c0-.38-.06-.76-.09-1.14-.16-1.65-.42-3.31-.68-4.95-.48-3.22-1-6.42-1.63-9.62a88.77,88.77,0,0,0-2-9l0,0s0,0,0,0c.11,3.1-.14,6.21-.3,9.3-.18,3.3-.36,6.6-.47,9.9-.14,3.61-.29,7.22-.42,10.83h-.06a82.77,82.77,0,0,0-5.55-6.3,16.85,16.85,0,0,1,1.78-1.7s0,0,0,0h0A15.7,15.7,0,0,0,249,219c-.81-.82-1.65-1.62-2.49-2.41a116.74,116.74,0,0,1-3.28-12.94l0,0a0,0,0,0,0,0,0,77.79,77.79,0,0,0-1.36,15.83,44.54,44.54,0,0,0,.28,5q-.72.88-1.35,1.83a52.72,52.72,0,0,0,.7-7.33c.14-4.18.11-8.36.21-12.54a0,0,0,0,0,0,0h0a70.63,70.63,0,0,0-5.85,12.18l-.27.79,0,0a76.18,76.18,0,0,0-5.71-6.46,42.66,42.66,0,0,0-9.19-6.61h0a0,0,0,0,0,0,0c.4.44.83.88,1.2,1.35.57.71,1.13,1.42,1.71,2.12l0,0a40.65,40.65,0,0,1,2.82,3.87c.95,1.54,1.83,3.12,2.69,4.71,1.56,2.89,3.17,5.76,4.77,8.63,0,.32-.07.65-.09,1a31.83,31.83,0,0,0,.53,8.82q.45,2,1.08,4c0,.14,0,.29-.07.44q-1-2.07-2.16-4.08c-.61-1.06-1.24-2.11-1.89-3.16-1.16-1.88-2.42-3.71-3.41-5.68-.08-.23-.16-.46-.22-.68h.21a6,6,0,0,1,.93.32l0,0c.5.22,1,.43,1.51.63H230l1,.43s.06,0,0,0c-.82-.66-1.64-1.35-2.48-2a5.62,5.62,0,0,0-1.89-.83.68.68,0,0,0-.2,0,.77.77,0,0,0-.77.55,8.32,8.32,0,0,0-.17,2.05,11.52,11.52,0,0,0,.26,1.54,42.47,42.47,0,0,0,1.36,4.51c.36,1,.76,2.07,1.17,3.09a51.93,51.93,0,0,0,2.61,5.8c.51.94,1.07,1.85,1.62,2.77-.68,0-1.37-.07-2.05-.12a12.66,12.66,0,0,0-2.75-.15l-.22,0s0,0,0,0a12.6,12.6,0,0,0-2.79.52c.33-1.88.61-3.78.8-5.7a43,43,0,0,0,.23-9.21,57.28,57.28,0,0,0-2.29-10.9c-.34-1-.7-2.07-1.07-3.1a18.36,18.36,0,0,0-1.32-3.21,7.39,7.39,0,0,0-2.66-2.94,24.3,24.3,0,0,0-3.65-1.39h0s0,0,0,0c.63.62,1.25,1.26,1.86,1.9a4.58,4.58,0,0,1,.82,1.31,6.86,6.86,0,0,1,.36,1.25,55.65,55.65,0,0,1-.25,6.32c0,1.06-.08,2.12-.14,3.19a73.86,73.86,0,0,0,2.89,24.8,11.64,11.64,0,0,0-3.62,12.73,11.91,11.91,0,0,0,3.42,5.09,12.3,12.3,0,0,0,5,2.63c-.21.33-.42.66-.64,1s-.33.51-.5.77c.34,4.34.87,8.67,1.53,13,.12.81.25,1.63.37,2.44q1.76-4.77,3.49-9.55l-.67-2c-.54-1.63-1-3.28-1.46-4.94l4,1.3,0,.39.12-.34,1.66.53.6.17a11.87,11.87,0,0,0-1.54,3.85,11.41,11.41,0,0,0,.39,6,14,14,0,0,0,4.22,7c.18.16.37.29.55.43l-.84,1.51c-.57,1-1.11,2.05-1.71,3.06l-2.45,4.13-.57,1a16.07,16.07,0,0,0-1.91.46,13.56,13.56,0,0,0-7.88,6.64,12.89,12.89,0,0,0-1.43,6.28c-.89,0-1.77.1-2.6.15h-.32a14.88,14.88,0,0,0-3.09.51q.31,3.45.65,6.92c.13,1.32.21,2.66.38,4,.37,2.73.73,5.45,1.1,8.18.78,4.77,1.55,9.54,2.4,14.31,1.23,6.9,2.54,13.79,3.81,20.69a14.18,14.18,0,0,0,4.22,1.57c3.43.92,6.86,1.86,10.28,2.79a8.56,8.56,0,0,0-3.76,5.41,8.36,8.36,0,0,0,1.24,6.26c.39.43.77.87,1.15,1.31l-5.71-.12c-1,0-2,.08-3,.15l-1.81-.16c.34,2.44.65,4.89,1,7.34q2.75,10.1,5.56,20.17l4.65,16.75c1.25.3,2.5.6,3.75.88h0a10.12,10.12,0,0,0-2.84,2.33q1.23,4.39,2.44,8.79c2.67,9.66,5.44,19.29,7.89,29,2.67,10.61,5.4,21.21,7.88,31.86,2.33,10,4.63,19.95,6.67,30q2.46,12.18,4.87,24.37a135.56,135.56,0,0,0,14.07,1.78c2.22.22,4.42.58,6.65.75l4,.29L322.16,561c9.34.69,18.69,1.23,28,1.74l7.26,1.32,9.21,1.67c1.53.27,3.1.43,4.64.63l29.82,3.93,11.27,1.48c1.53.2,3.09.27,4.63.4l5.3.45q7.08.58,14.18,1c3.51.22,7,.39,10.57.47.87,0,1.73,0,2.6,0s1.66-.25,2.48-.39c2.24-.38,4.47-.83,6.69-1.27l.13,0a12.47,12.47,0,0,0,5.88-1.9,12,12,0,0,0,5.32-7.65,11.51,11.51,0,0,0,.16-3.51l8.67.24,2.44.07c2.7.07,5.32-1.1,7.79-2v0a12.1,12.1,0,0,0,5.26-3.32C494.68,554.09,494.84,553.9,495,553.7ZM331.9,227.39c-.13-.47-.27-.93-.41-1.4.35.48.7,1,1.06,1.43Zm-2-8.1c.16-.74.3-1.48.43-2.22.57,1.28,1.16,2.54,1.79,3.79C331.44,220.32,330.69,219.8,329.94,219.29ZM387.26,230c.31.35.62.7.94,1l-1.13-.11C387.14,230.66,387.2,230.35,387.26,230Zm11.38-3-.12-1.32c-.06-.73-.09-1.47-.09-2.21,0-1.62-.07-3.25.05-4.86,0-.23,0-.46,0-.69s.09-.75.14-1.12.13-.77.19-1.16.13-.73.2-1.09c0-.18.07-.36.1-.54a10.38,10.38,0,0,0,1.47.51c.34,1.43.7,2.86,1.09,4.27.28,1,.55,2,.85,3-.47,2.26-.88,4.53-1.21,6.81a26.79,26.79,0,0,0-2.67-1.2C398.68,227.31,398.66,227.17,398.64,227ZM441,213.51c.75,4.1,1.61,8.19,2.66,12.22l0,0c-.16-.74-.34-1.47-.56-2.2a35.38,35.38,0,0,0-2.07-5.31c-.05-.09-.1-.18-.14-.27-.14-.58-.26-1.18-.38-1.76l-.09-.41C440.59,215,440.8,214.25,441,213.51Zm11.7,16.34,0,.07h-.13c-.27-.64-.55-1.26-.82-1.89v0ZM430,216.76q1.49,1.89,3,3.75c-.39,1.14-.76,2.27-1.12,3.42q-.83,2.7-1.49,5.46h-.16l-.54-.39c0-1.25,0-2.51.07-3.76Zm6.1,11.46c.15.38.29.77.43,1.16h-.88Zm-15.6,1.29v.24l-.52,0-1.3-1.4-.37-.38c.28-.88.56-1.76.83-2.64.52.51,1,1,1.55,1.54C420.61,227.77,420.56,228.64,420.5,229.51Zm40.75,1a.56.56,0,0,0,.05.08h-.11Zm-38.92-14.27v.11a73,73,0,0,0-1.44,8.27l-1.37-.49c.05-.16.1-.31.14-.46.6-2,1.27-4,1.92-6,.29-.9.58-1.8.88-2.69C422.42,215.37,422.37,215.78,422.33,216.19ZM393.18,228c-.46-.73-.92-1.46-1.4-2.19l1.33,1.07C393.13,227.3,393.16,227.67,393.18,228Zm82.67-19.27c-.1.25-.19.51-.27.76-.41,1.22-.8,2.44-1.12,3.69-.5,1.9-.95,3.81-1.32,5.74a43.51,43.51,0,0,0-.75,9.11c0,1.24.12,2.48.24,3.72l-.44,0a38.23,38.23,0,0,0-2.37-11.36c-.09-.23-.19-.45-.28-.68,1-1.48,1.93-3,2.82-4.51C473.59,213.08,474.74,210.94,475.85,208.77ZM459.5,211c-.19-.33-.36-.66-.55-1,0-.11.07-.22.1-.33Zm-3.58-6.93c0,.09-.08.19-.11.28l-.37-.69C455.6,203.83,455.77,204,455.92,204.11ZM443.71,212c.6,1.13,1.18,2.29,1.75,3.44-1.11-2-2.25-4-3.4-6,0-.1.06-.21.08-.31C442.67,210.08,443.2,211,443.71,212Zm-5.31-5.7c-.12-.92-.23-1.86-.36-2.79a18.63,18.63,0,0,1-.15-2l1.4,2.47c.09.17.18.34.28.5-.36.78-.72,1.56-1.07,2.35C438.47,206.67,438.43,206.49,438.4,206.31ZM422,205.83l0,0c.51.74,1,1.46,1.56,2.2-.28,1.32-.52,2.65-.72,4-.78.51-1.56,1-2.32,1.57C421.12,211,421.6,208.45,422,205.83Zm-31.73,7.27a40.66,40.66,0,0,1,2.51,9.87c.12.92.2,1.83.28,2.75l-1.61-.38c-.8-1.18-1.62-2.33-2.5-3.45l-.06-.08c.4-2.25.77-4.51,1.06-6.78.09-.7.16-1.39.24-2.09A.8.8,0,0,0,390.24,213.1Zm-41.93-6.29c0-.26.06-.53.08-.79.12-1,.24-2,.29-3a24,24,0,0,0,0-3.06c-.07-1-.22-2-.37-2.94l-.15-.94.06-.06a6.42,6.42,0,0,0,1.52.49,5.2,5.2,0,0,0,1.42.05c-.29,4.3-.39,8.6-.56,12.91-.08,2-.21,4.1-.35,6.15a48.52,48.52,0,0,0-2.39-4.58C348,209.64,348.19,208.23,348.31,206.81Zm-81.2,18.84c.22-1.07.42-2.14.61-3.21.16-.9.34-1.79.54-2.68q.84,3,1.77,6C269.06,225.68,268.09,225.66,267.11,225.65Zm-24,20.37c-.19.15-.35.33-.53.5,0-.34,0-.67,0-1C242.76,245.68,242.93,245.87,243.11,246ZM286,217.63a19.48,19.48,0,0,1,2.31-2.41l.63-.41a6.06,6.06,0,0,1,.7-.19A41.7,41.7,0,0,0,288,226.23l-1.49,0c0-.22,0-.44,0-.65.16-2.18.27-4.35.42-6.53,0,0,0,0,0,0h0q-1.61,2.93-3,6c-.18.39-.34.79-.5,1.19h-.35a19.86,19.86,0,0,0-2.76-1.3l1-1.21C282.85,221.63,284.43,219.66,286,217.63ZM272.17,168a2.48,2.48,0,0,1,.33.45l-.23,0h-.16c-.12-.19-.25-.38-.35-.58A3,3,0,0,1,272.17,168Zm-17.77-1.54h0l-.16,0Zm-4.64,60.17-.61.07c-.39-1.47-.77-2.94-1.16-4.41,0-.06.07-.13.11-.2q1,2.28,2.07,4.5Zm-15.63,71.25.09-.2-.05.12c1.16-2.69,2.34-5.37,3.51-8.05a16,16,0,0,0,4.13,2.06q-.36.19-.72.42a11.28,11.28,0,0,0-4,4.37,11,11,0,0,0-.92,2.46,14.94,14.94,0,0,0-2.49-.12C233.83,298.54,234,298.17,234.13,297.83Zm23.3,167.47h0Zm5.18.33h0Zm.34,0h0Zm.06,0Zm.5,0h.1l-.47,0,.65,0,.26,0h0Zm.59,0h0Zm.28,0h0Zm.46,0h0Zm2.1.13-1.28-.08h.12l-.32,0h.18l.72,0h-.26l.85.05Zm.12,0,.54,0,.5,0Zm4.59.29h0Zm7.54.48-1-.06h.28l.25,0,.58,0Zm1.34.09Zm.16,0h0Zm.91,0h.3Zm.39,0,.51,0,.59,0Zm5.63.36h0Z" transform="translate(763.9 -11)"/><path class="cls-2" d="M454.18,201.06a.17.17,0,0,1,0-.05v0Z" transform="translate(763.9 -11)"/><path class="cls-2" d="M322.32,78.34v0h0Z" transform="translate(763.9 -11)"/><path class="cls-2" d="M263.09,118.77v0h0Z" transform="translate(763.9 -11)"/><path class="cls-2" d="M235.11,98.81h0Z" transform="translate(763.9 -11)"/><path class="cls-2" d="M235.12,98.76v0h0Z" transform="translate(763.9 -11)"/></svg>