<svg id="Layer_1" data-name="Layer 1" xmlns="http://www.w3.org/2000/svg" viewBox="0 0 1363.9 600"><defs><style>.cls-1{fill:#ff316c;}.cls-2{fill:#ea93a8;}.cls-3{fill:#1a1a1a;}</style></defs><title>winger2</title><rect class="cls-1" x="763.9" width="600" height="600"/><path class="cls-2" d="M-763.9,238.21l.11.26-.11-.26Z" transform="translate(763.9)"/><path class="cls-2" d="M346.57,257.11c27,29.34,52.06,60.86,73,94.6q4.08,6.59,8,13.26a466.31,466.31,0,0,1,39.39,43c9.26,11.5,18.42,23.07,27.21,34.91,1.66-2.63,3.31-5.27,5-7.89,6.58-10.29,13.37-20.47,19.76-30.88a0,0,0,0,1,0,0,0,0,0,0,1,0,0c-5.07,17.12-10.24,34.22-15.76,51.21q3.9,5.52,7.68,11.14c3.75,5.61,7.33,11.3,10.85,17,.27-.94.57-1.88.93-2.8a28.21,28.21,0,0,1,3.11-5.71c-.44-1.17-.86-2.36-1.32-3.53a.05.05,0,0,1,.05-.06h0c.8.68,1.56,1.4,2.34,2.09.9-1.19,1.83-2.36,2.79-3.49a.05.05,0,0,1,0,0,.06.06,0,0,1,.06.08c-.48,1.64-.87,3.27-1.23,4.91l0,0c.43-1.06.84-2.12,1.28-3.16a211.82,211.82,0,0,1,10.73-22.51l.06,0a.05.05,0,0,1,0,.05c-.69,7.9-.6,15.86-.92,23.78-.15,4.06-.42,8.11-.76,12.16,2.53,2.71,5,5.47,7.36,8.34,2,2.49,4,5,6,7.62a56.9,56.9,0,0,1,4.23,6.68c-1.23-7.08-2.38-14.18-3.57-21.28a.05.05,0,0,1,0-.07.05.05,0,0,1,0,0c5.62,11.23,11.08,22.55,16.06,34-1.81-5.27-3.69-10.52-5.48-15.78-5-14.81-11.58-29.05-17.5-43.52.09.18.17.36.25.55q-2.13-4.9-4.23-9.82c.05.14.12.3.17.43-1.48-3.16-3-6.33-4.68-9.41a.07.07,0,0,1,.07-.08h0a166.21,166.21,0,0,1,14.83,15.08c6.38,7.28,12.53,14.67,18.28,22.45.91,1.23,1.74,2.51,2.6,3.77,0-.33.09-.66.14-1,.32-2.35.64-4.7,1.07-7s.76-4.45,1.06-6.68c.06-.63.12-1.25.19-1.87.13-1.8.26-3.59.25-5.4s0-3.91,0-5.87a1.09,1.09,0,0,1,0-.18c-.15.09-.3.2-.45.28a17.86,17.86,0,0,1-3.71,1.65,11,11,0,0,1-7.27-.12c-2.14-.91-4.24-2.88-4.32-5.3a7.87,7.87,0,0,1,2.14-5.91,14.13,14.13,0,0,1,3.08-2.28l0,0,.54-.43a9,9,0,0,1-3.18-4.44,7.43,7.43,0,0,1-.3-1.49c0-.17,0-.33-.07-.5a13.11,13.11,0,0,1,.23-2.07,7,7,0,0,1,.88-2,7.8,7.8,0,0,1,1.25-1.55l.2-.19c2.66-2.45,6.75-2.53,10-1a12.25,12.25,0,0,1,4.15,3.18,7.05,7.05,0,0,1,1.62-.82,6.54,6.54,0,0,1,.79-.41,3.46,3.46,0,0,1,1.48-.38,5,5,0,0,1,1.89.34,3.76,3.76,0,0,1,1.21.74c.11.12.2.25.3.37.32-3.07.63-6.13,1-9.2.17-1.56.32-3.13.49-4.69-.14-.13-.28-.26-.43-.38-10.6-9.32-21.71-18.15-32.68-27-9.17-7.45-18.37-14.87-27.76-22.07-27.37-21-55.05-41.61-83.42-61.31-13-9.06-26.27-17.84-39.44-26.71-11-7.41-22.65-14.12-33.94-21.16l-40-25c-2.37-1.49-5-2.69-7.44-4l-1.16-.62C330.23,240,338.56,248.39,346.57,257.11ZM382,277.43v-.05Z" transform="translate(763.9)"/><path class="cls-2" d="M104.2,263.09l39.61,20.3c.62.05,1.25.09,1.88.16,11.37,1.32,22.55,3.11,33.81,4.9a64.11,64.11,0,0,1,28.11,15.95q2.41,3.06,4.84,6.1,7.83,0,15.67,0l18.44-.08,3.38,0c1.65,0,3.31.05,5,0,2.39-.16,4.78-.29,7.17-.42l8.3-.53q2.22-.5,4.44-1.11c12.21-3.34,13.62-2.26,21.9-2.06h0a67.44,67.44,0,0,1,17.23,2.25L329.42,315a64.61,64.61,0,0,1,18.11,15.33l4.39.72c6.75,1.13,13.68,2.26,20.14,4.56q10.74,3.75,21.08,8.49l15.14,11.4a59.69,59.69,0,0,1,5,5.05A70.39,70.39,0,0,1,432,391.78q1.31,9.42,2.6,18.84a69.28,69.28,0,0,1-3.91,22.95,82.21,82.21,0,0,1,8.3,7.11,25.3,25.3,0,0,1,3.84,4.24c1.85,1.82,3.56,3.72,5.21,5.65.18-4.49.47-9,1-13.45a.06.06,0,0,1,.05-.06.05.05,0,0,1,.06,0c3,9.07,6.71,17.92,9.91,26.94,2.76,7.78,5.36,15.61,8,23.42q6.24-10.65,12.63-21.24c4.74-7.84,9.59-15.61,14.48-23.35C485.36,431,476.2,419.46,466.94,408a466.31,466.31,0,0,0-39.39-43q-3.92-6.68-8-13.26c-20.92-33.74-46-65.26-73-94.6-8-8.72-16.34-17.14-24.88-25.35L299,219.64l-48.69-26c-7.54-4-15.42-7.33-23.22-10.85L172,158c-12.32-5.56-24.56-11.1-37.21-15.94L43.38,107.08c-2.1-.8-4.3-1.4-6.45-2.08l-23.3-7.36L7.75,95.78q.72,6.23,1.46,12.46c1.59,13.46,3.14,26.92,4.74,40.37l2.22,12q1.59,8.65,3.2,17.32c1,1.32,2,2.7,2.9,4.12,9.8,15.22,19.54,30.48,29.52,45.59,2,3,4,5.93,6,8.87l2.51,3.61c.89,1.28,1.77,2.56,2.67,3.84l19.89,8.69C90.13,255.85,97.1,259.45,104.2,263.09Zm213.46-31.68s0,.06,0,.08v0A.38.38,0,0,1,317.66,231.41Zm0,.12h0v0Z" transform="translate(763.9)"/><path class="cls-2" d="M403.08,391.48l.53.07a6.33,6.33,0,0,0-.74-1c-.31-.14-.64-.26-1-.37.25.45.54.89.81,1.33Z" transform="translate(763.9)"/><path class="cls-2" d="M296.21,412.69l30.34,16.75,43.5,24c3.82,2.1,7.55,4.19,11.22,6.41-.11-.4-.21-.8-.33-1.2a.05.05,0,0,1,.05-.07.07.07,0,0,1,.06,0c.51.66,1,1.34,1.49,2q2.29,1.41,4.55,2.92l.72.48c.16-1.41.31-2.81.46-4.22l.3-3.92c.21-2.86.42-5.71.57-8.58.08-1.72.17-3.44.26-5.16.07-1.29.06-2.59.09-3.88s.1-2.73.08-4.1c0-1.6,0-3.21-.05-4.81s0-3.37-.1-5.06c-.05-1.14-.11-2.29-.19-3.43l-.22-.21a39.65,39.65,0,0,1-5,3.91,27.76,27.76,0,0,1-12.8,4.69,22.58,22.58,0,0,1-6.9-.61,14.3,14.3,0,0,1-4.89-2.19c-2-1.41-4.34-3-5.4-5.34a14.29,14.29,0,0,1-1.42-8,19.39,19.39,0,0,1,3.57-9.35,41.46,41.46,0,0,1,3.62-4.23c-.38-.44-.77-.86-1.11-1.32a20.86,20.86,0,0,1-3-5.18c-.81-2.3-1.63-4.43-1.25-6.88a12.8,12.8,0,0,1,2.27-6,27.44,27.44,0,0,1,3-3.59,24.57,24.57,0,0,1,14.64-7.13,17.65,17.65,0,0,1,5.27.46,18.36,18.36,0,0,1,2.72.78,26.09,26.09,0,0,1,8.77,5.75,30.54,30.54,0,0,1,5.2-2.85,39.52,39.52,0,0,1,6.42-2.28c1.71-.34,3.44-.68,5.18-.85a18,18,0,0,1,3.67,0,20.85,20.85,0,0,1,4.32.72,16.41,16.41,0,0,1,6,3.23,7.72,7.72,0,0,1,1.15,1.31,7.41,7.41,0,0,1,.72,1.31A12.25,12.25,0,0,1,425,381.3a18.12,18.12,0,0,1-1.46,7.68,33,33,0,0,1-4.06,7c-.16.2-.33.39-.5.58a16.25,16.25,0,0,1,4.17,4,14.87,14.87,0,0,1,2.49,8.6,17.46,17.46,0,0,1-.69,3.68,14.26,14.26,0,0,1-1.59,3.23l-.45.85a28.25,28.25,0,0,1-5.82,5.94,18.44,18.44,0,0,1-3.67,2.3l-.78.43a34.5,34.5,0,0,1-4.6,1.64,16.15,16.15,0,0,1-4.22.53,20.77,20.77,0,0,1-6.19-1.19c-.47-.2-.9-.47-1.36-.7,0,1.51.05,3,.08,4.53,0,1.23.07,2.45.06,3.68-.05,2.78,0,5.58-.17,8.37s-.22,5.69-.42,8.54c-.15,2-.29,3.94-.43,5.91-.1,1.29-.18,2.58-.32,3.86l-.84,7.52,19,12.69c.2-.46.37-.92.57-1.37a.05.05,0,0,1,.05,0,.06.06,0,0,1,.06,0c0,.6,0,1.2,0,1.8q12.07,8.06,24.11,16.15a27,27,0,0,1,2.88-.68,3.84,3.84,0,0,1,.5,0,10.92,10.92,0,0,1,1.9.23c.79-2.69,1.68-5.37,2.69-8a.07.07,0,0,1,.06-.05s.06,0,.05.05a132.63,132.63,0,0,0,.71,14.38C448.39,504.6,571.36,561.9,573,563c-.17-.66-121.69-57.51-121.84-58.17a141.8,141.8,0,0,1-2.62-17.5,205.82,205.82,0,0,1-.78-23.29c0-4.49.11-9,.29-13.47-1.65-1.93-3.36-3.83-5.21-5.65a25.3,25.3,0,0,0-3.84-4.24,82.21,82.21,0,0,0-8.3-7.11,69.28,69.28,0,0,0,3.91-22.95q-1.31-9.42-2.6-18.84a70.39,70.39,0,0,0-18.72-31.27,59.69,59.69,0,0,0-5-5.05l-15.14-11.4q-10.33-4.74-21.08-8.49c-6.46-2.3-13.39-3.43-20.14-4.56l-4.39-.72A64.61,64.61,0,0,0,329.42,315l-15.48-6.36a67.44,67.44,0,0,0-17.23-2.25h0c-8.28-.2-9.69-1.28-21.9,2.06q-2.22.62-4.44,1.11l-8.3.53c-2.39.13-4.78.26-7.17.42-1.65.05-3.31,0-5,0l-3.38,0-18.44.08q-7.83,0-15.67,0-2.43-3-4.84-6.1a64.11,64.11,0,0,0-28.11-15.95c-11.26-1.79-22.44-3.58-33.81-4.9-.63-.07-1.26-.11-1.88-.16l13.63,7c8.18,4.2,16.61,8.1,24.5,12.77l45,26.67,34.5,20.44c3.5,2.07,6.8,4.6,10.16,6.88l12,8.12L258.5,355.6,214,338.45c-8.26-3.18-16.85-5.66-25.26-8.43l-11.23-3.71L190.74,335q27.27,21,54.48,42.07c8.91,6.88,17.09,14.82,25.37,22.39,1.18,1.08,2.33,2.18,3.5,3.27l15.46,6.95C291.74,410.67,294.1,411.52,296.21,412.69Z" transform="translate(763.9)"/><path class="cls-3" d="M395.36,456.93c.14-2,.28-3.95.43-5.91.2-2.85.29-5.7.42-8.54s.12-5.59.17-8.37c0-1.23,0-2.45-.06-3.68,0-1.51-.05-3-.08-4.53.46.23.89.5,1.36.7a20.77,20.77,0,0,0,6.19,1.19,16.15,16.15,0,0,0,4.22-.53,34.5,34.5,0,0,0,4.6-1.64l.78-.43a18.44,18.44,0,0,0,3.67-2.3,28.25,28.25,0,0,0,5.82-5.94l.45-.85a14.26,14.26,0,0,0,1.59-3.23,17.46,17.46,0,0,0,.69-3.68,14.87,14.87,0,0,0-2.49-8.6,16.25,16.25,0,0,0-4.17-4c.17-.19.34-.38.5-.58a33,33,0,0,0,4.06-7A18.12,18.12,0,0,0,425,381.3a12.25,12.25,0,0,0-1.11-4.24,7.41,7.41,0,0,0-.72-1.31,7.72,7.72,0,0,0-1.15-1.31,16.41,16.41,0,0,0-6-3.23,20.85,20.85,0,0,0-4.32-.72,18,18,0,0,0-3.67,0c-1.74.17-3.47.51-5.18.85a39.52,39.52,0,0,0-6.42,2.28,30.54,30.54,0,0,0-5.2,2.85,26.09,26.09,0,0,0-8.77-5.75,18.36,18.36,0,0,0-2.72-.78,17.65,17.65,0,0,0-5.27-.46,24.57,24.57,0,0,0-14.64,7.13,27.44,27.44,0,0,0-3,3.59,12.8,12.8,0,0,0-2.27,6c-.38,2.45.44,4.58,1.25,6.88a20.86,20.86,0,0,0,3,5.18c.34.46.73.88,1.11,1.32a41.46,41.46,0,0,0-3.62,4.23,19.39,19.39,0,0,0-3.57,9.35,14.29,14.29,0,0,0,1.42,8c1.06,2.32,3.36,3.93,5.4,5.34a14.3,14.3,0,0,0,4.89,2.19,22.58,22.58,0,0,0,6.9.61,27.76,27.76,0,0,0,12.8-4.69,39.65,39.65,0,0,0,5-3.91l.22.21c.08,1.14.14,2.29.19,3.43.08,1.69.09,3.37.1,5.06s0,3.21.05,4.81c0,1.37-.05,2.73-.08,4.1s0,2.59-.09,3.88c-.09,1.72-.18,3.44-.26,5.16-.15,2.87-.36,5.72-.57,8.58l-.3,3.92c-.15,1.41-.3,2.81-.46,4.22l6.39,4.27.84-7.52C395.18,459.51,395.26,458.22,395.36,456.93Zm7.51-66.42a6.33,6.33,0,0,1,.74,1l-.53-.07h-.36c-.27-.44-.56-.88-.81-1.33C402.23,390.25,402.56,390.37,402.87,390.51ZM361.64,387,362,387h0Z" transform="translate(763.9)"/><path class="cls-3" d="M382,277.43l0-.05v.05Z" transform="translate(763.9)"/></svg>