<svg id="Layer_1" data-name="Layer 1" xmlns="http://www.w3.org/2000/svg" viewBox="0 0 1920 1080"><defs><style>.cls-1{fill:#ff316c;}.cls-2{fill:#ea93a8;}.cls-3{fill:#1a1a1a;}.cls-4{fill:#19150b;}</style></defs><title>winger4</title><rect class="cls-1" width="1920" height="1080"/><path class="cls-2" d="M1109,462.8c86.3,52.8,166.59,109.54,233.52,170.29q13.05,11.83,25.61,23.85c44.72,24.34,86.93,50,126,77.38,29.62,20.71,58.93,41.54,87.08,62.84,5.32-4.73,10.58-9.48,16-14.2,21-18.52,42.78-36.85,63.25-55.58h0s.06,0,0,0c-16.2,30.82-32.78,61.6-50.43,92.18,8.33,6.63,16.56,13.3,24.57,20,12,10.11,23.47,20.36,34.73,30.67a45.47,45.47,0,0,1,3-5,51.59,51.59,0,0,1,10-10.27c-1.41-2.12-2.76-4.25-4.23-6.36,0-.06.06-.11.17-.11a.2.2,0,0,1,.11,0c2.55,1.22,5,2.51,7.49,3.76,2.87-2.15,5.85-4.25,8.91-6.29a.47.47,0,0,1,.16,0c.12,0,.22.07.18.14a92.56,92.56,0,0,0-4,8.84l.11.06c1.37-1.89,2.7-3.8,4.1-5.69,10.24-13.79,21.27-27.48,34.34-40.5a.26.26,0,0,1,.17,0c.09,0,.17,0,.17.08-2.21,14.23-1.93,28.54-2.94,42.8-.49,7.31-1.33,14.61-2.44,21.89,8.1,4.88,16,9.85,23.57,15,6.56,4.49,13,9.08,19.06,13.72a121.22,121.22,0,0,1,13.55,12c-4-12.75-7.64-25.52-11.44-38.29,0-.08.08-.14.17-.14a.12.12,0,0,1,.12,0c18,20.2,35.45,40.57,51.39,61.29-5.8-9.49-11.81-18.94-17.54-28.42-16.13-26.65-37.06-52.28-56-78.34.29.34.56.66.82,1q-6.83-8.82-13.55-17.66c.17.25.4.53.57.78-4.75-5.71-9.51-11.41-15-16.95,0-.08.08-.15.22-.15l.12,0a497.25,497.25,0,0,1,47.46,27.15c20.42,13.1,40.11,26.4,58.5,40.4,2.91,2.22,5.58,4.52,8.31,6.8.15-.59.31-1.19.45-1.78,1-4.24,2.06-8.46,3.45-12.67,1.32-4,2.43-8,3.36-12,.21-1.12.41-2.24.62-3.36a72.13,72.13,0,0,0,.81-9.72c0-3.52-.08-7-.15-10.57,0-.1,0-.21,0-.32-.48.16-.95.35-1.43.5a84.69,84.69,0,0,1-11.89,3c-7.57,1.18-15.89,1.56-23.28-.21-6.82-1.64-13.54-5.18-13.8-9.54-.24-3.8,1.79-7.88,6.84-10.65a55.19,55.19,0,0,1,9.86-4.1l.08,0,1.7-.76c-4.64-2.14-8.55-4.74-10.15-8a8.36,8.36,0,0,1-1-2.67c-.08-.31-.15-.61-.24-.91a14.6,14.6,0,0,1,.73-3.72,11,11,0,0,1,2.84-3.62,19.26,19.26,0,0,1,4-2.8l.62-.33c8.52-4.42,21.61-4.55,31.84-1.88a44.54,44.54,0,0,1,13.29,5.73,32.08,32.08,0,0,1,5.17-1.48,26,26,0,0,1,2.56-.74,18.48,18.48,0,0,1,4.72-.69,27.32,27.32,0,0,1,6.06.63,15.3,15.3,0,0,1,3.85,1.32c.37.22.64.45,1,.67,1-5.52,2-11,3.06-16.56.54-2.82,1-5.63,1.58-8.45l-1.37-.68c-33.93-16.77-69.47-32.66-104.58-48.68-29.34-13.39-58.8-26.76-88.82-39.71-87.6-37.77-176.17-74.9-266.94-110.37-41.73-16.31-84.08-32.11-126.24-48.07-35.29-13.34-72.46-25.43-108.59-38.09l-128.13-44.95c-7.58-2.67-15.9-4.83-23.82-7.2l-3.7-1.11C1056.74,431.94,1083.39,447.1,1109,462.8Zm113.33,36.57,0,0,0,0Z"/><path class="cls-2" d="M333.42,473.56l126.76,36.55c2,.08,4,.15,6,.28,36.39,2.38,72.16,5.6,108.21,8.83q51.81,7.95,89.94,28.71l15.48,11q25.08.08,50.14,0,29.5-.07,59-.15c3.57,0,7.18,0,10.81,0,5.3,0,10.61.09,15.89,0q11.46-.41,22.94-.75l26.55-1c4.75-.6,9.47-1.27,14.2-2,39.1-6,43.59-4.09,70.1-3.72h0a378.46,378.46,0,0,1,55.13,4.05l49.53,11.45q34,11,57.94,27.6c4.69.42,9.4.86,14.08,1.3,21.6,2,43.76,4.06,64.43,8.21q34.38,6.75,67.46,15.27l48.44,20.52c5.84,2.84,10.84,5.91,16,9.1q43.31,23.88,59.89,56.28,4.17,17,8.32,33.91-.12,21.58-12.5,41.31a283.58,283.58,0,0,1,26.56,12.8,71.6,71.6,0,0,1,12.27,7.64c5.93,3.27,11.41,6.68,16.67,10.17a197.59,197.59,0,0,1,3.11-24.22c0-.07.09-.11.18-.11a.18.18,0,0,1,.16.08c9.73,16.33,21.5,32.26,31.74,48.5,8.82,14,17.12,28.09,25.59,42.15q20-19.18,40.42-38.23c15.16-14.12,30.68-28.1,46.34-42-28.15-21.3-57.46-42.13-87.08-62.84-39.11-27.35-81.32-53-126-77.38q-12.54-12-25.61-23.85C1275.63,572.34,1195.34,515.6,1109,462.8c-25.65-15.7-52.3-30.86-79.63-45.63Q993,406.27,956.66,395.34L800.85,348.61c-24.12-7.22-49.33-13.21-74.29-19.53Q638.5,306.7,550.39,284.35c-39.41-10-78.59-20-119.07-28.7Q285,224.2,138.81,192.74c-6.72-1.44-13.74-2.52-20.63-3.74L43.62,175.75,24.78,172.4l4.71,22.44c5.06,24.22,10,48.45,15.14,72.66q3.56,10.81,7.1,21.62Q56.86,304.71,62,320.29q4.91,3.57,9.3,7.42c31.34,27.39,62.52,54.86,94.45,82.05q9.43,8.06,19.13,16c2.65,2.17,5.34,4.34,8,6.51s5.67,4.6,8.53,6.9L265,454.79C288.4,460.53,310.74,467,333.42,473.56Zm683.09-57,0,.15v0C1016.48,416.66,1016.5,416.6,1016.51,416.54Zm0,.21h0l0,.06A.11.11,0,0,0,1016.46,416.75Z"/><path class="cls-2" d="M1289.87,704.67l1.69.12a14.26,14.26,0,0,0-2.38-1.87c-1-.25-2-.47-3.07-.67.79.82,1.73,1.61,2.61,2.4C1289.1,704.67,1289.49,704.65,1289.87,704.67Z"/><path class="cls-2" d="M947.86,742.84Q996.42,757.9,1045,773l139.2,43.24c12.23,3.79,24.16,7.55,35.91,11.54-.36-.72-.68-1.44-1-2.16,0-.08,0-.12.16-.12a.3.3,0,0,1,.18.06c1.64,1.18,3.18,2.4,4.77,3.6,4.89,1.69,9.74,3.42,14.56,5.24l2.31.87c.49-2.53,1-5.06,1.47-7.59.31-2.36.63-4.71.94-7.06.69-5.14,1.36-10.28,1.83-15.44.27-3.09.56-6.19.85-9.29.21-2.33.18-4.67.28-7s.31-4.92.27-7.37c0-2.89-.11-5.78-.16-8.67s-.09-6.06-.33-9.1c-.17-2.06-.37-4.12-.62-6.17l-.7-.38a139.1,139.1,0,0,1-15.88,7,137.07,137.07,0,0,1-41,8.43,125.6,125.6,0,0,1-22.07-1.1,66.83,66.83,0,0,1-15.64-3.93c-6.53-2.54-13.91-5.45-17.29-9.62-3.82-4.73-5.7-9.24-4.54-14.34,1.36-6,4.76-11.91,11.42-16.84a116.94,116.94,0,0,1,11.57-7.61c-1.19-.79-2.46-1.54-3.54-2.37-3.7-2.86-7.55-6-9.62-9.33-2.6-4.14-5.24-8-4-12.37a18.7,18.7,0,0,1,7.26-10.85,75.06,75.06,0,0,1,9.76-6.46c12.07-6.77,29.49-12,46.85-12.84a99.68,99.68,0,0,1,16.87.84c3,.37,5.88.78,8.7,1.4a104.38,104.38,0,0,1,28.08,10.35,134.23,134.23,0,0,1,16.61-5.12c6.73-1.47,13.41-3.32,20.55-4.12,5.48-.6,11-1.22,16.57-1.52a102.69,102.69,0,0,1,11.77,0,118.82,118.82,0,0,1,13.82,1.29c6.83,1.31,13.93,3,19.25,5.82a21.8,21.8,0,0,1,3.69,2.35,14.31,14.31,0,0,1,2.31,2.36c1.65,2.13,3.48,5.2,3.55,7.64a20.78,20.78,0,0,1-4.67,13.82c-3.63,4.4-7.54,8.84-13,12.65-.51.35-1.06.69-1.58,1a50.69,50.69,0,0,1,13.33,7.22,22.25,22.25,0,0,1,4.44,4.71c2.26,3.33,4.49,7.16,3.54,10.76-.57,2.2-.81,4.55-2.22,6.63a24.2,24.2,0,0,1-5.07,5.8c-.5.51-1,1-1.47,1.54a83.7,83.7,0,0,1-18.6,10.69,74.07,74.07,0,0,1-11.76,4.13c-.81.27-1.65.53-2.47.79-4.87,1.08-9.64,2.26-14.74,3a91.17,91.17,0,0,1-13.49.94c-6.44-.3-13.77-.7-19.81-2.14-1.52-.35-2.89-.84-4.35-1.26l.24,8.16c.07,2.2.24,4.41.19,6.61-.15,5-.11,10.05-.52,15.07s-.72,10.25-1.38,15.37c-.45,3.54-.92,7.09-1.37,10.64-.3,2.32-.55,4.64-1,6.95q-1.35,6.76-2.69,13.53l60.75,22.85c.62-.82,1.19-1.65,1.83-2.47a.19.19,0,0,1,.16-.05c.09,0,.18,0,.18.08,0,1.08,0,2.16,0,3.25q38.61,14.5,77.16,29.07c3-.49,6-.9,9.2-1.22.49,0,1-.06,1.58-.06a60.37,60.37,0,0,1,6.1.42A145.51,145.51,0,0,1,1427,880.4c0-.06.11-.09.19-.09s.18,0,.15.09a137.67,137.67,0,0,0,2.26,25.89c5.25,2,398.76,105.12,404,107.11-.56-1.18-389.39-103.52-389.89-104.71-4.3-10.32-6.4-21-8.38-31.49-2.66-13.88-2.66-28-2.49-41.92.12-8.08.33-16.17.91-24.25-5.26-3.49-10.74-6.9-16.67-10.17a71.6,71.6,0,0,0-12.27-7.64,283.58,283.58,0,0,0-26.56-12.8q12.39-19.74,12.5-41.31-4.15-17-8.32-33.91-16.61-32.41-59.89-56.28c-5.21-3.19-10.21-6.26-16-9.1l-48.44-20.52Q1225,610.78,1190.59,604c-20.67-4.15-42.83-6.18-64.43-8.21-4.68-.44-9.39-.88-14.08-1.3q-23.91-16.57-57.94-27.6l-49.53-11.45a378.46,378.46,0,0,0-55.13-4.05h0c-26.51-.37-31-2.31-70.1,3.72-4.73.72-9.45,1.39-14.2,2l-26.55,1q-11.48.34-22.94.75c-5.28.09-10.59,0-15.89,0-3.63,0-7.24-.05-10.81,0q-29.54.06-59,.15-25.05.06-50.14,0l-15.48-11q-38.13-20.76-89.94-28.71c-36-3.23-71.82-6.45-108.21-8.83-2-.13-4-.2-6-.28l43.62,12.58c26.19,7.55,53.15,14.57,78.42,23q72.06,24,144.09,48l110.4,36.78c11.2,3.73,21.74,8.29,32.5,12.38l38.34,14.63-80.34-17.4L684.74,609.21C658.31,603.48,630.81,599,603.9,594L568,587.36,610.35,603q87.28,37.8,174.35,75.72c28.5,12.39,54.7,26.68,81.19,40.3,3.77,1.94,7.44,3.93,11.18,5.89l49.49,12.51C933.58,739.21,941.12,740.74,947.86,742.84Z"/><path class="cls-3" d="M1265.14,822.47c.45-3.55.92-7.1,1.37-10.64.66-5.12,1-10.25,1.38-15.37s.37-10.05.52-15.07c0-2.2-.12-4.41-.19-6.61l-.24-8.16c1.46.42,2.83.91,4.35,1.26,6,1.44,13.37,1.84,19.81,2.14a91.17,91.17,0,0,0,13.49-.94c5.1-.7,9.87-1.88,14.74-3,.82-.26,1.66-.52,2.47-.79a74.07,74.07,0,0,0,11.76-4.13,83.7,83.7,0,0,0,18.6-10.69c.49-.51,1-1,1.47-1.54a24.2,24.2,0,0,0,5.07-5.8c1.41-2.08,1.65-4.43,2.22-6.63,1-3.6-1.28-7.43-3.54-10.76a22.25,22.25,0,0,0-4.44-4.71,50.69,50.69,0,0,0-13.33-7.22c.52-.35,1.07-.69,1.58-1,5.47-3.81,9.38-8.25,13-12.65a20.78,20.78,0,0,0,4.67-13.82c-.07-2.44-1.9-5.51-3.55-7.64a14.31,14.31,0,0,0-2.31-2.36,21.8,21.8,0,0,0-3.69-2.35c-5.32-2.79-12.42-4.51-19.25-5.82a118.82,118.82,0,0,0-13.82-1.29,102.69,102.69,0,0,0-11.77,0c-5.56.3-11.09.92-16.57,1.52-7.14.8-13.82,2.65-20.55,4.12a134.23,134.23,0,0,0-16.61,5.12,104.38,104.38,0,0,0-28.08-10.35c-2.82-.62-5.74-1-8.7-1.4a99.68,99.68,0,0,0-16.87-.84c-17.36.82-34.78,6.07-46.85,12.84a75.06,75.06,0,0,0-9.76,6.46,18.7,18.7,0,0,0-7.26,10.85c-1.23,4.41,1.41,8.23,4,12.37,2.07,3.35,5.92,6.47,9.62,9.33,1.08.83,2.35,1.58,3.54,2.37a116.94,116.94,0,0,0-11.57,7.61c-6.66,4.93-10.06,10.86-11.42,16.84-1.16,5.1.72,9.61,4.54,14.34,3.38,4.17,10.76,7.08,17.29,9.62a66.83,66.83,0,0,0,15.64,3.93,125.6,125.6,0,0,0,22.07,1.1,137.07,137.07,0,0,0,41-8.43,139.1,139.1,0,0,0,15.88-7l.7.38c.25,2,.45,4.11.62,6.17.24,3,.27,6.07.33,9.1s.12,5.78.16,8.67c0,2.45-.18,4.91-.27,7.37s-.07,4.66-.28,7c-.29,3.1-.58,6.2-.85,9.29-.47,5.16-1.14,10.3-1.83,15.44-.31,2.35-.63,4.7-.94,7.06-.5,2.53-1,5.06-1.47,7.59l20.43,7.68q1.35-6.76,2.69-13.53C1264.59,827.11,1264.84,824.79,1265.14,822.47Zm24-119.55a14.26,14.26,0,0,1,2.38,1.87l-1.69-.12c-.38,0-.77,0-1.15,0-.88-.79-1.82-1.58-2.61-2.4C1287.15,702.45,1288.18,702.67,1289.18,702.92Zm-131.92-6.26c.38,0,.76-.09,1.14-.11h0Z"/><path class="cls-3" d="M1222.37,499.37l-.06-.08,0,0Z"/><path class="cls-4" d="M321.9,488.76s0-.08,0-.12a.28.28,0,0,0,0,.09Z"/><path class="cls-4" d="M321.67,480.74v0Z"/><path class="cls-4" d="M755,378.92a.69.69,0,0,0-.05.13l0-.06A.09.09,0,0,0,755,378.92Z"/><path class="cls-4" d="M723.17,429.53l0,.07,0,0,0-.08Z"/><path class="cls-4" d="M756.22,365.43c-1-4-2.63-7.07-5.87-9.6a.08.08,0,0,0-.08,0c-.07,0-.11.09,0,.14a19.19,19.19,0,0,1,1.76,1.73h0v0l0,0h0a11.86,11.86,0,0,1,1.44,2.26l0-.08a38,38,0,0,1,1.94,7.58.38.38,0,0,0,0-.1,40.94,40.94,0,0,1,.35,9.05,10.89,10.89,0,0,1-.74,2.5l.06-.09-.09.16a.49.49,0,0,1,0,.11s0,0,0-.05a11.61,11.61,0,0,1-1.39,2.08l-1.06,1.05a24.12,24.12,0,0,1-4.4,2.55,59.22,59.22,0,0,1-12.74,3.35,129.21,129.21,0,0,1-24.32.71c-2.83-.19-5.63-.38-8.43-.54-4.67-.24-9.82-1-14.29.54-2,.72-3.84,3-3,5.3s2,3,4.1,3.73a29.44,29.44,0,0,0,5,.95,88.35,88.35,0,0,1,12.72,3.1,40,40,0,0,1,6.21,3.44,47.53,47.53,0,0,1,5.5,5.49,25.76,25.76,0,0,1,5.14,12,32.74,32.74,0,0,1,0,4.43,15.27,15.27,0,0,1-.41,1.51l-.74,1.36c-.26.31-.53.61-.82.9a27.55,27.55,0,0,1-3.23,1.93A91.51,91.51,0,0,1,701.89,437a80.53,80.53,0,0,1-17,.26c-8-1.28-15.67-3.84-23.37-6.15a68.66,68.66,0,0,0-7.27-1.76,38.23,38.23,0,0,0-5.86-.54,12.36,12.36,0,0,0-3.61.44c2.52-2,5-4.06,7.52-6.08a204.59,204.59,0,0,0,25.26-24.6c7.42-8.38,13.63-17.92,19.24-27.56,2.1-3.63,4.24-7.42,4.8-11.6.6-4.74,2.24-9.14,3.4-13.76,0-.06,0-.1-.1-.09s0,0-.06.05c-.24.68-.49,1.33-.74,2,0,0,0,0,0-.06-.93,2.23-1.93,4.42-2.8,6.67-.8,2-1.32,4.13-2.08,6.17a35.1,35.1,0,0,1-3.7,6c-4.24,5.5-8.69,10.83-13.45,15.88-5.39,5.69-11.14,10.94-17,16.16-5.18,4-10.4,7.93-15.72,11.74s-10.84,7.35-16.3,10.95c-4.86,3.2-10,6.09-15,9-6,3.44-12,6.94-18,10.3-23.94,13.4-48.12,26.26-72.39,39-11.14,5.83-22.61,10.86-34,16q-7.26,2.64-14.5,5.36c-3.06,1.15-6.2,2-9.34,2.9l-2.92.82c-4.1,1.16-8.17,2.43-12.35,3.32l-11.2,2.45a35.15,35.15,0,0,0-4.67-2.16,15,15,0,0,0-8,.09,14.61,14.61,0,0,0-7.53,5.11c-.46,0-.92.1-1.37.13l-11.76.9c-3.51.27-7.14.14-10.68.21-12.6.25-25.27-1.13-37.81-2.28-8.18-1-16.36-1.92-24.23-4.55a5.41,5.41,0,0,0-4.39-2c-1-.56-2-1.16-3-1.83a24.35,24.35,0,0,1-3.4-3.41,20.89,20.89,0,0,1-2.07-3.34,41,41,0,0,1-2.47-8.43v0a1.16,1.16,0,0,1,0-.18l0,.09a42.6,42.6,0,0,1-.22-7.9.11.11,0,0,1,0,.05v-.06a.28.28,0,0,0,0-.09v.07a25.92,25.92,0,0,1,1.12-4.41A30.65,30.65,0,0,1,325,472h0a12,12,0,0,1,1.36-1.74c.09-.08-.06-.19-.12-.11a20.3,20.3,0,0,0-6,12.19c-.71,7.21,0,15.72,4.84,21.53a26.7,26.7,0,0,0,4.4,4.12c-.22.26-.45.5-.67.76-1.42,1.51-3,2.88-4.29,4.5-2.37,2.93-4.11,6.23-6.17,9.35a69,69,0,0,1-11,11c.13-.1.27-.19.39-.29-.14.12-.29.22-.44.33l-.15.13.12-.1a64.26,64.26,0,0,1-12,7.14,61.26,61.26,0,0,1-12.28,3.61,47.39,47.39,0,0,1-7.72.28,30.08,30.08,0,0,1-4.62-1l.07,0A13.08,13.08,0,0,1,268,542.2a9.78,9.78,0,0,1-2.3-2.37,1.72,1.72,0,0,0,.17.19c-.21-.41-.44-.8-.66-1.21s-.2-.69-.29-1,0-.66-.05-1A17.62,17.62,0,0,1,266,533h0a26.54,26.54,0,0,1,2.19-3.69l-.07.14a64.2,64.2,0,0,1,8.36-8.21h0a39,39,0,0,1,5.05-3.54c.1-.06,0-.2-.1-.15-4.86,2.45-9.12,6.23-13,9.94-2.7,2.62-5.25,6.52-5.31,10.39s3.85,6.55,6.73,8c4.62,2.34,11,2.29,16,1.56a64.44,64.44,0,0,0,29.82-12.68c-.2.59-.39,1.18-.57,1.78a74.21,74.21,0,0,0-2.67,12.15,44,44,0,0,0,.32,13c.6,3.54,2.79,6.57,5.13,9.12,2.57,2.83,7.37,4.57,11.11,4.59,9.23.08,17.72-4.18,25-9.58a79.54,79.54,0,0,0,13.56-13.07,106.34,106.34,0,0,0,2.64,15,24.25,24.25,0,0,0,10.62,14.45,31.43,31.43,0,0,0,15,4.11c4.59.27,9.37-.74,13.83-1.68,2.32-.48,4.59-1.24,6.9-1.89a48,48,0,0,0,16.23-7.92,46.83,46.83,0,0,0,3.8-3.3c3.45,2.71,7.83,4.34,11.88,5.73s8.55,1.57,12.76,1.83a66.58,66.58,0,0,0,15.49-1.2,50.25,50.25,0,0,0,15-5.35c4.76-2.51,8.87-7.12,11.75-11.58a45.77,45.77,0,0,0,4.39-8.87,48.34,48.34,0,0,0,10.35,6,57.41,57.41,0,0,0,8.12,2.83,66.25,66.25,0,0,0,10.87,1.58c6.5.68,13.05-.3,19.46-1.28a41.65,41.65,0,0,0,15.16-5.85c6.06-3.65,10.72-9.6,13.89-15.79a57.2,57.2,0,0,0,4.8-14.65,95.21,95.21,0,0,0,2-16c0-.44,0-.89,0-1.33a51.57,51.57,0,0,0,12.69,7.86,56.05,56.05,0,0,0,32.48,3.18c9.63-1.89,19.19-6.44,25.4-14.28a34.16,34.16,0,0,0,6.84-14.61,52.13,52.13,0,0,0,.45-16.63,82.14,82.14,0,0,0-5.82-22.67,128.21,128.21,0,0,0,20.92,4.05c7.74.73,15.66-.41,23.21-2.08a77.53,77.53,0,0,0,17.08-5.93,23.84,23.84,0,0,0,9.7-9.29c2.35-3.79,2.62-8.76,2.33-13-.67-9.74-6.45-18.82-13.6-25.16a31.73,31.73,0,0,0-5.41-3.87A139.89,139.89,0,0,0,734.35,393a58.77,58.77,0,0,0,15.3-5.28,14.46,14.46,0,0,0,8-9.44C758.69,374.26,757.23,369.29,756.22,365.43ZM639.55,446.06l-.18-.43.18.41ZM324.65,561.18l.27.34h0C324.83,561.41,324.74,561.3,324.65,561.18Zm2.18,2.19-.55-.22.53.2-.22-.17.24.18.19.07-.17-.06.42.31Zm39.83-40.44c0,.14,0,.28,0,.43a41.2,41.2,0,0,1-2.08,6.79,86.76,86.76,0,0,1-8.72,15.52,74.92,74.92,0,0,1-10.52,11.14,56.36,56.36,0,0,1-8.49,5.3,39,39,0,0,1-5.4,1.7,16.82,16.82,0,0,1-2.56.11l1.48.19a12.27,12.27,0,0,1-2.9-.53l-1.23-.72c-.27-.23-.53-.48-.78-.74s-.41-.67-.63-1a24.55,24.55,0,0,1-.95-3.51,55.45,55.45,0,0,1,.18-8.55,107.75,107.75,0,0,1,5.73-21.5,79,79,0,0,1,7.9-14.72c.06-.09.09-.17.15-.26,6.19,2.44,13.05,3.63,19.39,4.87q5.16,1,10.33,1.78A10.67,10.67,0,0,0,366.66,522.93Zm51.67,17.48a54.62,54.62,0,0,1-1.7,7.2,36.63,36.63,0,0,1-2.19,4,38.39,38.39,0,0,1-2.76,2.8,72.18,72.18,0,0,1-11.42,6.64,45.41,45.41,0,0,1-6.51,2c-.72,0-1.44.06-2.17,0l-.52-.13-.34-.19-.54-.85a77.26,77.26,0,0,1-2.88-12.13c-.49-4.15-.9-8.29-1.14-12.45-.16-2.51-.29-5-.42-7.5a44,44,0,0,0-.81-8.42q5.93.66,11.87,1.22a182.41,182.41,0,0,0,22.19.59c-.22,2.4-.18,4.84-.21,7.05C418.75,533.71,418.63,537.07,418.33,540.41Zm37.82,7.22-.1,0,.12,0Zm.09,0h0l1.91.77A18.37,18.37,0,0,1,456.24,547.68Zm22.9-17.08a78.54,78.54,0,0,1-2.65,12c-.37.75-.77,1.47-1.2,2.19l-.1.09c-.55.35-1.11.68-1.68,1a57.16,57.16,0,0,1-6.06,1.53,60.4,60.4,0,0,1-9.88.36c-.67-.14-1.33-.3-2-.47a2.61,2.61,0,0,0-.17-.28,89.17,89.17,0,0,1-3.4-15.41c-.34-2.61-.67-5.23-1.09-7.84a28.37,28.37,0,0,0-.65-3c2.53-.39,5.05-.79,7.57-1.16,6.76-1,13.41-2.64,20.07-4.06.89-.19,1.77-.42,2.65-.63-.15,1.59-.26,3.17-.4,4.73C479.85,523.32,479.54,527,479.14,530.6Zm83.76-22.91a87.57,87.57,0,0,1-3.6,15.12c-.59,1.21-1.23,2.37-1.92,3.51-.49.54-1,1.06-1.52,1.56s-1.22.74-1.85,1.08a41.86,41.86,0,0,1-4.6,1.17,76.31,76.31,0,0,1-13.09.22,47.47,47.47,0,0,1-6.3-1.55,40.58,40.58,0,0,1-3.91-2.22,56.87,56.87,0,0,1-4.46-4.46,108.44,108.44,0,0,1-7.66-12.9q-1.12-2.14-2.34-4.28a.35.35,0,0,1,0-.08c1.4-.55,2.8-1.11,4.2-1.64,6.75-2.54,13.3-5.79,19.88-8.72,5.52-2.49,10.94-5.23,16.38-7.9,3.38-1.66,6.74-3.4,10.08-5.16.31,1.25.62,2.48.87,3.73.37,3.42.55,6.81.66,10.26A102.82,102.82,0,0,1,562.9,507.69Zm81.41-29.77a48.08,48.08,0,0,1-1.33,5.67c-.24.48-.49,1-.76,1.42q-.72.8-1.5,1.53a40.24,40.24,0,0,1-3.52,2.09,52.5,52.5,0,0,1-7.6,2,68.72,68.72,0,0,1-10.64.17,46.53,46.53,0,0,1-7.17-1.83,55.2,55.2,0,0,1-7.27-4.21c-5.73-4.55-10.66-9.91-16.12-14.77-.74-.65-1.44-1.33-2.15-2l.44-.26q18.12-10.55,35.55-22.21c5-3.39,10-6.86,14.88-10.43.5-.36,1-.75,1.47-1.12a7.44,7.44,0,0,0-1.32,4.75,14.41,14.41,0,0,0,1.4,5.45q.47,1.11,1,2.16a89.33,89.33,0,0,1,4.3,15.27A83.89,83.89,0,0,1,644.31,477.92Zm78.86-48.36c-.1.25-.21.5-.32.74.1-.23.19-.46.29-.7l-.31.39c.11-.16.22-.31.34-.46s.14-.37.22-.55c-.06.17-.12.33-.19.5l.6-.81C723.61,429,723.39,429.27,723.17,429.56Z"/><path class="cls-4" d="M326.83,563.36h0l0,0h0Z"/><path class="cls-4" d="M307.41,533.61l-.08.07,0,0Z"/><path class="cls-4" d="M573.14,355.93V356h0S573.15,356,573.14,355.93Z"/><path class="cls-4" d="M366.61,206.21h0l.1.08Z"/><path class="cls-4" d="M289.61,281.44a179.52,179.52,0,0,0,14.31,19.81c5.48,6.83,11.46,13.19,17.52,19.5,3.21,3.34,6.65,6.44,10.11,9.54A64.63,64.63,0,0,0,346.8,340.7a6.64,6.64,0,0,0,3,2.07.08.08,0,0,0,.07,0,5.3,5.3,0,0,0,2.67.09,35,35,0,0,0,6,1.33,28,28,0,0,0,8.13-.07,41.86,41.86,0,0,0,8.07-2.33,50,50,0,0,0,16.1-10.09c4.25-3.93,7.39-8.92,10.11-14a83.65,83.65,0,0,0,7.17-18.06c3.34-12.49,2.38-25.68-.12-38.21a123.35,123.35,0,0,0-12.6-35.2,71.52,71.52,0,0,0-10.2-13.57,90.61,90.61,0,0,0-14.35-12.6,52.72,52.72,0,0,0-18.3-8.18A26.43,26.43,0,0,0,341.1,183a29.41,29.41,0,0,0-10.39-1.95,26.73,26.73,0,0,0-4.37.35,48.45,48.45,0,0,0-16.22,6C300,193.27,292.51,202.62,287.39,213a106.43,106.43,0,0,0-5.89,15.55,61.76,61.76,0,0,0-2.94,18.73c.07,5.82,1.53,11.7,3.19,17.23A77.84,77.84,0,0,0,289.61,281.44Zm65.42-82c.5.23,1,.45,1.5.69.67,1.25,1.3,2.54,1.9,3.86h0c.31.74.6,1.5.87,2.29,0,.09.16,0,.14-.05a45.69,45.69,0,0,0-1.93-5.63,62.21,62.21,0,0,1,9.09,5.6l-.27-.21.29.22.48.36c-.14-.09-.27-.19-.4-.29a98.54,98.54,0,0,1,15.89,16.32,81,81,0,0,1,8.82,15.81,136,136,0,0,1,8.4,30.87,87.89,87.89,0,0,1,.29,21,71.91,71.91,0,0,1-4.75,16.55,76.91,76.91,0,0,1-7.87,13.88,47.19,47.19,0,0,1-6.57,6.46,53.51,53.51,0,0,1-8.14,4.71,43.17,43.17,0,0,1-8.1,2.51,28.31,28.31,0,0,1-4.32,0c.47-.82.93-1.66,1.37-2.53s.73-1.51,1.05-2.28a81.89,81.89,0,0,0,5.13-15.65,166.79,166.79,0,0,0,3.77-30,80.26,80.26,0,0,0-.4-13.52,82.13,82.13,0,0,0-2.92-15,121.57,121.57,0,0,0-5.69-14.06c-1.1-2.29-2.29-4.54-3.48-6.78a66.7,66.7,0,0,0-8.47-11.91,104.35,104.35,0,0,0-10-10l-.33-.27c-.18-.19-.35-.39-.54-.57a51.4,51.4,0,0,0-5.48-4.25,30.8,30.8,0,0,0-5.3-3c-1.91-.89-3.71-2-5.66-2.89-1.08-.48-2.14-1-3.24-1.4.91-.47,1.81-1,2.76-1.39a4.48,4.48,0,0,0,8.2-2.39c.47-.09.95-.18,1.44-.25a4.45,4.45,0,0,0,8.05-.15c.67,0,1.34,0,2,.09A54.53,54.53,0,0,1,355,199.44Zm-46-6a62.49,62.49,0,0,1,11.55-6.77,43.13,43.13,0,0,1,7.9-2.27,32.45,32.45,0,0,1,7.94-.06,31.56,31.56,0,0,1,5.29,1.45,28,28,0,0,1,5.62,3.23c.92.75,1.79,1.54,2.63,2.35a48.94,48.94,0,0,0-10.67-.69,4.43,4.43,0,0,0-2.82-1,4.51,4.51,0,0,0-3.56,1.8,38.34,38.34,0,0,0-4,1.05,4.36,4.36,0,0,0-2.36-.7,4.54,4.54,0,0,0-4.36,3.48,50.88,50.88,0,0,0-6.33,3.94,17.4,17.4,0,0,0-3.73-.41c-.33,0-.67,0-1,.06a14.76,14.76,0,0,0-3-.43h-.37a15.81,15.81,0,0,0-4.79.88A46.31,46.31,0,0,1,309.05,193.48Z"/><path class="cls-4" d="M448.68,222.24l0,.06,0,0Z"/><path class="cls-4" d="M278.11,372.53a46.2,46.2,0,0,1,6.49-2.17l1,1c-6.62,1.94-11.18,8.92-14,14.71-2.39,4.88-3.53,10.09-2.07,15.39a9.79,9.79,0,0,0,3.57,5.37,12.26,12.26,0,0,0,7.41,2,41.1,41.1,0,0,0,8.09-1.23c2.16-.45,4.25-1.1,6.36-1.76s4-1.29,6-2a28.69,28.69,0,0,0-2.72,6c-1.64,5.3-.56,11.35,3.73,15,4.72,4,11.21,4.54,17.1,3.57a46.18,46.18,0,0,0,19.2-8.29c.83-.58,1.66-1.18,2.47-1.8a27.49,27.49,0,0,0,6.2,11.24c4,4.55,10.22,6.89,16.15,6.91,3.15,0,6.09-1.3,8.9-2.51a23.78,23.78,0,0,0,7-5.26,35.88,35.88,0,0,0,5.6-7.42l.66.86a19,19,0,0,0,8.74,6.07,20.79,20.79,0,0,0,4.76.92,22.32,22.32,0,0,0,6-.43,19.59,19.59,0,0,0,4.54-1.73,23.72,23.72,0,0,0,2.89-1.66,27.76,27.76,0,0,0,7.84-8.24,20.83,20.83,0,0,0,2.8-7.55,18.38,18.38,0,0,0,5.63-.27c4.83-1,8.31-4.25,11.48-7.8a57.63,57.63,0,0,0,7.34-9.5c3.48-6.13,4.07-13.77,4.09-20.64,0-.94,0-1.88-.08-2.81a17.6,17.6,0,0,0,7.85-3.5c4.56-3.42,8.47-7.48,10.74-12.76a37.78,37.78,0,0,0,3-17.79,71.5,71.5,0,0,0-1.46-9.66,52.83,52.83,0,0,0-3.75-10.6A38,38,0,0,0,464,307.9c.82-.11,1.64-.23,2.45-.38,2.79-.54,5.55-1.22,8.31-1.94a25.07,25.07,0,0,0,8-3.48,10.33,10.33,0,0,0,4.35-6.94c.61-3.14-.49-6.87-1.5-9.91-1.42-4.17-3-8.31-5.75-11.81a26.32,26.32,0,0,0-11.91-8.55c9.37-4.83,14.39-16.24,14.6-26.4a18.1,18.1,0,0,0-5.1-12.76c-3-3.21-7.23-4.29-11.47-4.43h-.52c-4.89,0-9.81,1.82-14.2,3.8A26.42,26.42,0,0,0,445,229a10.22,10.22,0,0,0-2,2.11c-1-2.48-2.09-4.93-3.21-7.36a102.35,102.35,0,0,0-7.66-12.92c-1.37-2.11-3.07-4-4.6-6a81.32,81.32,0,0,0-9.9-10.59c.49-.41,1-.82,1.47-1.21a64.3,64.3,0,0,1,12.67-7.77,44,44,0,0,1,8.67-2.51,30,30,0,0,1,5.92,0,31,31,0,0,1,4.8,1.35,25.5,25.5,0,0,1,4.23,2.44,24.21,24.21,0,0,1,3,3,23.53,23.53,0,0,1,2,3.43,23.71,23.71,0,0,1,.93,3.45,19.87,19.87,0,0,1,.05,3.45,21.92,21.92,0,0,1-1.28,4.47,81.75,81.75,0,0,1-6.2,10.42c-1.71,2.56-3.45,5.09-5.25,7.58h0a.08.08,0,0,0,0,0l0,0v0a26.57,26.57,0,0,1-4.06,4.29h0c-.87.58-1.79,1.09-2.7,1.6-.09,0,0,.18.07.14a34.25,34.25,0,0,0,3.75-2.07,22.25,22.25,0,0,0,3.39-3.19c1.71-1.77,3.26-3.73,4.81-5.64,1.7-2.13,3.43-4.24,5-6.44,3.59-4.88,7-10.31,5.73-16.63A20,20,0,0,0,461,186a22.33,22.33,0,0,0-6.42-5.51c-6-3.68-13.3-3.68-19.95-2.11a44.11,44.11,0,0,0-13,5.74c.26-.73.51-1.47.74-2.21,3.08-10.07,5-21.93-.88-31.36a17.46,17.46,0,0,0-6.42-5.77,19.32,19.32,0,0,0-7.5-1.89c-6-.58-11.89,1.89-16.6,5.39a26.66,26.66,0,0,0-2.1,1.72c.89-8.09-.4-16.24-5.63-22.92-2.61-3.33-7-4.68-11-4.68-.35,0-.7,0-1,0a20,20,0,0,0-7.62,2,22.54,22.54,0,0,0-6.76,5.28,29.66,29.66,0,0,0-4.53,6.71c.08-.5.17-1,.24-1.5.77-5.08,1-10.42-.6-15.37a14.45,14.45,0,0,0-12.11-9.63,18.52,18.52,0,0,0-16.2,7.52,30.58,30.58,0,0,0-2.74,4.61,30,30,0,0,0-7.07-10.58,23.87,23.87,0,0,0-9-5.35,18.68,18.68,0,0,0-5.43-.67h-.58a21,21,0,0,0-6,1c-4.09,1.21-7.44,4.83-9.8,8.22a54.94,54.94,0,0,0-5.43,10.6,68.89,68.89,0,0,0-4.16,15.52c-.7-.58-1.41-1.15-2.16-1.71a45.6,45.6,0,0,0-10-5.41,27.8,27.8,0,0,0-8.51-2.09,13.17,13.17,0,0,0-9.75,2.85c-5.28,4.18-6.38,12-7.1,18.27a63.7,63.7,0,0,0,.88,21.47,23.3,23.3,0,0,0,.65,2.31,34.34,34.34,0,0,0-6.4-1.23A33.74,33.74,0,0,0,214.8,178c-4.09,1.75-7.6,4-9.35,8.31-2.22,5.41-1.68,11-.45,16.62a28.35,28.35,0,0,0,4.2,9.54,17.32,17.32,0,0,0-9.71,3.07,20.06,20.06,0,0,0-5.57,6.92A23.4,23.4,0,0,0,191,234.39a23.15,23.15,0,0,0,3.34,10.91c1.8,3.24,4.7,5.6,7.57,7.78a69.56,69.56,0,0,0,11.13,6.46,38,38,0,0,0-16.59,13.84c-3.84,6-3.93,13.21-2.71,19.9a19.5,19.5,0,0,0,4.74,9.19c3.19,3.46,7.12,5.26,11.56,6.63a76,76,0,0,0,9.66,2.06,40.9,40.9,0,0,0-4.08,4.52,38.88,38.88,0,0,0-5.31,9.28c-1.3,3.12-1.23,6.71-.76,10a17.48,17.48,0,0,0,10,13.62,26.47,26.47,0,0,0,10,2.49,42.1,42.1,0,0,0,8.86-.59,23.83,23.83,0,0,0-3.44,5.37,17.12,17.12,0,0,0,.34,13.91,18.1,18.1,0,0,0,10,10,19.36,19.36,0,0,0,6.42.88,33.62,33.62,0,0,0,9-1.46c6-1.6,11.84-4.2,17.5-6.7Zm18.07,27.12c-5.14,2-10.21,3.85-15.67,4.7a13,13,0,0,1-2.86,0,7.31,7.31,0,0,1-1.47-.43l-.92-.55a7.21,7.21,0,0,1-1.29-1.24,12,12,0,0,1-1-1.73,13,13,0,0,1-1-7.27h0c0-.07,0-.13,0-.19a1.11,1.11,0,0,1,0,.17,41.72,41.72,0,0,1,2.15-7.76c0,.07-.07.16-.11.22a41,41,0,0,1,4.87-8.57,22.79,22.79,0,0,1,2.68-2.79l-.07.06a27.41,27.41,0,0,1,4.41-2.67l1,.95c2.07,1.95,4.47,3.63,6.68,5.41,2.65,2.16,5.48,4.09,8.22,6.11L300,382.7a88.46,88.46,0,0,0,13.33,8.52l-.09,0C307.59,394.14,302,397,296.18,399.65Zm12.6,17.06.36.28-.05,0Zm.31.26.06,0,.36.28Zm33.27-16.29a52.75,52.75,0,0,1-5.6,6.08c-1.45,1.37-3.05,2.61-4.63,3.84a51.34,51.34,0,0,1-8.72,5.22,40.19,40.19,0,0,1-7.67,2,29.42,29.42,0,0,1-3.87,0,19.78,19.78,0,0,1-2.24-.66,10.66,10.66,0,0,1-1-.62l-.32-.31-.27-.44c-.07-.22-.13-.44-.18-.67a21.21,21.21,0,0,1,0-2.52A25.3,25.3,0,0,1,309,408.5a50.2,50.2,0,0,1,5.18-8.76,21.13,21.13,0,0,1,2.33-2.59l.13-.08a3.13,3.13,0,0,0,1.52-3.52,77.53,77.53,0,0,0,19,5.73c1.86.3,3.73.52,5.61.69Zm33.26-2.53a50,50,0,0,1-2.67,8.61,57.77,57.77,0,0,1-4.27,7.4,29.72,29.72,0,0,1-3,3.07c-.63.41-1.27.78-1.93,1.13-.53.18-1.06.33-1.6.46h0c-.46-.11-.92-.24-1.37-.38s-1-.57-1.42-.88a20.6,20.6,0,0,1-1.67-1.7,21.39,21.39,0,0,1-1.33-2.27c-.17-.5-.31-1-.44-1.52a57.27,57.27,0,0,1,.29-6.28c.16-1.8.62-3.74.33-5.57.73,0,1.46,0,2.19-.09a110.16,110.16,0,0,0,17-2.33C375.67,397.91,375.64,398,375.62,398.15ZM405,400.08a26.34,26.34,0,0,1-.9,3.3c-.31.58-.64,1.14-1,1.69-.58.62-1.17,1.2-1.78,1.76-.45.3-.9.59-1.36.86l-.09-.1a32.16,32.16,0,0,1-2.49-4.36c0-.08-.07-.16-.1-.23-.8-2.2-1.54-4.43-2.25-6.67a31,31,0,0,0-1.87-4.67c3.74-1.81,7.39-3.82,11-5.87.14.74.26,1.49.45,2.22A67.62,67.62,0,0,1,405,400.08Zm21.33-10.39h0Zm.34-.05h0l.13,0Zm.38.4h0l.4,0Zm9.1-18.14a41.18,41.18,0,0,1-1.73,6.63,30,30,0,0,1-2.05,3.51,60.49,60.49,0,0,1-6.44,6.57c-1.5-2.37-2.77-4.86-4.27-7.24a48.67,48.67,0,0,0-3.4-5.15c.73-.59,1.47-1.17,2.19-1.76a80.15,80.15,0,0,0,13.92-15.68c.25-.35.46-.71.7-1.06.26.59.52,1.18.84,1.77l.12.65A55.67,55.67,0,0,1,436.14,371.9ZM461,341.67a35,35,0,0,1-1.74,6.52,21.33,21.33,0,0,1-1.45,2.45,29.7,29.7,0,0,1-3.59,3.5,22.19,22.19,0,0,1-3,1.86l-.75.2-.12,0-.06,0a16.18,16.18,0,0,1-1.16-1.18,25.47,25.47,0,0,0-3.16-7.63,6.84,6.84,0,0,0-3.92-2.83,125.39,125.39,0,0,0,4.91-14.94,130.89,130.89,0,0,0,3.21-15c.35-2.28.64-4.58.9-6.87a38.51,38.51,0,0,0,2.24,3.82,71.22,71.22,0,0,1,4.07,7.6A61,61,0,0,1,460.74,332,48.2,48.2,0,0,1,461,341.67Zm17.13-46.19c0-.2.05-.39.07-.59h0C478.19,295.08,478.16,295.27,478.12,295.48Zm.1-.61,0,0a.88.88,0,0,1,0-.17l0,0A1.1,1.1,0,0,1,478.22,294.87Zm0-.19,0,0,0-.23A1.48,1.48,0,0,1,478.24,294.68Zm-8.76-20.32a26.32,26.32,0,0,1,3.11,3.23,33.41,33.41,0,0,1,2.57,4.55,66.24,66.24,0,0,1,3.14,11.07,10.76,10.76,0,0,1,0,1.13c-.07.17-.13.34-.19.51l-.37.39a17,17,0,0,1-2.39,1.35,69.55,69.55,0,0,1-11.16,2.71c-1.51.16-3,.28-4.56.35s-3.07,0-4.62-.06a5,5,0,0,0-3.32,1.12q.64-8.64.57-17.3c0-4.77-.35-9.54-.83-14.29a2.29,2.29,0,0,0,.27.14,7.83,7.83,0,0,0,4.11.05l.35,0a40.67,40.67,0,0,1,8.62,2.25A31.51,31.51,0,0,1,469.48,274.36Zm-13.64-5.07h0Zm-11.46-39,0,0a25.35,25.35,0,0,1,4.8-2.88l-.09,0a55,55,0,0,1,11.12-3.12,31.41,31.41,0,0,1,7.12-.12,24.26,24.26,0,0,1,3.11.75,23.61,23.61,0,0,1,2.75,1.62A20.65,20.65,0,0,1,475.6,229a21.8,21.8,0,0,1,1.62,2.9,24.83,24.83,0,0,1,.95,3.75,29.05,29.05,0,0,1-.08,4.07,31.73,31.73,0,0,1-1.93,7.16,44.81,44.81,0,0,1-4.31,7.37,30.41,30.41,0,0,1-3.2,3.22,24.1,24.1,0,0,1-3.39,2.06,50.3,50.3,0,0,1-9.38,3,9.53,9.53,0,0,0-5,.67,1.7,1.7,0,0,0-.14.1c-.46-3.5-1-7-1.59-10.46a131.23,131.23,0,0,0-3.7-15.09c-.64-2.13-1.4-4.2-2.22-6.26A9.89,9.89,0,0,1,444.38,230.27Zm-49.66-76a33.57,33.57,0,0,1,5.3-3.11,25.75,25.75,0,0,1,4-1,26.93,26.93,0,0,1,4.49,0,20.06,20.06,0,0,1,2.52.6,18.43,18.43,0,0,1,2.45,1.37,13,13,0,0,1,1.34,1.33,25.8,25.8,0,0,1,2,3.49,30.74,30.74,0,0,1,1.2,4.45,41.16,41.16,0,0,1-.17,9.28,88.48,88.48,0,0,1-5.51,19.06c-2.72-2.13-5.54-4.13-8.36-6.14a64.68,64.68,0,0,0-9.61-5.62c-.26-.37-.54-.72-.84-1.07a57.65,57.65,0,0,0-8.51-7.46c-.5-.38-1-.74-1.51-1.11.1-.21.22-.39.31-.6a66.87,66.87,0,0,1,4.84-7.15A41.18,41.18,0,0,1,394.72,154.24ZM351.15,143.4a59.7,59.7,0,0,1,4.54-7.61,38.22,38.22,0,0,1,5.32-5.47,23,23,0,0,1,3.29-2,26.23,26.23,0,0,1,5.58-1.47,34.66,34.66,0,0,1,3.53-.08,14.86,14.86,0,0,1,2.7.69,15.57,15.57,0,0,1,2.55,1.49,9.48,9.48,0,0,1,1.18,1.19,21.85,21.85,0,0,1,2.25,3.9,35.85,35.85,0,0,1,1.66,6,39.26,39.26,0,0,1-.17,8.53A66.83,66.83,0,0,1,380.27,160c-.24.55-.47,1.11-.69,1.66.09-.25.2-.52.31-.76-.49,1.05-1,2.09-1.5,3.14a3.05,3.05,0,0,0-.13.32l-5-3.6a57.84,57.84,0,0,0-9.37-5.51,65.21,65.21,0,0,0-12.85-4c-.39-.09-.79-.14-1.19-.23Q350.52,147.2,351.15,143.4Zm-26.09-.76c.89-6.13,1.59-12.3,3.72-18.15a27.55,27.55,0,0,1,2.34-4,15.78,15.78,0,0,1,1.75-1.72,25.16,25.16,0,0,1,3.28-1.93,11.37,11.37,0,0,1,2.14-.54,13.63,13.63,0,0,1,2.39,0c.5.15,1,.27,1.5.4a12,12,0,0,1,2.42,1.3,11.81,11.81,0,0,1,1.63,1.61,17.63,17.63,0,0,1,1.54,2.62,28.58,28.58,0,0,1,1.3,5.25,92.24,92.24,0,0,1,.28,12.88l-.15,4.1q-.85,3-1.48,6.14c-3.81-.76-7.64-1.37-11.54-1.84a45.1,45.1,0,0,0-5.56-.34,53,53,0,0,0-6.53.47C324.49,146.8,324.76,144.7,325.06,142.64Zm24,5.67-.09,2.5-.79-.15C348.47,149.88,348.77,149.1,349.07,148.31Zm-60.26-6.56a75.16,75.16,0,0,1,3.9-14.06,39.72,39.72,0,0,1,3.33-5.86,17.91,17.91,0,0,1,1.44-1.45l.1-.06.32-.1a26.58,26.58,0,0,1,3,0l.32.09a24.8,24.8,0,0,1,2.7,1.67c.85.77,1.63,1.54,2.4,2.38a29.24,29.24,0,0,1,2.15,3.62,45.41,45.41,0,0,1,2.18,8.49c.32,3.2.43,6.4.55,9.62a42.3,42.3,0,0,0,.33,5.55,167,167,0,0,0-16.42,6.24c-2.27,1-4.44,2.2-6.65,3.3l-.25.14A97.14,97.14,0,0,1,288.81,141.75Zm-10.94,36.74,0,0a181.21,181.21,0,0,1,27.6-15.29c7.16-2.75,14.51-5.56,22.1-6.74,6.69-.71,13.29-.18,20,.54l-.87-.14c6.1.88,12.07,1.73,17.86,4a127.88,127.88,0,0,1,12.38,6.62,3.2,3.2,0,0,0,1.49,3.52,3.11,3.11,0,0,0,3.76-.5,90.43,90.43,0,0,1,8.08,5.08c.41.34.81.67,1.19,1a71.68,71.68,0,0,0-20.28-5.1c-5.8-.58-11.57-1.17-17.36-1.73a.07.07,0,0,0,0,.14c10.62,1.8,21.56,3.19,31.58,7.3a75.88,75.88,0,0,1,10.71,6,13.16,13.16,0,0,1,.42,1.86v0a31.9,31.9,0,0,1,.09,3.25c0,.09.11.09.13,0a17.44,17.44,0,0,0,0-4.68c1.52,1,3,2.11,4.47,3.23,2.43,2,4.93,4,7.21,6.19a128.37,128.37,0,0,1,11.59,12.54,98.93,98.93,0,0,1,6.89,10.35c1,1.78,2.16,3.53,3,5.37l2.79,5.8c.86,2.07,1.76,4.13,2.45,6.26,1,3.1,2,6.18,2.81,9.35a165.72,165.72,0,0,1,3.22,16.29,225.85,225.85,0,0,1,2.08,24.52,201.67,201.67,0,0,1-1.46,25.52c-.73,4.06-1.56,8-2.59,12a109.51,109.51,0,0,1-4.58,13.43,84.1,84.1,0,0,1-9.19,16.21,80.48,80.48,0,0,1-12.45,12.51c-7.56,5.58-16,9.86-24.63,13.63a90.31,90.31,0,0,1-20.41,5.61,120.58,120.58,0,0,1-25.62.41,68,68,0,0,1-14.43-3.85c-8.44-3.8-16-9-23.47-14.4-2.24-1.72-4.51-3.44-6.64-5.32a140.38,140.38,0,0,1-15.43-15.8c-4.67-6.41-9.19-12.89-13.23-19.74q-3.57-6.06-6.92-12.22c-1.81-3.32-3.4-6.72-5-10.13-1-2.38-2.06-4.76-2.88-7.21-1.05-3.19-2.31-6.38-3.17-9.63s-1.7-6.61-2.56-9.93-1.27-6.63-1.89-9.93c-.32-2.47-.63-4.95-1-7.41-.36-2.72-.43-5.46-.61-8.2a117.4,117.4,0,0,1,.68-21.2,82.18,82.18,0,0,1,5.17-18.47,67.13,67.13,0,0,1,7.08-12,94.25,94.25,0,0,1,13.29-13.43C273.4,182,275.63,180.24,277.87,178.49ZM247.4,155.08a48.18,48.18,0,0,1,1.93-8.29,19.66,19.66,0,0,1,1-1.91c.93.28,1.83.6,2.73,1a46.55,46.55,0,0,1,7,4,48.3,48.3,0,0,1,6.88,7,61,61,0,0,1,5.15,8.29,11.24,11.24,0,0,0,1.91,4.91c-1.64,1.17-3.27,2.34-4.87,3.59a119.11,119.11,0,0,0-14.37,13c-.55-1.41-1.21-2.77-1.87-4.11-1.25-2.53-2.57-5-3.73-7.62a34.39,34.39,0,0,1-1.82-6.55A70.46,70.46,0,0,1,247.4,155.08Zm-39.06,45.36a40.88,40.88,0,0,1,0-6.91,24.42,24.42,0,0,1,1.17-4.16,14,14,0,0,1,1.22-2.07,8.83,8.83,0,0,1,1.08-1.13,14.51,14.51,0,0,1,2.31-1.35,31.31,31.31,0,0,1,15.13-2,31.24,31.24,0,0,1,5.8,1.48,30.28,30.28,0,0,1,3,1.78,35,35,0,0,1,3.51,3.59c.81,1.1,1.61,2.21,2.42,3.32a16.4,16.4,0,0,0,3.14,3.54,80,80,0,0,0-11.08,27.57c-.12-2.32-3.51-4-5.23-5a54.7,54.7,0,0,0-10-4.36,36,36,0,0,0-8.43-2.08c-.66-1.11-1.28-2.23-1.84-3.42A40.39,40.39,0,0,1,208.34,200.44Zm-4.9,43.08a30.09,30.09,0,0,1-2.61-2.69,26.05,26.05,0,0,1-2.26-4.06,27.21,27.21,0,0,1-1-4.17,26.67,26.67,0,0,1,0-3.69,29.59,29.59,0,0,1,1.6-5.29,22.46,22.46,0,0,1,2.18-3.7,12,12,0,0,1,1.63-1.63,18.6,18.6,0,0,1,3.11-1.76,15.2,15.2,0,0,1,2.59-.69c1-.1,2-.11,2.95-.12a36.22,36.22,0,0,0,3,3.07c3.68,3.3,8.4,4.85,13,6.4a.07.07,0,0,0,.06-.13,44.49,44.49,0,0,1-9.12-5.15l.11.07a32.89,32.89,0,0,1-4-4.14c.47,0,.93,0,1.4.1a68,68,0,0,1,14.28,3.94h0l.07,0h0a22.4,22.4,0,0,1,4.42,2.56l-.05-.05.57.52h0a2.31,2.31,0,0,1,.54.9v0a2.9,2.9,0,0,0,0,.38.06.06,0,0,0,.07.06c-.06.32-.14.63-.2.94a130.25,130.25,0,0,0-1.71,31.43,11.78,11.78,0,0,0-1.2-.33c-2.5-.93-5-1.76-7.56-2.61-3.32-1.13-6.56-2.42-9.82-3.73C211.36,248.06,207.16,246.23,203.44,243.52Zm4.25,47.27,0,0,0,0Zm0,0h0l.31.41Zm2.7,2.47c-.36-.19-.72-.4-1.07-.62a12.73,12.73,0,0,1-1-1,13.32,13.32,0,0,1-.92-1.54,31.38,31.38,0,0,1-1.17-4.33,21,21,0,0,1,0-3.27,24.27,24.27,0,0,1,.94-3.39A29.36,29.36,0,0,1,209,276.3a40.71,40.71,0,0,1,4.14-4.06,44.29,44.29,0,0,1,6.71-3.9,49.44,49.44,0,0,1,8.38-2.37c.86.32,1.72.62,2.59.92a7.23,7.23,0,0,0,4.13.17,176.45,176.45,0,0,0,5.14,27.14c.41,1.5.84,3,1.28,4.53h0c-2.63-.47-5.28-.92-7.93-1.32C225.76,296.22,217.79,295.59,210.41,293.29Zm19.79,44.14a21.21,21.21,0,0,1-2.72-.68c-.75-.4-1.47-.82-2.18-1.28l-.34-.35c-.09-.13-.17-.27-.25-.4a18.16,18.16,0,0,1-.45-1.76c0-.53,0-1,0-1.58s.29-1.16.48-1.75a34.48,34.48,0,0,1,2.44-4.09,38.43,38.43,0,0,1,4.57-4.63,30.08,30.08,0,0,1,4.16-2.39,44.62,44.62,0,0,1,7.44-1.82,46.41,46.41,0,0,0,4.77-.47c1.12,2.48,2.33,4.93,3.51,7.37,2.09,4.31,4.39,8.49,6.8,12.61-1.74.05-3.5.21-5.19.29l-7.25.41A150.69,150.69,0,0,1,230.2,337.43Zm45.74,34.29c-2.12.59-4.23,1.13-6.36,1.69a97.77,97.77,0,0,1-11,2.24,37.19,37.19,0,0,1-6.59.07,29.52,29.52,0,0,1-3.71-.91,12,12,0,0,1-1.82-.93,17.24,17.24,0,0,1-2.2-2.24,17.63,17.63,0,0,1-1.32-2.25,24.06,24.06,0,0,1-1.33-4.76,15,15,0,0,1,0-2,18.16,18.16,0,0,1,.76-2.92,13.58,13.58,0,0,1,1-1.7,30.06,30.06,0,0,1,3.36-3.23,68.59,68.59,0,0,1,11.58-6.29,26.64,26.64,0,0,1,3.76-1.23h.47a5.09,5.09,0,0,0,2.32-.56c1,1.59,2.06,3.18,3.11,4.75a114,114,0,0,0,16.13,18.45A41.61,41.61,0,0,0,275.94,371.72Z"/><path class="cls-4" d="M272,393.13h0v0Z"/><path class="cls-4" d="M230.41,219.9l0,0h0Z"/><path class="cls-4" d="M235.37,223h0s0,0,0,0Z"/><path class="cls-4" d="M617.08,143.68l0,0h0Z"/><path class="cls-4" d="M549.43,131.63h0l0,0,0,0Z"/><path class="cls-4" d="M618.17,118.13h0Z"/><path class="cls-4" d="M493.68,269.65a35.3,35.3,0,0,0,11.1,7.17,40.9,40.9,0,0,0,8.47,2.74q-2.79,7.38-5.1,14.94c-.5,1.59-1,3.16-1.4,4.78a16.76,16.76,0,0,0-.47,5.86,15.13,15.13,0,0,0,1.8,5.62c1.53,2.94,5,4.4,7.91,5.37a17.33,17.33,0,0,0,6,.45,32.65,32.65,0,0,0,5.12-.79,23,23,0,0,0,4.81-1.6,74.92,74.92,0,0,0,3.17,20.47c1.93,6.38,6.33,13,12.8,15.41,7.48,2.76,14.87-.29,19.81-6.18a25.33,25.33,0,0,0,1.79-2.4c.68,1.3,1.4,2.59,2.14,3.86a38.78,38.78,0,0,0,4.59,6c1.93,2.16,4.47,3.33,7.09,4.38s5.8.43,8.25-.35a17.45,17.45,0,0,0,6.78-4.54c3.24-3.28,5-7.93,6.52-12.15.68-1.85,1.25-3.73,1.78-5.62a41.83,41.83,0,0,0,6.71,7.19c2,1.66,4.08,3.08,6.69,3.32a8.8,8.8,0,0,0,7.5-2.78c1.62-1.67,2.38-4,3-6.2a37.15,37.15,0,0,0,1-9.57V324a6,6,0,0,0,2.68,2,12.77,12.77,0,0,0,6.38-.07c3.34-.72,5.86-4.18,7.25-7.05,1.75-3.69,2.81-7.71,4.13-11.55,0-.06-.09-.13-.13-.06-2.06,4.25-3.9,8.63-6.75,12.39a13.58,13.58,0,0,1-2.44,2.29l-1.35.72c-.49.15-1,.31-1.5.45a12.56,12.56,0,0,1-2.94.13l-1.48-.47a8.78,8.78,0,0,1-1.76-1.84A18.65,18.65,0,0,1,632,318c-.26-.67-.5-1.35-.73-2-.13-2.68-.32-5.35-.56-8s-.61-5.52-1.06-8.26c-.3-1.77-.62-4.12-1.82-5.62,2.47-3.5,4.88-7,7.44-10.45,4.31-5.52,9.24-10.74,12.51-16.95,0-.09-.07-.16-.11-.07-.72,1.12-1.46,2.18-2.25,3.26l0-.05c-4.51,5.44-9.59,10.4-14.33,15.64-2.19,2.42-4.3,4.88-6.45,7.32a2.54,2.54,0,0,0-1.63,1.19,4.31,4.31,0,0,0-.48,1.2,80.47,80.47,0,0,1-9.49,9.14,48.9,48.9,0,0,1-8.12,4.84,79.35,79.35,0,0,1-18.06,5.17,40.54,40.54,0,0,1-7.55.14,26.92,26.92,0,0,1-4.49-1.16,26,26,0,0,1-2.95-1.71,71.17,71.17,0,0,1-8.09-9c-8.14-10.72-16-22-21.52-34.29A60.57,60.57,0,0,1,539,256.2,88.47,88.47,0,0,1,539,238c1.38-9.33,3.22-18.59,5.45-27.75.21-.87.46-1.73.68-2.6a9.15,9.15,0,0,0,3.65-7.12,8.35,8.35,0,0,0-.66-3.28c1.59-5,3.34-9.95,5.19-14.86l2.57-5.74A74.92,74.92,0,0,1,565,161.82a66.82,66.82,0,0,1,9.78-9.61c1.11-.83,2.27-1.56,3.42-2.32a5,5,0,0,0,1.4-1,45,45,0,0,1,19.56-7.13,44.86,44.86,0,0,1,10.55-.05,37.56,37.56,0,0,1,7.41,1.93l-.08,0,.11.06.09,0-.07,0a25.27,25.27,0,0,1,4.41,2.72l-.12-.06a30.9,30.9,0,0,1,4.25,4.53h0c.22.3.43.59.63.88,0,.07.16,0,.11-.07a23.55,23.55,0,0,0-10-10.2,32.38,32.38,0,0,0-11.85-3.26c.26-1.12.4-2.33.62-3.27a53.28,53.28,0,0,1,2.25-7.21,33.47,33.47,0,0,1,2.93-5.34,16.34,16.34,0,0,1,2.09-2.31,8.15,8.15,0,0,1,2.43-1.54l-.16.09c.45-.16.9-.29,1.35-.43l-.18,0a7.08,7.08,0,0,1,2.25-.12h0l1.51.55,1.24.76s0,0,0,0a11.35,11.35,0,0,1,2.87,2.83l0,0c.28.61.55,1.23.84,1.85a18,18,0,0,1,.19,2c0,.12.16.12.16,0a8.48,8.48,0,0,0-2-5.9,9.16,9.16,0,0,0-4.42-3.13c-4.47-1.19-8.2,2.38-10.69,5.53a22,22,0,0,0-1.45,2.07c.27-1.88.48-3.78.57-5.69.22-4.58.2-9.18-1.35-13.54-1.86-5.28-7.32-8.43-12.55-9.32a25.11,25.11,0,0,0-4.24-.36A21.23,21.23,0,0,0,574.3,101c-6.07,5.51-8.76,12.78-9.3,20.83a26.91,26.91,0,0,0,0,3.36l-.42-.24c-4.42-2.5-9.45-4.29-14.58-4a14.54,14.54,0,0,0-10.85,5.79,28.33,28.33,0,0,0-4.94,14.9,24.86,24.86,0,0,0,1.14,8.71,46.08,46.08,0,0,0-6.86-.79,25,25,0,0,0-10.23,1.8c-11,4.25-17.67,16.85-15.54,28.42A26.78,26.78,0,0,0,508.6,192c-.83.18-1.65.38-2.48.6-4.31,1.1-9.43,2.74-12.55,6a18.21,18.21,0,0,0-2.68,3.19c-.26.6-.53,1.23-.8,1.84a10.3,10.3,0,0,0-1.42,5.25,16.16,16.16,0,0,0,.27,6.38,37.38,37.38,0,0,0,2,5.26,14.66,14.66,0,0,0,1.78,2.7,38.16,38.16,0,0,0,4.11,4.76,68.14,68.14,0,0,0,6.2,4.94l.77.58c-.92.56-1.83,1.13-2.72,1.71a43.28,43.28,0,0,0-6.63,5.39,40.43,40.43,0,0,0-3.93,4.83,15.61,15.61,0,0,0-2.88,5.46,37.75,37.75,0,0,0-.69,4.51,18.78,18.78,0,0,0,1.91,7.64A23.23,23.23,0,0,0,493.68,269.65Zm125,64.34.56-.74h0C619,333.5,618.85,333.74,618.64,334ZM609,314.11c5.62-3.43,10.08-8.37,14.11-13.5,0,.17.07.35.11.51.13.64.26,1.28.4,1.91a174.3,174.3,0,0,1-1.35,17.47,64.38,64.38,0,0,1-2,10.51,39.42,39.42,0,0,1-3.89-4c-1.51-2.15-2.88-4.35-4.22-6.62a52.22,52.22,0,0,0-3.75-6Zm-23.45,25.2.24.19h0Zm.83.66c-.2-.14-.39-.31-.59-.47h0l.6.47Zm.29.18,0,0,.63-.26C587,340,586.84,340.07,586.63,340.15ZM595,320.82c-.09.42-.17.86-.26,1.28a49.66,49.66,0,0,1-2.36,7.1,70.34,70.34,0,0,1-5.24,10c-.24.25-.47.5-.71.74a19.18,19.18,0,0,1-1.39-1.46,55.74,55.74,0,0,1-5.36-9.39c-.66-1.66-1.27-3.34-1.86-5l-.15-.41C583.46,324.18,589.48,322.85,595,320.82Zm-41.53,11.66a9,9,0,0,1-1.35-.2l1.37.18Zm1.36,0h0l.51-.07Zm2.73-20.17c1.48,1.53,3,3,4.62,4.35-1.86,2.29-2.82,5.34-3.86,8.13A46.7,46.7,0,0,1,555,331l-.66.69c-.33-.54-.64-1.09-.93-1.66a74.76,74.76,0,0,1-2.57-10.7c.12.83.23,1.64.34,2.47-.2-1.47-.41-3-.61-4.42-.41-4-.76-8-.94-12.09,0-.5,0-1,0-1.52C552.15,306.66,554.82,309.49,557.52,312.27Zm-23.11-19.95a15.11,15.11,0,0,1-1.18,2,23.66,23.66,0,0,1-2,1.91,36.12,36.12,0,0,1-4,2.33c-.63.24-1.26.44-1.9.62,1-3.35,2.19-6.66,3.26-9.95q1.56-4.7,3.25-9.35a95.75,95.75,0,0,0,6,9.3A6.68,6.68,0,0,0,534.41,292.32ZM599.76,107.1c0,.12.09.23.14.34a3.45,3.45,0,0,1-.14-.34Zm0,0h0a.19.19,0,0,1,0-.07ZM574,117.43a37.88,37.88,0,0,1,1.21-4.68,32,32,0,0,1,2.37-4.32,28.91,28.91,0,0,1,2.9-3,28.33,28.33,0,0,1,3.23-1.92,20.68,20.68,0,0,1,3.64-.93,35.09,35.09,0,0,1,5.13.07,22.17,22.17,0,0,1,2.8.74,14.56,14.56,0,0,1,2.09,1.24,18.18,18.18,0,0,1,2.1,2.11c.16.31.34.63.5.93a25,25,0,0,1,1.37,5.4,89.73,89.73,0,0,1,.13,14.2c-.11,2-.34,4-.54,6a34.13,34.13,0,0,0-.31,4.67l-1.43,0h-.48A49.46,49.46,0,0,0,580,142a25.6,25.6,0,0,0-2-4.27,70.16,70.16,0,0,1-3.91-13A36.8,36.8,0,0,1,574,117.43Zm-25,14.37.36-.17.11-.08-.09.08c.19-.09.37-.16.56-.23l-.6.25L549,132c.13-.11.26-.22.4-.32Zm-1.11,1.87.64-1.25a4,4,0,0,1,.26-.32,12,12,0,0,1,1.29-.75c.29-.1.6-.19.9-.27a21.46,21.46,0,0,1,2.66,0A39.67,39.67,0,0,1,559,132.7a41.25,41.25,0,0,1,6.61,3.87,27.15,27.15,0,0,1,2.37,2.3,33.08,33.08,0,0,0,3.28,7.6,72.25,72.25,0,0,0-7.83,5.64,51.48,51.48,0,0,0-6,5.87c-.35-.5-.71-1-1.07-1.47-1.65-2.16-3.34-4.25-5-6.37a37.69,37.69,0,0,1-2.92-4.74,31.67,31.67,0,0,1-1.37-4.77,25.2,25.2,0,0,1,0-3.48A21.36,21.36,0,0,1,547.94,133.67ZM519,173c.18-.76.38-1.5.63-2.24s.83-1.53,1.3-2.28c.39-.43.8-.85,1.24-1.25a25,25,0,0,1,2.39-1.41,25.8,25.8,0,0,1,2.81-.73,33.09,33.09,0,0,1,4.34.07,38.83,38.83,0,0,1,6.19,1.89c3.26,1.6,6.48,3.54,9.91,4.69q-1.57,2.7-3.06,5.42a127.94,127.94,0,0,0-5.64,12.38l-2-1c-4.77-2.46-9.55-4.61-14-7.66-.94-.81-1.82-1.64-2.67-2.53a21.05,21.05,0,0,1-1.18-2.06c-.1-.3-.18-.61-.26-.93C518.9,174.48,518.91,173.72,519,173ZM514.17,191l-1,.14-1.35.18C512.62,191.24,513.38,191.12,514.17,191Zm-.42,18.09a48.87,48.87,0,0,1,6.85-1.68,82.28,82.28,0,0,1,11.54.05l.32.11c-1.37,4.38-2.62,8.79-3.81,13.24-.14.51-.24,1-.37,1.54-1.24-.74-2.46-1.48-3.6-2.26-4.23-2.9-8.54-5.75-12.7-8.77-.33-.28-.66-.57-1-.86C511.91,210,512.82,209.55,513.75,209.12Zm-.14,42.4a71.3,71.3,0,0,1,10.52-6,72.92,72.92,0,0,0,.26,12.1c.05.48.16.93.22,1.41l-.29.1c-.34.12-.68.21-1,.3-.85,0-1.69,0-2.53-.07-1.19-.3-2.33-.63-3.47-1a56.15,56.15,0,0,1-6.75-4A33.52,33.52,0,0,1,513.61,251.52Z"/></svg>