<?xml version="1.0" encoding="utf-8"?>
<!-- Generator: Adobe Illustrator 22.0.1, SVG Export Plug-In . SVG Version: 6.00 Build 0)  -->
<!DOCTYPE svg PUBLIC "-//W3C//DTD SVG 1.1//EN" "http://www.w3.org/Graphics/SVG/1.1/DTD/svg11.dtd">
<svg version="1.1" id="Layer_1" xmlns="http://www.w3.org/2000/svg" xmlns:xlink="http://www.w3.org/1999/xlink" x="0px" y="0px"
	 viewBox="0 0 1280 880.3" style="enable-background:new 0 0 1280 880.3;" xml:space="preserve">
<style type="text/css">
	.st0{fill:#2A2B2B;}
	.st1{fill:#D36818;}
	.st2{fill:#F68F37;}
	.st3{fill:#FFFFFF;}
	.st4{fill:#26406D;}
	.st5{fill:none;stroke:#4C5457;stroke-miterlimit:10;}
	.st6{fill:#FDFEFF;}
	.st7{fill:#C1C1C1;}
	.st8{fill:#3D3D3D;}
	.st9{opacity:0.48;enable-background:new    ;}
	.st10{opacity:0.23;enable-background:new    ;}
	.st11{fill:url(#SVGID_1_);}
	.st12{opacity:0.35;enable-background:new    ;}
	.st13{fill:#E61D30;}
	.st14{fill:#9E1226;}
	.st15{fill:url(#SVGID_2_);}
	.st16{fill:url(#SVGID_3_);}
	.st17{fill:url(#SVGID_4_);}
	.st18{fill:none;}
	.st19{fill:#CDDC29;}
	.st20{fill:url(#SVGID_5_);}
	.st21{fill:#F7941E;}
</style>
<g>
	<path class="st0" d="M453.1,451c-0.1,0.1-1,1.6-0.5,2.1s1.4,0.7,1.9-1c0.5-1.7,3.5-8.5,2.1-14.5c-0.2-0.9,0.5-2.1,0.5-2.1
		s2.5-2,1.9-2.9c-0.7-0.7-1.9-0.4-2.3,0.4c-1.4-2.2-2.3-3.1-3.6-2.9c-1.3,0.1-0.9,1.9-0.5,2.3c-2.7-0.5-4,0.4-3.8,1.3
		c0.2,0.7,1.3,1.9,2.9,1.5c-0.7,0.8-1.3,2.9,2.5,1C455.2,437.1,457.8,439.8,453.1,451z"/>
	
		<rect x="340" y="380.6" transform="matrix(0.9974 -7.164187e-02 7.164187e-02 0.9974 -28.1289 31.7278)" class="st1" width="176.5" height="54.7"/>
	<path class="st2" d="M442.7,533.5c0,0-1.3-0.3-1.9,1c-0.5,1.3-1.1,5.5-1.1,5.5s-1.1,0.5-0.5,1.6c0.7,1,2.9,2.9,3.5,5.1
		c0.5,1.1,3.3,3.4,9.4,2.2c2.7-0.5,4.1-1.7,3.8-2.4c-0.1-0.9-0.1-1.5-0.5-1.7c-0.3-1-0.8-2.6-2.5-3.9c-1.7-1.4-4.3-3.8-4.5-5.1
		C448.2,535.2,446.7,533.6,442.7,533.5z"/>
	<path class="st2" d="M404.2,533c0,0-1.3-0.3-1.9,1c-0.5,1.3-1.1,5.5-1.1,5.5s-1.1,0.5-0.5,1.6c0.7,1,2.9,2.9,3.5,5.1
		c0.5,1.1,3.3,3.4,9.4,2.2c2.7-0.5,4.1-1.7,3.8-2.4c-0.1-0.9-0.1-1.5-0.5-1.7c-0.3-1-0.8-2.6-2.5-3.9c-1.7-1.4-4.3-3.8-4.5-5.1
		C409.7,534.7,408.3,533.1,404.2,533z"/>
	<path class="st0" d="M410.1,506.5c-0.3,0.3-0.1,11.6,0.5,16.2c-2.3,3.7-5.1,5.2-6.4,11.2c0.5,0.7,2.1,0.9,3.2,0.5
		c1.1-0.5,5.1-6.2,6-7.1c0.9-1,3.5-3.3,3.5-4.7c-0.3-2,0.3-13.7,0-13.8C416.5,508.6,410.1,506.5,410.1,506.5z"/>
	<path class="st0" d="M435,509c0.2,0.3,6,12.6,9.2,14.1c-0.5,2.5-1.3,7.5-1.6,11.5c0.7,1.4,2.6,1.3,3.6,0.6c0.7-1.1,3-8.8,3-9.6
		c-0.1-1.4,0.3-4.6-0.7-6.2c-1.3-1.8-7.6-12.5-7.6-12.5L435,509z"/>
	
		<ellipse transform="matrix(0.9963 -8.637068e-02 8.637068e-02 0.9963 -39.5414 38.5293)" class="st2" cx="425.5" cy="476.2" rx="38.2" ry="35.9"/>
	<path class="st1" d="M391.5,479.1c-1.7-19.3,12.2-36.4,31.3-38.7c-0.4,0-0.8,0.1-1.2,0.1c-20.9,1.8-36.5,19.3-34.8,39.1
		c1.7,19.7,20,34.3,40.9,32.5c0.8-0.1,1.5-0.2,2.3-0.3C410.5,513.4,393.2,498.9,391.5,479.1z"/>
	<g>
		<path class="st3" d="M456.8,474.4c0.5,4.1-2.5,7.8-6.6,8.2c-4.1,0.5-7.8-2.5-8.2-6.6c-0.5-4.1,2.5-7.8,6.6-8.2
			C452.7,467.4,456.4,470.3,456.8,474.4"/>
		<polygon class="st3" points="401.3,474 404.9,473.6 406.1,483.6 412.4,482.8 412.8,486 402.8,487.1 		"/>
		<path class="st3" d="M413.1,480.1l-0.8-7.4l3.7-0.4l0.8,7.3c0.2,1.9,1.3,2.7,2.7,2.5c1.5-0.2,2.3-1.1,2.1-3l-0.9-7.4l3.7-0.4
			l0.8,7.3c0.5,4.2-1.7,6.3-5.4,6.8C416.1,485.9,413.6,484.3,413.1,480.1"/>
		<polygon class="st3" points="426.2,471.2 430,470.8 433.7,475.5 436.2,470.1 440.1,469.7 441.5,482.8 437.9,483.2 437.1,475.7 
			434.3,481.2 434.2,481.2 430.3,476.5 431.2,484 427.6,484.4 		"/>
		<polygon class="st3" points="428,486.9 431.1,486.6 431.2,487.5 429.1,487.7 429.2,488.3 431.1,488.1 431.2,489 429.3,489.2 
			429.4,489.8 431.5,489.5 431.6,490.5 428.4,490.8 		"/>
		<polygon class="st3" points="432,486.4 433,486.3 434.9,488.2 434.6,486.2 435.7,486 436.2,490 435.2,490.1 433.3,488.1 
			433.5,490.3 432.4,490.4 		"/>
		<polygon class="st3" points="436.6,485.9 439.8,485.6 439.9,486.5 437.8,486.7 437.9,487.4 439.8,487.1 439.9,488 438,488.2 
			438.1,488.8 440.2,488.6 440.3,489.5 437.1,489.9 		"/>
		<path class="st3" d="M440.6,485.5l1.9-0.2c0.6-0.1,1,0.1,1.3,0.3c0.2,0.2,0.4,0.5,0.5,0.9l0,0c0.1,0.6-0.2,1-0.7,1.3l1.1,1.3
			l-1.3,0.1l-0.9-1.1l0,0L442,488l0.1,1.2l-1.1,0.1L440.6,485.5z M442.6,487.2c0.3-0.1,0.6-0.2,0.5-0.5l0,0
			c-0.1-0.3-0.3-0.5-0.6-0.4l-0.7,0.1l0.1,1L442.6,487.2z"/>
		<path class="st3" d="M444.7,487L444.7,487c-0.1-1.1,0.7-2.2,1.9-2.3c0.7-0.1,1.2,0.1,1.7,0.4l-0.6,0.9c-0.3-0.2-0.6-0.3-1-0.3
			c-0.6,0.1-1,0.6-0.9,1.2l0,0c0.1,0.6,0.6,1,1.2,1c0.3-0.1,0.5-0.1,0.6-0.2l-0.1-0.5l-0.8,0.1l-0.1-0.8l1.8-0.2l0.2,1.8
			c-0.4,0.4-0.9,0.7-1.7,0.8C445.9,489,444.9,488.2,444.7,487"/>
		<polygon class="st3" points="450.4,486.9 448.6,484.6 449.8,484.4 450.8,485.8 451.4,484.3 452.6,484.2 451.4,486.7 451.6,488.2 
			450.5,488.4 		"/>
	</g>
	<g>
		<path class="st4" d="M412.5,468.1c0,0-2.1,0.4-2.2,0.4s-1.7,0.6-1.8,0.4c-0.1-0.2-2.2-2.7-2.2-2.7l-0.7-7.8l3-2.9l2.6-1.7l2,0.5
			l2.2,1.3l1.3,4.1l-0.1,3.1l-0.6,4l-0.8,1.2L412.5,468.1z"/>
		<path class="st3" d="M407.6,462c0.1-3.8,2-6.8,4.2-6.7s4.1,3.1,3.9,6.9c0,0.6-0.1,1.1-0.2,1.7c-0.1,1.7-0.8,3.1-1.8,3.9l-0.1,0.1
			c0.7,0,1.4,0,2.1,0.1c1.1-1.7,1.8-4,1.9-6.6c0.1-5.4-2.8-9.9-6.5-10c-3.7-0.1-6.8,4.2-6.9,9.7c-0.1,3.3,1,6.3,2.7,8.1
			c0.9-0.3,1.9-0.6,3-0.9C408.5,467.2,407.5,464.8,407.6,462z"/>
		<g>
			<path class="st0" d="M406.9,469.3L406.9,469.3c-1.8-1.9-2.9-5-2.8-8.2c0.1-5.5,3.3-9.9,7.1-9.8c3.8,0.1,6.8,4.6,6.7,10.1
				c-0.1,2.5-0.7,4.9-1.9,6.6L416,468h-0.1c-0.6-0.1-1.3-0.1-2-0.1h-0.4l0.3-0.3c1-0.8,1.6-2.3,1.7-3.9c0.1-0.6,0.2-1.1,0.2-1.7
				c0.1-1.8-0.3-3.5-1.1-4.8c-0.7-1.3-1.7-1.9-2.7-2c-1,0-2.1,0.6-2.8,1.9c-0.8,1.3-1.3,2.9-1.3,4.7l0,0c-0.1,2.7,0.9,5.1,2.3,6.2
				l0.3,0.2l-0.3,0.1c-1,0.2-2,0.5-2.9,0.8L406.9,469.3z M410.7,451.5c-3.4,0.3-6.2,4.4-6.3,9.5c-0.1,3.1,0.9,6.1,2.6,7.9
				c0.9-0.3,1.7-0.5,2.6-0.7c-1.4-1.2-2.2-3.6-2.2-6.2c0.1-1.8,0.5-3.6,1.3-4.9c0.9-1.3,1.9-2.1,3.1-2c1.1,0,2.2,0.8,3,2.1
				s1.1,3.1,1.1,4.9c0,0.6-0.1,1.1-0.2,1.7c-0.1,1.5-0.7,3-1.6,3.8c0.5,0,1.1,0,1.6,0.1c1.1-1.8,1.8-4,1.8-6.4
				c0.1-5.3-2.7-9.7-6.3-9.8C411.1,451.5,410.9,451.5,410.7,451.5z"/>
		</g>
		<path class="st5" d="M414.4,467.8L414.4,467.8c0.1,0,0.1-0.1,0.1-0.1C414.4,467.7,414.4,467.7,414.4,467.8z"/>
		<g>
			<path class="st0" d="M406,470.5c-0.2,0-0.3-0.1-0.5-0.2c-0.1-0.2,0-0.5,0.2-0.6c2.1-1.1,4.5-1.8,7-2.1c1.9-0.2,3.7-0.2,5.5,0
				c0.2,0.1,0.4,0.3,0.4,0.5c-0.1,0.2-0.3,0.4-0.5,0.4c-1.7-0.2-3.5-0.2-5.3,0c-2.4,0.3-4.7,1-6.7,2
				C406.1,470.5,406,470.5,406,470.5z"/>
		</g>
		<path class="st0" d="M411.9,458.1c-0.2-0.1-1-0.1-1.7,0.1c-1.4,0.6-2.5,2.6-2.5,4.9c-0.1,2.2,0.9,4.2,2.2,4.9
			c0.3-0.1,0.6-0.1,0.9-0.1c0.7-0.1,1.4-0.1,2.1-0.2c0.1,0,0.1-0.1,0.1-0.1c0.9-0.9,1.5-2.3,1.8-3.9c0-0.2,0-0.3,0-0.5
			C414.7,460.8,413.5,458.6,411.9,458.1z"/>
	</g>
	<g>
		<path class="st4" d="M439.3,465.8c0,0-2.1,0.2-2.1,0.2c-0.1,0-1.7,0.3-1.8,0.2c-0.1-0.2-1.8-2.9-1.8-2.9l0.2-7.5l3.1-2.5l2.6-1.3
			l1.8,0.6l1.9,1.5l0.7,4l-0.5,3l-1,3.8l-0.9,1L439.3,465.8z"/>
		<path class="st3" d="M435.2,459.4c0.5-3.6,2.6-6.3,4.7-6c2.2,0.3,3.5,3.4,3,7c-0.1,0.6-0.2,1.1-0.3,1.6c-0.3,1.6-1.1,2.9-2.1,3.6
			l-0.1,0.1c0.7,0.1,1.3,0.1,1.9,0.2c1.3-1.5,2.2-3.7,2.5-6.1c0.7-5.1-1.7-9.7-5.2-10.2c-3.5-0.5-7,3.4-7.7,8.5
			c-0.4,3.1,0.3,6.1,1.7,8c0.9-0.2,1.9-0.4,2.9-0.5C435.5,464.5,434.9,462,435.2,459.4z"/>
		<g>
			<path class="st0" d="M433.8,466.3L433.8,466.3c-1.5-2.1-2.2-5.1-1.8-8.2c0.7-5.3,4.2-9.1,7.8-8.6c3.6,0.5,6,5.1,5.3,10.4
				c-0.3,2.3-1.2,4.6-2.5,6.2l-0.1,0.1h-0.1c-0.6-0.1-1.3-0.2-1.9-0.2l-0.3-0.1l0.3-0.3c1-0.7,1.8-2,2.1-3.5c0.2-0.5,0.3-1,0.3-1.6
				c0.2-1.7,0.1-3.4-0.5-4.7c-0.6-1.3-1.4-2.1-2.4-2.2c-1-0.1-2,0.4-2.9,1.5c-0.9,1.1-1.5,2.7-1.7,4.4l0,0c-0.3,2.6,0.3,5,1.5,6.2
				l0.2,0.2l-0.3,0.1c-1,0.1-1.9,0.2-2.9,0.5L433.8,466.3z M439.3,449.7c-3.3-0.1-6.3,3.6-7,8.4c-0.4,3,0.2,5.9,1.7,7.8
				c0.8-0.2,1.7-0.3,2.5-0.5c-1.2-1.3-1.7-3.7-1.4-6.2c0.2-1.8,0.9-3.4,1.8-4.5c0.9-1.2,2.1-1.7,3.1-1.6c1.1,0.2,2.1,1,2.6,2.3
				s0.8,3.1,0.6,4.9c-0.1,0.6-0.2,1.1-0.3,1.6c-0.3,1.5-1,2.7-1.9,3.5c0.5,0.1,1,0.1,1.5,0.2c1.3-1.5,2.1-3.7,2.4-5.9
				c0.7-5.1-1.6-9.6-5-10.1C439.6,449.7,439.4,449.7,439.3,449.7z"/>
		</g>
		<path class="st5" d="M441.1,465.7L441.1,465.7c0.1,0,0.1-0.1,0.1-0.1C441.1,465.6,441.1,465.6,441.1,465.7z"/>
		<g>
			<path class="st0" d="M432.8,467.4c-0.2,0-0.3-0.1-0.4-0.3c-0.1-0.2,0.1-0.5,0.3-0.6c2.2-0.8,4.5-1.2,6.9-1.3
				c1.8,0,3.6,0.2,5.3,0.6c0.2,0.1,0.4,0.3,0.3,0.5c-0.1,0.2-0.3,0.4-0.5,0.3c-1.6-0.4-3.3-0.6-5-0.6c-2.3,0-4.6,0.4-6.6,1.2
				C432.9,467.4,432.8,467.4,432.8,467.4z"/>
		</g>
		<path class="st0" d="M439.6,456.3c-0.3-0.1-1-0.2-1.7-0.1c-1.4,0.5-2.6,2.2-2.9,4.4c-0.3,2.1,0.4,4.1,1.5,5c0.3,0,0.6,0,0.9,0
			c0.7,0,1.3,0,1.9,0.1c0.1,0,0.1-0.1,0.1-0.1c0.9-0.8,1.7-2.1,2.1-3.6c0.1-0.2,0.1-0.3,0.1-0.5
			C442.1,459.1,441.1,456.9,439.6,456.3z"/>
	</g>
	<g>
		<g>
			<path class="st0" d="M413.6,502.6c-0.2,0-0.4-0.1-0.5-0.2c-0.2-0.3-0.1-0.6,0.1-0.8c0.1-0.1,2.4-1.8,2.5-5.4
				c0-0.3,0.3-0.6,0.6-0.6c0.3,0,0.6,0.3,0.6,0.6c-0.1,4.2-2.9,6.2-3,6.3C413.8,502.6,413.7,502.6,413.6,502.6z"/>
		</g>
		<g>
			<path class="st0" d="M448.7,497c-0.1,0-0.2,0-0.2,0c-0.1-0.1-3-1-4.3-4.5c-0.1-0.3,0.1-0.6,0.3-0.7c0.3-0.1,0.6,0.1,0.7,0.3
				c1,2.9,3.4,3.7,3.5,3.7c0.3,0.1,0.5,0.4,0.4,0.7C449.2,496.8,448.9,496.9,448.7,497z"/>
		</g>
		<path class="st0" d="M415.6,499.2c0.3,0.1,8.2,1.8,15.3,0.3s11.6-2.8,14.9-5.1c0.4,0.3,0.4,0.3,0.4,0.3s-5.3,11.7-15.3,12.5
			c-3,0-5.9,1.3-15.4-7.3C415.8,499.2,415.6,499.2,415.6,499.2z"/>
		<path class="st6" d="M420.8,501.2c-0.1,0-0.3,2.6,3.3,2.2c3.8-0.2,12.1-1.3,15.3-2.4c2.3-1,2.2-1.9,2.1-2.9
			C437.5,499.3,426.9,501.7,420.8,501.2z"/>
	</g>
	<circle class="st3" cx="409.6" cy="462.8" r="1"/>
	<circle class="st3" cx="409.9" cy="464.9" r="0.4"/>
	<circle class="st3" cx="436.6" cy="460.2" r="1"/>
	<path class="st0" d="M395,455.3c0.1,0.1,1,1.6,0.5,2.1c-0.5,0.5-1.4,0.7-1.9-1c-0.5-1.7-3.5-8.5-2.1-14.5c0.2-0.9-0.5-2.1-0.5-2.1
		s-2.5-2-1.9-2.9c0.7-0.7,1.9-0.4,2.3,0.4c1.4-2.2,2.3-3.1,3.6-2.9c1.3,0.1,0.9,1.9,0.5,2.3c2.7-0.5,4,0.4,3.8,1.3
		c-0.2,0.7-1.3,1.9-2.9,1.5c0.7,0.8,1.3,2.9-2.5,1C392.9,441.3,390.2,444,395,455.3z"/>
	<ellipse class="st0" cx="450.7" cy="433" rx="2.1" ry="1.9"/>
</g>
<g>
	<path class="st0" d="M779.4,449.5l26.4,12c0,0,0.4,6.3-3.7,7.1c-9.3-3.2-26.6-11.5-26.6-11.5L779.4,449.5z"/>
	<path class="st7" d="M774.1,456l-52.5-27c0,0-7.1-5.7,1.6-2.7c50.3,20.2,54.9,21.4,54.9,21.4l1.4-6.6l-32.1-11.4
		c0,0-5.3-3.2,1.3-1.8c6.8,1.4,35.3,10.1,35.3,10.1s-2.8,20-12.9,29.2c-14.7-8-30.8-19.9-30.8-19.9s-4.6-5.2,1.9-1.5
		c6.5,3.7,26.9,15.6,27.1,15.7C771.1,459.7,774.1,456,774.1,456z"/>
	<path class="st2" d="M616.4,658.8c0,0,3.4-0.8,4.8,2.6c1.3,3.3,3,14.2,3,14.2s2.9,1.3,1.2,4c-1.7,2.6-7.3,7.3-8.9,13.2
		c-1.1,2.9-8.4,8.6-23.9,5.7c-6.9-1.3-10.3-4.2-9.8-6.2c0.3-2.3,0.1-3.7,1.1-4.4c1-2.5,2-6.6,6.2-9.9c4.1-3.5,10.9-9.7,11.3-13
		C602.3,663,606.1,659,616.4,658.8z"/>
	<path class="st0" d="M583.9,687.9c-1.1,0.7-0.9,2.1-1.1,4.4c-0.5,1.8,2.9,4.8,9.8,6.2c15.6,2.9,22.8-2.8,23.9-5.7
		c1.6-5.9,7.2-10.6,8.9-13.2c1.7-2.7-1.2-4-1.2-4l-7.6,10c0,0-2.3,4.5-4.8,5.1C609.1,691.3,590.8,695.2,583.9,687.9z"/>
	<path class="st2" d="M694.3,660.2c0,0-3.5,0.2-3.9,3.8c-0.4,3.5,1,14.4,1,14.4s-2.4,2.1,0,4.2s9,5,12.1,10.3c1.8,2.5,10.4,6,24.6-1
		c6.3-3.2,8.7-6.9,7.7-8.5c-0.9-2.1-1.1-3.6-2.3-4c-1.6-2.1-3.8-5.8-8.6-7.9c-4.9-2.2-13.1-6.3-14.4-9.4
		C709.1,660.5,704.3,657.6,694.3,660.2z"/>
	<path class="st0" d="M690.5,591.2c-0.4,1.1,7.8,28.5,12.3,39.5c-3.1,10.7-8.9,16.2-8,31.8c1.6,1.4,5.8,0.7,8.2-1.1
		c2.3-2,8.4-18.7,9.9-21.6c1.4-3.2,6.5-10.5,5.3-14.1c-2.2-4.8-8.6-33.9-9.5-33.9C707.8,591.8,690.5,591.2,690.5,591.2z"/>
	<path class="st0" d="M635.8,596.4c-0.4,0.7-15.2,32-23.2,35.8c1.1,6.3,3.4,19.1,4,29.2c-1.8,3.6-6.5,3.4-9.2,1.4
		c-1.8-2.9-7.7-22.4-7.7-24.4c0.1-3.6-0.6-11.6,1.8-15.7c3.3-4.5,19.4-31.8,19.4-31.8L635.8,596.4z"/>
	<path class="st0" d="M569,524.2c0.1-0.4-22.6,6.9-25.4,17.1c-0.5,0.9,0.3,0.7,0.3,1.7c0,2.8,1.1,4.3,2.6,7.3c2.9,4.4,3,6.1,1.1,7
		c-1.8,1.1-6.3,1.6-8.8-4.7c-1.8,3.5-4.7,4.5-5.8,2.9c-1.1-1.8-2.5-5,0.9-11.5c-3.1-0.9-5.8-1.6-5.4-3.6c0.6-1.9,4.4-2.2,7-1.1
		c2.8,0.1,6.9-1.2,7.7-2.8c1.1-1.7,12.7-13.6,18.8-14.3C567.8,521.5,569,524.2,569,524.2z"/>
	
		<ellipse transform="matrix(8.637039e-02 -0.9963 0.9963 8.637039e-02 92.1401 1126.2524)" class="st2" cx="660.1" cy="512.9" rx="91.3" ry="97.3"/>
	<path class="st1" d="M746.7,520.3c4.2-49.3-31.3-92.7-79.7-98.5c1.1,0.1,2.1,0.1,3.1,0.2c53.3,4.7,93,49.2,88.7,99.5
		c-4.3,50.3-51.1,87.3-104.3,82.7c-2-0.2-4-0.4-5.9-0.7C698.3,607.7,742.4,570.6,746.7,520.3z"/>
	<path class="st0" d="M757.1,490.1c-0.3,0.1-4.5,1.7-4.1,3.6c0.4,1.9,1.8,3.7,5.5,1c3.7-2.7,20.4-11.6,26.8-25.8
		c1.1-1.9,4.3-3.5,4.3-3.5s8.3-0.2,8.3-2.8c-0.3-2.5-3.3-3.7-5.4-2.9c0.6-6.6,0.2-9.8-2.7-11.4c-2.8-1.8-4.7,2.5-4.5,3.9
		c-4.7-5.2-8.6-5.4-9.6-3.3c-0.8,1.7-0.4,5.9,3.5,7.7c-2.8,0.4-7.1,3.8,3.4,5.9C782.9,465.3,784.1,474.9,757.1,490.1z"/>
	<path class="st0" d="M733.5,679.5c1.1,0.4,1.4,1.8,2.3,4c1,1.7-1.5,5.4-7.7,8.5c-14.2,7-22.7,3.4-24.6,1
		c-3.2-5.2-9.8-8.2-12.1-10.3c-2.4-2.2,0-4.2,0-4.2l10,7.6c0,0,3.4,3.7,6.1,3.6C710,689.5,728.8,688.4,733.5,679.5z"/>
	<path class="st4" d="M676.4,499.1c0,0,3.7,2.6,3.9,2.7c0.2,0.1,2.8,2.6,3.2,2.4c0.4-0.2,6.6-3.4,6.6-3.4l8.1-14.6l-3.3-8.2
		l-3.6-5.5l-4.2-0.8l-5.5,0.7l-6,6.8l-2.5,6.2l-2.4,8.4l0.5,3L676.4,499.1z"/>
	<path class="st3" d="M691.4,491.2c3.2-7.4,2-15-2.4-16.8c-4.5-1.8-10.6,2.6-13.7,10c-0.4,1.1-0.9,2.3-1.1,3.4
		c-1.2,3.4-1.1,6.9,0,9.2c0,0.1,0.1,0.2,0.1,0.2c-1.3-0.6-2.6-1.2-4.1-1.7c-0.7-4.3-0.1-9.4,2-14.4c4.5-10.7,14.1-16.8,21.3-13.7
		c7.3,3.1,9.6,14.2,5.1,24.8c-2.7,6.5-7.4,11.4-12.3,13.4c-1.5-1.5-3.3-2.9-5-4.2C685,500.7,689.1,496.8,691.4,491.2z"/>
	<path class="st0" d="M686.2,505.9c-1.5-1.5-3.3-2.9-5-4.1l-0.6-0.4l0.7-0.2c3.8-0.9,7.7-4.8,9.9-10.1l0,0c1.5-3.5,2.1-7.2,1.6-10.3
		c-0.4-3.1-1.8-5.2-3.9-6.1c-2-0.9-4.6-0.4-7,1.5c-2.6,1.8-4.8,4.8-6.3,8.4c-0.4,1.1-0.9,2.2-1.1,3.4c-1.1,3.3-1.1,6.6,0,9.1l0.4,1
		l-0.7-0.4c-1.3-0.6-2.6-1.2-4-1.7l-0.2-0.1v-0.2c-0.7-4.6,0-9.8,2-14.6c4.6-10.8,14.4-17,21.7-13.9c7.5,3.2,9.8,14.5,5.3,25.3
		c-2.6,6.3-7.3,11.4-12.4,13.6l-0.2,0.1L686.2,505.9z M693.5,467.8c-7.1-3-16.5,3.1-21,13.6c-1.9,4.7-2.7,9.7-2,14.1
		c1.1,0.4,2,0.8,3.1,1.3c-1-2.5-0.9-5.7,0.2-8.9c0.3-1.1,0.7-2.3,1.1-3.4c1.5-3.6,3.9-6.7,6.5-8.6c2.7-1.9,5.5-2.6,7.7-1.6
		c2.3,1,3.8,3.3,4.2,6.6c0.4,3.3-0.2,7-1.7,10.7c-2.2,5.2-5.9,9.1-9.7,10.3c1.6,1.1,3,2.4,4.4,3.7c4.9-2.1,9.3-7,11.9-13.1
		c4.2-10,2.4-20.4-4-23.9C694.1,468.1,693.8,467.9,693.5,467.8z"/>
	<path class="st0" d="M687.1,509.4c0.4,0.2,0.8,0.2,1.1-0.1c0.4-0.4,0.4-1,0.1-1.4c-3.3-4-7.2-7.3-11.9-10.1c-3.4-2-7-3.7-10.7-4.8
		c-0.5-0.2-1.1,0.2-1.2,0.6c-0.2,0.5,0.1,1.1,0.6,1.2c3.5,1.1,7,2.6,10.3,4.6c4.4,2.6,8.3,5.9,11.4,9.7
		C686.9,509.2,687,509.3,687.1,509.4z"/>
	<path class="st0" d="M684.4,479.3c-0.7,2.5-1.7,5.5-1.7,5.5c0.3-0.3,2.9-2.1,4.9-3.7c2.2,2.5,2.6,7.2,0.6,11.7
		c-1.8,4.4-5.3,7.4-8.5,7.7c-0.5-0.4-1.1-0.7-1.6-1.1c-1.2-0.8-2.6-1.4-3.9-2.1c0-0.1-0.1-0.2-0.1-0.3c-0.9-2.5-0.9-5.8,0-9.2
		c0.1-0.4,0.3-0.6,0.4-1C676.6,481.9,680.8,478.7,684.4,479.3z"/>
	<path class="st4" d="M616.5,494.9c0,0-4.2,1.6-4.4,1.7c-0.2,0-3.3,1.8-3.7,1.5c-0.4-0.3-5.5-5-5.5-5l-4.2-16.1l5.3-7.1l4.8-4.5
		l4.3,0.3l5.1,2l4,8.1l0.8,6.6l0.3,8.7l-1.2,2.8L616.5,494.9z"/>
	<path class="st3" d="M603.9,483.7c-1.1-8,1.8-15,6.5-15.7s9.6,5.2,10.8,13.1c0.2,1.2,0.3,2.5,0.3,3.6c0.4,3.6-0.6,6.9-2.3,9
		c0,0.1-0.1,0.1-0.1,0.2c1.4-0.3,2.9-0.5,4.3-0.6c1.8-4.1,2.4-9.2,1.6-14.4c-1.7-11.4-9.4-19.7-17.3-18.6
		c-7.8,1.1-12.8,11.4-11.1,22.8c1.1,7,4.3,12.9,8.5,16c1.8-1.1,3.9-2,5.9-2.8C607.7,494.4,604.8,489.6,603.9,483.7z"/>
	<path class="st0" d="M605.2,499.3l-0.2-0.1c-4.4-3.3-7.7-9.4-8.7-16.3c-1.8-11.6,3.3-22,11.4-23.2c8-1.1,15.9,7.3,17.6,18.8
		c0.8,5.2,0.2,10.4-1.7,14.6l-0.1,0.2h-0.2c-1.4,0.2-2.8,0.4-4.3,0.6l-0.8,0.2l0.6-0.9c1.8-2.1,2.6-5.3,2.3-8.7
		c0-1.2-0.1-2.4-0.3-3.6c-0.5-3.8-1.9-7.2-4-9.7c-1.9-2.4-4.2-3.5-6.4-3.2c-2.2,0.4-4.1,2.1-5.3,4.9c-1.2,2.9-1.6,6.6-1,10.4l0,0
		c0.9,5.6,3.6,10.5,7,12.2l0.6,0.4l-0.7,0.3c-2,0.8-4,1.8-5.9,2.8L605.2,499.3z M606.8,460.6c-7,1.8-11.4,11.5-9.8,22.2
		c1,6.6,4.1,12.4,8.3,15.7c1.7-0.9,3.3-1.8,5.2-2.5c-3.3-2.1-6-6.9-6.8-12.4c-0.6-3.9-0.2-7.7,1.1-10.7c1.2-3.1,3.3-4.9,5.7-5.4
		c2.5-0.4,4.9,0.9,7,3.4s3.5,6.1,4.1,9.9c0.2,1.2,0.3,2.5,0.3,3.6c0.3,3.3-0.4,6.5-2,8.6c1.1-0.2,2.2-0.4,3.3-0.4
		c1.8-4,2.3-9.1,1.5-14.1c-1.7-11.3-9.2-19.5-16.9-18.3C607.5,460.4,607.1,460.5,606.8,460.6z"/>
	<path class="st0" d="M603.6,502.2c-0.4,0.1-0.8,0-1.1-0.4c-0.4-0.4-0.3-1.1,0.2-1.3c4.1-3,8.8-5.3,14-6.9c3.9-1.1,7.7-1.8,11.6-1.9
		c0.5,0,1,0.4,1,1s-0.4,1-1,1.1c-3.7,0.2-7.5,0.8-11.1,1.8c-4.9,1.5-9.5,3.7-13.4,6.5C603.9,502.2,603.8,502.2,603.6,502.2z"/>
	<path class="st0" d="M612.3,473.7c0.1,2.6,0.3,5.7,0.3,5.7c-0.2-0.4-2.3-2.7-3.9-4.8c-2.7,1.8-4.2,6.3-3.5,11.2
		c0.7,4.8,3.3,8.5,6.3,9.6c0.6-0.2,1.2-0.4,1.8-0.6c1.4-0.4,2.8-0.8,4.2-1.1c0.1-0.1,0.1-0.1,0.2-0.2c1.4-2.2,2.3-5.4,2.3-9
		c0-0.4-0.1-0.7-0.1-1.1C619.3,478.2,615.9,474.2,612.3,473.7z"/>
	<path class="st8" d="M561.2,495.3c0,0,31.5,16.5,72.5,16.5c17.3,0.4,102-15.6,120.1-21.5c7.7-1.4,8.6,6.4,8.6,8.3
		c0,2.3,6.9,64.5-35,88.4c-40.6,22.5-61.7,27-70.4,26.6c-8.7-0.4-69.1-18.3-88.1-59.1C558.6,529.6,557.7,504,561.2,495.3z"/>
	<path class="st0" d="M460.8,482.6l7.1,5c0,0,7.7-13.2,19.3-15.6c11.4-2.4,20.8,1.8,26,4.6c5.2,2.8,32.5,17.3,51.7,10.4
		c2.4-7.4,4.8-10.6,4.8-10.6s-10.4,10.1-51.2-6.5C497.6,462.3,480.5,454.1,460.8,482.6z"/>
	<path class="st0" d="M480.1,514l5-10.6c0,0,10.1,14.1,27.9,5.8c17.1-8.6,21.2-23.3,54.3-26c-3.9,8.6-2.4,9.3-2.4,9.3
		s-25.7,3.9-44.1,23.6C514.8,521.3,497.8,528,480.1,514z"/>
	<path class="st0" d="M635.6,526.8c16.6,0.6,36-2.8,43.8-5.5c-23.9,5.5-67.1-0.7-67.1-0.7c4,3.2,10.1,4.9,17.3,5.7
		c1.1,8.4,7.4,54.5,24.5,69.5C641.5,570.9,634.7,556.4,635.6,526.8z"/>
	<g>
		<path class="st0" d="M549.2,558.8l-26.4-12c0,0-0.4-6.3,3.7-7.1c9.3,3.2,26.6,11.5,26.6,11.5L549.2,558.8z"/>
		<path class="st7" d="M554.5,552.3l52.5,27c0,0,7.1,5.7-1.6,2.7c-50.3-20.2-54.9-21.4-54.9-21.4l-1.4,6.6l32.1,11.4
			c0,0,5.3,3.2-1.3,1.8c-6.8-1.4-35.3-10.1-35.3-10.1s2.8-20,12.9-29.2c14.7,8,30.8,19.9,30.8,19.9s4.6,5.2-1.9,1.5
			s-26.9-15.6-27.1-15.7C557.5,548.6,554.5,552.3,554.5,552.3z"/>
	</g>
	<path class="st0" d="M761.6,498.7c0-1.8-0.9-9.6-8.6-8.3c-10.7,3.5-44.5,10.6-74,15.6c24.4-1,52.6-1.6,54.3-0.1
		c3,2.7,17.8,26.4,15.3,31c-2.3,4.2-8.3,36.4-87.7,76.5c10.7-1.1,31.1-7.3,65.7-26.4C768.5,563.3,761.6,501,761.6,498.7z"/>
	<path class="st8" d="M556.8,500.8c0,0,0.3,1.6,3.2,0c11.1-6,42.6-23.2,81.2-25.5c46.3-2.6,96.9,13.8,109.9,18.6
		c5.6,1.8,12.9,1.3,15.1,0.9c2.2-1.8-1.3-7.7-2.6-9.5c-1.8-2.2-19.9-29.8-37.7-41.1c-18.1-11.3-35-27.7-63.6-29
		c-28.1-0.4-63.1,19.9-78.7,38.5C568.1,472.7,558.6,499.5,556.8,500.8z"/>
	<path class="st0" d="M607.6,465.9c-3,2,39.6-14.6,81.1-2.3C684.9,460.7,641.1,443.8,607.6,465.9z"/>
	<path class="st0" d="M750.8,494.1c5.6,1.8,12.9,1.3,15.1,0.9c2.2-1.8-1.3-7.7-2.6-9.5c-1.8-2.2-19.9-29.8-37.7-41.1
		c-7.2-4.5-14.2-9.8-21.8-14.5c11.2,11.6,19.4,26.8,21.8,31.4c3.5,6.8,1.1,18.3-27.5,13.5c-40.9-6.3-67.5-1.3-84,4.8
		c8.4-1.9,17.3-3.4,26.7-4C687.2,472.9,737.9,489.4,750.8,494.1z"/>
	<path class="st9" d="M641.2,475c-38.6,2.4-70.1,19.5-81.2,25.5c-0.1,0.1-0.3,0.1-0.4,0.2c0.7,0.4,1.1,0.8,1.1,0.8
		s43.7-13.5,75.7-13.5c20.9,0,77.4,3.3,114.5,5.6C737.9,488.9,687.4,472.4,641.2,475z"/>
	<path class="st10" d="M726.6,497.1c-35.5,4-80.7,8.8-96.9,9.4c-16.8,0.6-39.1-2.5-54.2-5.1c13,4.8,34.1,10.6,58.5,10.6
		C646.4,512.4,694.3,504,726.6,497.1z"/>
	<circle class="st3" cx="612.2" cy="491.9" r="1.3"/>
	<circle class="st3" cx="676.8" cy="494.1" r="2"/>
	<path class="st3" d="M547.9,572.9c0,0-1.3,0.4-0.6,1.5c26.5,5.7,27.9,5.9,27.9,5.9L547.9,572.9z"/>
</g>
<g>
	
		<linearGradient id="SVGID_1_" gradientUnits="userSpaceOnUse" x1="1543.3918" y1="1472.4062" x2="1677.0162" y2="1472.4062" gradientTransform="matrix(0.7071 -0.7071 -0.7071 -0.7071 1060.5265 2871.8726)">
		<stop  offset="8.430325e-03" style="stop-color:#000000;stop-opacity:0.3"/>
		<stop  offset="0.8192" style="stop-color:#000000;stop-opacity:0"/>
	</linearGradient>
	<polygon class="st11" points="1236.2,675.9 1236.2,708.4 1079.7,708.4 1079.7,675.9 	"/>
	<g>
		<path class="st2" d="M1160.2,672.8c0,0-3.2-0.7-4.4,2.4c-1.2,2.9-2.7,13-2.7,13s-2.7,1.2-1.1,3.7c1.6,2.4,6.7,6.7,8.2,12.1
			c1,2.7,7.7,7.9,21.9,5.2c6.3-1.2,9.5-3.9,9-5.6c-0.2-2.1-0.1-3.4-1-4.1c-0.9-2.3-1.9-6.1-5.6-9.1c-3.8-3.2-9.9-8.9-10.4-12
			C1173,676.7,1169.6,673,1160.2,672.8z"/>
		<path class="st0" d="M1189.9,699.5c0.9,0.7,0.8,1.9,1,4.1c0.5,1.7-2.7,4.4-9,5.6c-14.3,2.7-20.9-2.6-21.9-5.2
			c-1.5-5.4-6.7-9.7-8.2-12.1c-1.6-2.5,1.1-3.7,1.1-3.7l7,9.3c0,0,2.1,4.2,4.4,4.6C1166.7,702.5,1183.6,706.3,1189.9,699.5z"/>
		<path class="st2" d="M1070.1,671.5c0,0-3.2-0.7-4.4,2.4c-1.2,2.9-2.7,13-2.7,13s-2.7,1.2-1.1,3.7c1.6,2.4,6.7,6.7,8.2,12.1
			c1,2.7,7.7,7.9,21.9,5.2c6.3-1.2,9.5-3.9,9-5.6c-0.2-2.1-0.1-3.4-1-4.1c-0.9-2.3-1.9-6.1-5.6-9.1c-3.8-3.2-9.9-8.9-10.4-12
			C1083.1,675.5,1079.7,671.7,1070.1,671.5z"/>
		<path class="st0" d="M1100,698.3c0.9,0.7,0.8,1.9,1,4.1c0.5,1.7-2.7,4.4-9,5.6c-14.3,2.7-20.9-2.6-21.9-5.2
			c-1.5-5.4-6.7-9.7-8.2-12.1c-1.6-2.5,1.1-3.7,1.1-3.7l7,9.3c0,0,2.1,4.2,4.4,4.6C1076.8,701.3,1093.7,705,1100,698.3z"/>
		<path class="st0" d="M1084,612.1c-0.6,0.8-0.2,27.1,1,38c-5.3,8.6-12,12.1-15,26.1c1,1.7,5,2,7.4,1c2.6-1.2,12-14.3,14.1-16.6
			c2-2.5,8.3-7.6,8.1-11.1c-0.8-4.7,0.8-32,0-32.3C1098.9,617,1084,612.1,1084,612.1z"/>
		<path class="st0" d="M1142.3,618c0.5,0.6,14,29.3,21.3,32.8c-1,5.8-3.2,17.6-3.7,26.9c1.7,3.4,6,3.2,8.5,1.2
			c1.6-2.7,7.1-20.5,7.1-22.3c-0.1-3.3,0.6-10.7-1.6-14.3c-3-4.1-17.8-29.1-17.8-29.1L1142.3,618z"/>
		<path class="st0" d="M1205.2,522.4c-0.5,0.1,13,17.5,22.6,16.7c0.9,0.2,0.6-0.5,1.4-0.7c2.4-0.9,3.6-3,5.5-4.5
			c2.8-3.9,4.3-4.4,5.8-3c1.5,1.2,3.3,5-1.4,9c3.6,0.6,5.3,2.7,4.3,4.1c-1.2,1.5-3.6,3.6-10.3,2.8c0.2,2.9,0.5,5.5-1.5,5.8
			c-1.8,0.1-3.3-3.2-3-5.8c-0.8-2.5-3.2-5.5-4.9-5.9s-15.6-6.8-18.1-11.7C1203.3,524.1,1205.2,522.4,1205.2,522.4z"/>
		
			<ellipse transform="matrix(0.9963 -8.637217e-02 8.637217e-02 0.9963 -42.5812 98.7645)" class="st2" cx="1120" cy="541.5" rx="89.4" ry="83.8"/>
		<path class="st1" d="M1040.6,548.2c-3.9-45.2,28.7-85.1,73.1-90.4c-0.9,0-1.9,0.1-2.8,0.2c-48.9,4.3-85.3,45.1-81.3,91.3
			c3.9,46.1,46.8,80.1,95.7,75.8c1.8-0.1,3.6-0.3,5.4-0.7C1084.9,628.4,1044.6,594.2,1040.6,548.2z"/>
		<g>
			<path class="st4" d="M1093.5,526.2c0,0-5,0.9-5.1,1s-3.9,1.2-4.3,0.9c-0.3-0.3-5.1-6.4-5.1-6.4l-1.6-18.2l7-6.8l6.1-3.9l4.6,1.1
				l5.1,3.2l2.9,9.5l-0.3,7.3l-1.4,9.4l-1.9,2.8L1093.5,526.2z"/>
			<path class="st3" d="M1081.9,511.8c0.2-8.8,4.6-15.9,9.9-15.8c5.3,0.1,9.5,7.3,9.3,16.1c0,1.4-0.1,2.7-0.3,3.9
				c-0.3,3.9-1.9,7.3-4.2,9.3c-0.1,0.1-0.1,0.1-0.2,0.2c1.6,0,3.2,0,4.7,0.1c2.6-4.1,4.3-9.4,4.4-15.3c0.2-12.6-6.5-23.1-15.2-23.2
				c-8.7-0.2-15.9,9.9-16.1,22.6c-0.1,7.8,2.4,14.7,6.3,19c2.3-0.8,4.5-1.5,6.9-1.9C1084,524.1,1081.8,518.3,1081.9,511.8z"/>
			<g>
				<path class="st0" d="M1080.4,528.9l-0.1-0.2c-4.2-4.4-6.5-11.6-6.4-19.2c0.2-12.9,7.7-23.1,16.6-23c8.9,0.2,15.8,10.8,15.6,23.6
					c-0.1,5.8-1.7,11.3-4.5,15.6l-0.1,0.2h-0.2c-1.6-0.1-3.2-0.1-4.7-0.1h-0.9l0.8-0.8c2.3-1.9,3.7-5.3,4.1-9
					c0.2-1.2,0.3-2.6,0.3-3.9c0.1-4.2-0.8-8.1-2.5-11.2c-1.7-2.9-3.9-4.6-6.4-4.6s-4.7,1.5-6.5,4.4c-1.8,2.9-2.9,6.9-2.9,11.1l0,0
					c-0.1,6.3,1.9,12,5.3,14.6l0.7,0.5l-0.8,0.1c-2.4,0.5-4.6,1.1-6.9,1.9L1080.4,528.9z M1089.2,487.4c-8,0.7-14.4,10.4-14.7,22.2
					c-0.1,7.2,2.1,14.1,6.1,18.5c1.9-0.7,3.9-1.2,6-1.7c-3.2-2.8-5.2-8.5-5.1-14.7c0.1-4.3,1.2-8.3,3-11.4c1.9-3,4.5-4.7,7.2-4.7
					s5.2,1.8,7,5c1.8,3.2,2.7,7.2,2.6,11.5c0,1.4-0.1,2.7-0.3,3.9c-0.3,3.6-1.7,6.9-3.7,9c1.2,0,2.5,0,3.7,0.1
					c2.6-4.1,4.2-9.4,4.3-15c0.2-12.4-6.4-22.7-14.9-22.9C1090,487.3,1089.5,487.3,1089.2,487.4z"/>
			</g>
			<path class="st5" d="M1097.8,525.4L1097.8,525.4c0.1-0.1,0.1-0.1,0.2-0.2C1097.9,525.2,1097.9,525.3,1097.8,525.4z"/>
			<g>
				<path class="st0" d="M1078.1,531.7c-0.5,0-0.9-0.2-1-0.6c-0.2-0.6,0-1.1,0.5-1.5c5-2.5,10.5-4.1,16.4-4.9
					c4.4-0.6,8.7-0.6,12.9,0c0.6,0.1,1,0.6,0.9,1.2c-0.1,0.6-0.6,1-1.2,0.9c-4.1-0.6-8.2-0.6-12.4,0c-5.6,0.7-10.9,2.3-15.7,4.6
					C1078.4,531.7,1078.3,531.7,1078.1,531.7z"/>
			</g>
			<path class="st0" d="M1094.3,502.8c-0.5,2.8-0.8,6.2-0.8,6.2c-0.2-0.3-1.9-3.4-3.3-5.9c-3.3,1.6-5.8,6.1-5.9,11.5
				c-0.1,5.3,2,9.7,5.1,11.5c0.7-0.1,1.4-0.2,2-0.3c1.6-0.2,3.2-0.3,4.7-0.3c0.1-0.1,0.1-0.1,0.2-0.2c1.9-2.1,3.5-5.4,4.2-9.3
				c0-0.3,0-0.8,0.1-1.1C1100.9,508.9,1098.1,503.9,1094.3,502.8z"/>
		</g>
		<g>
			<path class="st4" d="M1158.4,520.8c0,0-4.7,0.3-5,0.3c-0.2,0-3.8,0.8-4.2,0.5c-0.2-0.3-4.1-6.7-4.1-6.7l0.5-17.6l7.3-5.8l6.2-3.2
				l4.3,1.6l4.5,3.5l1.8,9.4l-1,7l-2.3,8.8l-2,2.5L1158.4,520.8z"/>
			<path class="st3" d="M1148.9,505.7c1.1-8.5,6.1-14.7,11.2-14c5.1,0.7,8.2,8,7.1,16.5c-0.2,1.2-0.5,2.6-0.8,3.7
				c-0.7,3.7-2.6,6.8-5,8.3c-0.1,0-0.1,0.1-0.2,0.1c1.6,0.1,3,0.3,4.5,0.6c2.9-3.6,5.1-8.6,5.9-14.2c1.6-12.1-3.8-22.8-12.1-23.8
				c-8.2-1-16.2,7.8-17.8,19.9c-1,7.4,0.7,14.3,4.1,18.7c2.1-0.6,4.5-0.9,6.9-1.1C1149.6,517.6,1148,512,1148.9,505.7z"/>
			<g>
				<path class="st0" d="M1145.6,521.9l-0.1-0.2c-3.5-4.7-5.1-11.8-4.1-19c1.6-12.3,9.8-21.3,18.3-20.2c8.5,1.1,14,12,12.4,24.3
					c-0.7,5.5-2.8,10.6-5.9,14.3l-0.1,0.1h-0.2c-1.5-0.2-2.9-0.5-4.5-0.6l-0.9-0.1l0.8-0.7c2.4-1.6,4.2-4.6,4.9-8.2
					c0.3-1.2,0.6-2.5,0.8-3.7c0.6-4.1,0.1-7.9-1.2-10.9c-1.4-3-3.3-4.9-5.6-5.1c-2.4-0.3-4.7,0.9-6.8,3.5c-2,2.6-3.5,6.2-4.1,10.3
					l0,0c-0.8,6,0.6,11.6,3.6,14.4l0.6,0.6l-0.8,0.1c-2.3,0.2-4.6,0.6-6.8,1.1L1145.6,521.9z M1158.4,483.2
					c-7.7-0.2-14.9,8.3-16.4,19.7c-0.9,6.9,0.6,13.8,3.8,18.3c1.9-0.5,3.9-0.8,6-1c-2.8-3-4.1-8.7-3.3-14.6c0.6-4.2,2-7.9,4.2-10.6
					c2.1-2.7,4.9-4.1,7.3-3.7c2.6,0.3,4.7,2.3,6.2,5.5c1.4,3.2,1.8,7.2,1.2,11.3c-0.1,1.2-0.5,2.6-0.8,3.7c-0.7,3.4-2.4,6.4-4.5,8.2
					c1.2,0.1,2.4,0.2,3.5,0.5c2.9-3.6,5-8.6,5.6-13.9c1.6-11.8-3.7-22.3-11.8-23.5C1159.1,483.2,1158.8,483.2,1158.4,483.2z"/>
			</g>
			<path class="st5" d="M1162.5,520.4C1162.6,520.4,1162.6,520.4,1162.5,520.4c0.1,0,0.1-0.1,0.2-0.1
				C1162.8,520.3,1162.6,520.3,1162.5,520.4z"/>
			<g>
				<path class="st0" d="M1143.1,524.4c-0.5,0-0.8-0.2-0.9-0.7c-0.2-0.6,0.1-1.1,0.6-1.4c5.1-1.8,10.5-2.8,16.1-2.9
					c4.2,0,8.3,0.5,12.3,1.4c0.6,0.1,0.9,0.7,0.8,1.2c-0.1,0.6-0.7,0.9-1.2,0.8c-3.8-0.9-7.8-1.4-11.8-1.4c-5.4,0.1-10.6,1-15.5,2.7
					C1143.5,524.4,1143.2,524.4,1143.1,524.4z"/>
			</g>
			<path class="st0" d="M1161.6,498.4c-0.7,2.7-1.4,5.9-1.4,5.9c-0.1-0.3-1.5-3.4-2.5-6c-3.3,1.1-6.1,5.2-6.8,10.4
				c-0.7,5,0.9,9.6,3.7,11.6c0.7,0,1.4-0.1,2-0.1c1.6,0,3,0,4.6,0.1c0.1,0,0.1-0.1,0.2-0.1c2.1-1.8,3.8-4.7,5-8.3
				c0.1-0.3,0.1-0.7,0.2-1C1167.3,505,1165.1,499.9,1161.6,498.4z"/>
		</g>
		<g>
			<g>
				<path class="st0" d="M1100.8,608.1c-0.3,0-0.7-0.1-0.9-0.5c-0.3-0.5-0.2-1,0.2-1.4c0.2-0.1,4.2-3,4.3-9.3c0-0.6,0.5-1,1-1
					s1,0.5,1,1c-0.1,7.2-5,10.7-5.1,10.8C1101.2,608,1100.9,608,1100.8,608.1z"/>
			</g>
			<g>
				<path class="st0" d="M1161.3,598.3c-0.1,0-0.2,0-0.3,0c-0.2-0.1-5.3-1.7-7.3-7.7c-0.2-0.6,0.1-1.1,0.6-1.2
					c0.6-0.2,1.1,0.1,1.2,0.6c1.7,5.1,5.9,6.4,6.1,6.4c0.6,0.1,0.8,0.7,0.7,1.2C1162,598.1,1161.6,598.3,1161.3,598.3z"/>
			</g>
			<path class="st0" d="M1104.3,602.1c0.6,0.1,14.1,3,26.3,0.6c12.2-2.5,20-4.9,25.6-8.8c0.7,0.6,0.7,0.6,0.7,0.6
				s-9.1,20.1-26.4,21.5c-5.3,0-10.3,2.1-26.5-12.6C1104.7,602.2,1104.3,602.1,1104.3,602.1z"/>
			<path class="st6" d="M1113.2,605.6c-0.2,0-0.6,4.5,5.8,3.8c6.5-0.3,20.9-2.1,26.4-4.2c3.9-1.6,3.7-3.3,3.6-5.1
				C1142,602.4,1123.7,606.4,1113.2,605.6z"/>
		</g>
		<path class="st0" d="M1030.4,543c0.1-0.2,1.2-4.3,3-4.1c1.8,0.1,3.5,1.4,1.4,5c-2.3,3.5-9.1,19.5-21.7,26.3
			c-1.7,1.1-2.9,4.2-2.9,4.2s0.5,7.6-2,7.8c-2.3-0.1-3.6-2.7-3-4.7c-6,1-8.9,0.9-10.6-1.7c-1.8-2.5,1.9-4.5,3.3-4.4
			c-5.1-3.9-5.5-7.6-3.7-8.6c1.5-0.9,5.3-0.8,7.2,2.7c0.2-2.6,2.9-6.8,5.6,2.7C1009.6,568.4,1018.3,568.8,1030.4,543z"/>
		<g>
			<path class="st3" d="M1198.3,548c1.1,9.7-5.9,18.5-15.7,19.6c-9.7,1.1-18.5-5.9-19.6-15.7c-1.1-9.7,5.9-18.5,15.7-19.6
				C1188.5,531.2,1197.3,538.2,1198.3,548"/>
			<polygon class="st3" points="1066,547.1 1074.6,546.1 1077.2,569.8 1092.5,568.1 1093.3,575.6 1069.5,578.3 			"/>
			<path class="st3" d="M1095.3,561.7l-1.9-17.6l8.8-1l1.9,17.4c0.5,4.5,3,6.4,6.5,6c3.5-0.3,5.5-2.7,5.1-7.1l-2-17.6l8.8-1
				l1.9,17.4c1.1,10-4.2,15.1-13,16.1C1102.5,575.4,1096.4,571.4,1095.3,561.7"/>
			<polygon class="st3" points="1125.2,540.4 1134.3,539.4 1143.1,550.7 1149.2,537.7 1158.4,536.7 1161.9,567.9 1153.3,569 
				1151.3,551 1144.6,564.1 1144.5,564.1 1135.1,552.8 1137.1,570.8 1128.7,571.7 			"/>
			<polygon class="st3" points="1129.5,577.8 1137,576.9 1137.3,579.1 1132.3,579.7 1132.5,581.1 1137,580.6 1137.3,582.6 
				1132.7,583.2 1132.9,584.6 1137.9,584.1 1138.2,586.3 1130.6,587.1 			"/>
			<polygon class="st3" points="1139.1,576.6 1141.5,576.4 1145.9,580.9 1145.4,576 1148,575.7 1149,585.1 1146.7,585.3 
				1142.1,580.6 1142.7,585.8 1140.1,586.1 			"/>
			<polygon class="st3" points="1150.1,575.4 1157.7,574.6 1158,576.7 1152.9,577.3 1153.2,578.8 1157.7,578.3 1157.9,580.4 
				1153.4,580.8 1153.5,582.3 1158.6,581.7 1158.8,584 1151.3,584.9 			"/>
			<path class="st3" d="M1159.5,574.4l4.4-0.5c1.5-0.1,2.5,0.1,3.2,0.7c0.6,0.5,1,1.1,1.1,2.1l0,0c0.1,1.5-0.5,2.5-1.6,3l2.6,3
				l-3,0.3l-2.3-2.6l0,0l-1.1,0.1l0.3,2.8l-2.6,0.3L1159.5,574.4z M1164.3,578.4c0.9-0.1,1.4-0.6,1.2-1.2l0,0
				c-0.1-0.8-0.7-1-1.6-0.9l-1.7,0.2l0.2,2.3L1164.3,578.4z"/>
			<path class="st3" d="M1169.5,578.1L1169.5,578.1c-0.3-2.8,1.6-5.2,4.5-5.5c1.7-0.2,2.8,0.2,3.9,0.9l-1.4,2
				c-0.8-0.5-1.5-0.8-2.4-0.7c-1.4,0.1-2.3,1.4-2.1,2.8l0,0c0.2,1.5,1.4,2.5,2.8,2.4c0.7-0.1,1.1-0.2,1.5-0.6l-0.1-1.1l-1.8,0.2
				l-0.2-1.9l4.3-0.5l0.5,4.2c-0.9,0.9-2.3,1.7-3.9,1.9C1172.2,582.6,1169.9,580.9,1169.5,578.1"/>
			<polygon class="st3" points="1182.8,577.8 1178.6,572.2 1181.6,571.9 1183.9,575.2 1185.4,571.4 1188.4,571.1 1185.4,577.4 
				1185.9,580.9 1183.2,581.3 			"/>
		</g>
		<path class="st12" d="M1079.3,497.7c0,0-13.3,2.4-17.9-1c-4.6-3.7-18.6-0.7-21.2,6.5c0,0-0.1,0-0.5-0.1c-1.7,2.9-3.2,6.1-4.5,9.3
			c5.8-1.7,12.2-2.9,16.1-1.6c9,3,112-6.1,153.5,3.5c-3.4-9.6-8.6-18.4-15.1-25.9C1154.6,491.6,1079.3,497.7,1079.3,497.7z"/>
		<path class="st13" d="M1039.1,505.4c0,0-8.1-1.4-9.9-7.1c-2.1-5.8-3.9-65.9,51.8-76.8c7.8,2.4,11.7,0.7,13.9-1.7
			c2.5-2.4,11.1-2,14.2,0.7c3.5,2.4,9.6-0.3,10.6-2c1-1.4,8.6-1,10.3,1c1.5,2,7.4,4.1,8.9,2.7c1.5-1.4,40.5,5.4,45.5,45.6
			c6.4,7.8,9.9,11.8,15.6,12.2c5.6,0.3,6.8,7.4,2.8,9.1c-16.4,2-125,10.8-125,10.8s-13.1,2.4-17.7-1
			C1055.5,495.3,1041.6,498.3,1039.1,505.4z"/>
		<path class="st14" d="M1139.3,422.1c-0.2,0-0.3,0.1-0.5,0.1c-1.5,1.4-7.4-0.7-8.9-2.7c0,0,6,11.5,6.9,21.8c1.5,1.8,5.6,3.2,6.7,0
			C1144.8,438.2,1140.4,424,1139.3,422.1z"/>
		<path class="st14" d="M1119.4,418.8c-1.6,1.7-7.1,3.9-10.4,1.7c0,0,9.6,14,10.5,20.4c0.8,4.2,9.6,2.1,8.6-1.1
			C1127.1,436.5,1122.7,421.2,1119.4,418.8z"/>
		<path class="st14" d="M1095.3,419.5c-0.1,0.1-0.3,0.2-0.5,0.3c-2.1,2.4-6,4.1-13.9,1.7c0,0,14.2,16.7,14.8,20
			c0.6,3.3,8.9,3,8.7-0.9C1104.1,436.7,1101.4,422.2,1095.3,419.5z"/>
	</g>
</g>
<g>
	
		<linearGradient id="SVGID_2_" gradientUnits="userSpaceOnUse" x1="1401.6749" y1="1645.157" x2="1495.1516" y2="1645.157" gradientTransform="matrix(0.7071 -0.7071 -0.7071 -0.7071 1060.5265 2871.8726)">
		<stop  offset="8.430325e-03" style="stop-color:#000000;stop-opacity:0.3"/>
		<stop  offset="0.8192" style="stop-color:#000000;stop-opacity:0"/>
	</linearGradient>
	<polygon class="st15" points="981,677.9 981,690.9 861.8,690.9 861.8,677.9 	"/>
	<path class="st2" d="M872.3,667.6c0,0,2-0.5,2.8,1.5c0.8,1.9,1.7,8.2,1.7,8.2s1.7,0.8,0.7,2.4c-1,1.5-4.2,4.2-5.2,7.6
		c-0.7,1.7-4.8,5-13.8,3.3c-4-0.8-5.9-2.5-5.6-3.5c0.2-1.3,0.1-2.2,0.7-2.6c0.6-1.4,1.2-3.8,3.6-5.7c2.4-2,6.3-5.6,6.5-7.5
		C864.1,670,866.3,667.7,872.3,667.6z"/>
	<path class="st0" d="M853.5,684.4c-0.6,0.4-0.5,1.2-0.7,2.6c-0.3,1.1,1.7,2.8,5.6,3.5c9,1.7,13.1-1.6,13.8-3.3
		c1-3.4,4.2-6.1,5.2-7.6c1-1.6-0.7-2.4-0.7-2.4l-4.4,5.8c0,0-1.3,2.6-2.8,3C868.1,686.3,857.5,688.6,853.5,684.4z"/>
	<path class="st2" d="M928.8,666.8c0,0,2-0.5,2.8,1.5c0.8,1.9,1.7,8.2,1.7,8.2s1.7,0.8,0.7,2.4c-1,1.5-4.2,4.2-5.2,7.6
		c-0.7,1.7-4.8,5-13.8,3.3c-4-0.8-5.9-2.5-5.6-3.5c0.2-1.3,0.1-2.2,0.7-2.6c0.6-1.4,1.2-3.8,3.6-5.7c2.4-2,6.3-5.6,6.5-7.5
		C920.7,669.3,922.9,666.9,928.8,666.8z"/>
	<path class="st0" d="M920.1,627.8c0.4,0.5,0.2,17.1-0.7,23.9c3.4,5.4,7.5,7.6,9.4,16.4c-0.7,1.1-3.1,1.3-4.7,0.7
		c-1.6-0.8-7.5-9-8.8-10.4c-1.3-1.6-5.2-4.8-5.1-7c0.5-3-0.5-20.2,0-20.3C910.7,631,920.1,627.8,920.1,627.8z"/>
	<path class="st0" d="M883.5,631.6c-0.3,0.4-8.8,18.5-13.5,20.7c0.7,3.6,2,11,2.4,16.9c-1.1,2.1-3.8,2-5.3,0.8
		c-1-1.7-4.5-12.9-4.4-14.1c0.1-2.1-0.4-6.7,1-9c1.9-2.6,11.2-18.3,11.2-18.3L883.5,631.6z"/>
	<path class="st0" d="M844,571.4c0.3,0.1-8.1,11-14.2,10.5c-0.8-0.3-0.4-0.2-0.9-0.5c-1.4-0.9-5.6-1.9-3.5-2.9
		c-1.8-2.5-2.7-2.8-3.6-2c-0.9,0.8-2.1,3.1,0.9,5.7c-2.3,0.3-3.4,1.7-2.7,2.6c0.8,0.9,2.3,2.3,6.5,1.8c-0.2,1.9-0.3,3.5,0.9,3.6
		c1.2,0.1,2.1-2,2-3.6c0.5-1.6,2-3.5,3-3.7c1.1-0.3,9.8-4.2,11.3-7.4C845.2,572.5,844,571.4,844,571.4z"/>
	
		<ellipse transform="matrix(8.637068e-02 -0.9963 0.9963 8.637068e-02 238.7496 1427.1925)" class="st2" cx="897.5" cy="583.4" rx="52.7" ry="56.2"/>
	<path class="st1" d="M947.4,587.7c2.5-28.4-18-53.5-46-56.9c0.6,0.1,1.2,0.1,1.8,0.1c30.8,2.7,53.7,28.4,51.1,57.4
		c-2.5,29-29.5,50.4-60.2,47.7c-1.2-0.1-2.3-0.3-3.4-0.4C919.6,638.1,944.9,616.7,947.4,587.7z"/>
	<path class="st5" d="M903.7,570.2L903.7,570.2c-0.1-0.1-0.1-0.1-0.2-0.1C903.6,570.2,903.7,570.2,903.7,570.2z"/>
	<g>
		<path class="st4" d="M906.5,570.8c0,0,3.1,0.6,3.2,0.6c0.2,0,2.5,0.8,2.7,0.6s3.2-4,3.2-4l1-11.4l-4.4-4.3l-3.8-2.5l-2.9,0.7
			l-3.2,2l-1.9,6l0.2,4.6l0.9,5.9l1.2,1.8L906.5,570.8z"/>
		<path class="st3" d="M913.7,561.6c-0.1-5.6-2.9-10-6.2-9.9c-3.3,0.1-5.9,4.6-5.8,10.2c0,0.9,0.1,1.7,0.3,2.5
			c0.2,2.5,1.2,4.6,2.6,5.8c0.1,0.1,0.1,0.1,0.1,0.1c-1-0.1-2,0-3,0.1c-1.7-2.5-2.7-5.9-2.8-9.6c-0.2-8,4.1-14.5,9.6-14.6
			c5.5-0.1,10,6.3,10.2,14.2c0.1,4.9-1.5,9.2-4,11.9c-1.4-0.5-2.9-0.9-4.4-1.2C912.4,569.4,913.8,565.8,913.7,561.6z"/>
		<path class="st0" d="M914.5,572.4c-1.4-0.5-2.9-0.9-4.3-1.2l-0.5-0.1l0.4-0.3c2.1-1.6,3.5-5.2,3.4-9.1l0,0c-0.1-2.7-0.7-5.1-1.9-7
			c-1.2-1.8-2.6-2.8-4.1-2.8c-1.5,0.1-3,1.1-4,2.9c-1.1,1.9-1.7,4.4-1.6,7c0,0.8,0.1,1.7,0.3,2.5c0.2,2.4,1.2,4.5,2.6,5.7l0.5,0.5
			h-0.6c-1-0.1-2,0-3,0.1h-0.2l-0.1-0.1c-1.8-2.7-2.7-6.1-2.8-9.8c-0.2-8.1,4.2-14.8,9.8-14.9c5.6-0.1,10.2,6.4,10.4,14.5
			c0.1,4.8-1.4,9.2-4,12l-0.1,0.1L914.5,572.4z M908.4,546.3c-5.3,0.1-9.5,6.6-9.4,14.4c0.1,3.5,1,6.8,2.7,9.4
			c0.8-0.1,1.5-0.1,2.3-0.1c-1.3-1.3-2.2-3.4-2.4-5.7c-0.2-0.8-0.2-1.7-0.3-2.5c-0.1-2.7,0.6-5.3,1.7-7.3c1.2-2,2.7-3.1,4.4-3.2
			c1.7-0.1,3.3,1,4.5,3c1.2,1.9,1.9,4.5,2,7.2c0.1,3.9-1.2,7.4-3.2,9.2c1.3,0.3,2.6,0.7,3.8,1.1c2.5-2.7,3.9-7.1,3.8-11.6
			c-0.2-7.5-4.2-13.6-9.2-14C908.9,546.3,908.7,546.3,908.4,546.3z"/>
		<path class="st0" d="M916.1,574.2c0.3,0,0.6-0.1,0.7-0.4c0.2-0.4,0.1-0.8-0.3-0.9c-3.2-1.6-6.6-2.6-10.3-3c-2.8-0.4-5.5-0.4-8.1,0
			c-0.4,0.1-0.7,0.4-0.6,0.8s0.4,0.7,0.8,0.6c2.5-0.4,5.2-0.4,7.8,0c3.6,0.5,6.9,1.4,9.8,2.9C915.9,574.2,916,574.2,916.1,574.2z"/>
		<path class="st0" d="M907.5,556.1c0.3,1.8,0.5,3.9,0.5,3.9c0.1-0.3,1.2-2.1,2.1-3.7c2.1,1,3.6,3.8,3.7,7.2
			c0.1,3.3-1.3,6.1-3.2,7.3c-0.5-0.1-0.9-0.2-1.3-0.2c-1-0.1-2-0.2-3-0.2c-0.1-0.1-0.1-0.1-0.2-0.1c-1.3-1.4-2.2-3.4-2.6-5.8
			c0-0.3-0.1-0.5-0.1-0.7C903.3,559.9,905.1,556.7,907.5,556.1z"/>
	</g>
	<path class="st4" d="M878,568.9c0,0,3,0.3,3.1,0.3c0.1,0,2.5,0.5,2.6,0.3c0.2-0.2,2.6-4.2,2.6-4.2l-0.3-11l-4.7-3.6l-3.9-2l-2.7,1
		l-2.9,2.2l-1.1,5.9l0.7,4.4l1.5,5.6l1.3,1.6L878,568.9z"/>
	<path class="st3" d="M884,559.4c-0.7-5.3-3.8-9.2-7-8.8c-3.2,0.4-5.2,5.1-4.5,10.3c0.1,0.8,0.3,1.6,0.5,2.4
		c0.5,2.4,1.7,4.3,3.1,5.3c0.1,0.1,0.1,0.1,0.1,0.1c-1,0.1-1.9,0.2-2.9,0.4c-1.9-2.3-3.2-5.4-3.7-8.9c-1-7.6,2.4-14.3,7.6-15
		c5.2-0.7,10.2,4.9,11.2,12.5c0.6,4.7-0.5,9-2.5,11.8c-1.4-0.4-2.8-0.6-4.3-0.7C883.6,566.9,884.5,563.4,884,559.4z"/>
	<path class="st0" d="M885.9,569.6c-1.4-0.4-2.8-0.6-4.3-0.7l-0.5-0.1l0.4-0.4c1.9-1.8,2.8-5.3,2.3-9.1l0,0
		c-0.4-2.5-1.3-4.8-2.5-6.5c-1.3-1.6-2.8-2.4-4.2-2.2c-1.5,0.2-2.7,1.4-3.5,3.2c-0.9,1.9-1.1,4.4-0.8,6.9c0.1,0.8,0.3,1.6,0.5,2.3
		c0.5,2.2,1.6,4.2,3,5.2l0.5,0.5l-0.6,0.1c-1,0.1-1.9,0.2-2.9,0.4h-0.1l-0.1-0.1c-2-2.4-3.3-5.6-3.7-9c-1-7.7,2.5-14.6,7.8-15.2
		c5.3-0.7,10.4,5,11.5,12.7c0.6,4.5-0.4,9-2.6,11.9l-0.1,0.1L885.9,569.6z M877.3,545.3c-5.1,0.7-8.4,7.3-7.4,14.8
		c0.5,3.4,1.7,6.4,3.6,8.7c0.7-0.1,1.5-0.2,2.2-0.3c-1.4-1.1-2.5-3-2.9-5.2c-0.2-0.8-0.4-1.6-0.5-2.4c-0.4-2.6-0.1-5.1,0.8-7.1
		c0.9-2,2.3-3.3,3.9-3.5s3.3,0.6,4.6,2.4c1.4,1.7,2.3,4.1,2.6,6.7c0.5,3.7-0.3,7.2-2.1,9.1c1.3,0.2,2.5,0.4,3.7,0.7
		c2.1-2.9,3-7.2,2.4-11.5c-1-7.1-5.5-12.5-10.3-12.4C877.8,545.2,877.5,545.3,877.3,545.3z"/>
	<path class="st5" d="M875.4,568.7C875.4,568.7,875.3,568.7,875.4,568.7c-0.1-0.1-0.1-0.1-0.2-0.1
		C875.3,568.6,875.3,568.6,875.4,568.7z"/>
	<path class="st0" d="M887.6,571.2c0.3,0,0.5-0.2,0.6-0.4c0.1-0.4-0.1-0.7-0.4-0.9c-3.2-1.2-6.6-1.8-10.1-1.8
		c-2.7-0.1-5.3,0.3-7.7,0.9c-0.4,0.1-0.6,0.5-0.5,0.8c0.1,0.4,0.5,0.6,0.8,0.5c2.4-0.6,4.9-0.9,7.4-0.9c3.4,0.1,6.7,0.6,9.7,1.7
		C887.4,571.2,887.5,571.2,887.6,571.2z"/>
	<path class="st0" d="M877.5,554.9c0.4,1.7,0.9,3.7,0.9,3.7c0.1-0.3,1-2.2,1.6-3.8c2.1,0.7,3.9,3.3,4.3,6.5c0.4,3.2-0.6,6-2.3,7.3
		c-0.4,0-0.9-0.1-1.3-0.1c-1,0-2,0.1-2.9,0.1c-0.1-0.1-0.1-0.1-0.2-0.1c-1.3-1.2-2.5-3-3.1-5.3c-0.1-0.2-0.1-0.5-0.1-0.7
		C874,559,875.3,555.8,877.5,554.9z"/>
	<path class="st0" d="M880.8,621.1c0.3-0.1,6.1-1.4,11.5-0.4c5.3,1,8.7,2,11.2,3.7c0.3-0.3,0.3-0.3,0.3-0.3s-4.1-8.7-11.7-9.2
		c-2.3,0.1-4.5-0.9-11.5,5.7C880.9,621.1,880.8,621.1,880.8,621.1z"/>
	<g>
		<path class="st3" d="M937.3,590.2c-0.4,6-5.6,10.6-11.6,10.2c-6-0.4-10.6-5.6-10.2-11.6c0.4-6,5.6-10.6,11.6-10.2
			C933.2,579,937.7,584.2,937.3,590.2"/>
		<polygon class="st3" points="857.1,575.3 862.5,575.7 861.5,590.3 870.9,590.9 870.6,595.6 855.8,594.6 		"/>
		<path class="st3" d="M872.6,587.2l0.7-10.8l5.4,0.4l-0.7,10.7c-0.2,2.8,1.2,4.2,3.3,4.4c2.2,0.2,3.7-1.1,3.8-3.8l0.7-10.9l5.5,0.4
			l-0.7,10.7c-0.4,6.2-4.2,8.7-9.6,8.4C875.4,596.3,872.2,593.3,872.6,587.2"/>
		<polygon class="st3" points="893.7,577.7 899.4,578.1 903.5,585.9 908.6,578.7 914.3,579.1 913,598.4 907.7,598 908.4,586.9 
			903,594.2 902.8,594.2 898.4,586.3 897.7,597.4 892.5,597 		"/>
		<polygon class="st3" points="892.3,600.8 897,601.1 896.9,602.5 893.8,602.3 893.8,603.2 896.5,603.4 896.5,604.6 893.7,604.5 
			893.6,605.4 896.7,605.6 896.6,606.9 891.9,606.6 		"/>
		<polygon class="st3" points="898.2,601.2 899.7,601.3 901.9,604.5 902.1,601.4 903.7,601.5 903.3,607.4 901.9,607.3 899.6,603.9 
			899.4,607.1 897.8,607 		"/>
		<polygon class="st3" points="905.1,601.6 909.8,602 909.7,603.4 906.6,603.1 906.6,604 909.3,604.2 909.3,605.5 906.5,605.3 
			906.4,606.2 909.5,606.4 909.4,607.8 904.7,607.5 		"/>
		<path class="st3" d="M910.9,602.1l2.8,0.2c0.9,0.1,1.5,0.4,1.9,0.8c0.3,0.4,0.5,0.8,0.4,1.4l0,0c-0.1,0.9-0.6,1.5-1.3,1.7l1.3,2.1
			l-1.9,0.2l-1.1-1.6l0,0l-0.7-0.3l-0.1,1.7l-1.6-0.2L910.9,602.1z M913.4,605c0.6,0.1,0.9-0.2,0.9-0.7l0,0c0.1-0.5-0.3-0.7-0.8-0.8
			l-1.1-0.1l-0.1,1.4L913.4,605z"/>
		<path class="st3" d="M916.2,604.9v0.5c0-1.7,1.7-3,3.5-2.8c1,0.1,1.8,0.5,2.4,1l-1,1.1c-0.4-0.4-1.3-0.6-1.9-0.7
			c-0.9-0.1-2.1,0.6-2.1,1.5l0,0c0,1,1.1,1.7,2,1.7c0.4,0.1,1-0.1,1.2-0.2l0.2-0.7l-1.1-0.1l0.1-1.2l2.7,0.2l-0.2,2.6
			c-0.7,0.5-1.5,0.8-2.5,0.8c-1.8-0.1-3.1-1.8-3.1-3.5"/>
		<polygon class="st3" points="924.7,606.6 922.7,602.8 924.5,603 925.6,605.1 926.9,603.1 928.7,603.2 926.3,606.7 926.1,608.9 
			924.5,608.8 		"/>
	</g>
	<path class="st0" d="M952.2,593.7c-0.1-0.1-2-2-1.4-2.9c0.6-0.9,1.9-1.5,3.1,0.8c1.3,2.3,7.9,11,7.9,20c0.1,1.3,1.4,2.9,1.4,2.9
		s4.3,2.1,3.7,3.5c-0.8,1.3-2.6,1.2-3.5,0.2c-1.3,3.6-2.3,5.2-4.2,5.3c-1.9,0.3-1.9-2.4-1.5-3.1c-3.7,1.6-5.8,0.8-5.8-0.6
		c0-1.1,1.2-3.2,3.7-3.2c-1.4-0.9-2.9-3.7,3.2-2.3C959.8,612.9,962.7,608.2,952.2,593.7z"/>
	<path class="st0" d="M910,683.6c-0.6,0.4-0.5,1.2-0.7,2.6c-0.3,1.1,1.7,2.8,5.6,3.5c9,1.7,13.1-1.6,13.8-3.3c1-3.4,4.2-6.1,5.2-7.6
		c1-1.6-0.7-2.4-0.7-2.4l-4.4,5.8c0,0-1.3,2.6-2.8,3C924.6,685.6,914.1,687.8,910,683.6z"/>
	<circle class="st3" cx="906.5" cy="562.3" r="1.1"/>
	<circle class="st3" cx="877.1" cy="561" r="1.1"/>
	<circle class="st3" cx="877.2" cy="563.8" r="0.8"/>
	<g>
		<path class="st0" d="M851.7,519.3c0-14.8-11.8-26.8-26.5-26.8c-14.8,0-26.6,11.9-26.6,26.8c0,13.9,11,25.2,24.1,26.6v95.8
			c0,1.5,0.9,2.7,2.4,2.7c1.5,0,2.4-1.2,2.4-2.7v-95.9C841.4,544.5,851.7,533.1,851.7,519.3z"/>
		<circle class="st3" cx="825.8" cy="519.3" r="22.9"/>
	</g>
	<path class="st13" d="M814.2,530.9c0.7,0.7,1.6,1.1,2.5,1.1s1.8-0.4,2.5-1.1l6.5-6.5l6.5,6.5c0.7,0.7,1.6,1.1,2.5,1.1
		s1.8-0.4,2.5-1.1c1.4-1.4,1.4-3.6,0-5l-6.5-6.5l6.5-6.5c1.4-1.4,1.4-3.6,0-5c-1.4-1.4-3.6-1.4-5,0l-6.5,6.5l-6.5-6.5
		c-1.4-1.4-3.6-1.4-5,0c-1.4,1.4-1.4,3.6,0,5l6.5,6.5l-6.5,6.5C812.9,527.4,812.9,529.6,814.2,530.9z"/>
	<path class="st0" d="M917.1,548.4c0.3-0.2,0.4-0.6,0.4-0.9c-0.1-0.5-0.6-0.9-1.1-0.8c-0.2,0.1-4.9,0.7-9.1-3.4
		c-0.4-0.4-1-0.4-1.4,0c-0.4,0.4-0.4,1,0,1.4c4.9,4.8,10.5,4,10.7,4C916.8,548.5,916.9,548.5,917.1,548.4z"/>
	<path class="st0" d="M870.3,546.8c-0.3-0.2-0.4-0.6-0.4-0.9c0.1-0.5,0.6-0.9,1.1-0.8c0.2,0.1,4.9,0.7,9.1-3.4c0.4-0.4,1-0.4,1.4,0
		c0.4,0.4,0.4,1,0,1.4c-4.9,4.8-10.5,4-10.7,4C870.6,547,870.4,546.9,870.3,546.8z"/>
	
		<ellipse transform="matrix(0.9677 -0.2521 0.2521 0.9677 -121.9791 226.9077)" class="st0" cx="824.5" cy="589.5" rx="3.5" ry="1.6"/>
	
		<linearGradient id="SVGID_3_" gradientUnits="userSpaceOnUse" x1="814.5591" y1="356.5356" x2="848.6887" y2="356.5356" gradientTransform="matrix(1 0 0 -1 0 882)">
		<stop  offset="8.430325e-03" style="stop-color:#000000;stop-opacity:0.3"/>
		<stop  offset="1" style="stop-color:#000000;stop-opacity:0"/>
	</linearGradient>
	<path class="st16" d="M848.7,519.8l-11.1-11.1c0.9,1.4,0.7,3.2-0.5,4.4l-6.5,6.5l6.5,6.5c1.4,1.4,1.4,3.6,0,5
		c-0.7,0.7-1.6,1.1-2.5,1.1s-1.8-0.4-2.5-1.1l-6.5-6.5l-6.5,6.5c-0.7,0.7-1.6,1.1-2.5,1.1c-0.8,0-1.5-0.3-2.1-0.8l10.9,10.9
		c0.1,0,0.2,0,0.3,0C838.2,542.2,848.4,532.2,848.7,519.8z"/>
</g>
<g>
	
		<linearGradient id="SVGID_4_" gradientUnits="userSpaceOnUse" x1="1458.9166" y1="2064.667" x2="1612.7844" y2="2064.667" gradientTransform="matrix(0.7071 -0.7071 -0.7071 -0.7071 1060.5265 2871.8726)">
		<stop  offset="8.430325e-03" style="stop-color:#000000;stop-opacity:0.3"/>
		<stop  offset="0.8192" style="stop-color:#000000;stop-opacity:0"/>
	</linearGradient>
	<polygon class="st17" points="784.7,315.2 784.7,336.6 588.5,336.6 588.5,315.2 	"/>
	<path class="st2" d="M670.7,299.8c0,0-3.2-0.7-4.5,2.4c-1.3,3-2.8,13.3-2.8,13.3s-2.7,1.3-1.1,3.8s6.9,6.9,8.4,12.4
		c1,2.7,7.8,8.1,22.4,5.3c6.5-1.3,9.6-4,9.2-5.7c-0.2-2.2-0.1-3.5-1-4.1c-0.9-2.3-1.9-6.2-5.8-9.3c-3.9-3.3-10.2-9.1-10.6-12.2
		C683.9,303.8,680.4,299.9,670.7,299.8z"/>
	<path class="st0" d="M701.2,327.1c1,0.6,0.8,2,1,4.1c0.5,1.8-2.7,4.5-9.2,5.7c-14.6,2.7-21.4-2.6-22.4-5.3
		c-1.5-5.5-6.8-9.9-8.4-12.4c-1.6-2.6,1.1-3.8,1.1-3.8l7.1,9.4c0,0,2.2,4.2,4.5,4.8C677.5,330.2,694.7,334,701.2,327.1z"/>
	<path class="st2" d="M578.7,298.5c0,0-3.2-0.7-4.5,2.4c-1.3,3-2.8,13.3-2.8,13.3s-2.7,1.3-1.1,3.8c1.6,2.5,6.9,6.9,8.4,12.4
		c1,2.7,7.8,8.1,22.4,5.3c6.5-1.3,9.6-4,9.2-5.7c-0.2-2.2-0.1-3.5-1-4.1c-0.9-2.3-1.9-6.2-5.8-9.3c-3.9-3.3-10.2-9.1-10.6-12.2
		C592,302.5,588.5,298.7,578.7,298.5z"/>
	<path class="st0" d="M592.9,235.2c-0.6,0.8-0.2,27.7,1,38.8c-5.5,8.8-12.2,12.4-15.3,26.7c1,1.7,5,2.1,7.7,1
		c2.6-1.3,12.3-14.7,14.4-17c2.1-2.5,8.5-7.8,8.4-11.3c-0.8-4.8,0.8-32.8,0-33S592.9,235.2,592.9,235.2z"/>
	<path class="st0" d="M652.5,241.3c0.4,0.6,14.3,30,21.8,33.6c-1.1,5.9-3.2,17.9-3.8,27.4c1.7,3.4,6.1,3.2,8.6,1.3
		c1.7-2.7,7.3-21,7.2-22.9c-0.1-3.4,0.6-10.9-1.6-14.7c-3.1-4.2-18.2-29.8-18.2-29.8L652.5,241.3z"/>
	<path class="st0" d="M716.7,143.5c-0.4,0.1,13.2,17.8,23.1,17.1c4.9-1.9,3.7-1.8,7-5.3c2.9-4,3.1,0.4,5.6-0.6
		c1.5,1.3,3.9,4.6-1.1,6.7c3.7,0.5,5.5,2.7,4.4,4.2c-1.3,1.5-3.7,3.7-10.5,2.9c0.2,3,0.4,5.6-1.5,5.8c-1.9,0.1-3.4-3.2-3.1-5.8
		c-0.8-2.5-3.3-5.7-4.9-5.9c-1.8-0.4-16-6.9-18.5-12C714.7,145.2,716.7,143.5,716.7,143.5z"/>
	
		<ellipse transform="matrix(0.9963 -8.636936e-02 8.636936e-02 0.9963 -11.721 54.9988)" class="st2" cx="629.7" cy="163" rx="91.3" ry="85.7"/>
	<path class="st1" d="M548.5,169.9c-4-46.2,29.3-87,74.8-92.4c-1,0.1-1.9,0.1-2.9,0.2c-50,4.4-87.2,46.1-83.1,93.3
		c4.1,47.2,47.9,81.9,97.9,77.5c1.9-0.2,3.7-0.4,5.6-0.7C593.8,251.9,552.6,217,548.5,169.9z"/>
	<g>
		<path class="st3" d="M704.6,158.6c1.1,9.7-5.9,18.5-15.7,19.6c-9.8,1.1-18.5-5.9-19.6-15.7c-1.1-9.7,5.9-18.5,15.7-19.6
			C694.7,141.8,703.5,148.8,704.6,158.6"/>
		<polygon class="st3" points="571.9,157.7 580.6,156.8 583.3,180.5 598.4,178.8 599.3,186.4 575.4,189.1 		"/>
		<path class="st3" d="M600.1,172.4l-2-17.6l8.8-1l2,17.4c0.5,4.5,3,6.4,6.5,6s5.5-2.7,5-7.1l-2-17.6l8.8-1l2,17.4
			c1.1,10.1-4.1,15.2-13,16.2C607.3,186.1,601.2,182.2,600.1,172.4"/>
		<polygon class="st3" points="631.2,151.1 640.4,150 649.2,161.3 655.3,148.3 664.5,147.3 668,178.6 659.4,179.6 657.4,161.6 
			650.7,174.8 650.6,174.8 641.2,163.5 643.2,181.4 634.7,182.4 		"/>
		<polygon class="st3" points="635.6,188.5 643.1,187.6 643.4,189.8 638.4,190.4 638.6,191.8 643.1,191.3 643.3,193.4 638.8,193.9 
			639,195.4 644,194.8 644.3,197 636.6,197.9 		"/>
		<polygon class="st3" points="645.2,187.4 647.6,187.1 652,191.6 651.5,186.7 654,186.4 655.1,195.8 652.8,196.1 648.2,191.3 
			648.8,196.5 646.2,196.8 		"/>
		<polygon class="st3" points="656.3,186.1 663.9,185.3 664.1,187.5 659.1,188.1 659.3,189.5 663.8,189 664,191 659.5,191.5 
			659.7,193 664.7,192.5 665,194.7 657.3,195.5 		"/>
		<path class="st3" d="M665.7,185.1l4.5-0.5c1.4-0.2,2.5,0.1,3.2,0.7c0.6,0.5,1,1.2,1.1,2.1l0,0c0.2,1.4-0.5,2.5-1.6,3.1l2.6,3
			l-3,0.3l-2.2-2.6l0,0l-1.1,0.1l0.3,2.9l-2.6,0.3L665.7,185.1z M670.5,189.1c0.9-0.1,1.3-0.6,1.3-1.3l0,0c-0.1-0.7-0.7-1.1-1.5-1
			l-1.7,0.2l0.3,2.3L670.5,189.1z"/>
		<path class="st3" d="M675.7,188.7L675.7,188.7c-0.3-2.8,1.6-5.2,4.5-5.5c1.7-0.2,2.9,0.2,4,0.9l-1.3,2c-0.7-0.5-1.4-0.7-2.4-0.6
			c-1.4,0.2-2.3,1.4-2.1,2.9l0,0c0.2,1.5,1.4,2.5,2.8,2.3c0.6-0.1,1.1-0.3,1.5-0.6l-0.1-1.1l-1.9,0.2l-0.2-1.9l4.3-0.5l0.5,4.2
			c-0.9,0.9-2.2,1.7-3.9,1.9C678.4,193.4,676,191.6,675.7,188.7"/>
		<polygon class="st3" points="689,188.4 684.8,182.9 687.7,182.6 690.1,185.8 691.6,182.2 694.5,181.8 691.6,188.1 692,191.7 
			689.4,191.9 		"/>
	</g>
	<g>
		<path class="st4" d="M598.7,143.7c0,0-5,1-5.2,1s-4,1.3-4.4,1c-0.3-0.3-5.1-6.5-5.1-6.5l-1.6-18.6l7.2-6.9l6.2-4l4.7,1.1l5.2,3.2
			l3,9.7l-0.3,7.5l-1.4,9.6l-1.9,2.8L598.7,143.7z"/>
		<path class="st3" d="M586.9,128.8c0.2-9,4.7-16.3,10.1-16.1c5.4,0.1,9.7,7.5,9.5,16.5c0,1.4-0.2,2.7-0.4,4c-0.3,4.1-2,7.5-4.2,9.5
			c-0.1,0.1-0.1,0.1-0.2,0.2c1.7,0,3.3,0,4.9,0.1c2.7-4.1,4.4-9.6,4.5-15.7c0.3-12.9-6.7-23.6-15.6-23.8s-16.3,10.2-16.5,23.1
			c-0.2,7.9,2.4,15,6.4,19.3c2.3-0.8,4.6-1.5,7.1-2C589.1,141.4,586.8,135.6,586.9,128.8z"/>
		<g>
			<path class="st0" d="M585.3,146.4l-0.2-0.2c-4.3-4.6-6.7-11.9-6.5-19.6c0.3-13.1,7.9-23.7,16.9-23.5c9.1,0.2,16.2,11,15.9,24.1
				c-0.1,5.9-1.7,11.6-4.6,15.9l-0.1,0.2h-0.2c-1.6-0.1-3.2-0.1-4.8-0.1h-0.9l0.8-0.8c2.3-2,3.8-5.4,4.1-9.2c0.2-1.3,0.4-2.7,0.4-4
				c0.1-4.3-0.8-8.4-2.6-11.4c-1.7-3-4-4.7-6.5-4.7c-2.5-0.1-4.9,1.5-6.7,4.5c-1.9,3-3,7-3.1,11.3l0,0c-0.1,6.4,2,12.2,5.5,14.8
				l0.6,0.5l-0.8,0.2c-2.4,0.5-4.8,1.2-7,2H585.3z M594.4,103.9c-8.1,0.7-14.8,10.6-15,22.7c-0.2,7.4,2.2,14.5,6.2,18.9
				c2-0.7,4.1-1.3,6.2-1.8c-3.3-2.9-5.3-8.7-5.2-14.9c0.1-4.4,1.2-8.6,3.2-11.7c2-3.2,4.6-4.9,7.4-4.8c2.8,0.1,5.3,1.9,7.1,5.1
				c1.8,3.2,2.8,7.4,2.7,11.8c0,1.4-0.2,2.7-0.4,4.1c-0.3,3.7-1.7,7.1-3.8,9.2c1.3,0,2.5,0,3.8,0.1c2.7-4.2,4.2-9.6,4.3-15.3
				c0.3-12.7-6.6-23.2-15.2-23.4C595.1,103.9,594.8,103.9,594.4,103.9z"/>
		</g>
		<path class="st5" d="M603.2,142.8L603.2,142.8c0.1-0.1,0.2-0.1,0.2-0.2C603.3,142.7,603.2,142.7,603.2,142.8z"/>
		<g>
			<path class="st0" d="M583.1,149.3c-0.4,0-0.9-0.2-1.1-0.6c-0.3-0.5,0-1.2,0.5-1.5c5.1-2.5,10.7-4.2,16.7-4.9
				c4.5-0.5,8.9-0.5,13.2,0c0.6,0.1,1,0.6,0.9,1.2c-0.1,0.6-0.6,1-1.2,0.9c-4.1-0.5-8.4-0.5-12.6,0c-5.8,0.7-11.2,2.3-16,4.7
				C583.4,149.3,583.2,149.3,583.1,149.3z"/>
		</g>
		<path class="st0" d="M597,119.7c-0.4,2.9-0.8,6.4-0.8,6.4c-0.2-0.4-2-3.5-3.3-6c-3.4,1.6-5.9,6.2-6,11.7c-0.1,5.4,2.1,10,5.2,11.8
			c0.7-0.1,1.4-0.2,2.1-0.3c1.6-0.2,3.3-0.3,4.9-0.4c0.1-0.1,0.1-0.1,0.2-0.2c2-2.2,3.5-5.5,4.2-9.5c0-0.4,0.1-0.8,0.1-1.1
			C603.8,126,600.9,120.8,597,119.7z"/>
	</g>
	<g>
		<path class="st4" d="M662.6,138.1c0,0-4.9,0.4-5.1,0.4s-4,0.8-4.2,0.5c-0.3-0.4-4.2-6.8-4.2-6.8l0.4-18l7.5-5.8l6.3-3.2l4.4,1.6
			l4.7,3.6l1.8,9.6l-1.1,7.1l-2.3,9.1l-2.1,2.5L662.6,138.1z"/>
		<path class="st3" d="M652.9,122.7c1.1-8.6,6.2-15,11.4-14.4c5.2,0.7,8.4,8.2,7.3,16.8c-0.2,1.3-0.4,2.6-0.8,3.8
			c-0.7,3.8-2.7,7-5,8.6c-0.1,0.1-0.1,0.1-0.2,0.2c1.6,0.1,3.1,0.3,4.7,0.6c3-3.6,5.2-8.7,6-14.5c1.6-12.3-3.9-23.3-12.4-24.4
			c-8.5-1.1-16.6,8-18.3,20.3c-1,7.6,0.7,14.6,4.1,19.2c2.2-0.5,4.6-0.9,7-1.1C653.6,134.9,652,129.1,652.9,122.7z"/>
		<g>
			<path class="st0" d="M649.5,139.3l-0.1-0.2c-3.6-4.8-5.1-12.1-4.2-19.4c1.6-12.5,10-21.8,18.6-20.6c8.6,1.1,14.3,12.2,12.7,24.8
				c-0.7,5.6-2.9,10.9-6,14.7l-0.1,0.2h-0.2c-1.5-0.3-3-0.5-4.6-0.6l-0.9-0.1l0.9-0.7c2.4-1.6,4.2-4.8,4.9-8.4
				c0.4-1.2,0.6-2.5,0.8-3.8c0.5-4.1,0.1-8.1-1.3-11.2c-1.3-3.1-3.4-4.9-5.7-5.2c-2.4-0.3-4.8,1-6.9,3.6c-2.1,2.7-3.6,6.4-4.1,10.5
				l0,0c-0.8,6.1,0.6,11.9,3.7,14.8l0.6,0.5l-0.8,0.1c-2.4,0.2-4.7,0.6-6.9,1.1L649.5,139.3z M662.6,99.6
				c-7.8-0.2-15.2,8.5-16.7,20.1c-0.9,7.1,0.5,14.1,3.9,18.7c2-0.5,4-0.8,6.1-1c-2.8-3.1-4.1-8.8-3.4-14.8c0.6-4.2,2.1-8.1,4.3-10.8
				c2.2-2.8,4.9-4.2,7.5-3.8c2.6,0.3,4.9,2.3,6.3,5.6c1.4,3.2,1.9,7.3,1.3,11.6c-0.2,1.3-0.4,2.6-0.8,3.9c-0.7,3.5-2.4,6.6-4.6,8.4
				c1.2,0.1,2.4,0.3,3.6,0.5c3-3.7,5-8.7,5.8-14.2c1.6-12.1-3.8-22.9-12.1-24C663.4,99.7,663,99.7,662.6,99.6z"/>
		</g>
		<path class="st5" d="M666.9,137.7L666.9,137.7c0.1,0,0.2-0.1,0.2-0.2C667.1,137.6,667,137.7,666.9,137.7z"/>
		<g>
			<path class="st0" d="M647,141.8c-0.4,0-0.8-0.3-1-0.7c-0.2-0.5,0.1-1.1,0.6-1.3c5.1-1.9,10.7-2.9,16.5-2.9
				c4.3,0,8.6,0.4,12.6,1.4c0.6,0.1,0.9,0.7,0.8,1.3s-0.7,0.9-1.3,0.8c-3.9-0.9-7.9-1.4-12.1-1.3c-5.6,0.1-10.9,1-15.8,2.8
				C647.3,141.8,647.2,141.8,647,141.8z"/>
		</g>
		<path class="st0" d="M663.4,115.3c-0.7,2.7-1.4,6-1.4,6c-0.1-0.4-1.5-3.5-2.5-6.1c-3.4,1.1-6.3,5.3-7,10.6
			c-0.7,5.1,0.9,9.7,3.8,11.8c0.7,0,1.4-0.1,2.1-0.1c1.6,0,3.2,0,4.7,0.2c0.1,0,0.1-0.1,0.2-0.2c2.2-1.9,4-4.9,5-8.6
			c0.1-0.4,0.1-0.7,0.2-1.1C669.2,122,667,116.8,663.4,115.3z"/>
	</g>
	<g>
		<path class="st0" d="M618.9,219.9c0.5,0.2,11.9,4.7,22.5,3s17.4-3.6,22.5-7.6c0.6,0.7,0.6,0.7,0.6,0.7s-9,21.8-23.9,21.9
			c-4.5-0.5-8.9,1.5-21.9-16.5C619.1,220,618.9,219.9,618.9,219.9z"/>
	</g>
	<g>
		<path class="st18" d="M659.7,219.2c0,0,0.1,0,0.1-0.1"/>
		<path class="st3" d="M659.7,219.2c-4.6,2.3-10.3,3.7-18.3,5c-6.9,1.1-14.1-0.4-18.4-1.7c0,0-0.4,3.8,1.7,4.2
			c2,0.4,13.2,2.7,17.6,2.1c4.5-0.5,14.1-3.3,15.5-4.6S660.1,220.5,659.7,219.2z"/>
	</g>
	<path class="st0" d="M547.5,191.2c0.1-0.2,2.5-3.8,1.2-5c-1.3-1.3-3.4-1.9-4.7,2.2c-1.3,4.1-9.2,20-6.3,34.3c0.3,2-1.3,5-1.3,5
		s-6.2,4.6-4.8,6.7c1.6,1.8,4.5,1.1,5.6-0.8c3.2,5.4,5.2,7.5,8.3,7.2c3.1-0.2,2.2-4.4,1.3-5.4c6.4,1.4,9.6-0.6,9.1-2.7
		c-0.3-1.7-2.9-4.7-6.9-3.9c1.9-1.9,3.4-6.8-5.8-2.6C541.4,224.2,535.2,217.6,547.5,191.2z"/>
	<path class="st0" d="M609.3,325.9c1,0.6,0.8,2,1,4.1c0.5,1.8-2.7,4.5-9.2,5.7c-14.6,2.7-21.4-2.6-22.4-5.3
		c-1.5-5.5-6.8-9.9-8.4-12.4c-1.6-2.6,1.1-3.8,1.1-3.8l7.1,9.4c0,0,2.2,4.2,4.5,4.8C585.5,329,602.7,332.7,609.3,325.9z"/>
	<circle class="st3" cx="591.6" cy="131" r="2.3"/>
	<circle class="st3" cx="592.5" cy="136" r="0.9"/>
	<circle class="st3" cx="656.1" cy="124.6" r="2.3"/>
	<g>
		<path class="st0" d="M792.1,76.3c0-24.3-19.5-44-43.8-44s-43.9,19.7-43.9,44c0,22.8,16,41.6,39.7,43.8v157.8
			c0,2.5,1.5,4.5,3.9,4.5s3.9-2,3.9-4.5V120.1C775.7,117.8,792.1,99.1,792.1,76.3z"/>
		<circle class="st3" cx="749.2" cy="76.3" r="37.8"/>
	</g>
	<path class="st0" d="M580.1,99.9c-0.4-0.3-0.6-0.9-0.6-1.5c0.1-0.9,0.9-1.4,1.8-1.3c0.3,0.1,8.1,1.2,15-5.6c0.6-0.6,1.6-0.6,2.2,0
		c0.6,0.6,0.6,1.6,0,2.2c-8.1,8-17.3,6.6-17.7,6.5C580.6,100.2,580.3,100.1,580.1,99.9z"/>
	<path class="st0" d="M660.2,87.1c-0.1-0.5,0.2-1.1,0.6-1.4c0.7-0.5,1.7-0.3,2.2,0.4c0.2,0.3,4.9,6.5,14.6,6.6
		c0.9,0,1.6,0.7,1.6,1.6c0,0.9-0.7,1.6-1.6,1.6c-11.4-0.1-16.9-7.6-17.1-7.9C660.3,87.6,660.2,87.4,660.2,87.1z"/>
	
		<ellipse transform="matrix(0.9974 -7.251113e-02 7.251113e-02 0.9974 -10.4946 54.824)" class="st0" cx="749.8" cy="172" rx="5.8" ry="2.6"/>
	<path class="st19" d="M768.2,56c-2.7-1.7-6.3-0.8-8,2l-16.3,26.9l-8.4-10.3c-2-2.5-5.7-2.8-8.2-0.8s-2.8,5.7-0.8,8.2l13.6,16.6
		c0.1,0.1,0.2,0.2,0.3,0.3l0,0c0.1,0.1,0.1,0.1,0.2,0.2l0,0c0.1,0.1,0.1,0.1,0.2,0.2l0.1,0.1l0.1,0.1l0.1,0.1l0,0
		c0.3,0.2,0.5,0.4,0.8,0.5l0,0c0.1,0,0.2,0.1,0.3,0.1h0.1c0.1,0,0.2,0.1,0.2,0.1h0.1c0.1,0,0.2,0.1,0.3,0.1c0.1,0,0.2,0,0.2,0.1
		c0.1,0,0.1,0,0.2,0s0.1,0,0.2,0h0.1c0.1,0,0.1,0,0.2,0s0.1,0,0.2,0s0.1,0,0.2,0s0.2,0,0.2,0h0.1c0.1,0,0.3,0,0.4,0s0.1,0,0.2,0
		s0.2,0,0.3,0c0.1,0,0.1,0,0.2,0s0.2,0,0.3-0.1c0.1,0,0.2,0,0.3-0.1c0.1,0,0.2,0,0.2-0.1c0.1,0,0.1,0,0.2-0.1c0.1,0,0.2-0.1,0.2-0.1
		c0.1,0,0.1,0,0.2-0.1s0.3-0.1,0.4-0.2c0,0,0,0,0.1,0c0.1-0.1,0.2-0.1,0.4-0.2c0,0,0.1,0,0.1-0.1c0.1-0.1,0.3-0.2,0.4-0.3l0,0l0,0
		c0.1,0,0.1-0.1,0.2-0.1l0.1-0.1l0.1-0.1l0.1-0.1l0.1-0.1c0.2-0.2,0.3-0.4,0.5-0.6l0,0c0.1-0.1,0.2-0.3,0.3-0.4l20.5-33.9
		C771.9,61.2,771,57.6,768.2,56z"/>
	
		<linearGradient id="SVGID_5_" gradientUnits="userSpaceOnUse" x1="740.7883" y1="796.2032" x2="786.9514" y2="796.2032" gradientTransform="matrix(1 0 0 -1 0 882)">
		<stop  offset="8.430325e-03" style="stop-color:#000000;stop-opacity:0.3"/>
		<stop  offset="1" style="stop-color:#000000;stop-opacity:0"/>
	</linearGradient>
	<path class="st20" d="M787,76.3c0-0.6,0-1.2,0-1.8l-16.9-16.9c1.3,1.8,1.5,4.3,0.2,6.3l-20.5,33.9c-0.1,0.1-0.2,0.3-0.3,0.4l0,0
		c-0.1,0.2-0.3,0.4-0.5,0.6l-0.1,0.1l-0.1,0.1l-0.1,0.1l-0.1,0.1c-0.1,0-0.1,0.1-0.2,0.1l0,0l0,0c-0.1,0-0.2,0.2-0.4,0.3
		c0,0-0.1,0-0.1,0.1c-0.1,0.1-0.2,0.1-0.4,0.2c0,0,0,0-0.1,0c-0.1,0.1-0.3,0.1-0.4,0.2c-0.1,0-0.1,0-0.2,0.1c-0.1,0-0.2,0.1-0.2,0.1
		c-0.1,0-0.1,0-0.2,0.1c-0.1,0-0.2,0.1-0.2,0.1c-0.1,0-0.2,0.1-0.3,0.1c-0.1,0-0.2,0-0.3,0.1c-0.1,0-0.1,0-0.2,0s-0.2,0-0.3,0
		c-0.1,0-0.1,0-0.2,0s-0.3,0-0.4,0h-0.1c-0.1,0-0.2,0-0.2,0c-0.1,0-0.1,0-0.2,0s-0.1,0-0.2,0s-0.1,0-0.2,0s-0.1,0-0.1,0
		c-0.1,0-0.1,0-0.2,0s-0.1,0-0.2,0s-0.2,0-0.2-0.1c-0.1,0-0.2-0.1-0.3-0.1h-0.1c-0.1,0-0.2-0.1-0.2-0.1h-0.1c-0.1,0-0.2-0.1-0.3-0.1
		l0,0c-0.3-0.1-0.5-0.3-0.8-0.5l0,0l-0.1-0.1l-0.1-0.1c0,0-0.1,0-0.1-0.1c0,0,0,0-0.1,0l14.4,14.4C773.2,110.7,787,95.1,787,76.3z"
		/>
</g>
<g>
	<path class="st2" d="M305.4,649.1c0,0-2.4,2.6-0.1,5.5c2.2,2.8,11,9.8,11,9.8s-0.3,3.2,3,3.1c3.2-0.1,10.1-2.8,16.2-1.2
		c3.1,0.5,11.8-3,17.1-18.2c2.3-6.8,1.4-11.2-0.5-11.7c-2.2-0.9-3.3-1.8-4.5-1.3c-2.6-0.4-6.9-1.6-11.9,0.5
		c-5.2,1.9-14.1,4.7-17.2,3.4C316.3,638.8,310.8,640.1,305.4,649.1z"/>
	<path class="st0" d="M253.4,601.7c0.5,1,26,15.1,37.1,19.9c5.3,9.9,5.1,18.1,16.8,28.8c2.2-0.1,4.7-3.6,5.1-6.6
		c0.2-3.2-7.2-19.5-8.2-22.7c-1.2-3.3-2.7-12.2-6.2-14c-5-1.8-30.4-18.5-31-17.8C266.4,590,253.4,601.7,253.4,601.7z"/>
	<path class="st0" d="M347.6,635.1c1.1-0.5,2.3,0.3,4.5,1.3c1.9,0.5,2.8,4.9,0.5,11.7c-5.3,15.2-14,18.7-17.1,18.2
		c-6-1.6-13,1.1-16.2,1.2c-3.2,0.1-3-3.1-3-3.1l12.7-1.6c0,0,5.1,0.3,7-1.7C337.7,659.2,350.5,645,347.6,635.1z"/>
	<path class="st2" d="M110.2,634.5c0,0,3.2,1.6,2.1,5.1c-1,3.4-6.9,13-6.9,13s1.4,3-1.7,4c-3,0.9-10.5,0.9-15.6,4.5
		c-2.8,1.6-12.1,1.3-22.4-11.1c-4.5-5.5-5.3-10-3.7-11.2c1.7-1.6,2.5-2.8,3.7-2.8c2.4-1.4,5.9-3.9,11.3-3.7c5.5,0,14.8-0.5,17.3-2.8
		C96.4,628.7,102,627.9,110.2,634.5z"/>
	<path class="st0" d="M65.7,636.1c-1.2-0.1-2,1.1-3.7,2.8c-1.6,1.1-0.8,5.6,3.7,11.2c10.3,12.4,19.7,12.6,22.4,11.1
		c5.1-3.5,12.5-3.5,15.6-4.5c3.1-1,1.7-4,1.7-4l-12.4,2.9c0,0-4.7,2-7.1,0.8C83.4,655.2,66.4,646.4,65.7,636.1z"/>
	<path class="st0" d="M165.9,598.3c-0.8,0.2-32.7,15.1-41.5,12.8c-3.2,5.6-9.7,17.2-15.9,25.5c-3.8,1.7-7.4-1.6-8.1-4.9
		c0.5-3.4,8.5-22.6,9.9-24.1c2.4-2.7,7-9.5,11.6-11.2c5.5-1.4,35.8-12.2,35.8-12.2L165.9,598.3z"/>
	<path class="st0" d="M121.6,497.7c0.1,0.5-23.5-4.9-27.3-15c-0.6-0.8,0.2-0.7,0.1-1.7c-0.3-2.8,0.7-4.5,2-7.7
		c2.6-4.7,2.4-6.4,0.5-7.2c-1.9-0.9-6.5-1-8.5,5.5c-2.2-3.4-5.1-4.1-6.2-2.4c-0.9,1.9-2,5.3,2,11.6c-3,1.1-5.7,2.2-5.1,4.1
		c0.7,1.9,4.7,1.9,7.2,0.5c2.9-0.3,7,0.6,8.1,2.2c1.2,1.6,14,12.6,20.2,12.8C120.7,500.5,121.6,497.7,121.6,497.7z"/>
	
		<ellipse transform="matrix(8.637068e-02 -0.9963 0.9963 8.637068e-02 -326.1615 687.3415)" class="st2" cx="211.7" cy="521.5" rx="92.9" ry="99"/>
	<path class="st1" d="M299.6,529.1c4.3-50.1-31.8-94.3-81.1-100.2c1.1,0.1,2.1,0.1,3.2,0.2c54.2,4.7,94.6,50,90.1,101.2
		c-4.4,51.2-51.9,88.8-106.2,84c-2-0.2-4.1-0.4-6-0.7C250.5,618,295.2,580.2,299.6,529.1z"/>
	<path class="st4" d="M234.2,478.2c0,0,5.4,0.7,5.6,0.8c0.2,0.1,4.4,1,4.7,0.7c0.3-0.3,5.5-5.1,5.5-5.1l1.8-14.7l-7.8-5.5l-6.7-3.2
		l-5.1,0.9l-5.7,2.5l-3.2,7.6l0.3,5.9l1.5,7.6l2.1,2.2L234.2,478.2z"/>
	<path class="st3" d="M247.1,466.5c-0.2-7.1-5.1-12.8-11-12.7c-5.9,0.1-10.5,5.9-10.3,13c0,1.1,0.2,2.2,0.4,3.2
		c0.3,3.2,2.1,5.9,4.6,7.4c0.1,0.1,0.1,0.1,0.2,0.1c-1.8-0.1-3.6,0-5.3,0.1c-2.9-3.2-4.7-7.6-4.9-12.4c-0.3-10.2,7.3-18.6,16.9-18.7
		c9.6-0.1,17.6,8,17.9,18.3c0.2,6.3-2.6,11.8-7,15.3c-2.4-0.6-5-1.1-7.7-1.6C244.7,476.3,247.2,471.7,247.1,466.5z"/>
	<path class="st0" d="M248.6,480.2c-2.4-0.6-5-1.1-7.6-1.6l-0.9-0.1l0.7-0.4c3.7-2,6.1-6.6,5.9-11.7l0,0c-0.1-3.4-1.3-6.6-3.3-8.9
		c-2-2.3-4.6-3.6-7.3-3.5c-2.7,0.1-5.2,1.4-7.1,3.7c-1.9,2.4-2.9,5.6-2.8,9c0,1.1,0.1,2.1,0.4,3.2c0.3,3,2,5.7,4.5,7.3l0.9,0.7H231
		c-1.8-0.1-3.6,0-5.3,0.1h-0.2l-0.1-0.1c-3-3.4-4.8-7.8-4.9-12.5c-0.3-10.3,7.4-18.9,17.3-19.1c9.8-0.1,18.1,8.2,18.3,18.5
		c0.2,6.1-2.5,11.8-7.1,15.5l-0.2,0.1L248.6,480.2z M237.7,446.8c-9.4,0.1-16.8,8.5-16.5,18.5c0.1,4.5,1.8,8.8,4.7,12.1
		c1.4-0.1,2.7-0.1,4.1-0.1c-2.3-1.7-3.9-4.3-4.2-7.2c-0.3-1-0.4-2.1-0.4-3.2c-0.1-3.5,0.9-6.8,2.9-9.3c2-2.6,4.7-4,7.8-4.1
		c3-0.1,5.8,1.3,8,3.8c2.1,2.4,3.3,5.7,3.4,9.2c0.1,4.9-2,9.5-5.6,11.8c2.3,0.3,4.5,0.8,6.7,1.4c4.4-3.5,6.9-9.1,6.7-14.9
		c-0.3-9.6-7.4-17.4-16.3-17.9C238.6,446.8,238.2,446.8,237.7,446.8z"/>
	<path class="st5" d="M229.4,477.4L229.4,477.4c-0.1-0.1-0.1-0.1-0.2-0.1C229.3,477.3,229.4,477.4,229.4,477.4z"/>
	<path class="st0" d="M251.2,482.6c0.5,0,0.9-0.1,1.1-0.5c0.3-0.4,0.1-0.9-0.5-1.1c-5.5-2-11.6-3.3-18.1-3.9
		c-4.9-0.4-9.7-0.4-14.3,0c-0.7,0.1-1.1,0.5-1,0.9s0.7,0.8,1.4,0.7c4.5-0.4,9.1-0.4,13.7,0c6.2,0.5,12.1,1.8,17.4,3.7
		C250.9,482.5,251.1,482.6,251.2,482.6z"/>
	<path class="st0" d="M233.4,459.3c0.4,2.3,0.8,5,0.8,5c0.2-0.3,2.2-2.7,3.6-4.7c3.7,1.2,6.4,4.9,6.5,9.3c0.1,4.3-2.2,7.8-5.7,9.3
		c-0.7-0.1-1.5-0.2-2.3-0.3c-1.8-0.1-3.6-0.3-5.3-0.3c-0.1-0.1-0.1-0.1-0.2-0.1c-2.2-1.7-3.9-4.3-4.6-7.4c0-0.3-0.1-0.6-0.1-0.9
		C226,464.2,229.2,460.2,233.4,459.3z"/>
	<path class="st4" d="M184.1,473.9c0,0,5.3,0.3,5.5,0.3c0.2,0,4.3,0.6,4.6,0.3s4.5-5.2,4.5-5.2l-0.5-13.7l-8.2-4.5l-6.9-2.4
		l-4.8,1.2l-5.1,2.8l-2,7.3l1.2,5.4l2.5,6.9l2.3,2L184.1,473.9z"/>
	<path class="st3" d="M194.7,462.1c-1.2-6.6-6.8-11.5-12.4-11s-9.1,6.3-7.9,12.8c0.2,1,0.5,2,0.9,2.9c0.8,2.9,2.9,5.3,5.5,6.6
		c0.1,0.1,0.1,0.1,0.2,0.1c-1.7,0.1-3.4,0.3-5.1,0.5c-3.2-2.8-5.6-6.7-6.5-11.1c-1.8-9.5,4.3-17.8,13.4-18.7
		c9.2-0.9,18.1,6.1,19.8,15.6c1.1,5.8-0.7,11.2-4.5,14.7c-2.4-0.4-4.9-0.7-7.6-0.9C193.9,471.5,195.6,467,194.7,462.1z"/>
	<path class="st0" d="M198.1,474.8c-2.4-0.4-4.9-0.7-7.5-0.9l-0.8-0.1l0.6-0.4c3.3-2.2,4.9-6.6,4-11.3l0,0c-0.6-3.1-2.2-6-4.5-8
		c-2.2-2-4.9-3-7.5-2.7c-2.6,0.3-4.8,1.7-6.2,4c-1.5,2.4-2,5.4-1.4,8.6c0.2,0.9,0.5,2,0.9,2.9c0.7,2.8,2.8,5.1,5.3,6.4l0.9,0.5
		l-0.9,0.1c-1.7,0.1-3.4,0.3-5,0.5h-0.2l-0.1-0.1c-3.4-2.9-5.7-6.9-6.6-11.2c-1.8-9.6,4.4-18.1,13.7-18.9
		c9.4-0.9,18.5,6.2,20.2,15.8c1.1,5.6-0.7,11.2-4.5,14.9l-0.1,0.1L198.1,474.8z M182.9,444.5c-8.9,0.8-14.8,9.1-13.1,18.3
		c0.7,4.2,3,8,6.2,10.9c1.3-0.1,2.6-0.3,3.9-0.3c-2.4-1.4-4.3-3.7-5-6.4c-0.4-0.9-0.7-2-0.9-3c-0.6-3.2-0.1-6.4,1.4-8.9
		c1.6-2.5,4-4.1,6.8-4.3c2.8-0.3,5.7,0.7,8.2,2.9c2.4,2.1,4,5.1,4.6,8.3c0.9,4.6-0.5,8.9-3.7,11.4c2.2,0.2,4.5,0.4,6.6,0.8
		c3.7-3.6,5.3-8.9,4.3-14.3c-1.6-8.9-9.7-15.6-18.2-15.4C183.7,444.5,183.3,444.5,182.9,444.5z"/>
	<path class="st5" d="M179.5,473.6L179.5,473.6c-0.1-0.1-0.2-0.1-0.3-0.1C179.3,473.5,179.4,473.6,179.5,473.6z"/>
	<path class="st0" d="M201,476.7c0.5,0,0.9-0.2,1-0.5c0.2-0.4-0.1-0.9-0.7-1c-5.6-1.4-11.6-2.2-17.9-2.2c-4.7-0.1-9.3,0.3-13.7,1.1
		c-0.6,0.1-1,0.5-0.8,0.9c0.1,0.4,0.7,0.7,1.4,0.6c4.2-0.7,8.6-1.1,13.1-1c6,0.1,11.8,0.7,17.2,2.2
		C200.7,476.7,200.8,476.7,201,476.7z"/>
	<path class="st0" d="M180.5,456.4c0.7,2.1,1.5,4.6,1.5,4.6c0.1-0.3,1.7-2.7,2.8-4.7c3.7,0.9,6.8,4.1,7.6,8.1c0.7,3.9-1,7.4-4.1,9.1
		c-0.7,0-1.5-0.1-2.2-0.1c-1.8,0-3.4,0.1-5.1,0.1c-0.1-0.1-0.1-0.1-0.3-0.1c-2.4-1.4-4.3-3.7-5.5-6.6c-0.1-0.3-0.1-0.5-0.2-0.8
		C174.3,461.6,176.6,457.6,180.5,456.4z"/>
	<path class="st3" d="M283.2,515.7c-0.7,10.6-9.9,18.7-20.5,18c-10.6-0.7-18.7-9.9-18-20.5c0.7-10.6,9.9-18.7,20.5-18
		C275.9,496,283.9,505.1,283.2,515.7"/>
	<polygon class="st3" points="141.8,489.4 151.3,490.1 149.5,515.9 166.1,517 165.5,525.3 139.5,523.5 	"/>
	<path class="st3" d="M169.1,510.5l1.3-19.1l9.6,0.6l-1.2,18.9c-0.3,4.9,2,7.4,5.8,7.7s6.4-1.8,6.8-6.6l1.3-19.2l9.6,0.6l-1.2,18.9
		c-0.7,11-7.3,15.4-17,14.8C174.1,526.5,168.3,521.2,169.1,510.5"/>
	<polygon class="st3" points="206.4,493.7 216.3,494.4 223.6,508.1 232.6,495.4 242.6,496.1 240.4,530.2 231,529.6 232.3,510 
		222.7,522.8 222.5,522.8 214.6,508.9 213.3,528.4 204.1,527.8 	"/>
	<polygon class="st3" points="203.8,534.5 212.1,535 211.9,537.4 206.5,537 206.4,538.6 211.3,538.9 211.2,541.2 206.2,540.8 
		206.1,542.5 211.6,542.9 211.4,545.2 203.1,544.7 	"/>
	<polygon class="st3" points="214.3,535.1 216.9,535.3 220.8,541 221.2,535.6 224,535.8 223.3,546 220.8,545.8 216.8,539.9 
		216.4,545.6 213.6,545.4 	"/>
	<polygon class="st3" points="226.4,536 234.6,536.5 234.5,538.9 229,538.5 229,540.1 233.9,540.4 233.7,542.7 228.8,542.3 
		228.7,543.9 234.2,544.3 234,546.7 225.7,546.2 	"/>
	<path class="st3" d="M236.6,536.6l4.9,0.3c1.6,0.1,2.6,0.6,3.2,1.4c0.5,0.6,0.8,1.4,0.7,2.4l0,0c-0.1,1.6-1,2.6-2.3,3l2.2,3.7
		l-3.3-0.2l-1.9-3.2l0,0l-1.2-0.1l-0.2,3.1l-2.8-0.2L236.6,536.6z M241,541.8c0.9,0.1,1.6-0.3,1.6-1.1l0,0c0.1-0.8-0.5-1.3-1.5-1.3
		l-1.9-0.1l-0.1,2.4L241,541.8z"/>
	<path class="st3" d="M246.5,542.5L246.5,542.5c0.2-3,2.7-5.2,5.9-5c1.8,0.1,3,0.7,4.1,1.8l-1.8,1.9c-0.7-0.7-1.4-1.1-2.4-1.1
		c-1.5-0.1-2.7,1.1-2.8,2.6l0,0c-0.1,1.6,0.9,2.9,2.6,3c0.7,0.1,1.2-0.1,1.7-0.3l0.1-1.2l-2-0.1l0.1-2.1l4.7,0.3l-0.3,4.6
		c-1.1,0.8-2.7,1.4-4.5,1.3C248.6,547.9,246.3,545.6,246.5,542.5"/>
	<polygon class="st3" points="260.9,544.6 257.4,538 260.7,538.2 262.5,542 264.9,538.5 268,538.7 263.7,544.8 263.5,548.7 
		260.6,548.5 	"/>
	<path class="st0" d="M311.4,509.5c-0.3,0.1-4.9,0.3-5.1,2.3s0.7,4.2,5,2.6s23.3-5.3,33.7-17.2c1.6-1.6,5.2-2.2,5.2-2.2
		s8,2.3,8.9-0.3c0.5-2.5-2-4.5-4.4-4.4c2.5-6.3,3-9.5,0.7-11.9c-2.2-2.6-5.3,1-5.5,2.4c-3-6.4-6.8-7.8-8.4-6.1
		c-1.3,1.4-2.1,5.6,1.1,8.5c-2.9-0.4-8,1.6,1.6,6.8C343.9,493,342.2,502.6,311.4,509.5z"/>
	<path class="st0" d="M166.7,564.7c0-0.5,21-9.3,34.8-9.4c19-0.2,34.7,9.1,41.5,14.7c-2.4,8.4-11.7,32.5-35.7,31.7
		C183.2,600.9,166.6,592.4,166.7,564.7z"/>
	<path class="st3" d="M224.7,595.9c-4.7,3-10.4,4.9-17.4,4.6c-11.7-0.4-21.6-2.6-28.7-8c0,0-0.7-2.6,1.5-2.9
		c2.2-0.3,10.3,4.9,19.5,4.5c9.2-0.5,21.8-2.8,23.5-2.4C224.6,592.2,225.8,594.5,224.7,595.9z"/>
	<path class="st3" d="M238.2,567.6c-8.1-5.3-21.3-11.4-36.7-11.2c-10.4,0.1-24.9,5.1-31.4,7.8c0,0-0.5,2.9,2.4,2.9
		s56.5,4.5,59.8,4.3S237.9,568.7,238.2,567.6z"/>
	<path class="st3" d="M218.8,595.1c0.7-0.5,1.3-5.3,5.7-5.5c4.4-0.1,5.1,1.7,4.3,2.7c-0.9,1.1-3.7,4.2-6.8,4
		C218.8,596.2,218.8,595.1,218.8,595.1z"/>
	<path class="st3" d="M186.1,593c-0.7-0.5-1.3-5.3-5.7-5.5c-4.4-0.1-5.1,1.7-4.3,2.7c0.9,1.1,3.7,4.2,6.8,4
		C186.1,594,186.1,593,186.1,593z"/>
	<path class="st3" d="M181.4,589.9c-0.5-0.3-0.9-4.1-4.3-4.1c-3.4-0.1-3.9,1.3-3.2,2.1c0.7,0.8,2.8,3.2,5.1,3
		C181.4,590.8,181.4,589.9,181.4,589.9z"/>
	<path class="st3" d="M181.4,587.8c-0.5-0.3-0.9-4.1-4.3-4.1c-3.4-0.1-3.9,1.3-3.2,2.1c0.7,0.8,2.8,3.2,5.1,3
		C181.4,588.6,181.4,587.8,181.4,587.8z"/>
	<path class="st3" d="M226.6,587.8c0.5-0.3,0.9-4.1,4.3-4.1c3.4-0.1,3.9,1.3,3.2,2.1c-0.7,0.8-2.8,3.2-5.1,3
		C226.6,588.6,226.6,587.8,226.6,587.8z"/>
	<path class="st3" d="M224.4,590.9c0.5-0.4,1.1-4.5,4.7-4.5c3.7-0.1,4.3,1.4,3.5,2.3c-0.7,0.9-3,3.5-5.7,3.3
		C224.4,591.9,224.4,590.9,224.4,590.9z"/>
</g>
<g>
	<path class="st21" d="M969.1,197.9c0,24-19.4,43.4-43.4,43.4c-24,0-43.4-19.4-43.4-43.4c0-24,19.4-43.4,43.4-43.4
		C949.7,154.5,969.1,174,969.1,197.9"/>
	<path class="st3" d="M968.2,197.6c0,5.7-4.6,10.3-10.3,10.3c-5.7,0-10.3-4.6-10.3-10.3c0-5.7,4.6-10.3,10.3-10.3
		C963.6,187.3,968.2,191.9,968.2,197.6"/>
	<polygon class="st3" points="891.9,188.5 896.9,188.5 896.9,202.3 905.8,202.3 905.8,206.8 891.9,206.8 	"/>
	<path class="st3" d="M907.1,198.8v-10.3h5.1v10.2c0,2.6,1.3,3.9,3.4,3.9c2,0,3.4-1.2,3.4-3.8v-10.3h5.1v10.1c0,5.9-3.4,8.5-8.6,8.5
		C910.4,207.1,907.1,204.5,907.1,198.8"/>
	<polygon class="st3" points="926.5,188.5 931.8,188.5 936.2,195.6 940.5,188.5 945.9,188.5 945.9,206.8 940.9,206.8 940.9,196.3 
		936.2,203.4 936.1,203.4 931.4,196.3 931.4,206.8 926.5,206.8 	"/>
	<polygon class="st3" points="926.6,210.3 931,210.3 931,211.6 928.1,211.6 928.1,212.5 930.7,212.5 930.7,213.7 928.1,213.7 
		928.1,214.5 931,214.5 931,215.8 926.6,215.8 	"/>
	<polygon class="st3" points="932.2,210.3 933.6,210.3 935.8,213.2 935.8,210.3 937.3,210.3 937.3,215.8 936,215.8 933.7,212.8 
		933.7,215.8 932.2,215.8 	"/>
	<polygon class="st3" points="938.6,210.3 943.1,210.3 943.1,211.6 940.2,211.6 940.2,212.5 942.8,212.5 942.8,213.7 940.2,213.7 
		940.2,214.5 943.1,214.5 943.1,215.8 938.6,215.8 	"/>
	<path class="st3" d="M946.6,213c0.5,0,0.8-0.3,0.8-0.7v0c0-0.4-0.3-0.7-0.8-0.7h-1v1.3H946.6z M944.1,210.3h2.6
		c0.8,0,1.4,0.2,1.8,0.6c0.3,0.3,0.5,0.7,0.5,1.3v0c0,0.8-0.4,1.4-1.1,1.7l1.3,1.9h-1.8l-1.1-1.7h0h-0.7v1.7h-1.5V210.3z"/>
	<path class="st3" d="M949.6,213.1L949.6,213.1c0-1.6,1.3-2.9,3-2.9c1,0,1.6,0.3,2.2,0.8l-0.9,1.1c-0.4-0.3-0.8-0.5-1.3-0.5
		c-0.8,0-1.4,0.7-1.4,1.5v0c0,0.9,0.6,1.5,1.5,1.5c0.4,0,0.7-0.1,0.9-0.2v-0.7h-1.1v-1.1h2.5v2.5c-0.6,0.5-1.4,0.8-2.4,0.8
		C950.9,215.9,949.6,214.8,949.6,213.1"/>
	<polygon class="st3" points="957.4,213.8 955.3,210.3 957,210.3 958.1,212.3 959.3,210.3 961,210.3 958.9,213.8 958.9,215.8 
		957.4,215.8 	"/>
</g>
</svg>
